<svg width="32" height="32" viewBox="0 0 32 32" fill="none" xmlns="http://www.w3.org/2000/svg">
<path d="M16 30C23.732 30 30 23.732 30 16C30 8.26801 23.732 2 16 2C8.26801 2 2 8.26801 2 16C2 23.732 8.26801 30 16 30Z" fill="url(#paint0_linear_214_751)"/>
<path d="M22.1267 21.5785L17.3927 10.1331C17.1257 9.54135 16.7288 9.25269 16.2056 9.25269H15.787C15.2638 9.25269 14.8669 9.54135 14.5999 10.1331L12.5396 15.1197H10.9808C10.5154 15.1233 10.1365 15.4986 10.1329 15.9676V15.9785C10.1365 16.4439 10.5154 16.8228 10.9808 16.8264H11.8179L9.85143 21.5785C9.81535 21.6831 9.7937 21.7913 9.7937 21.9032C9.7937 22.1702 9.87669 22.3795 10.0246 22.5419C10.1726 22.7042 10.3855 22.7836 10.6525 22.7836C10.8293 22.78 10.9989 22.7259 11.1396 22.6212C11.2911 22.5166 11.3958 22.3651 11.4788 22.1919L13.6437 16.8228H15.1447C15.6102 16.8192 15.9891 16.4439 15.9927 15.9748V15.9532C15.9891 15.4877 15.6102 15.1089 15.1447 15.1053H14.3437L15.9963 10.9883L20.4994 22.1883C20.5824 22.3614 20.687 22.513 20.8385 22.6176C20.9793 22.7223 21.1525 22.7764 21.3257 22.78C21.5927 22.78 21.8019 22.7006 21.9535 22.5383C22.105 22.3759 22.1844 22.1666 22.1844 21.8996C22.188 21.7913 22.17 21.6795 22.1267 21.5785Z" fill="white"/>
<defs>
<linearGradient id="paint0_linear_214_751" x1="26.4382" y1="7.21704" x2="5.6062" y2="24.745" gradientUnits="userSpaceOnUse">
<stop stop-color="#B6509E"/>
<stop offset="1" stop-color="#2EBAC6"/>
</linearGradient>
</defs>
</svg>
