<svg width="32" height="32" viewBox="0 0 32 32" fill="none" xmlns="http://www.w3.org/2000/svg">
<path d="M25.044 2H6.956C4.21888 2 2 4.30055 2 7.13841V24.8616C2 27.6995 4.21888 30 6.956 30H25.044C27.7811 30 30 27.6995 30 24.8616V7.13841C30 4.30055 27.7811 2 25.044 2Z" fill="#000B1D"/>
<path d="M19.0101 10.0271C18.5061 8.77881 17.3301 7.98047 16.0281 7.98047C14.7261 7.98047 13.5361 8.79333 13.0321 10.0416L8.9441 20.1443C8.3841 21.5232 9.3641 23.0473 10.8061 23.0473H15.3701C16.4901 23.0473 17.4001 22.1038 17.4001 20.9426C17.4001 19.7814 16.4901 18.8379 15.3701 18.8379C15.3281 18.8379 14.5861 18.8379 14.5861 18.8379C14.2501 18.8379 14.0401 18.4895 14.1661 18.1702L15.6221 14.5849C15.7761 14.193 16.2941 14.193 16.4621 14.5849L19.4301 21.77C19.8361 22.728 20.6061 23.0473 21.2921 23.0473C22.7341 23.0473 23.7141 21.5232 23.1541 20.1298L19.0381 10.0271H19.0101Z" fill="black"/>
<path d="M19.0101 10.0271C18.5061 8.77881 17.3301 7.98047 16.0281 7.98047C14.7261 7.98047 13.5361 8.79333 13.0321 10.0416L8.9441 20.1443C8.3841 21.5232 9.3641 23.0473 10.8061 23.0473H15.3701C16.4901 23.0473 17.4001 22.1038 17.4001 20.9426C17.4001 19.7814 16.4901 18.8379 15.3701 18.8379C15.3281 18.8379 14.5861 18.8379 14.5861 18.8379C14.2501 18.8379 14.0401 18.4895 14.1661 18.1702L15.6221 14.5849C15.7761 14.193 16.2941 14.193 16.4621 14.5849L19.4301 21.77C19.8361 22.728 20.6061 23.0473 21.2921 23.0473C22.7341 23.0473 23.7141 21.5232 23.1541 20.1298L19.0381 10.0271H19.0101Z" fill="white"/>
<path d="M19.0101 10.0271C18.5061 8.77881 17.3301 7.98047 16.0281 7.98047C14.7261 7.98047 13.5361 8.79333 13.0321 10.0416L8.9441 20.1443C8.3841 21.5232 9.3641 23.0473 10.8061 23.0473H15.3701C16.4901 23.0473 17.4001 22.1038 17.4001 20.9426C17.4001 19.7814 16.4901 18.8379 15.3701 18.8379C15.3281 18.8379 14.5861 18.8379 14.5861 18.8379C14.2501 18.8379 14.0401 18.4895 14.1661 18.1702L15.6221 14.5849C15.7761 14.193 16.2941 14.193 16.4621 14.5849L19.4301 21.77C19.8361 22.728 20.6061 23.0473 21.2921 23.0473C22.7341 23.0473 23.7141 21.5232 23.1541 20.1298L19.0381 10.0271H19.0101Z" fill="url(#paint0_radial_214_1542)"/>
<path d="M19.0101 10.0271C18.5061 8.77881 17.3301 7.98047 16.0281 7.98047C14.7261 7.98047 13.5361 8.79333 13.0321 10.0416L8.9441 20.1443C8.3841 21.5232 9.3641 23.0473 10.8061 23.0473H15.3701C16.4901 23.0473 17.4001 22.1038 17.4001 20.9426C17.4001 19.7814 16.4901 18.8379 15.3701 18.8379C15.3281 18.8379 14.5861 18.8379 14.5861 18.8379C14.2501 18.8379 14.0401 18.4895 14.1661 18.1702L15.6221 14.5849C15.7761 14.193 16.2941 14.193 16.4621 14.5849L19.4301 21.77C19.8361 22.728 20.6061 23.0473 21.2921 23.0473C22.7341 23.0473 23.7141 21.5232 23.1541 20.1298L19.0381 10.0271H19.0101Z" fill="url(#paint1_radial_214_1542)"/>
<path d="M19.0101 10.0271C18.5061 8.77881 17.3301 7.98047 16.0281 7.98047C14.7261 7.98047 13.5361 8.79333 13.0321 10.0416L8.9441 20.1443C8.3841 21.5232 9.3641 23.0473 10.8061 23.0473H15.3701C16.4901 23.0473 17.4001 22.1038 17.4001 20.9426C17.4001 19.7814 16.4901 18.8379 15.3701 18.8379C15.3281 18.8379 14.5861 18.8379 14.5861 18.8379C14.2501 18.8379 14.0401 18.4895 14.1661 18.1702L15.6221 14.5849C15.7761 14.193 16.2941 14.193 16.4621 14.5849L19.4301 21.77C19.8361 22.728 20.6061 23.0473 21.2921 23.0473C22.7341 23.0473 23.7141 21.5232 23.1541 20.1298L19.0381 10.0271H19.0101Z" fill="url(#paint2_radial_214_1542)"/>
<path d="M19.0101 10.0271C18.5061 8.77881 17.3301 7.98047 16.0281 7.98047C14.7261 7.98047 13.5361 8.79333 13.0321 10.0416L8.9441 20.1443C8.3841 21.5232 9.3641 23.0473 10.8061 23.0473H15.3701C16.4901 23.0473 17.4001 22.1038 17.4001 20.9426C17.4001 19.7814 16.4901 18.8379 15.3701 18.8379C15.3281 18.8379 14.5861 18.8379 14.5861 18.8379C14.2501 18.8379 14.0401 18.4895 14.1661 18.1702L15.6221 14.5849C15.7761 14.193 16.2941 14.193 16.4621 14.5849L19.4301 21.77C19.8361 22.728 20.6061 23.0473 21.2921 23.0473C22.7341 23.0473 23.7141 21.5232 23.1541 20.1298L19.0381 10.0271H19.0101Z" fill="url(#paint3_radial_214_1542)"/>
<path d="M19.0101 10.0271C18.5061 8.77881 17.3301 7.98047 16.0281 7.98047C14.7261 7.98047 13.5361 8.79333 13.0321 10.0416L8.9441 20.1443C8.3841 21.5232 9.3641 23.0473 10.8061 23.0473H15.3701C16.4901 23.0473 17.4001 22.1038 17.4001 20.9426C17.4001 19.7814 16.4901 18.8379 15.3701 18.8379C15.3281 18.8379 14.5861 18.8379 14.5861 18.8379C14.2501 18.8379 14.0401 18.4895 14.1661 18.1702L15.6221 14.5849C15.7761 14.193 16.2941 14.193 16.4621 14.5849L19.4301 21.77C19.8361 22.728 20.6061 23.0473 21.2921 23.0473C22.7341 23.0473 23.7141 21.5232 23.1541 20.1298L19.0381 10.0271H19.0101Z" fill="url(#paint4_radial_214_1542)"/>
<path d="M19.0101 10.0271C18.5061 8.77881 17.3301 7.98047 16.0281 7.98047C14.7261 7.98047 13.5361 8.79333 13.0321 10.0416L8.9441 20.1443C8.3841 21.5232 9.3641 23.0473 10.8061 23.0473H15.3701C16.4901 23.0473 17.4001 22.1038 17.4001 20.9426C17.4001 19.7814 16.4901 18.8379 15.3701 18.8379C15.3281 18.8379 14.5861 18.8379 14.5861 18.8379C14.2501 18.8379 14.0401 18.4895 14.1661 18.1702L15.6221 14.5849C15.7761 14.193 16.2941 14.193 16.4621 14.5849L19.4301 21.77C19.8361 22.728 20.6061 23.0473 21.2921 23.0473C22.7341 23.0473 23.7141 21.5232 23.1541 20.1298L19.0381 10.0271H19.0101Z" fill="url(#paint5_radial_214_1542)"/>
<path d="M19.0101 10.0271C18.5061 8.77881 17.3301 7.98047 16.0281 7.98047C14.7261 7.98047 13.5361 8.79333 13.0321 10.0416L8.9441 20.1443C8.3841 21.5232 9.3641 23.0473 10.8061 23.0473H15.3701C16.4901 23.0473 17.4001 22.1038 17.4001 20.9426C17.4001 19.7814 16.4901 18.8379 15.3701 18.8379C15.3281 18.8379 14.5861 18.8379 14.5861 18.8379C14.2501 18.8379 14.0401 18.4895 14.1661 18.1702L15.6221 14.5849C15.7761 14.193 16.2941 14.193 16.4621 14.5849L19.4301 21.77C19.8361 22.728 20.6061 23.0473 21.2921 23.0473C22.7341 23.0473 23.7141 21.5232 23.1541 20.1298L19.0381 10.0271H19.0101Z" fill="url(#paint6_radial_214_1542)"/>
<defs>
<radialGradient id="paint0_radial_214_1542" cx="0" cy="0" r="1" gradientTransform="matrix(5.93302 6.56761 -6.33352 6.47186 20.8621 20.8581)" gradientUnits="userSpaceOnUse">
<stop stop-color="#68E048"/>
<stop offset="1" stop-color="#5CE049" stop-opacity="0"/>
</radialGradient>
<radialGradient id="paint1_radial_214_1542" cx="0" cy="0" r="1" gradientTransform="matrix(-6.50815 6.21348 -5.99201 -7.09923 11.0847 20.7937)" gradientUnits="userSpaceOnUse">
<stop stop-color="#308CFE"/>
<stop offset="1" stop-color="#2F8BFF" stop-opacity="0"/>
</radialGradient>
<radialGradient id="paint2_radial_214_1542" cx="0" cy="0" r="1" gradientTransform="matrix(5.14598 0.740466 -0.714073 5.61334 20.5897 16.4153)" gradientUnits="userSpaceOnUse">
<stop stop-color="#FDD511"/>
<stop offset="1" stop-color="#FDD20D" stop-opacity="0"/>
</radialGradient>
<radialGradient id="paint3_radial_214_1542" cx="0" cy="0" r="1" gradientTransform="matrix(-4.63138 -6.34225 6.11619 -5.05201 11.2664 13.4213)" gradientUnits="userSpaceOnUse">
<stop stop-color="#F928C2"/>
<stop offset="1" stop-color="#F922BC" stop-opacity="0"/>
</radialGradient>
<radialGradient id="paint4_radial_214_1542" cx="0" cy="0" r="1" gradientTransform="matrix(3.45084 -7.14711 6.89236 3.76424 17.0178 10.4916)" gradientUnits="userSpaceOnUse">
<stop stop-color="#F90700"/>
<stop offset="1" stop-color="#F90700" stop-opacity="0"/>
</radialGradient>
<radialGradient id="paint5_radial_214_1542" cx="0" cy="0" r="1" gradientTransform="matrix(1.90704 -4.37841 4.22235 2.08024 22.527 10.1697)" gradientUnits="userSpaceOnUse">
<stop stop-color="#FB4200"/>
<stop offset="1" stop-color="#FB4300" stop-opacity="0"/>
</radialGradient>
<radialGradient id="paint6_radial_214_1542" cx="0" cy="0" r="1" gradientTransform="matrix(-2.84543 -3.09064 2.98048 -3.10385 10.2977 9.81554)" gradientUnits="userSpaceOnUse">
<stop stop-color="#FE0D88"/>
<stop offset="1" stop-color="#FE0D88" stop-opacity="0"/>
</radialGradient>
</defs>
</svg>
