<svg width="32" height="32" viewBox="0 0 32 32" fill="none" xmlns="http://www.w3.org/2000/svg">
<path d="M14.503 4.303L4.06378 8.72883C3.48326 8.97499 3.48928 9.82001 4.07344 10.0572L14.5562 14.3165C15.4772 14.6908 16.503 14.6908 17.424 14.3165L27.9069 10.0571C28.4909 9.82001 28.4973 8.97515 27.9164 8.72899L17.4775 4.30284C16.5251 3.89905 15.4553 3.89905 14.5029 4.30284" fill="#FCB400"/>
<path d="M16.9204 16.6425V27.2829C16.9204 27.7889 17.4185 28.1356 17.8776 27.9491L29.5586 23.3035C29.6889 23.2506 29.8007 23.1588 29.8794 23.04C29.9581 22.9212 30.0002 22.781 30.0002 22.6374V11.9971C30.0002 11.491 29.5021 11.1444 29.043 11.3309L17.362 15.9765C17.2317 16.0294 17.12 16.1212 17.0413 16.24C16.9625 16.3588 16.9204 16.4989 16.9204 16.6425Z" fill="#18BFFF"/>
<path d="M14.1925 17.1915L10.7259 18.9065L10.3739 19.0808L3.05595 22.6734C2.59223 22.9027 2 22.5564 2 22.0284V12.0416C2 11.8506 2.09559 11.6856 2.22379 11.5616C2.27638 11.5079 2.33605 11.4621 2.40105 11.4254C2.57577 11.3179 2.8252 11.2892 3.03728 11.3751L14.1343 15.8802C14.6983 16.1095 14.7427 16.9192 14.1925 17.1915Z" fill="#F82B60"/>
<path d="M14.1924 17.1915L10.7257 18.9065L2.22363 11.5614C2.27624 11.5078 2.3359 11.462 2.40089 11.4254C2.57562 11.3179 2.82505 11.2892 3.03712 11.3751L14.1341 15.8802C14.6982 16.1095 14.7425 16.9192 14.1924 17.1915Z" fill="black" fill-opacity="0.25"/>
</svg>
