<svg width="32" height="32" viewBox="0 0 32 32" fill="none" xmlns="http://www.w3.org/2000/svg">
<path d="M9.89066 13.6741C9.89066 14.0239 9.92791 14.3076 9.99309 14.5156C10.0676 14.7236 10.1607 14.9505 10.2911 15.1963C10.3377 15.272 10.3563 15.3476 10.3563 15.4138C10.3563 15.5083 10.3004 15.6029 10.1793 15.6974L9.59266 16.0946C9.50884 16.1513 9.42503 16.1796 9.35053 16.1796C9.25741 16.1796 9.16428 16.1324 9.07116 16.0473C8.94078 15.9055 8.82903 15.7542 8.73591 15.6029C8.64278 15.4422 8.54966 15.2625 8.44722 15.0451C7.72084 15.9149 6.80822 16.3498 5.70934 16.3498C4.92709 16.3498 4.30315 16.1229 3.84684 15.6691C3.39053 15.2152 3.15771 14.6101 3.15771 13.8537C3.15771 13.0501 3.43709 12.3977 4.00515 11.906C4.57322 11.4143 5.32753 11.1685 6.28672 11.1685C6.60334 11.1685 6.92928 11.1969 7.27384 11.2442C7.6184 11.2914 7.97228 11.3671 8.34478 11.4522V10.762C8.34478 10.0434 8.19578 9.54227 7.90709 9.24917C7.60909 8.95606 7.10622 8.81424 6.38915 8.81424C6.06322 8.81424 5.72797 8.85206 5.3834 8.93715C5.03884 9.02225 4.70359 9.12625 4.37765 9.25862C4.22865 9.32481 4.1169 9.36263 4.05172 9.38154C3.98653 9.40044 3.93997 9.4099 3.90272 9.4099C3.77234 9.4099 3.70715 9.31535 3.70715 9.1168V8.6535C3.70715 8.50222 3.72578 8.38877 3.77234 8.32258C3.8189 8.2564 3.90272 8.19021 4.03309 8.12403C4.35903 7.95384 4.75015 7.81201 5.20647 7.69855C5.66278 7.57564 6.14703 7.51891 6.65922 7.51891C7.76741 7.51891 8.57759 7.77419 9.09909 8.28476C9.61128 8.79533 9.87203 9.57063 9.87203 10.6107V13.6741H9.89066ZM6.10978 15.1112C6.41709 15.1112 6.73372 15.0545 7.06897 14.941C7.40422 14.8276 7.70222 14.6196 7.95366 14.3359C8.10266 14.1563 8.21441 13.9577 8.27028 13.7308C8.32616 13.5039 8.36341 13.2297 8.36341 12.9082V12.5111C8.09334 12.4449 7.80466 12.3882 7.50666 12.3504C7.20865 12.3126 6.91997 12.2937 6.63128 12.2937C6.00734 12.2937 5.55103 12.4166 5.24372 12.6719C4.9364 12.9271 4.7874 13.2864 4.7874 13.7592C4.7874 14.2036 4.89915 14.5345 5.13197 14.7614C5.35547 14.9978 5.6814 15.1112 6.10978 15.1112ZM13.5877 16.1324C13.4201 16.1324 13.3083 16.104 13.2338 16.0378C13.1593 15.9811 13.0942 15.8487 13.0383 15.6691L10.8498 8.3604C10.794 8.1713 10.766 8.04839 10.766 7.9822C10.766 7.83092 10.8405 7.74583 10.9895 7.74583H11.9022C12.0791 7.74583 12.2002 7.77419 12.2653 7.84038C12.3398 7.89711 12.3957 8.02948 12.4516 8.20912L14.0161 14.4683L15.4688 8.20912C15.5154 8.02002 15.5713 7.89711 15.6458 7.84038C15.7203 7.78365 15.8507 7.74583 16.0183 7.74583H16.7633C16.9402 7.74583 17.0613 7.77419 17.1358 7.84038C17.2103 7.89711 17.2755 8.02948 17.3127 8.20912L18.7841 14.5439L20.3952 8.20912C20.451 8.02002 20.5162 7.89711 20.5814 7.84038C20.6559 7.78365 20.777 7.74583 20.9446 7.74583H21.8107C21.9597 7.74583 22.0435 7.82147 22.0435 7.9822C22.0435 8.02948 22.0342 8.07675 22.0249 8.13348C22.0155 8.19021 21.9969 8.26585 21.9597 8.36986L19.7154 15.6785C19.6595 15.8676 19.5943 15.9905 19.5198 16.0473C19.4453 16.104 19.3242 16.1418 19.1659 16.1418H18.365C18.1881 16.1418 18.067 16.1135 17.9925 16.0473C17.918 15.9811 17.8528 15.8582 17.8156 15.6691L16.3722 9.57063L14.938 15.6596C14.8915 15.8487 14.8356 15.9716 14.7611 16.0378C14.6866 16.104 14.5562 16.1324 14.3886 16.1324H13.5877ZM25.5543 16.3877C25.07 16.3877 24.5858 16.3309 24.1202 16.2175C23.6545 16.104 23.2914 15.9811 23.0492 15.8393C22.9002 15.7542 22.7978 15.6596 22.7605 15.5745C22.7233 15.4894 22.7047 15.3949 22.7047 15.3098V14.8276C22.7047 14.629 22.7792 14.5345 22.9189 14.5345C22.9747 14.5345 23.0306 14.5439 23.0865 14.5628C23.1424 14.5818 23.2262 14.6196 23.3193 14.6574C23.6359 14.7992 23.9805 14.9127 24.3437 14.9883C24.7162 15.064 25.0794 15.1018 25.4519 15.1018C26.0385 15.1018 26.4949 14.9978 26.8115 14.7898C27.1281 14.5818 27.2957 14.2792 27.2957 13.8915C27.2957 13.6268 27.2119 13.4093 27.0443 13.2297C26.8767 13.0501 26.56 12.8893 26.1037 12.738L24.7534 12.3126C24.0736 12.0951 23.5707 11.7736 23.2634 11.3482C22.9561 10.9321 22.7978 10.4689 22.7978 9.9772C22.7978 9.58009 22.8816 9.23026 23.0492 8.9277C23.2169 8.62514 23.4404 8.3604 23.7197 8.15239C23.9991 7.93493 24.3157 7.77419 24.6882 7.66073C25.0607 7.54727 25.4519 7.5 25.8616 7.5C26.0665 7.5 26.2807 7.50945 26.4855 7.53782C26.6997 7.56618 26.8953 7.604 27.0909 7.64182C27.2771 7.6891 27.454 7.73637 27.6217 7.7931C27.7893 7.84983 27.9197 7.90656 28.0128 7.96329C28.1432 8.03893 28.2363 8.11457 28.2922 8.19967C28.348 8.27531 28.376 8.37931 28.376 8.51168V8.95606C28.376 9.15462 28.3015 9.25862 28.1618 9.25862C28.0873 9.25862 27.9662 9.2208 27.8079 9.14516C27.2771 8.89933 26.6811 8.77642 26.0199 8.77642C25.4891 8.77642 25.07 8.86151 24.7814 9.04116C24.4927 9.2208 24.3437 9.49499 24.3437 9.88265C24.3437 10.1474 24.4368 10.3743 24.623 10.5539C24.8093 10.7336 25.1539 10.9132 25.6474 11.074L26.9698 11.4994C27.6403 11.7169 28.1245 12.0195 28.4132 12.4071C28.7019 12.7948 28.8416 13.2392 28.8416 13.7308C28.8416 14.1374 28.7578 14.5061 28.5995 14.8276C28.4319 15.1491 28.2084 15.4327 27.9197 15.6596C27.631 15.896 27.2864 16.0662 26.886 16.1891C26.4669 16.3215 26.0292 16.3877 25.5543 16.3877Z" fill="#353E47"/>
<path d="M27.3144 20.9826C24.2506 23.2802 19.7992 24.4999 15.9717 24.4999C10.6077 24.4999 5.77455 22.486 2.12404 19.1389C1.83536 18.8742 2.09611 18.5149 2.44067 18.7229C6.38917 21.0488 11.2596 22.4576 16.2977 22.4576C19.6967 22.4576 23.4311 21.739 26.8674 20.2641C27.3796 20.0277 27.8172 20.6044 27.3144 20.9826ZM28.5902 19.5077C28.1991 18.9971 26.0013 19.2618 25.0049 19.3848C24.7069 19.4226 24.6603 19.1578 24.9304 18.9593C26.6811 17.7112 29.5587 18.0705 29.8939 18.4865C30.2292 18.912 29.8008 21.8336 28.1618 23.2329C27.9104 23.4504 27.6682 23.3369 27.78 23.0533C28.1525 22.1172 28.9813 20.0088 28.5902 19.5077Z" fill="#FF9900"/>
</svg>
