<svg width="32" height="24" viewBox="0 0 32 24" fill="none" xmlns="http://www.w3.org/2000/svg">
<rect width="32" height="24" rx="4" fill="#373E46"/>
<path d="M10.204 5.00393C10.149 5.01178 10.0901 5.01963 10.0352 5.02749C9.48544 5.09424 8.99067 5.29843 8.54303 5.62042C8.44879 5.68717 8.3624 5.75785 8.26423 5.83246C8.25638 5.81283 8.24852 5.79319 8.24852 5.77749C8.23282 5.67147 8.21711 5.56152 8.19748 5.4555C8.16999 5.27487 8.07968 5.19634 7.89905 5.19634H7.44748C7.17654 5.19634 7.12549 5.24738 7.12549 5.51832V13.7369C7.12549 13.7762 7.12549 13.8154 7.12941 13.8547C7.13727 13.9725 7.20795 14.0471 7.32182 14.051C7.59669 14.055 7.87549 14.055 8.15036 14.051C8.26423 14.051 8.33491 13.9725 8.34669 13.8547C8.35062 13.8154 8.35062 13.7762 8.35062 13.7369V10.894C8.39381 10.9293 8.41737 10.949 8.43701 10.9686C9.13989 11.5537 9.94879 11.7461 10.8323 11.5733C11.6333 11.4162 12.1909 10.9254 12.5522 10.2029C12.8271 9.65707 12.9409 9.07592 12.9566 8.4712C12.9763 7.79974 12.9095 7.14005 12.6386 6.51571C12.3048 5.74607 11.7511 5.23953 10.9148 5.06675C10.7891 5.03927 10.6595 5.02749 10.5299 5.00785C10.42 5.00393 10.314 5.00393 10.204 5.00393ZM8.34277 6.64921C8.34277 6.59031 8.35847 6.55497 8.40952 6.51963C8.94748 6.1466 9.54041 5.95026 10.2001 6.00131C10.7852 6.0445 11.2642 6.33115 11.5155 7.01832C11.6687 7.43848 11.7079 7.87435 11.7079 8.31414C11.7079 8.72251 11.6765 9.12304 11.5509 9.51571C11.2839 10.3521 10.6713 10.6702 9.87811 10.6348C9.32837 10.6113 8.84931 10.3992 8.40952 10.089C8.3624 10.0537 8.34277 10.0223 8.34277 9.95942C8.34669 9.40576 8.34277 8.85602 8.34277 8.30236C8.34277 7.75262 8.34669 7.20288 8.34277 6.64921ZM16.42 5.00393C16.3807 5.00785 16.3415 5.01571 16.3061 5.01963C15.9213 5.03927 15.5443 5.08639 15.1713 5.18063C14.9318 5.24346 14.7001 5.32984 14.4684 5.40838C14.3271 5.4555 14.2564 5.55759 14.2603 5.71073C14.2642 5.84031 14.2564 5.9699 14.2603 6.09948C14.2642 6.28796 14.3428 6.33901 14.5273 6.29188C14.8336 6.21335 15.1399 6.12696 15.4501 6.06806C15.9331 5.97775 16.42 5.93848 16.9108 6.01309C17.1661 6.05236 17.4056 6.12696 17.5705 6.34293C17.7158 6.53141 17.7708 6.75524 17.7786 6.98691C17.7904 7.31283 17.7865 7.63874 17.7904 7.96466C17.7904 7.98037 17.7865 8 17.7826 8.01963C17.7629 8.01571 17.7472 8.01963 17.7315 8.01571C17.3192 7.91754 16.903 7.84686 16.475 7.8233C16.0312 7.79974 15.5915 7.82722 15.1674 7.97644C14.6608 8.15314 14.2525 8.45942 14.0129 8.95419C13.8284 9.33901 13.8009 9.74738 13.8598 10.1597C13.9383 10.7094 14.2132 11.1335 14.7001 11.4045C15.1674 11.6636 15.6739 11.695 16.1883 11.6165C16.7812 11.5262 17.3074 11.2749 17.7708 10.894C17.7865 10.8783 17.8061 10.8665 17.8336 10.8508C17.8572 11 17.8768 11.1414 17.9043 11.2827C17.9278 11.4045 18.0024 11.483 18.1163 11.4869C18.3284 11.4908 18.5443 11.4908 18.7564 11.4869C18.8624 11.483 18.9331 11.4123 18.9449 11.3024C18.9488 11.267 18.9488 11.2277 18.9488 11.1924V7.0301C18.9488 6.86126 18.9409 6.69241 18.9134 6.52356C18.8388 6.01702 18.6229 5.60079 18.1674 5.32984C17.9043 5.17277 17.6137 5.09424 17.3114 5.05105C17.17 5.03141 17.0286 5.01963 16.8873 5C16.7341 5.00393 16.5771 5.00393 16.42 5.00393ZM17.7943 10.0183C17.7943 10.0694 17.7786 10.1047 17.7354 10.1361C17.2956 10.4542 16.8127 10.6662 16.2668 10.7212C16.043 10.7448 15.8192 10.7369 15.6072 10.6505C15.3598 10.5524 15.1988 10.3796 15.1203 10.1283C15.0417 9.87696 15.0417 9.6178 15.1163 9.36649C15.2145 9.04058 15.4462 8.85602 15.7603 8.75393C16.0784 8.65183 16.4082 8.63613 16.7341 8.66754C17.064 8.69503 17.386 8.75785 17.7158 8.80105C17.7786 8.8089 17.7983 8.84031 17.7983 8.90314C17.7943 9.09162 17.7983 9.27618 17.7983 9.46466C17.7943 9.64921 17.7904 9.83377 17.7943 10.0183ZM22.8127 10.2618C22.3061 8.85995 21.7996 7.45419 21.293 6.05236C21.2145 5.82853 21.1281 5.60864 21.0456 5.38874C21.0024 5.27487 20.92 5.20026 20.7943 5.20026C20.4959 5.19634 20.1975 5.19241 19.8951 5.19634C19.797 5.19634 19.7498 5.27487 19.7695 5.37304C19.7891 5.4555 19.8127 5.53403 19.8441 5.61257C20.6137 7.51702 21.3873 9.42539 22.1648 11.3259C22.2315 11.4869 22.2472 11.6243 22.1726 11.7893C22.043 12.0759 21.9409 12.3783 21.8074 12.6649C21.6896 12.9202 21.4933 13.1126 21.2106 13.1872C21.0103 13.2421 20.81 13.25 20.6059 13.2304C20.5077 13.2225 20.4095 13.199 20.3114 13.1911C20.1778 13.1832 20.1111 13.2421 20.1072 13.3796C20.1032 13.5092 20.1032 13.6387 20.1072 13.7683C20.1111 13.9843 20.1857 14.0825 20.3977 14.1178C20.6176 14.1571 20.8415 14.1924 21.0614 14.1963C21.7328 14.212 22.2668 13.9411 22.6124 13.356C22.7498 13.1243 22.8755 12.8809 22.9737 12.6335C23.9043 10.2853 24.8231 7.93325 25.7459 5.58115C25.7734 5.51047 25.797 5.43979 25.8087 5.36518C25.8244 5.25524 25.7734 5.19241 25.6634 5.19241C25.4043 5.18848 25.1412 5.19241 24.882 5.19241C24.7367 5.19241 24.6346 5.25524 24.5797 5.3966C24.56 5.45157 24.5365 5.50262 24.5168 5.55759C24.0614 6.86518 23.6059 8.17278 23.1504 9.48429C23.0522 9.76702 22.9501 10.0537 22.848 10.356C22.8323 10.3128 22.8244 10.2893 22.8127 10.2618Z" fill="white"/>
<path d="M4.38089 15.1231C4.20419 15.0288 4.09031 15.0563 4 15.2212V15.2998C4.05497 15.3744 4.10209 15.4608 4.17277 15.5236C5.86126 17.0314 7.76571 18.1702 9.89005 18.9398C10.9188 19.3128 11.9712 19.5838 13.0471 19.7605C13.7029 19.8665 14.3626 19.9411 15.0262 19.9686L15.0377 19.9689C15.1715 19.9728 15.3089 19.9767 15.4463 19.9843C15.4777 19.9843 15.5131 19.9922 15.5445 19.9961H16.373C16.4045 19.9922 16.4398 19.9843 16.4712 19.9843C17.1702 19.9686 17.8691 19.8979 18.5602 19.7958C19.5615 19.6466 20.5432 19.4149 21.5092 19.1047C22.8992 18.6532 24.2147 18.0524 25.4202 17.2238C25.5497 17.1335 25.6872 17.0432 25.7971 16.9333C25.9895 16.7409 25.8992 16.4581 25.6361 16.3875C25.5105 16.356 25.3927 16.3875 25.2788 16.4346C23.2212 17.2985 21.0812 17.8521 18.8665 18.1152C18.1872 18.1937 17.5039 18.2487 16.8207 18.2644C15.572 18.2958 14.3272 18.2252 13.0903 18.0602C12.2539 17.9503 11.4293 17.7932 10.6086 17.5969C8.87304 17.1767 7.20419 16.5799 5.60602 15.7788C5.18979 15.5707 4.78927 15.343 4.38089 15.1231Z" fill="#F29000"/>
<path d="M27.6427 14.7736C27.8115 14.8286 27.9607 14.9032 28 15.0995V15.7788C27.9725 15.9202 27.949 16.0655 27.9175 16.2068C27.7448 17.0039 27.4503 17.7461 26.9476 18.3901C26.7984 18.5786 26.6217 18.7474 26.449 18.9163C26.4018 18.9634 26.3272 18.9987 26.2605 19.0144C26.1466 19.0419 26.0798 18.9673 26.0995 18.8534C26.1073 18.8142 26.123 18.7749 26.1387 18.7357L26.1387 18.7356L26.1589 18.6841C26.3801 18.1199 26.6029 17.5515 26.7592 16.9647C26.8416 16.6663 26.9123 16.3639 26.8966 16.0498C26.8887 15.8456 26.7984 15.6964 26.5982 15.6414C26.4136 15.5903 26.2212 15.5471 26.0327 15.5354C25.5851 15.5 25.1335 15.5275 24.6859 15.5707C24.3796 15.6021 24.0772 15.6375 23.7709 15.6689C23.7435 15.6728 23.712 15.6728 23.6846 15.6728C23.6257 15.6767 23.5589 15.661 23.5432 15.6021C23.5275 15.555 23.5353 15.4882 23.5628 15.445C23.5982 15.3901 23.6531 15.3469 23.7081 15.3076C24.1832 14.9817 24.7173 14.8011 25.2788 14.695C25.7893 14.6008 26.3037 14.5772 26.8181 14.6204C27.0969 14.644 27.3757 14.6833 27.6427 14.7736Z" fill="#F29000"/>
</svg>
