<svg width="32" height="32" viewBox="0 0 32 32" fill="none" xmlns="http://www.w3.org/2000/svg">
<path d="M2.40379 17.5647C2.32857 17.5684 2.25475 17.542 2.19738 17.4903C2.1484 17.4282 2.12566 17.3475 2.1344 17.2672V9.68131C2.12566 9.60099 2.1484 9.5203 2.19738 9.4582C2.25545 9.41134 2.32752 9.38903 2.40029 9.39498H3.17694C3.32388 9.37936 3.45612 9.48906 3.47781 9.64413L3.55478 9.94161C3.77833 9.71218 4.04246 9.53145 4.33143 9.40986C4.62705 9.28268 4.94296 9.21686 5.26202 9.21649C5.89804 9.19418 6.50607 9.49501 6.8993 10.0271C7.33241 10.6615 7.54756 11.4346 7.50803 12.2174C7.51992 12.7856 7.41742 13.3497 7.20716 13.8721C7.03364 14.3072 6.75166 14.6839 6.39202 14.9617C6.04428 15.2138 5.63041 15.3439 5.20954 15.3335C4.92372 15.335 4.63965 15.2848 4.36992 15.1848C4.12188 15.0963 3.89273 14.9572 3.69471 14.7757V17.2746C3.70241 17.3542 3.68142 17.4341 3.63524 17.4977C3.57542 17.5468 3.5002 17.5691 3.42533 17.561L2.40379 17.5647ZM4.75824 14.0841C5.10389 14.1105 5.43834 13.9461 5.64335 13.649C5.86131 13.2333 5.95996 12.7588 5.92673 12.2843C5.96031 11.8054 5.86306 11.3264 5.64685 10.9047C5.44114 10.6046 5.10319 10.4399 4.75475 10.4696C4.38496 10.47 4.02252 10.5764 3.70521 10.7783V13.7717C4.02007 13.98 4.38391 14.0893 4.75475 14.0878L4.75824 14.0841Z" fill="#00A8E1"/>
<path d="M8.83728 15.2144C8.71204 15.2393 8.59134 15.1516 8.5679 15.0181C8.56265 14.9883 8.56265 14.9578 8.5679 14.9281V9.6812C8.55915 9.60088 8.58189 9.52019 8.63087 9.45809C8.68895 9.41124 8.76102 9.38893 8.83378 9.39488H9.60694C9.75388 9.37926 9.88612 9.48895 9.90781 9.64402L10.0477 10.2539C10.2776 9.96791 10.5522 9.7262 10.8594 9.5399C11.1099 9.40045 11.3884 9.32794 11.671 9.32794H11.8215C11.8974 9.32088 11.9733 9.34319 12.0349 9.39116C12.0838 9.45326 12.1066 9.53395 12.0978 9.61427V10.5737C12.1038 10.651 12.0828 10.7276 12.0384 10.7893C11.9799 10.8414 11.904 10.8656 11.8285 10.8563H11.636C11.5566 10.8563 11.4566 10.8563 11.3352 10.8563C11.133 10.8607 10.9315 10.8856 10.7334 10.9306C10.527 10.9712 10.3255 11.0348 10.1317 11.1203V14.9318C10.1373 15.0092 10.1163 15.0858 10.0722 15.1475C10.0138 15.1996 9.93789 15.2237 9.86233 15.2144H8.83728Z" fill="#00A8E1"/>
<path d="M13.6482 8.48799C13.4095 8.50063 13.1753 8.41548 12.9937 8.25C12.825 8.08229 12.7343 7.8443 12.7452 7.59925C12.7333 7.35271 12.8239 7.11323 12.9937 6.94478C13.3773 6.61867 13.9226 6.61867 14.3062 6.94478C14.4749 7.11249 14.5655 7.35048 14.5547 7.59553C14.5655 7.84059 14.4749 8.07857 14.3062 8.24628C14.1242 8.41399 13.8886 8.50063 13.6482 8.48799ZM13.1337 15.2186C13.0084 15.2435 12.8876 15.1557 12.8642 15.0223C12.8589 14.9925 12.8589 14.962 12.8642 14.9323V9.68165C12.8554 9.60133 12.8782 9.52063 12.9272 9.45853C12.9853 9.41168 13.0574 9.38937 13.1302 9.39532H14.1627C14.2376 9.38714 14.3128 9.40945 14.3727 9.45853C14.4189 9.52212 14.4399 9.60207 14.4322 9.68165V14.9323C14.4381 15.0096 14.4171 15.0862 14.3727 15.1479C14.3142 15.2 14.2383 15.2242 14.1627 15.2149L13.1337 15.2186Z" fill="#00A8E1"/>
<path d="M16.0302 15.2141C15.9049 15.239 15.7842 15.1513 15.7608 15.0178C15.7555 14.988 15.7555 14.9575 15.7608 14.9278V9.68089C15.752 9.60057 15.7748 9.51988 15.8237 9.45778C15.8818 9.41093 15.9539 9.38861 16.0267 9.39456H16.7998C16.9467 9.37895 17.079 9.48864 17.1007 9.64371L17.1881 9.95235C17.5065 9.7192 17.8507 9.52955 18.2132 9.38713C18.5123 9.27631 18.8268 9.21868 19.1438 9.21607C19.6951 9.16587 20.2248 9.45481 20.5082 9.95979C20.8276 9.72626 21.1746 9.53884 21.5402 9.402C21.8628 9.28784 22.2007 9.2302 22.5408 9.23095C22.9704 9.20343 23.3916 9.36482 23.7058 9.67718C23.9954 10.0148 24.1445 10.4629 24.1186 10.9192V14.9315C24.1242 15.0089 24.1032 15.0855 24.0591 15.1472C24.0007 15.1992 23.9248 15.2234 23.8492 15.2141H22.8311C22.7059 15.239 22.5852 15.1513 22.5618 15.0178C22.5565 14.988 22.5565 14.9575 22.5618 14.9278V11.2687C22.5618 10.7507 22.3438 10.4915 21.9076 10.4915C21.501 10.4964 21.1005 10.5983 20.7356 10.789V14.9315C20.7415 15.0089 20.7205 15.0855 20.6761 15.1472C20.6177 15.1992 20.5418 15.2234 20.4662 15.2141H19.4376C19.3124 15.239 19.1917 15.1513 19.1683 15.0178C19.163 14.988 19.163 14.9575 19.1683 14.9278V11.2687C19.1683 10.7507 18.9503 10.4915 18.5141 10.4915C18.1026 10.4941 17.6975 10.6001 17.3316 10.8002V14.9278C17.3372 15.0051 17.3162 15.0817 17.2721 15.1435C17.2137 15.1955 17.1378 15.2197 17.0622 15.2104L16.0302 15.2141Z" fill="#00A8E1"/>
<path d="M27.862 15.3861C27.1081 15.4385 26.3674 15.1574 25.8154 14.6089C25.3105 13.9946 25.0583 13.191 25.1157 12.3777C25.0653 11.5348 25.3207 10.7029 25.8294 10.0536C26.3594 9.47206 27.1014 9.16379 27.862 9.20953C28.4245 9.17383 28.9801 9.35642 29.4258 9.72269C29.8029 10.0648 30.0107 10.5724 29.989 11.0986C30.0146 11.6136 29.7833 12.1052 29.3803 12.3926C28.8377 12.7221 28.216 12.8745 27.5926 12.8314C27.2392 12.8359 26.8866 12.7935 26.5431 12.705C26.5452 13.1163 26.7012 13.5097 26.9769 13.7982C27.3033 14.0444 27.7007 14.1615 28.0999 14.1292C28.2951 14.1292 28.4903 14.1154 28.6841 14.0883C28.9507 14.0444 29.2145 13.9845 29.4748 13.9098H29.5377H29.5902C29.7116 13.9098 29.7721 13.9979 29.7721 14.1738V14.6981C29.7788 14.787 29.762 14.8759 29.7231 14.9547C29.6735 15.0168 29.6077 15.0618 29.5342 15.0849C28.999 15.2942 28.4322 15.3965 27.862 15.3861ZM27.5121 11.8051C27.7875 11.8263 28.0628 11.7646 28.3063 11.6266C28.4735 11.505 28.568 11.2986 28.5547 11.0837C28.5547 10.6051 28.2863 10.366 27.75 10.366C27.0619 10.366 26.6645 10.8148 26.557 11.7121C26.8695 11.7757 27.1871 11.807 27.5051 11.8051H27.5121Z" fill="#00A8E1"/>
<path d="M27.2988 21.622C24.2342 24.0242 19.7912 25.2997 15.9673 25.2997C10.8575 25.3287 5.92119 23.3307 2.12397 19.6958C1.8371 19.4206 2.09248 19.0451 2.43883 19.257C6.65726 21.8173 11.4316 23.1619 16.2892 23.1578C19.9139 23.1374 23.4995 22.3576 26.8405 20.8635C27.3723 20.6292 27.8061 21.2093 27.2988 21.622Z" fill="#00A8E1"/>
<path d="M28.5898 20.0932C28.1979 19.5614 26.0009 19.8403 25.0109 19.9668C24.71 20.0039 24.661 19.7288 24.9339 19.528C26.6831 18.219 29.5623 18.5983 29.8947 19.0371C30.2271 19.4759 29.8072 22.5363 28.1455 23.9977C27.8936 24.2208 27.6522 24.1018 27.7641 23.8043C28.1385 22.804 28.9676 20.6101 28.5898 20.0932Z" fill="#00A8E1"/>
</svg>
