<svg width="32" height="24" viewBox="0 0 32 24" fill="none" xmlns="http://www.w3.org/2000/svg">
<rect width="32" height="24" rx="4" fill="#3671C6"/>
<path fill-rule="evenodd" clip-rule="evenodd" d="M5.16003 8.5L2 15.493H5.783L6.25198 14.3781H7.32396L7.79294 15.493H11.957V14.642L12.328 15.493H14.482L14.853 14.6241V15.493H23.513L24.566 14.407L25.552 15.493L30 15.502L26.83 12.016L30 8.5H25.621L24.596 9.56596L23.641 8.5H14.22L13.4111 10.305L12.5831 8.5H8.80801V9.32203L8.38805 8.5H5.16003ZM18.092 9.49316H23.065L24.586 11.1361L26.1561 9.49316H27.6771L25.3661 12.0152L27.6771 14.5082H26.0871L24.5661 12.8461L22.988 14.5082H18.092V9.49316ZM19.32 11.4477V10.5317L22.423 10.5308L23.777 11.9958L22.363 13.4688H19.32V12.4687H22.033V11.4477H19.32ZM5.89206 9.49316H7.73607L9.83211 14.2352V9.49316H11.8522L13.4711 12.8932L14.9632 9.49316H16.9731V14.5111H15.7501L15.7401 10.5791L13.9571 14.5111H12.863L11.07 10.5791V14.5111H8.55404L8.07705 13.3862H5.50007L5.02407 14.5101H3.67603L5.89206 9.49316ZM5.94006 12.3463L6.78908 10.3423L7.6371 12.3463H5.94006Z" fill="white"/>
</svg>
