<svg width="32" height="32" viewBox="0 0 32 32" fill="none" xmlns="http://www.w3.org/2000/svg">
<path d="M16 27.9515C23.1797 27.9515 29 22.1421 29 14.9758C29 7.80944 23.1797 2 16 2C8.82029 2 3 7.80944 3 14.9758C3 22.1421 8.82029 27.9515 16 27.9515Z" fill="#45EF8A"/>
<path d="M16 2.1708C19.4179 2.1708 22.6978 3.5148 25.1299 5.9116C27.562 8.3084 28.9506 11.5648 28.9944 14.9758H28.9994C28.9994 11.5346 27.6299 8.23392 25.1916 5.80072C22.7544 3.36696 19.4476 2 16 2C12.5524 2 9.24556 3.36696 6.80782 5.80072C4.36951 8.23392 3 11.5346 3 14.9758H3.00505C3.04881 11.5648 4.4374 8.3084 6.86953 5.9116C9.30167 3.5148 12.5821 2.1708 16 2.1708Z" fill="white" fill-opacity="0.2"/>
<path d="M18.7659 14.9758H15.605L23.6515 28.8851L25.5074 29.9541C25.5602 29.9844 25.6197 30.0001 25.6802 30.0001C25.7711 29.9995 25.8575 29.9637 25.9221 29.8998C25.986 29.836 26.0225 29.7492 26.0225 29.6585V27.5176L18.7659 14.9758Z" fill="#D7EFFE"/>
<path opacity="0.3" d="M18.7659 14.9758H15.605L23.6515 28.8851L25.5074 29.9541C25.5602 29.9844 25.6197 30.0001 25.6802 30.0001C25.7711 29.9995 25.8575 29.9637 25.9221 29.8998C25.986 29.836 26.0225 29.7492 26.0225 29.6585V27.5176L18.7659 14.9758Z" fill="#BDBDBD"/>
<path d="M22.842 14.9757C22.842 16.1455 22.5407 17.2957 21.9678 18.3161C21.3945 19.3364 20.5686 20.1926 19.5682 20.8025C18.5685 21.4123 17.4284 21.7561 16.257 21.7998C15.0861 21.8441 13.923 21.587 12.88 21.0533L16 15.6583L16.395 14.9751H13.234L5.97803 27.5174V29.6583C5.97803 29.749 6.0145 29.8353 6.07845 29.8997C6.14241 29.9641 6.22938 29.9999 6.32027 29.9999C6.38086 29.9999 6.44033 29.9837 6.49307 29.954L8.34901 28.8849L11.5099 23.4216C12.9698 24.1944 14.6047 24.5774 16.257 24.5332C17.9087 24.4889 19.5211 24.0191 20.9372 23.169C22.3533 22.3189 23.5247 21.1177 24.3383 19.6819C25.1518 18.2461 25.5793 16.6249 25.5793 14.9757H22.842Z" fill="#D7EFFE"/>
<path d="M19.079 8.82924H17.3683V6.78076H14.6316V8.8298H12.9209C12.6488 8.83036 12.3885 8.939 12.1961 9.13052C12.0036 9.3226 11.8953 9.58244 11.8948 9.85404V14.9758L15.2745 18.3459C15.3699 18.4411 15.4827 18.5167 15.6072 18.5682C15.7318 18.6197 15.8653 18.6466 16 18.6466C16.1346 18.6466 16.2681 18.6203 16.3927 18.5682C16.5172 18.5167 16.63 18.4411 16.7254 18.3459L20.1051 14.9758V9.85404C20.1046 9.58244 19.9957 9.3226 19.8038 9.13052C19.6114 8.93844 19.3505 8.8298 19.079 8.82924ZM16 14.6342C15.6616 14.6342 15.3306 14.534 15.0495 14.3464C14.7685 14.1588 14.5491 13.8922 14.4195 13.5803C14.2899 13.2684 14.2562 12.9251 14.3219 12.5936C14.3881 12.2626 14.5508 11.958 14.7898 11.7194C15.0288 11.4808 15.334 11.3179 15.6656 11.2524C15.9971 11.1863 16.3411 11.2204 16.6541 11.3498C16.9666 11.4792 17.2337 11.6976 17.4216 11.9787C17.6096 12.2592 17.71 12.5896 17.71 12.9273C17.71 13.3804 17.5294 13.8144 17.209 14.1347C16.8886 14.455 16.4533 14.6342 16 14.6342Z" fill="#073042"/>
</svg>
