<svg width="32" height="32" viewBox="0 0 32 32" fill="none" xmlns="http://www.w3.org/2000/svg">
<path d="M24.3412 2H7.65529C4.53018 2 2 4.5305 2 7.656V24.3475C2 27.4695 4.53018 30 7.65529 30H24.3447C27.4663 30 30 27.4695 30 24.344V7.656C29.9965 4.5305 27.4663 2 24.3412 2Z" fill="url(#paint0_linear_214_59)"/>
<path d="M15.8797 8.43315L16.4466 7.45315C16.7966 6.84065 17.577 6.63415 18.1894 6.98415C18.8018 7.33415 19.0083 8.11465 18.6583 8.72715L13.1955 18.1842H17.1465C18.4274 18.1842 19.1448 19.6892 18.5883 20.7322H7.0048C6.29789 20.7322 5.73096 20.1652 5.73096 19.4582C5.73096 18.7512 6.29789 18.1842 7.0048 18.1842H10.2524L14.4099 10.9777L13.1115 8.72365C12.7616 8.11115 12.9681 7.33765 13.5805 6.98065C14.1929 6.63065 14.9663 6.83715 15.3233 7.44965L15.8797 8.43315ZM10.9663 22.0447L9.74145 24.1692C9.3915 24.7817 8.6111 24.9882 7.99867 24.6382C7.38625 24.2882 7.17978 23.5077 7.52973 22.8952L8.43962 21.3202C9.46849 21.0017 10.3049 21.2467 10.9663 22.0447ZM21.514 18.1912H24.8281C25.535 18.1912 26.1019 18.7582 26.1019 19.4652C26.1019 20.1722 25.535 20.7392 24.8281 20.7392H22.9873L24.2296 22.8952C24.5796 23.5077 24.3731 24.2812 23.7607 24.6382C23.1483 24.9882 22.3749 24.7817 22.0179 24.1692C19.9252 20.5397 18.3539 17.8237 17.311 16.0142C16.2436 14.1732 17.0065 12.3252 17.7589 11.6987C18.5953 13.1337 19.8447 15.3002 21.514 18.1912Z" fill="white"/>
<defs>
<linearGradient id="paint0_linear_214_59" x1="15.9982" y1="2" x2="15.9982" y2="30" gradientUnits="userSpaceOnUse">
<stop stop-color="#0ED4FC"/>
<stop offset="1" stop-color="#0C57EF"/>
</linearGradient>
</defs>
</svg>
