<svg width="32" height="32" viewBox="0 0 32 32" fill="none" xmlns="http://www.w3.org/2000/svg">
<path d="M23.6411 16.8755C23.6804 21.1129 27.3583 22.5229 27.3991 22.5409C27.368 22.6403 26.8114 24.5503 25.4614 26.5232C24.2943 28.229 23.0831 29.9284 21.1751 29.9636C19.3003 29.9981 18.6974 28.8518 16.5539 28.8518C14.4111 28.8518 13.7413 29.9284 11.9666 29.9981C10.1248 30.0679 8.72233 28.1537 7.54565 26.4542C5.14115 22.9779 3.30362 16.6311 5.77096 12.3469C6.99669 10.2193 9.18715 8.87202 11.5647 8.83747C13.3732 8.80297 15.0802 10.0542 16.1859 10.0542C17.2908 10.0542 19.3652 8.54949 21.5459 8.77048C22.4589 8.80847 25.0216 9.13925 26.6671 11.5479C26.5345 11.6301 23.6093 13.333 23.6411 16.8755ZM20.1176 6.47062C21.0954 5.28704 21.7535 3.6394 21.5739 2C20.1645 2.05665 18.4602 2.93919 17.4493 4.12212C16.5433 5.16965 15.7498 6.8463 15.9639 8.45325C17.5349 8.57479 19.1397 7.65495 20.1176 6.47062Z" fill="black"/>
</svg>
