<svg width="32" height="24" viewBox="0 0 32 24" fill="none" xmlns="http://www.w3.org/2000/svg">
<rect width="32" height="24" rx="4" fill="black"/>
<path d="M8.38525 8.28925C8.10397 8.62702 7.65392 8.89343 7.20387 8.85538C7.14761 8.39867 7.36795 7.91342 7.62579 7.6137C7.90707 7.26641 8.39932 7.01903 8.7978 7C8.84468 7.47574 8.66185 7.94196 8.38525 8.28925ZM8.79311 8.94577C8.14148 8.90771 7.5836 9.3216 7.27419 9.3216C6.96009 9.3216 6.4866 8.9648 5.97091 8.97431C5.30052 8.98382 4.67702 9.36917 4.33479 9.98287C3.63158 11.2103 4.15196 13.0276 4.83172 14.0266C5.16457 14.5214 5.56305 15.0637 6.08811 15.0447C6.58505 15.0257 6.78194 14.7165 7.38201 14.7165C7.98677 14.7165 8.16023 15.0447 8.68529 15.0352C9.2291 15.0257 9.57133 14.5404 9.90418 14.0457C10.2839 13.4843 10.4386 12.9372 10.448 12.9087C10.4386 12.8991 9.39787 12.4948 9.38849 11.2769C9.37912 10.2588 10.2089 9.77355 10.2464 9.745C9.7776 9.04091 9.04627 8.9648 8.79311 8.94577ZM12.5576 7.56613V14.9829H13.6921V12.4472H15.2626C16.6971 12.4472 17.7051 11.4481 17.7051 10.0019C17.7051 8.55566 16.7159 7.56613 15.3001 7.56613H12.5576ZM13.6921 8.53663H15.0001C15.9846 8.53663 16.5471 9.06946 16.5471 10.0067C16.5471 10.9439 15.9846 11.4814 14.9954 11.4814H13.6921V8.53663ZM19.7772 15.04C20.4898 15.04 21.1508 14.6736 21.4508 14.0932H21.4743V14.9829H22.5244V11.2912C22.5244 10.2207 21.6805 9.53092 20.3819 9.53092C19.1771 9.53092 18.2864 10.2303 18.2536 11.1912H19.2756C19.3599 10.7345 19.7772 10.4348 20.3491 10.4348C21.043 10.4348 21.4321 10.7631 21.4321 11.3673V11.7764L20.0163 11.862C18.6989 11.9429 17.9864 12.49 17.9864 13.4415C17.9864 14.4025 18.7224 15.04 19.7772 15.04ZM20.0819 14.1598C19.4771 14.1598 19.0927 13.8649 19.0927 13.4129C19.0927 12.9467 19.4631 12.6755 20.171 12.6327L21.4321 12.5519V12.9705C21.4321 13.6651 20.8507 14.1598 20.0819 14.1598ZM23.9261 17C25.0325 17 25.5528 16.5718 26.0076 15.2731L28 9.60228H26.8467L25.5107 13.9838H25.4872L24.1511 9.60228H22.965L24.8871 15.0019L24.784 15.3302C24.6105 15.8868 24.3293 16.1009 23.8276 16.1009C23.7386 16.1009 23.5651 16.0913 23.4948 16.0818V16.9715C23.5604 16.9905 23.8417 17 23.9261 17Z" fill="white"/>
</svg>
