<svg width="32" height="32" viewBox="0 0 32 32" fill="none" xmlns="http://www.w3.org/2000/svg">
<path fill-rule="evenodd" clip-rule="evenodd" d="M5.76124 20.3965L4.38128 23.2921C3.67873 24.7647 4.20665 26.5777 5.65328 27.3451C7.187 28.1583 9.07424 27.5235 9.81405 25.9762L11.0735 23.3337C9.12856 22.7078 7.32414 21.7103 5.76124 20.3965Z" fill="#1A007F"/>
<path fill-rule="evenodd" clip-rule="evenodd" d="M27.5672 8.11702C27.3715 8.07804 27.1719 8.05811 26.9724 8.05811C25.5329 8.05811 24.2827 9.08162 24.0008 10.49C23.7099 11.9418 23.0282 13.2944 22.0886 14.4434L24.8445 20.2345C27.3883 18.0318 29.2672 15.0325 29.9406 11.6764C30.269 10.0337 29.2048 8.44072 27.5672 8.11702Z" fill="#FF9396"/>
<path fill-rule="evenodd" clip-rule="evenodd" d="M16.9509 17.7331C16.3606 17.8742 15.7579 17.9488 15.1553 17.9488C14.6855 17.9488 14.1993 17.8949 13.7129 17.7911C11.697 17.3639 9.6684 16.1193 8.52119 14.6052C8.23434 14.2278 8.00157 13.8337 7.83951 13.4312C7.21193 11.8839 5.44523 11.1371 3.8949 11.7594C2.34457 12.3857 1.59623 14.1489 2.21977 15.6962C2.93063 17.4551 4.18579 19.0689 5.76126 20.3964C7.32281 21.7102 9.12566 22.7076 11.0692 23.3334C12.4034 23.7606 13.7876 23.9972 15.151 23.9972C16.6641 23.9972 18.1563 23.7358 19.5777 23.2588L16.9509 17.7331Z" fill="#002DC8"/>
<path fill-rule="evenodd" clip-rule="evenodd" d="M26.2991 23.2791L24.8444 20.2258L22.0885 14.4389L22.0842 14.4431C22.0842 14.4431 22.0842 14.4389 22.0885 14.4389L18.0814 6.02584C17.5802 4.97433 16.5132 4.30094 15.3464 4.30005C14.1784 4.30005 13.1144 4.97209 12.6114 6.02584L8.52539 14.6046C9.67259 16.1187 11.701 17.3634 13.7171 17.7905L15.0389 15.0195C15.1637 14.7581 15.5377 14.7581 15.6625 15.0195L16.9551 17.7325L19.5862 23.2582L20.8789 25.9713C21.3796 27.025 22.4492 27.6991 23.6181 27.6971C23.8884 27.6971 24.1584 27.6596 24.4246 27.5851C26.2492 27.0833 27.1138 24.9883 26.2991 23.2791Z" fill="#FF536A"/>
</svg>
