<svg width="32" height="32" viewBox="0 0 32 32" fill="none" xmlns="http://www.w3.org/2000/svg">
<rect x="2" y="2" width="28" height="28" rx="14" fill="#784589"/>
<path d="M13.4824 18.2715C13.2433 18.2715 13.0087 18.2483 12.7785 18.2018C12.5483 18.1553 12.3335 18.0878 12.1343 17.9992C11.9129 17.8974 11.727 17.7746 11.5765 17.6307C11.4259 17.4868 11.3175 17.3241 11.2511 17.1426C11.1979 16.9788 11.199 16.825 11.2544 16.6811C11.3097 16.5372 11.4082 16.4343 11.5499 16.3723C11.6916 16.3103 11.8166 16.2804 11.9251 16.2827C12.0336 16.2849 12.1243 16.3103 12.1974 16.359C12.2704 16.4077 12.3335 16.4608 12.3867 16.5184C12.4486 16.5892 12.5128 16.6512 12.5792 16.7043C12.8537 16.9257 13.1592 17.0364 13.4957 17.0364C13.6684 17.0408 13.8333 17.0209 13.9904 16.9766C14.1476 16.9323 14.2306 16.8349 14.2395 16.6844C14.2395 16.5605 14.1919 16.4675 14.0967 16.4055C14.0015 16.3435 13.8587 16.2838 13.6684 16.2262L13.0308 16.0071C12.2383 15.737 11.7558 15.4415 11.5831 15.1206C11.4104 14.7996 11.3418 14.5107 11.3772 14.254V14.2473C11.3949 13.8356 11.6097 13.4859 12.0214 13.1981C12.4331 12.9104 12.9356 12.7599 13.5289 12.7466C14.0026 12.7466 14.4121 12.8218 14.7575 12.9724C15.1028 13.1229 15.3618 13.3376 15.5345 13.6165C15.6496 13.798 15.6894 13.9596 15.654 14.1012C15.6319 14.1765 15.5953 14.2385 15.5444 14.2872C15.4935 14.3359 15.4437 14.3735 15.395 14.4001C15.2002 14.4975 15.0408 14.5462 14.9169 14.5462C14.8239 14.5462 14.7376 14.524 14.6579 14.4798C14.5782 14.4355 14.4918 14.3802 14.3989 14.3137L14.3457 14.2739C14.1199 14.1101 13.8919 14.0282 13.6617 14.0282C13.4625 14.0282 13.3064 14.0592 13.1935 14.1212C13.0806 14.1831 13.0242 14.2662 13.0242 14.3702C13.0242 14.4742 13.0696 14.5561 13.1603 14.6159C13.2511 14.6757 13.3717 14.7277 13.5223 14.7719L14.3789 15.0442C14.9678 15.2257 15.3884 15.5002 15.6407 15.8676C15.747 16.027 15.8156 16.1742 15.8466 16.3092C15.8776 16.4442 15.8909 16.5494 15.8864 16.6246C15.8864 16.8814 15.8222 17.1149 15.6939 17.3252C15.5655 17.5355 15.3773 17.7159 15.1294 17.8664C14.908 17.9948 14.6557 18.0944 14.3723 18.1652C14.089 18.2361 13.7923 18.2715 13.4824 18.2715ZM19.9573 18.9422C19.9529 18.8227 19.9773 18.733 20.0304 18.6732C20.0835 18.6135 20.1411 18.5747 20.2031 18.557C20.3093 18.5172 20.4034 18.4619 20.4853 18.391C20.5672 18.3202 20.6303 18.2361 20.6746 18.1387C20.7188 18.028 20.7543 17.8974 20.7808 17.7469C20.7941 17.6849 20.803 17.6252 20.8074 17.5676C20.8162 17.5322 20.8207 17.4968 20.8207 17.4614L20.8406 17.3551L20.8804 17.0496L20.9004 16.9434C20.9004 16.908 20.9048 16.8726 20.9136 16.8371L20.9336 16.7043C20.9336 16.6778 20.938 16.6512 20.9468 16.6246L20.9535 16.5582L21.0265 16.0403L21.0465 15.8676L21.0929 15.5622C21.1018 15.5489 21.1018 15.5422 21.0929 15.5422C21.0974 15.5378 21.0907 15.5356 21.073 15.5356H20.8671C20.7919 15.5356 20.7388 15.5024 20.7078 15.436C20.6989 15.4139 20.6945 15.3895 20.6945 15.3629C20.7033 15.27 20.7166 15.177 20.7343 15.084C20.7476 15.0309 20.7764 14.9911 20.8207 14.9645C20.8649 14.938 20.9114 14.9225 20.9601 14.918H21.1793C21.1881 14.8915 21.1926 14.8671 21.1926 14.845C21.2014 14.783 21.2125 14.7255 21.2258 14.6723C21.2567 14.5174 21.3121 14.3779 21.3918 14.254C21.4936 14.0946 21.6242 13.9751 21.7836 13.8954L21.9031 13.8423C21.943 13.8201 21.9873 13.8046 22.036 13.7958C22.0979 13.7781 22.1776 13.7626 22.275 13.7493C22.3813 13.736 22.4809 13.7294 22.5739 13.7294H22.6336C22.7133 13.7338 22.7908 13.7427 22.8661 13.7559C22.9059 13.7604 22.9413 13.7803 22.9723 13.8157C23.0033 13.8511 23.0177 13.8965 23.0155 13.9518C23.0133 14.0072 23.0055 14.0658 22.9923 14.1278C22.9878 14.1677 22.9812 14.2075 22.9723 14.2473L22.9657 14.2805C22.9613 14.3115 22.9458 14.3381 22.9192 14.3602C22.8926 14.3824 22.8639 14.3934 22.8329 14.3934H22.6071C22.5761 14.389 22.5407 14.3868 22.5008 14.3868H22.4344C22.3769 14.3912 22.3171 14.4089 22.2551 14.4399C22.171 14.4798 22.1068 14.5462 22.0625 14.6391C22.0271 14.71 22.0028 14.8029 21.9895 14.918H23.0719V14.9247H23.0786V14.918H23.0852C23.1428 14.9225 23.1904 14.9446 23.228 14.9844C23.2656 15.0243 23.2845 15.0752 23.2845 15.1372C23.28 15.1593 23.2778 15.1814 23.2778 15.2036V15.2169C23.2867 15.208 23.2933 15.2036 23.2977 15.2036L23.3708 15.1372C23.4151 15.1018 23.4638 15.0663 23.5169 15.0309C23.57 14.9955 23.6276 14.9667 23.6896 14.9446C23.7737 14.9136 23.8556 14.8937 23.9353 14.8848C24.015 14.876 24.0836 14.8715 24.1411 14.8715C24.2297 14.8715 24.2762 14.8738 24.2806 14.8782C24.3647 14.8826 24.4533 14.9092 24.5462 14.9579C24.6525 15.0154 24.7366 15.1018 24.7986 15.2169L24.8252 15.2833L24.865 15.2434C24.8783 15.2257 24.896 15.2102 24.9181 15.1969C25.1262 15.0154 25.3277 14.9092 25.5225 14.8782C25.5756 14.8693 25.6331 14.8649 25.6951 14.8649C25.7571 14.8649 25.8235 14.8693 25.8943 14.8782C26.0006 14.8915 26.098 14.9202 26.1865 14.9645C26.2839 15.0176 26.3581 15.0951 26.409 15.1969C26.4599 15.2988 26.4898 15.4139 26.4987 15.5422C26.5031 15.6529 26.4965 15.7658 26.4787 15.8809V15.9008L26.4522 16.1332L26.4323 16.2461L26.419 16.3457C26.4101 16.3812 26.4035 16.4177 26.3991 16.4553C26.3946 16.4929 26.3924 16.5295 26.3924 16.5649L26.3659 16.711L26.3526 16.8172L26.3393 16.8836L26.3326 16.9567L26.2928 17.2356L26.2662 17.4614L26.2397 17.6074L26.1932 17.9793L26.1865 17.9926C26.1821 18.0457 26.1711 18.0966 26.1533 18.1453C26.1268 18.2073 26.0825 18.2471 26.0205 18.2649C25.9851 18.2737 25.9453 18.2781 25.901 18.2781H25.549C25.4693 18.2781 25.414 18.2449 25.383 18.1785C25.3697 18.1431 25.3631 18.1166 25.3631 18.0988L25.383 17.9461L25.3963 17.8863V17.8664C25.4051 17.8354 25.4096 17.8067 25.4096 17.7801C25.4184 17.7403 25.4228 17.7004 25.4228 17.6606C25.4361 17.5942 25.445 17.53 25.4494 17.468C25.4627 17.3883 25.4738 17.3086 25.4826 17.2289L25.5025 17.1094L25.549 16.7575L25.5623 16.6778C25.5667 16.6114 25.5756 16.5494 25.5889 16.4918C25.5977 16.452 25.6021 16.4144 25.6021 16.3789C25.6154 16.317 25.6243 16.2572 25.6287 16.1997L25.6353 16.1864C25.6486 16.0713 25.6597 15.954 25.6686 15.8344C25.6774 15.7592 25.6641 15.695 25.6287 15.6418C25.5933 15.5887 25.549 15.5577 25.4959 15.5489C25.4605 15.54 25.4251 15.5356 25.3896 15.5356C25.3409 15.5356 25.2922 15.5445 25.2435 15.5622L25.2037 15.5821C25.1063 15.6219 25.0111 15.6905 24.9181 15.7879C24.9137 15.7968 24.9048 15.8056 24.8916 15.8145C24.8783 15.8322 24.8694 15.8521 24.865 15.8743L24.8318 16.1797L24.7654 16.6246C24.7654 16.6601 24.7632 16.6966 24.7587 16.7342C24.7543 16.7718 24.7477 16.8084 24.7388 16.8438L24.7189 16.9899L24.7056 17.0629C24.7056 17.1028 24.7012 17.1382 24.6923 17.1692L24.6791 17.2688C24.6658 17.3573 24.6547 17.4414 24.6458 17.5211L24.6259 17.6738C24.6215 17.727 24.6126 17.7823 24.5994 17.8399C24.5994 17.8576 24.5971 17.8775 24.5927 17.8996C24.5883 17.9572 24.5794 18.0169 24.5662 18.0789C24.5352 18.2073 24.4577 18.2737 24.3337 18.2781H23.9485C23.8511 18.2781 23.7914 18.2361 23.7692 18.152C23.7604 18.121 23.7582 18.0856 23.7626 18.0457V18.0324C23.7715 18.0059 23.7759 17.9793 23.7759 17.9528L23.7892 17.8996L23.829 17.5875C23.8379 17.5123 23.8489 17.437 23.8622 17.3617L23.8755 17.2422L23.9286 16.8969L23.9751 16.5383L24.0216 16.2528C24.0216 16.2129 24.026 16.1775 24.0349 16.1465C24.057 16.0181 24.0637 15.892 24.0548 15.768C24.0504 15.6662 24.0105 15.5998 23.9353 15.5688C23.8866 15.5467 23.8379 15.5356 23.7892 15.5356L23.7294 15.5422C23.6276 15.5599 23.539 15.5965 23.4638 15.6518C23.3885 15.7071 23.3221 15.7658 23.2645 15.8278C23.2512 15.8411 23.2424 15.8588 23.238 15.8809L23.2313 15.9672C23.2225 16.0027 23.218 16.0381 23.218 16.0735L23.1782 16.2993V16.3258L23.1649 16.3989L23.1516 16.5184C23.1472 16.5804 23.1384 16.6424 23.1251 16.7043C23.1162 16.784 23.1051 16.8637 23.0919 16.9434L23.0786 17.0563L22.9657 17.8465C22.9568 17.9262 22.9436 18.0081 22.9258 18.0922C22.917 18.1365 22.8982 18.1741 22.8694 18.2051C22.8406 18.2361 22.8063 18.256 22.7665 18.2649C22.7399 18.2737 22.7089 18.2781 22.6735 18.2781H22.295C22.2108 18.2781 22.1577 18.2405 22.1356 18.1652C22.1267 18.1254 22.1245 18.0811 22.1289 18.0324C22.1289 18.0014 22.1334 17.9727 22.1422 17.9461L22.1489 17.8996C22.1666 17.7801 22.1821 17.665 22.1953 17.5543C22.2042 17.5189 22.2086 17.4835 22.2086 17.4481L22.2285 17.3285C22.2285 17.2887 22.233 17.2511 22.2418 17.2157C22.2507 17.1802 22.2551 17.147 22.2551 17.116L22.275 17.0032C22.275 16.9722 22.2795 16.9368 22.2883 16.8969L22.3746 16.2594L22.4012 16.0934L22.4211 15.9407C22.43 15.9053 22.4344 15.8676 22.4344 15.8278C22.4433 15.7968 22.4477 15.7614 22.4477 15.7215L22.4809 15.5356H21.9297C21.9164 15.5356 21.9076 15.5445 21.9031 15.5622L21.8766 15.7282L21.8699 15.7946C21.8655 15.8034 21.8633 15.8145 21.8633 15.8278L21.85 15.8942C21.85 15.934 21.8456 15.9717 21.8367 16.0071C21.8323 16.0691 21.8234 16.1332 21.8102 16.1997L21.7703 16.4985L21.7504 16.6114C21.7504 16.6512 21.746 16.6888 21.7371 16.7243C21.7283 16.7597 21.7238 16.7973 21.7238 16.8371L21.7039 16.9434L21.6441 17.3617L21.591 17.7801C21.4759 18.4309 21.2944 18.8393 21.0465 19.0053C20.7985 19.1713 20.5904 19.2521 20.4222 19.2477C20.3292 19.2609 20.2407 19.2499 20.1566 19.2145C20.1079 19.1967 20.0647 19.1658 20.0271 19.1215C19.9894 19.0772 19.9662 19.0174 19.9573 18.9422ZM10.1487 12.8063C9.76791 12.8241 9.53659 12.9248 9.45468 13.1085C9.37278 13.2922 9.34068 13.4571 9.35839 13.6032V13.7161L9.31854 13.6098C9.31854 13.6054 9.29641 13.57 9.25213 13.5036C9.20786 13.4372 9.1326 13.3597 9.02634 13.2712C8.92894 13.1871 8.78284 13.1096 8.58804 13.0388C8.39324 12.9679 8.1431 12.9303 7.83761 12.9259C7.16466 12.9436 6.61014 13.1959 6.17406 13.6829C5.73797 14.1699 5.51328 14.7896 5.5 15.5422C5.51328 16.3214 5.7269 16.9578 6.14085 17.4514C6.5548 17.945 7.0894 18.2007 7.74464 18.2184H7.83097C8.1763 18.2007 8.48843 18.1188 8.76735 17.9727C9.00199 17.8487 9.18572 17.6805 9.31854 17.468L9.35839 17.3949V17.5344C9.34953 17.7026 9.39381 17.8653 9.49121 18.0225C9.58861 18.1796 9.80776 18.2626 10.1487 18.2715C10.4851 18.2715 10.7131 18.1498 10.8327 17.9063C10.8814 17.8044 10.9102 17.7037 10.919 17.6041C10.9279 17.5045 10.9323 17.4259 10.9323 17.3684V13.9087C10.95 13.6696 10.9179 13.4306 10.836 13.1915C10.7541 12.9524 10.525 12.8241 10.1487 12.8063ZM8.10325 16.7907C7.79777 16.7862 7.56201 16.6778 7.39599 16.4653C7.22997 16.2528 7.14695 15.9739 7.14695 15.6286C7.14695 15.2257 7.22997 14.9313 7.39599 14.7454C7.56201 14.5594 7.79777 14.4687 8.10325 14.4731C8.37774 14.4687 8.59468 14.5561 8.75406 14.7354C8.91345 14.9147 8.99535 15.2124 8.99978 15.6286C8.99535 15.9783 8.91345 16.2583 8.75406 16.4686C8.59468 16.6789 8.37774 16.7862 8.10325 16.7907ZM16.9756 18.2715C16.6125 18.2538 16.3878 18.1365 16.3015 17.9195C16.2152 17.7026 16.1764 17.4857 16.1853 17.2688V13.7759C16.1764 13.5545 16.2152 13.3321 16.3015 13.1085C16.3878 12.8849 16.6125 12.7643 16.9756 12.7466C17.25 12.7466 17.4515 12.813 17.5799 12.9458C17.6729 13.0476 17.7282 13.1616 17.7459 13.2878C17.7636 13.414 17.7703 13.528 17.7658 13.6298C17.7614 13.6563 17.7592 13.6807 17.7592 13.7028V14.3934L18.7487 13.2712C18.8151 13.1959 18.8771 13.1339 18.9346 13.0852C19.1162 12.9259 19.2888 12.8462 19.4526 12.8462C19.5854 12.8462 19.7205 12.8927 19.8577 12.9856C19.9153 13.0255 19.964 13.0653 20.0038 13.1052C20.1632 13.2867 20.2296 13.4627 20.2031 13.6331C20.1765 13.8035 20.1034 13.9463 19.9839 14.0614L18.9014 15.2235L20.2429 17.1559C20.3536 17.3108 20.3979 17.478 20.3757 17.6572C20.3536 17.8365 20.2673 17.9904 20.1167 18.1188C19.9883 18.2206 19.8378 18.2715 19.6651 18.2715H19.6386C19.519 18.2671 19.4072 18.235 19.3032 18.1752C19.1992 18.1154 19.1117 18.0347 19.0409 17.9328L17.7592 16.0469V17.2555C17.7725 17.5123 17.7326 17.7425 17.6396 17.9461C17.5467 18.1498 17.3253 18.2582 16.9756 18.2715Z" fill="white"/>
</svg>
