<svg width="32" height="32" viewBox="0 0 32 32" fill="none" xmlns="http://www.w3.org/2000/svg">
<path d="M10.3036 14.9309C9.88512 14.4836 9.23312 14.509 8.94873 15.0781L2.08668 28.8118C1.95946 29.0663 1.97301 29.3686 2.12249 29.6106C2.27196 29.8527 2.53604 30 2.82038 30H12.3768C12.6896 30.0072 12.9772 29.8293 13.1106 29.546C15.1712 25.2827 13.9228 18.8004 10.3036 14.9309Z" fill="url(#paint0_linear_214_148)"/>
<path d="M15.3386 2.4398C11.5005 8.52482 11.7537 15.2641 14.2818 20.3238L18.8897 29.5459C19.0287 29.824 19.3127 29.9997 19.6234 29.9997H29.1797C29.464 29.9997 29.7281 29.8524 29.8776 29.6104C30.027 29.3683 30.0406 29.0661 29.9134 28.8116C29.9134 28.8116 17.0573 3.07842 16.7339 2.43458C16.4448 1.85819 15.7103 1.85035 15.3386 2.4398Z" fill="#2681FF"/>
<defs>
<linearGradient id="paint0_linear_214_148" x1="9.12502" y1="12.4483" x2="-0.502655" y2="22.7831" gradientUnits="userSpaceOnUse">
<stop stop-color="#0052CC"/>
<stop offset="0.923" stop-color="#2684FF"/>
</linearGradient>
</defs>
</svg>
