<svg width="32" height="32" viewBox="0 0 32 32" fill="none" xmlns="http://www.w3.org/2000/svg">
<path d="M16.0001 29.9845C23.7235 29.9845 29.9845 23.7235 29.9845 16.0001C29.9845 8.27667 23.7235 2.01562 16.0001 2.01562C8.27667 2.01562 2.01562 8.27667 2.01562 16.0001C2.01562 23.7235 8.27667 29.9845 16.0001 29.9845Z" fill="url(#paint0_linear_214_912)"/>
<path d="M15.9844 28.8023C23.0463 28.8023 28.7711 23.0776 28.7711 16.0157C28.7711 8.95379 23.0463 3.229 15.9844 3.229C8.92254 3.229 3.19775 8.95379 3.19775 16.0157C3.19775 23.0776 8.92254 28.8023 15.9844 28.8023Z" fill="url(#paint1_linear_214_912)"/>
<path d="M12.987 14.0417C12.8365 14.2736 12.6911 14.5065 12.5508 14.7398C12.3974 14.3173 12.2626 13.9013 12.1478 13.4954C12.5558 13.4369 12.9895 13.3908 13.4466 13.3589C13.2914 13.5814 13.138 13.809 12.987 14.0417ZM24.2677 14.8593C23.8157 14.4254 23.1696 14.0279 22.3473 13.6777C20.7148 12.9824 18.5281 12.532 16.19 12.4094C15.9081 12.3946 15.6328 12.3845 15.3666 12.3791C17.1517 10.2484 18.8756 9.11471 19.8797 9.07657C20.0923 9.06845 20.2708 9.11051 20.4106 9.20139C20.8805 9.50678 21.0109 10.454 20.7594 11.7352C20.7097 11.9881 20.8745 12.2334 21.1274 12.283C21.3803 12.3325 21.6255 12.1679 21.6752 11.915C22.1076 9.71248 21.5028 8.7981 20.9193 8.41882C20.6147 8.22086 20.2528 8.1284 19.8442 8.14392C18.2998 8.2026 16.1359 9.84934 14.1614 12.388C13.3797 12.415 12.6261 12.4825 11.9211 12.5878C11.8437 12.2285 11.7839 11.8802 11.7434 11.5464C11.5663 10.0869 11.7835 9.05091 12.3243 8.77507C12.4112 8.73077 12.5062 8.70526 12.6146 8.69714C13.0979 8.66077 13.7797 8.98551 14.5333 9.61137C14.7316 9.77601 15.0258 9.74879 15.1905 9.55049C15.3551 9.35222 15.3279 9.058 15.1296 8.89336C14.1617 8.08951 13.2921 7.71027 12.5448 7.76642C12.3137 7.78375 12.0969 7.84339 11.9003 7.94363C11.3979 8.19983 11.0546 8.69042 10.8799 9.40178C10.7303 10.0109 10.709 10.7703 10.8169 11.6588C10.8595 12.0102 10.9218 12.3758 11.0022 12.7524C10.451 12.8685 9.94017 13.01 9.48227 13.1755C7.47897 13.8991 7.01647 14.853 6.98125 15.5258C6.94759 16.1684 7.27656 17.1249 9.03483 18.0316C9.2639 18.1498 9.54537 18.0598 9.66349 17.8307C9.78162 17.6017 9.69168 17.3202 9.46261 17.2021C8.45116 16.6805 7.88646 16.0873 7.91331 15.5746C7.95114 14.8522 9.16198 14.0876 11.2245 13.6568C11.4156 14.3468 11.661 15.0634 11.9552 15.7901C11.2139 17.1817 10.673 18.5531 10.3926 19.7731C10.1921 20.6448 10.1335 21.4017 10.2184 22.0226C10.3176 22.7479 10.6077 23.2714 11.0805 23.5788C11.3216 23.7355 11.6466 23.8581 12.0734 23.8581C12.6923 23.8581 13.5254 23.6002 14.6266 22.8148C14.8364 22.6651 14.8852 22.3737 14.7356 22.1639C14.586 21.9541 14.2945 21.9053 14.0847 22.0549C12.9991 22.8292 12.0662 23.1063 11.5891 22.7963C11.0804 22.4656 10.9731 21.4136 11.3021 19.9822C11.5204 19.0331 11.9097 17.9811 12.4378 16.8968C12.5524 17.1423 12.6721 17.3878 12.7969 17.633C13.8597 19.7206 15.1607 21.537 16.4603 22.7475C17.1148 23.3571 17.7408 23.7863 18.3209 24.0232C18.6728 24.1669 19.0033 24.2388 19.3101 24.2388C19.5941 24.2388 19.8579 24.1772 20.0994 24.054C20.584 23.8069 20.921 23.3408 21.101 22.6687C21.2552 22.0931 21.2898 21.3751 21.204 20.5345C21.0352 18.8819 20.4107 16.8663 19.4455 14.8589C19.3339 14.6266 19.055 14.529 18.8227 14.6406C18.5905 14.7523 18.4927 15.0311 18.6044 15.2634C19.5239 17.1758 20.1174 19.0815 20.2755 20.6293C20.4144 21.9906 20.1901 22.9601 19.6754 23.2225C19.1349 23.4982 18.1709 23.0652 17.0965 22.0645C15.8747 20.9266 14.6431 19.2024 13.6286 17.2095C13.3967 16.7539 13.183 16.2974 12.9886 15.8442C13.2299 15.4128 13.4908 14.9799 13.7699 14.5497C14.0545 14.1112 14.3426 13.6978 14.6314 13.3101C14.7081 13.3091 14.7851 13.3083 14.8628 13.3081C15.2636 13.3068 15.6931 13.318 16.1411 13.3414C18.3729 13.4585 20.447 13.8829 21.9816 14.5364C23.3314 15.1112 24.1182 15.8165 24.0865 16.4231C24.0595 16.938 23.4338 17.4704 22.3697 17.8835C22.1295 17.9768 22.0103 18.2472 22.1036 18.4874C22.1753 18.6722 22.3518 18.7853 22.5388 18.7853C22.5949 18.7853 22.652 18.7751 22.7075 18.7535C24.5564 18.0356 24.9848 17.1165 25.0185 16.4718C25.048 15.9084 24.7954 15.3659 24.2677 14.8593Z" fill="#F2F8F6"/>
<path d="M15.0369 16.1238C15.0369 16.6875 15.4934 17.1444 16.0565 17.1444C16.6197 17.1444 17.0762 16.6875 17.0762 16.1238C17.0762 15.5602 16.6197 15.1033 16.0565 15.1033C15.4934 15.1033 15.0369 15.5602 15.0369 16.1238Z" fill="#F1F8F3"/>
<defs>
<linearGradient id="paint0_linear_214_912" x1="1400.46" y1="112.804" x2="1400.46" y2="2798.9" gradientUnits="userSpaceOnUse">
<stop stop-color="#FDFDFD"/>
<stop offset="1" stop-color="#CBCBCB"/>
</linearGradient>
<linearGradient id="paint1_linear_214_912" x1="16" y1="3.5" x2="16" y2="29" gradientUnits="userSpaceOnUse">
<stop stop-color="#B2E198"/>
<stop offset="1" stop-color="#04A171"/>
</linearGradient>
</defs>
</svg>
