<svg width="32" height="32" viewBox="0 0 32 32" fill="none" xmlns="http://www.w3.org/2000/svg">
<path d="M2 11.3333C2 8.06636 2 6.43287 2.6358 5.18506C3.19506 4.08744 4.08744 3.19506 5.18506 2.6358C6.43287 2 8.06636 2 11.3333 2H20.6667C23.9336 2 25.5671 2 26.8149 2.6358C27.9126 3.19506 28.8049 4.08744 29.3642 5.18506C30 6.43287 30 8.06636 30 11.3333V20.6667C30 23.9336 30 25.5671 29.3642 26.8149C28.8049 27.9126 27.9126 28.8049 26.8149 29.3642C25.5671 30 23.9336 30 20.6667 30H11.3333C8.06636 30 6.43287 30 5.18506 29.3642C4.08744 28.8049 3.19506 27.9126 2.6358 26.8149C2 25.5671 2 23.9336 2 20.6667V11.3333Z" fill="#7845F5"/>
<path d="M25.9166 14.2499C25.9166 20.0832 21.2499 24.7499 15.9999 24.7499C10.7499 24.7499 6.08325 20.0832 6.08325 14.2499C6.08325 9.06508 11.8339 6.36876 15.4166 10.5596L15.7083 11.3332H16.2916C16.2916 11.3332 16.5605 10.5596 16.5833 10.5596C20.166 6.36876 25.9166 9.06507 25.9166 14.2499Z" fill="#F79FEE"/>
</svg>
