<svg width="32" height="32" viewBox="0 0 32 32" fill="none" xmlns="http://www.w3.org/2000/svg">
<path d="M15.958 23.6001C20.379 19.8054 26.5896 16.1161 30.0001 14.788C29.4738 14.4506 28.6527 13.9658 27.7264 13.4387C23.3264 14.8934 18.1896 18.1189 13.6001 21.766C14.379 22.3563 15.2001 22.9677 15.958 23.6001Z" fill="#E31837"/>
<path d="M13.9368 13.2904C13.2842 12.9742 12.5684 12.679 12.021 12.426C10.3579 13.2482 8.18948 14.492 5.45264 16.4526C6.04211 16.7689 6.67369 17.1483 7.34737 17.5278C9.45264 15.9678 11.5789 14.492 13.9368 13.2904Z" fill="#012169"/>
<path d="M17.8737 11.4773C17.0737 11.0346 14.2947 10.0016 12.3789 9.55884C11.8105 9.76966 11.0105 10.0859 10.4631 10.3178C11.1579 10.5075 13.7473 11.2032 15.9579 12.3205C16.5263 12.0465 17.3263 11.7092 17.8737 11.4773Z" fill="#E31837"/>
<path d="M8.46316 11.2034C6 12.3418 3.41053 13.9018 2 14.8083C2.50526 15.0402 3.01052 15.23 3.70526 15.5673C6.82105 13.4591 9.26315 12.1731 10.2316 11.7515C9.53684 11.4985 8.88421 11.3299 8.46316 11.2034Z" fill="#012169"/>
<path d="M19.7264 10.8241C20.2948 10.6343 20.9474 10.4657 21.5158 10.297C19.8737 9.60132 17.8106 8.86346 15.9579 8.39966C15.6632 8.48399 14.779 8.71588 14.1685 8.90562C14.8 9.09535 16.8843 9.58023 19.7264 10.8241ZM9.34741 18.7508C10.0211 19.1513 10.7369 19.6995 11.4316 20.1633C16.0421 16.5794 20.5895 13.8177 25.579 12.2576C24.8842 11.8992 24.2737 11.583 23.4948 11.2035C20.5053 11.9625 15.3895 14.0074 9.34741 18.7508Z" fill="#E31837"/>
</svg>
