<svg width="32" height="32" viewBox="0 0 32 32" fill="none" xmlns="http://www.w3.org/2000/svg">
<path d="M16 2C8.27812 2 2 8.27812 2 16C2 23.7219 8.27812 30 16 30C23.7219 30 30 23.7219 30 16C30 8.27812 23.7219 2 16 2Z" fill="white"/>
<path d="M16.0022 6C10.0803 6 5.44525 13.801 5 20.3895C6.85671 23.7275 11.3404 25 16.0022 25C20.664 25 25.1433 23.7459 27 20.3895C26.5592 13.801 21.9197 6 16.0022 6Z" fill="#B3DCFF"/>
<path d="M22.8548 14.1932C21.5547 12.4551 19.8983 10.6108 18.9366 10.6108C17.9748 10.6108 15.29 15.5349 14.0388 15.5349C12.7876 15.5349 12.1643 13.2942 10.6504 13.3034C8.58444 13.3034 6.56299 19.5968 6.56299 19.5968C6.56299 19.5968 7.40007 23.4373 16.1538 23.4373C24.9075 23.4373 25.6065 19.6613 25.6065 19.6613C24.971 17.7008 24.0425 15.8557 22.8548 14.1932Z" fill="#5ECC62"/>
<path d="M11.3093 19.0709C11.3093 18.8438 11.3743 18.6219 11.4962 18.4331C11.618 18.2443 11.7911 18.0971 11.9937 18.0102C12.1963 17.9233 12.4192 17.9006 12.6343 17.9449C12.8494 17.9892 13.0469 18.0985 13.202 18.2591C13.357 18.4197 13.4626 18.6242 13.5054 18.8469C13.5482 19.0696 13.5262 19.3004 13.4423 19.5102C13.3584 19.72 13.2163 19.8993 13.034 20.0254C12.8516 20.1516 12.6373 20.2189 12.418 20.2189C12.124 20.2189 11.842 20.0979 11.6341 19.8826C11.4261 19.6674 11.3093 19.3753 11.3093 19.0709ZM18.4735 19.0709C18.4735 19.2979 18.5385 19.5199 18.6603 19.7087C18.7821 19.8975 18.9553 20.0446 19.1579 20.1315C19.3605 20.2184 19.5834 20.2411 19.7984 20.1968C20.0135 20.1525 20.2111 20.0432 20.3661 19.8826C20.5212 19.7221 20.6267 19.5175 20.6695 19.2948C20.7123 19.0721 20.6903 18.8413 20.6064 18.6315C20.5225 18.4218 20.3804 18.2425 20.1981 18.1163C20.0158 17.9902 19.8014 17.9229 19.5821 17.9229C19.4366 17.9229 19.2924 17.9525 19.1579 18.0102C19.0234 18.0679 18.9011 18.1525 18.7982 18.2591C18.6952 18.3657 18.6136 18.4923 18.5579 18.6315C18.5021 18.7708 18.4735 18.9201 18.4735 19.0709ZM18.2731 20.7537C18.306 20.6717 18.3081 20.5799 18.2789 20.4964C18.2496 20.4129 18.1912 20.3438 18.1152 20.3027C18.0392 20.2616 17.951 20.2515 17.8681 20.2744C17.7853 20.2973 17.7137 20.3515 17.6676 20.4264C17.4923 20.7085 17.2479 20.9374 16.9592 21.0897C16.6705 21.242 16.348 21.3122 16.0246 21.2932C15.6921 21.3011 15.3628 21.2246 15.0655 21.0703C14.7682 20.916 14.512 20.6885 14.3192 20.4079C14.2686 20.3358 14.1935 20.2861 14.109 20.2687C14.0246 20.2512 13.9369 20.2674 13.8634 20.3139C13.7899 20.3603 13.7359 20.4338 13.7123 20.5195C13.6887 20.6053 13.6972 20.6971 13.736 20.7768C13.99 21.1606 14.3321 21.4731 14.7316 21.6863C15.131 21.8996 15.5753 22.0069 16.0246 21.9986C16.4728 22.0193 16.9181 21.9146 17.3138 21.6956C17.7094 21.4765 18.0408 21.1512 18.2731 20.7537Z" fill="black"/>
<path d="M14.1945 17.6465C12.8365 17.6465 12.1374 16.2634 11.759 15.4012C11.4206 14.6312 11.3582 13.4094 10.3965 13.3772C10.4826 13.3398 10.5747 13.3195 10.6681 13.3172C12.182 13.3172 12.8231 15.5487 14.0565 15.5487C15.2898 15.5487 17.9792 10.6108 18.9365 10.6108C19.1494 10.6226 19.3568 10.6857 19.542 10.7953C19.447 10.7767 19.349 10.7817 19.2562 10.8097C19.1634 10.8378 19.0782 10.8881 19.0077 10.9566C18.7005 11.284 15.8776 17.6465 14.1945 17.6465Z" fill="#00AD45"/>
</svg>
