<svg width="32" height="32" viewBox="0 0 32 32" fill="none" xmlns="http://www.w3.org/2000/svg">
<path d="M10.4416 13.7658L15.8792 8.32842L21.3197 13.7687L24.4837 10.6047L15.8792 2L7.27759 10.6018L10.4416 13.7658Z" fill="#F3BA2F"/>
<path d="M8.20715 15.9994L5.04321 12.8354L1.87912 15.9995L5.04306 19.1635L8.20715 15.9994Z" fill="#F3BA2F"/>
<path d="M10.4416 18.2341L15.8792 23.6715L21.3195 18.2314L24.4853 21.3937L24.4837 21.3954L15.8792 29.9999L7.27737 21.3983L7.27295 21.3939L10.4416 18.2341Z" fill="#F3BA2F"/>
<path d="M26.7153 19.1651L29.8794 16.001L26.7155 12.837L23.5514 16.0011L26.7153 19.1651Z" fill="#F3BA2F"/>
<path d="M19.0885 15.9983H19.0898L15.8792 12.7876L13.5065 15.1603H13.5063L13.2338 15.433L12.6714 15.9954L12.667 15.9998L12.6714 16.0044L15.8792 19.2122L19.0898 16.0016L19.0914 15.9998L19.0885 15.9983Z" fill="#F3BA2F"/>
</svg>
