<svg width="32" height="24" viewBox="0 0 32 24" fill="none" xmlns="http://www.w3.org/2000/svg">
<rect width="32" height="24" rx="4" fill="#0AC18E"/>
<path d="M16 21C20.9706 21 25 16.9706 25 12C25 7.02944 20.9706 3 16 3C11.0294 3 7 7.02944 7 12C7 16.9706 11.0294 21 16 21Z" fill="white"/>
<path d="M20.221 12.3749L20.216 12.3656L20.2152 12.364C20.2122 12.3547 20.2099 12.3449 20.2064 12.3347L20.206 12.334L20.2056 12.3332L20.2052 12.3324L20.2047 12.3316L20.2043 12.3308L20.2039 12.33L20.203 12.3285C20.0974 11.9752 19.8879 11.6618 19.6019 11.4291L19.6015 11.4283C19.593 11.4219 19.5841 11.4147 19.5756 11.4082L19.5639 11.3995L19.5555 11.3931L19.5519 11.3901L19.5438 11.3844L19.5402 11.3814L19.5321 11.3757L19.5285 11.3727L19.52 11.3662L19.5156 11.3636L19.5071 11.3572L19.5027 11.3545L19.4936 11.3485L19.4892 11.3458L19.4838 11.3377L19.479 11.3343L19.4699 11.3283L19.4651 11.3249L19.456 11.3188L19.4512 11.3154L19.4421 11.3093L19.4372 11.306L19.4276 11.2992L19.4228 11.2958L19.4123 11.2894L19.4075 11.286L19.3971 11.2796L19.3923 11.2762L19.3818 11.2698L19.377 11.2664L19.3666 11.26L19.361 11.257L19.3505 11.2506L19.3449 11.2475L19.3337 11.2415L19.3281 11.2384L19.3165 11.2317L19.3109 11.2287L19.2992 11.222L19.2936 11.2189L19.282 11.2122L19.2759 11.2084L19.2643 11.2017L19.2582 11.198L19.2458 11.1916L19.2398 11.1879L19.2274 11.1815L19.219 11.177L19.2186 11.1762C19.2125 11.1725 19.2062 11.1699 19.2001 11.1662C18.9428 11.0339 18.665 10.9461 18.3784 10.9065C18.4587 10.8201 18.5323 10.7277 18.5985 10.63L18.6091 10.6143L18.6099 10.6139L18.6147 10.6062L18.6211 10.5958L18.6245 10.591L18.6309 10.5806L18.6343 10.5758L18.6407 10.5653L18.6441 10.5605L18.6505 10.5501L18.6539 10.5453L18.6603 10.5348L18.6637 10.53L18.6693 10.52L18.6727 10.5152L18.6783 10.5051L18.6809 10.5007L18.6865 10.4907L18.6892 10.4862L18.6948 10.4762L18.6974 10.4718L18.7022 10.4622L18.7049 10.4577L18.7097 10.4481L18.7123 10.4437L18.7171 10.4341L18.7198 10.4297L18.725 10.4209L18.7276 10.4164L18.7329 10.4076L18.7355 10.4032L18.74 10.3948L18.7426 10.3904L18.7471 10.382L18.749 10.378L18.7534 10.3696L18.7553 10.3656L18.7598 10.3572L18.7616 10.3532L18.7661 10.3448L18.768 10.3408L18.7717 10.3328L18.7735 10.3288L18.7772 10.3208L18.7791 10.3168L18.7828 10.3088L18.7846 10.3048L18.7887 10.2957L18.7942 10.2835C18.7983 10.2744 18.8016 10.2656 18.8056 10.2563L18.8064 10.2558C18.9297 9.95186 18.9586 9.6178 18.8894 9.29716L18.8889 9.29637L18.8881 9.29483L18.8877 9.29404L18.8872 9.29325L18.8868 9.29246L18.8864 9.29167L18.886 9.29089L18.8856 9.2901C18.8837 9.281 18.8819 9.27209 18.8792 9.26348V9.26176L18.8788 9.26097L18.8784 9.26018L18.8746 9.25321C18.8719 9.24069 18.8692 9.22817 18.8652 9.21529C18.8625 9.20277 18.8585 9.18988 18.855 9.17776L18.8504 9.16924L18.8496 9.16769C18.847 9.15912 18.8444 9.15051 18.8417 9.14193L18.8413 9.14114L18.8409 9.14035L18.8404 9.13956L18.84 9.13878L18.8396 9.13799L18.8392 9.1372L18.8388 9.13641C18.745 8.822 18.5586 8.54314 18.304 8.33616L18.3036 8.33537C18.2964 8.32931 18.2883 8.32361 18.281 8.31754L18.271 8.30997L18.2629 8.3043L18.2593 8.30127L18.2524 8.29596L18.2488 8.29293L18.2419 8.28763L18.2383 8.28459L18.2306 8.27971L18.227 8.27668L18.219 8.27101L18.2153 8.26798L18.2073 8.26231L18.2036 8.25928L18.1956 8.25361L18.1911 8.25098L18.1831 8.24531L18.1787 8.24267L18.1706 8.237L18.1662 8.23437L18.1573 8.22912L18.1529 8.22649L18.1441 8.22124L18.1397 8.2186L18.1309 8.21336L18.1264 8.21072L18.1176 8.20548L18.1132 8.20284L18.1039 8.19678L18.0995 8.19414L18.0903 8.18808L18.0858 8.18544L18.0758 8.17983L18.0714 8.1772L18.0614 8.17159L18.0566 8.16819L18.0465 8.16259L18.0417 8.15919L18.0317 8.15358L18.0269 8.15019L18.0165 8.14379L18.0108 8.14076L18.0001 8.13412L17.9945 8.13109L17.9833 8.12503L17.9777 8.122L17.9665 8.11593L17.9585 8.11224L17.9581 8.11145L17.9412 8.10235C17.4498 7.84691 16.8253 7.77001 16.1971 7.93118L16.0337 7.97313L15.6204 6.36353L14.6625 6.60906L15.0745 8.2123L14.3081 8.40997L13.8958 6.81185L12.9379 7.05738L13.3499 8.66062L11.3745 9.16894L11.6374 10.1905L12.4333 9.98605C12.5598 9.95344 12.6941 9.97241 12.8066 10.0388C12.9191 10.1052 13.0006 10.2136 13.0333 10.3401L13.0335 10.341L14.1383 14.6399C14.1599 14.7243 14.1472 14.8139 14.1029 14.8889C14.0585 14.964 13.9863 15.0184 13.9019 15.0402L13.2044 15.2196L13.2454 16.4346L15.2185 15.9275L15.6358 17.5279L16.5932 17.2815L16.1809 15.6775L16.9471 15.481L17.3595 17.085L18.3169 16.8387L17.9031 15.2284C18.0654 15.186 18.2049 15.1499 18.3015 15.125C19.0095 14.9429 19.582 14.5278 19.9284 14.0102L19.9401 13.9929L19.9409 13.9925L19.9466 13.9844L19.9541 13.9723L19.9579 13.9663L19.9654 13.9541L19.9691 13.9481L19.9759 13.9364L19.9796 13.9304L19.9864 13.9187L19.9894 13.9131L19.9961 13.9015L19.9991 13.8959L20.0059 13.8842L20.0089 13.8786L20.015 13.8674L20.018 13.8618L20.0241 13.8506L20.0271 13.845L20.0335 13.8346L20.0365 13.8289L20.0429 13.8185L20.046 13.8129L20.0516 13.8029L20.0546 13.7973L20.0602 13.7873L20.0632 13.7817L20.0688 13.7717L20.0711 13.7665L20.0767 13.7565L20.0789 13.7513L20.0837 13.7417L20.0863 13.7372L20.0911 13.7276L20.0938 13.7232L20.0986 13.7136L20.1012 13.7092L20.1061 13.6996L20.1087 13.6951L20.1135 13.6855L20.1162 13.6811L20.121 13.6715L20.1236 13.6671L20.1277 13.658L20.1303 13.6536L20.1343 13.6445L20.1362 13.6405L20.1406 13.6301L20.1467 13.6169C20.1511 13.6065 20.1558 13.5969 20.1596 13.587L20.1599 13.5858C20.2985 13.2438 20.3311 12.8681 20.2535 12.5074L20.2531 12.5066L20.2527 12.5059L20.2522 12.5051L20.2518 12.5043L20.2514 12.5035L20.251 12.5027L20.2505 12.5019L20.2501 12.5011C20.2478 12.4913 20.2456 12.4816 20.2433 12.4718V12.4698L20.2429 12.469L20.2425 12.4682L20.242 12.4674L20.2416 12.4667L20.2412 12.4659L20.2408 12.4651L20.2403 12.4643L20.2399 12.4635L20.2395 12.4627L20.2391 12.4619L20.2386 12.4611L20.2382 12.4604L20.2378 12.4596L20.2361 12.4565C20.2326 12.4425 20.2298 12.428 20.2254 12.4143C20.2232 12.4013 20.2217 12.3881 20.221 12.3749ZM14.5931 9.49907C14.7566 9.45712 15.4322 9.28743 15.655 9.2295C16.0092 9.13884 16.3583 9.17403 16.6308 9.30528L16.6399 9.30935L16.6439 9.3112L16.6495 9.31423L16.6523 9.31571L16.6579 9.31874L16.6607 9.32023L16.6663 9.32326L16.6691 9.32474L16.6747 9.32778L16.6775 9.32926L16.6831 9.33229L16.6859 9.33378L16.6915 9.33681L16.6943 9.33829L16.6999 9.34133L16.7027 9.34281L16.7083 9.34584L16.7111 9.34733L16.7167 9.35036L16.7195 9.35185L16.7243 9.35524L16.7271 9.35673L16.7319 9.36012L16.7347 9.36161L16.7395 9.365L16.7423 9.36649L16.7467 9.36912L16.7495 9.37061L16.7539 9.37325L16.7567 9.37473L16.7611 9.37737L16.7639 9.37885L16.7684 9.38149L16.7711 9.38298L16.7756 9.38561L16.7776 9.38752L16.782 9.39016L16.7836 9.39128L16.7881 9.39392L16.7897 9.39504L16.7941 9.39768L16.7957 9.3988L16.8001 9.40144L16.8017 9.40256L16.8054 9.40559L16.807 9.40671L16.8114 9.40935L16.8175 9.41311C16.8219 9.41574 16.8259 9.41956 16.8303 9.4222C16.9699 9.5275 17.0724 9.67435 17.1231 9.84161L17.1244 9.84394C17.1257 9.84825 17.1274 9.85331 17.1287 9.85761L17.1291 9.8584L17.1316 9.86304C17.1334 9.87007 17.1356 9.87592 17.1374 9.88295C17.1393 9.89013 17.1406 9.89748 17.1412 9.9049L17.1437 9.90954L17.1441 9.91033C17.1448 9.91513 17.146 9.91985 17.1477 9.92439L17.1489 9.92673C17.1848 10.0977 17.1657 10.2756 17.0944 10.435L17.0881 10.4494L17.0848 10.4562L17.0821 10.4606L17.0814 10.463L17.0795 10.467L17.0788 10.4694L17.0762 10.4738L17.0755 10.4762L17.0728 10.4806L17.0721 10.483L17.0695 10.4875L17.0687 10.4898L17.0661 10.4943L17.0654 10.4967L17.0627 10.5011L17.062 10.5035L17.0594 10.5079L17.0579 10.5107L17.0552 10.5151L17.0538 10.5179L17.0511 10.5223L17.0496 10.5251L17.047 10.5296L17.0455 10.5323L17.0421 10.5372L17.0406 10.54L17.0372 10.5448L17.0357 10.5476L17.0324 10.5524L17.0309 10.5552L17.0275 10.56L17.026 10.5628L17.0226 10.5676L17.0211 10.5704L17.0177 10.5752L17.0162 10.578L17.0128 10.5828L17.0113 10.5856L17.008 10.5904L17.0065 10.5932L17.0023 10.5985L17.0008 10.6012L16.9966 10.6065L16.9951 10.6093L16.9909 10.6145L16.9895 10.6173L16.9853 10.6226L16.9822 10.6262L16.9766 10.6343C16.8004 10.8811 16.5118 11.0805 16.1576 11.1711C15.9343 11.2283 15.2603 11.405 15.097 11.447L14.5931 9.49907ZM18.3371 12.7948L18.3396 12.7994L18.3401 12.8002C18.341 12.8057 18.3423 12.81 18.3433 12.8153L18.3437 12.8161L18.3441 12.8169L18.3446 12.8177L18.345 12.8185C18.3828 13.007 18.3556 13.2028 18.268 13.3739L18.2594 13.3896L18.2553 13.3968L18.2522 13.4024L18.2507 13.4052L18.2481 13.4096L18.2466 13.4124L18.244 13.4168L18.2425 13.4196L18.2391 13.4244L18.2376 13.4272L18.2342 13.432L18.2327 13.4348L18.2293 13.4396L18.2279 13.4424L18.2245 13.4472L18.223 13.45L18.2196 13.4549L18.2181 13.4576L18.2147 13.4625L18.2132 13.4653L18.2098 13.4701L18.2083 13.4729L18.2049 13.4777L18.2035 13.4805L18.2001 13.4853L18.1986 13.4881L18.1944 13.4933L18.1929 13.4961L18.1887 13.5014L18.1872 13.5041L18.1835 13.5102L18.182 13.513L18.1782 13.5191L18.1767 13.5218L18.173 13.5279L18.1707 13.5311L18.167 13.5372L18.1647 13.5404L18.1601 13.5468L18.1579 13.55L18.1533 13.5565L18.151 13.5597L18.1465 13.5661L18.1442 13.5693L18.1396 13.5757L18.1374 13.579L18.1328 13.5854L18.129 13.5894L18.1218 13.5983C17.9079 13.8715 17.5628 14.0962 17.1438 14.2038C16.8795 14.272 16.0809 14.4809 15.8866 14.5305L15.3429 12.4151C15.5369 12.3647 16.3376 12.1637 16.6019 12.0954C17.021 11.9879 17.4324 12.0184 17.7505 12.1542L17.7608 12.1586L17.766 12.1608L17.7736 12.1639L17.7772 12.1649L17.784 12.1683L17.7875 12.1693L17.7943 12.1727L17.7979 12.1737L17.8047 12.1771L17.8074 12.1785L17.8142 12.1819L17.817 12.1834L17.8238 12.1867L17.8266 12.1882L17.8334 12.1915L17.8362 12.193L17.8418 12.196L17.8446 12.1975L17.8502 12.2005L17.853 12.202L17.8586 12.2051L17.8614 12.2065L17.867 12.2096L17.8698 12.2111L17.8754 12.2141L17.8782 12.2156L17.8838 12.2186L17.8866 12.2201L17.8922 12.2231L17.895 12.2246L17.9006 12.2276L17.9034 12.2291L17.909 12.2322L17.9118 12.2336L17.9166 12.237L17.9194 12.2385L17.9242 12.2419L17.927 12.2434L17.9318 12.2468L17.9346 12.2483L17.9394 12.2517L17.9422 12.2532L17.947 12.2566L17.9498 12.258L17.9542 12.2607L17.957 12.2622L17.9618 12.2656L17.9683 12.2701C17.9731 12.2735 17.9787 12.2765 17.9834 12.2799C18.1425 12.3878 18.2605 12.5462 18.3184 12.7295L18.3201 12.7326C18.3218 12.7376 18.3231 12.7419 18.3249 12.747L18.3253 12.7478L18.3278 12.7524C18.3296 12.7594 18.3314 12.7665 18.3336 12.7743C18.3375 12.776 18.3381 12.7847 18.3369 12.7953L18.3371 12.7948Z" fill="#0AC18E"/>
</svg>
