<svg width="32" height="24" viewBox="0 0 32 24" fill="none" xmlns="http://www.w3.org/2000/svg">
<rect width="32" height="24" rx="4" fill="#F7931A"/>
<path d="M24.7306 14.1772C23.5284 18.9986 18.6446 21.9329 13.822 20.7305C9.00144 19.5285 6.06684 14.6449 7.2696 9.82379C8.47122 5.0018 13.3551 2.06727 18.1762 3.26932C22.9985 4.47137 25.9328 9.35551 24.7306 14.1772Z" fill="white"/>
<path d="M19.9685 10.7178C20.1477 9.52023 19.2358 8.87646 17.9888 8.44699L18.3933 6.82476L17.4057 6.57867L17.012 8.15815C16.7523 8.09347 16.4857 8.03244 16.2207 7.97197L16.6173 6.38208L15.6303 6.13599L15.2255 7.75766C15.0106 7.70872 14.7997 7.66035 14.5949 7.60944L14.596 7.60438L13.2341 7.26435L12.9714 8.31903C12.9714 8.31903 13.7041 8.48693 13.6886 8.49734C14.0886 8.59718 14.1609 8.86183 14.1488 9.07164L13.6881 10.9197C13.7156 10.9268 13.7514 10.9369 13.7907 10.9526C13.7578 10.9445 13.7227 10.9355 13.6864 10.9268L13.0406 13.5156C12.9916 13.6371 12.8676 13.8194 12.588 13.7502C12.5978 13.7645 11.8702 13.571 11.8702 13.571L11.3799 14.7014L12.6651 15.0217C12.9041 15.0816 13.1384 15.1443 13.3691 15.2034L12.9604 16.8442L13.9468 17.0903L14.3516 15.4669C14.6211 15.54 14.8827 15.6075 15.1386 15.6711L14.7353 17.2869L15.7228 17.533L16.1315 15.8953C17.8156 16.2139 19.0819 16.0854 19.6149 14.5624C20.0444 13.3362 19.5935 12.6289 18.7075 12.1676C19.3528 12.0188 19.8388 11.5944 19.9685 10.7178ZM17.7121 13.8815C17.4069 15.1078 15.342 14.4449 14.6725 14.2787L15.2149 12.1049C15.8843 12.272 18.031 12.6027 17.7121 13.8815ZM18.0175 10.7001C17.7391 11.8155 16.0204 11.2488 15.4629 11.1098L15.9546 9.1383C16.5121 9.27724 18.3075 9.53655 18.0175 10.7001Z" fill="#F7931A"/>
</svg>
