<svg width="32" height="32" viewBox="0 0 32 32" fill="none" xmlns="http://www.w3.org/2000/svg">
<path d="M16 30C23.732 30 30 23.732 30 16C30 8.26801 23.732 2 16 2C8.26801 2 2 8.26801 2 16C2 23.732 8.26801 30 16 30Z" fill="#03CA9B"/>
<path d="M22.0377 9.51965C21.9921 9.49969 17.2933 8.84699 12.6482 11.8953C9.7656 13.7913 9.38279 16.5656 9.51431 18.4162C16.2704 17.6536 21.8849 9.74031 22.0377 9.51965ZM9.97259 20.4716C10.5534 21.5145 14.9429 23.8787 18.8284 20.6179C22.714 17.3572 22.388 11.4244 22.0377 9.51965C21.9155 9.79609 17.6731 19.2784 9.97259 20.4711" fill="white"/>
</svg>
