<svg width="32" height="32" viewBox="0 0 32 32" fill="none" xmlns="http://www.w3.org/2000/svg">
<path fill-rule="evenodd" clip-rule="evenodd" d="M17.6709 14.3881C17.1829 14.3109 16.6817 14.3379 16.1893 14.3335C15.458 14.3335 14.7266 14.3429 13.999 14.3291C13.9902 15.6526 13.9902 16.9758 13.999 18.2989C14.8772 18.2895 15.7515 18.2945 16.6278 18.2945C17.0926 18.2945 17.5686 18.3121 18.014 18.1452C18.3144 18.0377 18.5826 17.8558 18.7936 17.6164C19.0045 17.3771 19.1513 17.0881 19.2202 16.7766C19.3237 16.2528 19.2697 15.6795 18.9693 15.2279C18.6845 14.7763 18.1858 14.4916 17.6709 14.3881Z" fill="#149F49"/>
<path fill-rule="evenodd" clip-rule="evenodd" d="M16 2C8.26801 2 2 8.26801 2 16C2 23.732 8.26801 30 16 30C23.732 30 30 23.732 30 16C30 8.26801 23.732 2 16 2ZM10.1667 18.4525C10.9118 18.4657 11.625 17.9915 11.9323 17.3185C12.0752 17.0031 12.1373 16.6571 12.113 16.3117C12.1444 15.6431 11.8194 14.9613 11.2505 14.5956C10.9369 14.3698 10.5505 14.282 10.1711 14.2569C10.1667 13.7281 10.1711 13.2044 10.1667 12.6806C10.713 12.7032 11.2455 12.4504 11.6093 12.0484C11.961 11.6529 12.1415 11.1341 12.1111 10.6057C12.0484 9.9647 11.672 9.34561 11.0906 9.05206C10.8102 8.88961 10.4897 8.83065 10.1692 8.81747C10.1598 8.23916 10.1692 7.66586 10.1648 7.09194C12.653 7.08754 15.1413 7.08315 17.634 7.09194C18.6231 7.15466 19.6261 7.50341 20.3618 8.18522C20.8571 8.6492 21.1897 9.26045 21.3102 9.92832C21.4187 10.7274 21.3466 11.5993 20.863 12.2723C20.5563 12.7509 20.0865 13.0984 19.5853 13.3606C20.3618 13.6585 21.0574 14.2048 21.4457 14.95C21.9789 15.9711 21.9651 17.2626 21.3918 18.2606C20.9985 18.9606 20.3392 19.4887 19.6035 19.7961C18.8677 20.1034 18.0498 20.2113 17.2551 20.2025H10.1673C10.1654 19.6173 10.1698 19.0346 10.1654 18.4525H10.1667ZM21.8333 24.9056C20.2483 24.9237 18.6589 24.9106 17.0663 24.915C14.7675 24.9106 12.4693 24.9237 10.1704 24.9056C10.1566 24.2827 10.1566 23.6548 10.1704 23.027C12.5728 23.0088 14.9757 23.027 17.3837 23.0226C18.8652 23.027 20.3512 23.0088 21.8321 23.027C21.844 23.6548 21.844 24.2827 21.8302 24.9056H21.8333Z" fill="#149F49"/>
<path fill-rule="evenodd" clip-rule="evenodd" d="M16.375 12.6127C16.7677 12.6039 17.1653 12.649 17.5442 12.5267C18.1677 12.3505 18.7278 11.8311 18.8269 11.1719C18.9172 10.63 18.8137 10.0297 18.4342 9.61383C18.0322 9.16661 17.4087 8.95021 16.8172 8.97279H13.9902C13.9946 10.1878 13.9946 11.3977 13.9902 12.6108L16.375 12.6127Z" fill="#149F49"/>
<path d="M17.2559 20.2001C18.0506 20.2089 18.8679 20.1098 19.6042 19.7937C20.3406 19.4775 20.9992 18.9582 21.3925 18.2582C21.9658 17.2602 21.9796 15.9688 21.4464 14.9476C21.0582 14.2024 20.3626 13.6561 19.586 13.3582C20.0878 13.096 20.557 12.7485 20.8637 12.2699C21.3473 11.5969 21.4195 10.725 21.311 9.92592C21.1904 9.25805 20.8578 8.64681 20.3626 8.18282C19.6256 7.50101 18.622 7.15289 17.6347 7.08954C15.1421 7.08076 12.6538 7.08515 10.1655 7.08954C10.1699 7.66347 10.1605 8.23677 10.1699 8.81508C10.4904 8.82825 10.811 8.88721 11.0913 9.04967C11.6734 9.34322 12.0485 9.9623 12.1119 10.6033C12.1422 11.1317 11.9618 11.6505 11.6101 12.046C11.2438 12.4481 10.7112 12.7008 10.1674 12.6783C10.1718 13.202 10.1674 13.7257 10.1718 14.2545C10.5513 14.2815 10.9395 14.3674 11.2513 14.5932C11.8202 14.9589 12.1451 15.6407 12.1137 16.3093C12.1381 16.6547 12.076 17.0007 11.9331 17.3161C11.6257 17.9891 10.9126 18.4633 10.1674 18.4501C10.1718 19.0322 10.1674 19.6149 10.1674 20.1976L17.2559 20.2001ZM19.2204 16.7766C19.1515 17.0882 19.0047 17.3771 18.7938 17.6165C18.5828 17.8558 18.3146 18.0378 18.0142 18.1453C17.572 18.3121 17.0928 18.2946 16.628 18.2946C15.7498 18.2946 14.8755 18.2895 13.9992 18.299C13.9904 16.9755 13.9904 15.6522 13.9992 14.3291C14.7268 14.3429 15.4582 14.3335 16.1895 14.3335C16.6819 14.3379 17.1831 14.311 17.6711 14.3881C18.186 14.4916 18.6828 14.7764 18.967 15.228C19.2699 15.6796 19.3239 16.2529 19.2204 16.7766ZM13.9904 8.97314H16.8174C17.4089 8.95056 18.0324 9.16696 18.4344 9.61418C18.8139 10.03 18.9174 10.6303 18.8271 11.1722C18.728 11.8315 18.1679 12.3508 17.5444 12.5271C17.168 12.6494 16.7679 12.6042 16.3752 12.613H13.9917C13.9948 11.3981 13.9948 10.1881 13.9904 8.97314Z" fill="white"/>
<path d="M17.3818 23.0224C14.9751 23.0268 12.5721 23.0086 10.1686 23.0268C10.1548 23.6541 10.1548 24.2813 10.1686 24.9054C12.4674 24.9236 14.7656 24.9104 17.0644 24.9148C18.6545 24.9104 20.2439 24.9236 21.8315 24.9054C21.8453 24.2825 21.8453 23.6547 21.8315 23.0268C20.3493 23.0086 18.8634 23.0268 17.3818 23.0224Z" fill="#73C692"/>
</svg>
