<svg width="32" height="32" viewBox="0 0 32 32" fill="none" xmlns="http://www.w3.org/2000/svg">
<path fill-rule="evenodd" clip-rule="evenodd" d="M30 7.56076C30 4.65729 27.6431 2.30005 24.7413 2.30005H7.25863C4.35691 2.30005 2 4.65729 2 7.56076V24.4393C2 27.342 4.35691 29.7 7.25866 29.7H24.7413C27.6431 29.7 30 27.342 30 24.4393L30 7.56076Z" fill="#0C3B7C"/>
<path fill-rule="evenodd" clip-rule="evenodd" d="M2.00098 19.3228H15.9853V29.7005H2.00099L2.00098 19.3228Z" fill="#0C3B7C"/>
<path d="M14.7254 20.4366L12.4702 20.4344V17.7362C12.4702 17.1597 12.6937 16.8597 13.1867 16.7911H14.7254C15.8226 16.7911 16.5325 17.4834 16.5325 18.6038C16.5325 19.7545 15.8406 20.4355 14.7254 20.4366ZM12.4702 13.1591V12.4489C12.4702 11.8274 12.733 11.5319 13.3091 11.4937H14.4637C15.4531 11.4937 16.0461 12.0859 16.0461 13.0782C16.0461 13.8334 15.6396 14.7155 14.4996 14.7155H12.4702V13.1591ZM17.605 15.8517L17.1973 15.6224L17.5534 15.3179C17.9678 14.9616 18.6619 14.1604 18.6619 12.7781C18.6619 10.6609 17.021 9.29556 14.4816 9.29556H11.584V9.29443H11.2538C10.5014 9.32253 9.89824 9.93499 9.89038 10.6924V22.7055H14.5389C17.3613 22.7055 19.183 21.1682 19.183 18.7869C19.183 17.5047 18.5945 16.409 17.605 15.8517Z" fill="white"/>
<path d="M20.3936 21.0464C20.3936 20.1287 21.1333 19.3862 22.0446 19.3862C22.9583 19.3862 23.7015 20.1287 23.7015 21.0464C23.7015 21.9629 22.9583 22.7065 22.0446 22.7065C21.1333 22.7065 20.3936 21.9629 20.3936 21.0464Z" fill="#00BAFC"/>
</svg>
