<svg width="32" height="32" viewBox="0 0 32 32" fill="none" xmlns="http://www.w3.org/2000/svg">
<path d="M27.1459 8.70811L27.8078 7.09477C27.8078 7.09477 26.9751 6.20318 25.9502 5.18423C24.9253 4.16528 22.7687 4.75967 22.7687 4.75967L20.3132 2H16H11.6655L9.20996 4.78089C9.20996 4.78089 7.05338 4.18651 6.02847 5.20546C5.00356 6.22441 4.17082 7.116 4.17082 7.116L4.83274 8.72934L4 11.1069C4 11.1069 6.47687 20.4049 6.75445 21.5512C7.33096 23.7801 7.7153 24.6505 9.33808 25.7968C10.9609 26.9431 13.8861 28.8961 14.3772 29.1933C14.847 29.4905 15.4662 30 16 30C16.5338 30 17.1317 29.4905 17.6228 29.1933C18.0925 28.8961 21.0391 26.9219 22.6619 25.7968C24.2847 24.6717 24.669 23.8014 25.2456 21.5512C25.5445 20.4049 28 11.1069 28 11.1069L27.1459 8.70811Z" fill="url(#paint0_linear_214_1355)"/>
<path d="M22.0854 6.54282C22.0854 6.54282 25.2455 10.3427 25.2455 11.1706C25.2455 11.9985 24.8398 12.1895 24.4341 12.6141C24.0284 13.0387 22.2775 14.8855 22.064 15.119C21.8291 15.3525 21.3807 15.7134 21.637 16.3715C21.9145 17.0083 22.3202 17.8362 21.8718 18.6854C21.4234 19.5133 20.6547 20.0864 20.1636 19.9803C19.6725 19.8954 18.4982 19.2797 18.0711 19.0038C17.6441 18.7278 16.2989 17.6239 16.2989 17.1994C16.2989 16.7748 17.7081 16.0106 17.9644 15.8408C18.2206 15.671 19.395 14.9916 19.4163 14.7369C19.4377 14.4822 19.4377 14.3973 19.0747 13.7392C18.733 13.0811 18.0925 12.2108 18.1992 11.6376C18.306 11.0644 19.3096 10.7672 20.0355 10.4913C20.7615 10.2153 22.1494 9.70583 22.3202 9.62091C22.491 9.536 22.4483 9.47232 21.9145 9.40863C21.3807 9.36618 19.9074 9.15389 19.2241 9.34495C18.5409 9.536 17.4092 9.81197 17.3024 9.96056C17.217 10.1092 17.1316 10.1092 17.217 10.6399C17.3024 11.1493 17.8149 13.6543 17.8576 14.1001C17.9003 14.5459 18.0071 14.8431 17.516 14.9492C17.0462 15.0553 16.2348 15.2464 15.9572 15.2464C15.6797 15.2464 14.8683 15.0553 14.3985 14.9492C13.9288 14.8431 14.0142 14.5459 14.0569 14.1001C14.0996 13.6543 14.5907 11.1706 14.6975 10.6399C14.7829 10.1304 14.7188 10.1092 14.612 9.96056C14.5266 9.81197 13.3736 9.536 12.6903 9.34495C12.0071 9.15389 10.5338 9.34495 9.99995 9.40863C9.46614 9.45109 9.42343 9.536 9.59425 9.62091C9.76507 9.70583 11.153 10.2153 11.8789 10.4913C12.6049 10.7672 13.6085 11.0644 13.7152 11.6376C13.822 12.2108 13.2028 13.0811 12.8398 13.7392C12.4982 14.3973 12.4768 14.4609 12.4982 14.7369C12.5195 14.9916 13.6939 15.671 13.9501 15.8408C14.2064 16.0106 15.6156 16.7748 15.6156 17.1994C15.6156 17.6239 14.2704 18.7278 13.8434 19.0038C13.4163 19.2797 12.2633 19.8741 11.7508 19.9803C11.2597 20.0652 10.491 19.5133 10.0427 18.6854C9.59425 17.8575 9.99995 17.0296 10.2775 16.3715C10.5551 15.7346 10.0854 15.3738 9.85048 15.119C9.67966 14.8643 7.95012 13.0174 7.54443 12.6141C7.13874 12.1895 6.75439 11.9772 6.75439 11.1706C6.75439 10.3639 9.91454 6.54282 9.91454 6.54282C9.91454 6.54282 12.5836 7.0523 12.9466 7.0523C13.3096 7.0523 14.0782 6.75511 14.8042 6.5216C15.5302 6.28809 15.9999 6.28809 15.9999 6.28809C15.9999 6.28809 16.4697 6.28809 17.1957 6.5216C17.9217 6.75511 18.6903 7.0523 19.0533 7.0523C19.4163 7.0523 22.0854 6.54282 22.0854 6.54282ZM19.7152 21.0841C19.9074 21.2115 19.8007 21.445 19.6085 21.5512C19.4377 21.6785 17.0249 23.5254 16.8113 23.7377C16.5765 23.95 16.2348 24.2684 15.9999 24.2684C15.7651 24.2684 15.4234 23.9287 15.1886 23.7377C14.9537 23.5254 12.5622 21.6785 12.3914 21.5512C12.2206 21.4238 12.0925 21.1903 12.2846 21.0841C12.4768 20.9568 13.096 20.6596 13.9288 20.2138C14.7829 19.768 15.8291 19.4071 15.9999 19.4071C16.1708 19.4071 17.217 19.768 18.0711 20.2138C18.9039 20.6596 19.5017 20.978 19.7152 21.0841Z" fill="white"/>
<path d="M22.7688 4.78089L20.3133 2H16.0001H11.6656L9.21006 4.78089C9.21006 4.78089 7.05348 4.18651 6.02856 5.20546C6.02856 5.20546 8.91113 4.95072 9.89333 6.54284C9.89333 6.54284 12.5624 7.05231 12.9254 7.05231C13.2884 7.05231 14.057 6.75512 14.783 6.52161C15.509 6.2881 15.9787 6.2881 15.9787 6.2881C15.9787 6.2881 16.4485 6.2881 17.1745 6.52161C17.9004 6.75512 18.6691 7.05231 19.0321 7.05231C19.3951 7.05231 22.0641 6.54284 22.0641 6.54284C23.0464 4.95072 25.9289 5.20546 25.9289 5.20546C24.9254 4.18651 22.7688 4.78089 22.7688 4.78089Z" fill="url(#paint1_linear_214_1355)"/>
<defs>
<linearGradient id="paint0_linear_214_1355" x1="3.99984" y1="15.9943" x2="27.9811" y2="15.9943" gradientUnits="userSpaceOnUse">
<stop stop-color="#FF5500"/>
<stop offset="0.4099" stop-color="#FF5500"/>
<stop offset="0.582" stop-color="#FF2000"/>
<stop offset="1" stop-color="#FF2000"/>
</linearGradient>
<linearGradient id="paint1_linear_214_1355" x1="6.46484" y1="4.52149" x2="25.9433" y2="4.52149" gradientUnits="userSpaceOnUse">
<stop stop-color="#FF452A"/>
<stop offset="1" stop-color="#FF2000"/>
</linearGradient>
</defs>
</svg>
