<svg width="32" height="32" viewBox="0 0 32 32" fill="none" xmlns="http://www.w3.org/2000/svg">
<path d="M21.9568 18.7039V11.4707H23.4031V18.7039H21.9568Z" fill="#F7A600"/>
<path d="M5.10062 20.8523H2V13.6191H4.97594C6.42226 13.6191 7.265 14.4115 7.265 15.651C7.265 16.4533 6.72376 16.9718 6.34914 17.1444C6.7963 17.3475 7.36869 17.8046 7.36869 18.7701C7.36869 20.1208 6.42226 20.8523 5.10062 20.8523ZM4.86146 14.8791H3.44631V16.5452H4.86146C5.47525 16.5452 5.81868 16.2099 5.81868 15.7119C5.81868 15.2144 5.47525 14.8791 4.86146 14.8791ZM4.95497 17.8151H3.44631V19.5929H4.95497C5.61068 19.5929 5.92238 19.1868 5.92238 18.6988C5.92238 18.2113 5.6101 17.8151 4.95497 17.8151Z" fill="#17181D"/>
<path d="M11.78 17.8859V20.8523H10.3439V17.8859L8.11719 13.6191H9.68818L11.0722 16.5347L12.4352 13.6191H14.0062L11.78 17.8859Z" fill="#17181D"/>
<path d="M18.1067 20.8523H15.0061V13.6191H17.9821C19.4284 13.6191 20.2711 14.4115 20.2711 15.651C20.2711 16.4533 19.7299 16.9718 19.3552 17.1444C19.8024 17.3475 20.3748 17.8046 20.3748 18.7701C20.3748 20.1208 19.4284 20.8523 18.1067 20.8523ZM17.8676 14.8791H16.4524V16.5452H17.8676C18.4814 16.5452 18.8248 16.2099 18.8248 15.7119C18.8248 15.2144 18.4814 14.8791 17.8676 14.8791ZM17.9611 17.8151H16.4524V19.5929H17.9611C18.6168 19.5929 18.9285 19.1868 18.9285 18.6988C18.9285 18.2113 18.6168 17.8151 17.9611 17.8151Z" fill="#17181D"/>
<path d="M28.0643 14.8791V20.8529H26.618V14.8791H24.6826V13.6191H29.9998V14.8791H28.0643Z" fill="#17181D"/>
</svg>
