<svg width="32" height="32" viewBox="0 0 32 32" fill="none" xmlns="http://www.w3.org/2000/svg">
<path d="M16 30C23.732 30 30 23.732 30 16C30 8.26801 23.732 2 16 2C8.26801 2 2 8.26801 2 16C2 23.732 8.26801 30 16 30Z" fill="#7D2AE7"/>
<path d="M16 30C23.732 30 30 23.732 30 16C30 8.26801 23.732 2 16 2C8.26801 2 2 8.26801 2 16C2 23.732 8.26801 30 16 30Z" fill="url(#paint0_radial_214_661)"/>
<path d="M16 30C23.732 30 30 23.732 30 16C30 8.26801 23.732 2 16 2C8.26801 2 2 8.26801 2 16C2 23.732 8.26801 30 16 30Z" fill="url(#paint1_radial_214_661)"/>
<path d="M16 30C23.732 30 30 23.732 30 16C30 8.26801 23.732 2 16 2C8.26801 2 2 8.26801 2 16C2 23.732 8.26801 30 16 30Z" fill="url(#paint2_radial_214_661)"/>
<path d="M16 30C23.732 30 30 23.732 30 16C30 8.26801 23.732 2 16 2C8.26801 2 2 8.26801 2 16C2 23.732 8.26801 30 16 30Z" fill="url(#paint3_radial_214_661)"/>
<path d="M22.044 18.8718C21.9285 18.8718 21.8268 18.9693 21.721 19.1824C20.5261 21.6053 18.4624 23.3196 16.0742 23.3196C13.3128 23.3196 11.6028 20.8269 11.6028 17.3832C11.6028 11.5498 14.853 8.17713 17.7077 8.17713C19.0417 8.17713 19.8563 9.01543 19.8563 10.3495C19.8563 11.9328 18.9568 12.7711 18.9568 13.3295C18.9568 13.5802 19.1127 13.7319 19.4219 13.7319C20.6641 13.7319 22.122 12.3046 22.122 10.2882C22.122 8.33309 20.4203 6.896 17.5656 6.896C12.8477 6.896 8.65479 11.2699 8.65479 17.3219C8.65479 22.0064 11.3298 25.1021 15.4573 25.1021C19.8382 25.1021 22.3713 20.7433 22.3713 19.3286C22.3713 19.0153 22.2111 18.8718 22.044 18.8718Z" fill="white"/>
<defs>
<radialGradient id="paint0_radial_214_661" cx="0" cy="0" r="1" gradientUnits="userSpaceOnUse" gradientTransform="translate(7.40855 26.817) rotate(-49.416) scale(21.6556)">
<stop stop-color="#6420FF"/>
<stop offset="1" stop-color="#6420FF" stop-opacity="0"/>
</radialGradient>
<radialGradient id="paint1_radial_214_661" cx="0" cy="0" r="1" gradientUnits="userSpaceOnUse" gradientTransform="translate(9.41258 5.1831) rotate(54.703) scale(24.4207)">
<stop stop-color="#00C4CC"/>
<stop offset="1" stop-color="#00C4CC" stop-opacity="0"/>
</radialGradient>
<radialGradient id="paint2_radial_214_661" cx="0" cy="0" r="1" gradientUnits="userSpaceOnUse" gradientTransform="translate(7.40842 26.8168) rotate(-45.1954) scale(21.3935 9.83914)">
<stop stop-color="#6420FF"/>
<stop offset="1" stop-color="#6420FF" stop-opacity="0"/>
</radialGradient>
<radialGradient id="paint3_radial_214_661" cx="0" cy="0" r="1" gradientUnits="userSpaceOnUse" gradientTransform="translate(13.4505 5.77263) rotate(66.5198) scale(22.0443 36.9291)">
<stop stop-color="#00C4CC" stop-opacity="0.725916"/>
<stop offset="0.0001" stop-color="#00C4CC"/>
<stop offset="1" stop-color="#00C4CC" stop-opacity="0"/>
</radialGradient>
</defs>
</svg>
