<svg width="32" height="32" viewBox="0 0 32 32" fill="none" xmlns="http://www.w3.org/2000/svg">
<path d="M10.1277 15.9134C10.0723 16.8761 10.8141 17.7003 11.7778 17.7557C11.8125 17.7557 11.8471 17.7557 11.8818 17.7557C12.8524 17.7557 13.6358 16.9731 13.6289 16.0035C13.6289 15.0338 12.8455 14.2512 11.8749 14.2582C10.9458 14.2582 10.1763 14.9854 10.1277 15.9134Z" fill="#0033AD"/>
<path d="M3.59682 15.4632C3.28484 15.4425 3.01445 15.6849 3.00058 15.9965C2.98672 16.3082 3.22244 16.5783 3.53442 16.5922C3.84641 16.6129 4.10987 16.3705 4.13066 16.0589C4.15146 15.7472 3.90881 15.484 3.59682 15.4632Z" fill="#0033AD"/>
<path d="M10.0168 5.76018C10.2941 5.62167 10.405 5.27537 10.2664 4.99834C10.1277 4.72131 9.78108 4.6105 9.50376 4.74901C9.22644 4.88753 9.11551 5.22689 9.25417 5.50393C9.39283 5.78788 9.73255 5.90562 10.0168 5.76018Z" fill="#0033AD"/>
<path d="M11.7917 8.85602C12.2215 8.64132 12.3948 8.11496 12.1799 7.68556C11.965 7.25616 11.4381 7.08301 11.0082 7.29771C10.5784 7.51241 10.405 8.03877 10.62 8.46817C10.8349 8.89758 11.3618 9.07072 11.7917 8.85602Z" fill="#0033AD"/>
<path d="M5.81539 10.9822C6.14817 11.1969 6.59189 11.1069 6.81374 10.7745C7.02867 10.442 6.93854 9.99878 6.60575 9.77715C6.27297 9.56245 5.82925 9.65249 5.6074 9.98493C5.38554 10.3174 5.4826 10.7675 5.81539 10.9822Z" fill="#0033AD"/>
<path d="M6.87614 15.1516C6.39083 15.1239 5.98178 15.491 5.95405 15.9758C5.92632 16.4606 6.29377 16.8692 6.77908 16.8969C7.26439 16.9246 7.67344 16.5575 7.70117 16.0727C7.7289 15.5948 7.36145 15.1793 6.87614 15.1516Z" fill="#0033AD"/>
<path d="M5.91245 21.0178C5.55887 21.1978 5.41327 21.6272 5.59353 21.9874C5.77379 22.3406 6.20364 22.486 6.56416 22.306C6.91774 22.1259 7.06333 21.6965 6.88307 21.3363C6.70282 20.9831 6.26604 20.8377 5.91245 21.0178Z" fill="#0033AD"/>
<path d="M9.30963 13.3439C9.78801 13.6556 10.4258 13.524 10.7309 13.0461C11.0429 12.5683 10.9112 11.9311 10.4328 11.6263C9.9544 11.3147 9.31657 11.4463 9.01151 11.9242C8.69953 12.3951 8.83125 13.0323 9.30963 13.3439Z" fill="#0033AD"/>
<path d="M20.0905 8.78676C20.4926 9.04994 21.0403 8.93913 21.3038 8.53743C21.5672 8.13574 21.4563 7.5886 21.0542 7.32542C20.6521 7.06223 20.1043 7.17305 19.8409 7.57474C19.5705 7.98337 19.6814 8.52358 20.0905 8.78676Z" fill="#0033AD"/>
<path d="M21.8792 5.70477C22.1427 5.87792 22.4893 5.80174 22.6626 5.53856C22.836 5.27537 22.7597 4.92908 22.4962 4.75594C22.2328 4.58279 21.8861 4.65898 21.7128 4.91523C21.5464 5.17841 21.6227 5.53163 21.8792 5.70477Z" fill="#0033AD"/>
<path d="M20.2222 14.2443C19.2585 14.1889 18.4266 14.93 18.378 15.8926C18.3226 16.8553 19.0644 17.6864 20.0281 17.7349C20.0628 17.7349 20.0974 17.7349 20.1251 17.7349C21.0888 17.7349 21.8723 16.9523 21.8723 15.9827C21.8792 15.0616 21.1512 14.2928 20.2222 14.2443Z" fill="#0033AD"/>
<path d="M12.3671 13.2193C12.6652 13.808 13.2684 14.182 13.934 14.182C14.8976 14.182 15.6811 13.3994 15.6811 12.4297C15.6811 12.1596 15.6187 11.8895 15.4939 11.6402C15.0571 10.7745 14.0033 10.4282 13.1436 10.8645C12.277 11.3078 11.9303 12.3605 12.3671 13.2193Z" fill="#0033AD"/>
<path d="M26.0875 10.9822C26.4411 10.8022 26.5798 10.3658 26.3995 10.0126C26.2193 9.65942 25.7825 9.5209 25.4289 9.70097C25.0753 9.88104 24.9367 10.3104 25.11 10.6637C25.2972 11.0169 25.727 11.1623 26.0875 10.9822Z" fill="#0033AD"/>
<path d="M21.6504 11.5363C21.1443 11.7926 20.9363 12.409 21.1928 12.9145C21.4494 13.4201 22.0664 13.6279 22.5725 13.3717C23.0786 13.1154 23.2866 12.499 23.0301 11.9934C22.7736 11.4878 22.1565 11.287 21.6504 11.5363Z" fill="#0033AD"/>
<path d="M15.9307 5.44159C16.3259 5.46237 16.6656 5.15764 16.6933 4.76286C16.721 4.36809 16.409 4.02873 16.0139 4.00102C15.6187 3.98025 15.279 4.27806 15.2512 4.67283C15.2304 5.07453 15.5355 5.41389 15.9307 5.44159Z" fill="#0033AD"/>
<path d="M15.9237 9.96415C16.4922 9.99878 16.9776 9.56245 17.0053 8.99454C17.04 8.42662 16.6032 7.94181 16.0347 7.91411C15.4662 7.87948 14.9808 8.31581 14.9531 8.88372C14.9254 9.45164 15.3552 9.93645 15.9237 9.96415Z" fill="#0033AD"/>
<path d="M10.3496 20.4637C10.8557 20.2074 11.0637 19.591 10.8072 19.0855C10.5506 18.5799 9.9336 18.3721 9.42749 18.6283C8.92138 18.8846 8.71339 19.501 8.96991 20.0066C9.22644 20.5122 9.84347 20.7199 10.3496 20.4637Z" fill="#0033AD"/>
<path d="M16.5893 11.4671C16.0624 12.2774 16.2843 13.3578 17.0954 13.8842C17.9066 14.4105 18.9881 14.1889 19.515 13.3786C20.042 12.5683 19.8201 11.4878 19.0089 10.9615C18.7247 10.7745 18.3919 10.6775 18.0522 10.6775C17.4629 10.6775 16.9152 10.9753 16.5893 11.4671Z" fill="#0033AD"/>
<path d="M19.6329 18.7807C19.1961 17.915 18.1423 17.5687 17.2826 18.005C16.416 18.4413 16.0693 19.4941 16.5061 20.3529C16.9429 21.2186 17.9967 21.5649 18.8564 21.1286C19.7161 20.6992 20.0697 19.6603 19.6398 18.7946C19.6398 18.7876 19.6398 18.7876 19.6329 18.7807Z" fill="#0033AD"/>
<path d="M22.6904 18.656C22.212 18.3444 21.5742 18.476 21.2691 18.9539C20.9571 19.4317 21.0888 20.0689 21.5672 20.3737C22.0456 20.6853 22.6834 20.5537 22.9885 20.0758C23.3005 19.6049 23.1687 18.9677 22.6904 18.656Z" fill="#0033AD"/>
<path d="M26.0459 16.0312C26.0737 15.5464 25.7062 15.1377 25.2209 15.11C24.7356 15.0823 24.3266 15.4494 24.2988 15.9342C24.2711 16.419 24.6385 16.8276 25.1239 16.8553C25.6022 16.883 26.0182 16.509 26.0459 16.0312Z" fill="#0033AD"/>
<path d="M28.4656 15.4078C28.1536 15.3871 27.8832 15.6295 27.8693 15.9411C27.8555 16.2528 28.0912 16.5229 28.4032 16.5368C28.7152 16.5575 28.9786 16.3151 28.9994 16.0035C29.0133 15.6918 28.7776 15.4286 28.4656 15.4078Z" fill="#0033AD"/>
<path d="M26.1846 21.0178C25.8518 20.8031 25.4081 20.8931 25.1863 21.2255C24.9713 21.558 25.0615 22.0012 25.3942 22.2228C25.727 22.4375 26.1707 22.3475 26.3926 22.0151C26.6145 21.6826 26.5174 21.2325 26.1846 21.0178Z" fill="#0033AD"/>
<path d="M10.1139 26.2952C9.85041 26.1221 9.50376 26.1983 9.33043 26.4545C9.15711 26.7177 9.23337 27.064 9.48989 27.2371C9.75335 27.4103 10.1 27.3341 10.2733 27.0778C10.4536 26.8216 10.3773 26.4684 10.1139 26.2952Z" fill="#0033AD"/>
<path d="M21.9832 26.2398C21.7059 26.3783 21.5949 26.7246 21.7336 27.0017C21.8723 27.2787 22.2189 27.3895 22.4962 27.251C22.7736 27.1125 22.8845 26.7731 22.7458 26.4961C22.6072 26.2121 22.2675 26.0944 21.9832 26.2398Z" fill="#0033AD"/>
<path d="M15.4107 20.5329C15.9376 19.7226 15.7157 18.6422 14.9046 18.1089C14.0934 17.5825 13.0119 17.8042 12.478 18.6145C11.9442 19.4248 12.173 20.5052 12.9841 21.0385C13.2684 21.2255 13.6012 21.3225 13.9409 21.3225C14.5371 21.3294 15.0848 21.0316 15.4107 20.5329Z" fill="#0033AD"/>
<path d="M11.9095 23.2132C11.5074 22.9501 10.9597 23.0609 10.6962 23.4626C10.4328 23.8643 10.5437 24.4114 10.9458 24.6746C11.3479 24.9378 11.8956 24.827 12.1591 24.4253C12.4295 24.0236 12.3186 23.4764 11.9095 23.2132Z" fill="#0033AD"/>
<path d="M15.9931 26.5584C15.5979 26.5376 15.2582 26.8424 15.2304 27.2371C15.2027 27.6319 15.5147 27.9713 15.9099 27.999C16.3051 28.0198 16.6448 27.7219 16.6725 27.3272C16.6933 26.9255 16.3882 26.5861 15.9931 26.5584Z" fill="#0033AD"/>
<path d="M16 22.0358C15.4315 22.0012 14.9462 22.4375 14.9184 23.0055C14.8838 23.5734 15.3206 24.0582 15.8891 24.0859C16.4576 24.1136 16.9429 23.6842 16.9706 23.1163C17.0053 22.5553 16.5685 22.0636 16 22.0358Z" fill="#0033AD"/>
<path d="M20.2083 23.144C19.7785 23.3656 19.6052 23.892 19.827 24.3214C20.0489 24.7508 20.5758 24.9239 21.0056 24.7023C21.4355 24.4876 21.6088 23.9612 21.3939 23.5318C21.172 23.1024 20.6451 22.9224 20.2083 23.144Z" fill="#0033AD"/>
</svg>
