<svg width="32" height="32" viewBox="0 0 32 32" fill="none" xmlns="http://www.w3.org/2000/svg">
<path d="M16.0003 22.9997C19.8665 22.9997 23.0006 19.8654 23.0006 15.9992C23.0006 12.133 19.8665 8.99878 16.0003 8.99878C12.1341 8.99878 9 12.133 9 15.9992C9 19.8654 12.1341 22.9997 16.0003 22.9997Z" fill="white"/>
<path d="M9.93774 19.5011L3.87622 9.0022C2.64716 11.1303 2 13.5445 2 16.0022C2 18.4599 2.64687 20.8741 3.87578 23.0022C5.10469 25.1303 6.87229 26.8976 9.00073 28.126C11.1292 29.3543 13.5436 30.0007 16.0012 30L22.0627 19.5011V19.4995C21.4488 20.5642 20.5652 21.4485 19.5011 22.0633C18.437 22.6781 17.2297 23.0018 16.0007 23.002C14.7718 23.0022 13.5644 22.6788 12.5001 22.0643C11.4358 21.4498 10.552 20.5658 9.93774 19.5014V19.5011Z" fill="#229342"/>
<path d="M22.0622 19.5007L16.0008 29.9996C18.4583 30 20.8726 29.3531 23.0009 28.1245C25.1292 26.8959 26.8965 25.1284 28.1252 23C29.3537 20.8716 30.0003 18.4572 29.9999 15.9997C29.9995 13.5422 29.352 11.128 28.1227 9H15.9998L15.9983 9.00103C17.2273 9.00045 18.4347 9.32347 19.4992 9.9376C20.5638 10.5518 21.4478 11.4353 22.0625 12.4996C22.6771 13.5639 23.0007 14.7712 23.0007 16.0002C23.0006 17.2292 22.677 18.4366 22.0623 19.5008L22.0622 19.5007Z" fill="#FBC116"/>
<path d="M16.0002 21.5428C19.0609 21.5428 21.5421 19.0616 21.5421 16.0007C21.5421 12.9398 19.0609 10.4587 16.0002 10.4587C12.9394 10.4587 10.4583 12.9399 10.4583 16.0007C10.4583 19.0614 12.9394 21.5428 16.0002 21.5428Z" fill="#1A73E8"/>
<path d="M16.0004 9.00044H28.1233C26.8948 6.872 25.1277 5.1044 22.9994 3.87549C20.8711 2.64666 18.4569 1.99981 15.9994 2C13.5418 2.00015 11.1277 2.64731 8.99966 3.87652C6.87158 5.10565 5.10462 6.87341 3.87646 9.00205L9.93799 19.501L9.9396 19.5018C9.3246 18.4378 9.00061 17.2305 9.00023 16.0015C8.99984 14.7725 9.32307 13.5651 9.9374 12.5007C10.5516 11.4362 11.4356 10.5523 12.4999 9.93789C13.5642 9.3235 14.7716 9 16.0007 9.0003L16.0004 9.00044Z" fill="#E33B2E"/>
</svg>
