<svg width="32" height="32" viewBox="0 0 32 32" fill="none" xmlns="http://www.w3.org/2000/svg">
<path d="M16.0007 2.00394C16.0007 2.00394 24.2529 1.63495 28.628 9.90002H15.2986C15.2986 9.90002 12.783 9.81923 10.6342 12.8601C10.0169 14.1364 9.35344 15.4511 10.098 18.0422C9.02541 16.2315 4.40356 8.21246 4.40356 8.21246C4.40356 8.21246 7.66356 2.33069 16.0006 2.00394H16.0007Z" fill="#EF3F36"/>
<path d="M28.1996 22.9855C28.1996 22.9855 24.3918 30.2933 15.0247 29.932C16.1821 27.9368 21.6912 18.43 21.6912 18.43C21.6912 18.43 23.0222 16.3004 21.452 12.9251C20.6533 11.7527 19.8393 10.5263 17.216 9.87275C19.3263 9.85364 28.6048 9.87275 28.6048 9.87275C28.6048 9.87275 32.0807 15.6276 28.1996 22.9855Z" fill="#FCD900"/>
<path d="M3.85931 23.0433C3.85931 23.0433 -0.588992 16.1044 4.41095 8.20068C5.56452 10.1959 11.0737 19.7027 11.0737 19.7027C11.0737 19.7027 12.262 21.917 15.9772 22.2475C17.3932 22.1437 18.8669 22.0553 20.7497 20.1217C19.7117 21.9516 15.0551 29.9476 15.0551 29.9476C15.0551 29.9476 8.31134 30.0706 3.8592 23.0433H3.85931Z" fill="#61BC5B"/>
<path d="M15.0208 30.0013L16.8957 22.2053C16.8957 22.2053 18.9559 22.0437 20.6844 20.1562C19.6118 22.0362 15.0208 30.0013 15.0208 30.0013Z" fill="#5AB055"/>
<path d="M9.71973 16.089C9.71973 12.6523 12.5168 9.86523 15.9658 9.86523C19.4148 9.86523 22.2119 12.6523 22.2119 16.089C22.2119 19.5257 19.4148 22.3127 15.9658 22.3127C12.5168 22.3089 9.71973 19.5257 9.71973 16.089Z" fill="white"/>
<path d="M10.7654 16.0892C10.7654 13.2292 13.0918 10.9072 15.9661 10.9072C18.8364 10.9072 21.1667 13.2254 21.1667 16.0892C21.1667 18.9494 18.8403 21.2714 15.9661 21.2714C13.0957 21.2714 10.7654 18.9494 10.7654 16.0892Z" fill="url(#paint0_linear_214_344)"/>
<path d="M28.6009 9.87673L20.881 12.1333C20.881 12.1333 19.716 10.4302 17.2122 9.87673C19.3842 9.86515 28.6009 9.87673 28.6009 9.87673Z" fill="#EACA05"/>
<path d="M9.94759 17.7577C8.86337 15.8855 4.40356 8.2124 4.40356 8.2124L10.1211 13.8481C10.1211 13.8481 9.53465 15.0514 9.75465 16.7735L9.94748 17.7577H9.94759Z" fill="#DF3A32"/>
<defs>
<linearGradient id="paint0_linear_214_344" x1="15.9658" y1="10.9804" x2="15.9658" y2="20.9594" gradientUnits="userSpaceOnUse">
<stop stop-color="#86BBE5"/>
<stop offset="1" stop-color="#1072BA"/>
</linearGradient>
</defs>
</svg>
