<svg width="32" height="24" viewBox="0 0 32 24" fill="none" xmlns="http://www.w3.org/2000/svg">
<rect width="32" height="24" rx="4" fill="#D83F44"/>
<path d="M3.37903 10.277C3.14422 10.277 3.12106 10.1994 3.12106 9.63356V9.537C3.12106 8.96922 3.14422 8.89235 3.37903 8.89235H8.74844C8.98406 8.89235 9.00722 8.96922 9.00722 9.53623V9.63279C9.00722 10.1994 8.98366 10.2767 8.74844 10.2767H3.37903V10.277ZM3.37903 7.78537C3.14422 7.78537 3.12106 7.70812 3.12106 7.1415V7.04493C3.12106 6.47638 3.14422 6.3999 3.37903 6.3999H8.74844C8.98406 6.3999 9.00722 6.47715 9.00722 7.04493V7.1415C9.00722 7.70812 8.98366 7.78537 8.74844 7.78537H3.37903ZM4.18341 15.1851C4.18341 14.2473 4.664 13.7316 5.38712 13.7316C5.66012 13.7316 5.87869 13.8073 6.15209 13.9367C6.25122 13.9846 6.33328 13.9653 6.46328 13.6722L6.55794 13.4729C6.65137 13.2326 6.65828 13.1333 6.54494 13.08C6.20978 12.8935 5.691 12.7757 5.24291 12.7757C3.96606 12.7757 3 13.7374 3 15.1851C3 16.6324 3.96606 17.5941 5.2425 17.5941C5.691 17.5941 6.22156 17.4767 6.55794 17.289C6.67006 17.2368 6.66275 17.1364 6.57013 16.8962L6.47669 16.6857C6.34669 16.3921 6.26422 16.3755 6.16428 16.4211C5.89087 16.5512 5.66053 16.6269 5.38712 16.6269C4.664 16.6269 4.18463 16.1225 4.18463 15.1851H4.18381H4.18341ZM19.3975 17.3724C19.3975 17.4999 19.3471 17.5346 18.9681 17.5346H18.9303C18.5309 17.5346 18.4753 17.5172 18.444 17.4242C18.4231 17.361 18.4064 17.2966 18.394 17.2314C18.1828 17.4717 17.9281 17.5999 17.5401 17.5999C16.5992 17.5999 16.0337 16.9433 16.0337 15.8873C16.0337 14.7459 16.663 14.07 17.5962 14.07C17.859 14.07 18.1011 14.1472 18.288 14.2878V12.8046C18.288 12.7054 18.3002 12.6641 18.8243 12.6641H18.862C19.3471 12.6641 19.3971 12.7054 19.3971 12.8046V17.3724H19.3975ZM18.2884 15.1206C18.2243 15.054 18.1464 15.0009 18.0595 14.9646C17.9726 14.9282 17.8787 14.9096 17.7838 14.9097C17.3662 14.9097 17.168 15.2546 17.168 15.8881C17.168 16.2511 17.2488 16.4817 17.3662 16.6026C17.4718 16.7274 17.6343 16.7675 17.7908 16.7675C17.9837 16.7675 18.1328 16.7224 18.2019 16.6385C18.2632 16.5744 18.288 16.4752 18.288 16.2465V15.1202L18.2888 15.1206H18.2884ZM25.0508 17.3956C25.0508 17.4941 25.0009 17.5346 24.5146 17.5346H24.4772C23.954 17.5346 23.943 17.4941 23.943 17.3956V12.8046C23.943 12.7054 23.954 12.6641 24.4768 12.6641H24.5142C25.0001 12.6641 25.0504 12.7054 25.0504 12.8046V17.3956H25.0508ZM21.1492 16.175C21.211 16.591 21.4848 16.7911 21.915 16.7911C22.2461 16.7911 22.5561 16.7216 22.9184 16.5744C22.994 16.5454 23.0618 16.5744 23.1419 16.8073L23.1987 16.9379C23.2788 17.1781 23.2719 17.2314 23.1858 17.2774C22.7551 17.5057 22.307 17.5991 21.8086 17.5991C20.7068 17.5991 20.0158 16.9618 20.0158 15.8707C20.0158 14.8097 20.6507 14.07 21.7407 14.07C22.8189 14.07 23.3722 14.7977 23.3722 15.8058C23.3722 16.1403 23.3417 16.175 23.217 16.175H21.1492ZM22.2632 15.525C22.2461 15.1743 22.0966 14.8684 21.7289 14.8684C21.41 14.8684 21.1793 15.0963 21.1358 15.525H22.2632ZM26.7766 16.175C26.8375 16.591 27.1122 16.7911 27.5428 16.7911C27.871 16.7911 28.1838 16.7216 28.545 16.5744C28.6189 16.5454 28.6888 16.5744 28.7692 16.8073L28.8257 16.9379C28.9058 17.1781 28.8993 17.2314 28.8135 17.2774C28.3829 17.5057 27.934 17.5991 27.4351 17.5991C26.333 17.5991 25.6427 16.9618 25.6427 15.8707C25.6427 14.8097 26.2765 14.07 27.3669 14.07C28.4459 14.07 29 14.7977 29 15.8058C29 16.1403 28.9687 16.175 28.844 16.175H26.7762H26.7766ZM27.8918 15.525C27.8714 15.1743 27.7232 14.8684 27.3555 14.8684C27.0378 14.8684 26.8063 15.0963 26.7632 15.525H27.8918ZM14.2608 15.1438C14.2047 15.0733 14.1323 15.0161 14.0491 14.9766C13.966 14.9371 13.8744 14.9163 13.7815 14.9159C13.3638 14.9159 13.1652 15.2616 13.1652 15.8765C13.1652 16.3979 13.3131 16.7853 13.7681 16.7853C13.9371 16.7853 14.0606 16.7444 14.1487 16.6613C14.2292 16.5802 14.2608 16.4682 14.2608 16.2233V15.1438ZM15.3821 17.3724C15.3821 17.4999 15.3329 17.5346 14.9531 17.5346H14.9019C14.5038 17.5346 14.4477 17.5172 14.4168 17.4242C14.3955 17.3611 14.3788 17.2967 14.3669 17.2314C14.1556 17.4717 13.8997 17.5999 13.5129 17.5999C12.6098 17.5999 12.0301 16.9541 12.0301 15.9004C12.0301 14.7282 12.7467 14.07 13.5942 14.07C13.9371 14.07 14.2352 14.206 14.3977 14.3991L14.4168 14.2523C14.4221 14.1828 14.442 14.1364 14.8515 14.1364H14.8958C15.3199 14.1364 15.3813 14.1646 15.3813 14.2716V17.3724H15.3821ZM10.1825 13.1457C10.5993 13.1457 10.6245 13.1507 10.6245 13.2797V14.1357H11.3415C11.4407 14.1357 11.4715 14.153 11.4715 14.4752V14.5227C11.4715 14.844 11.4407 14.8626 11.3415 14.8626H10.6245V16.3987C10.6245 16.6559 10.6737 16.7911 10.9227 16.7911C11.0527 16.7911 11.1664 16.7675 11.2786 16.7332C11.3964 16.6903 11.4411 16.7444 11.5215 17.0132L11.5402 17.0777C11.6271 17.3724 11.6015 17.3956 11.4906 17.4473C11.2664 17.547 10.9666 17.5999 10.6867 17.5999C9.80225 17.5999 9.55322 17.1781 9.55322 16.4443V14.8626H9.13559C9.02997 14.8626 9.00356 14.8433 9.00356 14.5227V14.4752C9.00356 14.153 9.02956 14.1364 9.13559 14.1364H9.60278C9.65356 13.861 9.73969 13.4732 9.79616 13.2797C9.82744 13.1681 9.84613 13.1457 10.1825 13.1457ZM7.86525 14.1364C8.35153 14.1364 8.39459 14.1762 8.39459 14.2766V17.3956C8.39459 17.4999 8.35153 17.5346 7.86525 17.5346H7.83356C7.29853 17.5346 7.28634 17.4999 7.28634 17.3956V14.2766C7.28634 14.1762 7.29853 14.1364 7.83356 14.1364H7.86525ZM7.83356 12.6119C8.18456 12.6119 8.43888 12.8695 8.43888 13.1623C8.43731 13.2357 8.42041 13.308 8.38917 13.3751C8.35792 13.4422 8.31295 13.5028 8.25688 13.5532C8.14313 13.6556 7.99078 13.7112 7.83356 13.7077C7.48663 13.7077 7.22947 13.4501 7.22947 13.1623C7.22947 12.8688 7.48663 12.6119 7.83356 12.6119Z" fill="white"/>
</svg>
