<svg width="32" height="32" viewBox="0 0 32 32" fill="none" xmlns="http://www.w3.org/2000/svg">
<path d="M10.6103 21.4607L10.5595 21.5099C9.76191 22.3232 8.83892 22.7529 7.88816 22.7529C5.90251 22.7529 4.46209 21.2621 4.46209 19.206C4.46209 17.1529 5.90251 15.6599 7.88816 15.6599C8.83892 15.6599 9.76191 16.0919 10.5595 16.9083L10.6103 16.9568L11.8872 15.4113L11.8531 15.37C10.7912 14.1143 9.51668 13.5036 7.95006 13.5036C6.37948 13.5036 4.94144 14.0333 3.90655 14.9872C2.77961 16.0212 2.18677 17.4794 2.18677 19.206C2.18677 20.9326 2.77961 22.3939 3.90655 23.4279C4.94144 24.3873 6.37948 24.9131 7.95006 24.9131C9.51668 24.9131 10.7912 24.3016 11.8531 23.0451L11.8872 23.007L10.6103 21.4607Z" fill="#004685"/>
<path d="M13.1768 24.7026H15.4322V13.6823H13.1768V24.7026Z" fill="#004685"/>
<path d="M24.2689 22.3067C23.6665 22.6736 23.107 22.8586 22.6039 22.8586C21.8745 22.8586 21.5444 22.4727 21.5444 21.6149V15.7672H23.8435V13.6928H21.5444V10.2634L19.3341 11.4484V13.6928H17.4263V15.7672H19.3341V21.9874C19.3341 23.6814 20.3373 24.841 21.8356 24.8711C22.8523 24.891 23.465 24.5876 23.8364 24.3652L23.8602 24.3501L24.4022 22.2249L24.2689 22.3067Z" fill="#004685"/>
<path d="M26.136 24.7026H28.3946V13.6823H26.136V24.7026Z" fill="#004685"/>
<path d="M29.7102 11.7503C27.6491 8.82922 24.227 7.08674 20.7454 7.08674C17.2645 7.08674 13.8416 8.82922 11.7846 11.7503L11.6782 11.9004H14.2734L14.3019 11.8694C16.0678 10.0443 18.374 9.08018 20.7454 9.08018C23.1167 9.08018 25.4214 10.0443 27.1912 11.8694L27.2198 11.9004H29.8133L29.7102 11.7503Z" fill="#EE1C25"/>
</svg>
