<svg width="32" height="32" viewBox="0 0 32 32" fill="none" xmlns="http://www.w3.org/2000/svg">
<path d="M16 30C23.732 30 30 23.732 30 16C30 8.26801 23.732 2 16 2C8.26801 2 2 8.26801 2 16C2 23.732 8.26801 30 16 30Z" fill="#0052FF"/>
<path d="M16.1176 11.8938C17.7659 11.8938 19.0734 12.9104 19.57 14.4223H22.8906C22.2891 11.19 19.6222 9 16.1441 9C12.1943 9 9.10938 11.9982 9.10938 16.0134C9.10938 20.0286 12.1172 23 16.1441 23C19.5443 23 22.2642 20.81 22.8663 17.5509H19.5697C19.0989 19.063 17.7924 20.1062 16.143 20.1062C13.8672 20.1062 12.2722 18.3592 12.2722 16.0134C12.2733 13.6408 13.8426 11.8938 16.1176 11.8938Z" fill="white"/>
</svg>
