<svg width="32" height="32" viewBox="0 0 32 32" fill="none" xmlns="http://www.w3.org/2000/svg">
<path d="M16 30C23.7322 30 30 23.7322 30 16C30 8.2678 23.7322 2 16 2C8.2678 2 2 8.2678 2 16C2 23.7322 8.2678 30 16 30Z" fill="#070A0E"/>
<path fill-rule="evenodd" clip-rule="evenodd" d="M10.0879 20.6942C9.66929 20.438 9.41309 19.983 9.41309 19.493V16.7574C9.41309 16.4326 9.67769 16.1694 10.0025 16.1708C10.1061 16.1708 10.2083 16.1988 10.2979 16.2506L16.4705 19.85C16.8317 20.06 17.0543 20.4464 17.0543 20.865V23.6986C17.0557 24.0878 16.7407 24.4042 16.3515 24.4042C16.2213 24.4042 16.0925 24.3678 15.9819 24.3006L10.0879 20.6942ZM19.2887 15.5016C19.6499 15.7116 19.8711 16.0994 19.8725 16.5166V22.2678C19.8725 22.4372 19.7815 22.594 19.6331 22.6766L18.2821 23.4368C18.2653 23.4466 18.2471 23.4536 18.2275 23.4592V20.2658C18.2275 19.8528 18.0105 19.4692 17.6549 19.2564L12.2341 16.014V12.409C12.2341 12.0842 12.4987 11.821 12.8235 11.8224C12.9271 11.8224 13.0293 11.8504 13.1189 11.9022L19.2887 15.5016ZM21.9907 11.254C22.3533 11.464 22.5759 11.8518 22.5759 12.2704V20.6704C22.5745 20.8426 22.4793 21.0008 22.3281 21.0834L21.0471 21.775V15.9272C21.0471 15.5142 20.8301 15.132 20.4773 14.9192L14.9361 11.5956V8.17679C14.9361 8.07319 14.9641 7.97099 15.0145 7.88139C15.1783 7.60139 15.5381 7.50619 15.8181 7.66859L21.9907 11.254Z" fill="#00D395"/>
</svg>
