<svg width="32" height="32" viewBox="0 0 32 32" fill="none" xmlns="http://www.w3.org/2000/svg">
<path fill-rule="evenodd" clip-rule="evenodd" d="M4.87031 22.3215C4.6221 22.7428 4.34333 23.2316 4.10657 23.6211C3.89465 23.9938 4.00842 24.4744 4.36242 24.7021L9.32677 27.8814C9.50103 27.9934 9.7112 28.0278 9.91009 27.977C10.109 27.9262 10.2799 27.7944 10.3846 27.6112C10.5831 27.2654 10.839 26.8163 11.1178 26.3355C13.0844 22.9574 15.0625 23.3707 18.6292 25.1432L23.5515 27.5794C23.738 27.6717 23.9524 27.6816 24.1459 27.6067C24.3394 27.5318 24.4956 27.3786 24.5788 27.182L26.9426 21.6181C27.1096 21.2207 26.9396 20.7573 26.5607 20.5768C25.522 20.0681 23.4561 19.0547 21.5963 18.1208C14.9059 14.7387 9.21985 14.9573 4.87031 22.3215Z" fill="url(#paint0_linear_214_941)"/>
<path fill-rule="evenodd" clip-rule="evenodd" d="M27.1297 9.69551C27.378 9.27424 27.6567 8.78541 27.8935 8.39594C28.1054 8.02324 27.9916 7.54258 27.6376 7.31496L22.6733 4.13559C22.4976 4.01245 22.2807 3.97076 22.0743 4.0205C21.868 4.07023 21.6907 4.20691 21.5849 4.39789C21.3864 4.74365 21.1305 5.19273 20.8518 5.67361C18.8851 9.05169 16.907 8.63837 13.3403 6.86587L8.43324 4.44161C8.24681 4.34926 8.03241 4.3394 7.83888 4.41427C7.64535 4.48914 7.4892 4.64237 7.406 4.83903L5.04221 10.4029C4.8752 10.8003 5.04514 11.2636 5.42408 11.4442C6.46278 11.9529 8.52871 12.9663 10.3884 13.9002C17.0941 17.2783 22.7802 17.0518 27.1297 9.69551Z" fill="url(#paint1_linear_214_941)"/>
<defs>
<linearGradient id="paint0_linear_214_941" x1="26.8089" y1="29.5228" x2="20.8666" y2="16.4235" gradientUnits="userSpaceOnUse">
<stop offset="0.18" stop-color="#0052CC"/>
<stop offset="1" stop-color="#2684FF"/>
</linearGradient>
<linearGradient id="paint1_linear_214_941" x1="5.19114" y1="2.49027" x2="11.1428" y2="15.5956" gradientUnits="userSpaceOnUse">
<stop offset="0.18" stop-color="#0052CC"/>
<stop offset="1" stop-color="#2684FF"/>
</linearGradient>
</defs>
</svg>
