<svg width="32" height="32" viewBox="0 0 32 32" fill="none" xmlns="http://www.w3.org/2000/svg">
<path d="M16 30C23.732 30 30 23.732 30 16C30 8.26801 23.732 2 16 2C8.26801 2 2 8.26801 2 16C2 23.732 8.26801 30 16 30Z" fill="#2E3148"/>
<path d="M15.9999 24.1234C20.4864 24.1234 24.1234 20.4864 24.1234 15.9999C24.1234 11.5135 20.4864 7.87646 15.9999 7.87646C11.5135 7.87646 7.87646 11.5135 7.87646 15.9999C7.87646 20.4864 11.5135 24.1234 15.9999 24.1234Z" fill="#1B1E36"/>
<path d="M16.0288 3.78613C14.5176 3.78613 13.2922 9.26741 13.2922 16.029C13.2922 22.7905 14.5176 28.2718 16.0288 28.2718C17.5401 28.2718 18.7655 22.7905 18.7655 16.029C18.7655 9.26741 17.5401 3.78613 16.0288 3.78613ZM16.2178 27.5809C16.045 27.8114 15.8722 27.6384 15.8722 27.6384C15.1762 26.832 14.8282 25.3339 14.8282 25.3339C13.6109 21.4163 13.9006 13.0047 13.9006 13.0047C14.4727 6.32685 15.5134 4.74933 15.8676 4.39911C15.9037 4.36336 15.9513 4.34152 16.002 4.33742C16.0527 4.33333 16.1032 4.34724 16.1447 4.37671C16.6585 4.74082 17.0895 6.26357 17.0895 6.26357C18.3621 10.9878 18.2469 15.4241 18.2469 15.4241C18.3621 19.2841 17.6092 23.6051 17.6092 23.6051C17.0296 26.8889 16.2178 27.5809 16.2178 27.5809Z" fill="#6F7390"/>
<path d="M26.648 9.9363C25.8956 8.625 20.5318 10.29 14.664 13.6547C8.79619 17.0194 4.65712 20.8103 5.40898 22.121C6.16083 23.4317 11.5252 21.7673 17.393 18.4026C23.2608 15.0379 27.3998 11.247 26.648 9.9363ZM6.10315 21.9411C5.81509 21.9048 5.88016 21.6681 5.88016 21.6681C6.23352 20.6633 7.358 19.6159 7.358 19.6159C10.1516 16.6103 17.5924 12.6758 17.5924 12.6758C23.6689 9.84871 25.5563 9.96799 26.0351 10.0998C26.0843 10.1135 26.127 10.1442 26.1557 10.1864C26.1844 10.2286 26.1972 10.2796 26.1919 10.3303C26.1344 10.9575 25.0252 12.0887 25.0252 12.0887C21.5631 15.5449 17.6575 17.653 17.6575 17.653C14.3666 19.6746 10.2439 21.1708 10.2439 21.1708C7.1069 22.3012 6.10326 21.9411 6.10326 21.9411H6.10315Z" fill="#6F7390"/>
<path d="M26.6215 22.1646C27.3798 20.8568 23.2511 17.0485 17.4039 13.6585C11.5568 10.2685 6.19364 8.58291 5.43607 9.89297C4.6785 11.203 8.80649 15.009 14.657 18.399C20.5076 21.7891 25.864 23.4748 26.6215 22.1646ZM5.9385 10.3983C5.8265 10.1328 6.06294 10.0688 6.06294 10.0688C7.10969 9.87113 8.58002 10.3216 8.58002 10.3216C12.5801 11.2325 19.7128 15.7004 19.7128 15.7004C25.2045 19.5432 26.0468 21.2359 26.173 21.7164C26.1858 21.7656 26.1808 21.8179 26.1589 21.8638C26.137 21.9098 26.0995 21.9465 26.0531 21.9676C25.4805 22.2298 23.9468 21.8391 23.9468 21.8391C19.2196 20.5716 15.439 18.2493 15.439 18.2493C12.0422 16.4172 8.68329 13.5982 8.68329 13.5982C6.13103 11.4492 5.93929 10.4012 5.93929 10.4012L5.9385 10.3983Z" fill="#6F7390"/>
<path d="M15.9999 17.4402C16.7954 17.4402 17.4402 16.7954 17.4402 15.9999C17.4402 15.2044 16.7954 14.5596 15.9999 14.5596C15.2044 14.5596 14.5596 15.2044 14.5596 15.9999C14.5596 16.7954 15.2044 17.4402 15.9999 17.4402Z" fill="#B7B9C8"/>
<path d="M21.9052 11.3334C22.3666 11.3334 22.7406 10.9465 22.7406 10.4692C22.7406 9.99189 22.3666 9.60498 21.9052 9.60498C21.4438 9.60498 21.0698 9.99189 21.0698 10.4692C21.0698 10.9465 21.4438 11.3334 21.9052 11.3334Z" fill="#B7B9C8"/>
<path d="M8.19332 14.2716C8.6547 14.2716 9.02873 13.8847 9.02873 13.4074C9.02873 12.9301 8.6547 12.5432 8.19332 12.5432C7.73193 12.5432 7.35791 12.9301 7.35791 13.4074C7.35791 13.8847 7.73193 14.2716 8.19332 14.2716Z" fill="#B7B9C8"/>
<path d="M14.3005 24.8724C14.7619 24.8724 15.1359 24.4855 15.1359 24.0082C15.1359 23.531 14.7619 23.144 14.3005 23.144C13.8391 23.144 13.4651 23.531 13.4651 24.0082C13.4651 24.4855 13.8391 24.8724 14.3005 24.8724Z" fill="#B7B9C8"/>
</svg>
