<svg width="32" height="32" viewBox="0 0 32 32" fill="none" xmlns="http://www.w3.org/2000/svg">
<path d="M16 2C23.7327 2 30 8.26856 30 16C30 23.7327 23.7327 30 16 30C8.26856 30 2 23.7321 2 16C2 8.26856 8.26856 2 16 2Z" fill="#F5AC37"/>
<path d="M16.516 16.9886H21.8358C21.9492 16.9886 22.0027 16.9886 22.0109 16.8399C22.0544 16.2987 22.0544 15.7544 22.0109 15.2126C22.0109 15.1074 21.9586 15.0639 21.8446 15.0639H11.2573C11.1263 15.0639 11.091 15.1074 11.091 15.2302V16.7876C11.091 16.9886 11.091 16.9886 11.3008 16.9886H16.516ZM21.4168 13.2438C21.4319 13.2041 21.4319 13.1607 21.4168 13.1216C21.328 12.9282 21.2228 12.7436 21.1005 12.5704C20.9166 12.2743 20.6999 12.0015 20.4529 11.7564C20.3363 11.6083 20.2015 11.4754 20.0503 11.3626C19.293 10.7181 18.3928 10.262 17.4251 10.0327C16.9368 9.92307 16.4379 9.87078 15.9376 9.87519H11.239C11.108 9.87519 11.0904 9.92748 11.0904 10.0415V13.1474C11.0904 13.2785 11.0904 13.3138 11.2567 13.3138H21.3538C21.3538 13.3138 21.4414 13.2961 21.459 13.2438H21.4162H21.4168ZM21.4168 18.8087C21.2681 18.7923 21.1182 18.7923 20.9695 18.8087H11.2661C11.1351 18.8087 11.091 18.8087 11.091 18.9838V22.0205C11.091 22.1603 11.091 22.1956 11.2661 22.1956H15.7461C15.9603 22.212 16.1745 22.1969 16.3843 22.1521C17.0345 22.1055 17.6739 21.9644 18.2838 21.7319C18.5055 21.6551 18.7197 21.5549 18.922 21.4345H18.9831C20.0333 20.8883 20.8863 20.0303 21.4244 18.9769C21.4244 18.9769 21.4855 18.8446 21.4168 18.8099V18.8087ZM9.33265 23.77V23.7177V21.679V20.9879V18.9315C9.33265 18.8175 9.33265 18.8005 9.19278 18.8005H7.29395C7.18873 18.8005 7.14526 18.8005 7.14526 18.6606V16.998H9.17514C9.28855 16.998 9.33265 16.998 9.33265 16.8494V15.2044C9.33265 15.0992 9.33265 15.0734 9.19278 15.0734H7.29395C7.18873 15.0734 7.14526 15.0734 7.14526 14.9335V13.3938C7.14526 13.2974 7.14526 13.2716 7.28513 13.2716H9.16632C9.29737 13.2716 9.33265 13.2716 9.33265 13.1052V8.38901C9.33265 8.24915 9.33265 8.21387 9.50779 8.21387H16.0699C16.5462 8.23277 17.0194 8.28506 17.4874 8.37137C18.452 8.54966 19.3787 8.89427 20.2261 9.38631C20.7881 9.71706 21.3053 10.1165 21.7658 10.5764C22.1123 10.9361 22.4248 11.3255 22.702 11.74C22.9773 12.1602 23.206 12.6094 23.3856 13.0788C23.4076 13.201 23.5248 13.2835 23.647 13.2627H25.2132C25.4142 13.2627 25.4142 13.2627 25.423 13.4555V14.8907C25.423 15.0305 25.3707 15.0658 25.2302 15.0658H24.0225C23.9003 15.0658 23.865 15.0658 23.8738 15.2233C23.9217 15.7563 23.9217 16.2912 23.8738 16.8242C23.8738 16.9728 23.8738 16.9905 24.0408 16.9905H25.4224C25.4835 17.0692 25.4224 17.148 25.4224 17.2274C25.4312 17.3288 25.4312 17.4315 25.4224 17.5329V18.592C25.4224 18.7406 25.3789 18.7847 25.2472 18.7847H23.5935C23.4782 18.7627 23.366 18.8364 23.3396 18.9511C22.9458 19.9748 22.3158 20.8927 21.5018 21.6286C21.2045 21.8963 20.892 22.1483 20.5657 22.3808C20.2154 22.5824 19.8745 22.7922 19.5154 22.9585C18.8546 23.2559 18.1616 23.4751 17.4503 23.6144C16.7749 23.7353 16.0901 23.7901 15.4028 23.7807H9.33013V23.7719L9.33265 23.77Z" fill="#FEFEFD"/>
</svg>
