<svg width="32" height="32" viewBox="0 0 32 32" fill="none" xmlns="http://www.w3.org/2000/svg">
<path fill-rule="evenodd" clip-rule="evenodd" d="M15.0116 12.5602C14.9116 12.4947 14.8116 12.4291 14.7121 12.363C14.2925 12.6326 13.8741 12.9033 13.4557 13.1741C12.6686 13.6835 11.8815 14.1929 11.0861 14.694C10.7991 13.8245 10.1805 13.1263 9.30809 12.8545C8.69254 12.6628 7.92913 12.6878 7.13973 12.7137C6.66373 12.7293 6.17828 12.7452 5.7101 12.7141V18.5695C6.18939 18.5473 6.66558 18.5608 7.12701 18.5739C7.62401 18.5881 8.10389 18.6017 8.55208 18.5695C9.93794 18.4699 10.7755 17.6265 11.1282 16.5054C11.722 16.8938 12.3058 17.2923 12.8895 17.6909C13.5025 18.1093 14.1156 18.5278 14.7402 18.9346C15.1415 18.6778 15.5455 18.4147 15.95 18.1513C16.7255 17.6463 17.5031 17.14 18.2681 16.6738V18.5695H22.2302V16.7019C21.9959 16.6984 21.7561 16.7003 21.5162 16.7021C21.1258 16.7052 20.7353 16.7082 20.3682 16.688V12.7141H18.2681V14.7081C18.0083 14.8743 17.7491 15.0411 17.4899 15.2079C16.7969 15.6541 16.1039 16.1002 15.3981 16.5335C15.3429 16.4973 15.2852 16.4635 15.2276 16.4297C15.1262 16.3703 15.0249 16.3108 14.9362 16.2386C15.3333 15.9812 15.7261 15.7196 16.119 15.4581C16.6546 15.1016 17.1901 14.7451 17.7363 14.3991C17.3451 14.1033 16.928 13.8337 16.5042 13.5706C15.6324 14.1302 14.7572 14.6863 13.882 15.2424C13.8087 15.2889 13.7354 15.3355 13.6622 15.382C13.5907 15.3272 13.5144 15.2773 13.4381 15.2275C13.3618 15.1777 13.2856 15.1278 13.2142 15.0731C13.6052 14.8232 13.994 14.571 14.3828 14.3187C14.9291 13.9643 15.4755 13.6098 16.0282 13.2617C15.7033 13.0138 15.3575 12.787 15.0116 12.5602ZM7.71204 16.702V14.5957C7.71084 14.5758 7.70981 14.5559 7.72599 14.5536C8.33229 14.5146 8.76922 14.5774 9.028 14.8765C9.41578 15.3248 9.32729 16.1661 8.88801 16.5054C8.62174 16.7112 8.28613 16.7077 7.85586 16.7032C7.80905 16.7027 7.76112 16.7022 7.71204 16.702Z" fill="#0083CA"/>
<path d="M24.8761 12.7141H22.7761C22.7598 12.7164 22.7609 12.7361 22.762 12.756L22.762 18.5696H26.7241V16.702H24.8761V12.7141Z" fill="#0083CA"/>
<path fill-rule="evenodd" clip-rule="evenodd" d="M16.434 2H15.566C11.3719 2.23159 8.33042 3.85109 6.10204 6.08629C3.88387 8.31113 2.2251 11.3142 2.014 15.5507C2.01636 15.567 2.01099 15.5757 2 15.5788V16.4213C2.22045 20.674 3.87023 23.6461 6.10198 25.8997C8.33374 28.1533 11.3446 29.7607 15.566 29.9999H16.42C20.7255 29.7875 23.5778 28.1177 25.898 25.9138C28.1068 23.5936 29.7856 20.7419 30 16.4213V15.5788C29.7795 11.3261 28.1298 8.35388 25.898 6.10033C23.6663 3.84679 20.656 2.2388 16.434 2ZM10.568 4.85053C11.2442 4.51516 11.9902 4.23144 12.822 4.00803C13.6601 3.78291 14.5786 3.66134 15.5522 3.61484C17.5326 3.52026 19.3818 3.9611 20.8022 4.55567C22.2662 5.16846 23.5085 6.0163 24.5402 7.01301C26.6253 9.0274 28.2052 11.6689 28.3902 15.5647C28.4879 17.6212 28.0359 19.3189 27.4382 20.7884C26.2563 23.6935 24.1239 25.7989 21.4181 27.1635C20.0375 27.8597 18.3711 28.2933 16.4481 28.3852C14.4432 28.4809 12.6629 28.0536 11.2261 27.4444C8.32052 26.2124 6.22102 24.1854 4.84198 21.4343C4.14368 20.041 3.70163 18.4065 3.61006 16.4634C3.46482 13.3812 4.46772 11.0308 5.626 9.20359C6.81272 7.33167 8.50994 5.87129 10.568 4.85053Z" fill="#0083CA"/>
</svg>
