<svg width="32" height="32" viewBox="0 0 32 32" fill="none" xmlns="http://www.w3.org/2000/svg">
<path d="M21.7892 18.358C21.4016 18.4515 20.3817 18.5054 20.3817 18.5054L20.2525 18.9306C20.2525 18.9306 20.7611 18.8853 21.1325 18.925C21.1325 18.925 21.2536 18.9108 21.2671 19.0695C21.2725 19.2169 21.2563 19.3757 21.2563 19.3757C21.2563 19.3757 21.2482 19.4721 21.1191 19.4948C20.9791 19.5203 20.0211 19.5571 20.0211 19.5571L19.865 20.1099C19.865 20.1099 19.8085 20.2375 19.9376 20.2006C20.0587 20.1666 21.0626 19.9682 21.1944 19.9965C21.3344 20.0334 21.4905 20.229 21.4447 20.4104C21.3909 20.6315 20.3898 21.3062 19.7789 21.258C19.7789 21.258 19.4586 21.2807 19.1868 20.8243C18.9338 20.3905 19.2837 19.5656 19.2837 19.5656C19.2837 19.5656 19.1249 19.1801 19.2406 19.0525C19.2406 19.0525 19.3106 18.9873 19.5097 18.9703L19.7546 18.4345C19.7546 18.4345 19.4748 18.4544 19.3079 18.2389C19.1518 18.032 19.1411 17.9384 19.2595 17.8817C19.386 17.8165 20.5512 17.5926 21.3532 17.6209C21.3532 17.6209 21.6331 17.5926 21.8726 18.1029C21.8699 18.1029 21.9883 18.3098 21.7892 18.358ZM18.7724 20.4161C18.6701 20.6712 18.3983 20.9433 18.0619 20.7732C17.7282 20.6032 17.198 19.4607 17.198 19.4607C17.198 19.4607 16.9962 19.0355 16.9585 19.044C16.9585 19.044 16.9155 18.9618 16.8885 19.4267C16.8616 19.8916 16.8939 20.7959 16.719 20.9377C16.5521 21.0794 16.3503 21.0227 16.2453 20.8555C16.1512 20.691 16.1108 20.2998 16.1619 19.6138C16.2238 18.9278 16.3745 18.1964 16.5683 17.9668C16.7621 17.74 16.9181 17.9044 16.9773 17.964C16.9773 17.964 17.2357 18.2106 17.6636 18.9363L17.739 19.0695C17.739 19.0695 18.1265 19.7556 18.1668 19.7527C18.1668 19.7527 18.1991 19.7839 18.2261 19.7612C18.2664 19.7499 18.2503 19.5288 18.2503 19.5288C18.2503 19.5288 18.1695 18.7832 17.817 17.5189C17.817 17.5189 17.7632 17.3601 17.8008 17.2127C17.8358 17.0625 17.9785 17.1334 17.9785 17.1334C17.9785 17.1334 18.5275 17.4225 18.7912 18.3637C19.0522 19.3133 18.8746 20.1609 18.7724 20.4161ZM16.0758 17.998C16.0301 18.0944 16.0031 18.2333 15.7717 18.2701C15.7717 18.2701 13.5569 18.4289 13.4519 18.5933C13.4519 18.5933 13.3739 18.6897 13.495 18.718C13.6161 18.7435 14.1166 18.8144 14.3588 18.8286C14.6172 18.8314 15.4891 18.8399 15.8013 19.251C15.8013 19.251 15.987 19.4466 15.9789 19.8888C15.9708 20.3424 15.8955 20.5011 15.7286 20.6655C15.5537 20.8186 14.052 21.5273 13.0832 20.4387C13.0832 20.4387 12.6365 19.9143 13.2366 19.5174C13.2366 19.5174 13.6699 19.2425 14.7706 19.5656C14.7706 19.5656 15.1043 19.6932 15.0881 19.8208C15.0693 19.9568 14.8136 20.1014 14.4423 20.0929C14.0816 20.0816 13.8179 19.9001 13.869 19.9285C13.9175 19.9483 13.4815 19.7074 13.3469 19.8718C13.2124 20.022 13.2447 20.1156 13.3766 20.2091C13.7129 20.4104 15.0128 20.3395 15.4003 19.886C15.4003 19.886 15.5537 19.7017 15.3196 19.5514C15.0855 19.4097 14.4153 19.3247 14.1543 19.3105C13.904 19.2963 12.9729 19.3133 12.8383 19.0525C12.8383 19.0525 12.7038 18.8768 12.8518 18.3778C13.0079 17.8562 14.0924 17.655 14.5607 17.6096C14.5607 17.6096 15.8497 17.5614 16.0866 17.8392C16.0839 17.8392 16.1162 17.9044 16.0758 17.998ZM12.4158 21.0567C12.2597 21.1786 11.9287 21.1248 11.8345 20.9887C11.7403 20.8668 11.708 20.382 11.7269 19.6223C11.7457 18.8541 11.7618 17.9016 11.9179 17.7513C12.0848 17.5983 12.1871 17.7315 12.2516 17.8364C12.3216 17.9384 12.405 18.0518 12.4239 18.2928C12.44 18.5338 12.4938 19.7981 12.4938 19.7981C12.4938 19.7981 12.5638 20.9377 12.4158 21.0567ZM12.7522 16.9803C12.2974 17.139 11.9852 17.0852 11.7215 16.9661C11.6058 17.1787 11.5385 17.2439 11.4497 17.2581C11.3205 17.2723 11.2048 17.054 11.1832 16.9831C11.1617 16.9293 11.0998 16.8385 11.1752 16.6231C10.9168 16.3793 10.898 16.0505 10.941 15.8294C11.0056 15.5742 11.4416 14.6047 12.7683 14.4913C12.7683 14.4913 13.4169 14.4403 13.5273 14.806H13.5461C13.5461 14.806 14.1758 14.8088 14.1624 15.3985C14.1543 15.9909 13.4627 16.728 12.7522 16.9803ZM11.5143 15.6678C11.3797 15.8946 11.3743 16.0306 11.4362 16.1242C11.5896 15.8775 11.8695 15.4892 12.2812 15.1944C11.9637 15.2227 11.6973 15.3673 11.5143 15.6678ZM13.3469 15.2879C12.9298 15.3531 12.2839 15.9427 11.9771 16.4247C12.4481 16.5154 13.2797 16.4814 13.6484 15.6904C13.6457 15.6904 13.8233 15.2 13.3469 15.2879ZM24.6714 19.8548C24.4211 20.314 23.7188 21.2722 22.7822 21.0482C22.4727 21.8391 22.2144 22.6357 22.0664 23.832C22.0664 23.832 22.0341 24.0645 21.8511 23.9822C21.6708 23.9142 21.3694 23.5967 21.3101 23.1573C21.2456 22.579 21.4905 21.601 21.9883 20.4813C21.843 20.2318 21.7434 19.8746 21.8295 19.3672C21.8295 19.3672 21.956 18.426 22.8522 17.5756C22.8522 17.5756 22.9598 17.4764 23.0217 17.5076C23.0917 17.5387 23.0594 17.8449 23.0029 17.9923C22.9464 18.1397 22.5454 18.8711 22.5454 18.8711C22.5454 18.8711 22.2951 19.3644 22.3651 19.7527C22.836 18.9902 23.9071 17.4509 24.5719 17.9356C24.7952 18.1029 24.8975 18.4686 24.8975 18.8626C24.8948 19.2113 24.8168 19.5798 24.6714 19.8548ZM24.4777 18.6471C24.4777 18.6471 24.44 18.3438 24.1601 18.6783C23.9179 18.959 23.4819 19.4891 23.1294 20.2063C23.4981 20.1638 23.8533 19.9512 23.961 19.8434C24.1359 19.679 24.5422 19.2368 24.4777 18.6471ZM11.412 19.0327C11.3609 19.7187 11.1106 20.8725 9.33709 21.4423C8.16643 21.8136 7.06036 21.635 6.45753 21.4734C6.44408 21.7257 6.41717 21.8335 6.37949 21.876C6.32836 21.9298 5.94621 22.1623 5.7363 21.8335C5.64211 21.6775 5.59367 21.3941 5.56675 21.1418C4.2104 20.4841 3.58605 19.5373 3.56183 19.4948C3.53222 19.4636 3.22274 19.1234 3.53222 18.7067C3.82287 18.3296 4.77286 17.9526 5.62865 17.7995C5.65825 17.0285 5.74437 16.4473 5.84664 16.1809C5.97043 15.8719 6.12652 16.1497 6.26108 16.3595C6.37411 16.5154 6.44139 17.1872 6.44677 17.723C7.00653 17.6947 7.33755 17.7372 7.9619 17.8562C8.77464 18.0121 9.31826 18.4487 9.26981 18.9448C9.23483 19.4324 8.80962 19.6337 8.64815 19.6478C8.47861 19.662 8.21487 19.5344 8.21487 19.5344C8.03456 19.4437 8.20142 19.3644 8.4194 19.2651C8.65623 19.1432 8.6024 19.0185 8.6024 19.0185C8.51359 18.7464 7.45865 18.5564 6.40909 18.5564C6.40371 19.1659 6.43331 20.1779 6.44677 20.7676C7.18146 20.915 7.73046 20.8866 7.73046 20.8866C7.73046 20.8866 10.4109 20.8073 10.4916 19.0043C10.575 17.1986 7.81927 15.4665 5.78205 14.9165C3.74752 14.3553 2.59569 14.7465 2.49612 14.8003C2.38847 14.857 2.48805 14.874 2.48805 14.874C2.48805 14.874 2.59838 14.891 2.78946 14.9591C2.9913 15.0271 2.83521 15.1377 2.83521 15.1377C2.48805 15.2539 2.09783 15.1802 2.02247 15.0129C1.94712 14.8457 2.0736 14.6954 2.21893 14.48C2.36425 14.2532 2.52303 14.2617 2.52303 14.2617C5.03928 13.3432 8.10453 15.0044 8.10453 15.0044C10.976 16.5381 11.4658 18.3353 11.412 19.0327ZM3.81749 18.9391C3.53222 19.0865 3.72868 19.2991 3.72868 19.2991C4.26422 19.9058 4.92356 20.2857 5.55061 20.521C5.62327 19.4749 5.6125 19.1064 5.62058 18.5791C4.64099 18.65 4.07584 18.8144 3.81749 18.9391Z" fill="#01147C"/>
<path d="M29.9999 18.7236V19.0978C29.9999 19.18 29.938 19.2452 29.86 19.2452H28.1672C28.1672 19.3388 28.1699 19.421 28.1699 19.4975C28.1699 20.0503 28.1484 20.501 28.0973 21.0085C28.0892 21.085 28.03 21.1417 27.96 21.1417H27.594C27.5563 21.1417 27.5213 21.1247 27.4971 21.0964C27.4729 21.068 27.4594 21.0283 27.4648 20.9886C27.516 20.484 27.5402 20.039 27.5402 19.4975C27.5402 19.4181 27.5402 19.3359 27.5375 19.2452H25.8636C25.7855 19.2452 25.7236 19.18 25.7236 19.0978V18.7236C25.7236 18.6414 25.7855 18.5762 25.8636 18.5762H27.5133C27.4783 17.9667 27.4083 17.3799 27.2953 16.7846C27.2899 16.7478 27.298 16.7109 27.3195 16.6826C27.341 16.6542 27.3733 16.6372 27.4083 16.6372H27.8039C27.8658 16.6372 27.9169 16.6826 27.9304 16.7478C28.0407 17.3629 28.1107 17.9611 28.1457 18.5762H29.86C29.9353 18.5762 29.9999 18.6442 29.9999 18.7236Z" fill="#01147C"/>
<path d="M27.6962 15.756C26.8216 13.491 25.3441 11.5605 23.4226 10.1715C21.4554 8.75122 19.149 8 16.7539 8C12.7925 8 9.11632 10.0722 6.92301 13.5449C6.89879 13.5817 6.89341 13.6299 6.90687 13.6724C6.92032 13.7178 6.95262 13.749 6.99298 13.7632L7.29978 13.8737C7.31862 13.8794 7.33746 13.8822 7.3536 13.8822C7.41012 13.8822 7.46394 13.851 7.49623 13.8028C8.50274 12.2437 9.86447 10.9482 11.4361 10.0524C13.0589 9.12825 14.897 8.63783 16.7512 8.63783C18.9929 8.63783 21.154 9.33519 23.0055 10.6505C24.8113 11.9347 26.2134 13.7291 27.0611 15.8354C27.0853 15.8978 27.1445 15.9403 27.2091 15.9403H27.5751C27.6182 15.9403 27.6585 15.9176 27.6801 15.8808C27.707 15.8439 27.7124 15.7985 27.6962 15.756ZM7.3536 13.7858H7.35898C7.35898 13.7858 7.35629 13.7858 7.3536 13.7858ZM27.1338 15.8893C27.1418 15.8949 27.1499 15.9006 27.158 15.9034C27.1499 15.8978 27.1418 15.8949 27.1338 15.8893Z" fill="url(#paint0_radial_214_111)"/>
<defs>
<radialGradient id="paint0_radial_214_111" cx="0" cy="0" r="1" gradientUnits="userSpaceOnUse" gradientTransform="translate(27.3524 15.926) scale(20.4563 21.548)">
<stop offset="0.007" stop-color="#021192"/>
<stop offset="0.03" stop-color="#021096"/>
<stop offset="0.057" stop-color="#010CB4"/>
<stop offset="0.084" stop-color="#0008CE"/>
<stop offset="0.111" stop-color="#0006D7"/>
<stop offset="0.138" stop-color="#0004E1"/>
<stop offset="0.165" stop-color="#0001FA"/>
<stop offset="0.191" stop-color="#0000FE"/>
<stop offset="0.216" stop-color="#0F1EFF"/>
<stop offset="1" stop-color="#00FFFF" stop-opacity="0"/>
</radialGradient>
</defs>
</svg>
