<svg width="32" height="32" viewBox="0 0 32 32" fill="none" xmlns="http://www.w3.org/2000/svg">
<path d="M16.336 11.2261H14.3357V15.1697H17.4828V16.8209H14.3357V20.7643H16.434C16.9732 20.7643 20.8603 20.8252 20.8542 16.1762C20.8482 11.5272 17.0842 11.2261 16.336 11.2261Z" fill="#C2A633"/>
<path d="M16 2C8.26794 2 2 8.26794 2 16C2 23.7321 8.26794 30 16 30C23.7321 30 30 23.7321 30 16C30 8.26794 23.7321 2 16 2ZM16.5501 23.5614H11.48V16.821H9.69272V15.1698H11.4798V8.42894H15.8313C16.8607 8.42894 23.6791 8.21516 23.6791 16.1217C23.6791 24.1589 16.5502 23.5614 16.5502 23.5614H16.5501Z" fill="#C2A633"/>
</svg>
