<svg width="32" height="32" viewBox="0 0 32 32" fill="none" xmlns="http://www.w3.org/2000/svg">
<path d="M19.5918 15.8727C19.5918 13.2 16.8141 8.58636 10.5564 8.58636C4.29874 8.58636 2 13.8045 2 16.0318C2 8.07727 8.48118 2 16.1756 2C23.87 2 30 7.75909 30 13.6136C30 18.8318 26.073 20.6455 22.8803 20.6455C20.7731 20.6455 18.3786 19.9455 18.3786 18.8318C18.3786 17.9727 19.5918 17.9727 19.5918 15.8727Z" fill="url(#paint0_linear_214_1365)"/>
<path d="M10.5564 8.58643C16.8141 8.58643 19.5918 13.2001 19.5918 15.8728C19.5918 15.8936 19.5917 15.9141 19.5914 15.9345C19.5599 14.1546 18.3581 12.4682 15.984 12.4682C12.9829 12.4682 8.92817 16.541 9.47092 21.6001C9.90538 25.6497 13.3341 31.0819 20.7731 29.1728C20.7731 29.1728 19.3683 30.0001 15.4413 30.0001C8.48119 30.0001 2 23.6364 2 16.3501C2 16.157 2.00294 15.9677 2.00888 15.782C2.16935 13.4383 4.52236 8.58643 10.5564 8.58643Z" fill="url(#paint1_linear_214_1365)"/>
<path d="M10.5564 8.58643C16.8141 8.58643 19.5918 13.2001 19.5918 15.8728C19.5918 15.8936 19.5917 15.9141 19.5914 15.9345C19.5599 14.1546 18.3581 12.4682 15.984 12.4682C12.9829 12.4682 8.92817 16.541 9.47092 21.6001C9.90538 25.6497 13.3341 31.0819 20.7731 29.1728C20.7731 29.1728 19.3683 30.0001 15.4413 30.0001C8.48119 30.0001 2 23.6364 2 16.3501C2 16.157 2.00294 15.9677 2.00888 15.782C2.16935 13.4383 4.52236 8.58643 10.5564 8.58643Z" fill="url(#paint2_radial_214_1365)"/>
<path d="M19.9065 29.4997C23.892 28.4125 26.7394 25.0207 27.2543 24.3364C27.829 23.5728 27.9886 23.0955 27.829 22.9364C27.6693 22.7774 27.4458 22.8092 26.8711 23.0955C26.2965 23.3819 22.9122 24.7819 19.049 23.6046C15.1859 22.4274 12.5359 19.3728 12.5359 16.0001C12.5359 13.391 14.7708 12.4683 15.984 12.4683C12.9829 12.4683 8.92816 16.541 9.47092 21.6001C9.90538 25.6497 13.3341 31.0819 20.7731 29.1728C20.7731 29.1728 20.5138 29.3255 19.9065 29.4997Z" fill="#0E458A"/>
<path d="M19.9065 29.4997C23.892 28.4125 26.7394 25.0207 27.2543 24.3364C27.829 23.5728 27.9886 23.0955 27.829 22.9364C27.6693 22.7774 27.4458 22.8092 26.8711 23.0955C26.2965 23.3819 22.9122 24.7819 19.049 23.6046C15.1859 22.4274 12.5359 19.3728 12.5359 16.0001C12.5359 13.391 14.7708 12.4683 15.984 12.4683C12.9829 12.4683 8.92816 16.541 9.47092 21.6001C9.90538 25.6497 13.3341 31.0819 20.7731 29.1728C20.7731 29.1728 20.5138 29.3255 19.9065 29.4997Z" fill="url(#paint3_radial_214_1365)"/>
<defs>
<linearGradient id="paint0_linear_214_1365" x1="28.3717" y1="18.5455" x2="0.988192" y2="12.0765" gradientUnits="userSpaceOnUse">
<stop stop-color="#3BCC50"/>
<stop offset="0.489583" stop-color="#2ABAD6"/>
<stop offset="1" stop-color="#7DCFE7"/>
</linearGradient>
<linearGradient id="paint1_linear_214_1365" x1="11.3865" y1="8.58643" x2="11.3865" y2="30.0001" gradientUnits="userSpaceOnUse">
<stop stop-color="#035989"/>
<stop offset="0.265625" stop-color="#1175B6"/>
<stop offset="1" stop-color="#0470CF"/>
</linearGradient>
<radialGradient id="paint2_radial_214_1365" cx="0" cy="0" r="1" gradientTransform="matrix(4.85291 8.14545 -8.17332 4.83636 10.9396 18.991)" gradientUnits="userSpaceOnUse">
<stop stop-color="#1284D8"/>
<stop offset="0.813899" stop-color="#1170B2" stop-opacity="0.767762"/>
<stop offset="1" stop-color="#0E649B" stop-opacity="0.65"/>
</radialGradient>
<radialGradient id="paint3_radial_214_1365" cx="0" cy="0" r="1" gradientTransform="matrix(1.59635 7.50909 -8.10945 1.71225 18.6659 21.6001)" gradientUnits="userSpaceOnUse">
<stop stop-color="#104890"/>
<stop offset="0.69943" stop-color="#12529E" stop-opacity="0.70624"/>
<stop offset="1" stop-color="#0E4584" stop-opacity="0.58"/>
</radialGradient>
</defs>
</svg>
