<svg width="32" height="32" viewBox="0 0 32 32" fill="none" xmlns="http://www.w3.org/2000/svg">
<path d="M16 2C8.27812 2 2 8.27812 2 16C2 23.7219 8.27812 30 16 30C23.7219 30 30 23.7219 30 16C30 8.27812 23.7219 2 16 2Z" fill="#81B441"/>
<path d="M21.0378 7.96777C14.2501 8.41681 12.2005 14.7494 12.027 17.9892C12.027 18.5223 10.3153 17.4433 11.3334 12.7918C11.4207 12.3931 11.3334 11.9168 11.3334 11.9168C7.79855 15.0261 8.10253 20.9047 12.448 23.2947C15.8166 25.1474 20.1957 23.9684 22.1326 20.5156C24.4064 16.5576 22.3853 8.7257 21.0378 7.96777Z" fill="white"/>
</svg>
