<svg width="32" height="32" viewBox="0 0 32 32" fill="none" xmlns="http://www.w3.org/2000/svg">
<path d="M7.5 17.2486C10.4953 18.8662 13.6209 20.5594 16.0349 21.8696L24.5 17.2486C21.4349 21.879 18.8811 25.7338 16.0349 30C13.1837 25.7432 10.0349 21.0461 7.5 17.2486ZM7.82557 15.9714L16.0442 11.5118L24.1558 15.9388L16.0488 20.4033L7.82557 15.9714ZM16.0349 10.0831L7.5 14.652L15.9977 2L24.5 14.6803L16.0349 10.0831Z" fill="#3AB83A"/>
<path d="M16.0348 21.8696L24.4999 17.2486C21.4348 21.879 16.0348 30 16.0348 30V21.8696ZM16.0441 11.5118L24.1557 15.9388L16.0487 20.4033L16.0441 11.5118ZM16.0348 10.0834L15.9976 2L24.4999 14.6803L16.0348 10.0834Z" fill="#0B8311"/>
<path d="M7.82568 15.9715L16.0447 16.6573L24.1564 15.9431L16.0489 20.408L7.82568 15.9715Z" fill="#0B8311"/>
<path d="M16.0439 16.6573L24.1556 15.9431L16.0486 20.408L16.0439 16.6573Z" fill="#146714"/>
</svg>
