<svg width="32" height="32" viewBox="0 0 32 32" fill="none" xmlns="http://www.w3.org/2000/svg">
<path fill-rule="evenodd" clip-rule="evenodd" d="M29.2219 2.97998L26.5975 6.37893L29.2219 2.97998Z" fill="#8AB000"/>
<path d="M29.2219 2.97998L26.5975 6.37893" stroke="#769616" stroke-width="1.60462" stroke-linecap="round"/>
<path fill-rule="evenodd" clip-rule="evenodd" d="M29.2083 2.20519C29.488 2.21199 29.6782 2.32137 29.8135 2.48205C28.5618 3.97079 28.3512 4.20749 26.6425 6.32658C26.0126 7.14233 25.3568 6.72088 25.9867 5.90575L28.6112 2.5068C28.6813 2.41444 28.7715 2.33924 28.875 2.28689C28.9784 2.23454 29.0924 2.207 29.2083 2.20519Z" fill="white" fill-opacity="0.298039"/>
<path fill-rule="evenodd" clip-rule="evenodd" d="M29.8188 2.48877C29.9295 2.62396 29.9911 2.79273 29.9936 2.9675C29.996 3.14227 29.9392 3.31272 29.8324 3.45099L27.2079 6.84993C26.578 7.66506 26.4977 6.47108 26.4977 6.47108C26.4977 6.47108 28.8042 3.68335 29.8188 2.48877Z" fill="#263238" fill-opacity="0.2"/>
<path fill-rule="evenodd" clip-rule="evenodd" d="M29.377 2.3501C29.6475 2.3501 29.9698 2.43786 29.8858 2.84388C29.8222 3.15349 27.0082 6.59754 27.0082 6.59754C26.3783 7.41329 25.4681 7.01594 26.098 6.20081L28.7125 2.81853C28.8731 2.63931 29.088 2.35875 29.377 2.3501Z" fill="#8AB000"/>
<path fill-rule="evenodd" clip-rule="evenodd" d="M2.77832 2.97998L5.40279 6.37893L2.77832 2.97998Z" fill="#8AB000"/>
<path d="M2.77832 2.97998L5.40279 6.37893" stroke="#769616" stroke-width="1.60462" stroke-linecap="round"/>
<path fill-rule="evenodd" clip-rule="evenodd" d="M2.79218 2.20519C2.51245 2.21199 2.32225 2.32137 2.18701 2.48205C3.43873 3.97079 3.6493 4.20749 5.35799 6.32658C5.98786 7.14233 6.64367 6.72088 6.0138 5.90575L3.38933 2.5068C3.31917 2.41444 3.22896 2.33924 3.12552 2.28689C3.02207 2.23454 2.90809 2.207 2.79218 2.20519Z" fill="white" fill-opacity="0.298039"/>
<path fill-rule="evenodd" clip-rule="evenodd" d="M2.18146 2.48877C2.07076 2.62396 2.00914 2.79273 2.00667 2.9675C2.0042 3.14227 2.06103 3.31272 2.16788 3.45099L4.79235 6.84993C5.42222 7.66506 5.5025 6.47108 5.5025 6.47108C5.5025 6.47108 3.19605 3.68335 2.18146 2.48877Z" fill="#263238" fill-opacity="0.2"/>
<path fill-rule="evenodd" clip-rule="evenodd" d="M2.62349 2.3501C2.35301 2.3501 2.03067 2.43786 2.11465 2.84388C2.17825 3.15349 4.9923 6.59754 4.9923 6.59754C5.62217 7.41329 6.5324 7.01594 5.90253 6.20081L3.28794 2.81853C3.12738 2.63931 2.91249 2.35875 2.62349 2.3501Z" fill="#8AB000"/>
<path d="M25.8804 5.14014H6.11966C5.09651 5.14014 4.26709 5.97019 4.26709 6.99411V11.2706C4.26709 12.2946 5.09651 13.1246 6.11966 13.1246H25.8804C26.9035 13.1246 27.7329 12.2946 27.7329 11.2706V6.99411C27.7329 5.97019 26.9035 5.14014 25.8804 5.14014Z" fill="#AEEA00"/>
<path d="M25.8804 6.9458H6.11966C5.09651 6.9458 4.26709 7.77585 4.26709 8.79977V11.2717C4.26709 12.2957 5.09651 13.1257 6.11966 13.1257H25.8804C26.9035 13.1257 27.7329 12.2957 27.7329 11.2717V8.79977C27.7329 7.77585 26.9035 6.9458 25.8804 6.9458Z" fill="#263238" fill-opacity="0.2"/>
<path d="M25.8804 5.14209H6.11966C5.09651 5.14209 4.26709 5.97214 4.26709 6.99606V9.46803C4.26709 10.4919 5.09651 11.322 6.11966 11.322H25.8804C26.9035 11.322 27.7329 10.4919 27.7329 9.46803V6.99606C27.7329 5.97214 26.9035 5.14209 25.8804 5.14209Z" fill="white" fill-opacity="0.298039"/>
<path d="M25.8804 5.84521H6.11966C5.09651 5.84521 4.26709 6.52475 4.26709 7.363V10.9035C4.26709 11.7417 5.09651 12.4212 6.11966 12.4212H25.8804C26.9035 12.4212 27.7329 11.7417 27.7329 10.9035V7.363C27.7329 6.52475 26.9035 5.84521 25.8804 5.84521Z" fill="#AEEA00"/>
<path d="M25.8804 13.8296H6.11966C5.09651 13.8296 4.26709 14.6596 4.26709 15.6836V27.9446C4.26709 28.9685 5.09651 29.7985 6.11966 29.7985H25.8804C26.9035 29.7985 27.7329 28.9685 27.7329 27.9446V15.6836C27.7329 14.6596 26.9035 13.8296 25.8804 13.8296Z" fill="#1976D2"/>
<path d="M25.8804 21.7642H6.11966C5.09651 21.7642 4.26709 22.5942 4.26709 23.6181V27.9441C4.26709 28.968 5.09651 29.798 6.11966 29.798H25.8804C26.9035 29.798 27.7329 28.968 27.7329 27.9441V23.6181C27.7329 22.5942 26.9035 21.7642 25.8804 21.7642Z" fill="#263238" fill-opacity="0.2"/>
<path d="M25.8804 13.7798H6.11966C5.09651 13.7798 4.26709 14.6098 4.26709 15.6338V19.9597C4.26709 20.9836 5.09651 21.8137 6.11966 21.8137H25.8804C26.9035 21.8137 27.7329 20.9836 27.7329 19.9597V15.6338C27.7329 14.6098 26.9035 13.7798 25.8804 13.7798Z" fill="white" fill-opacity="0.2"/>
<path d="M25.8804 14.5347H6.11966C5.09651 14.5347 4.26709 15.2867 4.26709 16.2144V27.4149C4.26709 28.3425 5.09651 29.0946 6.11966 29.0946H25.8804C26.9035 29.0946 27.7329 28.3425 27.7329 27.4149V16.2144C27.7329 15.2867 26.9035 14.5347 25.8804 14.5347Z" fill="#1976D2"/>
<path d="M15.9999 17.9653C14.2215 17.9653 12.7147 19.192 12.2744 20.839H14.2585C14.4312 20.5288 14.6839 20.2706 14.9901 20.0913C15.2964 19.9119 15.6451 19.818 15.9999 19.8193C16.264 19.8175 16.5258 19.8682 16.7701 19.9685C17.0144 20.0688 17.2364 20.2167 17.4231 20.4035C17.6098 20.5904 17.7576 20.8125 17.8578 21.057C17.958 21.3015 18.0087 21.5635 18.0069 21.8278C18.0087 22.092 17.958 22.354 17.8578 22.5985C17.7576 22.843 17.6098 23.0651 17.4231 23.252C17.2364 23.4389 17.0144 23.5867 16.7701 23.687C16.5258 23.7873 16.264 23.8381 15.9999 23.8362C15.6208 23.8382 15.249 23.7316 14.9284 23.529C14.6078 23.3265 14.3518 23.0364 14.1906 22.693H12.2429C12.6394 24.4023 14.177 25.6902 15.9999 25.6902C18.1205 25.6902 19.8594 23.95 19.8594 21.8278C19.8594 19.7056 18.1205 17.9653 15.9999 17.9653Z" fill="#0D47A1"/>
<path d="M15.9999 27.7309C19.2569 27.7309 21.8972 25.0885 21.8972 21.8291C21.8972 18.5696 19.2569 15.9272 15.9999 15.9272C12.7429 15.9272 10.1025 18.5696 10.1025 21.8291C10.1025 25.0885 12.7429 27.7309 15.9999 27.7309Z" stroke="#0D47A1" stroke-width="1.21951" stroke-linecap="round"/>
<path d="M10.0563 11.6307C11.2073 11.6307 12.1404 10.5586 12.1404 9.23602C12.1404 7.91346 11.2073 6.84131 10.0563 6.84131C8.90527 6.84131 7.97217 7.91346 7.97217 9.23602C7.97217 10.5586 8.90527 11.6307 10.0563 11.6307Z" fill="#263238" fill-opacity="0.2"/>
<path d="M10.0563 11.6299C11.2073 11.6299 12.1404 10.6961 12.1404 9.54422C12.1404 8.3923 11.2073 7.4585 10.0563 7.4585C8.90527 7.4585 7.97217 8.3923 7.97217 9.54422C7.97217 10.6961 8.90527 11.6299 10.0563 11.6299Z" fill="white"/>
<path d="M22.0985 11.6307C23.2496 11.6307 24.1827 10.5586 24.1827 9.23602C24.1827 7.91346 23.2496 6.84131 22.0985 6.84131C20.9475 6.84131 20.0144 7.91346 20.0144 9.23602C20.0144 10.5586 20.9475 11.6307 22.0985 11.6307Z" fill="#263238" fill-opacity="0.2"/>
<path d="M22.0985 11.6299C23.2496 11.6299 24.1827 10.6961 24.1827 9.54422C24.1827 8.3923 23.2496 7.4585 22.0985 7.4585C20.9475 7.4585 20.0144 8.3923 20.0144 9.54422C20.0144 10.6961 20.9475 11.6299 22.0985 11.6299Z" fill="white"/>
<path fill-rule="evenodd" clip-rule="evenodd" d="M2.79231 2.20046C2.64542 2.1966 2.50048 2.23477 2.37452 2.31048C2.24855 2.3862 2.14679 2.49632 2.0812 2.62791C2.0156 2.7595 1.98889 2.90709 2.00421 3.05335C2.01952 3.1996 2.07623 3.33843 2.16766 3.45355L4.3908 6.3329C4.30937 6.5446 4.26745 6.76946 4.26714 6.99631V11.2727C4.26658 11.5163 4.31412 11.7577 4.40702 11.9829C4.49993 12.2081 4.63637 12.4127 4.80851 12.5849C4.98066 12.7572 5.18511 12.8938 5.41013 12.9867C5.63515 13.0797 5.87631 13.1273 6.11975 13.1267H25.8803C26.1237 13.1273 26.3648 13.0797 26.5898 12.9868C26.8148 12.8938 27.0193 12.7573 27.1914 12.585C27.3635 12.4128 27.5 12.2082 27.5929 11.983C27.6858 11.7579 27.7334 11.5165 27.7329 11.2729V6.99631C27.7329 6.76171 27.6883 6.53861 27.6097 6.33266L29.8323 3.45355C29.9209 3.34201 29.977 3.20813 29.9943 3.0667C30.0116 2.92528 29.9895 2.78182 29.9304 2.65219C29.8713 2.52256 29.7775 2.4118 29.6595 2.33216C29.5414 2.25253 29.4037 2.20711 29.2614 2.20094C29.1362 2.19551 29.0115 2.22069 28.8982 2.27429C28.7849 2.32789 28.6863 2.4083 28.611 2.50857L26.496 5.24818C26.2982 5.17839 26.09 5.14267 25.8803 5.14251H6.11975C5.9034 5.14251 5.69738 5.18078 5.50449 5.24818L3.38905 2.50857C3.31919 2.41556 3.22923 2.33954 3.1259 2.28619C3.02258 2.23284 2.90854 2.20353 2.79231 2.20046ZM6.11975 13.8313C5.87631 13.8307 5.63515 13.8783 5.41013 13.9712C5.18511 14.0642 4.98066 14.2008 4.80851 14.373C4.63637 14.5453 4.49993 14.7499 4.40702 14.9751C4.31412 15.2003 4.26658 15.4417 4.26714 15.6853V27.9462C4.26658 28.1898 4.31412 28.4311 4.40702 28.6563C4.49993 28.8815 4.63637 29.0861 4.80851 29.2584C4.98066 29.4307 5.18511 29.5672 5.41013 29.6602C5.63515 29.7532 5.87631 29.8007 6.11975 29.8002H25.8803C26.1237 29.8007 26.3648 29.7532 26.5898 29.6602C26.8148 29.5673 27.0193 29.4307 27.1914 29.2585C27.3635 29.0862 27.5 28.8817 27.5929 28.6565C27.6858 28.4313 27.7334 28.19 27.7329 27.9464V15.6853C27.7334 15.4417 27.6859 15.2003 27.593 14.9751C27.5001 14.7499 27.3636 14.5453 27.1915 14.373C27.0194 14.2008 26.8149 14.0642 26.5899 13.9712C26.3649 13.8783 26.1237 13.8307 25.8803 13.8313H6.11975Z" fill="url(#paint0_radial_214_172)"/>
<defs>
<radialGradient id="paint0_radial_214_172" cx="0" cy="0" r="1" gradientUnits="userSpaceOnUse" gradientTransform="translate(2.15545 2.32414) rotate(90) scale(27.476 27.6896)">
<stop stop-color="white" stop-opacity="0.0980392"/>
<stop offset="1" stop-color="white" stop-opacity="0"/>
</radialGradient>
</defs>
</svg>
