<svg width="32" height="32" viewBox="0 0 32 32" fill="none" xmlns="http://www.w3.org/2000/svg">
<path fill-rule="evenodd" clip-rule="evenodd" d="M2 15.9301C2 23.7001 8.3 30.0001 16 30.0001C23.7 30.0001 29.93 23.7701 30 16.1401C30 8.30009 23.77 2.07009 16.07 2.00009C8.3 1.93009 2.07 8.23009 2 15.9301ZM16.9098 16.5601L17.3298 14.3201L21.0398 14.8801L21.3198 13.8301L17.4698 13.2701C17.699 12.5497 17.8976 11.8294 18.0942 11.1162C18.3179 10.3047 18.539 9.50247 18.7998 8.72008C19.0098 8.23008 19.3598 7.74008 19.7098 7.39008C20.1998 6.90008 20.8298 6.97008 21.2498 7.53008C21.3548 7.63508 21.4423 7.74008 21.5298 7.84508C21.6173 7.95008 21.7048 8.05508 21.8098 8.16008C22.0898 8.44008 22.4398 8.51008 22.7198 8.30008C22.9298 8.09008 22.9298 7.74008 22.9298 7.46008C22.9298 7.32008 22.7898 7.18008 22.7198 7.11008C22.2998 6.62008 21.6698 6.41008 21.0398 6.41008C19.5698 6.34008 18.5898 7.04008 17.7498 8.16008C16.9098 9.28008 16.5598 10.5401 16.2098 11.8001C16.1282 12.004 16.0704 12.2079 16.0087 12.4256C15.9645 12.5816 15.9182 12.7448 15.8598 12.9201L11.7298 12.3601L11.5898 13.4801L15.5798 14.1101L15.0898 16.2801L11.2398 15.7201L11.0998 16.7701L14.8098 17.3301V17.6101C14.5184 19.0088 14.1785 20.359 13.8304 21.7414C13.7604 22.0194 13.6901 22.2988 13.6198 22.5801C13.4098 23.3501 13.0598 24.1201 12.4298 24.6801C11.8698 25.1001 11.3098 25.0301 10.8898 24.4701C10.7498 24.1901 10.5398 23.9101 10.3298 23.7001C10.1198 23.6301 9.76978 23.5601 9.62979 23.6301C9.41979 23.7701 9.27979 24.1201 9.27979 24.4001C9.27979 24.6101 9.48979 24.8901 9.69979 25.0301C10.3298 25.5201 11.1698 25.5901 11.9398 25.4501C13.2698 25.2401 14.2498 24.4001 14.8098 23.2101C15.2298 22.3001 15.5798 21.3201 15.9298 20.3401C16.1427 19.829 16.2779 19.2662 16.4142 18.6987C16.502 18.3335 16.5901 17.9664 16.6998 17.6101L20.6198 18.1701L20.8998 17.1201L16.9098 16.5601Z" fill="#0090FF"/>
</svg>
