<svg width="32" height="32" viewBox="0 0 32 32" fill="none" xmlns="http://www.w3.org/2000/svg">
<path d="M28.5213 11.4019C27.934 9.98299 26.7427 8.45092 25.8098 7.96662C26.4751 9.26017 26.9368 10.6494 27.1786 12.0848L27.1811 12.1076C25.6529 8.28354 23.0625 6.73922 20.9457 3.38093C20.8386 3.21109 20.7316 3.0409 20.6273 2.86126C20.5676 2.75865 20.5199 2.66621 20.4784 2.58111C20.3906 2.41041 20.3229 2.23002 20.2768 2.04358C20.2769 2.03497 20.2738 2.02665 20.2681 2.02019C20.2625 2.01373 20.2546 2.00959 20.2461 2.00856C20.2378 2.00626 20.229 2.00626 20.2207 2.00856C20.2189 2.00856 20.2161 2.01171 20.214 2.01241C20.2119 2.01311 20.2074 2.01626 20.2043 2.01766L20.2095 2.00856C16.8146 4.00462 15.662 7.69908 15.5574 9.54806C14.2011 9.64143 12.9044 10.1431 11.8364 10.9877C11.725 10.8929 11.6086 10.8043 11.4876 10.7222C11.1797 9.63978 11.1666 8.4942 11.4496 7.40492C10.2028 8.01137 9.095 8.87112 8.19625 9.92976H8.18997C7.65431 9.24795 7.69198 6.99975 7.72267 6.53016C7.5642 6.59411 7.41293 6.67475 7.2714 6.77073C6.79853 7.10962 6.35646 7.48989 5.95039 7.90709C5.48765 8.37819 5.06502 8.88739 4.68692 9.42934V9.43144V9.42899C3.81806 10.6657 3.20172 12.063 2.8735 13.5402L2.85536 13.6298C2.8299 13.7492 2.73819 14.3474 2.72249 14.4773C2.72249 14.4874 2.7204 14.4969 2.71935 14.507C2.60105 15.1245 2.52773 15.7499 2.5 16.3781V16.4481C2.50597 19.8444 3.77972 23.115 6.06978 25.6144C8.35985 28.1137 11.4998 29.6602 14.8699 29.9484C18.2399 30.2366 21.5951 29.2457 24.2731 27.1713C26.9511 25.0968 28.7573 22.0896 29.3352 18.7432C29.3579 18.5681 29.3764 18.3948 29.3966 18.218C29.675 15.9074 29.3736 13.5636 28.5199 11.3998L28.5213 11.4019ZM12.9432 22.0266C13.0064 22.057 13.0656 22.09 13.1305 22.119L13.1399 22.125C13.0744 22.0935 13.0088 22.0607 12.9432 22.0266ZM27.1814 12.1114V12.0985L27.1839 12.1128L27.1814 12.1114Z" fill="url(#paint0_linear_214_1373)"/>
<path d="M28.5212 11.4016C27.9339 9.98268 26.7426 8.45062 25.8097 7.96631C26.475 9.25986 26.9367 10.649 27.1785 12.0845V12.0974L27.181 12.1118C28.2229 15.1056 28.0722 18.3879 26.7604 21.2727C25.2113 24.6103 21.4631 28.0313 15.5939 27.8632C9.25386 27.6828 3.66711 22.9571 2.62439 16.7693C2.43433 15.7933 2.62439 15.2985 2.71995 14.5053C2.58961 15.1214 2.51687 15.7484 2.50269 16.3781V16.4482C2.50866 19.8444 3.7824 23.1151 6.07247 25.6144C8.36254 28.1138 11.5025 29.6602 14.8725 29.9484C18.2426 30.2366 21.5978 29.2457 24.2758 27.1713C26.9538 25.0969 28.76 22.0896 29.3379 18.7433C29.3606 18.5682 29.3791 18.3948 29.3993 18.218C29.6777 15.9074 29.3763 13.5636 28.5226 11.3999L28.5212 11.4016Z" fill="url(#paint1_radial_214_1373)"/>
<path d="M28.5212 11.4016C27.9339 9.98268 26.7426 8.45062 25.8097 7.96631C26.475 9.25986 26.9367 10.649 27.1785 12.0845V12.0974L27.181 12.1118C28.2229 15.1056 28.0722 18.3879 26.7604 21.2727C25.2113 24.6103 21.4631 28.0313 15.5939 27.8632C9.25386 27.6828 3.66711 22.9571 2.62439 16.7693C2.43433 15.7933 2.62439 15.2985 2.71995 14.5053C2.58961 15.1214 2.51687 15.7484 2.50269 16.3781V16.4482C2.50866 19.8444 3.7824 23.1151 6.07247 25.6144C8.36254 28.1138 11.5025 29.6602 14.8725 29.9484C18.2426 30.2366 21.5978 29.2457 24.2758 27.1713C26.9538 25.0969 28.76 22.0896 29.3379 18.7433C29.3606 18.5682 29.3791 18.3948 29.3993 18.218C29.6777 15.9074 29.3763 13.5636 28.5226 11.3999L28.5212 11.4016Z" fill="url(#paint2_radial_214_1373)"/>
<path d="M21.951 12.9952C21.9802 13.0158 22.0074 13.0365 22.035 13.0572C21.6955 12.4526 21.2729 11.8992 20.7796 11.413C16.5773 7.1933 19.6786 2.26619 20.2013 2.01405L20.2066 2.00635C16.8116 4.00241 15.6591 7.69687 15.5544 9.54585C15.7121 9.53499 15.8683 9.52168 16.0294 9.52168C17.2339 9.52402 18.4163 9.84658 19.4564 10.4566C20.4965 11.0665 21.3572 11.9422 21.951 12.9945V12.9952Z" fill="url(#paint3_radial_214_1373)"/>
<path d="M16.0366 13.8391C16.0143 14.1767 14.8265 15.3411 14.4112 15.3411C10.5681 15.3411 9.94385 17.6758 9.94385 17.6758C10.114 19.6417 11.4783 21.2617 13.1275 22.1161C13.2028 22.1553 13.2792 22.1907 13.3555 22.2254C13.4878 22.2842 13.6201 22.3386 13.7524 22.3886C14.3184 22.5897 14.9112 22.7045 15.5111 22.7293C22.2486 23.0466 23.5529 14.64 18.6912 12.1992C19.838 12.0494 20.9994 12.3325 21.9501 12.9938C21.3563 11.9415 20.4956 11.0658 19.4555 10.4559C18.4155 9.84589 17.2331 9.52334 16.0286 9.521C15.8682 9.521 15.7112 9.5343 15.5536 9.54516C14.1974 9.63853 12.9006 10.1402 11.8326 10.9848C12.0387 11.1599 12.2713 11.3938 12.7613 11.8788C13.6785 12.7861 16.0307 13.726 16.0359 13.8363L16.0366 13.8391Z" fill="url(#paint4_radial_214_1373)"/>
<path d="M16.0366 13.8391C16.0143 14.1767 14.8265 15.3411 14.4112 15.3411C10.5681 15.3411 9.94385 17.6758 9.94385 17.6758C10.114 19.6417 11.4783 21.2617 13.1275 22.1161C13.2028 22.1553 13.2792 22.1907 13.3555 22.2254C13.4878 22.2842 13.6201 22.3386 13.7524 22.3886C14.3184 22.5897 14.9112 22.7045 15.5111 22.7293C22.2486 23.0466 23.5529 14.64 18.6912 12.1992C19.838 12.0494 20.9994 12.3325 21.9501 12.9938C21.3563 11.9415 20.4956 11.0658 19.4555 10.4559C18.4155 9.84589 17.2331 9.52334 16.0286 9.521C15.8682 9.521 15.7112 9.5343 15.5536 9.54516C14.1974 9.63853 12.9006 10.1402 11.8326 10.9848C12.0387 11.1599 12.2713 11.3938 12.7613 11.8788C13.6785 12.7861 16.0307 13.726 16.0359 13.8363L16.0366 13.8391Z" fill="url(#paint5_radial_214_1373)"/>
<path d="M11.2031 10.5366C11.3126 10.6067 11.4029 10.6676 11.482 10.7226C11.1741 9.64013 11.161 8.49455 11.444 7.40527C10.1973 8.01172 9.08943 8.87148 8.19067 9.93011C8.25658 9.92836 10.2172 9.89299 11.2031 10.5366Z" fill="url(#paint6_radial_214_1373)"/>
<path d="M2.62221 16.77C3.66528 22.9578 9.25168 27.6853 15.5917 27.8639C21.4609 28.0306 25.2098 24.6093 26.7582 21.2734C28.0701 18.3886 28.2207 15.1063 27.1788 12.1126V12.0996C27.1788 12.0895 27.1767 12.0835 27.1788 12.0867L27.1812 12.1094C27.6607 15.253 26.0684 18.2972 23.5788 20.3598L23.5711 20.3773C18.7202 24.3449 14.0785 22.7705 13.1404 22.1282C13.0749 22.0967 13.0093 22.0639 12.9437 22.0298C10.1158 20.6725 8.94723 18.0867 9.19832 15.8666C8.52704 15.8765 7.86729 15.6908 7.29901 15.3318C6.73074 14.9729 6.27832 14.4561 5.99658 13.8442C6.73896 13.3876 7.58544 13.1294 8.45535 13.0943C9.32525 13.0593 10.1896 13.2485 10.9661 13.6439C12.5665 14.3734 14.3876 14.4453 16.0402 13.8442C16.0349 13.7339 13.6827 12.7937 12.7655 11.8867C12.2756 11.4017 12.043 11.1681 11.8369 10.9927C11.7255 10.8979 11.6091 10.8093 11.4881 10.7272C11.4079 10.6723 11.3176 10.6127 11.2091 10.5413C10.2233 9.89764 8.26266 9.93301 8.1978 9.93476H8.19152C7.65586 9.25295 7.69352 7.00476 7.72421 6.53516C7.56575 6.59911 7.41448 6.67975 7.27295 6.77573C6.80007 7.11462 6.35801 7.49489 5.95194 7.91209C5.48754 8.38187 5.06315 8.8899 4.68324 9.43084C3.81437 10.6676 3.19804 12.0645 2.86981 13.5417C2.86319 13.5693 2.38298 15.6775 2.61977 16.7707L2.62221 16.77Z" fill="url(#paint7_radial_214_1373)"/>
<path d="M20.7793 11.4123C21.2728 11.8989 21.6954 12.453 22.0348 13.0581C22.1091 13.1145 22.1785 13.1705 22.2374 13.2248C25.3017 16.0613 23.6962 20.071 23.5765 20.3546C26.0658 18.2952 27.6568 15.2489 27.179 12.1042C25.6501 8.2767 23.0569 6.73238 20.9436 3.3741C20.8365 3.20426 20.7295 3.03407 20.6252 2.85442C20.5656 2.75182 20.5178 2.65937 20.4763 2.57427C20.3885 2.40358 20.3209 2.22318 20.2747 2.03674C20.2748 2.02814 20.2717 2.01981 20.266 2.01335C20.2604 2.00689 20.2525 2.00275 20.244 2.00172C20.2357 1.99943 20.2269 1.99943 20.2186 2.00172C20.2168 2.00172 20.214 2.00487 20.2119 2.00557C20.2098 2.00627 20.2053 2.00943 20.2022 2.01083C19.6794 2.25981 16.5788 7.19007 20.7811 11.4063L20.7793 11.4123Z" fill="url(#paint8_radial_214_1373)"/>
<path d="M22.237 13.226C22.1781 13.1717 22.1087 13.1157 22.0344 13.0593C22.0068 13.0386 21.9796 13.018 21.9504 12.9973C20.9996 12.3361 19.8382 12.0529 18.6914 12.2028C23.5528 14.6435 22.2485 23.048 15.5113 22.7328C14.9114 22.7081 14.3186 22.5932 13.7526 22.3921C13.6203 22.3424 13.488 22.288 13.3558 22.2289C13.2794 22.1939 13.203 22.1589 13.1277 22.1197L13.1371 22.1256C14.0766 22.7696 18.7169 24.343 23.5678 20.3747L23.5755 20.3572C23.6965 20.0735 25.302 16.0639 22.2363 13.2274L22.237 13.226Z" fill="url(#paint9_radial_214_1373)"/>
<path d="M9.94399 17.6737C9.94399 17.6737 10.5679 15.339 14.4113 15.339C14.8266 15.339 16.0155 14.1746 16.0368 13.837C14.3842 14.4381 12.5631 14.3662 10.9626 13.6367C10.1862 13.2413 9.32184 13.0521 8.45193 13.0871C7.58203 13.1222 6.73555 13.3804 5.99316 13.837C6.27491 14.4489 6.72733 14.9656 7.2956 15.3246C7.86388 15.6835 8.52363 15.8693 9.19491 15.8593C8.94451 18.0785 10.1128 20.6639 12.9403 22.0226C13.0034 22.0531 13.0627 22.086 13.1276 22.1151C11.477 21.2589 10.1142 19.6396 9.94399 17.6747V17.6737Z" fill="url(#paint10_radial_214_1373)"/>
<path d="M28.5213 11.4019C27.934 9.98299 26.7428 8.45092 25.8099 7.96662C26.4751 9.26017 26.9368 10.6494 27.1787 12.0848L27.1811 12.1076C25.653 8.28354 23.0625 6.73922 20.9457 3.38093C20.8387 3.21109 20.7316 3.0409 20.6273 2.86126C20.5677 2.75865 20.5199 2.66621 20.4784 2.58111C20.3906 2.41041 20.323 2.23002 20.2768 2.04358C20.2769 2.03497 20.2738 2.02665 20.2681 2.02019C20.2625 2.01373 20.2547 2.00959 20.2462 2.00856C20.2378 2.00626 20.229 2.00626 20.2207 2.00856C20.219 2.00856 20.2162 2.01171 20.2141 2.01241C20.212 2.01311 20.2074 2.01626 20.2043 2.01766L20.2095 2.00856C16.8146 4.00462 15.662 7.69908 15.5574 9.54806C15.715 9.5372 15.8713 9.52389 16.0324 9.52389C17.2369 9.52623 18.4192 9.84879 19.4593 10.4588C20.4994 11.0687 21.3601 11.9444 21.9539 12.9967C21.0032 12.3354 19.8418 12.0523 18.695 12.2021C23.5564 14.6429 22.2521 23.0474 15.5149 22.7322C14.915 22.7074 14.3222 22.5926 13.7562 22.3915C13.6239 22.3417 13.4916 22.2873 13.3593 22.2283C13.2829 22.1933 13.2066 22.1582 13.1312 22.119L13.1407 22.125C13.0751 22.0935 13.0095 22.0607 12.944 22.0266C13.0071 22.057 13.0664 22.09 13.1312 22.119C11.4807 21.2625 10.1178 19.6432 9.94764 17.6787C9.94764 17.6787 10.5715 15.344 14.4149 15.344C14.8303 15.344 16.0191 14.1796 16.0404 13.842C16.0352 13.7317 13.6829 12.7915 12.7658 11.8845C12.2758 11.3995 12.0432 11.1659 11.8371 10.9905C11.7257 10.8957 11.6093 10.8071 11.4883 10.725C11.1804 9.64258 11.1673 8.497 11.4503 7.40772C10.2036 8.01417 9.09573 8.87393 8.19698 9.93256H8.1907C7.65505 9.25075 7.69271 7.00256 7.7234 6.53296C7.56493 6.59691 7.41367 6.67755 7.27213 6.77353C6.79926 7.11242 6.3572 7.49269 5.95112 7.90989C5.48838 8.38099 5.06575 8.89019 4.68765 9.43215C3.81879 10.6689 3.20246 12.0658 2.87423 13.543L2.85609 13.6326C2.83064 13.752 2.7166 14.3586 2.70021 14.4888C2.5959 15.1149 2.52929 15.7467 2.50073 16.3809V16.4509C2.50671 19.8472 3.78045 23.1178 6.07052 25.6172C8.36058 28.1165 11.5006 29.663 14.8706 29.9512C18.2406 30.2394 21.5958 29.2485 24.2738 27.1741C26.9518 25.0996 28.7581 22.0924 29.336 18.746C29.3586 18.5709 29.3771 18.3976 29.3973 18.2208C29.6757 15.9102 29.3743 13.5664 28.5206 11.4026L28.5213 11.4019Z" fill="url(#paint11_linear_214_1373)"/>
<defs>
<linearGradient id="paint0_linear_214_1373" x1="26.7323" y1="6.34383" x2="4.20379" y2="27.9899" gradientUnits="userSpaceOnUse">
<stop offset="0.048" stop-color="#FFF44F"/>
<stop offset="0.111" stop-color="#FFE847"/>
<stop offset="0.225" stop-color="#FFC830"/>
<stop offset="0.368" stop-color="#FF980E"/>
<stop offset="0.401" stop-color="#FF8B16"/>
<stop offset="0.462" stop-color="#FF672A"/>
<stop offset="0.534" stop-color="#FF3647"/>
<stop offset="0.705" stop-color="#E31587"/>
</linearGradient>
<radialGradient id="paint1_radial_214_1373" cx="0" cy="0" r="1" gradientUnits="userSpaceOnUse" gradientTransform="translate(25.8638 5.15782) scale(28.1778 28.295)">
<stop offset="0.129" stop-color="#FFBD4F"/>
<stop offset="0.186" stop-color="#FFAC31"/>
<stop offset="0.247" stop-color="#FF9D17"/>
<stop offset="0.283" stop-color="#FF980E"/>
<stop offset="0.403" stop-color="#FF563B"/>
<stop offset="0.467" stop-color="#FF3750"/>
<stop offset="0.71" stop-color="#F5156C"/>
<stop offset="0.782" stop-color="#EB0878"/>
<stop offset="0.86" stop-color="#E50080"/>
</radialGradient>
<radialGradient id="paint2_radial_214_1373" cx="0" cy="0" r="1" gradientUnits="userSpaceOnUse" gradientTransform="translate(15.4017 16.714) scale(28.1778 28.295)">
<stop offset="0.3" stop-color="#960E18"/>
<stop offset="0.351" stop-color="#B11927" stop-opacity="0.74"/>
<stop offset="0.435" stop-color="#DB293D" stop-opacity="0.343"/>
<stop offset="0.497" stop-color="#F5334B" stop-opacity="0.094"/>
<stop offset="0.53" stop-color="#FF3750" stop-opacity="0"/>
</radialGradient>
<radialGradient id="paint3_radial_214_1373" cx="0" cy="0" r="1" gradientUnits="userSpaceOnUse" gradientTransform="translate(18.8891 -1.14533) scale(20.4115 20.4964)">
<stop offset="0.132" stop-color="#FFF44F"/>
<stop offset="0.252" stop-color="#FFDC3E"/>
<stop offset="0.506" stop-color="#FF9D12"/>
<stop offset="0.526" stop-color="#FF980E"/>
</radialGradient>
<radialGradient id="paint4_radial_214_1373" cx="0" cy="0" r="1" gradientUnits="userSpaceOnUse" gradientTransform="translate(12.2633 24.0681) scale(13.4159 13.4716)">
<stop offset="0.353" stop-color="#3A8EE6"/>
<stop offset="0.472" stop-color="#5C79F0"/>
<stop offset="0.669" stop-color="#9059FF"/>
<stop offset="1" stop-color="#C139E6"/>
</radialGradient>
<radialGradient id="paint5_radial_214_1373" cx="0" cy="0" r="1" gradientTransform="matrix(6.91501 -1.67879 1.95641 8.12963 16.7648 14.2853)" gradientUnits="userSpaceOnUse">
<stop offset="0.206" stop-color="#9059FF" stop-opacity="0"/>
<stop offset="0.278" stop-color="#8C4FF3" stop-opacity="0.064"/>
<stop offset="0.747" stop-color="#7716A8" stop-opacity="0.45"/>
<stop offset="0.975" stop-color="#6E008B" stop-opacity="0.6"/>
</radialGradient>
<radialGradient id="paint6_radial_214_1373" cx="0" cy="0" r="1" gradientUnits="userSpaceOnUse" gradientTransform="translate(15.0531 4.10722) scale(9.653 9.69314)">
<stop stop-color="#FFE226"/>
<stop offset="0.121" stop-color="#FFDB27"/>
<stop offset="0.295" stop-color="#FFC82A"/>
<stop offset="0.502" stop-color="#FFA930"/>
<stop offset="0.732" stop-color="#FF7E37"/>
<stop offset="0.792" stop-color="#FF7139"/>
</radialGradient>
<radialGradient id="paint7_radial_214_1373" cx="0" cy="0" r="1" gradientUnits="userSpaceOnUse" gradientTransform="translate(22.7254 -2.19603) scale(41.1857 41.3569)">
<stop offset="0.113" stop-color="#FFF44F"/>
<stop offset="0.456" stop-color="#FF980E"/>
<stop offset="0.622" stop-color="#FF5634"/>
<stop offset="0.716" stop-color="#FF3647"/>
<stop offset="0.904" stop-color="#E31587"/>
</radialGradient>
<radialGradient id="paint8_radial_214_1373" cx="0" cy="0" r="1" gradientTransform="matrix(3.16739 30.1396 -19.6982 2.09008 19.3021 0.0970611)" gradientUnits="userSpaceOnUse">
<stop stop-color="#FFF44F"/>
<stop offset="0.06" stop-color="#FFE847"/>
<stop offset="0.168" stop-color="#FFC830"/>
<stop offset="0.304" stop-color="#FF980E"/>
<stop offset="0.356" stop-color="#FF8B16"/>
<stop offset="0.455" stop-color="#FF672A"/>
<stop offset="0.57" stop-color="#FF3647"/>
<stop offset="0.737" stop-color="#E31587"/>
</radialGradient>
<radialGradient id="paint9_radial_214_1373" cx="0" cy="0" r="1" gradientUnits="userSpaceOnUse" gradientTransform="translate(15.0531 7.60902) scale(25.7088 25.8157)">
<stop offset="0.137" stop-color="#FFF44F"/>
<stop offset="0.48" stop-color="#FF980E"/>
<stop offset="0.592" stop-color="#FF5634"/>
<stop offset="0.655" stop-color="#FF3647"/>
<stop offset="0.904" stop-color="#E31587"/>
</radialGradient>
<radialGradient id="paint10_radial_214_1373" cx="0" cy="0" r="1" gradientUnits="userSpaceOnUse" gradientTransform="translate(21.6789 9.01005) scale(28.1395 28.2565)">
<stop offset="0.094" stop-color="#FFF44F"/>
<stop offset="0.231" stop-color="#FFE141"/>
<stop offset="0.509" stop-color="#FFAF1E"/>
<stop offset="0.626" stop-color="#FF980E"/>
</radialGradient>
<linearGradient id="paint11_linear_214_1373" x1="26.4603" y1="6.22826" x2="7.29125" y2="25.3214" gradientUnits="userSpaceOnUse">
<stop offset="0.167" stop-color="#FFF44F" stop-opacity="0.8"/>
<stop offset="0.266" stop-color="#FFF44F" stop-opacity="0.634"/>
<stop offset="0.489" stop-color="#FFF44F" stop-opacity="0.217"/>
<stop offset="0.6" stop-color="#FFF44F" stop-opacity="0"/>
</linearGradient>
</defs>
</svg>
