<svg width="32" height="32" viewBox="0 0 32 32" fill="none" xmlns="http://www.w3.org/2000/svg">
<path d="M15.4865 10.7091C13.3336 10.7086 11.1847 10.5244 9.06322 10.1585C9.00467 10.1481 8.94879 10.1261 8.89879 10.0939C8.84879 10.0617 8.80566 10.0199 8.77191 9.97099C8.73815 9.92204 8.71443 9.86687 8.70212 9.8087C8.68982 9.75052 8.68916 9.69047 8.7002 9.63203L9.51924 5.22793C9.54114 5.11179 9.60786 5.00893 9.70497 4.94156C9.80208 4.87419 9.9218 4.84774 10.0382 4.86791C13.7919 5.5044 17.6281 5.478 21.3727 4.78991C22.4517 4.58998 23.5192 4.33261 24.5707 4.01889C24.6847 3.98479 24.8076 3.99719 24.9125 4.05341C25.0174 4.10963 25.0957 4.20509 25.1303 4.3189L26.4803 8.59101C26.4981 8.64783 26.5045 8.70762 26.4991 8.76692C26.4935 8.82621 26.4763 8.88381 26.4484 8.93642C26.4206 8.98902 26.3825 9.03556 26.3365 9.07334C26.2905 9.11113 26.2374 9.1394 26.1804 9.15653C24.9211 9.53542 23.6421 9.84539 22.3493 10.085C20.0854 10.5016 17.7883 10.7105 15.4865 10.7091Z" fill="#293FFF"/>
<path d="M15.4866 19.3551C12.7973 19.3568 10.113 19.1234 7.46434 18.6576C7.4058 18.6471 7.34992 18.6252 7.29992 18.5929C7.24991 18.5607 7.20678 18.519 7.17302 18.47C7.13927 18.4211 7.11556 18.3659 7.10325 18.3077C7.09095 18.2495 7.09028 18.1895 7.10132 18.131L7.92785 13.7285C7.94974 13.6117 8.01689 13.5083 8.11468 13.4409C8.21247 13.3734 8.33296 13.3474 8.44988 13.3685C13.1065 14.174 17.8668 14.174 22.5234 13.3685C22.6403 13.3474 22.7608 13.3734 22.8586 13.4409C22.9564 13.5083 23.0236 13.6117 23.0454 13.7285L23.8689 18.131C23.88 18.1895 23.8793 18.2495 23.867 18.3077C23.8547 18.3659 23.831 18.4211 23.7973 18.47C23.7635 18.519 23.7204 18.5607 23.6704 18.5929C23.6204 18.6252 23.5645 18.6471 23.506 18.6576C20.8582 19.1233 18.175 19.3567 15.4866 19.3551Z" fill="#1579FF"/>
<path d="M15.0337 28.0003C11.9605 27.9753 8.89467 27.6933 5.86841 27.1573C5.81 27.1466 5.75428 27.1246 5.70445 27.0923C5.65462 27.06 5.61166 27.0182 5.57805 26.9693C5.54445 26.9203 5.52086 26.8653 5.50864 26.8071C5.49643 26.749 5.49584 26.6892 5.5069 26.6308L6.32892 22.2282C6.35082 22.1117 6.41775 22.0086 6.5152 21.9412C6.61265 21.8738 6.73276 21.8476 6.84944 21.8682C9.55314 22.3438 12.2916 22.5946 15.0367 22.6182C15.1561 22.6182 15.2706 22.6656 15.355 22.75C15.4394 22.8344 15.4868 22.9489 15.4868 23.0682V27.5473C15.4872 27.6069 15.4757 27.666 15.4531 27.7212C15.4305 27.7763 15.3971 27.8263 15.355 27.8686C15.3128 27.9107 15.2627 27.944 15.2076 27.9667C15.1524 27.9893 15.0933 28.0007 15.0337 28.0003Z" fill="#00B3FF"/>
</svg>
