<svg width="32" height="32" viewBox="0 0 32 32" fill="none" xmlns="http://www.w3.org/2000/svg">
<path d="M2.58536 17.4132C1.80488 16.6327 1.80488 15.3673 2.58536 14.5868L14.5868 2.58536C15.3673 1.80488 16.6327 1.80488 17.4132 2.58536L29.4146 14.5868C30.1951 15.3673 30.1951 16.6327 29.4146 17.4132L17.4132 29.4146C16.6327 30.1951 15.3673 30.1951 14.5868 29.4146L2.58536 17.4132Z" fill="#EE513B"/>
<path d="M12.1494 5.06152L10.9341 6.27686L14.073 9.41577C13.946 9.68819 13.8751 9.99201 13.8751 10.3124C13.8751 11.222 14.4466 11.9981 15.2501 12.3012V19.9798C14.4466 20.2829 13.8751 21.059 13.8751 21.9686C13.8751 23.1422 14.8265 24.0936 16.0001 24.0936C17.1737 24.0936 18.1251 23.1422 18.1251 21.9686C18.1251 21.144 17.6554 20.429 16.9689 20.0768V12.3117L19.9694 15.3122C19.8486 15.5791 19.7814 15.8754 19.7814 16.1874C19.7814 17.361 20.7328 18.3124 21.9064 18.3124C23.08 18.3124 24.0314 17.361 24.0314 16.1874C24.0314 15.0138 23.08 14.0624 21.9064 14.0624C21.6783 14.0624 21.4586 14.0983 21.2527 14.1648L18.0302 10.9423C18.0919 10.7433 18.1251 10.5317 18.1251 10.3124C18.1251 9.13878 17.1737 8.18738 16.0001 8.18738C15.7808 8.18738 15.5692 8.22061 15.3702 8.2823L12.1494 5.06152Z" fill="white"/>
</svg>
