<svg width="32" height="32" viewBox="0 0 32 32" fill="none" xmlns="http://www.w3.org/2000/svg">
<path d="M16.0001 29L21.1556 13.0051H10.8445L16.0001 29Z" fill="#E24329"/>
<path d="M15.9999 29L10.8443 13.0051H3.6189L15.9999 29Z" fill="#FC6D26"/>
<path d="M3.61901 13.0051L2.05232 17.8658C1.90942 18.3091 2.06593 18.7948 2.44006 19.0688L16 29L3.61901 13.0051Z" fill="#FCA326"/>
<path d="M3.61914 13.0053H10.8446L7.73933 3.37177C7.57962 2.87601 6.88394 2.87614 6.72423 3.37177L3.61914 13.0053Z" fill="#E24329"/>
<path d="M16 29L21.1556 13.0051H28.381L16 29Z" fill="#FC6D26"/>
<path d="M28.381 13.0051L29.9477 17.8658C30.0906 18.3091 29.9341 18.7948 29.5599 19.0688L16 29L28.381 13.0051Z" fill="#FCA326"/>
<path d="M28.3809 13.0053H21.1555L24.2607 3.37177C24.4205 2.87601 25.1161 2.87614 25.2758 3.37177L28.3809 13.0053Z" fill="#E24329"/>
</svg>
