<svg width="32" height="32" viewBox="0 0 32 32" fill="none" xmlns="http://www.w3.org/2000/svg">
<path fill-rule="evenodd" clip-rule="evenodd" d="M27.0888 15.7501C26.7143 17.1788 26.1073 18.5722 25.2851 19.8919C24.76 20.7346 24.1687 21.5105 23.5196 22.2129C24.2605 19.1845 23.7591 15.4745 21.9415 11.9954C21.8137 11.7507 21.5184 11.6697 21.2848 11.8161L15.6244 15.3629C15.4077 15.4988 15.3417 15.785 15.4771 16.0024L16.3071 17.3342C16.4425 17.5516 16.728 17.6176 16.9448 17.4819L20.6133 15.183C20.7363 15.5363 20.8465 15.892 20.9404 16.2501C21.2934 17.5962 21.4249 18.9098 21.3312 20.1545C21.1568 22.4716 20.2162 24.2771 18.6823 25.2382C17.9163 25.7182 17.0263 25.9724 16.0591 26.0001C16.0381 25.9997 16.0167 26.0004 15.9957 26.0001C15.9777 26.0001 15.9594 25.9997 15.9414 26.0001C14.974 25.9725 14.0839 25.7182 13.3177 25.2381C11.7839 24.2771 10.8431 22.4716 10.6688 20.1545C10.5752 18.9098 10.7067 17.5962 11.0596 16.2501C11.4342 14.8215 12.0409 13.428 12.8634 12.1083C13.6856 10.7887 14.6685 9.63081 15.785 8.66694C16.8367 7.75876 17.9564 7.06441 19.1131 6.60318C21.2664 5.7445 23.2969 5.80102 24.8307 6.76216C26.3645 7.72318 27.3053 9.5286 27.4796 11.8457C27.5733 13.0904 27.4419 14.404 27.0888 15.7501ZM6.71497 19.8919C5.89262 18.5722 5.28576 17.1788 4.91113 15.7501C4.55822 14.404 4.42674 13.0904 4.52037 11.8457C4.69481 9.5286 5.63547 7.72318 7.16934 6.76216C8.7031 5.80102 10.7337 5.7445 12.8869 6.60318C13.2111 6.73241 13.5318 6.8827 13.8495 7.0487C12.7018 8.09159 11.6473 9.34486 10.7503 10.7844C8.37499 14.5962 7.65255 18.8302 8.48072 22.2133C7.83162 21.5109 7.24019 20.7348 6.71497 19.8919ZM26.151 4.64318C23.241 2.81967 19.4103 3.25306 15.999 5.40714C12.5883 3.25377 8.75864 2.82003 5.84895 4.6433C1.25184 7.52386 0.693515 14.9438 4.60189 21.216C7.48381 25.8407 11.9892 28.5498 16.0002 28.4993C20.011 28.5495 24.5163 25.8406 27.3981 21.216C31.3064 14.9438 30.7482 7.52386 26.151 4.64318Z" fill="#1BDBDB"/>
</svg>
