<svg width="32" height="32" viewBox="0 0 32 32" fill="none" xmlns="http://www.w3.org/2000/svg">
<path d="M16.2856 13.4546V18.8764H23.974C23.6364 20.62 22.6233 22.0964 21.1038 23.0891L25.7402 26.6146C28.4415 24.1711 30 20.582 30 16.3184C30 15.3257 29.9091 14.371 29.7402 13.4547L16.2856 13.4546Z" fill="#4285F4"/>
<path d="M8.27956 18.6646L7.23387 19.449L3.53247 22.2744C5.88314 26.8434 10.701 29.9998 16.2855 29.9998C20.1425 29.9998 23.3763 28.7525 25.74 26.6144L21.1036 23.089C19.8309 23.9289 18.2075 24.4381 16.2855 24.4381C12.5711 24.4381 9.41536 21.9817 8.2854 18.6726L8.27956 18.6646Z" fill="#34A853"/>
<path d="M3.53237 9.72559C2.55839 11.6091 2 13.7346 2 16C2 18.2654 2.55839 20.3909 3.53237 22.2745C3.53237 22.2871 8.28576 18.6599 8.28576 18.6599C8.00004 17.8199 7.83116 16.9291 7.83116 15.9999C7.83116 15.0707 8.00004 14.1798 8.28576 13.3398L3.53237 9.72559Z" fill="#FBBC05"/>
<path d="M16.2858 7.57452C18.3897 7.57452 20.2598 8.28723 21.7533 9.66179L25.8443 5.65276C23.3637 3.38735 20.143 2 16.2858 2C10.7013 2 5.88314 5.14362 3.53247 9.72544L8.28571 13.34C9.41552 10.0309 12.5714 7.57452 16.2858 7.57452Z" fill="#EA4335"/>
</svg>
