<svg width="32" height="32" viewBox="0 0 32 32" fill="none" xmlns="http://www.w3.org/2000/svg">
<path d="M19.9493 10.2239C21.2096 8.08017 20.4617 5.33895 18.2787 4.10124C16.0958 2.86353 13.3045 3.59804 12.0441 5.74182L2.61931 21.7732C1.35898 23.917 2.10692 26.6582 4.28986 27.8959C6.4728 29.1336 9.26412 28.3991 10.5244 26.2553L19.9493 10.2239Z" fill="#F8BB2D"/>
<path d="M11.1306 24.0166C11.1306 26.4927 9.08667 28.5 6.56532 28.5C4.04396 28.5 2 26.4927 2 24.0166C2 21.5405 4.04396 19.5332 6.56532 19.5332C9.08667 19.5332 11.1306 21.5405 11.1306 24.0166Z" fill="#3BA757"/>
<path d="M12.0578 10.2239C10.7975 8.08017 11.5454 5.33895 13.7283 4.10124C15.9113 2.86353 18.7026 3.59804 19.9629 5.74182L29.3878 21.7732C30.6481 23.917 29.9001 26.6582 27.7172 27.8959C25.5343 29.1336 22.7429 28.3991 21.4826 26.2553L12.0578 10.2239Z" fill="#4689F2"/>
</svg>
