<svg width="32" height="32" viewBox="0 0 32 32" fill="none" xmlns="http://www.w3.org/2000/svg">
<path d="M27.8141 14.4263L5.84852 2.36263C4.91007 1.85315 4.0704 1.90087 3.55986 2.37838C3.19776 2.71269 3 3.2539 3 3.95425V28.0337C3 28.7345 3.21401 29.2757 3.55986 29.6097C4.08676 30.1032 4.91007 30.1508 5.84852 29.6254L27.8141 17.5616C29.3953 16.7022 29.3953 15.3018 27.8141 14.4263Z" fill="#F1471D"/>
<path d="M25.9361 18.6214C26.1999 17.7462 26.3317 16.807 26.3317 15.8523C26.3317 10.2341 21.6055 5.6665 15.7931 5.6665C9.98063 5.6665 5.25488 10.2341 5.25488 15.8523C5.25488 20.5632 8.56472 24.5261 13.06 25.6882L25.9361 18.6214Z" fill="#FCD117"/>
<path d="M22.5863 16.0019C22.5863 19.5177 19.6379 22.368 16 22.368C12.3622 22.368 9.41357 19.5177 9.41357 16.0019C9.41357 12.4858 12.3622 9.63574 16 9.63574C19.6378 9.63563 22.5863 12.4857 22.5863 16.0019Z" fill="#F48B15"/>
<path d="M16.0001 12.6602V16.5748C15.7695 16.448 15.5061 16.3681 15.2262 16.3681C14.37 16.3681 13.6948 17.037 13.6948 17.8481C13.6948 18.6762 14.3863 19.3286 15.2262 19.3286C16.0827 19.3286 16.8235 18.6598 16.8235 17.8481V14.2516H18.3053V12.6602H16.0001Z" fill="white"/>
</svg>
