<svg width="32" height="32" viewBox="0 0 32 32" fill="none" xmlns="http://www.w3.org/2000/svg">
<path d="M21.3684 5.3409V26.3409C21.3684 28.6925 22.977 30 24.6842 30C26.2631 30 28 28.8864 28 26.3409V5.49999C28 3.3473 26.421 2 24.6842 2C22.9474 2 21.3684 3.4865 21.3684 5.3409Z" fill="#F8AB00"/>
<path d="M12.6843 16.0001V26.341C12.6843 28.6925 14.2929 30.0001 16.0001 30.0001C17.5791 30.0001 19.3159 28.8864 19.3159 26.341V16.1592C19.3159 14.0065 17.737 12.6592 16.0001 12.6592C14.2633 12.6592 12.6843 14.1457 12.6843 16.0001Z" fill="#E37300"/>
<path d="M10.6316 26.6593C10.6316 28.5037 9.14638 30.0002 7.31579 30.0002C5.4852 30.0002 4 28.5037 4 26.6593C4 24.8148 5.4852 23.3184 7.31579 23.3184C9.14638 23.3184 10.6316 24.8148 10.6316 26.6593Z" fill="#E37300"/>
</svg>
