<svg width="32" height="32" viewBox="0 0 32 32" fill="none" xmlns="http://www.w3.org/2000/svg">
<path d="M30 16.0001C30 17.2985 28.944 18.351 27.6413 18.351H19.5L16 11.2975L19.7778 4.77593C20.4291 3.65156 21.8716 3.26629 22.9997 3.91539L23.0001 3.91565C24.1283 4.56479 24.5149 6.00261 23.8636 7.12708L20.0859 13.6492H27.6413C28.944 13.6492 30 14.7017 30 16.0001Z" fill="#1A73E8"/>
<path d="M23.0002 28.0844L22.9997 28.0847C21.8716 28.7338 20.4291 28.3485 19.7778 27.2241L16 20.7026L12.2223 27.2241C11.571 28.3485 10.1285 28.7338 9.00037 28.0847L8.99992 28.0844C7.87172 27.4353 7.48512 25.9974 8.13644 24.873L11.9142 18.3509L16 18.1992L20.0859 18.3509L23.8637 24.873C24.515 25.9974 24.1284 27.4353 23.0002 28.0844Z" fill="#EA4335"/>
<path d="M16 11.2975L14.9348 14.18L11.9142 13.6492L8.13644 7.12708C7.48512 6.00261 7.87172 4.5648 8.99992 3.91565L9.00037 3.91539C10.1285 3.26629 11.571 3.65156 12.2223 4.77593L16 11.2975Z" fill="#FBBC04"/>
<path d="M15.3913 13.6494L12.6522 18.3513H4.35869C3.05602 18.3513 2 17.2987 2 16.0003C2 14.702 3.05602 13.6494 4.35869 13.6494H15.3913Z" fill="#34A853"/>
<path d="M20.0858 18.3509H11.9141L15.9999 11.2974L20.0858 18.3509Z" fill="#185DB7"/>
</svg>
