<svg width="32" height="32" viewBox="0 0 32 32" fill="none" xmlns="http://www.w3.org/2000/svg">
<path d="M16 30C23.732 30 30 23.732 30 16C30 8.26801 23.732 2 16 2C8.26801 2 2 8.26801 2 16C2 23.732 8.26801 30 16 30Z" fill="#2BB673"/>
<path d="M18.7693 17.8872C18.1907 17.8872 17.7345 18.4046 17.8258 19.0133C17.917 19.4694 18.3432 19.7744 18.7993 19.7744H20.2603L21.1127 19.6532C19.7429 21.6616 17.3996 22.5752 14.8125 22.149C12.7129 21.8128 10.917 20.383 10.1559 18.4046C8.42117 13.9005 11.7081 9.57872 15.9998 9.57872C18.222 9.57872 20.2004 10.8872 21.3264 12.4694V12.4994C21.6314 12.9256 22.2087 13.0468 22.6349 12.7431C23.0311 12.4694 23.1523 11.922 22.9086 11.4959C21.3564 9.06131 18.5569 7.50909 15.4212 7.72153C11.3432 8.05647 8.02628 11.4046 7.78256 15.5126C7.50887 20.2905 11.2819 24.1561 15.9998 24.1561C18.4644 24.1561 20.6865 23.0913 22.1775 21.3253L21.995 22.3302V23.2438C21.995 23.6999 22.3 24.1261 22.7561 24.2173C23.3648 24.3385 23.8822 23.8524 23.8822 23.2738V17.8872H18.7693Z" fill="white"/>
</svg>
