<svg width="32" height="32" viewBox="0 0 32 32" fill="none" xmlns="http://www.w3.org/2000/svg">
<path fill-rule="evenodd" clip-rule="evenodd" d="M8.21387 2H23.7884C27.2064 2 30.0023 4.7959 30.0023 8.21387V23.7884C30.0023 27.2064 27.2064 30.0023 23.7884 30.0023H8.21387C4.7959 30.0023 2 27.2064 2 23.7884V8.21387C2 4.7959 4.7959 2 8.21387 2Z" fill="black"/>
<path fill-rule="evenodd" clip-rule="evenodd" d="M10.4606 15.1704C10.791 15.4393 10.9574 15.8586 10.9574 16.4282V19.2902H9.38281V16.6379C9.38281 16.5216 9.33952 16.4214 9.25293 16.3348C9.16634 16.2482 9.0638 16.2049 8.94987 16.2049H8.03385C7.91764 16.2049 7.81966 16.2482 7.73535 16.3348C7.65332 16.4214 7.6123 16.5239 7.6123 16.6379V19.2902H6.02637V12.7095H7.6123V14.8537C7.63737 14.8446 7.69434 14.8286 7.78548 14.8035C7.87663 14.7785 7.99512 14.7671 8.14551 14.7671H9.16178C9.69499 14.7671 10.1302 14.9015 10.4606 15.1704ZM15.4554 14.7671H17.0413V17.5425C17.0413 18.062 16.8978 18.4836 16.613 18.8071C16.3281 19.1284 15.9408 19.2902 15.4531 19.2902H13.8923C13.3477 19.2902 12.9102 19.1398 12.5843 18.8368C12.2585 18.536 12.0944 18.103 12.0944 17.5425V14.7671H13.6803V17.4194C13.6803 17.5356 13.7214 17.6336 13.8034 17.7179C13.8854 17.8 13.9857 17.841 14.1019 17.841H15.0179C15.1341 17.841 15.2344 17.8 15.321 17.7179C15.4076 17.6359 15.4508 17.5356 15.4508 17.4194V14.7671H15.4554ZM18.2422 12.7095H19.8281V19.2902H18.2422V12.7095ZM25.9759 14.7671V17.5425C25.9759 18.062 25.8324 18.4836 25.5475 18.8071C25.2627 19.1284 24.8753 19.2902 24.3877 19.2902H22.8382C22.2845 19.2902 21.8447 19.1398 21.5189 18.8368C21.193 18.536 21.029 18.103 21.029 17.5425V14.7671H22.6149V17.4194C22.6149 17.5356 22.6559 17.6336 22.738 17.7179C22.82 17.8 22.9202 17.841 23.0365 17.841H23.9661C24.0824 17.841 24.1803 17.8 24.2646 17.7179C24.3467 17.6359 24.3877 17.5356 24.3877 17.4194V14.7671H25.9759Z" fill="#1CE783"/>
</svg>
