<svg width="32" height="32" viewBox="0 0 32 32" fill="none" xmlns="http://www.w3.org/2000/svg">
<path d="M2 21.1644H7.44412V21.997H2V21.1644Z" fill="#1F70C1"/>
<path d="M2 19.5674H7.44412V20.4029H2V19.5674Z" fill="#1F70C1"/>
<path d="M3.5531 17.9733H5.88828V18.8089H3.5531V17.9733Z" fill="#1F70C1"/>
<path d="M3.5531 16.3793H5.88828V17.2148H3.5531V16.3793Z" fill="#1F70C1"/>
<path d="M3.5531 14.7852H5.88828V15.6207H3.5531V14.7852Z" fill="#1F70C1"/>
<path d="M3.5531 13.1882H5.88828V14.0237H3.5531V13.1882Z" fill="#1F70C1"/>
<path d="M7.44412 11.5941H2V12.4296H7.44412V11.5941Z" fill="#1F70C1"/>
<path d="M7.44412 10H2V10.8356H7.44412V10Z" fill="#1F70C1"/>
<path d="M8.22068 20.4029H16.5935C16.7349 20.1452 16.8403 19.8637 16.9041 19.5674H8.22068V20.4029Z" fill="#1F70C1"/>
<path d="M15.9418 16.3793H9.77655V17.2148H16.5935C16.416 16.8948 16.1969 16.6133 15.9418 16.3793Z" fill="#1F70C1"/>
<path d="M9.77655 14.7852V15.6207H15.9418C16.2025 15.3867 16.4215 15.1052 16.5935 14.7852H9.77655Z" fill="#1F70C1"/>
<path d="M16.5935 11.5941H8.22068V12.4296H16.9041C16.832 12.1333 16.7266 11.8519 16.5935 11.5941Z" fill="#1F70C1"/>
<path d="M14.0198 10H8.22068V10.8356H16.0194C15.498 10.32 14.7908 10 14.0198 10Z" fill="#1F70C1"/>
<path d="M12.109 13.1882H9.77655V14.0237H12.109V13.1882Z" fill="#1F70C1"/>
<path d="M14.4441 14.0237H16.8847C16.954 13.7571 16.9901 13.4756 16.9901 13.1882H14.4441V14.0237Z" fill="#1F70C1"/>
<path d="M9.77655 17.9733H12.109V18.8089H9.77655V17.9733Z" fill="#1F70C1"/>
<path d="M14.4441 17.9733V18.8089H16.9901C16.9901 18.5215 16.954 18.24 16.8847 17.9733H14.4441Z" fill="#1F70C1"/>
<path d="M8.22068 21.9911L14.0198 22C14.7964 22 15.498 21.68 16.0222 21.1644H8.22068V21.9911Z" fill="#1F70C1"/>
<path d="M17.5559 21.1644H21.4441V21.997H17.5559V21.1644Z" fill="#1F70C1"/>
<path d="M17.5559 19.5674H21.4441V20.4029H17.5559V19.5674Z" fill="#1F70C1"/>
<path d="M19.109 17.9733H21.4441V18.8089H19.109V17.9733Z" fill="#1F70C1"/>
<path d="M19.109 16.3793H21.4441V17.2148H19.109V16.3793Z" fill="#1F70C1"/>
<path d="M22.5258 11.5941H17.5559V12.4296H22.7948L22.5258 11.5941Z" fill="#1F70C1"/>
<path d="M22.0099 10H17.5559V10.8356H22.2789L22.0099 10Z" fill="#1F70C1"/>
<path d="M26.109 21.1644H30V21.997H26.109V21.1644Z" fill="#1F70C1"/>
<path d="M26.109 19.5674H30V20.4029H26.109V19.5674Z" fill="#1F70C1"/>
<path d="M26.109 17.9733H28.4441V18.8089H26.109V17.9733Z" fill="#1F70C1"/>
<path d="M26.109 16.3793H28.4441V17.2148H26.109V16.3793Z" fill="#1F70C1"/>
<path d="M26.109 15.6207H28.4441V14.7852H23.9957L23.7766 15.4608L23.5575 14.7852H19.109V15.6207H21.4441V14.8533L21.691 15.6207H25.8621L26.109 14.8533V15.6207Z" fill="#1F70C1"/>
<path d="M28.4441 13.1882H24.5115L24.2425 14.0237H28.4441V13.1882Z" fill="#1F70C1"/>
<path d="M25.546 10L25.2769 10.8356H30V10H25.546Z" fill="#1F70C1"/>
<path d="M23.7766 21.9911L24.0455 21.1644H23.5075L23.7766 21.9911Z" fill="#1F70C1"/>
<path d="M23.2607 20.4029H24.2924L24.5697 19.5674H22.9861L23.2607 20.4029Z" fill="#1F70C1"/>
<path d="M22.7365 18.8089H24.8166L25.0911 17.9733H22.462L22.7365 18.8089Z" fill="#1F70C1"/>
<path d="M22.2151 17.2148H25.3407L25.607 16.3793H21.9461L22.2151 17.2148Z" fill="#1F70C1"/>
<path d="M19.109 14.0237H23.3106L23.0416 13.1882H19.109V14.0237Z" fill="#1F70C1"/>
<path d="M24.7611 12.4296H30V11.5941H25.0273L24.7611 12.4296Z" fill="#1F70C1"/>
</svg>
