<svg width="32" height="32" viewBox="0 0 32 32" fill="none" xmlns="http://www.w3.org/2000/svg">
<path d="M2 16C2 8.26801 8.26801 2 16 2C23.732 2 30 8.26801 30 16C30 23.732 23.732 30 16 30C8.26801 30 2 23.732 2 16Z" fill="url(#paint0_radial_214_122)"/>
<path d="M2 16C2 8.26801 8.26801 2 16 2C23.732 2 30 8.26801 30 16C30 23.732 23.732 30 16 30C8.26801 30 2 23.732 2 16Z" fill="url(#paint1_radial_214_122)"/>
<path d="M24.9896 14.9217C24.9845 14.4743 24.9689 14.1828 24.9482 13.7807L24.943 13.6902C24.9016 12.8508 24.7772 12.1923 24.5285 11.569C24.285 10.9558 23.9585 10.4733 23.487 10.0108C23.0104 9.54838 22.5181 9.23674 21.8808 8.99547C21.2383 8.7542 20.5648 8.62854 19.6943 8.58833C18.9845 8.55817 18.6477 8.54812 17.6788 8.53806L18.8135 7.34679C18.9637 7.19097 19.0414 6.98489 19.0311 6.76875C19.0207 6.55261 18.9171 6.35155 18.7565 6.21081C18.4145 5.90922 17.8808 5.93436 17.5751 6.2661L16 7.92484L14.4352 6.27113C14.1244 5.94441 13.5907 5.91928 13.2487 6.21584C13.0829 6.36161 12.9845 6.55764 12.9741 6.77378C12.9637 6.98991 13.0415 7.196 13.1917 7.35182L14.3212 8.53806C13.3731 8.54309 13.0104 8.55314 12.3057 8.5833C11.4404 8.62854 10.7668 8.7542 10.1192 8.99045C9.48705 9.23172 8.98964 9.54336 8.51813 10.0058C8.04145 10.4733 7.71503 10.9508 7.4715 11.564C7.2228 12.1873 7.09326 12.8457 7.05181 13.6852C7.01036 14.605 7 14.9116 7 17.264C7 19.6164 7.01036 19.923 7.05181 20.8479C7.09326 21.6973 7.2228 22.3508 7.4715 22.969C7.71503 23.5772 8.03627 24.0598 8.51813 24.5272C8.98446 24.9847 9.48186 25.2963 10.1192 25.5426C10.7565 25.7839 11.4352 25.9095 12.3109 25.9497C13.2591 25.9899 13.544 26 16.0052 26C18.4663 26 18.7513 25.9899 19.6995 25.9497C20.5751 25.9095 21.2539 25.7839 21.886 25.5426C22.5233 25.3013 23.0155 24.9897 23.4922 24.5272C23.9689 24.0598 24.2953 23.5823 24.5337 22.969C24.7824 22.3458 24.9119 21.6923 24.9482 20.8479C24.9948 19.9532 25 19.6817 25 17.264C25 16.1331 25 15.4293 24.9896 14.9217ZM23.2798 17.269C23.2798 18.4804 23.2798 19.0987 23.2694 19.5561C23.2591 20.0235 23.2487 20.3201 23.228 20.7675V20.7725C23.1865 21.6119 23.0414 22.0693 22.9223 22.3709C22.7668 22.768 22.5751 23.0495 22.2642 23.3511C21.9534 23.6476 21.6632 23.8336 21.2539 23.9894C20.943 24.1101 20.4767 24.2508 19.6114 24.286C18.6891 24.3262 18.4093 24.3362 16 24.3362C13.5907 24.3362 13.3109 24.3262 12.3886 24.286C11.5285 24.2508 11.057 24.1101 10.7461 23.9894C10.3368 23.8336 10.0466 23.6526 9.73575 23.3511C9.42487 23.0495 9.23834 22.768 9.07772 22.3709C8.95855 22.0643 8.81347 21.6018 8.7772 20.7725C8.73575 19.8878 8.72539 19.6516 8.72539 17.269C8.72539 14.8865 8.73575 14.6502 8.7772 13.7656C8.81347 12.9312 8.95855 12.4738 9.07772 12.1722C9.23316 11.7751 9.42487 11.4936 9.73575 11.192C10.0363 10.8955 10.3316 10.7145 10.7461 10.5537C11.0622 10.4381 11.5337 10.2973 12.3886 10.2571C13.3212 10.2169 13.601 10.2069 16 10.2069C18.399 10.2069 18.6839 10.2169 19.6114 10.2571C20.4715 10.2923 20.943 10.433 21.2539 10.5537C21.6684 10.7145 21.9637 10.8955 22.2642 11.192C22.5751 11.4936 22.7668 11.7751 22.9223 12.1722C23.0414 12.4637 23.1865 12.9111 23.228 13.7656C23.2746 14.6653 23.2798 14.9418 23.2798 17.269Z" fill="white"/>
<path d="M15.3134 18.3517V17.0856C15.3134 17.013 15.2512 16.9611 15.1842 16.9818L11.9545 17.9884C11.5095 18.1285 11.0406 17.7965 11.0023 17.2672C10.9736 16.8833 11.2176 16.5304 11.5621 16.4266L16.0455 15.0257C16.4282 14.9064 16.811 15.2177 16.811 15.6483V16.9144C16.811 16.987 16.8732 17.0389 16.9402 17.0182L20.0455 16.0479C20.4905 15.9078 20.9594 16.2399 20.9977 16.7691C21.0264 17.1531 20.7824 17.5059 20.4379 17.6097L16.0789 18.9743C15.6914 19.0936 15.3134 18.7823 15.3134 18.3517Z" fill="white"/>
<defs>
<radialGradient id="paint0_radial_214_122" cx="0" cy="0" r="1" gradientUnits="userSpaceOnUse" gradientTransform="translate(11.9375 34.1566) rotate(-90) scale(27.7501 25.8097)">
<stop stop-color="#FFDD55"/>
<stop offset="0.1" stop-color="#FFDD55"/>
<stop offset="0.5" stop-color="#FF543E"/>
<stop offset="1" stop-color="#C837AB"/>
</radialGradient>
<radialGradient id="paint1_radial_214_122" cx="0" cy="0" r="1" gradientTransform="matrix(2.4347 12.1631 -50.1358 10.0414 -0.190149 6.01707)" gradientUnits="userSpaceOnUse">
<stop stop-color="#3771C8"/>
<stop offset="0.128" stop-color="#3771C8"/>
<stop offset="1" stop-color="#6600FF" stop-opacity="0"/>
</radialGradient>
</defs>
</svg>
