<svg width="32" height="32" viewBox="0 0 32 32" fill="none" xmlns="http://www.w3.org/2000/svg">
<path d="M5.39497 6.83702C5.56997 6.62002 5.75197 6.41002 5.93397 6.20002C5.94097 6.19302 5.96197 6.18602 5.96897 6.17902C5.98297 6.15802 6.01097 6.14402 6.03197 6.12302L6.04597 6.10202C6.17197 5.98302 6.31197 5.85702 6.46597 5.73802C7.02597 5.31802 7.59997 4.99602 8.20897 4.77902C10.169 4.09302 12.346 4.51302 14.054 6.13002C16.441 8.36302 16.224 11.968 14.32 14.362C11.912 17.932 7.78197 22.909 13.501 27.368C14.53 28.173 15.293 28.831 18.534 29.769C16.413 30.161 14.446 30.035 12.262 29.482C10.715 28.607 8.27897 26.738 7.45297 24.211C6.19997 20.382 9.65797 14.649 11.324 12.444C13.613 9.39202 9.90997 6.08802 7.17297 9.77702C5.75897 11.702 3.25997 17.141 4.12797 21.18C4.63197 23.469 5.31097 25.135 7.99197 27.431C7.49497 27.137 7.01197 26.808 6.54297 26.43C0.319971 20.627 1.04097 11.653 5.39497 6.83702Z" fill="url(#paint0_linear_2802_5595)"/>
<path d="M26.605 25.163C26.43 25.38 26.248 25.59 26.066 25.8C26.059 25.807 26.038 25.814 26.031 25.821C26.017 25.842 25.989 25.856 25.968 25.877L25.954 25.898C25.828 26.017 25.688 26.143 25.534 26.255C24.974 26.675 24.4 26.997 23.791 27.214C21.831 27.9 19.654 27.48 17.946 25.863C15.559 23.63 15.776 20.025 17.68 17.631C20.088 14.061 24.218 9.08402 18.499 4.62502C17.47 3.82002 16.707 3.16202 13.466 2.22402C15.587 1.83202 17.554 1.95802 19.738 2.51102C21.285 3.38602 23.721 5.25502 24.547 7.78202C25.8 11.611 22.342 17.344 20.676 19.549C18.387 22.601 22.09 25.905 24.827 22.216C26.255 20.291 28.754 14.852 27.886 10.813C27.382 8.52402 26.703 6.85802 24.022 4.56202C24.519 4.85602 25.002 5.18502 25.471 5.56302C31.68 11.373 30.959 20.347 26.605 25.163Z" fill="url(#paint1_linear_2802_5595)"/>
<defs>
<linearGradient id="paint0_linear_2802_5595" x1="1.99927" y1="16.002" x2="49.419" y2="16.002" gradientUnits="userSpaceOnUse">
<stop stop-color="#0082FA"/>
<stop offset="1" stop-color="#00F2FE"/>
</linearGradient>
<linearGradient id="paint1_linear_2802_5595" x1="1.99982" y1="14.7654" x2="29.9998" y2="14.7654" gradientUnits="userSpaceOnUse">
<stop stop-color="#0082FA"/>
<stop offset="1" stop-color="#00F2FE"/>
</linearGradient>
</defs>
</svg>
