<svg width="32" height="32" viewBox="0 0 32 32" fill="none" xmlns="http://www.w3.org/2000/svg">
<path d="M23.201 9C21.6398 9 19.9303 9.84872 18.1271 11.5228C17.2763 12.3092 16.5269 13.1657 15.9805 13.8432C15.9805 13.8432 16.8547 14.8476 17.8149 15.9299C18.3379 15.2759 19.0794 14.3882 19.9459 13.5862C21.5461 12.0912 22.5921 11.7875 23.1932 11.7875C25.4413 11.7875 27.2679 13.6719 27.2679 16C27.2679 18.3048 25.4413 20.1891 23.1932 20.2125C23.0839 20.2125 22.959 20.1969 22.8029 20.1657C23.4586 20.4694 24.1689 20.6874 24.8324 20.6874C28.954 20.6874 29.7658 17.8454 29.8127 17.6429C29.9297 17.1212 30 16.5762 30 16.0156C29.9922 12.1457 26.9479 9 23.201 9Z" fill="url(#paint0_linear_2802_5604)"/>
<path d="M8.799 22.9999C10.3602 22.9999 12.0697 22.1512 13.8729 20.4771C14.7237 19.6907 15.4731 18.8342 16.0195 18.1568C16.0195 18.1568 15.1453 17.1523 14.1851 16.07C13.6621 16.7241 12.9206 17.6117 12.0541 18.4137C10.4539 19.8932 9.40006 20.2124 8.80681 20.2124C6.55869 20.2124 4.73209 18.3281 4.73209 15.9999C4.73209 13.6952 6.55869 11.8108 8.80681 11.7875C8.91609 11.7875 9.04099 11.8031 9.19711 11.8342C8.54141 11.5305 7.83106 11.3125 7.16755 11.3125C3.046 11.3047 2.23418 14.1468 2.18734 14.357C2.07025 14.8787 2 15.4238 2 15.9844C2 19.8542 5.04433 22.9999 8.799 22.9999Z" fill="url(#paint1_linear_2802_5604)"/>
<path fill-rule="evenodd" clip-rule="evenodd" d="M11.9372 13.6485C11.4844 13.2125 9.28315 11.4294 7.17554 11.3671C3.41306 11.2736 2.31242 13.9989 2.21094 14.3493C2.93689 11.297 5.62215 9.01557 8.80698 9C11.4064 9 14.037 11.5462 15.9807 13.8432L15.9885 13.8354C15.9885 13.8354 16.8627 14.8398 17.8229 15.9221C17.8229 15.9221 18.9157 17.2069 20.071 18.3359C20.5238 18.772 22.7172 20.5317 24.8248 20.594C28.6888 20.703 29.7582 17.822 29.8129 17.604C29.1025 20.6796 26.4095 22.9689 23.209 22.9844C20.6096 22.9844 17.979 20.4383 16.0275 18.1413C16.0275 18.1491 16.0197 18.1491 16.0197 18.1568C16.0197 18.1568 15.1454 17.1524 14.1853 16.0701C14.1931 16.0701 13.1003 14.7775 11.9372 13.6485Z" fill="#29ABE2"/>
<defs>
<linearGradient id="paint0_linear_2802_5604" x1="19.5467" y1="10.1093" x2="29.1456" y2="19.8115" gradientUnits="userSpaceOnUse">
<stop offset="0.21" stop-color="#F15A24"/>
<stop offset="0.6841" stop-color="#FBB03B"/>
</linearGradient>
<linearGradient id="paint1_linear_2802_5604" x1="12.4558" y1="21.8922" x2="2.85685" y2="12.19" gradientUnits="userSpaceOnUse">
<stop offset="0.21" stop-color="#ED1E79"/>
<stop offset="0.8929" stop-color="#522785"/>
</linearGradient>
</defs>
</svg>
