<svg width="32" height="24" viewBox="0 0 32 24" fill="none" xmlns="http://www.w3.org/2000/svg">
<rect width="32" height="24" rx="4" fill="#EDAA00"/>
<path d="M17.5529 10.7129V6.24467L18.7375 5.96845V6.55348C18.7375 6.55348 19.0439 5.78336 19.7553 5.6044C19.9744 5.5501 20.0847 5.58268 20.0847 5.58268V6.72252C19.8715 6.72539 19.6609 6.76867 19.4643 6.85C19.0252 7.02046 18.8046 7.39348 18.8046 7.96009V10.4272L17.5529 10.7129ZM11.3103 12.1658C11.3103 12.1658 11.1185 11.8825 11.1185 10.8758V8.65136L10.5087 8.79301V7.87746L11.119 7.73581V6.73668L12.3784 6.44393V7.4407L13.2682 7.23294V8.14896L12.3784 8.35719V10.6236C12.3784 11.6535 12.656 11.8513 12.656 11.8513L11.3103 12.1658ZM13.3996 9.50789C13.3996 8.71322 13.5147 8.13385 13.7611 7.68906C14.054 7.16117 14.5358 6.81742 15.2368 6.66019C16.618 6.35091 17.1161 7.15645 17.0964 8.23584C17.0902 8.62161 17.0917 8.81001 17.0917 8.81001L14.6581 9.37332V9.41204C14.6581 10.1675 14.8192 10.525 15.3044 10.423C15.7234 10.3361 15.8399 10.0773 15.873 9.75814C15.8787 9.70573 15.8806 9.57494 15.8806 9.57494L17.0212 9.3058C17.0212 9.3058 17.0241 9.39787 17.0212 9.50033C17.0106 9.92954 16.8841 10.9938 15.2996 11.3621C13.799 11.713 13.3982 10.8102 13.3982 9.50789H13.3996ZM15.2857 7.49217C14.8825 7.58235 14.671 7.9719 14.6624 8.61736L15.8869 8.33028C15.8893 8.301 15.8893 8.23584 15.8893 8.13574C15.8869 7.64893 15.7339 7.39206 15.2861 7.49217H15.2857ZM24.3449 6.89486C24.2969 5.53405 24.6555 4.45371 26.1969 4.10902C27.1807 3.88898 27.5532 4.14018 27.7421 4.38335C27.9238 4.61566 27.9938 4.92872 27.9938 5.36737V5.44858L26.7866 5.73189V5.56616C26.7866 5.04676 26.6427 4.84845 26.2592 4.94288C25.8033 5.05573 25.6192 5.48164 25.6192 6.32967V6.72488C25.6192 7.5866 25.739 7.98134 26.264 7.87274C26.7204 7.7783 26.7827 7.38545 26.7914 7.03982C26.7914 6.98552 26.7947 6.81176 26.7947 6.81176L28 6.53223V6.71685C27.9966 7.8463 27.3921 8.55834 26.2587 8.81804C24.6992 9.17878 24.3933 8.28967 24.3453 6.89486H24.3449ZM20.1753 8.79962C20.1753 7.76461 20.7919 7.43739 21.7186 7.06012C22.5513 6.72063 22.5691 6.55206 22.5729 6.25742C22.5772 6.00953 22.4607 5.79658 22.0455 5.90093C21.6644 5.99536 21.5632 6.26828 21.5431 6.48548C21.5361 6.56177 21.5335 6.63839 21.5354 6.71496L20.3671 6.98646C20.3592 6.75713 20.3864 6.52792 20.4476 6.30653C20.6346 5.6875 21.1893 5.27104 22.1453 5.05337C23.3879 4.77007 23.8026 5.30835 23.8046 6.1441V8.12299C23.8046 9.0801 23.9848 9.21986 23.9848 9.21986L22.8376 9.48759C22.7741 9.35694 22.7225 9.22106 22.6832 9.08151C22.6832 9.08151 22.4324 9.70432 21.5666 9.90546C20.6557 10.1161 20.1763 9.56172 20.1763 8.8001L20.1753 8.79962ZM22.5662 7.38687C22.3727 7.52041 22.1685 7.63806 21.9554 7.73864C21.5719 7.92326 21.3998 8.14991 21.3998 8.49932C21.3998 8.80199 21.5915 9.00124 21.9367 8.91625C22.3083 8.82465 22.5662 8.48327 22.5662 8.00967V7.38687ZM4.72682 15.2977C4.59589 15.2975 4.46746 15.2624 4.35504 15.1963C4.24262 15.1302 4.15038 15.0355 4.08801 14.9221C4.02564 14.8088 3.99546 14.6809 4.00065 14.5521C4.00583 14.4232 4.04619 14.2982 4.11747 14.19L4.12514 14.1801L4.13904 14.1768L5.85059 13.7787V15.0597L5.82374 15.0659C5.43541 15.158 4.97133 15.2623 4.87544 15.2817C4.82634 15.2925 4.77617 15.2979 4.72586 15.2977H4.72682ZM4.72682 16.9366C4.53447 16.9367 4.34997 16.8616 4.21373 16.7278C4.0775 16.5941 4.00064 16.4126 4.00001 16.2232C3.99924 16.0849 4.04012 15.9495 4.11747 15.8341L4.12514 15.8214L4.13904 15.8185L5.85059 15.4205V16.7015L5.82374 16.7086C5.43541 16.8002 4.97133 16.9064 4.87544 16.9248C4.82617 16.9343 4.77607 16.9391 4.72586 16.939L4.72682 16.9366ZM4.72682 18.5784C4.53401 18.5783 4.34915 18.5028 4.21286 18.3684C4.07657 18.2341 4.00001 18.052 4.00001 17.8621C3.99924 17.7238 4.04012 17.5884 4.11747 17.473L4.12514 17.4598L5.85107 17.0594V18.3404L5.82422 18.347C5.41431 18.4443 4.95838 18.5458 4.87592 18.5642C4.82661 18.5735 4.77654 18.5783 4.72634 18.5784" fill="#231F20"/>
<path d="M4.52807 13.7279L4.52759 6.56076L5.85416 6.25195V13.4187L4.52807 13.7279Z" fill="#231F20"/>
<path d="M7.8284 13.1179C7.82322 12.9074 7.73471 12.7073 7.58175 12.5603C7.42879 12.4132 7.22352 12.3309 7.00978 12.3309C6.79604 12.3309 6.59076 12.4132 6.43781 12.5603C6.28485 12.7073 6.19633 12.9074 6.19116 13.1179V19.8171C6.19218 20.3957 6.42595 20.9502 6.84127 21.3594C7.2566 21.7685 7.81964 21.9989 8.40706 22C9.02648 22 10.7236 21.9972 10.7236 21.9972V16.086C10.724 15.9122 10.6807 15.7411 10.5976 15.5878C10.5145 15.4345 10.3943 15.3038 10.2476 15.2073L8.18221 13.8257V16.9628C8.18346 16.9863 8.17984 17.0098 8.17157 17.0319C8.1633 17.0539 8.15056 17.0741 8.13412 17.0912C8.11768 17.1082 8.09789 17.1218 8.07595 17.1311C8.05401 17.1404 8.03038 17.1451 8.0065 17.1451C7.98262 17.1451 7.959 17.1404 7.93705 17.1311C7.91511 17.1218 7.89532 17.1082 7.87888 17.0912C7.86245 17.0741 7.8497 17.0539 7.84144 17.0319C7.83317 17.0098 7.82955 16.9863 7.83079 16.9628C7.83079 16.9293 7.82648 13.532 7.82648 13.1179H7.8284ZM8.93395 8.11989C8.68313 8.17698 8.44776 8.28667 8.2439 8.4415C8.04004 8.59632 7.87248 8.79263 7.75265 9.01702V8.5151L6.5584 8.79368V12.0106C6.76787 11.9292 6.9961 11.9064 7.21792 11.9446C7.43973 11.9829 7.64651 12.0807 7.81545 12.2274V10.1498C7.81545 9.65257 8.06763 9.255 8.42624 9.17709C8.69711 9.11854 8.92244 9.21392 8.92244 9.68751V12.7184L10.18 12.4276V9.22195C10.18 8.44427 9.87698 7.89985 8.93347 8.11989H8.93395ZM27.2168 3.53269C27.0629 3.53278 26.9124 3.48793 26.7844 3.4038C26.6564 3.31967 26.5566 3.20004 26.4976 3.06005C26.4387 2.92005 26.4231 2.76598 26.4531 2.6173C26.483 2.46863 26.557 2.33203 26.6658 2.22479C26.7745 2.11755 26.9131 2.04448 27.0641 2.01482C27.215 1.98516 27.3714 2.00024 27.5136 2.05815C27.6559 2.11607 27.7774 2.21422 27.863 2.34019C27.9486 2.46617 27.9943 2.6143 27.9944 2.76587C27.994 2.96883 27.912 3.16337 27.7662 3.30684C27.6205 3.45032 27.4229 3.53102 27.2168 3.53127V3.53269ZM27.2168 2.09538C27.0823 2.09538 26.9508 2.13466 26.8389 2.20827C26.727 2.28187 26.6398 2.38648 26.5883 2.50889C26.5368 2.63129 26.5233 2.76598 26.5495 2.89594C26.5757 3.0259 26.6405 3.14528 26.7356 3.23901C26.8307 3.33273 26.9519 3.39658 27.0838 3.42249C27.2157 3.44839 27.3525 3.43519 27.4768 3.38455C27.6011 3.33391 27.7074 3.24811 27.7822 3.13799C27.857 3.02786 27.897 2.89837 27.8971 2.76587C27.8969 2.5882 27.8251 2.41788 27.6976 2.2922C27.5701 2.16653 27.3972 2.09575 27.2168 2.09538Z" fill="#231F20"/>
<path d="M26.9338 2.31055H27.2694C27.4032 2.31055 27.5091 2.37619 27.5091 2.55044C27.5091 2.6718 27.4545 2.76531 27.3509 2.78136C27.4468 2.79081 27.4948 2.84181 27.4991 2.97356C27.4991 3.03259 27.502 3.10626 27.5048 3.16245C27.5048 3.1785 27.5089 3.1943 27.5168 3.20834C27.5247 3.22239 27.5361 3.23423 27.5499 3.24273H27.3792C27.3621 3.21852 27.353 3.18962 27.3533 3.16009C27.3476 3.1039 27.3485 3.05148 27.3466 2.98348C27.3466 2.88148 27.3126 2.83661 27.2081 2.83661H27.0877V3.24273H26.9358L26.9338 2.31055ZM27.2066 2.72706C27.2273 2.72893 27.248 2.72627 27.2675 2.71925C27.2869 2.71223 27.3045 2.70103 27.319 2.68647C27.3336 2.67191 27.3446 2.65435 27.3513 2.63507C27.3581 2.61579 27.3604 2.59527 27.3581 2.575C27.3581 2.47536 27.315 2.42341 27.2143 2.42341H27.0877V2.72706H27.2066Z" fill="#231F20"/>
</svg>
