<svg width="32" height="32" viewBox="0 0 32 32" fill="none" xmlns="http://www.w3.org/2000/svg">
<rect x="2" y="10" width="2.21375" height="2.24889" fill="#0068B5"/>
<path d="M30 10H27.7822V21.8125H30V10Z" fill="black"/>
<path d="M14.3828 10.6102H16.6007V13.75H17.9868V15.5781H16.6007L16.6007 18.8828C16.6007 19.9141 17.4708 19.9688 17.9637 19.8672V21.8594C15.0254 21.8594 14.383 20.9455 14.3828 18.3915V10.6102Z" fill="black"/>
<path d="M7.59076 14.7074C8.06917 14.1675 8.91201 13.5625 10.0858 13.5625C12.0726 13.5625 13.2508 15.2969 13.2508 16.7734V21.8125H11.1254V17.1953C11.11 16.6016 10.7373 15.4141 9.36964 15.4141C8.42491 15.4141 7.87409 16.0478 7.59076 16.6586V21.8125H5.37294V13.75H7.59076V14.7074Z" fill="black"/>
<path d="M2 13.75H4.21782V21.8125H2V13.75Z" fill="black"/>
<path fill-rule="evenodd" clip-rule="evenodd" d="M20.5102 18.5312H26.8581V17.7812C26.8581 15.4513 24.9963 13.5625 22.6997 13.5625C20.403 13.5625 18.5413 15.4513 18.5413 17.7812C18.5413 20.1112 20.403 22 22.6997 22C24.0473 22 25.2454 21.3486 26.0037 20.3431L24.536 19.2037C24.1122 19.7655 23.4475 20.125 22.6997 20.125C21.6823 20.125 20.8185 19.4578 20.5102 18.5312ZM24.8729 16.9843C24.5515 16.0822 23.6998 15.4375 22.6997 15.4375C21.6996 15.4375 20.8479 16.0822 20.5264 16.9843H24.8729Z" fill="black"/>
</svg>
