<svg width="32" height="32" viewBox="0 0 32 32" fill="none" xmlns="http://www.w3.org/2000/svg">
<path d="M22.3634 5.55476C23.2182 5.55476 23.9127 4.84664 23.9127 3.97665C23.9127 3.10666 23.2182 2.39966 22.3634 2.39966C21.5087 2.40415 20.8142 3.11116 20.8142 3.98115C20.8142 4.85113 21.5087 5.55476 22.3634 5.55476ZM22.8205 9.65517C23.171 9.65249 23.5062 9.5102 23.7522 9.25959C23.9982 9.00898 24.1349 8.67058 24.1323 8.31883C24.1323 7.58372 23.5453 6.98237 22.8205 6.98237C22.0957 6.98237 21.5087 7.57922 21.5087 8.31883C21.5087 9.05843 22.0946 9.65517 22.8205 9.65517ZM26.422 10.1778C27.1434 10.1778 27.7304 9.58098 27.7304 8.84475C27.7304 8.10852 27.1434 7.51167 26.422 7.51167C25.7006 7.51167 25.1136 8.10852 25.1136 8.84475C25.1136 9.58098 25.7017 10.1778 26.422 10.1778ZM25.9896 13.6859C26.608 13.6859 27.1087 13.1756 27.1087 12.5473C27.1087 11.9189 26.608 11.4086 25.9896 11.4086C25.3712 11.4086 24.8705 11.9189 24.8705 12.5473C24.8705 13.1756 25.3712 13.6859 25.9896 13.6859ZM28.8731 14.8234C29.4959 14.8234 30 14.3097 30 13.6769C30 13.0441 29.4959 12.5304 28.8731 12.5304C28.724 12.5314 28.5767 12.5619 28.4394 12.6201C28.3021 12.6782 28.1776 12.763 28.0729 12.8694C27.9683 12.9759 27.8856 13.102 27.8295 13.2405C27.7734 13.3791 27.7451 13.5274 27.7461 13.6769C27.7461 14.3097 28.2513 14.8234 28.8731 14.8234ZM22.3657 13.2115C22.5172 13.2107 22.6671 13.1798 22.8067 13.1208C22.9464 13.0618 23.0731 12.9758 23.1796 12.8677C23.2861 12.7596 23.3704 12.6314 23.4275 12.4906C23.4847 12.3498 23.5137 12.1991 23.5128 12.0471V12.0448C23.5128 11.4008 23.0008 10.8781 22.3657 10.8781C21.7305 10.8781 21.2186 11.3996 21.2186 12.0448C21.2186 12.6855 21.7316 13.2115 22.3657 13.2115ZM21.3261 16.0025C21.8582 16.0025 22.2873 15.5641 22.2873 15.0257C22.2893 14.7688 22.1896 14.5215 22.01 14.3383C21.8304 14.1551 21.5857 14.051 21.3296 14.0489H21.3261C20.794 14.0489 20.365 14.4873 20.365 15.0257C20.365 15.5641 20.794 16.0025 21.3261 16.0025ZM24.9332 16.4959C25.0593 16.495 25.1839 16.4693 25.3001 16.4201C25.4162 16.3709 25.5215 16.2992 25.6101 16.2091C25.6986 16.1191 25.7686 16.0124 25.816 15.8952C25.8634 15.778 25.8874 15.6526 25.8865 15.5261V15.5238C25.8865 14.9865 25.4609 14.5515 24.9332 14.5515C24.4056 14.5515 23.9799 14.9865 23.9799 15.5238C23.9783 15.6498 24.0014 15.7749 24.048 15.892C24.0945 16.009 24.1636 16.1158 24.2513 16.206C24.339 16.2963 24.4435 16.3684 24.5589 16.4181C24.6744 16.4678 24.7984 16.4943 24.924 16.4959H24.9332ZM27.8088 17.6289C28.3409 17.6289 28.77 17.1906 28.77 16.6488C28.77 16.107 28.3409 15.6686 27.8088 15.6686C27.2767 15.6686 26.8477 16.107 26.8477 16.6488C26.845 16.906 26.9443 17.1538 27.1237 17.3376C27.303 17.5214 27.5479 17.6262 27.8042 17.6289H27.8088ZM26.3884 19.7466C26.8376 19.7466 27.2006 19.3745 27.2006 18.9204C27.2006 18.4663 26.8376 18.0943 26.3884 18.0943C25.9392 18.0943 25.5762 18.4663 25.5762 18.9204C25.5762 19.3745 25.9392 19.7466 26.3884 19.7466ZM23.4993 18.6315C23.9564 18.6315 24.3305 18.2516 24.3305 17.7852C24.3305 17.3187 23.9598 16.9388 23.4993 16.9388C23.0389 16.9388 22.6681 17.3187 22.6681 17.7852C22.6681 18.2516 23.0423 18.6315 23.4993 18.6315ZM19.8967 18.1145C20.116 18.111 20.3251 18.0213 20.479 17.8645C20.6329 17.7077 20.7192 17.4966 20.7194 17.2765C20.7195 17.0565 20.6335 16.8452 20.4798 16.6882C20.3261 16.5313 20.1171 16.4412 19.8978 16.4375H19.8967C19.6774 16.4409 19.4683 16.5307 19.3144 16.6875C19.1605 16.8442 19.0742 17.0554 19.074 17.2754C19.0739 17.4955 19.1599 17.7067 19.3136 17.8637C19.4673 18.0207 19.6763 18.1107 19.8956 18.1145H19.8967ZM21.8997 20.104C22.2973 20.104 22.6166 19.7758 22.6166 19.3768C22.6184 19.1857 22.5445 19.0017 22.4111 18.8653C22.2777 18.729 22.0958 18.6513 21.9054 18.6495H21.8997C21.502 18.6495 21.1827 18.9777 21.1827 19.3768C21.1806 19.5675 21.2541 19.7513 21.3871 19.8877C21.5201 20.0241 21.7016 20.1019 21.8917 20.104H21.8997ZM24.7876 21.2381C25.1853 21.2381 25.5124 20.9099 25.5124 20.503C25.5124 20.0961 25.1898 19.7679 24.7876 19.7679C24.5933 19.7679 24.4069 19.8454 24.2696 19.9832C24.1322 20.1211 24.055 20.3081 24.055 20.503C24.055 20.698 24.1322 20.885 24.2696 21.0228C24.4069 21.1607 24.5933 21.2381 24.7876 21.2381ZM23.161 22.089C23.4758 22.089 23.7323 21.8282 23.7323 21.5079C23.7332 21.3549 23.6736 21.2077 23.5665 21.0988C23.4594 20.9898 23.3135 20.928 23.161 20.9268C22.8462 20.9268 22.5897 21.1875 22.5897 21.5079C22.5894 21.6607 22.6493 21.8075 22.7562 21.9164C22.8632 22.0252 23.0087 22.0872 23.161 22.089ZM21.6196 22.5454C21.6878 22.5449 21.7553 22.531 21.8182 22.5044C21.8811 22.4778 21.9382 22.439 21.9861 22.3903C22.0341 22.3416 22.072 22.2839 22.0977 22.2205C22.1234 22.157 22.1365 22.0891 22.136 22.0207V22.0193C22.136 21.7271 21.903 21.4933 21.6196 21.4933C21.5514 21.4937 21.4839 21.5076 21.421 21.5342C21.3581 21.5608 21.301 21.5996 21.2531 21.6483C21.2051 21.697 21.1672 21.7547 21.1415 21.8182C21.1158 21.8816 21.1028 21.9495 21.1032 22.018V22.0193C21.1008 22.1564 21.1528 22.2888 21.2477 22.3875C21.3427 22.4861 21.4728 22.5428 21.6094 22.5452L21.6196 22.5454ZM20.2697 21.0324C20.6092 21.0324 20.8847 20.7514 20.8847 20.4075C20.8847 20.0635 20.6092 19.7825 20.2697 19.7825C19.9303 19.7825 19.6547 20.0635 19.6547 20.4075C19.6544 20.572 19.7188 20.7299 19.834 20.847C19.9492 20.964 20.1058 21.0307 20.2697 21.0324ZM18.2892 19.5993C18.6835 19.5993 19.0061 19.2756 19.0061 18.8721C19.0061 18.4686 18.6869 18.1448 18.2892 18.1448C17.8949 18.1448 17.5722 18.4686 17.5722 18.8721C17.5719 19.0637 17.6471 19.2476 17.7814 19.3839C17.9157 19.5201 18.0982 19.5975 18.2892 19.5993ZM24.1625 28.7106C25.0139 28.7106 25.7039 28.0069 25.7039 27.1403C25.7039 26.2737 25.0139 25.5701 24.1625 25.5701C23.3111 25.5701 22.6211 26.2737 22.6211 27.1403C22.6211 28.0069 23.3111 28.7106 24.1625 28.7106ZM20.2473 26.7233C20.9564 26.7233 21.5322 26.1377 21.5322 25.415C21.5322 24.6922 20.9564 24.1066 20.2473 24.1066C19.5382 24.1066 18.9624 24.6922 18.9624 25.415C18.9624 26.1377 19.5371 26.7233 20.2473 26.7233ZM18.0102 29.5997C18.7272 29.5997 19.3063 29.0107 19.3063 28.2789C19.3063 27.5517 18.7272 26.9582 18.0102 26.9582C17.2933 26.9582 16.7141 27.5472 16.7141 28.2789C16.7115 28.6265 16.8465 28.9609 17.0895 29.2086C17.3326 29.4563 17.6637 29.597 18.0101 29.5997H18.0102ZM17.337 24.2999C17.4856 24.2989 17.6325 24.2685 17.7694 24.2105C17.9063 24.1525 18.0304 24.068 18.1347 23.9619C18.2391 23.8557 18.3215 23.73 18.3775 23.5919C18.4334 23.4537 18.4616 23.3059 18.4606 23.1568C18.4616 23.0077 18.4334 22.8599 18.3775 22.7218C18.3215 22.5836 18.2391 22.4579 18.1347 22.3518C18.0304 22.2456 17.9063 22.1611 17.7694 22.1031C17.6325 22.0451 17.4856 22.0147 17.337 22.0137C17.1884 22.0147 17.0415 22.0451 16.9046 22.1031C16.7677 22.1611 16.6436 22.2456 16.5392 22.3518C16.4349 22.4579 16.3524 22.5836 16.2965 22.7218C16.2406 22.8599 16.2124 23.0077 16.2134 23.1568C16.2145 23.7863 16.7186 24.2999 17.337 24.2999ZM15.1055 27.2156C15.7239 27.2156 16.2246 26.7053 16.2246 26.077C16.2246 25.4487 15.7239 24.9384 15.1055 24.9384C14.4871 24.9384 13.9864 25.4487 13.9864 26.077C13.9834 26.376 14.099 26.6639 14.3075 26.8774C14.5161 27.0909 14.8007 27.2126 15.0987 27.2156H15.1055ZM12.7004 29.1939C13.3187 29.1939 13.8161 28.6836 13.8161 28.0586C13.8161 27.4303 13.3154 26.9234 12.7004 26.9234C12.082 26.9234 11.5846 27.4337 11.5846 28.0586C11.5846 28.6836 12.0854 29.1939 12.7004 29.1939ZM10.6985 26.6188C10.9528 26.6164 11.1958 26.5132 11.3744 26.3317C11.553 26.1501 11.6528 25.905 11.6518 25.6499C11.6518 25.116 11.2262 24.681 10.6985 24.681C10.445 24.6849 10.2031 24.7886 10.0252 24.9699C9.84724 25.1512 9.7475 25.3954 9.7475 25.6499C9.7475 25.9043 9.84724 26.1486 10.0252 26.3298C10.2031 26.5111 10.445 26.6149 10.6985 26.6188ZM13.1081 24.6315C13.3626 24.6297 13.6059 24.5267 13.7846 24.345C13.9634 24.1633 14.0629 23.9179 14.0615 23.6626C14.0615 23.1253 13.6358 22.6937 13.1081 22.6937C12.8546 22.6971 12.6125 22.8005 12.4342 22.9815C12.2559 23.1624 12.1558 23.4065 12.1553 23.661C12.1549 23.9154 12.2542 24.1598 12.4319 24.3414C12.6095 24.523 12.8512 24.6272 13.1048 24.6315H13.1081ZM15.3564 21.717C15.4825 21.7161 15.6071 21.6903 15.7233 21.6411C15.8394 21.5919 15.9447 21.5202 16.0333 21.4302C16.1218 21.3401 16.1918 21.2334 16.2392 21.1163C16.2866 20.9991 16.3106 20.8736 16.3097 20.7472V20.7448C16.3097 20.2075 15.8841 19.7725 15.3564 19.7725C15.2304 19.7734 15.1057 19.7992 14.9896 19.8484C14.8735 19.8976 14.7681 19.9693 14.6796 20.0593C14.5911 20.1494 14.5211 20.256 14.4737 20.3732C14.4262 20.4904 14.4022 20.6158 14.4031 20.7423V20.7447C14.4031 21.282 14.8288 21.717 15.3564 21.717ZM11.9173 22.1182C12.3744 22.1182 12.7452 21.7428 12.7452 21.2763C12.7452 20.8099 12.3744 20.4345 11.9173 20.4345C11.4603 20.4345 11.0895 20.8099 11.0895 21.2763C11.0895 21.7428 11.4603 22.1182 11.9173 22.1182ZM9.52006 24.0976C9.62834 24.097 9.73544 24.075 9.83524 24.0329C9.93505 23.9908 10.0256 23.9294 10.1018 23.8521C10.1779 23.7749 10.2381 23.6834 10.279 23.5828C10.3199 23.4822 10.3407 23.3745 10.3401 23.2658V23.2636C10.3422 23.0445 10.2574 22.8336 10.1045 22.6771C9.95159 22.5207 9.74301 22.4317 9.52466 22.4296H9.52006C9.41179 22.4302 9.30469 22.4521 9.20489 22.4943C9.10508 22.5364 9.01452 22.5978 8.93837 22.6751C8.86223 22.7523 8.80199 22.8438 8.7611 22.9444C8.72021 23.045 8.69947 23.1527 8.70006 23.2613V23.2636C8.69932 23.3724 8.71995 23.4803 8.76076 23.581C8.80157 23.6818 8.86176 23.7736 8.93791 23.851C9.01405 23.9285 9.10466 23.9901 9.20454 24.0324C9.30443 24.0747 9.41164 24.0969 9.52006 24.0976ZM8.96891 21.7777C9.15788 21.7762 9.33857 21.6996 9.47146 21.5648C9.60435 21.43 9.67861 21.2479 9.67802 21.0583C9.67802 20.6593 9.35875 20.3389 8.96891 20.3389C8.57908 20.3389 8.25981 20.6626 8.25981 21.0583C8.25981 21.4573 8.57908 21.7777 8.96891 21.7777ZM8.94875 19.7421C9.02922 19.7413 9.10876 19.7247 9.18282 19.6931C9.25689 19.6615 9.32402 19.6156 9.3804 19.558C9.43679 19.5004 9.4813 19.4322 9.51142 19.3573C9.54153 19.2824 9.55665 19.2023 9.55591 19.1216C9.55591 18.781 9.2837 18.5012 8.94875 18.5012C8.6138 18.5012 8.34159 18.7777 8.34159 19.1216C8.34159 19.4656 8.6138 19.7421 8.94875 19.7421ZM9.28258 18.0493C9.57047 18.0493 9.799 17.8121 9.799 17.5233C9.799 17.2344 9.56599 16.9972 9.28258 16.9972C8.99468 16.9972 8.76615 17.2344 8.76615 17.5233C8.76615 17.8121 8.99468 18.0493 9.28258 18.0493ZM11.3494 17.766C11.6888 17.766 11.9644 17.485 11.9644 17.1411C11.9644 16.7971 11.6888 16.5161 11.3494 16.5161C11.01 16.5161 10.7344 16.7971 10.7344 17.1411C10.7338 17.3057 10.7981 17.4638 10.9134 17.5809C11.0286 17.698 11.1854 17.7646 11.3494 17.766ZM13.6178 16.8792C14.0122 16.8792 14.3348 16.551 14.3348 16.152C14.3366 15.9609 14.2627 15.7769 14.1293 15.6406C13.9959 15.5042 13.814 15.4265 13.6236 15.4247H13.6178C13.2235 15.4247 12.9009 15.7529 12.9009 16.152C12.9002 16.2467 12.918 16.3407 12.9535 16.4285C12.989 16.5164 13.0413 16.5963 13.1076 16.6639C13.1738 16.7314 13.2527 16.7852 13.3397 16.8221C13.4267 16.8591 13.52 16.8785 13.6145 16.8792H13.6178ZM14.1578 19.1879C14.3735 19.1875 14.5802 19.1011 14.7326 18.9478C14.8849 18.7945 14.9703 18.5868 14.9701 18.3704C14.9698 18.1539 14.884 17.9464 14.7314 17.7934C14.5787 17.6404 14.3718 17.5545 14.1561 17.5545C13.9404 17.5545 13.7335 17.6404 13.5809 17.7934C13.4282 17.9464 13.3424 18.1539 13.3422 18.3704C13.3419 18.5868 13.4274 18.7945 13.5797 18.9478C13.732 19.1011 13.9387 19.1875 14.1544 19.1879H14.1578ZM11.3785 19.8028C11.7728 19.8028 12.0876 19.479 12.0876 19.0789C12.0876 18.6787 11.7684 18.355 11.3785 18.355C11.2848 18.3556 11.1921 18.3747 11.1058 18.4112C11.0194 18.4477 10.9411 18.5009 10.8753 18.5678C10.8094 18.6347 10.7573 18.714 10.722 18.8011C10.6867 18.8882 10.6688 18.9814 10.6694 19.0754V19.0789C10.6681 19.1726 10.6852 19.2657 10.7197 19.3527C10.7542 19.4398 10.8054 19.5192 10.8705 19.5865C10.9356 19.6537 11.0133 19.7073 11.0991 19.7444C11.1848 19.7815 11.2771 19.8013 11.3705 19.8026H11.3785V19.8028ZM3.53695 18.7293C4.38384 18.7293 5.07389 18.0291 5.07389 17.1669C5.07389 16.3048 4.38384 15.6046 3.53695 15.6046C2.69006 15.6046 2 16.306 2 17.1681C2 18.0302 2.69006 18.7293 3.53695 18.7293ZM7.02533 15.9395C7.75459 15.9395 8.34159 15.3382 8.34159 14.5986C8.34159 13.859 7.75011 13.2576 7.02533 13.2576C6.67387 13.26 6.33775 13.4024 6.09091 13.6534C5.84406 13.9044 5.70671 14.2436 5.70906 14.5962V14.5986C5.70906 15.3427 6.30054 15.9395 7.02533 15.9395ZM5.66425 12.5C6.38904 12.5 6.97267 11.9032 6.97267 11.167C6.97267 10.4307 6.38568 9.83388 5.66425 9.83388C5.49126 9.83505 5.32018 9.87039 5.1608 9.93789C5.00141 10.0054 4.85685 10.1037 4.73534 10.2273C4.61384 10.3509 4.51779 10.4973 4.45268 10.6581C4.38756 10.8189 4.35465 10.991 4.35583 11.1646V11.167C4.35228 11.5169 4.48741 11.854 4.7315 12.104C4.97558 12.3539 5.30864 12.4964 5.65742 12.5H5.66425ZM9.02717 10.8702C9.64553 10.8702 10.1508 10.3599 10.1508 9.7271C10.1508 9.09428 9.64665 8.58398 9.02717 8.58398C8.40768 8.58398 7.90358 9.09428 7.90358 9.7271C7.90358 10.3599 8.4088 10.8702 9.02717 10.8702ZM10.4017 14.3018C11.0245 14.3018 11.5286 13.7882 11.5286 13.1553C11.5286 12.5225 11.0245 12.0089 10.4017 12.0089C9.77884 12.0089 9.27473 12.5225 9.27473 13.1553C9.27473 13.7882 9.77884 14.3018 10.4017 14.3018ZM13.4621 13.5892C13.7182 13.5871 13.963 13.483 14.1426 13.2999C14.3222 13.1167 14.422 12.8695 14.4199 12.6126C14.4219 12.4864 14.399 12.361 14.3526 12.2437C14.3063 12.1263 14.2373 12.0193 14.1498 11.9287C14.0622 11.8381 13.9577 11.7657 13.8422 11.7156C13.7268 11.6655 13.6026 11.6387 13.4768 11.6368C13.351 11.6349 13.2261 11.6578 13.1092 11.7043C12.9922 11.7508 12.8856 11.82 12.7952 11.9079C12.7049 11.9957 12.6328 12.1006 12.5829 12.2165C12.533 12.3323 12.5063 12.4569 12.5043 12.5831C12.5043 12.593 12.5043 12.6028 12.5043 12.6126C12.5014 12.8686 12.5999 13.1154 12.7782 13.2985C12.9566 13.4817 13.2001 13.5863 13.4553 13.5893L13.4621 13.5892ZM16.1059 13.5982C16.5629 13.5982 16.9337 13.2228 16.9337 12.7597C16.9337 12.2966 16.5629 11.9212 16.1059 11.9212C15.8842 11.9212 15.6717 12.0095 15.5149 12.1668C15.3582 12.324 15.2702 12.5373 15.2702 12.7597C15.2702 12.9821 15.3582 13.1954 15.5149 13.3526C15.6717 13.5099 15.8842 13.5982 16.1059 13.5982ZM18.2903 14.1029C18.6723 14.1029 18.9882 13.787 18.9882 13.3948C18.9882 13.0025 18.6768 12.6866 18.2903 12.6866C18.1043 12.6881 17.9264 12.7634 17.7956 12.8961C17.6648 13.0288 17.5918 13.2081 17.5924 13.3948C17.5969 13.7825 17.9072 14.1029 18.2903 14.1029ZM18.5748 11.5199C18.7369 11.5187 18.8918 11.4531 19.0057 11.3374C19.1195 11.2217 19.1829 11.0654 19.182 10.9028C19.182 10.5622 18.9098 10.2857 18.5748 10.2857C18.2399 10.2857 17.9677 10.5622 17.9677 10.9028C17.9667 11.0654 18.0302 11.2217 18.144 11.3374C18.2579 11.4531 18.4128 11.5187 18.5748 11.5199ZM16.8945 10.6746C17.0799 10.6742 17.2576 10.5999 17.3884 10.4681C17.5193 10.3363 17.5927 10.1578 17.5925 9.97172C17.5922 9.78567 17.5184 9.60732 17.3872 9.47585C17.256 9.34438 17.0782 9.27053 16.8928 9.27053C16.7073 9.27053 16.5295 9.34438 16.3983 9.47585C16.2671 9.60732 16.1933 9.78567 16.1931 9.97172C16.1928 10.1578 16.2662 10.3363 16.3971 10.4681C16.528 10.5999 16.7056 10.6742 16.891 10.6746H16.8945ZM14.7358 10.1621C14.9547 10.1603 15.1639 10.0715 15.3177 9.91517C15.4714 9.75882 15.557 9.54769 15.5558 9.32808C15.5558 8.86498 15.1895 8.49406 14.7358 8.49406C14.2821 8.49406 13.9158 8.86948 13.9158 9.32808C13.9149 9.43672 13.9354 9.54447 13.976 9.64518C14.0166 9.74589 14.0766 9.83759 14.1525 9.91503C14.2285 9.99248 14.3189 10.0542 14.4186 10.0965C14.5183 10.1389 14.6253 10.1612 14.7336 10.1621H14.7358ZM12.0966 10.1655C12.6287 10.1655 13.0577 9.7271 13.0577 9.1887C13.0577 8.6503 12.6287 8.21193 12.0966 8.21193C11.5645 8.21193 11.1354 8.6503 11.1354 9.1887C11.1345 9.44589 11.2351 9.69299 11.4152 9.87601C11.5953 10.059 11.8403 10.1631 12.0966 10.1655ZM8.54211 7.72299C9.14479 7.72299 9.62985 7.22842 9.62985 6.61583C9.62985 6.00325 9.14143 5.50868 8.54211 5.50868C7.93943 5.50868 7.45437 6.00325 7.45437 6.61583C7.45437 7.22842 7.94279 7.72299 8.54211 7.72299ZM11.6014 7.05195C12.1335 7.05195 12.5626 6.61358 12.5626 6.07518C12.5626 5.53678 12.1335 5.09841 11.6014 5.09841C11.0693 5.09841 10.6403 5.53678 10.6403 6.07518C10.6403 6.61358 11.0693 7.05195 11.6014 7.05195ZM14.244 7.06431C14.7011 7.06431 15.0719 6.68889 15.0719 6.22243C15.0719 5.75596 14.7011 5.38054 14.244 5.38054C14.1347 5.38113 14.0266 5.40332 13.9259 5.44583C13.8251 5.48835 13.7337 5.55036 13.6568 5.62833C13.5799 5.70629 13.5191 5.79869 13.4778 5.90024C13.4366 6.00179 13.4156 6.11051 13.4162 6.22018V6.22243C13.4153 6.44405 13.5018 6.65703 13.657 6.81479C13.8121 6.97255 14.0232 7.06227 14.244 7.06431ZM16.4128 7.56562C16.7993 7.56562 17.1107 7.24978 17.1107 6.8575C17.1107 6.46522 16.7993 6.14937 16.4128 6.14937C16.2256 6.14937 16.0461 6.22397 15.9138 6.35677C15.7814 6.48957 15.7071 6.66969 15.7071 6.8575C15.7071 7.0453 15.7814 7.22542 15.9138 7.35822C16.0461 7.49102 16.2256 7.56562 16.4128 7.56562ZM18.0786 8.43336C18.2448 8.43217 18.4037 8.36487 18.5205 8.24622C18.6372 8.12758 18.7023 7.96729 18.7014 7.80054C18.7014 7.44873 18.4214 7.16772 18.0786 7.16772C17.7358 7.16772 17.4557 7.4521 17.4557 7.80054C17.4557 8.14899 17.7358 8.43336 18.0786 8.43336ZM19.3007 9.42924C19.3684 9.4288 19.4353 9.41499 19.4977 9.38859C19.56 9.3622 19.6166 9.32374 19.6641 9.27542C19.7117 9.22709 19.7493 9.16985 19.7747 9.10694C19.8002 9.04404 19.8131 8.97672 19.8127 8.90882V8.9077C19.8133 8.8398 19.8005 8.77244 19.7752 8.70949C19.7498 8.64653 19.7124 8.5892 19.6649 8.54077C19.6175 8.49234 19.561 8.45376 19.4987 8.42723C19.4364 8.4007 19.3695 8.38674 19.3019 8.38615H19.3007C19.2331 8.3866 19.1661 8.40041 19.1038 8.4268C19.0414 8.45319 18.9849 8.49165 18.9373 8.53997C18.8898 8.5883 18.8522 8.64555 18.8267 8.70845C18.8012 8.77135 18.7884 8.83867 18.7888 8.90657V8.9077C18.7878 8.97515 18.8 9.04215 18.8248 9.10486C18.8495 9.16758 18.8864 9.22478 18.9332 9.2732C18.98 9.32162 19.0359 9.36032 19.0976 9.38707C19.1593 9.41382 19.2257 9.42812 19.2929 9.42913H19.301L19.3007 9.42924Z" fill="black"/>
</svg>
