<svg width="32" height="32" viewBox="0 0 32 32" fill="none" xmlns="http://www.w3.org/2000/svg">
<path d="M16.0431 9.38555C21.8078 4.91031 18.8492 2 18.8492 2C19.2895 6.62646 14.086 7.71885 12.6912 10.898C11.7394 13.0674 13.3429 14.9669 16.0412 17.361C15.8027 16.8307 15.4348 16.3155 15.0623 15.7939C13.792 14.0149 12.4686 12.1615 16.0431 9.38555Z" fill="#E76F00"/>
<path d="M16.9634 18.3424C16.9634 18.3424 18.6977 16.9431 17.3243 15.3882C12.6686 10.1129 22.4163 7.71885 22.4163 7.71885C16.4649 10.5859 17.3534 12.2877 18.8492 14.3551C20.4508 16.572 16.9634 18.3424 16.9634 18.3424Z" fill="#E76F00"/>
<path d="M22.0699 22.5149C27.412 19.7851 24.942 17.1618 23.218 17.5152C22.7955 17.6017 22.607 17.6766 22.607 17.6766C22.607 17.6766 22.7639 17.435 23.0635 17.3304C26.4742 16.1513 29.0972 20.8081 21.9625 22.6525C21.9625 22.6525 22.0452 22.5799 22.0699 22.5149Z" fill="#5382A1"/>
<path d="M10.9539 19.0598C7.61148 18.6209 12.7865 17.4122 12.7865 17.4122C12.7865 17.4122 10.7769 17.2789 8.30518 18.4538C5.38255 19.844 15.5346 20.4763 20.7897 19.1172C21.3361 18.7503 22.0913 18.4323 22.0913 18.4323C22.0913 18.4323 19.9408 18.81 17.7991 18.9877C15.1785 19.2036 12.3652 19.2456 10.9539 19.0598Z" fill="#5382A1"/>
<path d="M12.2256 21.6663C10.3617 21.4768 11.5821 20.5884 11.5821 20.5884C6.75911 22.1625 14.2655 23.9476 21.0049 22.0097C20.2885 21.7613 19.833 21.3072 19.833 21.3072C16.5393 21.9309 14.6358 21.9109 12.2256 21.6663Z" fill="#5382A1"/>
<path d="M13.0377 24.4868C11.1752 24.2762 12.2633 23.654 12.2633 23.654C7.8852 24.8569 14.9263 27.3422 20.5004 24.993C19.5874 24.6439 18.9337 24.2408 18.9337 24.2408C16.4472 24.7036 15.294 24.7399 13.0377 24.4868Z" fill="#5382A1"/>
<path d="M24.6963 25.9214C24.6963 25.9214 25.5015 26.5739 23.8095 27.0786C20.5921 28.037 10.4183 28.3265 7.59207 27.1168C6.57611 26.6822 8.48132 26.079 9.08063 25.9524C9.70565 25.8192 10.0628 25.844 10.0628 25.844C8.93297 25.0613 2.75993 27.3808 6.92722 28.0451C18.292 29.8575 27.6442 27.229 24.6963 25.9214Z" fill="#5382A1"/>
<path d="M26.5 27.3469C26.3135 29.7329 18.4392 30.2347 13.3115 29.9119C9.96628 29.701 9.29586 29.1738 9.28604 29.1661C12.4876 29.6852 17.8855 29.7797 22.2622 28.9697C26.1415 28.2514 26.5 27.3469 26.5 27.3469Z" fill="#5382A1"/>
</svg>
