<svg width="32" height="32" viewBox="0 0 32 32" fill="none" xmlns="http://www.w3.org/2000/svg">
<path d="M12.7599 13.36L10.9199 14.12L12.5599 2L19.0399 5.52001L12.7599 13.36Z" fill="url(#paint0_linear_214_978)"/>
<path d="M11.72 18.8001L12.68 2L4.6 7.08002L2 22.6001L11.72 18.8001Z" fill="url(#paint1_linear_214_978)"/>
<path d="M29.44 10.4001L25.84 3.08008L19.04 5.52009L14.04 11.0801L2 22.6001L11.08 29.2002L22.48 18.9201L29.44 10.4001Z" fill="url(#paint2_linear_214_978)"/>
<path d="M13.76 13.96L12.2 23.56L18.5999 28.48L25.5999 30L29.9999 20L13.76 13.96Z" fill="url(#paint3_linear_214_978)"/>
<path d="M7.35986 7.35986H24.6399V24.6399H7.35986V7.35986Z" fill="black"/>
<path d="M9 21.3999H15.48V22.4799H9V21.3999Z" fill="white"/>
<path d="M8.87988 13.24C8.87988 11.2 10.3999 9.52002 12.5999 9.52002C13.9599 9.52002 14.7599 9.96002 15.4399 10.64L14.4399 11.8C13.8799 11.28 13.3199 11 12.5999 11C11.3999 11 10.5199 12 10.5199 13.24V13.2C10.5199 14.44 11.3599 15.44 12.5999 15.44C13.3999 15.44 13.9199 15.12 14.4799 14.6L15.4799 15.6C14.7599 16.4 13.9199 16.88 12.5599 16.88C10.4399 16.92 8.87988 15.28 8.87988 13.24Z" fill="white"/>
<path d="M16.5601 9.63989H18.1201V15.4799H21.2401V16.7999H16.5601V9.63989Z" fill="white"/>
<defs>
<linearGradient id="paint0_linear_214_978" x1="10.9015" y1="8.05482" x2="20.2615" y2="8.05482" gradientUnits="userSpaceOnUse">
<stop stop-color="#ED358C"/>
<stop offset="0.155" stop-color="#E9388C"/>
<stop offset="0.297" stop-color="#DE418C"/>
<stop offset="0.433" stop-color="#CC508C"/>
<stop offset="0.566" stop-color="#B2658D"/>
<stop offset="0.697" stop-color="#90808D"/>
<stop offset="0.826" stop-color="#67A18E"/>
<stop offset="0.951" stop-color="#37C78F"/>
<stop offset="1" stop-color="#22D88F"/>
</linearGradient>
<linearGradient id="paint1_linear_214_978" x1="9.12" y1="5.59281" x2="5.00196" y2="33.2261" gradientUnits="userSpaceOnUse">
<stop offset="0.091" stop-color="#22D88F"/>
<stop offset="0.903" stop-color="#029DE0"/>
</linearGradient>
<linearGradient id="paint2_linear_214_978" x1="27.5344" y1="4.59688" x2="-0.633329" y2="34.3461" gradientUnits="userSpaceOnUse">
<stop offset="0.091" stop-color="#22D88F"/>
<stop offset="0.903" stop-color="#029DE0"/>
</linearGradient>
<linearGradient id="paint3_linear_214_978" x1="18.0455" y1="21.7464" x2="28.7499" y2="23.2684" gradientUnits="userSpaceOnUse">
<stop offset="0.091" stop-color="#22D88F"/>
<stop offset="0.903" stop-color="#029DE0"/>
</linearGradient>
</defs>
</svg>
