<svg width="32" height="32" viewBox="0 0 32 32" fill="none" xmlns="http://www.w3.org/2000/svg">
<path d="M28.1999 6.36011L29.9999 17.8001L23.1999 21.7601L21.9199 15.2801L28.1999 6.36011Z" fill="#9775F8"/>
<path d="M28.2 6.36L18.2 2L9.76001 9L21.92 15.28L28.2 6.36Z" fill="url(#paint0_linear_214_987)"/>
<path d="M20.92 30L9.19999 14.24L5.71999 16.56L2.23999 27L20.92 30Z" fill="url(#paint1_linear_214_987)"/>
<path d="M23.12 22.0399L14.92 16.6399L2 14.9199L20.92 29.9999L23.12 22.0399Z" fill="url(#paint2_linear_214_987)"/>
<path d="M2 2.19995V14.92L26.32 23.28L28.2 6.35995L2 2.19995Z" fill="url(#paint3_linear_214_987)"/>
<path d="M7.36011 7.36011H24.6401V24.6401H7.36011V7.36011Z" fill="black"/>
<path d="M9.11987 9.59985H11.9199C14.1599 9.59985 15.7199 11.1599 15.7199 13.1599V13.1999C15.7199 15.1999 14.1599 16.7599 11.9199 16.7599H9.11987V9.59985ZM10.6799 11.0399V15.3599H11.8799C13.1599 15.3599 14.0399 14.4799 14.0399 13.2399V13.1999C14.0399 11.9199 13.1599 11.0399 11.8799 11.0399H10.6799Z" fill="white"/>
<path d="M16 13.2C16 11.16 17.6 9.47998 19.76 9.47998C21.04 9.47998 21.84 9.83998 22.56 10.48L21.56 11.68C21 11.2 20.52 10.96 19.68 10.96C18.52 10.96 17.64 11.96 17.64 13.2C17.64 14.52 18.52 15.48 19.8 15.48C20.36 15.48 20.88 15.32 21.28 15.04V14H19.68V12.64H22.8V15.76C22.08 16.4 21.04 16.88 19.76 16.88C17.52 16.88 16 15.32 16 13.2Z" fill="white"/>
<path d="M8.95996 21.3999H15.44V22.4799H8.95996V21.3999Z" fill="white"/>
<defs>
<linearGradient id="paint0_linear_214_987" x1="18.4276" y1="9.0572" x2="20.6084" y2="3.6224" gradientUnits="userSpaceOnUse">
<stop stop-color="#9775F8"/>
<stop offset="0.952" stop-color="#22D88F"/>
</linearGradient>
<linearGradient id="paint1_linear_214_987" x1="8.82679" y1="16.5044" x2="11.6584" y2="28.842" gradientUnits="userSpaceOnUse">
<stop stop-color="#9775F8"/>
<stop offset="0.214" stop-color="#689CCE"/>
<stop offset="0.423" stop-color="#42BDAC"/>
<stop offset="0.59" stop-color="#2BD197"/>
<stop offset="0.694" stop-color="#22D88F"/>
</linearGradient>
<linearGradient id="paint2_linear_214_987" x1="3.96" y1="15.6123" x2="28.4956" y2="29.1591" gradientUnits="userSpaceOnUse">
<stop offset="0.075" stop-color="#22D88F"/>
<stop offset="0.72" stop-color="#9775F8"/>
</linearGradient>
<linearGradient id="paint3_linear_214_987" x1="2" y1="12.74" x2="26.6584" y2="12.74" gradientUnits="userSpaceOnUse">
<stop offset="0.075" stop-color="#22D88F"/>
<stop offset="0.266" stop-color="#5AB0B4"/>
<stop offset="0.565" stop-color="#B86CF2"/>
<stop offset="1" stop-color="#FF59E6"/>
</linearGradient>
</defs>
</svg>
