<svg width="32" height="32" viewBox="0 0 32 32" fill="none" xmlns="http://www.w3.org/2000/svg">
<path d="M5.20004 28.0401L2.04004 17.04L22.68 20.08L19.72 30.0001L5.20004 28.0401Z" fill="url(#paint0_linear_214_1005)"/>
<path d="M11.4001 2.04L18.8401 4.16001L27.2801 2L30.0001 20.5201L7.36011 17.04L11.4001 2.04Z" fill="url(#paint1_linear_214_1005)"/>
<path d="M30 20.4403L28.92 13.5603L12.24 7.76025L2.04 9.96026L2 17.0803L21.84 22.5203L30 20.4403Z" fill="url(#paint2_linear_214_1005)"/>
<path d="M7.35986 7.35986H24.6399V24.6399H7.35986V7.35986Z" fill="black"/>
<path d="M8.95996 21.3999H15.44V22.4799H8.95996V21.3999Z" fill="white"/>
<path d="M8.95996 9.59985H11.72C13.96 9.59985 15.52 11.1599 15.52 13.1599V13.1999C15.52 15.1999 13.96 16.7999 11.72 16.7999H8.95996V9.59985ZM10.52 11.0399V15.3599H11.68C12.96 15.3599 13.84 14.4799 13.84 13.1999C13.84 11.9199 12.96 11.0399 11.68 11.0399H10.52Z" fill="white"/>
<path d="M15.9199 9.63989H17.6399L19.4799 12.6399L21.3599 9.63989H23.0399V16.7599H21.4799V12.0799L19.4799 15.1199H19.4399L17.4799 12.1199V16.7599H15.9199V9.63989Z" fill="white"/>
<defs>
<linearGradient id="paint0_linear_214_1005" x1="10.1908" y1="9.51282" x2="14.9857" y2="29.5833" gradientUnits="userSpaceOnUse">
<stop stop-color="#7866FF"/>
<stop offset="0.023" stop-color="#7E64FE"/>
<stop offset="0.195" stop-color="#AA56F3"/>
<stop offset="0.349" stop-color="#C94CEC"/>
<stop offset="0.48" stop-color="#DC45E8"/>
<stop offset="0.57" stop-color="#E343E6"/>
<stop offset="0.641" stop-color="#E859BC"/>
<stop offset="0.819" stop-color="#F48F58"/>
<stop offset="0.942" stop-color="#FCB019"/>
<stop offset="1" stop-color="#FFBD00"/>
</linearGradient>
<linearGradient id="paint1_linear_214_1005" x1="21.7673" y1="18.5804" x2="15.0881" y2="5.00643" gradientUnits="userSpaceOnUse">
<stop stop-color="#7866FF"/>
<stop offset="0.202" stop-color="#965CF8"/>
<stop offset="0.64" stop-color="#E343E6"/>
<stop offset="0.968" stop-color="#FFBD00"/>
</linearGradient>
<linearGradient id="paint2_linear_214_1005" x1="12.5412" y1="23.4419" x2="16.484" y2="14.0891" gradientUnits="userSpaceOnUse">
<stop offset="0.118" stop-color="#E343E6"/>
<stop offset="0.211" stop-color="#C84CEC"/>
<stop offset="0.338" stop-color="#AB55F3"/>
<stop offset="0.472" stop-color="#955DF8"/>
<stop offset="0.618" stop-color="#8562FC"/>
<stop offset="0.781" stop-color="#7B65FE"/>
<stop offset="1" stop-color="#7866FF"/>
</linearGradient>
</defs>
</svg>
