<svg width="32" height="32" viewBox="0 0 32 32" fill="none" xmlns="http://www.w3.org/2000/svg">
<path d="M25.9598 11.2659L29.9998 20.2415L24.2876 29.9996L10.5669 18.8204L17.5837 12.0573L25.9598 11.2659Z" fill="url(#paint0_linear_214_1029)"/>
<path d="M20.1269 19.898L24.2876 30L11.6119 25.6428L10.5669 18.8208L20.1269 19.898Z" fill="#BB4EFC"/>
<path d="M11.9894 5.7915L17.8227 8.78098L12.5729 24.6768L2 24.5668L4.27133 19.53L2 13.0933L11.9894 5.7915Z" fill="#078EFC"/>
<path d="M19.3073 2L22.066 11.3876L2 13.0932L8.38167 2H19.3073Z" fill="url(#paint1_linear_214_1029)"/>
<path d="M30 7.94531L18.2605 10.7315L2 24.5669L12.4878 30.0001L21.5981 20.6078L30 7.94531Z" fill="url(#paint2_linear_214_1029)"/>
<path d="M6.66675 6.66699H25.3333V25.3334H6.66675V6.66699Z" fill="black"/>
<path d="M8.5332 22.2537H15.5331V23.3737H8.5332V22.2537Z" fill="white"/>
<path d="M7.89317 12.7562V12.7333C7.81695 10.4912 9.57296 8.61159 11.8151 8.53579C11.8532 8.53452 11.8909 8.53368 11.929 8.53368C13.0469 8.47651 14.1393 8.87878 14.9532 9.64732L13.8861 11.0049C13.3564 10.4662 12.6289 10.1686 11.8735 10.1813C10.568 10.277 9.5827 11.4046 9.66315 12.7109V12.7338C9.5539 14.0426 10.5265 15.1918 11.8354 15.3011C11.8883 15.3053 11.9417 15.3083 11.995 15.3091C12.5654 15.326 13.1256 15.1546 13.5893 14.8217V13.6615H11.8849V12.1189H15.228V15.6453C14.3333 16.4731 13.1591 16.933 11.94 16.9338C9.75419 16.9859 7.94017 15.2558 7.88809 13.07C7.88597 12.9654 7.88767 12.8608 7.89317 12.7562Z" fill="white"/>
<path d="M15.9394 12.7559V12.733C15.8797 10.474 17.6624 8.59436 19.9219 8.53466C22.1814 8.47496 24.0606 10.2576 24.1203 12.5171C24.122 12.5815 24.122 12.6462 24.1207 12.7106V12.7335C24.1804 14.9925 22.3978 16.8722 20.1383 16.9319C17.8792 16.9916 15.9996 15.2089 15.9399 12.9494C15.9382 12.8851 15.9382 12.8207 15.9394 12.7559ZM22.3508 12.7559V12.733C22.4295 11.4035 21.4154 10.2623 20.0858 10.1835C20.0633 10.1823 20.0413 10.1814 20.0189 10.1806C18.7079 10.2136 17.6722 11.3027 17.7052 12.6136C17.706 12.6458 17.7073 12.678 17.7094 12.7106V12.7335C17.6307 14.0631 18.6448 15.2042 19.9744 15.283C19.9969 15.2843 20.0189 15.2851 20.0413 15.286C21.3523 15.2529 22.388 14.1638 22.355 12.8529C22.3541 12.8207 22.3529 12.7881 22.3508 12.7559Z" fill="white"/>
<defs>
<linearGradient id="paint0_linear_214_1029" x1="24.6596" y1="13.3831" x2="16.7373" y2="25.4624" gradientUnits="userSpaceOnUse">
<stop offset="0.174" stop-color="#078EFC"/>
<stop offset="0.204" stop-color="#118AFC"/>
<stop offset="0.435" stop-color="#5971FC"/>
<stop offset="0.627" stop-color="#8E5EFC"/>
<stop offset="0.77" stop-color="#AF52FC"/>
<stop offset="0.849" stop-color="#BB4EFC"/>
</linearGradient>
<linearGradient id="paint1_linear_214_1029" x1="4.77126" y1="14.5573" x2="20.8375" y2="2.47006" gradientUnits="userSpaceOnUse">
<stop offset="0.174" stop-color="#078EFC"/>
<stop offset="0.204" stop-color="#118AFC"/>
<stop offset="0.435" stop-color="#5971FC"/>
<stop offset="0.627" stop-color="#8E5EFC"/>
<stop offset="0.77" stop-color="#AF52FC"/>
<stop offset="0.849" stop-color="#BB4EFC"/>
</linearGradient>
<linearGradient id="paint2_linear_214_1029" x1="5.89007" y1="26.4601" x2="26.0881" y2="13.481" gradientUnits="userSpaceOnUse">
<stop stop-color="#078EFC"/>
<stop offset="0.106" stop-color="#15A7D3"/>
<stop offset="0.228" stop-color="#23BFAA"/>
<stop offset="0.348" stop-color="#2DD28B"/>
<stop offset="0.463" stop-color="#35DF74"/>
<stop offset="0.573" stop-color="#39E767"/>
<stop offset="0.67" stop-color="#3BEA62"/>
</linearGradient>
</defs>
</svg>
