<svg width="32" height="32" viewBox="0 0 32 32" fill="none" xmlns="http://www.w3.org/2000/svg">
<path d="M26.5201 2.3491C25.84 2.02888 25.0798 1.94882 24.3196 2.02888C24.1995 2.02888 6.19482 3.54996 6.19482 3.54996L18.9182 18.5607L21.2388 18.6808L28.5207 10.7951C30.9613 8.35339 30.4412 3.99028 26.5201 2.3491Z" fill="url(#paint0_linear_214_1039)"/>
<path d="M23.4393 20.8824L22.9192 21.683L16.5175 13.8774L10.3159 18.0404L20.5986 29.2084C20.7987 29.4085 21.0787 29.5687 21.3588 29.7288C21.919 30.009 22.5591 30.089 23.1993 29.8889C23.7994 29.7288 24.2396 29.4085 24.5997 29.0483C24.6397 29.0083 28.9208 24.7652 28.9208 24.7652L23.4393 20.8824Z" fill="url(#paint1_linear_214_1039)"/>
<path d="M20.2784 18.6409L9.8357 5.35142C9.39559 4.71096 8.71541 4.19059 7.83518 3.83033C7.155 3.55013 6.35479 3.47007 5.63461 3.63019C1.7936 4.47079 0.913371 8.67379 3.39402 10.9154L10.6359 18.3607L20.2784 18.6409Z" fill="url(#paint2_linear_214_1039)"/>
<path d="M27.2802 18.2005C25.9198 17.8002 25.1596 17.9203 23.3591 17.8803L8.15516 15.7188L3.79402 19.8817C1.0333 22.6037 1.47341 27.3671 5.55448 29.4085C6.59475 29.9289 7.75505 30.089 8.83534 29.9289C16.5574 28.4879 26.2399 26.1662 26.3199 26.1662C26.48 26.1262 26.68 26.0862 26.84 26.0461C29.3607 25.2856 30.401 22.9239 29.8008 20.9225C29.4807 19.8017 28.6005 18.6008 27.2802 18.2005Z" fill="url(#paint3_linear_214_1039)"/>
<path d="M7.35498 7.35254H24.6395V24.6449H7.35498V7.35254Z" fill="black"/>
<path d="M8.95557 9.63428H10.556V12.5163H13.5168V9.63428H15.1172V16.8795H13.5168V13.9574H10.556V16.8795H8.95557V9.63428Z" fill="white"/>
<path d="M16.2773 9.63428H19.6382C20.4784 9.63428 21.1186 9.87445 21.5187 10.2747C21.8388 10.595 21.9988 10.9952 21.9988 11.5156V11.5557C21.9988 12.3562 21.5587 12.8366 21.0386 13.1168C21.8788 13.437 22.3989 13.9173 22.3989 14.9181V14.9581C22.3989 16.279 21.3186 16.9595 19.6782 16.9595H16.2373V9.63428H16.2773ZM20.4784 11.7558C20.4784 11.2754 20.1183 10.9952 19.4381 10.9952H17.8777V12.5163H19.3581C20.0383 12.5564 20.4784 12.3162 20.4784 11.7558ZM19.6782 13.8773H17.8377V15.4785H19.7182C20.4384 15.4785 20.8385 15.2383 20.8385 14.6779V14.6379C20.8785 14.1975 20.5184 13.8773 19.6782 13.8773Z" fill="white"/>
<path d="M8.99536 21.4028H15.4771V22.4836H8.99536V21.4028Z" fill="white"/>
<defs>
<linearGradient id="paint0_linear_214_1039" x1="18.164" y1="2.3447" x2="17.8316" y2="17.7297" gradientUnits="userSpaceOnUse">
<stop offset="0.328" stop-color="#00B8F1"/>
<stop offset="0.973" stop-color="#9758FB"/>
</linearGradient>
<linearGradient id="paint1_linear_214_1039" x1="25.3378" y1="27.6141" x2="6.75868" y2="7.45564" gradientUnits="userSpaceOnUse">
<stop stop-color="#FFEE45"/>
<stop offset="1" stop-color="#9758FB"/>
</linearGradient>
<linearGradient id="paint2_linear_214_1039" x1="14.4069" y1="5.78733" x2="10.5498" y2="14.0291" gradientUnits="userSpaceOnUse">
<stop offset="0.328" stop-color="#00B8F1"/>
<stop offset="0.79" stop-color="#9758FB"/>
</linearGradient>
<linearGradient id="paint3_linear_214_1039" x1="0.689607" y1="22.8534" x2="29.5271" y2="22.8534" gradientUnits="userSpaceOnUse">
<stop stop-color="#00B8F1"/>
<stop offset="0.306" stop-color="#9758FB"/>
<stop offset="0.989" stop-color="#FFEE45"/>
</linearGradient>
</defs>
</svg>
