<svg width="32" height="32" viewBox="0 0 32 32" fill="none" xmlns="http://www.w3.org/2000/svg">
<path d="M21.6399 6.39966L29.7999 13.2396L26.8799 19.1996L21.9199 17.8396H17.6799L21.6399 6.39966Z" fill="url(#paint0_linear_214_1070)"/>
<path d="M13.4 10.84L11.8 19.1999L11.64 22.0799L7.68001 23.7999L2 24.3999L3.72 6.27998L13.96 2L20.28 6.15998L13.4 10.84Z" fill="url(#paint1_linear_214_1070)"/>
<path d="M13.4 10.8401L14.16 27L11.6 30L2 24.4L9.88001 12.6401L13.4 10.8401Z" fill="url(#paint2_linear_214_1070)"/>
<path d="M23.96 9.63996H14.24L22.84 2L23.96 9.63996Z" fill="url(#paint3_linear_214_1070)"/>
<path d="M30.0001 27.0399L21.4401 29.9599L10.0801 26.7599L13.4001 10.84L14.7201 9.64L21.6401 9L21.0001 15.96L26.5201 13.84L30.0001 27.0399Z" fill="url(#paint4_linear_214_1070)"/>
<path d="M7.35986 7.35986H24.6399V24.6398H7.35986V7.35986Z" fill="black"/>
<path d="M9 21.3997H15.48V22.4797H9V21.3997Z" fill="white"/>
<path d="M8.95996 9.63989H11.84C13.56 9.63989 14.6 10.6399 14.6 12.1199C14.6 13.7599 13.32 14.6799 11.72 14.6799H10.52V16.7999H8.95996L8.95996 9.63989ZM11.76 13.2399C12.56 13.2399 13 12.7199 13 12.1199C13 11.3999 12.52 11.0399 11.72 11.0399H10.52V13.2399H11.76Z" fill="white"/>
<path d="M15.24 13.2398C15.24 11.1998 16.76 9.51978 18.96 9.51978C20.32 9.51978 21.12 9.95977 21.8 10.6398L20.8 11.7998C20.24 11.2798 19.68 10.9998 18.96 10.9998C17.76 10.9998 16.88 11.9998 16.88 13.2398C16.88 14.4798 17.72 15.4397 18.96 15.4397C19.76 15.4397 20.28 15.1197 20.84 14.5997L21.84 15.5997C21.12 16.3997 20.28 16.8797 18.92 16.8797C16.8 16.9197 15.24 15.2797 15.24 13.2398Z" fill="white"/>
<defs>
<linearGradient id="paint0_linear_214_1070" x1="11.9991" y1="12.818" x2="28.6623" y2="12.818" gradientUnits="userSpaceOnUse">
<stop stop-color="#21D789"/>
<stop offset="1" stop-color="#07C3F2"/>
</linearGradient>
<linearGradient id="paint1_linear_214_1070" x1="-7.82361" y1="25.6323" x2="26.4879" y2="0.303397" gradientUnits="userSpaceOnUse">
<stop offset="0.011" stop-color="#FCF84A"/>
<stop offset="0.112" stop-color="#A7EB62"/>
<stop offset="0.206" stop-color="#5FE077"/>
<stop offset="0.273" stop-color="#32DA84"/>
<stop offset="0.306" stop-color="#21D789"/>
<stop offset="0.577" stop-color="#21D789"/>
<stop offset="0.597" stop-color="#21D789"/>
<stop offset="0.686" stop-color="#20D68C"/>
<stop offset="0.763" stop-color="#1ED497"/>
<stop offset="0.835" stop-color="#19D1A9"/>
<stop offset="0.904" stop-color="#13CCC2"/>
<stop offset="0.971" stop-color="#0BC6E1"/>
<stop offset="1" stop-color="#07C3F2"/>
</linearGradient>
<linearGradient id="paint2_linear_214_1070" x1="5.732" y1="33.0616" x2="11.4547" y2="15.104" gradientUnits="userSpaceOnUse">
<stop stop-color="#21D789"/>
<stop offset="0.164" stop-color="#24D788"/>
<stop offset="0.305" stop-color="#2FD886"/>
<stop offset="0.437" stop-color="#41DA82"/>
<stop offset="0.564" stop-color="#5ADC7D"/>
<stop offset="0.688" stop-color="#7AE077"/>
<stop offset="0.809" stop-color="#A1E36E"/>
<stop offset="0.925" stop-color="#CFE865"/>
<stop offset="1" stop-color="#F1EB5E"/>
</linearGradient>
<linearGradient id="paint3_linear_214_1070" x1="13.31" y1="17.4491" x2="25.7635" y2="0.70553" gradientUnits="userSpaceOnUse">
<stop stop-color="#21D789"/>
<stop offset="0.061" stop-color="#24D788"/>
<stop offset="0.113" stop-color="#2FD886"/>
<stop offset="0.162" stop-color="#41DA82"/>
<stop offset="0.209" stop-color="#5ADD7D"/>
<stop offset="0.255" stop-color="#79E077"/>
<stop offset="0.258" stop-color="#7CE076"/>
<stop offset="0.499" stop-color="#8CE173"/>
<stop offset="0.925" stop-color="#B2E56B"/>
</linearGradient>
<linearGradient id="paint4_linear_214_1070" x1="32.3557" y1="19.5799" x2="7.26328" y2="19.3475" gradientUnits="userSpaceOnUse">
<stop offset="0.387" stop-color="#FCF84A"/>
<stop offset="0.536" stop-color="#ECF451"/>
<stop offset="0.826" stop-color="#C2E964"/>
<stop offset="0.925" stop-color="#B2E56B"/>
</linearGradient>
</defs>
</svg>
