<svg width="32" height="32" viewBox="0 0 32 32" fill="none" xmlns="http://www.w3.org/2000/svg">
<path d="M21.9199 8.08008L16.3999 16.68L25.3599 30L29.9999 11.2401L21.9199 8.08008Z" fill="url(#paint0_linear_214_1080)"/>
<path d="M22.44 8.27997L21.6 2L9.52002 15.4399L13.04 18.9199L10.32 29.9999H25.36L22.44 8.27997Z" fill="url(#paint1_linear_214_1080)"/>
<path d="M21.6 2H6.64L2 20.8399H24.24L21.6 2Z" fill="url(#paint2_linear_214_1080)"/>
<path d="M24.1199 20.8399L22.4399 8.27997L21.5999 2L18.6799 11.2L24.1199 20.8399Z" fill="url(#paint3_linear_214_1080)"/>
<path d="M24.6377 24.646L7.3577 24.6906L7.31312 7.41067L24.5931 7.36608L24.6377 24.646Z" fill="black"/>
<path d="M9.03857 21.448L15.5186 21.4313L15.5213 22.5112L9.04136 22.528L9.03857 21.448Z" fill="white"/>
<path d="M8.95992 9.63989H12.2399C13.1599 9.63989 13.8399 9.87989 14.3199 10.3599C14.7199 10.7599 14.9199 11.3199 14.9199 11.9999V12.0399C14.9199 12.6399 14.7999 13.0799 14.4799 13.4399C14.1999 13.7999 13.8399 14.0799 13.3599 14.2399L15.1199 16.7999H13.2799L11.7999 14.5999H10.4799V16.7999H8.91992L8.95992 9.63989ZM12.1199 13.1199C12.5199 13.1199 12.7999 13.0399 12.9999 12.8399C13.1999 12.6399 13.3199 12.3999 13.3199 12.1199V12.0799C13.3199 11.7199 13.1999 11.4799 12.9999 11.3199C12.7999 11.1599 12.4799 11.0799 12.0799 11.0799H10.5199V13.1199H12.1199Z" fill="white"/>
<path d="M16.4001 15.2799H15.6401V13.9599H16.6401L16.8801 12.4399H15.9601V11.1199H17.0801L17.3201 9.63989H18.6801L18.4401 11.1199H19.9201L20.1601 9.63989H21.5201L21.2801 11.1199H22.0401V12.4399H21.0401L20.8001 13.9599H21.7201V15.2799H20.6001L20.3201 16.7999H18.9601L19.2401 15.2799H17.7601L17.4801 16.7999H16.1201L16.4001 15.2799ZM19.4801 13.9599L19.7201 12.4399H18.2401L18.0001 13.9599H19.4801Z" fill="white"/>
<defs>
<linearGradient id="paint0_linear_214_1080" x1="11.1779" y1="32.3148" x2="31.9146" y2="10.2568" gradientUnits="userSpaceOnUse">
<stop offset="0.016" stop-color="#B35BA3"/>
<stop offset="0.404" stop-color="#C41E57"/>
<stop offset="0.468" stop-color="#C41E57"/>
<stop offset="0.65" stop-color="#EB8523"/>
<stop offset="0.952" stop-color="#FEBD11"/>
</linearGradient>
<linearGradient id="paint1_linear_214_1080" x1="9.08762" y1="31.3167" x2="29.8223" y2="9.26067" gradientUnits="userSpaceOnUse">
<stop offset="0.016" stop-color="#B35BA3"/>
<stop offset="0.404" stop-color="#C41E57"/>
<stop offset="0.468" stop-color="#C41E57"/>
<stop offset="0.704" stop-color="#EB8523"/>
</linearGradient>
<linearGradient id="paint2_linear_214_1080" x1="2.7312" y1="23.3711" x2="21.5299" y2="5.69029" gradientUnits="userSpaceOnUse">
<stop offset="0.016" stop-color="#B35BA3"/>
<stop offset="0.661" stop-color="#C41E57"/>
</linearGradient>
<linearGradient id="paint3_linear_214_1080" x1="21.9575" y1="-2.62278" x2="21.5435" y2="11.614" gradientUnits="userSpaceOnUse">
<stop offset="0.5" stop-color="#C41E57"/>
<stop offset="0.667" stop-color="#D13F48"/>
<stop offset="0.795" stop-color="#D94F39"/>
<stop offset="0.866" stop-color="#DD5433"/>
</linearGradient>
</defs>
</svg>
