<svg width="32" height="32" viewBox="0 0 32 32" fill="none" xmlns="http://www.w3.org/2000/svg">
<path d="M30 12.8949L27.3564 11.5001L10.3704 2L3.53076 9.16844L10.6476 18.4273L26.2148 19.7589L30 12.8949Z" fill="url(#paint0_linear_214_1098)"/>
<path d="M22.1693 8.45266L19.7085 2.44263L13.0573 8.98827L6.70728 22.0776L21.7645 30L30.0001 25.192L22.1693 8.45266Z" fill="url(#paint1_linear_214_1098)"/>
<path d="M10.3704 2L2 7.63803L5.1116 26.869L13.1392 29.9558L23.512 21.5293L10.3704 2Z" fill="url(#paint2_linear_214_1098)"/>
<path d="M7.3208 7.27734H24.7664V24.7231H7.3208V7.27734Z" fill="black"/>
<path d="M8.89087 9.54518H12.2491C12.6366 9.52229 13.0248 9.57599 13.3915 9.70321C13.7581 9.83043 14.0962 10.0287 14.3862 10.2866C14.7977 10.7385 15.0167 11.3331 14.9968 11.9439C15.0159 12.441 14.8731 12.9308 14.59 13.3398C14.3069 13.7487 13.8987 14.0548 13.4267 14.2119L15.2149 16.8287H13.3395L11.7694 14.4736H10.5046V16.8287H8.89087V9.54518ZM12.1183 13.0779C12.9034 13.0779 13.3395 12.6418 13.3395 12.0312C13.3395 11.3334 12.8598 10.9844 12.0747 10.9844H10.461V13.0779H12.1183V13.0779Z" fill="white"/>
<path d="M16.436 9.54541H19.3145C21.6261 9.54541 23.1962 11.1155 23.1962 13.209C23.1962 15.2588 21.6261 16.8726 19.3145 16.8726H16.436V9.54541ZM18.0497 10.9847V15.3897H19.3145C19.6077 15.4081 19.9015 15.3647 20.1768 15.2622C20.452 15.1597 20.7027 15.0005 20.9124 14.7948C21.1222 14.5892 21.2864 14.3417 21.3943 14.0685C21.5022 13.7953 21.5514 13.5025 21.5388 13.209C21.556 12.9124 21.5103 12.6155 21.4046 12.3379C21.2989 12.0602 21.1356 11.808 20.9255 11.598C20.7155 11.3879 20.4633 11.2246 20.1857 11.1189C19.908 11.0132 19.6111 10.9675 19.3145 10.9847H18.0497Z" fill="white"/>
<path d="M8.89087 21.4519H15.4329V22.5423H8.89087V21.4519Z" fill="white"/>
<defs>
<linearGradient id="paint0_linear_214_1098" x1="30.0904" y1="19.3925" x2="-0.0521058" y2="5.26337" gradientUnits="userSpaceOnUse">
<stop stop-color="#C90F5E"/>
<stop offset="0.221" stop-color="#C90F5E"/>
<stop offset="0.236" stop-color="#C90F5E"/>
<stop offset="0.356" stop-color="#CA135C"/>
<stop offset="0.466" stop-color="#CE1E57"/>
<stop offset="0.574" stop-color="#D4314E"/>
<stop offset="0.678" stop-color="#DC4B41"/>
<stop offset="0.782" stop-color="#E66D31"/>
<stop offset="0.883" stop-color="#F3961D"/>
<stop offset="0.942" stop-color="#FCB20F"/>
</linearGradient>
<linearGradient id="paint1_linear_214_1098" x1="11.8637" y1="5.71345" x2="20.4194" y2="29.3384" gradientUnits="userSpaceOnUse">
<stop offset="0.042" stop-color="#077CFB"/>
<stop offset="0.445" stop-color="#C90F5E"/>
<stop offset="0.958" stop-color="#077CFB"/>
</linearGradient>
<linearGradient id="paint2_linear_214_1098" x1="8.9584" y1="5.17362" x2="15.2777" y2="27.6317" gradientUnits="userSpaceOnUse">
<stop offset="0.277" stop-color="#C90F5E"/>
<stop offset="0.974" stop-color="#FCB20F"/>
</linearGradient>
</defs>
</svg>
