<svg width="32" height="32" viewBox="0 0 32 32" fill="none" xmlns="http://www.w3.org/2000/svg">
<path d="M25.28 2L17.28 4.88L10.96 2L4.76001 17.56L11.88 14.72L11.76 22.6L27 22.88L30 7.48L25.28 2Z" fill="url(#paint0_linear_214_1106)"/>
<path d="M22.3201 11.0802L12.2401 4.48022L4.12012 9.48022L21.9201 16.3602L22.3201 11.0802Z" fill="url(#paint1_linear_214_1106)"/>
<path d="M13.64 29.2799L24.12 27.8799L20.8 21.4799L23 18.7999L23.24 17.1599L12.24 4.43994L2 6.95994V21.6399L7.92 29.9999L13.64 29.2799Z" fill="url(#paint2_linear_214_1106)"/>
<path d="M7.36011 7.35986H24.6401V24.6399H7.36011V7.35986Z" fill="black"/>
<path d="M9 21.3999H15.48V22.4799H9V21.3999Z" fill="white"/>
<path d="M15.8401 9.59985H17.5601L19.4401 12.6399L21.3201 9.59985H23.0401V16.7599H21.4401V12.0799L19.4401 15.1599H19.4001L17.4001 12.1199V16.7599H15.8401V9.59985Z" fill="white"/>
<path d="M8.95992 9.59985H12.2399C13.1599 9.59985 13.8399 9.83985 14.3199 10.3199C14.7199 10.7199 14.9199 11.2799 14.9199 11.9599V11.9999C14.9199 12.5999 14.7599 13.0399 14.4799 13.3999C14.1999 13.7599 13.8399 14.0399 13.3599 14.1999L15.1199 16.7599H13.2799L11.7999 14.5599H10.4799V16.7599H8.91992V9.59985H8.95992ZM12.1599 13.0799C12.5599 13.0799 12.8399 12.9999 13.0399 12.7999C13.2399 12.5999 13.3599 12.3599 13.3599 12.0799V12.0399C13.3599 11.6799 13.2399 11.4399 13.0399 11.2799C12.8399 11.1199 12.5199 11.0399 12.1199 11.0399H10.5599V13.0799H12.1599Z" fill="white"/>
<defs>
<linearGradient id="paint0_linear_214_1106" x1="21.8436" y1="23.0216" x2="14.1384" y2="4.86519" gradientUnits="userSpaceOnUse">
<stop offset="0.172" stop-color="#FF1F51"/>
<stop offset="0.28" stop-color="#FF3648"/>
<stop offset="0.468" stop-color="#FF593B"/>
<stop offset="0.646" stop-color="#FF7231"/>
<stop offset="0.809" stop-color="#FF812B"/>
<stop offset="0.941" stop-color="#FF8629"/>
</linearGradient>
<linearGradient id="paint1_linear_214_1106" x1="15.3037" y1="7.15502" x2="12.0421" y2="15.3746" gradientUnits="userSpaceOnUse">
<stop offset="0.022" stop-color="#9039D0"/>
<stop offset="0.629" stop-color="#FF1F51"/>
</linearGradient>
<linearGradient id="paint2_linear_214_1106" x1="2.116" y1="6.48954" x2="20.1136" y2="29.368" gradientUnits="userSpaceOnUse">
<stop offset="0.107" stop-color="#9039D0"/>
<stop offset="0.387" stop-color="#FF1F51"/>
<stop offset="0.629" stop-color="#FF1F51"/>
<stop offset="0.66" stop-color="#FF3648"/>
<stop offset="0.714" stop-color="#FF593B"/>
<stop offset="0.765" stop-color="#FF7231"/>
<stop offset="0.812" stop-color="#FF812B"/>
<stop offset="0.85" stop-color="#FF8629"/>
</linearGradient>
</defs>
</svg>
