<svg width="32" height="32" viewBox="0 0 32 32" fill="none" xmlns="http://www.w3.org/2000/svg">
<path d="M17.8765 21.1874L15.437 7.5934C15.2771 6.63382 14.9572 5.67424 14.3573 4.75464C13.5575 3.4752 12.2778 2.59558 10.8381 2.23574C5.15939 0.876335 0.960348 6.55385 3.43978 11.5916L9.35843 24.2661C9.51839 24.6659 9.75834 25.0658 10.0383 25.4256C10.5182 26.0653 11.158 26.5451 11.9178 26.785C15.757 27.9845 18.8363 24.586 17.8765 21.1874Z" fill="url(#paint0_linear_214_1114)"/>
<path d="M28.9539 12.6312C28.3941 11.7515 27.5942 11.0718 26.6744 10.672L12.1978 2.7155C11.7978 2.51559 11.3579 2.31568 10.8781 2.19573C4.67947 0.756358 0.240488 7.55338 4.19958 12.8311C4.79945 13.6307 5.63925 14.2704 6.59904 14.6303L21.1957 21.1874C21.5156 21.3873 21.8356 21.5073 22.1955 21.6272C27.7942 23.3865 32.0332 17.469 28.9539 12.6312Z" fill="url(#paint1_linear_214_1114)"/>
<path d="M28.9541 12.6312C28.2343 11.5117 27.1145 10.712 25.7948 10.3921C24.3952 10.0723 23.0755 10.1922 21.9557 10.672L6.55923 16.4695C6.55923 16.4695 6.47925 16.5095 6.31929 16.6294C2.36019 18.1887 0.400642 23.3465 3.59991 27.6246C4.31975 28.5842 5.31952 29.3039 6.43926 29.6237C8.55878 30.2634 10.4783 30.0236 12.038 29.1839H12.078L27.1145 21.1474C27.1145 21.1474 27.1145 21.1474 27.1545 21.1075C29.7939 19.5881 31.0336 15.8697 28.9541 12.6312Z" fill="url(#paint2_linear_214_1114)"/>
<path d="M22.1156 7.15347C22.5954 6.07394 22.5555 4.75452 21.7556 3.55504C21.3157 2.83536 20.5959 2.35557 19.7961 2.15566C17.9965 1.71585 16.4768 2.55548 15.757 3.83492L3.39983 18.8284C3.39983 18.8284 3.39983 18.8284 3.39983 18.8683C1.64023 21.1873 1.3603 24.6258 3.59978 27.6245C4.31962 28.5841 5.31939 29.3038 6.43914 29.6236C10.6382 30.9431 14.1574 28.6241 15.2771 25.3055L22.1156 7.15347Z" fill="url(#paint3_linear_214_1114)"/>
<path d="M7.35889 7.39331H24.6349V24.6658H7.35889V7.39331Z" fill="black"/>
<path d="M8.99854 21.4272H15.4771V22.5068H8.99854V21.4272Z" fill="white"/>
<path d="M11.158 11.1117H8.99854V9.67236H14.9172V11.1117H12.7177V16.8292H11.158V11.1117Z" fill="white"/>
<path d="M14.9971 13.2706C14.9971 11.2315 16.5167 9.55225 18.7162 9.55225C20.0759 9.55225 20.8757 9.99205 21.5556 10.6718L20.5558 11.8312C19.9959 11.3115 19.4361 11.0316 18.7162 11.0316C17.5165 11.0316 16.6367 12.0312 16.6367 13.2706V13.2306C16.6367 14.4701 17.4765 15.4697 18.7162 15.4697C19.516 15.4697 20.0359 15.1498 20.5958 14.63L21.5956 15.6296C20.8757 16.4292 20.0359 16.909 18.6762 16.909C16.5567 16.949 14.9971 15.3097 14.9971 13.2706Z" fill="white"/>
<defs>
<linearGradient id="paint0_linear_214_1114" x1="2.70955" y1="14.5396" x2="18.0628" y2="14.5396" gradientUnits="userSpaceOnUse">
<stop stop-color="#905CFB"/>
<stop offset="0.068" stop-color="#776CF9"/>
<stop offset="0.173" stop-color="#5681F7"/>
<stop offset="0.286" stop-color="#3B92F5"/>
<stop offset="0.41" stop-color="#269FF4"/>
<stop offset="0.547" stop-color="#17A9F3"/>
<stop offset="0.711" stop-color="#0FAEF2"/>
<stop offset="0.968" stop-color="#0CB0F2"/>
</linearGradient>
<linearGradient id="paint1_linear_214_1114" x1="4.124" y1="5.90171" x2="29.6826" y2="19.579" gradientUnits="userSpaceOnUse">
<stop stop-color="#905CFB"/>
<stop offset="0.068" stop-color="#776CF9"/>
<stop offset="0.173" stop-color="#5681F7"/>
<stop offset="0.286" stop-color="#3B92F5"/>
<stop offset="0.41" stop-color="#269FF4"/>
<stop offset="0.547" stop-color="#17A9F3"/>
<stop offset="0.711" stop-color="#0FAEF2"/>
<stop offset="0.968" stop-color="#0CB0F2"/>
</linearGradient>
<linearGradient id="paint2_linear_214_1114" x1="-5.71156" y1="30.3514" x2="24.3858" y2="15.2994" gradientUnits="userSpaceOnUse">
<stop stop-color="#3BEA62"/>
<stop offset="0.117" stop-color="#31DE80"/>
<stop offset="0.302" stop-color="#24CEA8"/>
<stop offset="0.484" stop-color="#1AC1C9"/>
<stop offset="0.659" stop-color="#12B7DF"/>
<stop offset="0.824" stop-color="#0EB2ED"/>
<stop offset="0.968" stop-color="#0CB0F2"/>
</linearGradient>
<linearGradient id="paint3_linear_214_1114" x1="17.5742" y1="4.37469" x2="4.17345" y2="33.0279" gradientUnits="userSpaceOnUse">
<stop stop-color="#3BEA62"/>
<stop offset="0.094" stop-color="#2FDB87"/>
<stop offset="0.196" stop-color="#24CEA8"/>
<stop offset="0.306" stop-color="#1BC3C3"/>
<stop offset="0.426" stop-color="#14BAD8"/>
<stop offset="0.56" stop-color="#10B5E7"/>
<stop offset="0.719" stop-color="#0DB1EF"/>
<stop offset="0.968" stop-color="#0CB0F2"/>
</linearGradient>
</defs>
</svg>
