<svg width="32" height="32" viewBox="0 0 32 32" fill="none" xmlns="http://www.w3.org/2000/svg">
<path d="M26.2359 11.6104L5.85329 12.7723L5.73315 4.95979L24.1136 2.0752L26.2359 11.6104Z" fill="url(#paint0_linear_214_1127)"/>
<path d="M10.1379 19.3028L16.7052 10.9695L9.57731 6.08174C8.33593 4.95995 6.45384 4.47918 4.5317 5.28046C3.57063 5.6811 2.80979 6.44231 2.40934 7.40385C1.56841 9.40704 2.08899 11.3702 3.37041 12.5721L10.1379 19.3028Z" fill="url(#paint1_linear_214_1127)"/>
<path d="M10.1379 19.303L20.2292 29.2789L26.5161 17.5402L16.7052 10.9697L10.1379 19.303Z" fill="url(#paint2_linear_214_1127)"/>
<path d="M23.5928 16.6588L6.81412 15.8575C6.17341 15.7373 5.45261 15.7774 4.69176 16.0979C3.97096 16.4184 3.41034 16.9392 3.13003 17.6604C2.28909 19.6235 3.29021 21.5065 4.93203 22.1475L19.9487 29.2388C20.1489 29.359 21.1501 29.6395 21.1501 29.6395C21.9509 29.8798 22.8319 30 23.6328 30C24.6339 30 25.7552 29.7196 26.8764 29.1587C27.9176 28.6379 28.5583 27.7965 29.1189 26.7549C29.7997 25.5529 29.9999 24.4312 29.9999 23.3094C29.9598 19.8238 27.0766 16.8991 23.5928 16.6588Z" fill="url(#paint3_linear_214_1127)"/>
<path d="M22.872 2.43614C22.5917 2.55633 22.3114 2.71659 22.0711 2.87684L12.7808 9.88802L17.3859 16.6188L27.4771 10.9697C28.2379 10.6092 28.8386 9.96815 29.199 9.247C31.4415 4.9201 27.2769 0.593202 22.872 2.43614Z" fill="url(#paint4_linear_214_1127)"/>
<path d="M7.81522 21.9472L17.3859 16.6187L12.7807 9.88794L3.97095 16.4985L7.81522 21.9472Z" fill="#905CFB"/>
<path d="M10.1779 24.5914V16.0177L6.81412 15.8575C6.17341 15.7373 5.45261 15.7774 4.69176 16.0979C3.97096 16.4184 3.41034 16.9392 3.13003 17.6604C2.28909 19.6235 3.29021 21.5065 4.93203 22.1475H4.97208L10.1779 24.5914Z" fill="url(#paint5_linear_214_1127)"/>
<path d="M7.37476 7.36377H24.674V24.6714H7.37476V7.36377Z" fill="black"/>
<path d="M9.0166 13.7738V9.60718H10.6184V13.7338C10.6184 14.9357 11.219 15.5366 12.1801 15.5366C13.1412 15.5366 13.7419 14.9357 13.7419 13.7738V9.60718H15.3436V13.6937C15.3436 15.8972 14.1023 16.9789 12.1401 16.9789C10.2179 17.019 9.0166 15.8972 9.0166 13.7738Z" fill="white"/>
<path d="M16.1846 9.60718H19.1479C20.8698 9.60718 21.9109 10.6488 21.9109 12.1312V12.1713C21.9109 13.8539 20.5895 14.7354 18.9877 14.7354H17.7864V16.8988H16.1846V9.60718ZM19.0678 13.2931C19.8687 13.2931 20.3492 12.8123 20.3492 12.2113V12.1713C20.3492 11.4501 19.8687 11.0895 19.0678 11.0895H17.8264V13.2931H19.0678Z" fill="white"/>
<path d="M9.0166 21.426H15.5038V22.5077H9.0166V21.426Z" fill="white"/>
<defs>
<linearGradient id="paint0_linear_214_1127" x1="28.0031" y1="6.4061" x2="9.02161" y2="9.25195" gradientUnits="userSpaceOnUse">
<stop stop-color="#FF8200"/>
<stop offset="0.973" stop-color="#905CFB"/>
</linearGradient>
<linearGradient id="paint1_linear_214_1127" x1="8.28587" y1="15.9383" x2="10.0567" y2="6.04999" gradientUnits="userSpaceOnUse">
<stop stop-color="#0CB0F2"/>
<stop offset="0.973" stop-color="#905CFB"/>
</linearGradient>
<linearGradient id="paint2_linear_214_1127" x1="25.3689" y1="23.4961" x2="12.8098" y2="17.3655" gradientUnits="userSpaceOnUse">
<stop stop-color="#0CB0F2"/>
<stop offset="0.973" stop-color="#905CFB"/>
</linearGradient>
<linearGradient id="paint3_linear_214_1127" x1="26.307" y1="24.4544" x2="4.95049" y2="16.7803" gradientUnits="userSpaceOnUse">
<stop stop-color="#0CB0F2"/>
<stop offset="0.973" stop-color="#905CFB"/>
</linearGradient>
<linearGradient id="paint4_linear_214_1127" x1="27.715" y1="4.37323" x2="9.41967" y2="19.1117" gradientUnits="userSpaceOnUse">
<stop stop-color="#FF8200"/>
<stop offset="0.973" stop-color="#905CFB"/>
</linearGradient>
<linearGradient id="paint5_linear_214_1127" x1="14.2015" y1="21.724" x2="2.91456" y2="17.7147" gradientUnits="userSpaceOnUse">
<stop stop-color="#0CB0F2"/>
<stop offset="0.973" stop-color="#905CFB"/>
</linearGradient>
</defs>
</svg>
