<svg width="32" height="32" viewBox="0 0 32 32" fill="none" xmlns="http://www.w3.org/2000/svg">
<path d="M5.76 27.3199L2 4.92002L8.99999 2.04004L13.44 4.68002L17.52 2.48004L26.04 5.76002L21.24 29.9999L5.76 27.3199Z" fill="url(#paint0_linear_214_1139)"/>
<path d="M30 11.4799L26.4 2.56L19.84 2L9.71997 11.7199L12.44 24.2399L17.52 27.8398L30 20.3999L26.92 14.6799L30 11.4799Z" fill="url(#paint1_linear_214_1139)"/>
<path d="M24.3999 10.1599L26.9199 14.6799L29.9999 11.4799L27.7599 5.91992L24.3999 10.1599Z" fill="url(#paint2_linear_214_1139)"/>
<path d="M7.35986 7.35986H24.6399V24.6398H7.35986V7.35986Z" fill="black"/>
<path d="M9 21.3997H15.48V22.4797H9V21.3997Z" fill="white"/>
<path d="M17.48 15.7194L18.4 14.5994C19.04 15.1194 19.72 15.4794 20.52 15.4794C21.16 15.4794 21.52 15.2394 21.52 14.7994V14.7594C21.52 14.3594 21.28 14.1594 20.08 13.8394C18.64 13.4794 17.76 13.0794 17.76 11.6394V11.5994C17.76 10.2794 18.8 9.43945 20.24 9.43945C21.28 9.43945 22.16 9.75945 22.88 10.3594L22.08 11.5594C21.44 11.1194 20.84 10.8394 20.24 10.8394C19.64 10.8394 19.32 11.1194 19.32 11.4794V11.5194C19.32 11.9994 19.64 12.1594 20.84 12.4794C22.28 12.8794 23.08 13.3994 23.08 14.6394V14.6794C23.08 16.1194 22 16.9194 20.48 16.9194C19.4 16.8794 18.32 16.4794 17.48 15.7194Z" fill="white"/>
<path d="M16.0799 9.59961L14.9999 13.7596L13.7999 9.59961H12.5999L11.3599 13.7596L10.2799 9.59961H8.63989L10.6799 16.7596H11.9999L13.1999 12.5996L14.3599 16.7596H15.7199L17.7599 9.59961H16.0799Z" fill="white"/>
<defs>
<linearGradient id="paint0_linear_214_1139" x1="12.0272" y1="2.58404" x2="19.2731" y2="28.6699" gradientUnits="userSpaceOnUse">
<stop offset="0.285" stop-color="#00CDD7"/>
<stop offset="0.941" stop-color="#2086D7"/>
</linearGradient>
<linearGradient id="paint1_linear_214_1139" x1="14.288" y1="5.89358" x2="26.5459" y2="23.8683" gradientUnits="userSpaceOnUse">
<stop offset="0.14" stop-color="#FFF045"/>
<stop offset="0.366" stop-color="#00CDD7"/>
</linearGradient>
<linearGradient id="paint2_linear_214_1139" x1="26.4327" y1="8.11591" x2="28.0423" y2="13.8175" gradientUnits="userSpaceOnUse">
<stop offset="0.285" stop-color="#00CDD7"/>
<stop offset="0.941" stop-color="#2086D7"/>
</linearGradient>
</defs>
</svg>
