<svg width="32" height="32" viewBox="0 0 32 32" fill="none" xmlns="http://www.w3.org/2000/svg">
<path d="M28.7664 20.9926C28.6864 20.9126 23.5255 15.9515 23.5255 15.9515C23.5255 15.9515 27.4462 11.7906 28.4864 10.7503C28.8065 10.4303 29.0865 10.1102 29.2865 9.7101C30.7268 7.26957 29.8867 4.14888 27.4462 2.70857C25.6459 1.66834 23.4055 1.82838 21.8052 3.02864C21.5251 3.22868 21.2851 3.42873 21.045 3.66878C20.925 3.82881 15.484 8.7899 10.7632 13.1109L19.6048 18.7121L10.3231 29.1544C9.76299 29.5545 9.20289 29.7945 8.60278 29.9145C8.72281 29.9145 8.80282 29.9145 8.92284 29.8745C10.7632 29.5945 26.486 26.9539 27.2462 26.7939C28.1663 26.6338 29.0065 26.0737 29.5266 25.2335C30.4067 23.7932 30.0067 21.9928 28.7664 20.9926Z" fill="url(#paint0_linear_214_1147)"/>
<path d="M20.3649 14.1912C20.2049 13.111 19.6448 12.2308 18.8446 11.5906C18.0045 10.9505 11.5233 4.22901 10.8032 3.46885C9.68296 2.38861 8.08267 1.78848 6.44237 2.06854C3.64186 2.46863 1.6815 5.10921 2.12158 7.90982C2.32162 9.31013 3.12177 10.5104 4.16196 11.2706C5.20214 12.0707 13.3636 17.672 13.8837 18.0721C14.7239 18.7122 15.8441 19.0723 16.9643 18.8722C19.1647 18.4721 20.725 16.3917 20.3649 14.1912Z" fill="url(#paint1_linear_214_1147)"/>
<path d="M11.2032 29.1146C11.2432 29.1146 20.5249 18.6723 20.5249 18.6723L11.1632 12.751C7.84257 15.7916 4.76201 18.5522 4.04188 19.2324C3.6018 19.6325 3.16172 20.1526 2.84166 20.7127C1.12135 23.6734 2.12153 27.4342 5.08207 29.1546C6.28228 29.8347 9.00278 30.6749 11.2032 29.1146Z" fill="url(#paint2_linear_214_1147)"/>
<path d="M7.3623 7.34937H24.6454V24.6332H7.3623V7.34937Z" fill="black"/>
<path d="M8.96265 21.3926H15.4438V22.4728H8.96265V21.3926Z" fill="white"/>
<path d="M11.5232 13.9508L8.80273 9.62988H10.6431L12.3234 12.4705L14.0837 9.62988H15.884L13.1235 13.9108V16.7915H11.5232V13.9508Z" fill="white"/>
<path d="M18.6445 11.0702H16.4441V9.62988H22.4052V11.0702H20.2048V16.7915H18.6445V11.0702Z" fill="white"/>
<defs>
<linearGradient id="paint0_linear_214_1147" x1="4.8353" y1="23.8944" x2="27.6489" y2="13.4952" gradientUnits="userSpaceOnUse">
<stop stop-color="#905CFB"/>
<stop offset="0.165" stop-color="#6677F8"/>
<stop offset="0.378" stop-color="#3596F5"/>
<stop offset="0.54" stop-color="#17A9F3"/>
<stop offset="0.632" stop-color="#0CB0F2"/>
</linearGradient>
<linearGradient id="paint1_linear_214_1147" x1="14.1278" y1="13.2434" x2="2.42845" y2="2.91036" gradientUnits="userSpaceOnUse">
<stop stop-color="#905CFB"/>
<stop offset="0.072" stop-color="#A554E6"/>
<stop offset="0.252" stop-color="#D641B5"/>
<stop offset="0.39" stop-color="#F43597"/>
<stop offset="0.468" stop-color="#FF318C"/>
</linearGradient>
<linearGradient id="paint2_linear_214_1147" x1="3.99507" y1="25.4678" x2="31.6167" y2="8.06409" gradientUnits="userSpaceOnUse">
<stop stop-color="#905CFB"/>
<stop offset="0.165" stop-color="#6677F8"/>
<stop offset="0.378" stop-color="#3596F5"/>
<stop offset="0.54" stop-color="#17A9F3"/>
<stop offset="0.632" stop-color="#0CB0F2"/>
</linearGradient>
</defs>
</svg>
