<svg width="32" height="32" viewBox="0 0 32 32" fill="none" xmlns="http://www.w3.org/2000/svg">
<path d="M31 22.5651C31 25.0095 28.9095 27 26.3423 27H1V9.43492C1 6.99048 3.09046 5 5.6577 5H31V22.5651Z" fill="white"/>
<path d="M24.4534 6.48438C22.6197 6.48438 21.116 7.89866 21.116 9.66215V12.9622H25.8287C25.9387 12.9622 26.0671 12.9622 26.1588 12.9796C27.2224 13.032 28.0109 13.5558 28.0109 14.4637C28.0109 15.1796 27.4791 15.7907 26.4889 15.9129V15.9479C27.5708 16.0177 28.3959 16.5939 28.3959 17.4844C28.3959 18.4447 27.4791 19.0733 26.2688 19.0733H21.0977V25.5336H25.9937C27.8275 25.5336 29.3312 24.1193 29.3312 22.3558V6.48438H24.4534Z" fill="url(#paint0_linear_214_1455)"/>
<path d="M22.748 18.0606H24.6735C24.701 18.0606 24.7468 18.0562 24.7927 18.0518C24.8385 18.0475 24.8844 18.0431 24.9119 18.0431C25.2786 17.9733 25.5903 17.659 25.5903 17.2225C25.5903 16.8034 25.2786 16.4891 24.9119 16.4018C24.8568 16.3844 24.7468 16.3844 24.6735 16.3844H22.748V18.0606Z" fill="url(#paint1_linear_214_1455)"/>
<path d="M24.6735 13.9224C25.0402 13.9748 25.352 14.2541 25.352 14.6732C25.352 15.0922 25.0402 15.3716 24.6735 15.424C24.6551 15.4414 24.5451 15.4414 24.4901 15.4414H22.748V13.9049H24.4901C24.5204 13.9049 24.5618 13.9102 24.599 13.915C24.6294 13.9188 24.657 13.9224 24.6735 13.9224Z" fill="url(#paint2_linear_214_1455)"/>
<path d="M6.00614 6.48438C4.1724 6.48438 2.66873 7.89866 2.66873 9.66215V17.5018C3.60394 17.9383 4.57582 18.2177 5.5477 18.2177C6.70296 18.2177 7.32643 17.5542 7.32643 16.6463V12.9447H10.1871V16.6288C10.1871 18.0606 9.25186 19.2304 6.07949 19.2304C4.15406 19.2304 2.65039 18.8288 2.65039 18.8288V25.5161H7.54648C9.38022 25.5161 10.8839 24.1018 10.8839 22.3383V6.48438H6.00614Z" fill="url(#paint3_linear_214_1455)"/>
<path d="M15.23 6.48438C13.3962 6.48438 11.8926 7.89866 11.8926 9.66215V13.8177C12.7361 13.1368 14.2031 12.7002 16.5686 12.805C17.8339 12.8574 19.1909 13.1891 19.1909 13.1891V14.5336C18.5124 14.2018 17.7055 13.905 16.6603 13.8352C14.8632 13.7129 13.7813 14.551 13.7813 16.0177C13.7813 17.5018 14.8632 18.3399 16.6603 18.2002C17.7055 18.1304 18.5124 17.8161 19.1909 17.5018V18.8463C19.1909 18.8463 17.8522 19.178 16.5686 19.2304C14.2031 19.3352 12.7361 18.8987 11.8926 18.2177V25.551H16.7887C18.6224 25.551 20.1261 24.1368 20.1261 22.3733V6.48438H15.23Z" fill="url(#paint4_linear_214_1455)"/>
<defs>
<linearGradient id="paint0_linear_214_1455" x1="21.1124" y1="14.6705" x2="29.353" y2="14.6705" gradientUnits="userSpaceOnUse">
<stop stop-color="#007940"/>
<stop offset="0.2285" stop-color="#00873F"/>
<stop offset="0.7433" stop-color="#40A737"/>
<stop offset="1" stop-color="#5CB531"/>
</linearGradient>
<linearGradient id="paint1_linear_214_1455" x1="21.1124" y1="14.6705" x2="29.353" y2="14.6705" gradientUnits="userSpaceOnUse">
<stop stop-color="#007940"/>
<stop offset="0.2285" stop-color="#00873F"/>
<stop offset="0.7433" stop-color="#40A737"/>
<stop offset="1" stop-color="#5CB531"/>
</linearGradient>
<linearGradient id="paint2_linear_214_1455" x1="21.1124" y1="14.6705" x2="29.353" y2="14.6705" gradientUnits="userSpaceOnUse">
<stop stop-color="#007940"/>
<stop offset="0.2285" stop-color="#00873F"/>
<stop offset="0.7433" stop-color="#40A737"/>
<stop offset="1" stop-color="#5CB531"/>
</linearGradient>
<linearGradient id="paint3_linear_214_1455" x1="2.66456" y1="16.001" x2="11.0327" y2="16.001" gradientUnits="userSpaceOnUse">
<stop stop-color="#1F286F"/>
<stop offset="0.4751" stop-color="#004E94"/>
<stop offset="0.8261" stop-color="#0066B1"/>
<stop offset="1" stop-color="#006FBC"/>
</linearGradient>
<linearGradient id="paint4_linear_214_1455" x1="11.8449" y1="16.001" x2="19.972" y2="16.001" gradientUnits="userSpaceOnUse">
<stop stop-color="#6C2C2F"/>
<stop offset="0.1735" stop-color="#882730"/>
<stop offset="0.5731" stop-color="#BE1833"/>
<stop offset="0.8585" stop-color="#DC0436"/>
<stop offset="1" stop-color="#E60039"/>
</linearGradient>
</defs>
</svg>
