<svg width="32" height="32" viewBox="0 0 32 32" fill="none" xmlns="http://www.w3.org/2000/svg">
<path d="M15.9947 3C8.26662 3 2 7.97177 2 14.1072C2 18.074 4.6181 21.5489 8.56102 23.5218L7.14157 28.6258C7.14157 28.6258 7.11528 28.8638 7.26774 28.9537C7.4202 29.0436 7.60421 28.9749 7.60421 28.9749C8.04581 28.9114 12.7037 25.6163 13.5186 25.045C14.3229 25.1614 15.1588 25.2196 16.0053 25.2196C23.7334 25.2196 30 20.2478 30 14.1124C30 7.97706 23.7229 3 15.9947 3Z" fill="black"/>
<path d="M8.25617 17.9788C7.80931 17.9788 7.44656 17.6297 7.44656 17.2013V12.3723H6.18482C5.74847 12.3723 5.39624 12.0179 5.39624 11.5789C5.39624 11.1399 5.75373 10.7856 6.18482 10.7856H10.3223C10.7586 10.7856 11.1108 11.1399 11.1108 11.5789C11.1108 12.0179 10.7534 12.3723 10.3223 12.3723H9.06053V17.2013C9.06053 17.6244 8.69252 17.9788 8.25092 17.9788H8.25617ZM15.3377 17.9682C15.0012 17.9682 14.7436 17.8307 14.6647 17.6085L14.2652 16.5507H11.8048L11.4053 17.6085C11.3264 17.8307 11.0688 17.9682 10.7323 17.9682C10.5536 17.9682 10.3801 17.9312 10.2171 17.8624C9.99631 17.7566 9.78077 17.4763 10.0279 16.7094L11.9573 11.5948C12.0939 11.2034 12.5093 10.8014 13.035 10.7909C13.5607 10.7803 13.9813 11.2034 14.1127 11.5948L16.0421 16.7094C16.2892 17.4763 16.0737 17.7672 15.8529 17.8624C15.6952 17.9365 15.5164 17.9682 15.3377 17.9682ZM13.8393 15.1121L13.035 12.806L12.2306 15.1121H13.8393ZM17.3407 17.8624C16.9201 17.8624 16.5679 17.5292 16.5679 17.1219V11.5948C16.5679 11.1452 16.9359 10.7803 17.3932 10.7803C17.8506 10.7803 18.2186 11.1505 18.2186 11.5948V16.3656H19.9325C20.3531 16.3656 20.7053 16.6988 20.7053 17.1061C20.7053 17.5133 20.3583 17.8465 19.9325 17.8465L17.3407 17.8624ZM21.0155 17.1537V11.6001C21.0155 11.1505 21.3835 10.7856 21.8251 10.7856C22.2667 10.7856 22.6347 11.1558 22.6347 11.6001V13.3455L24.8953 11.0712C25.1441 10.8208 25.6146 10.8428 25.8994 11.1294C26.167 11.3986 26.2366 11.8536 25.9573 12.1396L24.1067 13.9908L26.0939 16.6353C26.361 16.9792 26.2962 17.5148 25.9362 17.7672C25.5814 18.0317 25.06 17.9435 24.8059 17.6085L22.9133 15.0856L22.6347 15.3659V17.1378C22.6347 18.1932 21.0155 18.2338 21.0155 17.1537Z" fill="#FFE812"/>
</svg>
