<svg width="32" height="24" viewBox="0 0 32 24" fill="none" xmlns="http://www.w3.org/2000/svg">
<rect width="32" height="24" rx="4" fill="#F1B7C7"/>
<path d="M28.2599 13.4423C27.8512 13.4423 27.5199 13.7849 27.5199 14.2074C27.5199 14.6299 27.8512 14.9725 28.2599 14.9725C28.6686 14.9725 29 14.6299 29 14.2074C29 13.7849 28.6686 13.4423 28.2599 13.4423Z" fill="#17120F"/>
<path d="M16.3911 11.3452V10.8149H15.1837V14.8864H16.3938V12.9854C16.3938 12.3441 17.0662 11.9994 17.5328 11.9994C17.5376 11.9994 17.5421 11.9998 17.5468 11.9999V10.8151C17.0679 10.8151 16.6275 11.0271 16.3911 11.3452Z" fill="#17120F"/>
<path d="M20.4856 10.7056C20.0145 10.7056 19.5687 10.8568 19.2706 11.2739V10.8154H18.0964V14.8867H19.285V12.7471C19.285 12.1279 19.6867 11.8247 20.1703 11.8247C20.6886 11.8247 20.9865 12.1448 20.9865 12.7386V14.8867H22.1644V12.2975C22.1644 11.35 21.4356 10.7056 20.4856 10.7056Z" fill="#17120F"/>
<path fill-rule="evenodd" clip-rule="evenodd" d="M25.8284 10.8155V11.076C25.4952 10.841 25.0931 10.703 24.6593 10.703C23.5115 10.703 22.581 11.6648 22.581 12.8514C22.581 14.0379 23.5115 14.9998 24.6593 14.9998C25.0931 14.9998 25.4952 14.8617 25.8284 14.6268V14.887H27.0076V10.8155H25.8284ZM25.8247 12.8505C25.8247 13.4291 25.3463 13.8982 24.7561 13.8982C24.1659 13.8982 23.6876 13.4291 23.6876 12.8505C23.6876 12.2719 24.1659 11.803 24.7561 11.803C25.3463 11.803 25.8247 12.2719 25.8247 12.8505Z" fill="#17120F"/>
<path fill-rule="evenodd" clip-rule="evenodd" d="M13.3871 10.8155V11.076C13.0539 10.841 12.6518 10.703 12.2181 10.703C11.0702 10.703 10.1397 11.6648 10.1397 12.8514C10.1397 14.0379 11.0702 14.9998 12.2181 14.9998C12.6518 14.9998 13.0539 14.8617 13.3871 14.6268V14.887H14.5664V10.8155H13.3871ZM13.3835 12.8505C13.3835 13.4291 12.905 13.8982 12.3149 13.8982C11.7247 13.8982 11.2463 13.4291 11.2463 12.8505C11.2463 12.2719 11.7247 11.803 12.3149 11.803C12.905 11.803 13.3835 12.2719 13.3835 12.8505Z" fill="#17120F"/>
<path d="M8.42216 14.8867H9.65686V9.0008H8.42216V14.8867Z" fill="#17120F"/>
<path d="M7.57128 8.99976H6.29222C6.29222 10.0834 5.81022 11.0781 4.96986 11.7288L4.46312 12.1211L6.42658 14.8887H8.04092L6.23428 12.342C7.09066 11.4605 7.57128 10.2746 7.57128 8.99976Z" fill="#17120F"/>
<path d="M3 14.8884H4.30742V8.99976H3V14.8884Z" fill="#17120F"/>
</svg>
