<svg width="32" height="32" viewBox="0 0 32 32" fill="none" xmlns="http://www.w3.org/2000/svg">
<path d="M16 30C23.732 30 30 23.732 30 16C30 8.26801 23.732 2 16 2C8.26801 2 2 8.26801 2 16C2 23.732 8.26801 30 16 30Z" fill="#4B4C9B"/>
<path d="M15.4701 9.39651C16.9292 9.30436 18.4114 9.59618 19.7246 10.249C21.6599 11.2012 23.1958 12.9138 23.9254 14.9412C24.2479 15.8397 24.4169 16.7843 24.4169 17.7289V21.2539C24.4169 21.3998 24.4246 21.5457 24.3862 21.684C24.3094 22.0372 24.0559 22.3521 23.718 22.5057C23.4877 22.6132 23.2189 22.6285 22.9731 22.5901C22.4355 22.4903 22.0208 21.9835 22.0132 21.4382C22.0055 20.3477 22.0132 19.2495 22.0132 18.1513C22.0208 17.8364 22.0208 17.5062 21.8519 17.2374C21.5831 16.7306 20.915 16.4925 20.3851 16.7075C19.932 16.8688 19.6094 17.3219 19.6017 17.798C19.5941 18.9116 19.6017 20.0175 19.6017 21.131C19.6017 21.3384 19.6094 21.5534 19.5557 21.7531C19.4405 22.1447 19.1179 22.4596 18.7263 22.5671C18.2117 22.713 17.6204 22.4826 17.3593 22.0065C17.1827 21.7223 17.198 21.3768 17.198 21.0542C17.1903 19.9483 17.2057 18.8502 17.1903 17.7443C17.1827 17.1837 16.7219 16.6768 16.1613 16.6077C15.8003 16.5539 15.4163 16.6691 15.1552 16.9302C14.9172 17.153 14.7866 17.4755 14.7866 17.798V21.0158C14.7789 21.2846 14.8173 21.5688 14.7098 21.8145C14.5485 22.2753 14.0878 22.6132 13.5963 22.5978C13.0971 22.6285 12.6056 22.283 12.4443 21.8145C12.3522 21.5841 12.3752 21.3307 12.3752 21.0849C12.3752 19.9791 12.3829 18.8655 12.3752 17.752C12.3675 17.199 11.9451 16.6999 11.4076 16.6C10.9237 16.4925 10.3862 16.7459 10.1327 17.1837C10.0252 17.368 9.97147 17.583 9.97147 17.7904V21.3921C9.97915 21.7454 9.8102 22.091 9.54909 22.3137C9.14207 22.6669 8.48162 22.69 8.05156 22.3598C7.73669 22.1447 7.56006 21.7838 7.56006 21.4075V17.7596C7.56774 16.3773 7.91332 15.0027 8.56609 13.7893C9.10367 12.7986 9.84091 11.9154 10.7318 11.2089C12.0834 10.1491 13.7575 9.50403 15.4701 9.39651Z" fill="white"/>
</svg>
