<svg width="32" height="32" viewBox="0 0 32 32" fill="none" xmlns="http://www.w3.org/2000/svg">
<path d="M16 30C23.732 30 30 23.732 30 16C30 8.26801 23.732 2 16 2C8.26801 2 2 8.26801 2 16C2 23.732 8.26801 30 16 30Z" fill="#23AF91"/>
<path d="M13.6485 16.0029L17.7938 20.151L20.4106 17.5342C20.8782 17.1131 21.5946 17.1322 22.0403 17.5779C22.486 18.0236 22.5052 18.74 22.0841 19.2076L18.6306 22.6584C18.1657 23.115 17.422 23.115 16.9599 22.6584L11.9778 17.6736V20.635C11.9778 21.2885 11.4474 21.8189 10.7938 21.8189C10.1403 21.8189 9.60986 21.2885 9.60986 20.635V11.3627C9.60986 10.7092 10.1403 10.1787 10.7938 10.1787C11.4474 10.1787 11.9778 10.7092 11.9778 11.3627V14.324L16.9599 9.34199C17.4247 8.88535 18.1685 8.88535 18.6306 9.34199L22.0868 12.7955C22.5079 13.2631 22.4888 13.9795 22.0431 14.4252C21.5974 14.8709 20.881 14.89 20.4134 14.4689L17.7966 11.8521L13.6485 16.0029ZM17.7993 14.8162C17.3208 14.8162 16.8888 15.1033 16.7028 15.5463C16.5196 15.9893 16.6208 16.4979 16.9599 16.8369C17.2989 17.176 17.8075 17.2771 18.2505 17.0939C18.6935 16.9107 18.9833 16.4787 18.9833 16.0002C18.9833 15.6857 18.8575 15.385 18.636 15.1607C18.4146 14.942 18.1138 14.8162 17.7993 14.8162Z" fill="white"/>
</svg>
