<svg width="32" height="32" viewBox="0 0 32 32" fill="none" xmlns="http://www.w3.org/2000/svg">
<path fill-rule="evenodd" clip-rule="evenodd" d="M12.6346 19.1856L20.2607 22.6583C21.206 23.0889 21.8731 23.8116 22.2334 24.6406C23.1447 26.7399 21.8992 28.8869 19.944 29.6591C17.9883 30.4309 15.9041 29.9342 14.9565 27.7511L11.6376 20.0866C11.3804 19.4925 12.0265 18.9087 12.6346 19.1856Z" fill="#FFC233"/>
<path fill-rule="evenodd" clip-rule="evenodd" d="M13.0917 16.9376L20.9638 14.0066C23.5801 13.0325 26.438 14.8756 26.3994 17.5536C26.3988 17.5886 26.3982 17.6235 26.3973 17.6588C26.3408 20.2666 23.5623 22.0194 21.0035 21.0968L13.0991 18.2473C12.4686 18.0201 12.4639 17.1713 13.0917 16.9376Z" fill="#FFC233"/>
<path fill-rule="evenodd" clip-rule="evenodd" d="M12.6512 15.9224L20.3898 12.6837C22.9613 11.6074 23.614 8.37695 21.5999 6.51043C21.5736 6.48585 21.5472 6.46156 21.5205 6.43728C19.5458 4.63207 16.2817 5.26767 15.1575 7.64539L11.6849 14.9915C11.4078 15.5773 12.034 16.1806 12.6512 15.9224Z" fill="#FFC233"/>
<path fill-rule="evenodd" clip-rule="evenodd" d="M10.6598 14.6426L13.4733 7.04415C13.8221 6.102 13.7575 5.1412 13.3969 4.3122C12.4837 2.21378 10.0106 1.53642 8.05559 2.30974C6.10092 3.08336 4.99639 4.84029 5.94593 7.02253L9.28654 14.6787C9.54559 15.272 10.4355 15.2486 10.6598 14.6426Z" fill="#FFC233"/>
</svg>
