<svg width="32" height="32" viewBox="0 0 32 32" fill="none" xmlns="http://www.w3.org/2000/svg">
<path d="M2 7C2 4.23858 4.23858 2 7 2H25C27.7614 2 30 4.23858 30 7V25C30 27.7614 27.7614 30 25 30H7C4.23858 30 2 27.7614 2 25V7Z" fill="url(#paint0_linear_214_862)"/>
<path d="M6.24507 18.3049C6.20058 18.1152 6.42656 17.9957 6.56437 18.1335L13.8668 25.4359C14.0046 25.5738 13.8852 25.7997 13.6954 25.7552C10.0103 24.8907 7.10957 21.99 6.24507 18.3049Z" fill="url(#paint1_linear_214_862)"/>
<path d="M6.00038 15.3779C5.99683 15.4346 6.01816 15.4899 6.05827 15.53L16.4701 25.9418C16.5102 25.9819 16.5655 26.0032 16.6222 25.9997C17.096 25.9702 17.5609 25.9077 18.0147 25.8145C18.1675 25.7831 18.2207 25.5953 18.1103 25.4849L6.51519 13.8898C6.4048 13.7794 6.21695 13.8325 6.18554 13.9854C6.09238 14.4391 6.02988 14.904 6.00038 15.3779Z" fill="url(#paint2_linear_214_862)"/>
<path d="M6.84218 11.9409C6.8089 12.0157 6.82585 12.103 6.8837 12.1609L19.839 25.1161C19.8968 25.174 19.9841 25.1909 20.0589 25.1577C20.4161 24.9986 20.7624 24.8191 21.096 24.6209C21.2065 24.5552 21.2235 24.4035 21.1327 24.3127L7.68714 10.8672C7.59632 10.7764 7.4446 10.7934 7.37897 10.9038C7.18069 11.2375 7.00128 11.5837 6.84218 11.9409Z" fill="url(#paint3_linear_214_862)"/>
<path d="M8.53175 9.61481C8.45773 9.54079 8.45312 9.42204 8.52289 9.34399C10.3559 7.29188 13.0223 6 15.9904 6C21.5186 6 26 10.4815 26 16.0096C26 18.9778 24.7081 21.6441 22.656 23.4771C22.578 23.5469 22.4592 23.5423 22.3852 23.4683L8.53175 9.61481Z" fill="url(#paint4_linear_214_862)"/>
<defs>
<linearGradient id="paint0_linear_214_862" x1="16" y1="2" x2="16" y2="30" gradientUnits="userSpaceOnUse">
<stop stop-color="#5C6BF1"/>
<stop offset="1" stop-color="#283188"/>
</linearGradient>
<linearGradient id="paint1_linear_214_862" x1="7.23565" y1="-20.5809" x2="34.3685" y2="19.1891" gradientUnits="userSpaceOnUse">
<stop stop-color="white"/>
<stop offset="1" stop-color="white" stop-opacity="0.65"/>
</linearGradient>
<linearGradient id="paint2_linear_214_862" x1="7.17396" y1="-3.81841" x2="24.3137" y2="21.3042" gradientUnits="userSpaceOnUse">
<stop stop-color="white"/>
<stop offset="1" stop-color="white" stop-opacity="0.65"/>
</linearGradient>
<linearGradient id="paint3_linear_214_862" x1="5.84547" y1="1.89064" x2="20.3641" y2="23.1713" gradientUnits="userSpaceOnUse">
<stop stop-color="white"/>
<stop offset="1" stop-color="white" stop-opacity="0.65"/>
</linearGradient>
<linearGradient id="paint4_linear_214_862" x1="6.71428" y1="7.85715" x2="17.1428" y2="23.1429" gradientUnits="userSpaceOnUse">
<stop stop-color="white"/>
<stop offset="1" stop-color="white" stop-opacity="0.65"/>
</linearGradient>
</defs>
</svg>
