<svg width="32" height="32" viewBox="0 0 32 32" fill="none" xmlns="http://www.w3.org/2000/svg">
<path d="M30 13.9979C30 7.65792 23.7199 2.5 15.9999 2.5C8.28094 2.5 2 7.65792 2 13.9979C2 19.6817 6.98063 24.4417 13.7084 25.3418C14.1644 25.4412 14.7849 25.646 14.9419 26.0404C15.0831 26.3986 15.0342 26.9598 14.987 27.3216C14.987 27.3216 14.8227 28.3214 14.7873 28.5343C14.7264 28.8926 14.5061 29.9353 15.9999 29.2981C17.4942 28.6609 24.0626 24.4935 26.9998 21.072C29.0287 18.8204 30 16.5353 30 13.9979Z" fill="#2CCF54"/>
<path d="M13.1553 10.9244H12.1733C12.0228 10.9244 11.9004 11.0478 11.9004 11.1995V17.366C11.9004 17.5179 12.0228 17.6411 12.1733 17.6411H13.1553C13.3059 17.6411 13.428 17.5179 13.428 17.366V11.1995C13.428 11.0478 13.3059 10.9244 13.1553 10.9244Z" fill="white"/>
<path d="M19.9147 10.9244H18.9327C18.7821 10.9244 18.66 11.0478 18.66 11.1995V14.8631L15.8645 11.0467C15.8128 10.9683 15.729 10.9295 15.6375 10.9244H14.6558C14.5052 10.9244 14.3828 11.0478 14.3828 11.1995V17.366C14.3828 17.5179 14.5052 17.6411 14.6558 17.6411H15.6375C15.7883 17.6411 15.9104 17.5179 15.9104 17.366V13.7035L18.7094 17.5247C18.7597 17.5967 18.845 17.6411 18.9327 17.6411H19.9147C20.0655 17.6411 20.1874 17.5179 20.1874 17.366V11.1995C20.1874 11.0478 20.0655 10.9244 19.9147 10.9244Z" fill="white"/>
<path d="M10.7884 16.0969H8.12013V11.1998C8.12013 11.0476 7.99802 10.9241 7.84773 10.9241H6.86545C6.71489 10.9241 6.59277 11.0476 6.59277 11.1998V17.3652C6.59277 17.5149 6.71435 17.6411 6.86518 17.6411H10.7884C10.9389 17.6411 11.0605 17.5174 11.0605 17.3652V16.3725C11.0605 16.2203 10.9389 16.0969 10.7884 16.0969Z" fill="white"/>
<path d="M25.3377 12.4683C25.4883 12.4683 25.6098 12.3452 25.6098 12.1927V11.2C25.6098 11.0478 25.4883 10.9241 25.3377 10.9241H21.4148C21.2641 10.9241 21.1421 11.0501 21.1421 11.1998V17.3655C21.1421 17.5147 21.2638 17.6411 21.4142 17.6411H25.3377C25.4883 17.6411 25.6098 17.5174 25.6098 17.3655V16.3725C25.6098 16.2206 25.4883 16.0969 25.3377 16.0969H22.6697V15.0546H25.3377C25.4883 15.0546 25.6098 14.9311 25.6098 14.7789V13.7863C25.6098 13.6341 25.4883 13.5104 25.3377 13.5104H22.6697V12.4683H25.3377Z" fill="white"/>
</svg>
