<svg width="32" height="32" viewBox="0 0 32 32" fill="none" xmlns="http://www.w3.org/2000/svg">
<path d="M30 16C30 23.728 23.735 30 16 30C8.265 30 2 23.728 2 16C2 8.265 8.265 2 16 2C23.735 2 30 8.265 30 16Z" fill="white"/>
<path d="M11.3068 21.91C11.1815 21.7232 11.0718 21.4713 10.9829 21.1699C9.3762 19.358 10.6174 16.6916 11.8451 14.881C11.9628 14.6874 12.091 14.5004 12.2304 14.3215C13.167 13.1577 13.4094 12.3478 13.4815 11.2521C13.49 11.0481 13.4731 10.7781 13.4537 10.4678C13.3547 8.8837 13.19 6.25174 16.0164 6.0184C19.5493 5.72669 19.2616 8.97105 19.2355 10.8732C19.2344 10.9519 19.2333 11.0285 19.2325 11.1024C19.223 12.249 19.8214 13.0341 20.446 13.8535C20.6741 14.1528 20.9057 14.4566 21.1125 14.7843C21.1186 14.794 21.1247 14.8038 21.1308 14.8135C22.2223 16.3877 23.2998 18.737 21.8 20.9653C21.5892 21.7259 21.27 22.424 20.8439 22.9921C19.3141 25.0052 17.9543 24.8008 16.8925 24.6412C16.5722 24.5931 16.279 24.549 16.0164 24.5711C15.5802 24.5977 15.2306 24.6682 14.9286 24.7292C13.7613 24.9648 13.3051 25.0569 11.3068 21.91Z" fill="black"/>
<path d="M18.0141 7.79476C17.9814 8.72716 16.9923 9.53705 15.8067 9.61192C14.6211 9.68678 13.691 8.97897 13.7237 8.04658C13.7565 7.11418 14.7456 6.30428 15.9312 6.22942C17.1168 6.16136 18.0469 6.86236 18.0141 7.79476Z" fill="url(#paint0_linear_214_1173)"/>
<path fill-rule="evenodd" clip-rule="evenodd" d="M15.8656 10.0611C15.8751 10.5682 16.1073 11.0005 16.4334 11.1957C15.3695 11.1004 14.0512 11.4894 14.0512 12.2254C14.0348 13.4706 13.3418 15.0198 12.8429 16.1349C12.7447 16.3545 12.654 16.5573 12.5774 16.7377C12.2686 17.5024 12.0833 18.3202 12.0614 19.1224C11.2435 17.995 11.8378 16.5487 12.1582 15.921C12.5846 15.0949 12.5764 14.9918 12.4108 15.1854C11.7759 16.265 10.5803 18.4335 12.0775 19.7362C12.125 20.3179 12.2667 20.8816 12.5185 21.3997C14.5228 25.4423 18.2761 23.7817 19.5141 21.6855C19.6788 21.3875 19.812 21.0991 19.9177 20.8205C19.9797 20.8596 20.0461 20.8898 20.1167 20.9096C20.739 21.0934 21.6691 20.3924 21.8918 19.9568C22.1604 19.3783 21.8853 18.9836 20.9683 18.514C20.9215 18.4908 20.8753 18.4691 20.8297 18.4488C21.1814 16.9678 20.2122 15.4278 19.52 14.7745C19.3909 14.7427 19.3727 14.8159 19.5731 15.0158C20.009 15.4335 20.9572 16.9231 20.4442 18.3093C20.3597 18.2866 20.2784 18.2707 20.2009 18.2619C20.0433 17.3161 19.6231 16.5802 19.3294 16.0661C19.2629 15.9496 19.2029 15.8444 19.1538 15.7508C19.055 15.562 18.9368 15.3664 18.8114 15.159C18.3283 14.3597 17.739 13.3845 17.739 11.9396C17.6651 11.6216 17.3651 11.4097 16.9658 11.2926C17.4293 11.1991 17.7772 10.6576 17.7652 10.0067C17.7521 9.3057 17.3132 8.74762 16.7892 8.76123C16.2652 8.77484 15.846 9.36014 15.8656 10.0611ZM16.2979 10.2177C16.2914 10.6056 16.4748 10.9187 16.7172 10.9187C16.953 10.9187 17.156 10.6056 17.1626 10.2245C17.1691 9.83655 16.9857 9.52349 16.7434 9.52349C16.501 9.52349 16.3045 9.83655 16.2979 10.2177Z" fill="url(#paint1_linear_214_1173)"/>
<path fill-rule="evenodd" clip-rule="evenodd" d="M14.5556 11.1501C14.9355 11.1297 15.2106 10.6192 15.1779 10.0135C15.1451 9.40778 14.8111 8.93818 14.4311 8.9586C14.0512 8.97902 13.7761 9.48945 13.8089 10.0952C13.8416 10.7009 14.1757 11.1705 14.5556 11.1501ZM14.7848 10.2245C14.8176 10.5444 14.6997 10.8166 14.5294 10.8438C14.3591 10.8642 14.1953 10.626 14.1626 10.3062C14.1298 9.98628 14.2477 9.71405 14.418 9.68682C14.5883 9.6664 14.7521 9.90461 14.7848 10.2245Z" fill="url(#paint2_linear_214_1173)"/>
<path d="M16.3963 9.99987C16.3767 10.2177 16.4749 10.3946 16.6125 10.4082C16.75 10.4218 16.881 10.2517 16.9007 10.0407C16.9203 9.82292 16.8221 9.64597 16.6845 9.63236C16.547 9.61874 16.416 9.78889 16.3963 9.99987Z" fill="url(#paint3_linear_214_1173)"/>
<path d="M14.6407 10.0542C14.6604 10.2312 14.5883 10.3877 14.4835 10.4013C14.3787 10.4149 14.2805 10.2788 14.2608 10.0951C14.2412 9.91811 14.3132 9.76158 14.418 9.74797C14.5228 9.73436 14.6211 9.87728 14.6407 10.0542Z" fill="url(#paint4_linear_214_1173)"/>
<path d="M18.6693 17.1528C18.6693 18.3506 17.5623 19.9023 15.6627 19.8887C13.7042 19.9023 12.8723 18.3506 12.8723 17.1528C12.8723 15.9549 14.1693 14.9817 15.7675 14.9817C17.3723 14.9885 18.6693 15.9549 18.6693 17.1528Z" fill="url(#paint5_linear_214_1173)"/>
<path d="M17.6344 13.3892C17.6147 14.6279 16.8352 14.9205 15.8527 14.9205C14.8702 14.9205 14.1562 14.7367 14.071 13.3892C14.071 12.5453 14.8702 12.0552 15.8527 12.0552C16.8352 12.0484 17.6344 12.5385 17.6344 13.3892Z" fill="url(#paint6_linear_214_1173)"/>
<path d="M11.6931 15.2947C12.3351 14.2807 13.691 12.7221 11.9486 15.5125C10.5338 17.8129 11.4246 19.2898 11.8831 19.6981C13.2062 20.9232 13.1538 21.7467 12.1124 21.1001C9.87873 19.7185 10.3438 17.3909 11.6931 15.2947Z" fill="url(#paint7_linear_214_1173)"/>
<path d="M20.9879 15.71C20.4311 14.519 18.6626 11.4972 21.0731 15.009C23.2674 18.1873 21.7281 20.3992 21.453 20.617C21.1779 20.8348 20.2543 21.2771 20.5228 20.5081C20.7979 19.739 22.1604 18.2826 20.9879 15.71Z" fill="url(#paint8_linear_214_1173)"/>
<path d="M11.2084 25.1021C9.74116 24.2922 7.61234 25.2586 8.38526 23.0671C8.54247 22.5703 8.156 21.8217 8.40491 21.3384C8.69967 20.7463 9.33504 20.8756 9.71496 20.4809C10.0883 20.0726 10.3241 19.3648 11.025 19.4736C11.7193 19.5825 12.1844 20.4673 12.6691 21.5562C13.0294 22.3321 14.3001 23.4278 14.215 24.299C14.1102 25.6329 12.6495 25.8847 11.2084 25.1021Z" fill="url(#paint9_linear_214_1173)"/>
<path fill-rule="evenodd" clip-rule="evenodd" d="M9.87664 20.6404C9.51984 21.0307 8.86452 20.9371 8.60152 21.4477C8.43261 21.7756 8.61716 22.2796 8.64206 22.6387C8.67282 23.0824 8.30503 23.711 8.49233 24.0899C8.70268 24.5154 9.65296 24.4602 10.0707 24.5213C11.1019 24.6719 12.8063 26.0065 13.7388 24.9414C14.6504 23.9002 12.8982 22.5825 12.4684 21.6569C12.1889 21.0289 11.7706 19.825 10.992 19.7027C10.4431 19.6175 10.1931 20.2943 9.87664 20.6404ZM11.0583 19.2446C12.0278 19.3967 12.5129 20.6535 12.8707 21.4572C13.4138 22.6227 15.2747 23.8755 14.0686 25.2531C12.9732 26.5043 11.2438 25.1604 10.0086 24.98C9.39166 24.8898 8.41858 24.9546 8.09576 24.3015C7.81821 23.7401 8.2362 23.2316 8.1974 22.672C8.16434 22.1952 7.97565 21.6832 8.2077 21.2306C8.52537 20.5945 9.13864 20.7485 9.55546 20.3192C9.99809 19.8328 10.2634 19.1211 11.0583 19.2446Z" fill="#E68C3F"/>
<path d="M21.3809 24.7276C22.4551 23.3732 24.846 23.6523 23.2346 21.7943C22.894 21.3927 22.9988 20.5352 22.5796 20.1677C22.0883 19.7185 21.5447 20.086 21.0468 19.8546C20.549 19.6028 20.025 19.1196 19.4158 19.4599C18.8067 19.807 18.7412 20.7053 18.6822 21.8895C18.6298 22.7403 17.8831 24.1627 18.2826 24.9454C18.8591 26.1568 20.3591 25.9935 21.3809 24.7276Z" fill="url(#paint10_linear_214_1173)"/>
<path fill-rule="evenodd" clip-rule="evenodd" d="M21.8102 19.6979C22.0856 19.6907 22.4155 19.71 22.7253 19.9922C23.1106 20.3319 23.1144 20.8865 23.2597 21.3508C23.4317 21.9006 24.0346 22.2147 23.9985 22.8594C23.9396 23.9134 22.1143 24.1673 21.5525 24.8757C21.0126 25.5444 20.3302 25.9427 19.6826 25.9964C18.7005 26.0778 17.8892 25.2519 17.9467 24.2436C17.9933 23.4274 18.4091 22.6858 18.4598 21.8761C18.489 21.2898 18.5205 20.7461 18.6265 20.3047C18.7336 19.8587 18.9266 19.4745 19.3088 19.2568C20.1458 18.7892 20.9544 19.7203 21.8102 19.6979ZM19.5223 19.6634C19.2958 19.7929 19.1517 20.0314 19.0591 20.4169C18.9654 20.8071 18.9345 21.307 18.9048 21.9043C18.8548 22.716 18.4382 23.457 18.3918 24.271C18.3504 24.997 18.908 25.5958 19.6471 25.5346C20.1489 25.493 20.7277 25.1761 21.2096 24.5795C21.6402 24.0371 23.5142 23.5334 23.5534 22.8325C23.579 22.3749 22.977 21.9456 22.8356 21.494C22.725 21.1405 22.7192 20.593 22.436 20.3447C22.255 20.1793 22.0646 20.1546 21.8214 20.161C21.1167 20.1795 20.1765 19.2989 19.5223 19.6634Z" fill="#E68C3F"/>
<path d="M20.9158 22.9174C22.5796 20.3652 21.3416 20.3856 20.9224 20.1882C20.5032 19.9841 20.0643 19.5825 19.573 19.8616C19.0818 20.1474 19.0556 20.8824 19.0425 21.8489C19.0228 22.5431 18.466 23.7069 18.8001 24.3534C19.2062 25.1089 20.1888 24.0131 20.9158 22.9174Z" fill="url(#paint11_linear_214_1173)"/>
<path d="M10.8679 23.2847C8.37884 21.6105 9.54478 21.0388 9.91814 20.7733C10.3701 20.433 10.3767 19.7797 10.9334 19.8409C11.4902 19.9022 11.8177 20.6168 12.1911 21.5016C12.4662 22.1345 13.4225 22.9784 13.3505 23.7066C13.2588 24.5642 11.9422 23.9993 10.8679 23.2847Z" fill="url(#paint12_linear_214_1173)"/>
<path d="M21.7479 19.9364C21.5514 20.2903 20.7523 20.8484 20.2217 20.6987C19.678 20.5557 19.4291 19.7594 19.5405 19.1605C19.6387 18.48 20.2217 18.4459 20.9553 18.7862C21.7348 19.1537 21.9771 19.4668 21.7479 19.9364Z" fill="black"/>
<path d="M21.2108 19.7389C21.0863 19.9839 20.5623 20.3718 20.1955 20.2697C19.8287 20.1676 19.6453 19.6164 19.7042 19.2012C19.7566 18.7316 20.1496 18.7044 20.6475 18.9358C21.1846 19.1944 21.3549 19.4122 21.2108 19.7389Z" fill="url(#paint13_linear_214_1173)"/>
<path d="M14.4376 10.8573C14.6996 10.6055 15.335 9.83644 16.5402 10.6395C16.763 10.7893 16.9464 10.8029 17.3721 10.9934C18.2302 11.3609 17.8241 12.2457 16.9071 12.5452C16.514 12.6745 16.1603 13.1713 15.4529 13.1237C14.8437 13.0896 14.6865 12.6745 14.3132 12.4499C13.6516 12.0619 13.5533 11.5379 13.9136 11.2589C14.2739 10.9798 14.4114 10.8777 14.4376 10.8573Z" fill="url(#paint14_linear_214_1173)"/>
<path fill-rule="evenodd" clip-rule="evenodd" d="M13.9938 11.3703C13.8568 11.4764 13.8132 11.6174 13.8585 11.7734C13.9515 12.0938 14.6221 12.5345 14.8789 12.7501C15.0249 12.8727 15.1919 12.9699 15.4618 12.985C16.0398 13.0239 16.3608 12.5792 16.8672 12.4126C17.2002 12.3038 17.9049 11.8882 17.6714 11.4119C17.4723 11.0054 16.8013 10.9803 16.468 10.7563C15.8943 10.3742 15.4768 10.3769 15.1793 10.4841C14.8533 10.6016 14.289 11.1416 13.9938 11.3703ZM15.0916 10.2215C15.4786 10.0821 15.9817 10.1021 16.6131 10.5228C17.0281 10.8018 17.6595 10.7749 17.9098 11.2858C18.2287 11.9365 17.456 12.5116 16.9475 12.6777C16.403 12.857 16.0988 13.3061 15.4452 13.2624C15.1063 13.2433 14.8888 13.1158 14.7108 12.9663C14.3413 12.6561 13.717 12.3613 13.5743 11.8694C13.4951 11.5966 13.6106 11.3204 13.8339 11.1474C14.1948 10.8679 14.6825 10.369 15.0916 10.2215Z" fill="#E68C3F"/>
<path fill-rule="evenodd" clip-rule="evenodd" d="M17.4743 11.5668C17.477 11.6179 17.4393 11.6616 17.3901 11.6644C16.6968 11.7037 16.2097 12.4948 15.4267 12.4948C14.9886 12.4948 14.6418 12.2835 14.3939 12.0802C14.3439 12.0392 13.9031 11.6993 13.9031 11.6127C13.9031 11.5616 13.943 11.5201 13.9922 11.5201C14.0844 11.5201 14.3623 11.8217 14.4657 11.9065C14.6992 12.0979 15.0461 12.3096 15.4267 12.3096C16.2018 12.3096 16.6774 11.5192 17.3804 11.4794C17.4296 11.4766 17.4716 11.5158 17.4743 11.5668Z" fill="#E68C3F"/>
<path d="M14.8439 10.7893C14.9749 10.6668 15.3876 10.3333 15.9312 10.6736C16.0492 10.7416 16.1671 10.8165 16.3374 10.9186C16.6845 11.1296 16.5142 11.4358 16.095 11.6264C15.905 11.7081 15.5906 11.885 15.3548 11.8714C15.0928 11.8442 14.916 11.6672 14.7457 11.5515C14.4247 11.3338 14.4443 11.15 14.595 11.0071C14.7064 10.8982 14.8308 10.7961 14.8439 10.7893Z" fill="url(#paint15_linear_214_1173)"/>
<defs>
<linearGradient id="paint0_linear_214_1173" x1="16.0581" y1="6.30641" x2="15.8366" y2="9.30623" gradientUnits="userSpaceOnUse">
<stop stop-color="white" stop-opacity="0.8"/>
<stop offset="1" stop-color="white" stop-opacity="0"/>
</linearGradient>
<linearGradient id="paint1_linear_214_1173" x1="12.8966" y1="22.6724" x2="11.2506" y2="17.2718" gradientUnits="userSpaceOnUse">
<stop stop-color="#FFEED7"/>
<stop offset="1" stop-color="#BDBFC2"/>
</linearGradient>
<linearGradient id="paint2_linear_214_1173" x1="12.8966" y1="22.6724" x2="11.2506" y2="17.2718" gradientUnits="userSpaceOnUse">
<stop stop-color="#FFEED7"/>
<stop offset="1" stop-color="#BDBFC2"/>
</linearGradient>
<linearGradient id="paint3_linear_214_1173" x1="16.6684" y1="9.6557" x2="16.575" y2="10.3545" gradientUnits="userSpaceOnUse">
<stop stop-color="white" stop-opacity="0.65"/>
<stop offset="1" stop-color="white" stop-opacity="0"/>
</linearGradient>
<linearGradient id="paint4_linear_214_1173" x1="14.4337" y1="9.78294" x2="14.5341" y2="10.3483" gradientUnits="userSpaceOnUse">
<stop stop-color="white" stop-opacity="0.65"/>
<stop offset="1" stop-color="white" stop-opacity="0"/>
</linearGradient>
<linearGradient id="paint5_linear_214_1173" x1="15.7616" y1="15.6308" x2="15.7782" y2="19.6274" gradientUnits="userSpaceOnUse">
<stop stop-color="white" stop-opacity="0.8"/>
<stop offset="1" stop-color="white" stop-opacity="0"/>
</linearGradient>
<linearGradient id="paint6_linear_214_1173" x1="15.8501" y1="13.1247" x2="15.8685" y2="14.7138" gradientUnits="userSpaceOnUse">
<stop stop-color="white" stop-opacity="0.65"/>
<stop offset="1" stop-color="white" stop-opacity="0"/>
</linearGradient>
<linearGradient id="paint7_linear_214_1173" x1="11.7195" y1="14.1055" x2="11.7195" y2="19.9372" gradientUnits="userSpaceOnUse">
<stop stop-color="white" stop-opacity="0.65"/>
<stop offset="1" stop-color="white" stop-opacity="0"/>
</linearGradient>
<linearGradient id="paint8_linear_214_1173" x1="21.0328" y1="13.5359" x2="21.0305" y2="18.8052" gradientUnits="userSpaceOnUse">
<stop stop-color="white" stop-opacity="0.65"/>
<stop offset="1" stop-color="white" stop-opacity="0"/>
</linearGradient>
<linearGradient id="paint9_linear_214_1173" x1="11.4281" y1="22.4374" x2="10.5349" y2="25.4214" gradientUnits="userSpaceOnUse">
<stop stop-color="#FFA63F"/>
<stop offset="1" stop-color="#FFFF00"/>
</linearGradient>
<linearGradient id="paint10_linear_214_1173" x1="19.8815" y1="21.5297" x2="22.2651" y2="24.7799" gradientUnits="userSpaceOnUse">
<stop stop-color="#FFA63F"/>
<stop offset="1" stop-color="#FFFF00"/>
</linearGradient>
<linearGradient id="paint11_linear_214_1173" x1="20.5201" y1="18.9333" x2="19.6866" y2="22.8605" gradientUnits="userSpaceOnUse">
<stop stop-color="white" stop-opacity="0.65"/>
<stop offset="1" stop-color="white" stop-opacity="0"/>
</linearGradient>
<linearGradient id="paint12_linear_214_1173" x1="11.2462" y1="19.9042" x2="11.4114" y2="24.3239" gradientUnits="userSpaceOnUse">
<stop stop-color="white" stop-opacity="0.65"/>
<stop offset="1" stop-color="white" stop-opacity="0"/>
</linearGradient>
<linearGradient id="paint13_linear_214_1173" x1="20.3755" y1="18.8616" x2="20.5688" y2="20.1822" gradientUnits="userSpaceOnUse">
<stop stop-color="white" stop-opacity="0.65"/>
<stop offset="1" stop-color="white" stop-opacity="0"/>
</linearGradient>
<linearGradient id="paint14_linear_214_1173" x1="15.7646" y1="10.7837" x2="15.7807" y2="13.1095" gradientUnits="userSpaceOnUse">
<stop stop-color="#FFA63F"/>
<stop offset="1" stop-color="#FFFF00"/>
</linearGradient>
<linearGradient id="paint15_linear_214_1173" x1="15.5103" y1="10.5638" x2="15.506" y2="11.7936" gradientUnits="userSpaceOnUse">
<stop stop-color="white" stop-opacity="0.65"/>
<stop offset="1" stop-color="white" stop-opacity="0"/>
</linearGradient>
</defs>
</svg>
