<svg width="32" height="32" viewBox="0 0 32 32" fill="none" xmlns="http://www.w3.org/2000/svg">
<path opacity="0.26" d="M5.3055 19.5234L5.30091 13.9525V12.2842H2V3L15.9198 3.06797L20.2742 3.0776C25.4853 3.0776 29.9988 7.16113 29.9988 12.5543V29H15.0302C9.82371 29 5.3055 24.9116 5.3055 19.5233V19.5234Z" fill="black"/>
<path d="M27.9993 24.6994V12.7427C27.9993 8.74808 24.6174 5.50991 20.4447 5.50991H16.1136V5.50029L4.40039 5.44727V9.80983H6.19844C7.45357 9.80983 7.67527 10.7073 7.67527 11.9495L7.68456 19.6622C7.68456 23.6568 11.0665 26.8948 15.2346 26.8948H25.5257C26.8449 26.8948 27.9995 26.0294 27.9995 24.6993L27.9993 24.6994Z" fill="url(#paint0_linear_214_1196)"/>
<path opacity="0.175" d="M26.9778 25.709C24.3461 23.8305 22.4822 21.6725 20.9121 18.8158C17.817 12.8935 18.5407 9.95348 10.8762 9.26026C8.66442 9.26026 7.19218 8.75317 4.86401 8.75317V9.59299C4.86401 9.59299 5.78404 10.0767 6.59272 10.0767C7.79864 10.0767 8.00787 10.9432 8.00787 12.1367L8.01552 19.5288C8.01552 23.367 11.2698 26.4776 15.2746 26.4776H25.1573C25.8827 26.4776 26.5343 26.1814 26.9778 25.709Z" fill="url(#paint1_linear_214_1196)"/>
<path d="M17.8186 9.99168C16.8794 9.99168 16.045 10.3528 15.3746 11.0543C14.7045 11.7556 14.3527 12.6309 14.3527 13.6188V18.6123H16.5392V13.6187C16.5392 13.24 16.6584 12.944 16.9194 12.6709C17.1813 12.3969 17.4586 12.2729 17.8186 12.2729C18.1862 12.2729 18.4592 12.3964 18.7217 12.6709C18.9827 12.9439 19.102 13.24 19.102 13.6187V18.6122H21.2885V13.6187C21.2885 13.24 21.4077 12.944 21.6688 12.6709C21.9313 12.3963 22.2044 12.2729 22.572 12.2729C22.932 12.2729 23.2093 12.3969 23.4711 12.6709C23.732 12.9439 23.8514 13.24 23.8514 13.6187L23.8633 19.4533C23.8633 20.698 22.719 21.747 21.2489 21.747L14.1981 21.7183C13.0637 21.7183 12.0947 20.5744 12.0947 19.1046V8.11719H10.0271V19.5273C10.0271 20.7379 10.4547 21.7995 11.2867 22.658C11.9978 23.385 12.853 23.8153 13.8139 23.9217V23.9628H21.6649C22.8712 23.9628 23.9311 23.4981 24.7863 22.5964H24.7902C25.5174 21.8225 25.9425 20.8951 26.0457 19.8514L26.0379 13.6188C26.0379 12.6309 25.686 11.7556 25.0159 11.0543C24.3455 10.3528 23.511 9.99168 22.572 9.99168C21.6501 9.99168 20.8435 10.3467 20.1913 10.9969C19.541 10.3477 18.74 9.99168 17.8186 9.99168Z" fill="black" fill-opacity="0.08"/>
<path d="M17.6443 10.0513C16.7051 10.0513 15.8706 10.4124 15.2001 11.1139C14.53 11.8152 14.1782 12.6904 14.1782 13.6783V18.6718H16.3647V13.6783C16.3647 13.2997 16.4839 13.0037 16.745 12.7306C17.0068 12.4566 17.2842 12.3326 17.6443 12.3326C18.0117 12.3326 18.285 12.4561 18.5473 12.7306C18.8084 13.0036 18.9276 13.2997 18.9276 13.6783V18.6718H21.1142V13.6783C21.1142 13.2997 21.2334 13.0037 21.4945 12.7306C21.7569 12.4559 22.03 12.3326 22.3976 12.3326C22.7577 12.3326 23.0349 12.4566 23.2968 12.7306C23.5579 13.0036 23.6771 13.2997 23.6771 13.6783L23.689 19.513C23.689 20.7577 22.5446 21.8066 21.0746 21.8066L14.0236 21.7779C12.8892 21.7779 11.9203 20.6341 11.9203 19.1643V8.17676H9.85254V19.5868C9.85254 20.7975 10.2802 21.8591 11.1122 22.7175C11.8233 23.4446 12.6786 23.9159 13.6394 24.0224H21.4905C22.6969 24.0224 23.7569 23.5577 24.612 22.656H24.6159C25.3432 21.882 25.7682 20.9547 25.8716 19.911L25.8637 13.6783C25.8637 12.6904 25.5119 11.8151 24.8417 11.1139C24.1712 10.4124 23.3367 10.0513 22.3976 10.0513C21.4759 10.0513 20.6692 10.4063 20.017 11.0565C19.3666 10.4073 18.5656 10.0513 17.6443 10.0513Z" fill="white"/>
<path d="M15.1662 28.5505C10.1958 28.5505 5.88272 24.6476 5.88272 19.5039L5.87834 13.2582V11.6656H2.72705V3.73022L20.172 3.8042C25.1467 3.8042 29.4553 7.7025 29.4553 12.8508V28.5505H15.1662ZM27.4308 24.3391V12.8508C27.4308 9.01281 24.1814 5.90165 20.1721 5.90165L4.75642 5.84138V9.56839H6.01713C6.87307 9.56839 7.90301 10.4015 7.90301 11.6241L7.91198 19.4993C7.91198 23.3374 11.1614 26.4486 15.1661 26.4486H25.0539C26.3215 26.4486 27.4308 25.617 27.4308 24.3391Z" fill="white"/>
<defs>
<linearGradient id="paint0_linear_214_1196" x1="6.65269" y1="8.18397" x2="19.3758" y2="21.6529" gradientUnits="userSpaceOnUse">
<stop stop-color="#C7F994"/>
<stop offset="1" stop-color="#87CF3E"/>
</linearGradient>
<linearGradient id="paint1_linear_214_1196" x1="9.24498" y1="24.6587" x2="17.1777" y2="12.6508" gradientUnits="userSpaceOnUse">
<stop stop-color="#3D3D3D"/>
<stop offset="1" stop-opacity="0.114"/>
</linearGradient>
</defs>
</svg>
