<svg width="32" height="32" viewBox="0 0 32 32" fill="none" xmlns="http://www.w3.org/2000/svg">
<path d="M15.9999 28.4846C22.895 28.4846 28.4846 22.895 28.4846 15.9999C28.4846 9.10475 22.895 3.51514 15.9999 3.51514C9.10475 3.51514 3.51514 9.10475 3.51514 15.9999C3.51514 22.895 9.10475 28.4846 15.9999 28.4846Z" fill="white"/>
<path d="M16 2C13.2311 2 10.5243 2.82109 8.22202 4.35943C5.91974 5.89777 4.12532 8.08427 3.06569 10.6424C2.00607 13.2006 1.72882 16.0155 2.26901 18.7313C2.80921 21.447 4.14258 23.9416 6.10051 25.8995C8.05845 27.8574 10.553 29.1908 13.2687 29.731C15.9845 30.2712 18.7994 29.9939 21.3576 28.9343C23.9157 27.8747 26.1022 26.0803 27.6406 23.778C29.1789 21.4757 30 18.7689 30 16C30.0054 14.1668 29.6496 12.3506 28.953 10.6549C28.2564 8.95922 27.2327 7.41736 25.9402 6.11734C24.6477 4.81732 23.1119 3.7846 21.4203 3.07814C19.7287 2.37169 17.9145 2.00533 16.0814 2H16ZM16.2373 16.4746L14.7797 21.3898H22.5763C22.6279 21.388 22.6794 21.3964 22.7278 21.4145C22.7762 21.4326 22.8206 21.4601 22.8584 21.4953C22.8961 21.5306 22.9266 21.573 22.948 21.62C22.9694 21.667 22.9813 21.7178 22.9831 21.7695V21.8983L22.3051 24.2373C22.2752 24.3479 22.2086 24.4451 22.1162 24.5128C22.0238 24.5806 21.9111 24.6149 21.7966 24.6102H9.86441L11.8644 17.7966L9.62713 18.4746L10.1356 16.9153L12.3729 16.2373L15.1864 6.67797C15.2174 6.56798 15.2843 6.47151 15.3765 6.40394C15.4686 6.33636 15.5807 6.30156 15.6949 6.30508H18.7119C18.7635 6.30327 18.815 6.31166 18.8634 6.32976C18.9118 6.34787 18.9562 6.37534 18.994 6.4106C19.0317 6.44586 19.0622 6.48822 19.0836 6.53526C19.105 6.5823 19.1169 6.6331 19.1187 6.68475V6.81356L16.7458 14.8814L18.9831 14.2034L18.5085 15.8305L16.2373 16.4746Z" fill="#345D9D"/>
</svg>
