<svg width="32" height="32" viewBox="0 0 32 32" fill="none" xmlns="http://www.w3.org/2000/svg">
<path d="M29 14.5551H21.3969L27.9823 10.7536L26.5356 8.24643L19.952 12.0499L23.7517 5.46443L21.2464 4.01771L17.4486 10.6013V3H14.5514V10.6031L10.7517 4.01771L8.24829 5.46443L12.048 12.048L5.46443 8.24829L4.01771 10.7517L10.6031 14.5533H3V17.4449H10.6013L4.01771 21.2464L5.46443 23.7536L12.048 19.952L8.24643 26.5356L10.7536 27.9823L14.5533 21.3969V29H17.4449V21.3969L21.2464 27.9823L23.7517 26.5356L19.9501 19.9501L26.5337 23.7517L27.9804 21.2464L21.3969 17.4467H28.9981L29 14.5551ZM16 19.9334C14.9528 19.9334 13.9486 19.5174 13.2081 18.777C12.4677 18.0366 12.0517 17.0323 12.0517 15.9851C12.0517 14.938 12.4677 13.9337 13.2081 13.1933C13.9486 12.4528 14.9528 12.0369 16 12.0369C17.0472 12.0369 18.0514 12.4528 18.7919 13.1933C19.5323 13.9337 19.9483 14.938 19.9483 15.9851C19.9483 17.0323 19.5323 18.0366 18.7919 18.777C18.0514 19.5174 17.0472 19.9334 16 19.9334Z" fill="#625DF5"/>
</svg>
