<svg width="32" height="32" viewBox="0 0 32 32" fill="none" xmlns="http://www.w3.org/2000/svg">
<path d="M2 6.33174H6.25469V17.8706C6.25469 19.7007 7.075 20.7899 7.74219 21.2432C7.04766 21.857 4.94219 22.3988 3.35625 21.0884C2.42656 20.3144 2 19.0262 2 17.8264V6.33174ZM28.5727 15.9244V14.7081H29.8742V10.4618H28.4469C27.8945 7.90195 25.6469 6 22.9617 6C19.8664 6 17.3453 8.54331 17.3453 11.6782V21.586C18.2203 21.7132 19.2812 21.5695 20.1727 20.812C21.1078 20.0379 21.5289 18.7552 21.5289 17.5499V17.1795H23.6508V12.9333H21.5289V11.645C21.5289 9.73203 24.3836 9.73203 24.3836 11.645V15.9078C24.3836 19.0372 26.8992 21.586 30 21.586V17.3564C29.207 17.3564 28.5727 16.7095 28.5727 15.9244ZM12.4781 10.4508V16.6985C12.4781 17.5499 11.1766 17.5499 11.1766 16.6985V10.4508H6.97656V17.7877C6.97656 19.1036 7.41406 20.7733 9.4375 21.3207C11.4609 21.8625 12.6203 20.7346 12.6203 20.7346C12.5055 21.4755 11.8273 22.0228 10.7117 22.1334C9.86406 22.2219 8.78672 21.9344 8.25078 21.7022V25.589C9.62344 26.0037 11.0672 26.1308 12.4945 25.8488C15.0703 25.3457 16.6945 23.1728 16.6945 20.2757V10.4231H12.4781V10.4508Z" fill="#FF00BF"/>
</svg>
