<svg width="32" height="24" viewBox="0 0 32 24" fill="none" xmlns="http://www.w3.org/2000/svg">
<rect width="32" height="24" rx="4" fill="#252525"/>
<path d="M18.5573 12.0001C18.5573 16.1091 15.2986 19.4401 11.2787 19.4401C7.25877 19.4401 4 16.1091 4 12.0001C4 7.89106 7.25877 4.56006 11.2787 4.56006C15.2986 4.56006 18.5573 7.89106 18.5573 12.0001Z" fill="#ED0006"/>
<path d="M28 12.0001C28 16.1091 24.7412 19.4401 20.7213 19.4401C16.7014 19.4401 13.4426 16.1091 13.4426 12.0001C13.4426 7.89106 16.7014 4.56006 20.7213 4.56006C24.7412 4.56006 28 7.89106 28 12.0001Z" fill="#0099DF"/>
<path d="M16 17.6623C17.565 16.2976 18.5574 14.2671 18.5574 11.9996C18.5574 9.73211 17.565 7.70155 16 6.33691C14.435 7.70155 13.4426 9.73211 13.4426 11.9996C13.4426 14.2671 14.435 16.2976 16 17.6623Z" fill="#6C6BBD"/>
</svg>
