<svg width="32" height="32" viewBox="0 0 32 32" fill="none" xmlns="http://www.w3.org/2000/svg">
<path d="M16 30C23.732 30 30 23.732 30 16C30 8.26801 23.732 2 16 2C8.26801 2 2 8.26801 2 16C2 23.732 8.26801 30 16 30Z" fill="url(#paint0_linear_214_805)"/>
<path d="M9.10912 20.2V13.6107L14.1062 17.3715V20.2H15.3816V17.106C15.3814 16.991 15.3545 16.8777 15.3031 16.7748C15.2516 16.672 15.1771 16.5825 15.0853 16.5133L9.02512 11.9507C8.91427 11.8684 8.78277 11.8184 8.64523 11.8063C8.50769 11.7943 8.36949 11.8205 8.24599 11.8823C8.12249 11.944 8.01854 12.0388 7.94568 12.1561C7.87281 12.2734 7.8339 12.4086 7.83325 12.5467V20.2H9.10912ZM22.929 20.2V13.6107L17.9319 17.3715V20.2H16.6565V17.106C16.6568 16.991 16.6836 16.8777 16.7351 16.7748C16.7865 16.672 16.861 16.5825 16.9529 16.5133L23.013 11.9526C23.1237 11.8703 23.255 11.8204 23.3924 11.8082C23.5298 11.7961 23.6679 11.8222 23.7913 11.8837C23.9147 11.9453 24.0187 12.0398 24.0917 12.1568C24.1647 12.2738 24.2039 12.4087 24.2049 12.5467V20.2H22.929Z" fill="white"/>
<defs>
<linearGradient id="paint0_linear_214_805" x1="16" y1="2" x2="16" y2="30" gradientUnits="userSpaceOnUse">
<stop stop-color="#4FA89B"/>
<stop offset="1" stop-color="#6ACEBB"/>
</linearGradient>
</defs>
</svg>
