<svg width="32" height="32" viewBox="0 0 32 32" fill="none" xmlns="http://www.w3.org/2000/svg">
<path d="M2 2H30V30H2V2Z" fill="white"/>
<path d="M2.62608 25.3331C7.97567 22.6014 8.08949 22.6014 14.6911 21.4632C16.6261 20.325 25.5041 23.7396 29.4879 24.8778V29.4307H2.39844L2.56917 25.3331H2.62608Z" fill="#A6D3FC"/>
<path d="M2 2H30V30H2V2ZM29.4309 24.878C29.2033 24.878 28.2927 25.1057 27.6098 25.561C27.6098 26.0163 27.6098 26.2439 27.3821 26.5854C26.4715 23.3984 23.3984 22.6016 21.122 24.1951L21.4634 23.1707C16.9106 19.7561 12.3577 21.8049 9.96748 24.7642C9.96748 24.7642 9.85366 24.1951 10.5366 23.1707C9.05691 22.4878 6.43902 23.5122 5.7561 24.4228L6.66667 25.2195C5.30081 24.6504 3.5935 25.1057 2.56911 25.4472V29.4309H29.4309V24.9919V24.878ZM11.561 14.1789H20.5528V21.4634L21.2358 21.9187H24.9919V13.6098C24.9919 10.5366 21.9187 9.62602 20.439 9.62602H7.12195V21.9187H11.561V14.1789ZM18.2764 20.7805V16.4553H13.8374V20.7805C14.9756 20.439 16.7967 20.3252 18.2764 20.6667V20.7805Z" fill="#0080F5"/>
</svg>
