<svg width="32" height="32" viewBox="0 0 32 32" fill="none" xmlns="http://www.w3.org/2000/svg">
<path d="M9.89669 24C14.2581 24 17.7936 20.4181 17.7936 15.9999C17.7936 11.5816 14.2578 8 9.89669 8C5.53553 8 2 11.5805 2 15.9999C2 20.4192 5.53526 24 9.89669 24Z" fill="black"/>
<path d="M22.5082 23.5305C24.6888 23.5305 26.4567 20.1591 26.4567 15.9999C26.4567 11.8417 24.6888 8.46918 22.5082 8.46918C20.3276 8.46918 18.5597 11.8417 18.5597 15.9999C18.5597 20.158 20.3276 23.5305 22.5082 23.5305Z" fill="black"/>
<path d="M28.6113 22.747C29.3782 22.747 30 19.7264 30 15.9999C30 12.2736 29.3787 9.25269 28.6115 9.25269C27.8444 9.25269 27.2225 12.2745 27.2225 15.9999C27.2225 19.7253 27.8444 22.747 28.6113 22.747Z" fill="black"/>
</svg>
