<svg width="32" height="32" viewBox="0 0 32 32" fill="none" xmlns="http://www.w3.org/2000/svg">
<path d="M5.02434 18.965C5.02434 20.0342 5.25901 20.855 5.56573 21.3516C5.96787 22.002 6.56767 22.2776 7.17916 22.2776C7.96787 22.2776 8.68939 22.0819 10.0798 20.1588C11.1938 18.6174 12.5063 16.4538 13.3895 15.0975L14.8851 12.7995C15.9241 11.2036 17.1266 9.4295 18.5054 8.22697C19.631 7.24547 20.8452 6.7002 22.0672 6.7002C24.1188 6.7002 26.073 7.8891 27.5686 10.1189C29.2055 12.561 30 15.6369 30 18.8112C30 20.6982 29.628 22.0848 28.9951 23.1802C28.3836 24.2396 27.1918 25.2981 25.187 25.2981V22.2776C26.9036 22.2776 27.332 20.7002 27.332 18.8949C27.332 16.3224 26.7322 13.4675 25.4109 11.4276C24.4732 9.98062 23.258 9.0965 21.9211 9.0965C20.4752 9.0965 19.3116 10.1871 18.0039 12.1315C17.3087 13.1647 16.5949 14.4237 15.7936 15.8443L14.9114 17.4071C13.1392 20.5493 12.6904 21.2649 11.8043 22.4461C10.2512 24.5142 8.92502 25.2981 7.17916 25.2981C5.10808 25.2981 3.79844 24.4013 2.98734 23.0498C2.32522 21.9485 2 20.5035 2 18.857L5.02434 18.965Z" fill="#0081FB"/>
<path d="M4.38452 10.3321C5.77108 8.19484 7.77206 6.7002 10.0671 6.7002C11.3962 6.7002 12.7175 7.09357 14.0973 8.22016C15.6065 9.4519 17.2151 11.4801 19.2219 14.8229L19.9415 16.0225C21.6786 18.9164 22.6669 20.4052 23.2453 21.1072C23.9892 22.0089 24.5101 22.2776 25.1869 22.2776C26.9035 22.2776 27.3319 20.7002 27.3319 18.8949L29.9999 18.8112C29.9999 20.6982 29.6279 22.0848 28.995 23.1802C28.3835 24.2396 27.1917 25.2981 25.1869 25.2981C23.9405 25.2981 22.8363 25.0274 21.6153 23.8755C20.6766 22.9913 19.5793 21.4207 18.7351 20.0089L16.2239 15.8141C14.9639 13.709 13.8081 12.1393 13.1391 11.4285C12.4196 10.6642 11.4946 9.74109 10.0184 9.74109C8.82367 9.74109 7.80906 10.5795 6.95998 11.8618L4.38452 10.3321Z" fill="url(#paint0_linear_214_210)"/>
<path d="M10.0185 9.74109C8.82376 9.74109 7.80915 10.5795 6.96008 11.8618C5.75949 13.6739 5.02434 16.373 5.02434 18.965C5.02434 20.0342 5.25901 20.855 5.56573 21.3516L2.98734 23.0498C2.32522 21.9485 2 20.5035 2 18.857C2 15.8628 2.82181 12.7421 4.38462 10.3321C5.77118 8.19484 7.77215 6.7002 10.0672 6.7002L10.0185 9.74109Z" fill="url(#paint1_linear_214_210)"/>
<defs>
<linearGradient id="paint0_linear_214_210" x1="7.93954" y1="18.0926" x2="27.219" y2="19.0663" gradientUnits="userSpaceOnUse">
<stop stop-color="#0064E1"/>
<stop offset="0.4" stop-color="#0064E1"/>
<stop offset="0.83" stop-color="#0073EE"/>
<stop offset="1" stop-color="#0082FB"/>
</linearGradient>
<linearGradient id="paint1_linear_214_210" x1="6.38169" y1="20.2348" x2="6.38169" y2="13.1267" gradientUnits="userSpaceOnUse">
<stop stop-color="#0082FB"/>
<stop offset="1" stop-color="#0064E0"/>
</linearGradient>
</defs>
</svg>
