<svg width="32" height="32" viewBox="0 0 32 32" fill="none" xmlns="http://www.w3.org/2000/svg">
<path d="M28.2825 30H3.71752C2.76577 30 2 29.2288 2 28.2825V3.71752C2 2.76577 2.77124 2 3.71752 2H28.2825C29.2342 2 30 2.77124 30 3.71752V28.2825C30 29.2342 29.2342 30 28.2825 30Z" fill="#0078D7"/>
<path d="M21.2592 10.7464C21.2592 10.8285 21.2592 10.9051 21.2537 10.9871C20.6192 10.8504 19.9574 10.741 19.2736 10.6535C19.2244 8.8867 17.7804 7.47002 16.0027 7.47002C14.225 7.47002 12.7755 8.8867 12.7317 10.6535C12.048 10.741 11.3862 10.8504 10.7517 10.9871C10.7462 10.9051 10.7462 10.823 10.7462 10.741C10.7462 7.8365 13.0982 5.479 16.0081 5.479C18.9017 5.48994 21.2592 7.84197 21.2592 10.7464ZM16.0246 26.5214C25.3123 22.6159 23.8956 12.6718 23.8956 12.6718C21.7296 11.8623 18.9947 11.3809 16.0136 11.3809C13.0326 11.3809 10.2977 11.8623 8.13161 12.6718C8.13161 12.6718 6.71493 22.6159 16.0027 26.5214H16.0246Z" fill="white"/>
<path d="M18.5844 20.2582C18.5844 20.373 18.5789 20.4824 18.5625 20.5918H13.4591C13.4427 20.4824 13.4373 20.373 13.4373 20.2582C13.4373 19.0986 14.203 18.1195 15.2587 17.7967C14.5476 17.5014 14.0444 16.8012 14.0444 15.9808C14.0444 14.8923 14.925 14.0171 16.0081 14.0171C17.0911 14.0171 17.9717 14.8977 17.9717 15.9808C17.9717 16.8012 17.4685 17.5014 16.7574 17.7967C17.8186 18.114 18.5844 19.0986 18.5844 20.2582Z" fill="#0078D7"/>
</svg>
