<svg width="32" height="32" viewBox="0 0 32 32" fill="none" xmlns="http://www.w3.org/2000/svg">
<path d="M6.23429 23.9221C5.65954 23.9234 5.09476 23.7688 4.59764 23.4741C4.10052 23.1795 3.68889 22.7554 3.40479 22.245C3.12505 21.7383 2.98553 21.1634 3.00119 20.5819C3.01684 20.0004 3.18709 19.4342 3.49368 18.9439L9.32056 9.59786C9.61879 9.09556 10.0422 8.68312 10.5476 8.40266C11.0529 8.1222 11.6221 7.98377 12.197 8.00151C12.7714 8.01558 13.3319 8.18527 13.821 8.49323C14.3101 8.80119 14.7104 9.23636 14.9808 9.75421C15.524 10.8033 15.4561 12.0655 14.8055 13.0503L8.98231 22.3963C8.68701 22.8664 8.28032 23.2526 7.79994 23.5193C7.31957 23.786 6.78104 23.9246 6.23429 23.9221Z" fill="#F62B54"/>
<path d="M16.2289 23.9217C15.0536 23.9217 13.9722 23.2799 13.4043 22.2484C13.1252 21.7431 12.986 21.1697 13.0017 20.5897C13.0173 20.0097 13.1873 19.445 13.4932 18.9561L19.309 9.63149C19.6028 9.12213 20.0247 8.70234 20.531 8.41566C21.0372 8.12898 21.6092 7.98585 22.1879 8.0011C23.373 8.02758 24.447 8.70471 24.9902 9.76389C25.5297 10.8231 25.4507 12.0928 24.7803 13.0751L18.9658 22.3997C18.6714 22.8677 18.2664 23.2525 17.788 23.5185C17.3097 23.7845 16.7735 23.9231 16.2289 23.9217Z" fill="#FFCC00"/>
<path d="M26.0001 24C27.6569 24 29 22.657 29 21.0003C29 19.3435 27.6569 18.0005 26.0001 18.0005C24.3433 18.0005 23.0002 19.3435 23.0002 21.0003C23.0002 22.657 24.3433 24 26.0001 24Z" fill="#00CA72"/>
</svg>
