<svg width="32" height="32" viewBox="0 0 32 32" fill="none" xmlns="http://www.w3.org/2000/svg">
<path d="M29.9966 15.9986C29.9966 23.7296 23.7299 29.9972 15.9984 29.9972C8.26692 29.9972 2.00024 23.7296 2.00024 15.9986C2.00024 8.26765 8.26707 2 15.9984 2C23.7298 2 29.9966 8.26705 29.9966 15.9986Z" fill="white"/>
<path d="M15.9984 2C8.26967 2 1.99188 8.27652 2.00172 15.9982C2.00366 17.543 2.25001 19.0291 2.71236 20.4192H6.90049V8.64317L15.9984 17.741L25.0959 8.64317V20.4194H29.2849C29.7479 19.0294 29.993 17.5433 29.9958 15.9984C30.0089 8.26869 23.728 2.00186 15.9984 2.00186V2Z" fill="#F26822"/>
<path d="M13.9062 19.8324L9.93584 15.8618V23.2719H6.9003L4.03589 23.2724C6.49287 27.3034 10.9332 29.9999 15.9985 29.9999C21.0638 29.9999 25.5044 27.3028 27.9618 23.2718H22.0603V15.8618L18.0897 19.8324L15.9981 21.924L13.9064 19.8324H13.9062Z" fill="#4D4D4D"/>
</svg>
