<svg width="32" height="32" viewBox="0 0 32 32" fill="none" xmlns="http://www.w3.org/2000/svg">
<path d="M16.0074 30L15.8471 29.9197C9.59242 26.2514 4.86135 20.2 2.93684 12.9705C2.62946 11.8325 2.40226 10.6678 2.24188 9.48962C2.09487 8.31148 2.01468 7.11995 2.00132 5.92842C2.00132 5.7276 1.97459 5.75437 2.1617 5.66066C4.51387 4.32186 6.99969 3.34454 9.63252 2.72869C10.6081 2.50109 11.5837 2.32705 12.5727 2.20656C13.9359 2.0459 15.2991 1.97896 16.6757 2.00574C17.4508 2.01913 18.2126 2.07268 18.9744 2.15301C22.81 2.56803 26.4051 3.7194 29.773 5.6071C29.8265 5.63388 29.8665 5.66066 29.92 5.68743C29.9735 5.71421 30.0002 5.75437 30.0002 5.82131V6.02213C29.9868 6.71831 29.9601 7.40109 29.9066 8.09727C29.8265 9.08798 29.6928 10.0653 29.5057 11.0426C29.1048 13.1445 28.4766 15.1661 27.6079 17.1074C26.2314 20.2 24.347 22.9579 21.9681 25.3678C20.2574 27.1082 18.3462 28.6076 16.2346 29.8527C16.1544 29.9063 16.0876 29.9464 16.0074 30ZM3.28432 6.6112V6.77186C3.28432 7.74918 3.35115 8.73989 3.47143 9.70382C3.57834 10.5874 3.72536 11.4577 3.92582 12.3279C3.96592 12.4751 4.00601 12.6224 4.07284 12.7697C5.27565 15.3268 8.05549 16.6924 10.8086 16.0631C12.9068 15.5811 14.6175 13.9612 15.1922 11.8861C15.3526 11.3104 15.406 10.7213 15.4328 10.1322C15.4461 9.74399 15.4862 9.35574 15.553 8.96749C16.0074 6.6112 17.5711 4.66995 19.7763 3.74617C19.8965 3.69262 20.0302 3.65246 20.1505 3.59891C20.1638 3.58552 20.1906 3.58552 20.1906 3.55874C19.8431 3.43825 17.7716 3.22404 16.5287 3.19727C13.8557 3.14372 11.2363 3.4918 8.68363 4.26831C6.78585 4.84399 4.99499 5.62049 3.28432 6.6112ZM22.9971 22.65C23.064 22.6098 23.104 22.5563 23.1308 22.5161C23.6654 21.8467 24.1732 21.1505 24.641 20.4276C26.3116 17.8303 27.4876 15.0322 28.1425 12.0066C28.3697 10.9757 28.5167 9.94481 28.6103 8.90055C28.6771 8.19098 28.7038 7.48142 28.7038 6.75847C28.7038 6.70492 28.7038 6.66475 28.6905 6.6112L28.49 6.49071C27.942 6.18279 27.3807 5.88825 26.8194 5.62049C25.9908 5.23224 25.1622 4.88415 24.2935 4.60301C23.2377 4.26831 22.1685 4.22814 21.0994 4.4959C18.0389 5.23224 16.0743 8.24454 16.6623 11.3372C16.9831 13.0508 17.9052 14.3896 19.3753 15.3268C19.4689 15.3937 19.5758 15.4473 19.6693 15.5142C20.7519 16.1702 21.5938 17.0672 22.1953 18.1784C22.8368 19.3432 23.1174 20.6016 23.0372 21.927C23.0506 22.1546 23.0239 22.3956 22.9971 22.65ZM16.0074 28.6344C16.0609 28.6077 16.1277 28.5675 16.1812 28.5273C17.8651 27.5366 19.4154 26.3585 20.8321 25.0197C20.9256 24.9393 20.9924 24.8322 21.0459 24.7251C21.1395 24.5511 21.233 24.3637 21.3132 24.1896C21.9814 22.7973 22.1284 21.3514 21.6874 19.8519C20.8187 16.9601 18.0389 15.3 15.2457 15.6481C14.4438 15.7418 13.7087 15.9962 13.0138 16.3978C11.6907 17.1475 10.274 17.4555 8.75045 17.3082C8.00203 17.2413 7.29371 17.0404 6.61211 16.7459C6.07753 16.5049 5.56967 16.2104 5.11528 15.8489C5.08855 15.8221 5.04845 15.8087 4.98163 15.7686C4.99499 15.8355 5.00836 15.8757 5.02172 15.9025C5.62313 17.4287 6.35818 18.8746 7.22688 20.2536C8.17577 21.7396 9.25831 23.1186 10.4879 24.377C11.7174 25.6355 13.0672 26.7601 14.524 27.7374C15.1922 28.1658 15.8203 28.5541 16.0074 28.6344Z" fill="black"/>
<path d="M3.28436 6.61105C4.99503 5.62034 6.78589 4.84384 8.6703 4.28155C11.2363 3.51843 13.8424 3.15696 16.5153 3.21051C17.7582 3.23728 19.8298 3.4381 20.1772 3.57198C20.1906 3.59876 20.1639 3.61215 20.1371 3.61215C20.0169 3.6657 19.8832 3.70586 19.7629 3.75942C17.5578 4.68319 15.9941 6.62444 15.5397 8.98073C15.4729 9.36898 15.4328 9.75723 15.4194 10.1455C15.4061 10.7346 15.3526 11.3236 15.1789 11.8993C14.5908 13.9744 12.8935 15.5944 10.7953 16.0764C8.04216 16.7056 5.26232 15.34 4.05951 12.7829C3.99269 12.6356 3.93923 12.4884 3.9125 12.3411C3.71203 11.4709 3.56502 10.6007 3.4581 9.71707C3.33782 8.73974 3.271 7.76242 3.271 6.7851C3.28436 6.71816 3.28436 6.67799 3.28436 6.61105Z" fill="#F7A800"/>
<path d="M22.9972 22.6497C23.0239 22.3954 23.0507 22.1678 23.064 21.9268C23.1309 20.6014 22.8502 19.3429 22.2221 18.1782C21.6207 17.067 20.7787 16.1834 19.6962 15.514C19.6026 15.447 19.4957 15.3935 19.4021 15.3265C17.9187 14.3894 17.0099 13.064 16.6891 11.3369C16.1144 8.23089 18.0657 5.23199 21.1262 4.49565C22.2087 4.24128 23.2645 4.26805 24.3203 4.60275C25.189 4.87051 26.0176 5.23199 26.8462 5.62024C27.4209 5.888 27.9689 6.18253 28.5168 6.49046C28.5836 6.53062 28.6371 6.5574 28.7173 6.61095C28.7173 6.6645 28.7306 6.70466 28.7306 6.75822C28.7306 7.46778 28.6905 8.19073 28.6371 8.90029C28.5435 9.94455 28.3832 10.9888 28.1693 12.0063C27.5145 15.032 26.3517 17.8301 24.6678 20.4273C24.2 21.1503 23.6922 21.8465 23.1576 22.5159C23.1041 22.556 23.0774 22.6096 22.9972 22.6497Z" fill="#67B2E8"/>
<path d="M16.0076 28.6339C15.8071 28.5536 15.1923 28.1787 14.5375 27.7369C13.0807 26.7596 11.7309 25.635 10.5013 24.3765C9.27179 23.1181 8.1759 21.7391 7.24037 20.253C6.35831 18.8741 5.62325 17.4282 5.03521 15.9019C5.02185 15.8618 5.00848 15.835 4.99512 15.7681C5.06194 15.8082 5.08867 15.8216 5.12876 15.8484C5.59652 16.2099 6.09102 16.5178 6.6256 16.7454C7.3072 17.0399 8.01552 17.2407 8.76394 17.3077C10.2741 17.455 11.6908 17.147 13.0273 16.3973C13.7222 16.0091 14.4706 15.7547 15.2591 15.6476C18.0523 15.2995 20.8322 16.9596 21.7009 19.8514C22.1419 21.3375 22.0083 22.7834 21.3267 24.1891C21.2331 24.3765 21.1529 24.5506 21.0594 24.7246C21.0059 24.8317 20.9391 24.9388 20.8456 25.0192C19.4289 26.358 17.8786 27.5361 16.1947 28.5268C16.1278 28.567 16.061 28.6071 16.0076 28.6339Z" fill="#00C4B3"/>
</svg>
