<svg width="32" height="32" viewBox="0 0 32 32" fill="none" xmlns="http://www.w3.org/2000/svg">
<path d="M16 30C15.6118 30 15.2495 29.8971 14.913 29.717L11.471 27.6849C10.9534 27.4019 11.2122 27.299 11.3675 27.2476C12.0663 27.0161 12.1957 26.9646 12.9203 26.5531C12.9979 26.5016 13.1014 26.5273 13.1791 26.5788L15.8188 28.1479C15.9224 28.1994 16.0518 28.1994 16.1294 28.1479L26.4555 22.2058C26.559 22.1543 26.6108 22.0514 26.6108 21.9228V10.0643C26.6108 9.93569 26.559 9.8328 26.4555 9.78135L16.1294 3.86495C16.0259 3.8135 15.8965 3.8135 15.8188 3.86495L5.49275 9.78135C5.38923 9.8328 5.33747 9.96141 5.33747 10.0643V21.9228C5.33747 22.0257 5.38923 22.1543 5.49275 22.2058L8.31366 23.8264C9.84058 24.5981 10.7981 23.6977 10.7981 22.7974V11.0932C10.7981 10.9389 10.9275 10.7846 11.1087 10.7846H12.4286C12.5839 10.7846 12.7391 10.9132 12.7391 11.0932V22.7974C12.7391 24.8296 11.6263 26.0129 9.6853 26.0129C9.09006 26.0129 8.62422 26.0129 7.30435 25.3698L4.58696 23.8264C3.91408 23.4405 3.5 22.7203 3.5 21.9486V10.09C3.5 9.31833 3.91408 8.59807 4.58696 8.21222L14.913 2.2701C15.56 1.90997 16.44 1.90997 17.087 2.2701L27.413 8.21222C28.0859 8.59807 28.5 9.31833 28.5 10.09V21.9486C28.5 22.7203 28.0859 23.4405 27.413 23.8264L17.087 29.7685C16.7505 29.9228 16.3623 30 16 30ZM19.1832 21.8457C14.6542 21.8457 13.7226 19.7878 13.7226 18.0386C13.7226 17.8842 13.852 17.7299 14.0331 17.7299H15.3789C15.5342 17.7299 15.6636 17.8328 15.6636 17.9871C15.8706 19.3505 16.4658 20.0193 19.2091 20.0193C21.383 20.0193 22.3147 19.5305 22.3147 18.373C22.3147 17.7042 22.0559 17.2154 18.6656 16.881C15.8447 16.5981 14.0849 15.9807 14.0849 13.7428C14.0849 11.6592 15.8447 10.4244 18.795 10.4244C22.1077 10.4244 23.7381 11.5563 23.9451 14.0257C23.9451 14.1029 23.9193 14.1801 23.8675 14.2572C23.8157 14.3087 23.7381 14.3601 23.6605 14.3601H22.3147C22.1853 14.3601 22.0559 14.2572 22.03 14.1286C21.7195 12.7138 20.9172 12.2508 18.795 12.2508C16.4141 12.2508 16.1294 13.074 16.1294 13.6913C16.1294 14.4373 16.4658 14.6688 19.6749 15.0804C22.8582 15.492 24.3592 16.0836 24.3592 18.2958C24.3333 20.5595 22.47 21.8457 19.1832 21.8457Z" fill="#539E43"/>
</svg>
