<svg width="32" height="32" viewBox="0 0 32 32" fill="none" xmlns="http://www.w3.org/2000/svg">
<path d="M16.0268 11.5569C16.1771 11.4054 16.459 11.1251 16.6177 10.9727C16.768 11.429 16.9612 11.9924 17.3411 12.2973C17.9759 12.7887 18.6107 13.2991 19.4041 13.4865C20.1098 13.621 20.8118 13.5339 21.4204 13.1229C21.9497 12.6391 22.2493 11.9186 22.7964 11.4537C23.3079 11.7131 23.966 11.8674 24.4598 12.1628C24.9713 12.4933 25.1991 13.1589 25.5071 13.6693C25.172 13.7318 24.8509 13.7895 24.5158 13.8615C24.639 14.0764 24.7314 14.2771 24.864 14.4921C24.7753 14.6265 24.6437 14.832 24.5643 14.975C24.3963 14.707 24.1984 14.4163 24.0397 14.1474C23.6775 14.2374 23.4395 14.3709 23.1315 14.5678C23.166 14.7383 23.1931 14.9437 23.2285 15.1142C22.4519 14.7108 21.5707 15.0365 20.8743 15.4304C20.6624 15.5469 20.4459 15.7353 20.2349 15.8518C19.7934 15.6103 19.3658 15.3689 18.8991 15.1804C18.7134 15.4853 18.4622 15.7798 18.2419 16.0667C18.1626 15.8338 18.0655 15.6056 17.9946 15.3641C17.9152 15.3736 17.8144 15.3869 17.7351 15.3954C17.6996 15.7268 17.7173 16.0534 17.7612 16.3839C17.5493 16.3574 17.2366 16.3167 17.0247 16.2901C17.1218 15.8432 17.2058 15.4314 17.2945 14.975C17.1881 14.9844 17.0826 14.9882 16.9762 14.9977C16.6149 15.5611 16.6196 16.2722 16.6896 16.9255C16.5402 16.8005 16.2798 16.6168 16.1388 16.5003C16.1566 16.0354 16.2182 15.6103 16.2537 15.1454C15.7776 14.939 15.6777 15.4967 15.59 15.8546C15.3249 15.7646 14.9925 15.6643 14.7368 15.5658C14.1459 15.3774 13.7492 14.85 13.176 14.6171C12.8764 14.4921 12.7354 14.3046 12.5058 14.0802C12.4796 14.1702 12.4442 14.2412 12.4264 14.3311C12.6561 14.725 12.6561 15.2884 12.2061 15.5298C12.0652 15.5118 11.8365 15.4579 11.6862 15.4314C12.1623 15.9237 12.8586 15.9587 13.485 16.1292C13.3963 16.1917 13.1144 16.3971 13.0266 16.4606C12.4264 16.2636 11.7123 16.2277 11.1485 15.9142C11.1308 15.6823 11.1214 15.4579 11.1046 15.2259C10.9366 15.1899 10.7957 15.1852 10.6276 15.1492C10.4344 15.1142 10.1964 15.0734 10.0022 15.0289C9.86125 14.8585 9.80804 14.5546 9.55227 14.707C9.34971 14.8945 9.15554 15.1265 8.96138 15.3319C8.84657 15.171 8.70841 14.9892 8.59359 14.8282C7.73013 14.9362 7.85895 15.9644 7.30354 16.4388C6.95162 16.6982 6.90121 17.2048 6.5745 17.4917C6.53062 17.0893 6.48675 16.6443 6.53062 16.2419C6.70705 15.5355 7.01043 14.8727 7.18685 14.1578C7.20459 14.1039 7.25126 13.9637 7.269 13.9013C7.63025 13.9183 8.03818 13.9694 8.39103 13.871C8.70001 13.7195 8.55345 13.3256 8.66827 13.0481C8.72055 12.5653 9.16675 12.2518 9.54573 12.0379C9.68762 12.1534 9.81644 12.2765 9.95833 12.3929C10.3896 12.2585 10.8087 12.0701 11.2493 12.0066C11.6199 12.0246 11.9532 12.1714 12.3144 12.2073C12.5356 12.1988 12.601 11.9148 12.8119 11.8703C12.9529 11.8788 13.1172 11.9119 13.2581 11.9299C13.302 12.0644 13.3347 12.1714 13.3702 12.3058C13.5905 12.0464 13.8257 11.7453 14.2056 11.7803C14.0731 12.0398 13.9676 12.2907 13.835 12.5501C14.144 12.6391 14.3466 12.5719 14.6201 12.4194C14.5753 12.232 14.5575 12.0255 14.523 11.8381C14.9813 11.9186 15.1158 12.3977 15.266 12.7736C15.4509 12.7196 15.6394 12.6751 15.8243 12.6211C16.1239 12.8806 16.4357 13.1798 16.7269 13.4477C17.203 13.8956 17.7855 13.8861 18.3932 13.9221C18.1029 13.4127 17.708 12.8181 17.0294 13.0065C16.7036 12.5501 16.3535 12.0132 16.0268 11.5569Z" fill="#A9F37E"/>
<path d="M21.9245 18.0913C21.9507 18.0023 21.8928 17.7012 21.9497 17.6937C22.5397 17.617 22.9672 17.8556 23.2846 18.168C22.8963 18.1425 22.2951 18.2239 21.9236 18.0913" fill="#75D66F"/>
<path d="M13.5934 9.2041C13.8846 9.37453 14.2375 9.33855 14.5549 9.29405C14.6697 9.39252 14.7695 9.49952 14.8844 9.59799C15.0515 9.48153 15.2195 9.3537 15.3866 9.23724C15.5014 9.38968 15.8066 9.49952 15.815 9.71445C15.6918 9.93791 15.5602 10.2153 15.4183 10.4303C15.339 10.4483 15.1719 10.4719 15.1009 10.4994C15.2596 10.6954 15.4603 10.9103 15.619 11.0987C14.9488 11.1338 14.3514 10.6935 13.8407 10.3536C13.3731 10.4246 13.0324 10.9132 12.5479 10.9671C12.3099 10.8592 12.1073 10.7465 11.8861 10.6035C11.8067 10.863 11.7572 11.0959 11.6069 11.3194C11.3867 11.4718 11.1131 11.468 10.8574 11.539C10.8667 11.6555 10.8835 11.8344 10.8928 11.9509C10.6193 11.682 10.3197 11.3676 9.93137 11.5466C10.2142 11.842 9.74187 11.9329 9.54771 12.0674C9.16872 12.2814 8.75893 12.5588 8.71506 13.0426C8.60864 13.3191 8.72346 13.749 8.41541 13.9014C8.05323 13.9989 7.58649 13.9487 7.2243 13.9393C7.25138 13.8503 7.30272 13.6401 7.32885 13.5501C7.54075 13.6126 7.77972 13.659 7.98322 13.7225C7.94774 13.4356 7.90667 13.1676 7.93281 12.8807C8.14471 12.3628 8.59371 11.9689 8.85881 11.4765C9.11458 11.0296 9.21166 10.4094 9.77548 10.24C9.97804 10.6149 9.8847 10.9671 9.70827 11.3156C9.86696 11.1811 9.89403 11.0826 10.0611 10.9577C9.89403 10.2693 10.3701 9.45218 11.1281 9.37169C11.0487 9.55065 10.9433 9.79872 10.8639 9.97767C11.2074 10.1746 11.4128 9.86689 11.4744 9.51751C11.6424 9.75895 11.8366 9.99566 12.0121 10.2276C12.1008 10.1027 12.1362 10.061 12.2333 9.93507C12.154 9.7741 12.0746 9.53929 11.9953 9.37832C12.4004 9.63776 12.8531 9.89056 13.276 10.1235C13.3908 9.85458 13.5234 9.52698 13.5934 9.2041ZM9.90056 14.9098C10.0947 14.9458 10.6175 15.0679 10.8116 15.1134C10.5913 15.7127 10.2469 16.2448 10.2824 16.9067C10.3972 17.3356 10.7276 17.7371 10.9927 18.0855C10.6044 18.202 10.0443 18.0988 9.78015 18.4661C9.62146 19.181 10.2954 19.6374 10.7099 20.0758C10.1106 19.8523 9.24994 19.4386 9.03804 18.7672C9.32928 18.4008 9.71107 18.1007 10.0901 17.8147C9.54398 16.9739 9.18646 15.7156 9.90056 14.9098ZM16.1464 16.4077C16.2874 16.5327 16.5338 16.7419 16.6748 16.8584C16.6925 17.0999 16.6962 17.4663 16.7056 17.7077C16.4582 17.3858 16.1548 16.8366 16.1464 16.4077ZM22.0553 17.9605C22.0547 17.9612 22.0537 17.9615 22.0525 17.9615C22.046 17.9833 22.0469 17.9691 22.0506 17.9624C21.5988 18.1707 20.9837 18.629 20.9211 19.1517C20.7092 18.8477 20.7475 18.6129 20.8716 18.3355C20.5888 17.7361 20.0633 17.2144 19.8691 16.5611C20.0185 16.3471 20.4656 16.3878 20.6243 16.5753C20.9239 16.9692 21.021 17.4256 21.2245 17.8725C21.4224 17.8867 21.8406 17.9302 22.0534 17.9586V17.9605H22.0553ZM22.0534 17.9605C22.0528 17.9612 22.0519 17.9618 22.0506 17.9624C22.0512 17.9624 22.0519 17.9621 22.0525 17.9615C22.0531 17.9615 22.0534 17.9612 22.0534 17.9605ZM12.6963 16.9654L12.9511 16.8489C12.9782 17.2523 13.1985 17.9274 12.9073 18.2673C12.617 18.2408 12.1232 18.1603 11.8403 18.1063C12.2193 17.8554 12.5722 17.4312 12.6963 16.9654ZM17.4411 18.2124C17.724 17.8819 18.3989 17.4701 18.6547 18.0959C18.2318 18.3023 17.653 18.469 17.5121 18.9879C17.5121 19.0059 17.5298 19.1138 17.5298 19.1318C17.5914 19.5872 18.285 20.6278 17.8705 20.446C16.7065 19.9366 17.2554 18.4245 16.7242 17.6093C16.8988 17.8204 17.2348 18.0315 17.4411 18.2124ZM20.8035 19.9215C21.3057 20.1449 21.9171 20.4129 22.4464 20.5918C22.7461 20.4668 23.2697 19.7908 23.5162 20.2822C23.1288 20.6401 22.4903 21.1618 21.9433 21.0368C21.5204 20.8314 21.1293 20.2434 20.8035 19.9215ZM6.83691 20.0076C6.934 20.0256 7.26631 20.0559 7.37179 20.0644C7.79559 21.0577 7.81799 22.2535 8.40048 23.1833C8.73466 23.7382 8.98856 24.329 9.30594 24.8924C9.64106 25.4738 10.2357 25.8307 10.7556 26.2331C11.8674 27.0654 13.4804 26.9489 14.2655 25.7237C14.7677 24.632 14.1731 23.6388 13.7409 22.637C13.0305 21.5055 11.312 22.3094 11.214 23.5119C11.2052 23.5062 11.1962 23.5002 11.1869 23.4939C11.073 22.3056 11.9243 21.4402 13.1145 21.5349C13.8669 21.5945 14.7789 22.5935 15.0785 23.4077C15.4314 24.382 15.0991 26.2824 14.1908 26.7122C13.4851 27.1677 12.2949 27.0787 11.5099 27.0787C10.4345 27.0247 9.69613 26.0485 8.99977 25.3421C8.32113 24.5013 7.85066 23.4759 7.32139 22.5281C7.03948 21.7678 6.89852 20.8314 6.83691 20.0076ZM11.2112 23.6729C11.2031 23.6268 11.1965 23.5816 11.1916 23.5375C11.1978 23.545 11.2043 23.5526 11.2112 23.5602C11.2093 23.5981 11.2093 23.6356 11.2112 23.6729ZM12.5852 23.2676C12.7094 23.4106 12.9119 23.652 13.0352 23.8045C12.7355 24.1984 12.154 24.2694 11.7218 24.2069C11.5752 24.0431 11.3754 23.7638 11.2112 23.5602C11.2118 23.5444 11.2127 23.5283 11.214 23.5119C11.6154 23.7865 12.0793 24.2353 12.5684 23.9295C12.5507 23.7155 12.5852 23.4825 12.5852 23.2676ZM11.1869 23.4939C11.1881 23.5084 11.1897 23.5229 11.1916 23.5375C11.1654 23.5053 11.1393 23.474 11.1159 23.4475C11.1396 23.4627 11.1632 23.4781 11.1869 23.4939Z" fill="#75D66F"/>
<path d="M11.4127 9.35071C11.6246 9.18123 11.7702 8.96819 12.0166 8.86972C12.5636 8.81575 13.1275 8.99091 13.6213 9.21437C13.5512 9.52777 13.4318 9.88473 13.2908 10.1707C12.8679 9.94723 12.4441 9.70578 12.0474 9.44634C12.1271 9.60731 12.2064 9.76827 12.2855 9.92924C12.1977 10.0542 12.1006 10.1707 12.012 10.2957C11.8365 10.0627 11.66 9.83076 11.492 9.58932C11.4304 9.93776 11.1746 10.1972 10.8218 10.0002C10.9011 9.81277 11.0131 9.57133 11.0925 9.39237C11.1989 9.2494 11.3006 9.11874 11.4155 8.98428C11.4239 9.06477 11.4127 9.25319 11.4127 9.35071Z" fill="#5CCE74"/>
<path d="M9.69327 9.52792C10.4428 8.77613 11.5453 8.54794 12.5236 8.23453C13.6437 8.17204 14.9048 8.50817 15.9186 8.98159C16.3592 9.16054 16.2761 9.79588 16.3722 10.1983C16.0549 10.2702 15.6805 10.3138 15.3632 10.3943C15.5041 10.1708 15.6367 9.9559 15.7683 9.73244C15.7599 9.51751 15.5125 9.43702 15.3893 9.28553L14.8871 9.63397C14.7726 9.5355 14.6578 9.43702 14.5426 9.33855C14.2346 9.38305 13.8995 9.4285 13.6082 9.25807C13.1144 9.03461 12.5852 8.86418 12.0391 8.91815C11.7917 9.02609 11.5985 9.22209 11.395 9.39252C11.395 9.30257 11.4043 9.12362 11.4043 9.03461C11.2895 9.16907 11.1747 9.30257 11.0692 9.44649C10.3103 9.52697 9.95837 10.3223 10.1255 11.0116C9.96677 11.1366 9.79968 11.2711 9.64099 11.396C9.81648 11.0476 9.96677 10.6622 9.76421 10.2873C9.19946 10.4568 9.15559 11.0826 8.89982 11.5305C8.63564 12.0229 8.18571 12.3978 7.97381 12.9167C7.95608 13.2036 8.00088 13.4801 8.02702 13.767C7.81512 13.7045 7.55095 13.6391 7.34839 13.5766C7.87673 12.1185 8.52083 10.5742 9.69327 9.52792Z" fill="#90E59A"/>
<path d="M12.559 10.9221C13.0444 10.869 13.3795 10.3587 13.8462 10.2877C14.3671 10.6361 14.8516 11.0925 15.5125 11.0565C15.3538 10.8596 15.1951 10.6626 15.0364 10.4751C15.1157 10.4572 15.2744 10.4127 15.3454 10.3947C15.6628 10.3142 16.0539 10.2375 16.3713 10.1655C16.4506 10.4695 16.5094 10.7526 16.6065 11.0565C16.4562 11.209 16.2536 11.4144 16.095 11.5669C16.4207 12.0232 16.7213 12.5061 17.0471 12.9625C17.7257 12.7741 18.1579 13.4359 18.4576 13.9548C17.8499 13.9188 17.1619 13.9103 16.6858 13.4634C16.3946 13.1945 16.1127 12.9171 15.8037 12.6576C15.6189 12.7113 15.4337 12.7649 15.2483 12.8186C15.0989 12.4522 15.0103 11.9693 14.5519 11.8793C14.5874 12.0677 14.6313 12.2467 14.6667 12.4342C14.3932 12.5951 14.0936 12.6671 13.7846 12.5771C13.9078 12.3177 14.0404 12.0677 14.1729 11.8083C13.794 11.7723 13.5727 12.1037 13.3618 12.3632C13.3169 12.2287 13.2731 12.0943 13.2376 11.9598C13.0966 11.9418 12.965 11.9068 12.8231 11.8973C12.6206 11.9418 12.5412 12.2372 12.3209 12.2467C11.9597 12.2107 11.6152 12.0583 11.2456 12.0403C10.804 12.1037 10.3896 12.2997 9.95832 12.4256C9.81643 12.3092 9.66708 12.1927 9.52612 12.0763C9.72028 11.9333 10.1515 11.8263 9.86124 11.5309C10.258 11.3519 10.5837 11.6019 10.8573 11.8708C10.8489 11.7543 10.8311 11.6294 10.8218 11.5129C11.0776 11.4504 11.3511 11.4409 11.5807 11.2894C11.73 11.066 11.7833 10.7886 11.8626 10.5376C12.1006 10.6721 12.3209 10.8151 12.559 10.9221Z" fill="#8FE772"/>
<path d="M24.4448 13.8383C24.78 13.7673 25.2075 13.6745 25.5426 13.6025C25.6481 13.8355 25.7984 14.1394 25.8871 14.3714C24.9695 15.3021 23.2453 15.6686 22.0374 15.9555C21.5352 16.1069 21.2795 15.6723 20.865 15.4309C21.5614 15.0465 22.3903 14.6346 23.166 15.037C23.1311 14.8672 23.096 14.6974 23.0605 14.5276C23.3779 14.3307 23.7223 14.1877 24.0743 14.0977C24.233 14.3666 24.401 14.6346 24.5597 14.9035C24.639 14.7691 24.7268 14.6261 24.8154 14.4916C24.7006 14.2767 24.5681 14.0532 24.4448 13.8383Z" fill="#87DE71"/>
<path d="M12.4796 13.9727C12.7093 14.1961 12.9296 14.447 13.2292 14.572C13.7939 14.7955 14.214 15.3446 14.8049 15.5331C14.7517 15.6221 14.6994 15.7319 14.6462 15.8218C13.8434 15.5624 12.9352 15.7594 12.1333 15.4999C12.5832 15.2585 12.6122 14.7245 12.3825 14.3306C12.4003 14.2416 12.4535 14.0626 12.4796 13.9727Z" fill="#97EB74"/>
<path d="M7.25969 16.4057C7.8151 15.9313 7.74509 14.8755 8.60855 14.7686C8.7327 14.9295 8.87739 15.1274 8.99221 15.2884C8.17262 15.9237 7.85057 16.9472 7.35677 17.8155C7.11873 17.806 6.81909 17.806 6.58105 17.806C6.58105 17.735 6.58946 17.5333 6.58105 17.4529C6.90684 17.1669 6.90684 16.6651 7.25969 16.4057Z" fill="#84CB71"/>
<path d="M18.8814 15.1172C19.3482 15.3056 19.8028 15.5679 20.2434 15.8093C19.4854 16.2203 18.5874 16.4551 17.7239 16.3566C17.6801 16.0252 17.6642 15.672 17.6997 15.3416C17.779 15.3321 17.9377 15.3141 18.017 15.2961C18.0964 15.5291 18.1757 15.762 18.2551 16.0034C18.4754 15.7165 18.6873 15.4221 18.8814 15.1172Z" fill="#6CB960"/>
<path d="M11.5891 15.3945C11.7301 15.4125 12.012 15.4485 12.1623 15.475C12.965 15.7344 13.8201 15.5375 14.622 15.7969C14.6752 15.7079 14.7284 15.6095 14.7806 15.5205C15.0458 15.618 15.4098 15.7382 15.674 15.8282C15.674 16.0242 15.6422 16.2533 15.6516 16.4503C14.8133 16.6472 13.7464 16.7495 12.9184 16.472C13.0061 16.4096 13.3002 16.2088 13.3879 16.1463C12.7616 15.9759 12.0652 15.8869 11.5891 15.3945Z" fill="#77C66C"/>
<path d="M16.8885 10.3142C16.4302 9.25843 16.545 8.04173 16.8801 6.96895C17.1266 6.12721 17.9377 5.14343 18.8376 5.01845C19.7188 4.69652 20.6093 5.41234 21.0947 6.09217C21.3328 6.53909 21.7202 6.879 22.1262 7.17442C22.5762 8.64108 22.5295 10.4628 21.8677 11.849C21.6744 12.2874 21.1162 12.721 20.7111 12.9454C19.6525 13.2579 18.5202 12.8006 17.7613 12.0317L17.5149 11.7458C16.9856 11.4949 16.9763 10.8416 16.8885 10.3142ZM22.5491 10.958C22.7432 10.0008 22.6816 8.76701 22.6639 7.80028C23.2109 6.80799 24.613 6.34214 25.6445 6.16319C26.4286 6.06472 27.5226 6.54855 27.7168 7.42439C28.2806 8.74902 27.6542 10.2962 26.914 11.3964C26.4818 11.7988 25.8116 12.3177 25.4064 12.7561C24.9126 11.7638 23.5544 11.2269 22.5491 10.958Z" fill="#FBFDFC"/>
<path d="M17.9554 9.59825C17.8405 8.74893 18.9784 8.77544 19.4722 9.10684C19.6571 9.6882 19.3481 10.5015 18.6433 10.5015C18.3259 10.2781 17.8844 10.0632 17.9554 9.59825ZM25.706 9.05287C25.8553 8.83793 25.9972 8.623 26.1466 8.40901C26.3585 8.36356 26.561 8.31054 26.7636 8.24805C26.9932 8.60501 26.9848 9.11536 26.8607 9.50925C26.4462 9.91166 25.873 9.49978 25.706 9.05287Z" fill="#231F20"/>
<path d="M3.26526 18.0785C3.5649 18.123 3.90002 18.123 4.19966 18.0605C4.17352 18.409 3.70585 18.5794 3.7684 18.9373C3.84774 19.2858 4.0503 19.6172 4.19126 19.9476C3.61811 19.9211 2.94788 19.9656 2.38406 19.8586C2.33085 19.5537 2.22537 19.0623 2.53341 18.8568C2.84239 18.6684 3.08043 18.391 3.26526 18.0785Z" fill="#D07B84"/>
<path d="M5.00625 18.2178C4.75888 18.6467 4.45737 19.2432 4.83636 19.6901C4.79249 19.7081 4.6394 19.7763 4.58619 19.8028C4.40977 19.5613 4.22867 19.2479 4.13159 18.962C4.24641 18.7471 4.37803 18.4848 4.47511 18.2604C4.6254 18.2604 4.84756 18.2443 5.00625 18.2178ZM5.72876 18.3589C5.67649 18.6278 5.5654 18.8436 5.39738 19.0501C5.67088 19.068 5.66342 20.0102 5.26669 19.7687C5.23215 19.6977 5.12387 19.5509 5.08933 19.4884C5.11547 19.2195 5.04639 18.8891 5.27603 18.6921C5.28443 18.6742 5.34604 18.6202 5.36377 18.6022L5.46832 18.4791C5.47672 18.4431 5.51966 18.3428 5.53647 18.3068L5.58594 18.4213L5.72876 18.3589Z" fill="white"/>
<path d="M10.1105 18.3799C10.5166 18.4784 11.4865 18.3202 11.7329 18.6601C11.6619 18.6507 11.3072 18.663 11.2363 18.6545C11.2802 18.7974 11.3278 18.9433 11.38 19.0862C11.0543 19.0862 10.6193 19.0682 10.2935 19.0682C10.2403 18.8722 10.1637 18.5674 10.1105 18.3799ZM6.04712 19.4252C6.98246 19.2737 8.02701 19.4706 8.96141 19.5057C8.99689 19.5511 9.1117 19.7074 9.15558 19.7519C8.21184 19.7519 7.12341 19.8371 6.18807 19.7386C6.15353 19.6761 6.07419 19.4886 6.04712 19.4252Z" fill="#E1CB86"/>
<path d="M5.83984 19.0144C6.01627 18.4236 6.63796 18.4416 7.12337 18.415C7.56396 18.4775 8.36675 18.3118 8.70187 18.6963C8.66639 18.7767 8.55158 19.0409 8.5161 19.1214C7.64331 19.0769 6.70424 19.0409 5.83984 19.0144ZM12.012 19.5096C13.5727 19.5276 15.1848 19.5531 16.7456 19.6601C16.7194 19.7141 16.628 19.8675 16.6018 19.912C15.0765 19.966 13.5382 19.9395 12.012 19.93V19.5096Z" fill="#DDC377"/>
<path d="M11.1747 18.6061C11.2457 18.6146 11.3866 18.6326 11.4567 18.6421C11.8188 18.7046 12.1362 18.7936 12.5059 18.8031C13.8202 18.4092 15.3408 18.6156 16.6897 18.6156C16.699 18.732 16.6682 19.1165 16.6766 19.2329C15.6629 19.2689 14.5651 19.2822 13.5514 19.2556C13.0221 19.2556 12.5507 18.893 12.0214 19.054C11.7918 19.072 11.5388 19.2983 11.3362 19.0843C11.2746 18.9224 11.2186 18.7491 11.1747 18.6061ZM10.7397 19.5066C11.1374 19.5066 11.6069 19.5094 12.0121 19.5009V19.9393C11.6947 19.9298 11.3334 19.9213 11.0161 19.9118C10.9367 19.8048 10.8191 19.623 10.7397 19.5066Z" fill="#DCC576"/>
<path d="M18.1804 19.0115C18.1188 18.6451 18.4399 18.6508 18.6611 18.5978C19.1727 18.5618 19.8756 18.5997 20.3871 18.5997C20.4133 18.8591 20.3068 19.04 20.0604 19.0314C19.4518 19.0494 18.7797 19.0475 18.1804 19.0115ZM21.4476 18.6271C22.3904 18.5466 23.4078 18.4397 24.3693 18.4936C24.6335 18.5476 24.8631 18.789 25.0834 18.932C24.4393 19.2539 23.6412 19.2161 22.9439 19.1176C22.4156 19.0466 21.806 19.1498 21.2861 18.9888C21.3206 18.9178 21.4121 18.6896 21.4476 18.6271ZM18.032 19.3846C18.9757 19.3041 19.9521 19.3202 20.8781 19.5077C21.7425 19.3922 22.7507 19.4888 23.6141 19.3363C23.9763 19.3628 24.641 19.3003 24.5523 19.8732C24.1471 19.9262 23.7084 19.6866 23.294 19.7226C22.4828 19.7766 21.6735 19.841 20.8716 19.662C19.954 19.859 18.9823 19.7605 18.0572 19.8135C18.0479 19.7245 18.0413 19.4736 18.032 19.3846Z" fill="#F5D776"/>
<path d="M25.68 18.4006C26.27 18.3732 27.0905 18.5076 27.672 18.5701C27.672 18.8116 27.7542 19.3389 27.6394 19.5709C26.9253 19.7054 25.9796 20.1267 25.2478 20.1447C25.2655 19.9478 25.259 19.4857 25.259 19.2888C25.3384 19.2348 25.6091 19.107 25.6968 19.053C25.7239 18.8295 25.6623 18.6146 25.68 18.4006Z" fill="#FEFEFE"/>
<path d="M30 18.9283V19.3127C28.6866 19.6981 27.2752 19.6981 25.9973 20.2435C25.4064 20.5474 24.7539 20.36 24.1453 20.217C23.6869 20.8968 22.9551 21.5132 22.1 21.4782C21.3943 21.3882 20.9005 20.7624 20.5738 20.181C19.8868 20.1365 19.1811 20.1535 18.4847 20.181C18.1757 20.36 17.9377 20.7983 17.5232 20.6554C17.162 20.6819 16.9856 20.2975 16.6766 20.2075C15.8131 20.1535 14.9394 20.199 14.0759 20.2435C12.9735 20.2615 11.8533 20.0825 10.778 20.3779C10.2758 20.5739 9.8613 20.163 9.39364 20.056C8.91757 20.002 8.42376 20.038 7.93835 20.0466C7.789 21.5227 8.63566 22.8379 9.33203 24.0631C9.79036 24.9484 10.4867 25.8971 11.5275 26.0581C12.321 26.2456 13.3525 26.3355 13.9256 25.6112C14.4194 24.4655 13.7847 23.2308 13.1761 22.2745C12.5768 22.5159 11.7124 22.4979 11.563 23.2848C11.8095 23.4552 12.0568 23.6162 12.2949 23.7856C12.2678 23.4902 12.2417 23.2043 12.2155 22.9089C12.6823 23.0168 13.3796 23.3028 13.2909 23.9021C13.0883 24.3945 12.4713 24.5015 12.0036 24.5554C11.2634 24.5999 10.9012 23.8481 10.6109 23.2848C10.2664 22.7479 10.707 22.158 11.157 21.8806C11.5714 21.6117 11.8888 21.1733 12.4003 21.0928C13.2647 21.0578 14.2878 21.2273 14.7546 22.0681C15.4957 23.2942 16.1128 24.9484 15.3016 26.291C15.2129 26.6129 14.8432 26.648 14.5959 26.8004C14.1907 26.9708 13.8734 27.3278 13.4234 27.3818C12.2333 27.5967 10.9189 27.5702 9.87904 26.8629C8.79435 26.0041 8.08864 24.7789 7.37454 23.6067C6.76592 22.5784 6.54562 21.3797 6.32532 20.217H6.11342C5.19675 20.2075 4.28848 20.199 3.37182 20.199H2.59517C1.87266 19.9661 1.96974 19.1253 2.06682 18.5174C2.48969 18.3205 2.93962 18.204 3.36248 17.9985H3.37182C3.76854 17.8821 4.14753 18.079 4.54426 18.0875C5.07353 17.9985 5.63735 18.007 6.11342 17.7391C6.13116 17.7296 6.15729 17.7116 6.17503 17.7031C6.18436 17.2382 6.14889 16.7724 6.14889 16.3075C6.18436 15.6182 6.44013 14.9658 6.56335 14.2945C6.69591 13.5521 6.93394 12.8363 7.26906 12.1565C7.81514 10.6093 8.75047 9.0887 10.2226 8.31039C10.946 7.979 11.704 7.74702 12.4797 7.59458C13.5999 7.5586 14.6929 7.8275 15.7422 8.22044C15.8925 8.28293 16.0418 8.3369 16.1921 8.3994C16.2714 7.38911 16.545 6.3864 17.021 5.48311C17.232 5.17065 17.5671 4.9917 17.8677 4.79475C18.4576 4.34689 19.2427 4.53532 19.9307 4.56183C20.7502 4.89323 21.3505 5.59105 21.7911 6.35137C22.0207 6.61933 22.2317 7.02174 22.5761 7.10222C23.0074 6.7623 23.378 6.3419 23.8895 6.13643C25.0181 5.72456 26.3231 5.5456 27.4339 6.10992C28.0425 6.6733 28.2628 7.55008 28.3692 8.34637C28.2544 9.84902 27.7167 11.3697 26.6404 12.4339C26.3408 12.5769 26.0234 12.6933 25.7144 12.8098C25.847 13.1497 26.0589 13.4451 26.2082 13.7671C26.2969 13.9366 26.3585 14.125 26.3847 14.3219C26.4556 14.7063 26.0496 14.9118 25.8209 15.1447C24.7446 16.1105 23.2725 16.3879 21.8965 16.6029C21.5969 16.5404 21.3057 16.4324 21.006 16.3614C21.1647 16.8708 21.3505 17.3717 21.5708 17.8641C21.694 17.8016 21.8265 17.7476 21.9497 17.6936V17.9891C21.7024 17.9711 21.4475 17.9531 21.1918 17.9351C20.9883 17.4882 20.8212 17.0233 20.5215 16.6294C20.3629 16.4419 20.1071 16.4239 19.9568 16.6389C20.1594 17.2827 20.8389 17.5952 21.1208 18.1945C20.9976 18.4719 20.6886 18.7494 20.9005 19.0533C20.9705 18.4634 21.4475 18.1775 21.9497 17.9891C22.3203 18.132 22.7255 18.114 23.1222 18.1415C22.8048 17.8366 22.3726 17.7391 21.9581 17.6936C22.1168 17.6311 22.2755 17.5687 22.4342 17.4967C22.9374 17.5327 23.3341 17.8546 23.7392 18.132C24.6475 18.15 25.5651 17.9985 26.4733 18.1595C27.6635 18.4634 28.9685 18.2665 30 18.9283ZM10.6015 20.0021C10.1871 19.5637 9.54392 19.1518 9.70261 18.436C9.96679 18.0695 10.5045 18.1595 10.8928 18.043C10.6277 17.6936 10.2758 17.3717 10.1609 16.9428C10.1255 16.2809 10.4345 15.6721 10.6548 15.0728C10.8218 15.1087 10.9805 15.1353 11.1486 15.1712C11.1663 15.4042 11.1924 15.6456 11.2102 15.8776C11.774 16.191 12.4265 16.209 13.0267 16.4059C13.8556 16.6834 14.7462 16.5849 15.5835 16.3879C15.5751 16.191 15.5573 15.994 15.5573 15.7971C15.6451 15.4401 15.8393 14.8853 16.3153 15.0908C16.2798 15.5557 16.2182 16.012 16.2005 16.4769C16.2098 16.8973 16.4208 17.2552 16.6766 17.5781C16.6682 17.3357 16.6504 17.0858 16.6327 16.8443C16.5627 16.191 16.5795 15.5112 16.9417 14.9478C17.0472 14.9383 17.2675 14.9213 17.3739 14.9118C17.2852 15.3682 17.1704 15.8066 17.0733 16.2535C17.2852 16.2809 17.5055 16.3075 17.7174 16.334C18.5818 16.4324 19.463 16.209 20.2219 15.7971C20.4329 15.6816 20.6532 15.5471 20.8651 15.4307C21.2795 15.6721 21.7472 15.941 22.2494 15.7886C23.4573 15.5026 24.8062 15.2612 25.7238 14.3304C25.6444 14.143 25.5735 13.9545 25.4941 13.7671C25.4767 13.7222 25.459 13.6774 25.4409 13.6326C25.1329 13.1232 24.8855 12.5324 24.3749 12.201C23.8811 11.9065 23.3079 11.7901 22.7964 11.5306C22.2494 11.9955 22.003 12.7028 21.4737 13.1857C20.8651 13.5966 20.0893 13.6771 19.3836 13.5436C18.5902 13.3552 17.9293 12.8183 17.2945 12.3269C16.9146 12.023 16.7214 11.5571 16.5711 11.1007C16.474 10.7968 16.3947 10.4844 16.3153 10.1795C16.2182 9.77706 16.2444 9.24966 15.8038 9.07071C15.7864 9.06187 15.7689 9.05272 15.7515 9.04325C14.7546 8.57835 13.6521 8.23843 12.5506 8.30092C11.5714 8.61433 10.4961 8.8198 9.74649 9.57159C8.58245 10.6273 7.92995 12.1205 7.40068 13.5786C7.37454 13.6686 7.33066 13.8381 7.30359 13.928C7.28679 13.9905 7.25972 14.107 7.24199 14.161C7.06556 14.8758 6.75751 15.5377 6.58109 16.245C6.53722 16.6474 6.56335 17.0413 6.60723 17.4437C6.61656 17.5242 6.62496 17.6756 6.62496 17.7476C6.863 17.7476 7.10103 17.7561 7.33907 17.7656C7.83287 16.8973 8.15025 15.8871 8.97077 15.2517C9.164 15.0463 9.33203 14.8228 9.53459 14.6344C9.79036 14.4829 9.94905 14.7774 10.09 14.9478C9.3759 15.7526 9.62327 16.9873 10.1693 17.8196C9.79036 18.1055 9.42911 18.4009 9.13786 18.7674C9.34043 19.4387 10.0107 19.7606 10.6015 20.0021ZM20.3535 18.6244C19.842 18.6244 19.3398 18.5979 18.8282 18.6329C18.6079 18.6869 18.1496 18.6149 18.2112 18.9823C18.8105 19.0183 19.4107 19.0183 20.0184 19.0003C20.2658 19.0088 20.3713 18.8838 20.3535 18.6244ZM22.8141 10.7968C23.8186 11.0477 24.9126 11.4946 25.4064 12.4964C25.8115 12.058 26.3053 11.7276 26.7375 11.3157C27.4778 10.2069 28.1041 8.74878 27.5403 7.43361C27.3368 6.55683 26.3408 6.2529 25.5557 6.35137C24.5243 6.53032 23.3873 6.90527 22.8403 7.89851C22.858 8.85578 22.999 9.83103 22.8141 10.7968ZM17.0565 10.3139C17.1526 10.8328 17.2413 11.4946 17.779 11.7456L17.7613 11.8525C18.5202 12.6214 19.6394 13.0958 20.7064 12.7833C21.1031 12.5589 21.5176 12.2909 21.7117 11.844C22.3726 10.4569 22.4874 8.8198 22.0375 7.35313C21.6324 7.05772 21.2534 6.72632 21.006 6.27089C20.5299 5.59105 19.7188 4.87524 18.8376 5.19716C17.9377 5.32215 17.3029 6.12697 17.0565 6.96871C16.7214 8.04149 16.6066 9.25819 17.0565 10.3139ZM4.15593 19.9301C4.01498 19.5996 3.82082 19.2862 3.74147 18.9378C3.67986 18.5799 4.14753 18.4274 4.17367 18.079C3.9095 18.132 3.63599 18.1415 3.37182 18.1055C3.33634 18.1055 3.30927 18.1055 3.27474 18.096C3.08897 18.4095 2.86868 18.6954 2.5513 18.8744C2.24232 19.0808 2.37487 19.5277 2.42808 19.8316C2.74546 19.8856 3.05444 19.9036 3.37182 19.9121C3.63599 19.9121 3.89176 19.9216 4.15593 19.9301ZM4.94938 18.258C4.80003 18.275 4.64134 18.2845 4.49105 18.293C4.39397 18.5174 4.28848 18.7494 4.16527 18.9643C4.27075 19.2503 4.4117 19.5097 4.58813 19.7606C4.632 19.7426 4.73842 19.6981 4.79069 19.6707C4.4117 19.2143 4.71135 18.6869 4.94938 18.258ZM5.29383 19.0628C5.46092 18.8573 5.65509 18.6604 5.69896 18.3915L5.57574 18.4454L5.54027 18.347C5.53187 18.3829 5.5048 18.454 5.48799 18.4899L5.39091 18.6064C5.37318 18.6329 5.34611 18.6689 5.3293 18.6869C5.09967 18.8838 5.14354 19.1878 5.11741 19.4567C5.15288 19.5277 5.23222 19.6621 5.26676 19.7246C5.66349 19.9661 5.59348 19.0808 5.29383 19.0628ZM6.11342 18.9823C6.90687 19.0003 7.70965 19.0183 8.5031 19.0533C8.53858 18.9728 8.60859 18.8119 8.64406 18.7314C8.30894 18.347 7.76286 18.5259 7.32133 18.4634C6.95168 18.4899 6.4224 18.4274 6.11342 18.6689C6.02567 18.7409 5.95473 18.8393 5.91086 18.9728C5.9818 18.9823 6.04341 18.9823 6.11342 18.9823ZM9.32269 15.7526C9.164 15.7971 9.00531 15.8331 8.84662 15.8691C8.4947 16.5044 8.01863 17.1568 8.12411 17.9266C8.61792 17.9266 9.12946 17.918 9.5878 17.6756C9.22654 17.0943 9.10239 16.4144 9.32269 15.7526ZM7.30359 20.1365C7.19811 20.127 7.01328 20.1005 6.9162 20.0825C6.97781 20.8968 7.1365 21.7196 7.41001 22.4885C7.93835 23.4372 8.37989 24.439 9.05852 25.2798C9.75489 25.9861 10.4522 26.8724 11.5275 26.9254C12.3126 26.9254 13.1761 27.1043 13.8818 26.648C14.79 26.219 15.31 25.0648 14.9571 24.0896C14.6575 23.2762 14.4465 22.3275 13.6792 21.8266C12.6029 21.1733 10.9899 22.2565 11.2102 23.5357C11.3866 23.7326 11.5714 23.9286 11.7478 24.1256C12.18 24.1881 12.6645 24.206 12.9651 23.8131C12.8409 23.6607 12.7439 23.4997 12.6206 23.3567C12.6206 23.5707 12.63 23.7856 12.6384 23.9921C12.1091 24.3225 11.633 23.7951 11.2102 23.5357C11.157 22.247 13.0883 21.3523 13.8286 22.5339C14.2608 23.5357 14.8871 24.6889 14.384 25.7807C13.5999 27.0059 11.7656 27.1318 10.6548 26.2995C10.1348 25.8971 9.57846 25.5032 9.24335 24.9219C8.92597 24.3585 8.65339 23.7771 8.31828 23.2223C7.74513 22.283 7.71806 21.1383 7.30359 20.1365ZM9.06785 19.7246C9.02305 19.6801 8.95304 19.5996 8.91757 19.5542C7.98316 19.5192 7.04782 19.2948 6.11342 19.4472C6.14889 19.5097 6.2021 19.6347 6.23664 19.6981C7.17198 19.7966 8.12411 19.7246 9.06785 19.7246ZM19.5694 17.2647C19.4107 17.1123 19.3482 16.8083 19.1017 16.7818C18.6257 16.8443 18.1496 16.9248 17.6642 16.8973H17.1358C17.1088 17.1928 17.1088 17.4882 17.1088 17.7836C17.2236 17.8461 17.4616 17.9805 17.5764 18.043C17.7435 17.7296 18.0609 17.6046 18.3783 17.5147C18.8544 18.3025 19.7897 18.204 20.5738 18.186C20.248 17.8726 19.8513 17.6226 19.5694 17.2647ZM15.8393 17.0943C15.0719 17.1303 14.3046 17.1038 13.5382 17.1303C13.4412 17.4967 13.317 17.8546 13.247 18.222C14.3401 18.3205 15.4425 18.2845 16.5356 18.2665C16.3685 17.8461 16.2098 17.3812 15.8393 17.0943ZM12.9119 16.9513L12.7616 17.0318C12.6384 17.4882 12.3565 17.8016 11.9775 18.061C12.2594 18.114 12.5413 18.132 12.8325 18.1595C13.1238 17.8196 12.938 17.3537 12.9119 16.9513ZM10.7425 16.3965C10.637 16.9608 10.7602 17.5147 11.0776 17.9891C11.3157 17.8016 11.563 17.5952 11.8365 17.4437C11.8711 17.2287 11.9159 17.0233 11.9681 16.8169C11.6424 16.5044 11.1486 16.5224 10.7425 16.3965ZM11.325 19.0533C11.5275 19.2682 11.7917 19.0183 12.0214 19.0003C12.5506 18.8393 13.0528 19.1972 13.5821 19.1972C14.5959 19.2237 15.6096 19.2143 16.6243 19.1792C16.615 19.0628 16.5972 18.8213 16.5888 18.7049C15.24 18.7049 13.8463 18.4899 12.5329 18.8838C12.1623 18.8744 11.8188 18.7049 11.4566 18.6424C11.2102 18.3025 10.5661 18.5439 10.1609 18.4454C10.2226 18.6329 10.2758 18.8299 10.328 19.0183C10.6548 19.0268 10.9805 19.0353 11.325 19.0533ZM16.6943 19.6886C15.1335 19.5816 13.5728 19.5542 12.012 19.5371C11.6069 19.5457 11.2102 19.5371 10.8134 19.5371C10.8928 19.6441 10.9721 19.7606 11.0515 19.8676C11.3689 19.8771 11.6946 19.8941 12.012 19.9036C13.5382 19.9121 15.0542 19.9396 16.5795 19.8856C16.6066 19.8411 16.6588 19.7426 16.6943 19.6886ZM17.8145 20.3685C17.6819 19.9301 17.5148 19.4917 17.4532 19.0353L17.4616 18.9728C17.6026 18.454 18.1319 18.3025 18.5547 18.096C18.2989 17.4702 17.6735 17.9985 17.3907 18.329C17.1797 18.1415 16.9856 17.9446 16.8091 17.7211C17.3561 18.5439 16.9062 19.7786 17.8145 20.3685ZM23.4134 20.342C23.1661 19.8496 22.7432 20.5209 22.4436 20.6459C21.9143 20.467 21.4205 20.2255 20.9183 20.0021C21.244 20.324 21.5091 20.7359 21.932 20.9413C22.479 21.0663 23.0167 20.6999 23.4134 20.342ZM23.4844 19.4027C22.62 19.5542 21.7379 19.4472 20.8744 19.5637C19.9484 19.3762 19.0047 19.3402 18.0609 19.4207C18.0702 19.5097 18.0786 19.6886 18.088 19.7786C19.0131 19.7246 19.9568 19.8136 20.8744 19.6176C21.6762 19.7966 22.4968 19.7246 23.3079 19.6707C23.7224 19.6347 24.1014 19.8941 24.5065 19.8411C24.5859 19.2682 23.8363 19.4292 23.4844 19.4027ZM25.0274 18.9283C24.8062 18.7854 24.6036 18.5704 24.3394 18.5174C23.378 18.4634 22.4342 18.5979 21.4914 18.6784C21.4559 18.7494 21.385 18.8838 21.3505 18.9463C21.8704 19.1073 22.4258 19.0088 22.9551 19.0808C23.6431 19.1698 24.3833 19.2503 25.0274 18.9283ZM27.5842 18.7494C27.0017 18.6869 26.4463 18.4634 25.8554 18.4899C25.8386 18.7049 25.8115 18.9198 25.7938 19.1338C25.706 19.1878 25.538 19.3042 25.4587 19.3582C25.4587 19.5542 25.4503 19.7606 25.4325 19.9575C26.1644 19.9396 26.8346 19.6176 27.5487 19.4832C27.6635 19.2503 27.5926 18.9823 27.5842 18.7494Z" fill="#231F20"/>
</svg>
