<svg width="32" height="32" viewBox="0 0 32 32" fill="none" xmlns="http://www.w3.org/2000/svg">
<path fill-rule="evenodd" clip-rule="evenodd" d="M19.2481 4.05473L5.92831 5.03489C4.85427 5.12783 4.47998 5.828 4.47998 6.66739V21.2253C4.47998 21.8794 4.71329 22.4384 5.27435 23.1856L8.40546 27.245C8.91977 27.8987 9.38717 28.0386 10.3692 27.9918L25.8374 27.0584C27.1457 26.9655 27.5199 26.3585 27.5199 25.332V8.95397C27.5199 8.42337 27.3098 8.2701 26.6904 7.81827C26.6564 7.79341 26.621 7.76765 26.5845 7.74087L22.3326 4.75471C21.3046 4.00845 20.8837 3.91455 19.2481 4.05473ZM10.72 8.68533C9.45709 8.77054 9.17013 8.7899 8.45296 8.20772L6.6292 6.76129C6.44319 6.57425 6.53648 6.34093 7.00348 6.29465L19.8089 5.36135C20.8835 5.26783 21.4442 5.64172 21.8651 5.96819L24.0614 7.55479C24.1549 7.60126 24.3882 7.88087 24.1077 7.88087L10.883 8.67437L10.72 8.68533ZM9.24696 25.1918V11.2874C9.24696 10.681 9.4339 10.4008 9.99439 10.3537L25.1825 9.46747C25.6976 9.42081 25.9309 9.74766 25.9309 10.3537V24.1648C25.9309 24.7718 25.8372 25.2858 24.9957 25.332L10.4618 26.1724C9.62066 26.2186 9.24696 25.9391 9.24696 25.1918ZM23.5948 12.0333C23.688 12.4537 23.5948 12.8736 23.1734 12.9209L22.473 13.0603V23.3254C21.8651 23.6519 21.3044 23.8386 20.8372 23.8386C20.0892 23.8386 19.9019 23.6051 19.3416 22.9056L14.761 15.72V22.6723L16.2104 22.9991C16.2104 22.9991 16.2104 23.8386 15.041 23.8386L11.8172 24.0255C11.7235 23.8386 11.8172 23.3724 12.1442 23.279L12.9855 23.046V13.8538L11.8174 13.7603C11.7237 13.3399 11.957 12.7338 12.6118 12.6868L16.0702 12.4538L20.8372 19.733V13.2936L19.6218 13.1542C19.5285 12.6403 19.9019 12.2672 20.3692 12.2209L23.5948 12.0333Z" fill="#1E2226"/>
</svg>
