<svg width="32" height="32" viewBox="0 0 32 32" fill="none" xmlns="http://www.w3.org/2000/svg">
<path d="M16 14.6792C19.5013 14.6792 22.3396 11.8409 22.3396 8.33962C22.3396 4.83835 19.5013 2 16 2C12.4987 2 9.6604 4.83835 9.6604 8.33962C9.6604 11.8409 12.4987 14.6792 16 14.6792Z" fill="#88BDF3"/>
<path d="M16 30C19.5013 30 22.3396 27.1617 22.3396 23.6604C22.3396 20.1591 19.5013 17.3208 16 17.3208C12.4987 17.3208 9.6604 20.1591 9.6604 23.6604C9.6604 27.1617 12.4987 30 16 30Z" fill="#3075EE"/>
<path d="M23.6604 22.3396C27.1617 22.3396 30 19.5013 30 16C30 12.4987 27.1617 9.6604 23.6604 9.6604C20.1591 9.6604 17.3208 12.4987 17.3208 16C17.3208 19.5013 20.1591 22.3396 23.6604 22.3396Z" fill="#5795F1"/>
<path d="M8.33962 22.3396C11.8409 22.3396 14.6792 19.5013 14.6792 16C14.6792 12.4987 11.8409 9.6604 8.33962 9.6604C4.83835 9.6604 2 12.4987 2 16C2 19.5013 4.83835 22.3396 8.33962 22.3396Z" fill="#205FEC"/>
<path d="M14.5075 14.5075C13.3775 14.2327 12.3449 13.6524 11.5226 12.8301C10.7003 12.0078 10.12 10.9752 9.84521 9.84521C10.9732 10.1242 12.0036 10.7058 12.8252 11.5275C13.6469 12.3491 14.2285 13.3795 14.5075 14.5075Z" fill="#134BEF"/>
<path d="M9.83203 22.1679C10.1068 21.0379 10.6871 20.0053 11.5094 19.183C12.3317 18.3607 13.3643 17.7804 14.4943 17.5056C14.2154 18.6336 13.6337 19.664 12.8121 20.4856C11.9904 21.3073 10.96 21.8889 9.83203 22.1679Z" fill="#0932E8"/>
<path d="M17.4924 17.4924C18.6224 17.7672 19.6551 18.3475 20.4774 19.1698C21.2997 19.9921 21.8799 21.0247 22.1547 22.1547C21.0267 21.8758 19.9963 21.2941 19.1747 20.4725C18.353 19.6508 17.7714 18.6204 17.4924 17.4924Z" fill="#164BEA"/>
<path d="M22.1679 9.83203C21.8931 10.962 21.3128 11.9947 20.4905 12.817C19.6682 13.6393 18.6356 14.2195 17.5056 14.4943C17.7846 13.3663 18.3662 12.3359 19.1879 11.5143C20.0095 10.6926 21.0399 10.111 22.1679 9.83203Z" fill="#3170F1"/>
</svg>
