<svg width="32" height="32" viewBox="0 0 32 32" fill="none" xmlns="http://www.w3.org/2000/svg">
<path d="M19.7719 11.6572H12.2559C11.9368 11.6572 11.6753 11.919 11.6753 12.2384V19.7623C11.6753 20.0817 11.9368 20.3435 12.2559 20.3435H19.7719C20.0909 20.3435 20.3525 20.0817 20.3525 19.7623V12.2384C20.3525 11.919 20.0909 11.6572 19.7719 11.6572Z" fill="black"/>
<path d="M11.0966 3H3.58058C3.26154 3 3 3.26181 3 3.58119V11.1051C3 11.4244 3.26154 11.6862 3.58058 11.6862H11.0966C11.4156 11.6862 11.6772 11.4244 11.6772 11.1051V3.58119C11.6753 3.26181 11.4156 3 11.0966 3Z" fill="black"/>
<path d="M28.4194 3H20.9033C20.5843 3 20.3228 3.26181 20.3228 3.58119V11.1051C20.3228 11.4244 20.5843 11.6862 20.9033 11.6862H28.4194C28.7384 11.6862 28.9999 11.4244 28.9999 11.1051V3.58119C28.9999 3.26181 28.7384 3 28.4194 3Z" fill="black"/>
<path d="M11.0966 20.314H3.58058C3.26154 20.314 3 20.5758 3 20.8952V28.419C3 28.7384 3.26154 29.0002 3.58058 29.0002H11.0966C11.4156 29.0002 11.6772 28.7384 11.6772 28.419V20.8952C11.6753 20.5758 11.4156 20.314 11.0966 20.314Z" fill="black"/>
<path d="M28.4194 20.314H20.9033C20.5843 20.314 20.3228 20.5758 20.3228 20.8952V28.419C20.3228 28.7384 20.5843 29.0002 20.9033 29.0002H28.4194C28.7384 29.0002 28.9999 28.7384 28.9999 28.419V20.8952C28.9999 20.5758 28.7384 20.314 28.4194 20.314Z" fill="black"/>
</svg>
