<svg width="32" height="32" viewBox="0 0 32 32" fill="none" xmlns="http://www.w3.org/2000/svg">
<mask id="mask0_214_439" style="mask-type:alpha" maskUnits="userSpaceOnUse" x="2" y="7" width="28" height="18">
<path d="M8.85106 25C5.0673 25 2 21.9108 2 18.1C2 14.3729 4.93407 11.3361 8.60286 11.2045C10.1159 8.6845 12.8626 7 16 7C20.052 7 23.4523 9.80964 24.385 13.6001C27.4902 13.6242 30 16.167 30 19.3C30 22.3474 27.375 25 24.6383 24.9922L8.85106 25Z" fill="#C4C4C4"/>
</mask>
<g mask="url(#mask0_214_439)">
<path d="M8.85116 25.0003C6.70572 25.0003 4.79063 24.0071 3.53442 22.4523L17.7873 16.3003L28.87 22.7184C27.8932 24.0292 26.4181 25.0003 24.7501 24.9925C22.2345 25.0003 12.5548 25.0003 8.85116 25.0003Z" fill="url(#paint0_linear_214_439)"/>
<path d="M24.3807 13.5835L17.7871 16.3001L28.8699 22.7182C29.5795 21.7659 29.9999 20.5825 29.9999 19.3002C29.9999 16.1672 27.4901 13.6245 24.3849 13.6004C24.3835 13.5947 24.3821 13.5891 24.3807 13.5835Z" fill="url(#paint1_linear_214_439)"/>
<path d="M8.18164 11.2325L17.7873 16.3L24.3809 13.5833C23.4422 9.80135 20.046 7 16 7C12.8626 7 10.1159 8.6845 8.60287 11.2045C8.46133 11.2095 8.32087 11.2189 8.18164 11.2325Z" fill="url(#paint2_linear_214_439)"/>
<path d="M3.53431 22.4519L17.7872 16.2999L8.18162 11.2324C4.71203 11.5713 2 14.5166 2 18.0999C2 19.7499 2.57505 21.2646 3.53431 22.4519Z" fill="url(#paint3_linear_214_439)"/>
</g>
<defs>
<linearGradient id="paint0_linear_214_439" x1="5.87242" y1="23.8003" x2="25.8309" y2="22.6172" gradientUnits="userSpaceOnUse">
<stop stop-color="#2086B8"/>
<stop offset="1" stop-color="#46D3F6"/>
</linearGradient>
<linearGradient id="paint1_linear_214_439" x1="22.8509" y1="19.3001" x2="28.5361" y2="15.4379" gradientUnits="userSpaceOnUse">
<stop stop-color="#1694DB"/>
<stop offset="1" stop-color="#62C3FE"/>
</linearGradient>
<linearGradient id="paint2_linear_214_439" x1="9.44682" y1="8.2" x2="22.5986" y2="15.6196" gradientUnits="userSpaceOnUse">
<stop stop-color="#0D3D78"/>
<stop offset="1" stop-color="#063B83"/>
</linearGradient>
<linearGradient id="paint3_linear_214_439" x1="1.70212" y1="19.5999" x2="14.8302" y2="14.8599" gradientUnits="userSpaceOnUse">
<stop stop-color="#16589B"/>
<stop offset="1" stop-color="#1464B7"/>
</linearGradient>
</defs>
</svg>
