<svg width="32" height="32" viewBox="0 0 32 32" fill="none" xmlns="http://www.w3.org/2000/svg">
<path d="M9 22.75H30V27C30 28.1046 29.1046 29 28 29H11C9.89543 29 9 28.1046 9 27V22.75Z" fill="#5D29A1"/>
<rect x="9" y="16.5" width="21" height="6.25" fill="#7F32CC"/>
<rect x="9" y="10.25" width="21" height="6.25" fill="#9A40D6"/>
<path d="M10.75 4C9.7835 4 9 4.79949 9 5.78571V27.2143C9 28.2005 9.7835 29 10.75 29H23V10.25H30V5.78571C30 4.79949 29.2165 4 28.25 4H10.75Z" fill="url(#paint0_linear_214_445)"/>
<rect x="2" y="8.46436" width="15.75" height="16.0714" rx="2" fill="url(#paint1_linear_214_445)"/>
<path d="M13.375 20.9642V12.0356H11.5281V17.2397L8.09271 12.0356H6.375V20.9642H8.19603V15.5688L11.7606 20.9642H13.375Z" fill="white"/>
<defs>
<linearGradient id="paint0_linear_214_445" x1="9" y1="16.5" x2="23.4375" y2="16.5" gradientUnits="userSpaceOnUse">
<stop stop-color="#8C42AC"/>
<stop offset="1" stop-color="#C36DEF"/>
</linearGradient>
<linearGradient id="paint1_linear_214_445" x1="2" y1="16.5001" x2="18.625" y2="16.5001" gradientUnits="userSpaceOnUse">
<stop stop-color="#44176C"/>
<stop offset="1" stop-color="#621F9C"/>
</linearGradient>
</defs>
</svg>
