<svg width="32" height="32" viewBox="0 0 32 32" fill="none" xmlns="http://www.w3.org/2000/svg">
<path d="M30 16C30 23.7316 23.7316 30 16 30C8.26844 30 2 23.7316 2 16C2 8.26844 8.26844 2 16 2C23.7332 2 30 8.26844 30 16Z" fill="#2081E2"/>
<path d="M8.90713 16.4706L8.96752 16.3757L12.6095 10.6783C12.6627 10.5949 12.7878 10.6035 12.8281 10.6941C13.4365 12.0577 13.9615 13.7535 13.7156 14.8093C13.6106 15.2437 13.3229 15.8319 12.9993 16.3757C12.9576 16.4548 12.9115 16.5325 12.8626 16.6072C12.8396 16.6418 12.8008 16.6619 12.7591 16.6619H9.01356C8.91287 16.6619 8.8539 16.5526 8.90713 16.4706Z" fill="white"/>
<path d="M25.1406 17.5292V18.431C25.1406 18.4828 25.1089 18.5288 25.0629 18.549C24.781 18.6698 23.8158 19.1128 23.4145 19.6709C22.3904 21.0963 21.6079 23.1345 19.8589 23.1345H12.562C9.97584 23.1345 7.88013 21.0316 7.88013 18.4368V18.3534C7.88013 18.2843 7.93621 18.2282 8.00526 18.2282H12.073C12.1535 18.2282 12.2125 18.303 12.2053 18.3821C12.1765 18.6468 12.2254 18.9172 12.3506 19.1631C12.5922 19.6537 13.0928 19.96 13.6336 19.96H15.6473V18.3879H13.6566C13.5545 18.3879 13.4941 18.2699 13.5531 18.1865C13.5746 18.1534 13.5991 18.1189 13.625 18.0801C13.8134 17.8125 14.0824 17.3969 14.3499 16.9236C14.5326 16.6043 14.7095 16.2634 14.8519 15.9211C14.8807 15.8592 14.9037 15.7959 14.9267 15.7341C14.9655 15.6248 15.0058 15.5226 15.0346 15.4205C15.0634 15.3342 15.0863 15.2436 15.1094 15.1587C15.177 14.8682 15.2057 14.5604 15.2057 14.2411C15.2057 14.1159 15.2 13.985 15.1885 13.8599C15.1827 13.7232 15.1655 13.5866 15.1482 13.4499C15.1367 13.3291 15.1151 13.2097 15.0921 13.0846C15.0634 12.9019 15.0231 12.7207 14.977 12.538L14.9612 12.469C14.9267 12.3438 14.8979 12.2245 14.8577 12.0993C14.744 11.7066 14.6131 11.324 14.4751 10.9659C14.4247 10.8235 14.3672 10.6868 14.3096 10.5502C14.2248 10.3445 14.1385 10.1575 14.0594 9.9806C14.0191 9.90005 13.9846 9.82669 13.9501 9.7519C13.9112 9.66703 13.871 9.58216 13.8307 9.50163C13.8019 9.43978 13.7688 9.38224 13.7458 9.3247L13.4998 8.87018C13.4653 8.80833 13.5229 8.73497 13.5904 8.75367L15.1295 9.17079H15.1338C15.1367 9.17079 15.1381 9.17224 15.1396 9.17224L15.3424 9.22833L15.5653 9.29163L15.6473 9.31462V8.39983C15.6473 7.95825 16.0012 7.6001 16.4384 7.6001C16.6571 7.6001 16.8556 7.68928 16.998 7.83454C17.1403 7.97983 17.2295 8.17833 17.2295 8.39983V9.75767L17.3935 9.80367C17.4065 9.80801 17.4194 9.81375 17.4309 9.82237C17.4712 9.85259 17.5287 9.89716 17.6021 9.95185C17.6596 9.99785 17.7215 10.054 17.7962 10.1115C17.9444 10.2309 18.1213 10.3848 18.3155 10.5617C18.3673 10.6063 18.4176 10.6523 18.4637 10.6984C18.7139 10.9314 18.9944 11.2047 19.262 11.5067C19.3367 11.5916 19.4101 11.6779 19.4849 11.7685C19.5597 11.8605 19.6388 11.9512 19.7078 12.0418C19.7985 12.1626 19.8963 12.2877 19.9811 12.4186C20.0214 12.4805 20.0674 12.5438 20.1063 12.6056C20.2156 12.771 20.312 12.9422 20.404 13.1134C20.4429 13.1925 20.4831 13.2788 20.5176 13.3636C20.6198 13.5923 20.7003 13.8254 20.7521 14.0584C20.7679 14.1087 20.7794 14.1634 20.7852 14.2123V14.2238C20.8024 14.2928 20.8082 14.3662 20.8139 14.441C20.837 14.6798 20.8255 14.9185 20.7737 15.1587C20.7521 15.2609 20.7233 15.3572 20.6888 15.4594C20.6543 15.5572 20.6198 15.6593 20.5752 15.7557C20.4889 15.9556 20.3867 16.1555 20.2659 16.3425C20.2271 16.4116 20.1811 16.4849 20.135 16.554C20.0847 16.6273 20.0329 16.6963 19.9869 16.764C19.9236 16.8503 19.856 16.9409 19.787 17.0214C19.7251 17.1063 19.6618 17.1912 19.5928 17.266C19.4964 17.3796 19.4043 17.4875 19.308 17.591C19.2505 17.6586 19.1886 17.7277 19.1253 17.7895C19.0635 17.8585 19.0002 17.9204 18.9426 17.9779C18.8463 18.0743 18.7657 18.1491 18.6981 18.2109L18.5399 18.3562C18.5169 18.3764 18.4867 18.3879 18.455 18.3879H17.2295V19.96H18.7715C19.1167 19.96 19.4446 19.8378 19.7093 19.6134C19.7999 19.5343 20.1955 19.1919 20.6629 18.6756C20.6787 18.6583 20.6989 18.6453 20.7219 18.6396L24.9809 17.4084C25.06 17.3853 25.1406 17.4457 25.1406 17.5292Z" fill="white"/>
</svg>
