<svg width="32" height="32" viewBox="0 0 32 32" fill="none" xmlns="http://www.w3.org/2000/svg">
<path d="M15.9993 2.00076C8.26775 2.00076 2 8.26851 2 16.0001C2 23.508 7.91068 29.6355 15.3326 29.9831C15.5541 29.9936 15.7759 29.9995 15.9995 29.9995C19.5838 29.9995 22.8525 28.6518 25.3293 26.4369C23.6883 27.5252 21.7698 28.1513 19.7194 28.1513C16.3855 28.1513 13.3998 26.4975 11.3917 23.8894C9.8437 22.0621 8.84109 19.361 8.77278 16.3296V15.6704C8.84104 12.6391 9.84365 9.93748 11.3913 8.11064C13.3997 5.50254 16.3854 3.84866 19.719 3.84866C21.7699 3.84866 23.6888 4.47484 25.3299 5.56384C22.8653 3.35904 19.6163 2.01407 16.052 2.00083C16.0342 2.00083 16.0168 2.00014 15.9991 2.00014L15.9993 2.00076Z" fill="url(#paint0_linear_214_1386)"/>
<path d="M11.3916 8.11145C12.6763 6.59481 14.3354 5.68026 16.1481 5.68026C20.2237 5.68026 23.5271 10.3009 23.5271 16.0007C23.5271 21.7005 20.2235 26.3212 16.1481 26.3212C14.3354 26.3212 12.6763 25.407 11.3919 23.8904C13.4 26.4985 16.3855 28.1523 19.7196 28.1523C21.7702 28.1523 23.6887 27.5262 25.3296 26.4379C28.195 23.8744 29.9993 20.1484 29.9993 16.0008C29.9993 11.8538 28.1954 8.12799 25.3306 5.56479C23.6893 4.4758 21.7704 3.84961 19.7197 3.84961C16.3858 3.84961 13.3997 5.50335 11.3916 8.11145Z" fill="url(#paint1_linear_214_1386)"/>
<defs>
<linearGradient id="paint0_linear_214_1386" x1="13.6653" y1="2.4571" x2="13.6653" y2="29.5925" gradientUnits="userSpaceOnUse">
<stop stop-color="#FF1B2D"/>
<stop offset="0.3" stop-color="#FF1B2D"/>
<stop offset="0.614" stop-color="#FF1B2D"/>
<stop offset="1" stop-color="#A70014"/>
</linearGradient>
<linearGradient id="paint1_linear_214_1386" x1="20.6952" y1="4.05674" x2="20.6952" y2="28.0565" gradientUnits="userSpaceOnUse">
<stop stop-color="#9C0000"/>
<stop offset="0.7" stop-color="#FF4B4B"/>
<stop offset="1" stop-color="#FF4B4B"/>
</linearGradient>
</defs>
</svg>
