<svg width="32" height="32" viewBox="0 0 32 32" fill="none" xmlns="http://www.w3.org/2000/svg">
<rect x="10.75" y="4" width="17.5" height="25" rx="2" fill="#1066B5"/>
<rect x="10.75" y="4" width="17.5" height="25" rx="2" fill="url(#paint0_linear_214_452)"/>
<rect x="10.75" y="6.67822" width="8.75" height="8.92857" fill="#32A9E7"/>
<rect x="10.75" y="15.6074" width="8.75" height="8.92857" fill="#167EB4"/>
<rect x="19.5" y="15.6074" width="8.75" height="8.92857" fill="#32A9E7"/>
<rect x="19.5" y="6.67822" width="8.75" height="8.92857" fill="#58D9FD"/>
<mask id="mask0_214_452" style="mask-type:alpha" maskUnits="userSpaceOnUse" x="9" y="14" width="21" height="15">
<path d="M9 14.7144H28C29.1046 14.7144 30 15.6098 30 16.7144V27.0001C30 28.1046 29.1046 29.0001 28 29.0001H11C9.89543 29.0001 9 28.1046 9 27.0001V14.7144Z" fill="url(#paint1_linear_214_452)"/>
</mask>
<g mask="url(#mask0_214_452)">
<path d="M30 14.7144V18.2858H28.25V14.7144H30Z" fill="#135298"/>
<path d="M30 29V16.5L8.125 29H30Z" fill="url(#paint2_linear_214_452)"/>
<path d="M9 29V16.5L30.875 29H9Z" fill="url(#paint3_linear_214_452)"/>
</g>
<path d="M9 13.25C9 11.5931 10.3431 10.25 12 10.25H16.5C18.1569 10.25 19.5 11.5931 19.5 13.25V23.3214C19.5 24.9783 18.1569 26.3214 16.5 26.3214H9V13.25Z" fill="black" fill-opacity="0.3"/>
<rect x="2" y="8.46436" width="15.75" height="16.0714" rx="2" fill="url(#paint4_linear_214_452)"/>
<path d="M14.25 16.5618V16.4134C14.25 13.8411 12.4363 12.0356 9.88884 12.0356C7.32753 12.0356 5.5 13.8535 5.5 16.4381V16.5865C5.5 19.1587 7.31369 20.9642 9.875 20.9642C12.4225 20.9642 14.25 19.1463 14.25 16.5618ZM12.1871 16.5865C12.1871 18.2931 11.2456 19.3195 9.88884 19.3195C8.53204 19.3195 7.57674 18.2683 7.57674 16.5618V16.4134C7.57674 14.7068 8.5182 13.6804 9.875 13.6804C11.218 13.6804 12.1871 14.7315 12.1871 16.4381V16.5865Z" fill="white"/>
<defs>
<linearGradient id="paint0_linear_214_452" x1="10.75" y1="16.5" x2="28.25" y2="16.5" gradientUnits="userSpaceOnUse">
<stop stop-color="#064484"/>
<stop offset="1" stop-color="#0F65B5"/>
</linearGradient>
<linearGradient id="paint1_linear_214_452" x1="9" y1="26.1155" x2="30" y2="26.1155" gradientUnits="userSpaceOnUse">
<stop stop-color="#1B366F"/>
<stop offset="1" stop-color="#2657B0"/>
</linearGradient>
<linearGradient id="paint2_linear_214_452" x1="30" y1="22.75" x2="9" y2="22.75" gradientUnits="userSpaceOnUse">
<stop stop-color="#44DCFD"/>
<stop offset="0.453125" stop-color="#259ED0"/>
</linearGradient>
<linearGradient id="paint3_linear_214_452" x1="9" y1="22.75" x2="30" y2="22.75" gradientUnits="userSpaceOnUse">
<stop stop-color="#259ED0"/>
<stop offset="1" stop-color="#44DCFD"/>
</linearGradient>
<linearGradient id="paint4_linear_214_452" x1="2" y1="16.5001" x2="17.75" y2="16.5001" gradientUnits="userSpaceOnUse">
<stop stop-color="#064484"/>
<stop offset="1" stop-color="#0F65B5"/>
</linearGradient>
</defs>
</svg>
