<svg width="32" height="32" viewBox="0 0 32 32" fill="none" xmlns="http://www.w3.org/2000/svg">
<path d="M3.75 2H28.25C28.7141 2 29.1592 2.18437 29.4874 2.51256C29.8156 2.84075 30 3.28587 30 3.75V28.25C30 28.7141 29.8156 29.1592 29.4874 29.4874C29.1592 29.8156 28.7141 30 28.25 30H3.75C3.28587 30 2.84075 29.8156 2.51256 29.4874C2.18437 29.1592 2 28.7141 2 28.25V3.75C2 3.28587 2.18437 2.84075 2.51256 2.51256C2.84075 2.18437 3.28587 2 3.75 2Z" fill="#05A081"/>
<path d="M11.6327 22.4286H16.7176V17.6046H18.2538C18.7938 17.6046 19.3286 17.5007 19.8275 17.2988C20.3264 17.097 20.7797 16.8011 21.1616 16.4281C21.5434 16.0552 21.8463 15.6124 22.053 15.1251C22.2597 14.6378 22.366 14.1155 22.366 13.588C22.366 13.0605 22.2597 12.5382 22.053 12.0509C21.8463 11.5636 21.5434 11.1208 21.1616 10.7479C20.7797 10.3749 20.3264 10.079 19.8275 9.87717C19.3286 9.67532 18.7938 9.57143 18.2538 9.57143H11.6327V22.4286ZM19.3503 25H9V7H18.2538C19.9477 6.99968 21.5796 7.62187 22.8254 8.74291C24.0711 9.86396 24.8394 11.4018 24.9775 13.0507C25.1157 14.6997 24.6135 16.339 23.571 17.6429C22.5284 18.9469 21.0217 19.8199 19.3503 20.0886V25Z" fill="white"/>
</svg>
