<svg width="32" height="32" viewBox="0 0 32 32" fill="none" xmlns="http://www.w3.org/2000/svg">
<path d="M2.60477 21.2677C1.55683 22.0097 1.75087 23.2878 4.14173 24.0871C6.5326 24.8864 9.31153 25.0516 11.7567 24.6064C11.6868 24.6064 11.8964 24.6064 11.7567 24.6064V22.0839L9.38139 22.9C8.47318 23.1968 7.56498 23.271 6.65677 23.0484C5.95815 22.8258 6.09787 22.3806 6.93622 22.0097L11.7567 20.229V17.4839L5.04994 19.9323C4.21159 20.229 3.37325 20.6742 2.60477 21.2677ZM18.8128 10.1387V17.3355C21.6771 18.8194 23.9127 17.3355 23.9127 13.4774C23.9127 9.54516 22.5853 7.76452 18.7429 6.35484C16.7169 5.6129 14.621 4.94516 12.5252 4.5V25.9419L17.4155 27.5V9.47097C17.4155 8.65484 17.4155 8.06129 17.9744 8.28387C18.7429 8.50645 18.8128 9.32258 18.8128 10.1387ZM27.8949 19.5613C25.8689 18.8194 23.7031 18.5226 21.6073 18.7452C20.4432 18.8224 19.3507 19.173 18.2539 19.5613V22.4548L22.7949 20.6742C23.7031 20.3774 24.6113 20.3032 25.5195 20.5258C26.2182 20.7484 26.0784 21.1935 25.2401 21.5645L18.2539 24.3097V27.129L27.8949 23.3452C28.5935 23.0484 29.2222 22.6774 29.7811 22.0839C30.2702 21.3419 30.0606 20.3032 27.8949 19.5613Z" fill="#0070D1"/>
</svg>
