<svg width="32" height="32" viewBox="0 0 32 32" fill="none" xmlns="http://www.w3.org/2000/svg">
<path d="M15.9991 7.87279C18.7527 7.87279 20.985 6.55812 20.985 4.9364C20.985 3.31467 18.7527 2 15.9991 2C13.2455 2 11.0132 3.31467 11.0132 4.9364C11.0132 6.55812 13.2455 7.87279 15.9991 7.87279Z" fill="#E6007A"/>
<path d="M15.9991 29.998C18.7527 29.998 20.985 28.6833 20.985 27.0616C20.985 25.4399 18.7527 24.1252 15.9991 24.1252C13.2455 24.1252 11.0132 25.4399 11.0132 27.0616C11.0132 28.6833 13.2455 29.998 15.9991 29.998Z" fill="#E6007A"/>
<path d="M9.0509 11.9375C10.4277 9.5227 10.4188 6.90737 9.03094 6.09596C7.6431 5.28455 5.4019 6.58432 4.02509 8.99908C2.64827 11.4138 2.6572 14.0292 4.04505 14.8406C5.43289 15.652 7.67409 14.3522 9.0509 11.9375Z" fill="#E6007A"/>
<path d="M27.9709 22.9988C29.3478 20.584 29.3396 17.9691 27.9527 17.1582C26.5658 16.3474 24.3253 17.6476 22.9485 20.0624C21.5717 22.4771 21.5799 25.092 22.9668 25.9029C24.3537 26.7137 26.5941 25.4135 27.9709 22.9988Z" fill="#E6007A"/>
<path d="M9.03164 25.9022C10.4195 25.0908 10.4284 22.4754 9.0516 20.0607C7.67478 17.6459 5.43358 16.3462 4.04574 17.1576C2.6579 17.969 2.64896 20.5843 4.02578 22.9991C5.4026 25.4138 7.6438 26.7136 9.03164 25.9022Z" fill="#E6007A"/>
<path d="M27.9539 14.8412C29.3408 14.0304 29.3489 11.4155 27.9721 9.00071C26.5953 6.58596 24.3549 5.28574 22.968 6.0966C21.581 6.90747 21.5729 9.52235 22.9497 11.9371C24.3265 14.3519 26.5669 15.6521 27.9539 14.8412Z" fill="#E6007A"/>
</svg>
