<svg width="32" height="32" viewBox="0 0 32 32" fill="none" xmlns="http://www.w3.org/2000/svg">
<path d="M16.0002 7.87279C18.7961 7.87279 21.0626 6.55812 21.0626 4.9364C21.0626 3.31467 18.7961 2 16.0002 2C13.2044 2 10.9378 3.31467 10.9378 4.9364C10.9378 6.55812 13.2044 7.87279 16.0002 7.87279Z" fill="#E6007A"/>
<path d="M16.0002 29.9978C18.7961 29.9978 21.0626 28.6831 21.0626 27.0614C21.0626 25.4397 18.7961 24.125 16.0002 24.125C13.2044 24.125 10.9378 25.4397 10.9378 27.0614C10.9378 28.6831 13.2044 29.9978 16.0002 29.9978Z" fill="#E6007A"/>
<path d="M8.94551 11.9372C10.3435 9.52241 10.3344 6.90708 8.92525 6.09567C7.51612 5.28426 5.24054 6.58403 3.8426 8.99879C2.44466 11.4135 2.45373 14.0289 3.86286 14.8403C5.27199 15.6517 7.54757 14.3519 8.94551 11.9372Z" fill="#E6007A"/>
<path d="M28.1558 22.9987C29.5537 20.5839 29.5454 17.969 28.1372 17.1582C26.7291 16.3473 24.4542 17.6475 23.0563 20.0623C21.6584 22.477 21.6667 25.0919 23.0749 25.9028C24.483 26.7136 26.7578 25.4134 28.1558 22.9987Z" fill="#E6007A"/>
<path d="M8.92598 25.9024C10.3351 25.091 10.3442 22.4756 8.94625 20.0609C7.54831 17.6461 5.27273 16.3464 3.8636 17.1578C2.45446 17.9692 2.44539 20.5845 3.84333 22.9993C5.24127 25.414 7.51685 26.7138 8.92598 25.9024Z" fill="#E6007A"/>
<path d="M28.1385 14.8409C29.5466 14.03 29.5549 11.4151 28.157 9.00037C26.7591 6.58561 24.4843 5.28539 23.0761 6.09626C21.6679 6.90712 21.6596 9.522 23.0575 11.9368C24.4555 14.3515 26.7303 15.6517 28.1385 14.8409Z" fill="#E6007A"/>
</svg>
