<svg width="32" height="32" viewBox="0 0 32 32" fill="none" xmlns="http://www.w3.org/2000/svg">
<ellipse cx="17.3549" cy="15.5" rx="12.6452" ry="12.5" fill="url(#paint0_linear_214_466)"/>
<mask id="mask0_214_466" style="mask-type:alpha" maskUnits="userSpaceOnUse" x="4" y="3" width="26" height="25">
<ellipse cx="17.3549" cy="15.5" rx="12.6452" ry="12.5" fill="#C4C4C4"/>
</mask>
<g mask="url(#mask0_214_466)">
<rect x="18.2581" y="1.21387" width="15.3548" height="15.1786" fill="url(#paint1_linear_214_466)"/>
<path d="M7.41943 12.25C7.41943 10.5931 8.76258 9.25 10.4194 9.25H17.0646C18.7215 9.25 20.0646 10.5931 20.0646 12.25V22.3214C20.0646 23.9783 18.7214 25.3214 17.0646 25.3214H7.41943V12.25Z" fill="black" fill-opacity="0.3"/>
<rect x="2.90332" y="1.21387" width="15.3548" height="15.1786" fill="#EB6C4D"/>
</g>
<rect x="2" y="7.46436" width="16.2581" height="16.0714" rx="2" fill="url(#paint2_linear_214_466)"/>
<path d="M13.742 14.1224C13.742 12.1964 12.4594 11.0356 10.4253 11.0356H7.41943V19.9642H9.28511V17.2474H10.3475C12.2521 17.2474 13.742 16.1759 13.742 14.1224ZM11.8504 14.1606C11.8504 15.028 11.2933 15.5892 10.3864 15.5892H9.28511V12.7066H10.3734C11.2804 12.7066 11.8504 13.1785 11.8504 14.1606Z" fill="white"/>
<defs>
<linearGradient id="paint0_linear_214_466" x1="4.70972" y1="17.2241" x2="30" y2="17.2241" gradientUnits="userSpaceOnUse">
<stop stop-color="#A73A24"/>
<stop offset="1" stop-color="#F75936"/>
</linearGradient>
<linearGradient id="paint1_linear_214_466" x1="30.4516" y1="10.1424" x2="18.2581" y2="10.1424" gradientUnits="userSpaceOnUse">
<stop stop-color="#FDB8A3"/>
<stop offset="1" stop-color="#F1876D"/>
</linearGradient>
<linearGradient id="paint2_linear_214_466" x1="2" y1="16.6084" x2="18.2581" y2="16.6084" gradientUnits="userSpaceOnUse">
<stop stop-color="#A73A24"/>
<stop offset="1" stop-color="#F75936"/>
</linearGradient>
</defs>
</svg>
