<svg width="32" height="32" viewBox="0 0 32 32" fill="none" xmlns="http://www.w3.org/2000/svg">
<path d="M2 12.1333C2 8.58633 2 6.81283 2.69029 5.45806C3.29749 4.26637 4.26637 3.29749 5.45806 2.69029C6.81283 2 8.58633 2 12.1333 2H19.8667C23.4137 2 25.1872 2 26.5419 2.69029C27.7336 3.29749 28.7025 4.26637 29.3097 5.45806C30 6.81283 30 8.58633 30 12.1333V19.8667C30 23.4137 30 25.1872 29.3097 26.5419C28.7025 27.7336 27.7336 28.7025 26.5419 29.3097C25.1872 30 23.4137 30 19.8667 30H12.1333C8.58633 30 6.81283 30 5.45806 29.3097C4.26637 28.7025 3.29749 27.7336 2.69029 26.5419C2 25.1872 2 23.4137 2 19.8667V12.1333Z" fill="#242424"/>
<path d="M9.86663 16.4001C5.96665 19.2705 5.19995 23.4668 5.19995 26.9668C5.37773 25.9224 6.19328 23.4735 8.03328 22.0335C10.7666 19.8943 15.7666 20.599 21.2333 16.9668C26.7 13.3346 27.2333 8.60013 26.5333 4.9668C26.0469 8.47268 24.3872 10.0006 22.1 11.3668C17.1333 14.3335 14.0333 13.3335 9.86663 16.4001Z" fill="url(#paint0_linear_214_685)"/>
<path d="M9.86663 16.4001C5.96665 19.2705 5.19995 23.4668 5.19995 26.9668C5.37773 25.9224 6.19328 23.4735 8.03328 22.0335C10.7666 19.8943 15.7666 20.599 21.2333 16.9668C26.7 13.3346 27.2333 8.60013 26.5333 4.9668C26.0469 8.47268 24.3872 10.0006 22.1 11.3668C17.1333 14.3335 14.0333 13.3335 9.86663 16.4001Z" fill="url(#paint1_linear_214_685)"/>
<path d="M5.24658 25.5318C5.46059 22.3694 6.48746 18.8869 9.8666 16.3999C12.0388 14.8011 13.9211 14.3076 15.929 13.7812C17.1009 13.474 18.3155 13.1555 19.6555 12.5996C19.1666 13.0665 16.8435 14.1565 15.0912 14.8848C13.3435 15.6112 11.5008 16.377 9.96662 17.3999C6.88843 19.452 5.63681 23.0224 5.24658 25.5318Z" fill="url(#paint2_linear_214_685)"/>
<path d="M5.24658 25.5318C5.46059 22.3694 6.48746 18.8869 9.8666 16.3999C12.0388 14.8011 13.9211 14.3076 15.929 13.7812C17.1009 13.474 18.3155 13.1555 19.6555 12.5996C19.1666 13.0665 16.8435 14.1565 15.0912 14.8848C13.3435 15.6112 11.5008 16.377 9.96662 17.3999C6.88843 19.452 5.63681 23.0224 5.24658 25.5318Z" fill="url(#paint3_linear_214_685)"/>
<path d="M24.2177 14.3711C23.8344 14.7466 23.407 15.0827 22.9333 15.3669C20.8 16.6469 18.5324 17.0597 16.326 17.4614C14.5678 17.7814 12.8484 18.0945 11.2667 18.8336C7.70023 20.5001 5.50028 23.9665 5.20005 26.9663C5.20003 26.9664 5.20001 26.9666 5.19999 26.9667C5.19998 26.9662 5.19996 26.9656 5.19995 26.9651C5.19997 26.7361 5.20327 26.5041 5.21052 26.2698C5.22869 25.8979 5.26713 25.4859 5.33074 25.0465C5.80158 22.5794 7.08215 19.3232 9.96665 17.4002C11.1877 16.5862 12.6042 15.9349 14.0126 15.3368C15.2513 14.9301 16.3676 14.677 17.4312 14.4359C19.1055 14.0563 20.6491 13.7063 22.3333 12.8336C25.8674 11.0023 26.7933 7.23905 26.5444 5.02539C27.0728 7.83027 26.8592 11.2802 24.2177 14.3711Z" fill="url(#paint4_linear_214_685)"/>
<path d="M24.2176 14.3711C23.8343 14.7465 23.407 15.0826 22.9334 15.3668C20.8 16.6468 18.5325 17.0596 16.3261 17.4613C14.5678 17.7813 12.8484 18.0943 11.2667 18.8335C9.21563 19.7919 7.61653 21.3456 6.5708 23.0635C7.49349 21.767 8.89913 20.3186 10.6334 19.7668C12.3256 19.2284 13.9397 19.1727 15.6167 19.1149C16.0973 19.0984 16.5831 19.0816 17.0773 19.0533C18.4094 18.5684 19.8055 17.9155 21.2333 16.9668C22.4641 16.1491 23.4448 15.2754 24.2176 14.3711Z" fill="url(#paint5_linear_214_685)"/>
<path d="M24.2176 14.3711C23.8343 14.7465 23.407 15.0826 22.9334 15.3668C20.8 16.6468 18.5325 17.0596 16.3261 17.4613C14.5678 17.7813 12.8484 18.0943 11.2667 18.8335C9.21563 19.7919 7.61653 21.3456 6.5708 23.0635C7.49349 21.767 8.89913 20.3186 10.6334 19.7668C12.3256 19.2284 13.9397 19.1727 15.6167 19.1149C16.0973 19.0984 16.5831 19.0816 17.0773 19.0533C18.4094 18.5684 19.8055 17.9155 21.2333 16.9668C22.4641 16.1491 23.4448 15.2754 24.2176 14.3711Z" fill="url(#paint6_linear_214_685)"/>
<path d="M26.5445 5.02527C26.5408 5.00575 26.5371 4.98626 26.5333 4.9668C26.047 8.47268 24.3872 10.0006 22.1 11.3668C21.2336 11.8843 20.4239 12.2812 19.6555 12.5999C19.1665 13.0669 16.8435 14.1568 15.0912 14.8851L15.091 14.8852C14.7344 15.0334 14.3738 15.1833 14.0127 15.3366C15.2513 14.93 16.3677 14.6769 17.4313 14.4357C19.1055 14.0562 20.6491 13.7062 22.3333 12.8335C25.8674 11.0022 26.7933 7.23893 26.5445 5.02527Z" fill="url(#paint7_linear_214_685)"/>
<path d="M26.5445 5.02527C26.5408 5.00575 26.5371 4.98626 26.5333 4.9668C26.047 8.47268 24.3872 10.0006 22.1 11.3668C21.2336 11.8843 20.4239 12.2812 19.6555 12.5999C19.1665 13.0669 16.8435 14.1568 15.0912 14.8851L15.091 14.8852C14.7344 15.0334 14.3738 15.1833 14.0127 15.3366C15.2513 14.93 16.3677 14.6769 17.4313 14.4357C19.1055 14.0562 20.6491 13.7062 22.3333 12.8335C25.8674 11.0022 26.7933 7.23893 26.5445 5.02527Z" fill="url(#paint8_linear_214_685)"/>
<defs>
<linearGradient id="paint0_linear_214_685" x1="17.4" y1="18.2001" x2="5.86662" y2="26.4668" gradientUnits="userSpaceOnUse">
<stop stop-color="#FE5004"/>
<stop offset="0.602538" stop-color="#FFB915"/>
<stop offset="1" stop-color="#FFFC41"/>
</linearGradient>
<linearGradient id="paint1_linear_214_685" x1="12.8333" y1="18.9001" x2="12.9" y2="20.1001" gradientUnits="userSpaceOnUse">
<stop stop-color="#FD3E00"/>
<stop offset="1" stop-color="#FD4400" stop-opacity="0"/>
</linearGradient>
<linearGradient id="paint2_linear_214_685" x1="19.6666" y1="11.9999" x2="3.39993" y2="26.4665" gradientUnits="userSpaceOnUse">
<stop stop-color="#005FC6"/>
<stop offset="0.279756" stop-color="#23A4DF"/>
<stop offset="0.465158" stop-color="#3AC2B7"/>
<stop offset="0.640642" stop-color="#60EC7A"/>
<stop offset="0.818668" stop-color="#CFFDBD"/>
<stop offset="1" stop-color="#D0FCB6"/>
</linearGradient>
<linearGradient id="paint3_linear_214_685" x1="16.3666" y1="14.7665" x2="14.9666" y2="13.4999" gradientUnits="userSpaceOnUse">
<stop stop-color="#0061CB"/>
<stop offset="1" stop-color="#067EEA" stop-opacity="0"/>
</linearGradient>
<linearGradient id="paint4_linear_214_685" x1="26.6" y1="5.00025" x2="5.19995" y2="26.9336" gradientUnits="userSpaceOnUse">
<stop stop-color="#8E55F1"/>
<stop offset="0.140795" stop-color="#8B48DF"/>
<stop offset="0.274905" stop-color="#E04DD9"/>
<stop offset="0.492309" stop-color="#F496C8"/>
<stop offset="0.633104" stop-color="#FAD2BA"/>
<stop offset="0.856964" stop-color="#FEF7E5"/>
<stop offset="1" stop-color="#FFF5BF"/>
</linearGradient>
<linearGradient id="paint5_linear_214_685" x1="24.5" y1="14.1668" x2="7.0333" y2="22.0668" gradientUnits="userSpaceOnUse">
<stop stop-color="#F41A73"/>
<stop offset="0.399909" stop-color="#FC50A3"/>
<stop offset="0.584511" stop-color="#FE9485"/>
<stop offset="0.703104" stop-color="#FFAF88"/>
<stop offset="1" stop-color="#FFC385"/>
</linearGradient>
<linearGradient id="paint6_linear_214_685" x1="18.2" y1="16.6001" x2="18.2333" y2="18.2001" gradientUnits="userSpaceOnUse">
<stop stop-color="#9B0008"/>
<stop offset="1" stop-color="#EA115A" stop-opacity="0"/>
</linearGradient>
<linearGradient id="paint7_linear_214_685" x1="26.6" y1="6.80013" x2="10.8333" y2="17.1001" gradientUnits="userSpaceOnUse">
<stop stop-color="#231283"/>
<stop offset="0.362865" stop-color="#7053C6"/>
<stop offset="0.466353" stop-color="#7272DB"/>
<stop offset="0.634311" stop-color="#399EE9"/>
<stop offset="1" stop-color="#00CFFF"/>
</linearGradient>
<linearGradient id="paint8_linear_214_685" x1="22.6667" y1="12.0001" x2="23.3667" y2="12.9001" gradientUnits="userSpaceOnUse">
<stop stop-color="#3F259D" stop-opacity="0"/>
<stop offset="1" stop-color="#412DAA"/>
</linearGradient>
</defs>
</svg>
