<svg width="32" height="32" viewBox="0 0 32 32" fill="none" xmlns="http://www.w3.org/2000/svg">
<path fill-rule="evenodd" clip-rule="evenodd" d="M18.3749 26.5391C17.3014 26.8394 16.1694 27 15 27C8.09644 27 2.5 21.4036 2.5 14.5C2.5 7.59644 8.09644 2 15 2C21.9036 2 27.5 7.59644 27.5 14.5C27.5 18.4441 25.6733 21.9615 22.8199 24.2525C23.6059 25.2448 24.5179 26.0132 25.5149 26.0132C27.1591 26.0132 27.6539 24.6898 27.6957 24.0281H29.5C29.5 27.5309 27.4054 29.8792 23.962 29.9909C22.7483 30.0303 20.7146 30.0962 18.3749 26.5391ZM17.2747 24.6258C16.6152 24.8697 15.8609 25 15 25C9.82902 25 8.5 20.299 8.5 14.5C8.5 8.70101 9.83023 4 15 4C20.1698 4 21.5 8.70101 21.5 14.5C21.5 16.8536 21.2811 19.0263 20.6752 20.7773C19.6957 19.0543 18.1501 17 15.301 17C12.9287 17 11.1119 17.9712 10.5 18.4568L11.2531 19.9617C11.4623 19.8923 11.9905 19.7536 12.4298 19.7536C12.9789 19.7536 14.9244 19.5775 16.8072 23.6599C16.9639 23.9996 17.1198 24.3212 17.2747 24.6258Z" fill="#B72D2C"/>
</svg>
