<svg width="32" height="32" viewBox="0 0 32 32" fill="none" xmlns="http://www.w3.org/2000/svg">
<path d="M25.0216 11.603C24.7312 11.5026 24.4302 11.4077 24.1203 11.3179C24.1712 11.1093 24.218 10.9034 24.2595 10.701C24.9418 7.3773 24.4957 4.69972 22.9724 3.81814C21.5117 2.97283 19.1228 3.8542 16.7102 5.96126C16.4782 6.16387 16.2455 6.37839 16.013 6.60321C15.858 6.45446 15.7033 6.31072 15.549 6.17323C13.0205 3.92022 10.486 2.97078 8.96419 3.8549C7.50489 4.70267 7.07273 7.21985 7.6869 10.3697C7.74621 10.674 7.81554 10.9847 7.89393 11.3006C7.53524 11.4028 7.18895 11.5117 6.85762 11.6276C3.89321 12.6647 2 14.2903 2 15.9763C2 17.7177 4.03236 19.4644 7.12002 20.5234C7.36369 20.607 7.61653 20.686 7.87709 20.7611C7.79251 21.1027 7.71895 21.4375 7.6572 21.7641C7.07158 24.8593 7.52891 27.317 8.98433 28.1594C10.4876 29.0294 13.0106 28.1352 15.4674 25.9801C15.6615 25.8097 15.8564 25.6291 16.0516 25.4397C16.3047 25.6843 16.5573 25.9157 16.8086 26.1327C19.1882 28.1877 21.5385 29.0175 22.9926 28.1728C24.4944 27.3003 24.9825 24.6601 24.3488 21.4479C24.3004 21.2026 24.2441 20.952 24.1809 20.6969C24.3581 20.6443 24.532 20.5901 24.7016 20.5336C27.9115 19.4664 30 17.741 30 15.9763C30 14.2842 28.0457 12.6477 25.0216 11.603ZM24.3254 19.3942C24.1723 19.4451 24.0152 19.4943 23.8551 19.5419C23.5008 18.4161 23.0225 17.219 22.4372 15.9822C22.9957 14.7748 23.4555 13.593 23.8 12.4745C24.0864 12.5577 24.3644 12.6454 24.6323 12.738C27.2233 13.6331 28.8039 14.9566 28.8039 15.9763C28.8039 17.0626 27.0969 18.4727 24.3254 19.3942ZM23.1754 21.6811C23.4556 23.1014 23.4956 24.3857 23.31 25.3896C23.1433 26.2916 22.8079 26.8931 22.3932 27.134C21.5108 27.6465 19.6238 26.9803 17.5887 25.2228C17.3554 25.0213 17.1204 24.8062 16.8847 24.5786C17.6736 23.7126 18.4621 22.706 19.2317 21.588C20.5853 21.4674 21.8641 21.2704 23.0238 21.0013C23.081 21.2326 23.1317 21.4593 23.1754 21.6811ZM11.5458 27.0454C10.6837 27.3509 9.99707 27.3597 9.582 27.1195C8.69879 26.6083 8.33163 24.635 8.83246 21.988C8.88983 21.6848 8.95811 21.3734 9.03681 21.0551C10.1838 21.3096 11.4533 21.4928 12.8101 21.6032C13.5849 22.6972 14.3962 23.7027 15.2137 24.5832C15.0351 24.7563 14.8572 24.921 14.6802 25.0763C13.5939 26.0292 12.5052 26.7053 11.5458 27.0454ZM7.50688 19.3876C6.14157 18.9193 5.01405 18.3107 4.24119 17.6465C3.54672 17.0497 3.1961 16.4571 3.1961 15.9763C3.1961 14.9532 4.71616 13.6481 7.25135 12.7611C7.55896 12.6534 7.88098 12.552 8.21515 12.4567C8.56552 13.6005 9.02514 14.7963 9.57981 16.0055C9.01797 17.2327 8.55182 18.4476 8.19801 19.6048C7.95977 19.536 7.72896 19.4637 7.50688 19.3876ZM8.86077 10.1392C8.33457 7.44047 8.68404 5.40464 9.56346 4.89378C10.5002 4.34956 12.5716 5.1255 14.7548 7.07086C14.8943 7.19519 15.0344 7.32533 15.1749 7.45998C14.3614 8.3366 13.5575 9.33461 12.7896 10.4221C11.4728 10.5446 10.2122 10.7414 9.05325 11.0049C8.98039 10.7107 8.91585 10.4217 8.86077 10.1392ZM20.9387 13.1321C20.6616 12.6518 20.3772 12.1829 20.0872 11.7269C20.9806 11.8402 21.8366 11.9906 22.6404 12.1747C22.3991 12.9509 22.0983 13.7624 21.7442 14.5943C21.4902 14.1104 21.2216 13.6225 20.9387 13.1321ZM16.0134 8.31784C16.5651 8.91768 17.1176 9.58739 17.6611 10.314C17.1134 10.2881 16.559 10.2746 16 10.2746C15.4463 10.2746 14.896 10.2878 14.3517 10.3133C14.8957 9.59339 15.453 8.92458 16.0134 8.31784ZM11.0565 13.1404C10.7797 13.622 10.516 14.1072 10.2661 14.5934C9.91772 13.7644 9.61973 12.9492 9.37631 12.162C10.1752 11.9826 11.0271 11.8359 11.9148 11.7248C11.6207 12.185 11.334 12.6574 11.0565 13.1403V13.1404ZM11.9404 20.3135C11.0232 20.2108 10.1585 20.0717 9.35982 19.8973C9.60712 19.0961 9.91169 18.2634 10.2674 17.4166C10.518 17.9024 10.7827 18.3878 11.0612 18.8705H11.0612C11.3449 19.3622 11.6387 19.8438 11.9404 20.3135ZM16.0465 23.7194C15.4795 23.1056 14.914 22.4266 14.3618 21.6962C14.8979 21.7173 15.4445 21.7281 16 21.7281C16.5707 21.7281 17.1349 21.7152 17.6902 21.6904C17.145 22.4339 16.5944 23.114 16.0465 23.7194ZM21.7556 17.3734C22.1299 18.2294 22.4454 19.0577 22.6959 19.8452C21.884 20.0311 21.0075 20.1808 20.084 20.292C20.3746 19.8298 20.6616 19.3528 20.9435 18.8622C21.2287 18.3659 21.4996 17.8688 21.7556 17.3734ZM19.9074 18.2625C19.4697 19.0241 19.0203 19.7512 18.5641 20.4374C17.7333 20.497 16.8749 20.5277 16 20.5277C15.1287 20.5277 14.2811 20.5006 13.4649 20.4474C12.9903 19.7522 12.5312 19.023 12.0963 18.2691H12.0964C11.6627 17.5173 11.2634 16.7591 10.9017 16.0051C11.2633 15.2495 11.6615 14.4904 12.0928 13.7399L12.0927 13.7401C12.5251 12.9876 12.9802 12.262 13.4504 11.5711C14.2831 11.5079 15.137 11.4749 16 11.4749H16C16.8669 11.4749 17.7219 11.5081 18.5543 11.5719C19.0173 12.2577 19.4693 12.981 19.9034 13.7336C20.3425 14.4946 20.7458 15.2486 21.1105 15.9881C20.7469 16.7403 20.3445 17.5019 19.9074 18.2625ZM22.3749 4.85807C23.3125 5.40068 23.6771 7.58907 23.088 10.4587C23.0505 10.6418 23.0082 10.8283 22.9622 11.0173C21.8005 10.7484 20.5391 10.5482 19.2184 10.4239C18.449 9.32436 17.6517 8.3248 16.8515 7.45943C17.0666 7.25171 17.2815 7.05365 17.4954 6.86674C19.5626 5.06143 21.4946 4.34866 22.3749 4.85807ZM16 13.4672C17.3809 13.4672 18.5003 14.5905 18.5003 15.9763C18.5003 17.3621 17.3809 18.4855 16 18.4855C14.6191 18.4855 13.4997 17.3621 13.4997 15.9763C13.4997 14.5905 14.6191 13.4672 16 13.4672Z" fill="#00D8FF"/>
</svg>
