<svg width="32" height="24" viewBox="0 0 32 24" fill="none" xmlns="http://www.w3.org/2000/svg">
<rect width="32" height="24" rx="4" fill="black"/>
<path d="M19.8722 11.1849C19.4338 10.7898 18.9045 10.5967 18.2927 10.5967C17.6892 10.5967 17.1599 10.79 16.7213 11.1849C16.2829 11.5714 16.0601 12.1093 16.0601 12.7985C16.0601 13.4876 16.2829 14.0251 16.7213 14.4201C17.1597 14.8066 17.6892 15 18.2927 15C18.9045 15 19.4338 14.8066 19.8722 14.4201C20.3189 14.0251 20.5418 13.4874 20.5418 12.7985C20.5418 12.1095 20.3187 11.5714 19.8722 11.1849ZM17.4661 13.6805C17.2349 13.4538 17.1184 13.1595 17.1184 12.7982C17.1184 12.437 17.2339 12.1429 17.4661 11.9243C17.5738 11.8153 17.7026 11.7293 17.8446 11.6715C17.9867 11.6137 18.1391 11.5854 18.2925 11.5883C18.4471 11.5854 18.6008 11.6136 18.7443 11.6714C18.8877 11.7291 19.0181 11.8151 19.1274 11.9243C19.3667 12.1429 19.4832 12.4367 19.4832 12.7982C19.4832 13.1597 19.3677 13.4536 19.1274 13.6805C18.8962 13.8989 18.6148 14.0082 18.2925 14.0082C18.1399 14.0106 17.9883 13.9829 17.8465 13.9267C17.7046 13.8704 17.5754 13.7868 17.4661 13.6805ZM22.1056 14.8821V9.11592H21.0637V14.8821H22.1056ZM25.4683 10.7143V13.0151C25.4683 13.5695 25.1734 13.9371 24.6122 13.9371C24.0413 13.9371 23.7543 13.57 23.7543 13.0151V10.7143H22.7105V13.1916C22.7105 14.1513 23.3059 14.9998 24.6122 14.9998H24.6203C25.9184 14.9998 26.5128 14.1324 26.5128 13.1916V10.7143H25.4683ZM14.9514 10.7143L13.9095 13.5376L12.8677 10.7143H11.7597L13.4223 14.8824H14.3983L16.0606 10.7143H14.9514ZM11.7646 12.6806C11.7646 12.0757 11.5747 11.5799 11.2024 11.1849C10.8302 10.7898 10.3512 10.5967 9.76397 10.5967C9.16047 10.5967 8.64741 10.807 8.22575 11.2184C7.81196 11.6304 7.6058 12.1512 7.6058 12.7982C7.6058 13.4452 7.81245 13.9748 8.21764 14.3863C8.63144 14.7983 9.12755 14.9998 9.71458 14.9998C10.6164 14.9998 11.2528 14.5964 11.6408 13.7812L10.8638 13.3273C10.608 13.8398 10.2353 14.092 9.73104 14.092C9.11108 14.092 8.67272 13.6886 8.60637 13.0502H11.7644V12.6803L11.7646 12.6806ZM9.7303 11.4032C10.3173 11.4032 10.7063 11.7392 10.8053 12.2772H8.60588C8.76339 11.7814 9.19291 11.4032 9.73055 11.4032H9.7303ZM7.60555 14.8821L6.20764 12.3951C7.09199 12.0674 7.53036 11.4961 7.53036 10.6641C7.53134 9.64725 6.73693 9 5.47195 9H3V14.8821H4.09149V12.4958H5.01786L6.35704 14.8824L7.60555 14.8821ZM5.47195 9.97468C6.11697 9.97468 6.4396 10.2352 6.4396 10.7477C6.4396 11.2601 6.11673 11.5206 5.47195 11.5206H4.09149V9.97468H5.47195ZM28.2791 14.9998C27.6085 14.9998 27.0647 14.4469 27.0647 13.7646V9.58819H28.1066V10.7158H29V11.5728H28.1066V13.6964C28.1066 13.8964 28.266 14.0584 28.4631 14.0584H29V14.9998H28.2791Z" fill="white"/>
</svg>
