<svg width="32" height="32" viewBox="0 0 32 32" fill="none" xmlns="http://www.w3.org/2000/svg">
<path d="M25.8983 4.39917H29.9452L21.5233 12.7426C18.4734 15.7625 13.5285 15.7625 10.4764 12.7426L2.05127 4.39917H6.10143L12.4999 10.7372C13.4321 11.6565 14.6885 12.1718 15.9974 12.1718C17.3063 12.1718 18.5627 11.6565 19.4949 10.7372L25.8983 4.39917Z" fill="#23292F"/>
<path d="M6.04961 27.599H2L10.4766 19.2041C13.5265 16.1842 18.4713 16.1842 21.5234 19.2041L30 27.599H25.9531L19.5 21.2096C18.5678 20.2902 17.3114 19.7749 16.0025 19.7749C14.6935 19.7749 13.4372 20.2902 12.5049 21.2096L6.04961 27.599Z" fill="#23292F"/>
</svg>
