<svg width="32" height="32" viewBox="0 0 32 32" fill="none" xmlns="http://www.w3.org/2000/svg">
<path fill-rule="evenodd" clip-rule="evenodd" d="M22.5939 19.8407L8.89136 27.9998L26.6335 26.7925L28 8.85254L22.5939 19.8407Z" fill="url(#paint0_linear_214_1240)"/>
<path fill-rule="evenodd" clip-rule="evenodd" d="M26.6626 26.7804L25.1376 16.2258L20.9839 21.726L26.6626 26.7804Z" fill="url(#paint1_linear_214_1240)"/>
<path fill-rule="evenodd" clip-rule="evenodd" d="M26.6832 26.7803L15.5112 25.9009L8.95068 27.9769L26.6832 26.7803Z" fill="url(#paint2_linear_214_1240)"/>
<path fill-rule="evenodd" clip-rule="evenodd" d="M8.96649 27.9793L11.7574 18.8108L5.61597 20.1276L8.96649 27.9793Z" fill="url(#paint3_linear_214_1240)"/>
<path fill-rule="evenodd" clip-rule="evenodd" d="M27.4173 11.8117L20.4704 6.12207L18.5359 12.3936L27.4173 11.8117Z" fill="url(#paint4_linear_214_1240)"/>
<path fill-rule="evenodd" clip-rule="evenodd" d="M24.1686 4.09336L20.0828 6.35755L17.5051 4.06299L24.1686 4.09336Z" fill="url(#paint5_linear_214_1240)"/>
<path fill-rule="evenodd" clip-rule="evenodd" d="M4 23.2031L5.7116 20.0729L4.32706 16.3438L4 23.2031Z" fill="url(#paint6_linear_214_1240)"/>
<path fill-rule="evenodd" clip-rule="evenodd" d="M4.23511 16.2259L5.62813 20.1883L11.6811 18.8265L18.5917 12.3862L20.542 6.17431L17.4711 4L12.2503 5.95931C10.6055 7.49347 7.41363 10.529 7.29855 10.5861C7.18469 10.6444 5.19084 14.4233 4.23511 16.2259Z" fill="white"/>
<path d="M11.7222 18.7882L18.5916 12.3863L18.5946 12.3765L20.9827 21.7566L11.7222 18.7882Z" fill="url(#paint7_linear_214_1240)"/>
<path fill-rule="evenodd" clip-rule="evenodd" d="M9.12643 9.10774C12.6914 5.56325 17.2871 3.46911 19.0508 5.2535C20.8134 7.03789 18.9442 11.3744 15.3793 14.9176C11.8144 18.4609 7.27553 20.6705 5.51305 18.8861C3.74936 17.1029 5.5615 12.651 9.12643 9.10774Z" fill="url(#paint8_linear_214_1240)"/>
<path fill-rule="evenodd" clip-rule="evenodd" d="M8.96655 27.9758L11.7356 18.7781L20.932 21.7407C17.6069 24.8674 13.9088 27.5105 8.96655 27.9758Z" fill="url(#paint9_linear_214_1240)"/>
<path fill-rule="evenodd" clip-rule="evenodd" d="M18.6038 12.3679L20.9646 21.7454C23.7422 18.8167 26.2351 15.6682 27.456 11.7739L18.6038 12.3679Z" fill="url(#paint10_linear_214_1240)"/>
<path fill-rule="evenodd" clip-rule="evenodd" d="M27.4319 11.8214C28.3768 8.96204 28.5948 4.86 24.1394 4.09839L20.4836 6.12329L27.4319 11.8214Z" fill="url(#paint11_linear_214_1240)"/>
<path fill-rule="evenodd" clip-rule="evenodd" d="M4 23.162C4.13082 27.8812 7.52617 27.9515 8.97249 27.9929L5.63166 20.1689L4 23.162Z" fill="#9E1209"/>
<path fill-rule="evenodd" clip-rule="evenodd" d="M18.6169 12.3826C20.7513 13.6981 25.0528 16.3401 25.1401 16.3887C25.2756 16.4652 26.9946 13.4819 27.3846 11.7959L18.6169 12.3826Z" fill="url(#paint12_radial_214_1240)"/>
<path fill-rule="evenodd" clip-rule="evenodd" d="M11.7319 18.7781L15.4337 25.9399C17.6226 24.7495 19.3366 23.2992 20.9065 21.7456L11.7319 18.7781Z" fill="url(#paint13_radial_214_1240)"/>
<path fill-rule="evenodd" clip-rule="evenodd" d="M5.61703 20.1786L5.09253 26.4416C6.08218 27.7972 7.44371 27.915 8.87187 27.8093C7.83861 25.2305 5.77451 20.0741 5.61703 20.1786Z" fill="url(#paint14_linear_214_1240)"/>
<path fill-rule="evenodd" clip-rule="evenodd" d="M20.4619 6.13906L27.8159 7.17398C27.4234 5.5062 26.2181 4.42998 24.1637 4.09351L20.4619 6.13906Z" fill="url(#paint15_linear_214_1240)"/>
<defs>
<linearGradient id="paint0_linear_214_1240" x1="25.086" y1="30.1825" x2="20.0017" y2="21.2307" gradientUnits="userSpaceOnUse">
<stop stop-color="#FB7655"/>
<stop offset="0.41" stop-color="#E42B1E"/>
<stop offset="0.99" stop-color="#990000"/>
<stop offset="1" stop-color="#990000"/>
</linearGradient>
<linearGradient id="paint1_linear_214_1240" x1="27.6081" y1="22.6525" x2="21.0718" y2="18.2784" gradientUnits="userSpaceOnUse">
<stop stop-color="#871101"/>
<stop offset="0.99" stop-color="#911209"/>
<stop offset="1" stop-color="#911209"/>
</linearGradient>
<linearGradient id="paint2_linear_214_1240" x1="22.3874" y1="30.4542" x2="15.8512" y2="26.0802" gradientUnits="userSpaceOnUse">
<stop stop-color="#871101"/>
<stop offset="0.99" stop-color="#911209"/>
<stop offset="1" stop-color="#911209"/>
</linearGradient>
<linearGradient id="paint3_linear_214_1240" x1="8.68744" y1="19.4741" x2="9.70448" y2="26.0655" gradientUnits="userSpaceOnUse">
<stop stop-color="white"/>
<stop offset="0.23" stop-color="#E57252"/>
<stop offset="0.46" stop-color="#DE3B20"/>
<stop offset="0.99" stop-color="#A60003"/>
<stop offset="1" stop-color="#A60003"/>
</linearGradient>
<linearGradient id="paint4_linear_214_1240" x1="21.8189" y1="7.10002" x2="22.9406" y2="11.9204" gradientUnits="userSpaceOnUse">
<stop stop-color="white"/>
<stop offset="0.18" stop-color="#E46342"/>
<stop offset="0.4" stop-color="#C82410"/>
<stop offset="0.99" stop-color="#A80D00"/>
<stop offset="1" stop-color="#A80D00"/>
</linearGradient>
<linearGradient id="paint5_linear_214_1240" x1="18.4119" y1="5.40177" x2="23.2253" y2="3.00175" gradientUnits="userSpaceOnUse">
<stop stop-color="white"/>
<stop offset="0.54" stop-color="#C81F11"/>
<stop offset="0.99" stop-color="#BF0905"/>
<stop offset="1" stop-color="#BF0905"/>
</linearGradient>
<linearGradient id="paint6_linear_214_1240" x1="4.47282" y1="17.7935" x2="4.87073" y2="21.7663" gradientUnits="userSpaceOnUse">
<stop stop-color="white"/>
<stop offset="0.31" stop-color="#DE4024"/>
<stop offset="0.99" stop-color="#BF190B"/>
<stop offset="1" stop-color="#BF190B"/>
</linearGradient>
<linearGradient id="paint7_linear_214_1240" x1="15.6447" y1="13.3187" x2="16.0195" y2="20.0464" gradientUnits="userSpaceOnUse">
<stop stop-color="white"/>
<stop offset="0.23" stop-color="#E4714E"/>
<stop offset="0.56" stop-color="#BE1A0D"/>
<stop offset="0.99" stop-color="#A80D00"/>
<stop offset="1" stop-color="#A80D00"/>
</linearGradient>
<linearGradient id="paint8_linear_214_1240" x1="1.7524" y1="22.8404" x2="20.408" y2="3.71053" gradientUnits="userSpaceOnUse">
<stop stop-color="#BD0012"/>
<stop offset="0.07" stop-color="white"/>
<stop offset="0.17" stop-color="white"/>
<stop offset="0.27" stop-color="#C82F1C"/>
<stop offset="0.33" stop-color="#820C01"/>
<stop offset="0.46" stop-color="#A31601"/>
<stop offset="0.72" stop-color="#B31301"/>
<stop offset="0.99" stop-color="#E82609"/>
<stop offset="1" stop-color="#E82609"/>
</linearGradient>
<linearGradient id="paint9_linear_214_1240" x1="16.0013" y1="24.7754" x2="10.3963" y2="23.3959" gradientUnits="userSpaceOnUse">
<stop stop-color="#8C0C01"/>
<stop offset="0.54" stop-color="#990C00"/>
<stop offset="0.99" stop-color="#A80D0E"/>
<stop offset="1" stop-color="#A80D0E"/>
</linearGradient>
<linearGradient id="paint10_linear_214_1240" x1="25.6253" y1="18.0314" x2="20.6353" y2="13.5714" gradientUnits="userSpaceOnUse">
<stop stop-color="#7E110B"/>
<stop offset="0.99" stop-color="#9E0C00"/>
<stop offset="1" stop-color="#9E0C00"/>
</linearGradient>
<linearGradient id="paint11_linear_214_1240" x1="27.4541" y1="9.8229" x2="24.9673" y2="7.17165" gradientUnits="userSpaceOnUse">
<stop stop-color="#79130D"/>
<stop offset="0.99" stop-color="#9E120B"/>
<stop offset="1" stop-color="#9E120B"/>
</linearGradient>
<radialGradient id="paint12_radial_214_1240" cx="0" cy="0" r="1" gradientUnits="userSpaceOnUse" gradientTransform="translate(21.4227 13.6432) scale(6.09995 6.11692)">
<stop stop-color="#A80D00"/>
<stop offset="0.99" stop-color="#7E0E08"/>
<stop offset="1" stop-color="#7E0E08"/>
</radialGradient>
<radialGradient id="paint13_radial_214_1240" cx="0" cy="0" r="1" gradientUnits="userSpaceOnUse" gradientTransform="translate(12.975 21.7044) scale(8.10906 8.13164)">
<stop stop-color="#A30C00"/>
<stop offset="0.99" stop-color="#800E08"/>
<stop offset="1" stop-color="#800E08"/>
</radialGradient>
<linearGradient id="paint14_linear_214_1240" x1="7.23051" y1="27.9704" x2="5.19951" y2="21.099" gradientUnits="userSpaceOnUse">
<stop stop-color="#8B2114"/>
<stop offset="0.43" stop-color="#9E100A"/>
<stop offset="0.99" stop-color="#B3100C"/>
<stop offset="1" stop-color="#B3100C"/>
</linearGradient>
<linearGradient id="paint15_linear_214_1240" x1="22.7321" y1="5.19012" x2="27.2663" y2="7.18603" gradientUnits="userSpaceOnUse">
<stop stop-color="#B31000"/>
<stop offset="0.44" stop-color="#910F08"/>
<stop offset="0.99" stop-color="#791C12"/>
<stop offset="1" stop-color="#791C12"/>
</linearGradient>
</defs>
</svg>
