<svg width="32" height="32" viewBox="0 0 32 32" fill="none" xmlns="http://www.w3.org/2000/svg">
<path d="M30 16C30 17.8385 29.6379 19.659 28.9343 21.3576C28.2307 23.0561 27.1995 24.5995 25.8995 25.8995C24.5995 27.1995 23.0561 28.2308 21.3576 28.9343C19.659 29.6379 17.8385 30 16 30C12.287 30 8.72601 28.525 6.1005 25.8995C3.47499 23.274 2 19.713 2 16C2 12.287 3.47499 8.72602 6.1005 6.10051C8.72601 3.475 12.287 2 16 2C17.8385 2 19.659 2.36212 21.3576 3.06569C23.0561 3.76925 24.5995 4.80049 25.8995 6.10051C27.1995 7.40053 28.2307 8.94387 28.9343 10.6424C29.6379 12.341 30 14.1615 30 16Z" fill="url(#paint0_linear_214_1389)"/>
<path d="M28.9031 15.9999C28.9031 19.422 27.5437 22.7039 25.1239 25.1237C22.7041 27.5434 19.4222 28.9029 16.0001 28.9029C12.5781 28.9029 9.29614 27.5434 6.87636 25.1237C4.45658 22.7039 3.09717 19.422 3.09717 15.9999C3.09717 12.5778 4.45658 9.29589 6.87636 6.87612C9.29614 4.45634 12.5781 3.09692 16.0001 3.09692C19.4222 3.09692 22.7041 4.45634 25.1239 6.87612C27.5437 9.29589 28.9031 12.5778 28.9031 15.9999Z" fill="url(#paint1_radial_214_1389)"/>
<path d="M16 3.76978C15.8958 3.76978 15.8119 3.85367 15.8119 3.9579V6.12779C15.8119 6.23201 15.8958 6.31591 16 6.31591C16.1042 6.31591 16.1881 6.23201 16.1881 6.12779V3.9579C16.1881 3.85367 16.1042 3.76978 16 3.76978ZM14.7693 3.84756C14.7569 3.84622 14.744 3.84622 14.7311 3.84771C14.6274 3.85853 14.5527 3.95069 14.5635 4.05435L14.6583 4.96213C14.6691 5.06579 14.7613 5.14054 14.865 5.12971C14.9686 5.1189 15.0434 5.02674 15.0325 4.92308L14.9378 4.0153C14.9283 3.92459 14.8566 3.85603 14.7693 3.84756ZM17.2393 3.84845C17.1521 3.85685 17.0803 3.92542 17.0707 4.01611L16.9753 4.92382C16.9644 5.02747 17.0391 5.11971 17.1428 5.13061C17.2464 5.14152 17.3386 5.06684 17.3495 4.96319L17.445 4.0554C17.4559 3.95175 17.3811 3.85959 17.2775 3.84869C17.2645 3.84735 17.2518 3.84734 17.2393 3.84845ZM13.5051 4.03089C13.4926 4.03098 13.4799 4.03223 13.4671 4.03491C13.3652 4.0565 13.3004 4.15598 13.322 4.25794L13.7714 6.38075C13.793 6.48271 13.8925 6.54742 13.9944 6.52583C14.0964 6.50425 14.1611 6.40484 14.1395 6.30288L13.6902 4.18C13.6712 4.09078 13.5927 4.0302 13.5051 4.03089ZM18.5034 4.03267C18.4158 4.03178 18.3373 4.09254 18.3183 4.18174L17.8674 6.30429C17.8457 6.40624 17.9104 6.50575 18.0123 6.52741C18.1143 6.54908 18.2138 6.48441 18.2354 6.38248L18.6864 4.25992C18.708 4.15797 18.6434 4.05846 18.5414 4.03681C18.5287 4.03413 18.5159 4.03267 18.5034 4.03267ZM12.2986 4.37107C12.2743 4.36884 12.2491 4.37152 12.2243 4.37974C12.1252 4.41197 12.0713 4.51762 12.1035 4.61674L12.3856 5.48483C12.4178 5.58395 12.5235 5.63784 12.6226 5.60564C12.7218 5.57342 12.7756 5.46768 12.7434 5.36856L12.4613 4.50047C12.4372 4.42613 12.3717 4.37728 12.2986 4.37107ZM19.7031 4.37152C19.63 4.37773 19.5646 4.4266 19.5404 4.50094L19.2582 5.36894C19.226 5.46806 19.2798 5.5738 19.3789 5.60602C19.478 5.63824 19.5838 5.58439 19.616 5.48529L19.8982 4.6172C19.9304 4.51808 19.8766 4.41235 19.7775 4.38013C19.7527 4.37208 19.7275 4.36946 19.7031 4.37152ZM11.1055 4.80767C11.0811 4.80812 11.0563 4.81348 11.0325 4.82408C10.9373 4.8664 10.8947 4.97712 10.9371 5.07236L11.8184 7.05519C11.8607 7.15042 11.9714 7.193 12.0667 7.15067C12.1618 7.10835 12.2046 6.99763 12.1622 6.90239L11.2808 4.91956C11.2491 4.84812 11.1788 4.80625 11.1055 4.80767ZM20.9097 4.81433C20.8364 4.81299 20.7661 4.8546 20.7342 4.92597L19.8502 6.90759C19.8078 7.00277 19.8502 7.11357 19.9454 7.15603C20.0406 7.19849 20.1514 7.15605 20.1938 7.06088L21.0778 5.07926C21.1203 4.98408 21.0778 4.87328 20.9827 4.83081C20.9589 4.82022 20.9341 4.81487 20.9097 4.81433ZM9.99808 5.39363C9.96197 5.39095 9.92476 5.39899 9.89091 5.41857C9.80065 5.47068 9.76995 5.58528 9.82206 5.67553L10.2784 6.466C10.3306 6.55627 10.4451 6.58697 10.5354 6.53485C10.6257 6.48274 10.6564 6.36815 10.6043 6.27789L10.1479 5.48742C10.1153 5.431 10.0583 5.39784 9.99808 5.39363ZM22.0019 5.39363C21.9417 5.39765 21.8848 5.43099 21.8522 5.48741L21.3958 6.27787C21.3437 6.36813 21.3744 6.48273 21.4647 6.53484C21.555 6.58695 21.6696 6.55625 21.7217 6.46599L22.178 5.67552C22.2302 5.58526 22.1994 5.47066 22.1092 5.41855C22.0754 5.39902 22.0381 5.39112 22.0019 5.39363ZM8.92272 6.06434C8.88652 6.06568 8.85027 6.0773 8.81863 6.10023C8.73427 6.16143 8.71562 6.2786 8.77684 6.36296L10.051 8.11935C10.1122 8.20372 10.2294 8.22237 10.3138 8.16119C10.3981 8.09999 10.4168 7.98281 10.3556 7.89845L9.08136 6.14206C9.04311 6.08933 8.98302 6.06228 8.92272 6.06434ZM23.0908 6.0739C23.0305 6.07167 22.9704 6.09871 22.932 6.15136L21.6555 7.90605C21.5942 7.99033 21.6127 8.10755 21.697 8.16886C21.7813 8.23017 21.8985 8.21172 21.9598 8.12748L23.2363 6.37279C23.2976 6.28851 23.279 6.17129 23.1948 6.10998C23.1632 6.087 23.127 6.0752 23.0908 6.0739ZM7.9615 6.87046C7.91348 6.86778 7.86448 6.88383 7.82575 6.91869C7.74829 6.98842 7.74206 7.10689 7.81181 7.18435L8.42252 7.86277C8.49224 7.94024 8.61072 7.94647 8.68818 7.87672C8.76564 7.80699 8.77187 7.68844 8.70212 7.61098L8.09149 6.93263C8.05663 6.89389 8.00953 6.87299 7.9615 6.87046ZM24.0399 6.8718C23.9919 6.87449 23.9448 6.89527 23.9099 6.93399L23.2992 7.61226C23.2295 7.68971 23.2356 7.80826 23.3131 7.878C23.3905 7.94773 23.509 7.94148 23.5788 7.86405L24.1895 7.18579C24.2593 7.10833 24.253 6.98979 24.1756 6.92005C24.1369 6.88519 24.0879 6.86929 24.0399 6.8718ZM7.04024 7.7554C6.99221 7.75808 6.94519 7.77886 6.91033 7.81759C6.8406 7.89505 6.84683 8.01352 6.92427 8.08325L8.53696 9.53501C8.61442 9.60474 8.73289 9.5985 8.80261 9.52107C8.87235 9.44361 8.86619 9.32514 8.78871 9.25541L7.17595 7.80365C7.1372 7.76879 7.08826 7.75287 7.04024 7.7554ZM24.9656 7.76174C24.9176 7.75906 24.8686 7.77506 24.8298 7.80989L23.2161 9.26052C23.1386 9.33019 23.1323 9.44866 23.2019 9.52617C23.2716 9.60368 23.3902 9.60998 23.4677 9.5403L25.0814 8.08967C25.1589 8.01999 25.1652 7.90152 25.0955 7.82401C25.0607 7.78526 25.0137 7.7643 24.9656 7.76174ZM6.27412 8.7405C6.21381 8.73826 6.15368 8.76544 6.1154 8.81812C6.05414 8.90243 6.07272 9.01959 6.15705 9.08085L6.89548 9.61736C6.97979 9.67862 7.09695 9.66013 7.15821 9.57579C7.21947 9.49147 7.20093 9.37424 7.11664 9.31298L6.37822 8.77647C6.34662 8.7535 6.3103 8.7418 6.27412 8.7405ZM25.731 8.74734C25.6948 8.74868 25.6586 8.76025 25.6269 8.78323L24.8882 9.31925C24.8038 9.38045 24.7852 9.4977 24.8463 9.58206C24.9076 9.66642 25.0247 9.68499 25.1091 9.6238L25.8479 9.08779C25.9323 9.02658 25.9508 8.90941 25.8897 8.82505C25.8514 8.77233 25.7913 8.74527 25.731 8.74734ZM5.55818 9.79129C5.49799 9.79531 5.44104 9.82865 5.40847 9.88506C5.35636 9.97532 5.38706 10.0899 5.47732 10.142L7.35647 11.227C7.44673 11.2791 7.56133 11.2484 7.61344 11.1581C7.66555 11.0679 7.63485 10.9533 7.54459 10.9012L5.66544 9.81621C5.6316 9.79667 5.5943 9.78878 5.55818 9.79129ZM26.4418 9.79129C26.4057 9.7886 26.3684 9.79665 26.3346 9.81622L24.4554 10.9012C24.3652 10.9533 24.3345 11.0679 24.3866 11.1581C24.4387 11.2484 24.5533 11.2791 24.6435 11.227L26.5228 10.142C26.613 10.0899 26.6437 9.97533 26.5916 9.88508C26.5591 9.82867 26.502 9.79549 26.4418 9.79129ZM5.01689 10.9113C4.94358 10.9095 4.87328 10.9515 4.84143 11.0229C4.79898 11.118 4.84141 11.2288 4.93659 11.2713L5.77025 11.6432C5.86544 11.6856 5.97624 11.6432 6.0187 11.548C6.06115 11.4528 6.01864 11.342 5.92346 11.2996L5.08988 10.9277C5.0661 10.9171 5.04132 10.9118 5.01689 10.9113ZM26.9868 10.919C26.9623 10.9195 26.9375 10.9248 26.9137 10.9354L26.0799 11.3066C25.9847 11.3491 25.9421 11.4598 25.9845 11.555C26.0269 11.6502 26.1377 11.6928 26.2329 11.6504L27.0668 11.2791C27.162 11.2367 27.2045 11.126 27.1621 11.0308C27.1303 10.9593 27.0601 10.9176 26.9868 10.919ZM4.53445 12.0819C4.46139 12.0881 4.39588 12.1369 4.37167 12.2112C4.3394 12.3103 4.39312 12.4161 4.49223 12.4483L6.55537 13.1206C6.65445 13.1529 6.76023 13.0991 6.79252 13C6.82479 12.9009 6.77107 12.7952 6.67196 12.7629L4.60883 12.0906C4.58407 12.0825 4.55881 12.0799 4.53445 12.0819ZM27.4683 12.09C27.444 12.0877 27.4188 12.0904 27.394 12.0986L25.3304 12.7694C25.2313 12.8017 25.1775 12.9074 25.2097 13.0065C25.2419 13.1056 25.3476 13.1595 25.4468 13.1273L27.5103 12.4565C27.6094 12.4242 27.6633 12.3185 27.6311 12.2194C27.6069 12.145 27.5414 12.0962 27.4683 12.09ZM4.23389 13.3108C4.14625 13.3099 4.06765 13.3707 4.04869 13.4599C4.02702 13.5618 4.09169 13.6613 4.19362 13.683L5.08647 13.8728C5.18841 13.8944 5.28791 13.8298 5.30958 13.7278C5.33125 13.6259 5.26658 13.5264 5.16465 13.5047L4.27188 13.315C4.25914 13.3123 4.2464 13.3108 4.23389 13.3108ZM27.7665 13.3125C27.754 13.3126 27.7414 13.3143 27.7286 13.3166L26.8358 13.5062C26.7338 13.5279 26.6692 13.6273 26.6909 13.7293C26.7125 13.8312 26.812 13.8959 26.914 13.8743L27.8067 13.6846C27.9087 13.6629 27.9734 13.5634 27.9518 13.4615C27.9328 13.3723 27.8542 13.3118 27.7665 13.3125ZM4.00639 14.5468C3.91915 14.5552 3.84734 14.6236 3.83776 14.7143C3.82681 14.8179 3.90137 14.9102 4.00501 14.9212L6.16289 15.1493C6.26653 15.1603 6.35881 15.0856 6.36976 14.982C6.38071 14.8783 6.30608 14.7861 6.20243 14.7751L4.04455 14.547C4.03159 14.5456 4.01886 14.5456 4.00639 14.5468ZM27.9957 14.563C27.9832 14.5617 27.9704 14.5617 27.9574 14.5632L25.7993 14.7884C25.6956 14.7992 25.6209 14.8914 25.6317 14.995C25.6425 15.0987 25.7347 15.1734 25.8383 15.1626L27.9965 14.9374C28.1001 14.9266 28.1748 14.8344 28.164 14.7308C28.1546 14.6401 28.0829 14.5715 27.9957 14.563ZM3.96985 15.8121C3.86563 15.8121 3.78174 15.896 3.78174 16.0002C3.78174 16.1044 3.86563 16.1883 3.96985 16.1883H4.8826C4.98682 16.1883 5.0708 16.1044 5.0708 16.0002C5.0708 15.896 4.98682 15.8121 4.8826 15.8121H3.96985ZM27.1174 15.8121C27.0132 15.8121 26.9293 15.896 26.9293 16.0002C26.9293 16.1044 27.0132 16.1883 27.1174 16.1883H28.0302C28.1344 16.1883 28.2183 16.1044 28.2183 16.0002C28.2183 15.896 28.1344 15.8121 28.0302 15.8121H27.1174ZM6.19991 16.8376C6.18745 16.8362 6.17471 16.8362 6.16175 16.8377L4.00354 17.063C3.89988 17.0738 3.82516 17.1659 3.83596 17.2696C3.84678 17.3732 3.93894 17.448 4.04259 17.4372L6.2008 17.2119C6.30446 17.2011 6.37918 17.109 6.36837 17.0053C6.3589 16.9146 6.28715 16.8461 6.19991 16.8376ZM25.799 16.8509C25.7117 16.8593 25.6399 16.9277 25.6303 17.0184C25.6194 17.122 25.6939 17.2143 25.7976 17.2253L27.9555 17.4534C28.0591 17.4644 28.1514 17.3897 28.1623 17.2861C28.1733 17.1824 28.0987 17.0902 27.995 17.0792L25.8372 16.8511C25.8243 16.8497 25.8114 16.8497 25.799 16.8509ZM5.12414 18.1218C5.11163 18.1219 5.09889 18.1231 5.08615 18.1258L4.1933 18.3155C4.09135 18.3371 4.02672 18.4366 4.04837 18.5386C4.07005 18.6405 4.16954 18.7051 4.27149 18.6835L5.16434 18.4939C5.26628 18.4722 5.33091 18.3727 5.30926 18.2708C5.29031 18.1816 5.21178 18.121 5.12414 18.1218ZM26.8756 18.1236C26.788 18.1227 26.7095 18.1834 26.6905 18.2726C26.6688 18.3746 26.7334 18.4741 26.8354 18.4957L27.7282 18.6855C27.8302 18.7072 27.9297 18.6426 27.9513 18.5406C27.973 18.4387 27.9083 18.3391 27.8064 18.3174L26.9136 18.1277C26.9009 18.125 26.8881 18.1236 26.8756 18.1236ZM6.62762 18.8645C6.60326 18.8623 6.57812 18.865 6.55333 18.8732L4.48972 19.544C4.3906 19.5762 4.33677 19.6819 4.36899 19.781C4.40121 19.8802 4.50695 19.934 4.60606 19.9018L6.6696 19.231C6.76872 19.1988 6.82263 19.093 6.79041 18.9939C6.76624 18.9196 6.70068 18.8707 6.62762 18.8645ZM25.3704 18.8712C25.2973 18.8773 25.2318 18.9261 25.2076 19.0004C25.1753 19.0995 25.229 19.2053 25.3281 19.2376L27.3913 19.9098C27.4904 19.9421 27.5961 19.8883 27.6284 19.7893C27.6607 19.6902 27.607 19.5844 27.5079 19.5521L25.4447 18.8799C25.42 18.8718 25.3947 18.8691 25.3704 18.8712ZM5.84016 20.3337C5.81571 20.3342 5.79097 20.3395 5.76717 20.35L4.93326 20.7213C4.83805 20.7637 4.79556 20.8745 4.83794 20.9697C4.88036 21.0649 4.99109 21.1074 5.0863 21.065L5.92022 20.6938C6.01542 20.6514 6.05792 20.5407 6.01553 20.4454C5.98375 20.374 5.91347 20.3323 5.84016 20.3337ZM26.1569 20.3409C26.0835 20.3391 26.0132 20.3811 25.9814 20.4524C25.9389 20.5476 25.9814 20.6584 26.0766 20.7009L26.9101 21.0727C27.0053 21.1152 27.1161 21.0728 27.1586 20.9776C27.201 20.8824 27.1586 20.7716 27.0634 20.7291L26.2299 20.3573C26.2061 20.3466 26.1813 20.3414 26.1569 20.3409ZM7.46372 20.7485C7.42761 20.7459 7.39032 20.7539 7.35647 20.7735L5.47732 21.8584C5.38706 21.9105 5.35636 22.0251 5.40847 22.1154C5.46058 22.2056 5.57518 22.2364 5.66544 22.1842L7.54459 21.0994C7.63485 21.0473 7.66555 20.9326 7.61344 20.8423C7.58086 20.7859 7.52392 20.7527 7.46372 20.7485ZM24.5364 20.7485C24.4762 20.7526 24.4192 20.7859 24.3866 20.8423C24.3345 20.9326 24.3652 21.0472 24.4554 21.0994L26.3346 22.1842C26.4248 22.2363 26.5395 22.2056 26.5916 22.1154C26.6437 22.0251 26.613 21.9105 26.5228 21.8584L24.6435 20.7735C24.6097 20.7539 24.5725 20.746 24.5364 20.7485ZM6.99501 22.3407C6.95881 22.342 6.92256 22.3537 6.89092 22.3767L6.15217 22.9127C6.06782 22.9739 6.04916 23.0911 6.11034 23.1754C6.17155 23.2598 6.28872 23.2784 6.37308 23.2172L7.1119 22.6812C7.19627 22.62 7.21493 22.5028 7.15374 22.4185C7.11548 22.3657 7.05532 22.3386 6.99501 22.3407ZM25.0005 22.347C24.9402 22.3448 24.8801 22.372 24.8418 22.4246C24.7806 22.509 24.7991 22.6262 24.8835 22.6875L25.6219 23.224C25.7062 23.2852 25.8234 23.2666 25.8846 23.1823C25.9459 23.098 25.9274 22.9808 25.8431 22.9196L25.1046 22.3831C25.073 22.3601 25.0367 22.3483 25.0005 22.347ZM8.66818 22.412C8.62017 22.4093 8.57119 22.4253 8.53243 22.4601L6.91869 23.9108C6.84119 23.9804 6.83489 24.0989 6.90457 24.1764C6.97424 24.2539 7.09271 24.2602 7.17022 24.1905L8.78397 22.7399C8.86147 22.6702 8.86777 22.5518 8.79809 22.4742C8.76327 22.4355 8.7162 22.4145 8.66818 22.412ZM23.3274 22.4172C23.2793 22.4198 23.2323 22.4406 23.1974 22.4794C23.1277 22.5568 23.1339 22.6753 23.2113 22.745L24.824 24.1968C24.9015 24.2665 25.02 24.2603 25.0898 24.1828C25.1595 24.1054 25.1532 23.9869 25.0758 23.9172L23.463 22.4654C23.4243 22.4305 23.3754 22.4146 23.3274 22.4172ZM10.1991 23.7953C10.1388 23.7931 10.0786 23.8201 10.0403 23.8727L8.76383 25.6274C8.70251 25.7117 8.72097 25.8289 8.80521 25.8902C8.88949 25.9516 9.00672 25.9331 9.06803 25.8488L10.3445 24.0941C10.4058 24.0099 10.3874 23.8926 10.3031 23.8313C10.2715 23.8083 10.2353 23.7965 10.1991 23.7953ZM21.7904 23.8032C21.7542 23.8045 21.718 23.8161 21.6863 23.839C21.602 23.9002 21.5833 24.0174 21.6445 24.1018L22.9186 25.8582C22.9798 25.9425 23.097 25.9612 23.1814 25.9C23.2657 25.8388 23.2844 25.7216 23.2232 25.6373L21.9491 23.8809C21.9108 23.8282 21.8507 23.8011 21.7904 23.8032ZM8.55127 24.0742C8.50325 24.0769 8.45616 24.0976 8.42129 24.1364L7.81057 24.8146C7.74083 24.8921 7.747 25.0106 7.82447 25.0804C7.90192 25.1501 8.02039 25.1439 8.09012 25.0664L8.70091 24.3881C8.77066 24.3107 8.7644 24.1921 8.68697 24.1224C8.64822 24.0875 8.5993 24.0717 8.55127 24.0742ZM23.4476 24.0751C23.3996 24.0724 23.3507 24.0884 23.3119 24.1233C23.2345 24.193 23.2283 24.3115 23.298 24.3889L23.9086 25.0674C23.9783 25.1448 24.0968 25.1511 24.1743 25.0813C24.2517 25.0116 24.2579 24.893 24.1882 24.8156L23.5776 24.1372C23.5427 24.0985 23.4956 24.0776 23.4476 24.0751ZM11.9817 24.8275C11.9083 24.8257 11.8381 24.8677 11.8063 24.9391L10.9222 26.9207C10.8797 27.0159 10.9222 27.1267 11.0174 27.1692C11.1125 27.2116 11.2233 27.1692 11.2658 27.074L12.1499 25.0924C12.1923 24.9972 12.1499 24.8864 12.0547 24.8439C12.0309 24.8333 12.0061 24.828 11.9817 24.8275ZM20.0064 24.833C19.982 24.8334 19.9572 24.8387 19.9334 24.8493C19.8382 24.8916 19.7955 25.0023 19.8379 25.0976L20.7192 27.0804C20.7615 27.1756 20.8723 27.2182 20.9676 27.1759C21.0628 27.1336 21.1054 27.0229 21.063 26.9276L20.1817 24.9448C20.15 24.8734 20.0797 24.8316 20.0064 24.833ZM10.4281 25.4402C10.368 25.4442 10.311 25.4776 10.2784 25.534L9.82206 26.3245C9.76995 26.4147 9.80065 26.5293 9.89091 26.5814C9.98117 26.6335 10.0958 26.6028 10.1479 26.5126L10.6043 25.7221C10.6564 25.6318 10.6257 25.5172 10.5354 25.4651C10.5016 25.4456 10.4643 25.4377 10.4281 25.4402ZM21.5719 25.4402C21.5358 25.4375 21.4985 25.4456 21.4647 25.4651C21.3744 25.5173 21.3437 25.6319 21.3958 25.7221L21.8522 26.5126C21.9043 26.6028 22.0189 26.6335 22.1092 26.5814C22.1994 26.5293 22.2302 26.4147 22.178 26.3245L21.7217 25.534C21.6891 25.4776 21.6321 25.4444 21.5719 25.4402ZM13.9498 25.4685C13.8622 25.4677 13.7836 25.5284 13.7647 25.6176L13.3137 27.7402C13.2921 27.8421 13.3567 27.9416 13.4587 27.9633C13.5606 27.985 13.6601 27.9203 13.6818 27.8184L14.1327 25.6958C14.1544 25.5939 14.0897 25.4943 13.9878 25.4727C13.975 25.47 13.9623 25.4685 13.9498 25.4685ZM18.0436 25.4699C18.0311 25.47 18.0184 25.4712 18.0057 25.4739C17.9037 25.4955 17.839 25.5949 17.8606 25.6969L18.31 27.8197C18.3316 27.9217 18.431 27.9864 18.533 27.9648C18.635 27.9432 18.6997 27.8438 18.6781 27.7418L18.2286 25.6191C18.2097 25.5299 18.1312 25.4692 18.0436 25.4699ZM16 25.684C15.8958 25.684 15.8119 25.7679 15.8119 25.8721V28.042C15.8119 28.1462 15.8958 28.2301 16 28.2301C16.1042 28.2301 16.1881 28.1462 16.1881 28.042V25.8721C16.1881 25.7679 16.1042 25.684 16 25.684ZM12.5468 26.3851C12.4738 26.3914 12.4082 26.4402 12.384 26.5146L12.1019 27.3827C12.0697 27.4818 12.1235 27.5875 12.2226 27.6197C12.3217 27.652 12.4275 27.598 12.4597 27.4989L12.7418 26.6309C12.7741 26.5318 12.7202 26.4261 12.6211 26.3938C12.5963 26.3858 12.5712 26.3831 12.5468 26.3851ZM19.4517 26.3856C19.4274 26.3834 19.4022 26.386 19.3775 26.3942C19.2783 26.4264 19.2244 26.5322 19.2566 26.6313L19.5387 27.4994C19.5709 27.5985 19.6767 27.6523 19.7758 27.6201C19.8749 27.5879 19.9288 27.4822 19.8966 27.3831L19.6145 26.515C19.5903 26.4407 19.5248 26.3918 19.4517 26.3856ZM14.8192 26.8691C14.7319 26.8775 14.6601 26.946 14.6505 27.0367L14.5551 27.9445C14.5442 28.0481 14.6189 28.1403 14.7226 28.1512C14.8262 28.1621 14.9184 28.0874 14.9294 27.9837L15.0247 27.076C15.0357 26.9724 14.961 26.8801 14.8573 26.8692C14.8444 26.8679 14.8316 26.8679 14.8192 26.8691ZM17.1733 26.87C17.1608 26.8686 17.148 26.8686 17.135 26.8701C17.0314 26.8809 16.9566 26.9731 16.9675 27.0768L17.0623 27.9846C17.0731 28.0883 17.1653 28.163 17.2689 28.1521C17.3726 28.1413 17.4473 28.0492 17.4365 27.9455L17.3417 27.0377C17.3323 26.947 17.2605 26.8785 17.1733 26.87Z" fill="#F4F2F3"/>
<g opacity="0.409" filter="url(#filter0_f_214_1389)">
<path d="M24.817 8.47534L14.5246 14.4552L8.01709 24.6999L17.5371 17.6486L24.817 8.47534Z" fill="black"/>
</g>
<path d="M17.475 17.5447L14.5249 14.4552L24.9901 7.41528L17.475 17.5447Z" fill="#FF5150"/>
<path d="M17.475 17.5448L14.5249 14.4553L7.00977 24.5847L17.475 17.5448Z" fill="#F1F1F1"/>
<path opacity="0.243" d="M7.00977 24.5847L17.475 17.5447L24.9901 7.41528L7.00977 24.5847Z" fill="black"/>
<defs>
<filter id="filter0_f_214_1389" x="5.47225" y="5.93051" width="21.8895" height="21.3143" filterUnits="userSpaceOnUse" color-interpolation-filters="sRGB">
<feFlood flood-opacity="0" result="BackgroundImageFix"/>
<feBlend mode="normal" in="SourceGraphic" in2="BackgroundImageFix" result="shape"/>
<feGaussianBlur stdDeviation="1.27242" result="effect1_foregroundBlur_214_1389"/>
</filter>
<linearGradient id="paint0_linear_214_1389" x1="15.9995" y1="29.9997" x2="15.9995" y2="1.99993" gradientUnits="userSpaceOnUse">
<stop stop-color="#BDBDBD"/>
<stop offset="1" stop-color="white"/>
</linearGradient>
<radialGradient id="paint1_radial_214_1389" cx="0" cy="0" r="1" gradientUnits="userSpaceOnUse" gradientTransform="translate(16.0583 14.1185) scale(14 13.9999)">
<stop stop-color="#06C2E7"/>
<stop offset="0.25" stop-color="#0DB8EC"/>
<stop offset="0.5" stop-color="#12AEF1"/>
<stop offset="0.75" stop-color="#1F86F9"/>
<stop offset="1" stop-color="#107DDD"/>
</radialGradient>
</defs>
</svg>
