<svg width="32" height="32" viewBox="0 0 32 32" fill="none" xmlns="http://www.w3.org/2000/svg">
<circle cx="16" cy="16" r="14" fill="white"/>
<g clip-path="url(#paint0_angular_214_1482_clip_path)" data-figma-skip-parse="true"><g transform="matrix(0 0.011 -0.011 0 16 16)"><foreignObject x="-1126.4" y="-1126.4" width="2252.81" height="2252.81"><div xmlns="http://www.w3.org/1999/xhtml" style="background:conic-gradient(from 90deg,rgba(163, 205, 57, 1) 0deg,rgba(242, 233, 19, 1) 46.5543deg,rgba(163, 205, 57, 1) 90.6364deg,rgba(13, 166, 229, 1) 145.263deg,rgba(2, 145, 235, 1) 180.628deg,rgba(12, 138, 203, 1) 220.816deg,rgba(33, 160, 56, 1) 237.456deg,rgba(33, 160, 56, 1) 268.849deg,rgba(148, 200, 57, 1) 360deg);height:100%;width:100%;opacity:1"></div></foreignObject></g></g><path d="M20.7576 9.01351L22.9035 7.42967C21.0177 5.91091 18.6118 5 15.9892 5C13.161 5.00548 10.5694 6.07474 8.61972 7.84167C6.39605 9.85145 5.01094 12.7824 5 15.9997C5.00548 18.8309 6.08427 21.4157 7.84968 23.3673C9.86545 25.6021 12.7596 27 15.9892 27C18.8231 26.9945 21.4292 25.931 23.3803 24.1576C25.5911 22.1616 27 19.2325 27 15.9997C27 15.3272 26.935 14.6763 26.8266 14.0254L24.464 15.7828C24.464 18.113 23.6369 20.3311 21.9692 21.9854C20.452 23.5476 18.3301 24.461 15.9892 24.461C13.7844 24.461 11.5912 23.5563 10.0199 21.9748C8.481 20.456 7.53597 18.3428 7.53597 15.9996C7.53597 13.7938 8.45285 11.6046 10.0285 10.0335C11.5458 8.49309 13.6699 7.53845 15.9891 7.53845C17.6455 7.53845 19.3531 8.03839 20.7576 9.01351Z" data-figma-gradient-fill="{&#34;type&#34;:&#34;GRADIENT_ANGULAR&#34;,&#34;stops&#34;:[{&#34;color&#34;:{&#34;r&#34;:0.63921570777893066,&#34;g&#34;:0.80392158031463623,&#34;b&#34;:0.22352941334247589,&#34;a&#34;:1.0},&#34;position&#34;:0.0},{&#34;color&#34;:{&#34;r&#34;:0.94901961088180542,&#34;g&#34;:0.91372549533843994,&#34;b&#34;:0.074509806931018829,&#34;a&#34;:1.0},&#34;position&#34;:0.12931738793849945},{&#34;color&#34;:{&#34;r&#34;:0.63921570777893066,&#34;g&#34;:0.80392158031463623,&#34;b&#34;:0.22352941334247589,&#34;a&#34;:1.0},&#34;position&#34;:0.25176790356636047},{&#34;color&#34;:{&#34;r&#34;:0.050980392843484879,&#34;g&#34;:0.65098041296005249,&#34;b&#34;:0.89803922176361084,&#34;a&#34;:1.0},&#34;position&#34;:0.40350696444511414},{&#34;color&#34;:{&#34;r&#34;:0.0078431377187371254,&#34;g&#34;:0.56862747669219971,&#34;b&#34;:0.92156863212585449,&#34;a&#34;:1.0},&#34;position&#34;:0.50174540281295776},{&#34;color&#34;:{&#34;r&#34;:0.047058824449777603,&#34;g&#34;:0.54117649793624878,&#34;b&#34;:0.79607844352722168,&#34;a&#34;:1.0},&#34;position&#34;:0.61337870359420776},{&#34;color&#34;:{&#34;r&#34;:0.12941177189350128,&#34;g&#34;:0.62745100259780884,&#34;b&#34;:0.21960784494876862,&#34;a&#34;:1.0},&#34;position&#34;:0.65960109233856201},{&#34;color&#34;:{&#34;r&#34;:0.12941177189350128,&#34;g&#34;:0.62745100259780884,&#34;b&#34;:0.21960784494876862,&#34;a&#34;:1.0},&#34;position&#34;:0.74680256843566895},{&#34;color&#34;:{&#34;r&#34;:0.58039218187332153,&#34;g&#34;:0.78431373834609985,&#34;b&#34;:0.22352941334247589,&#34;a&#34;:1.0},&#34;position&#34;:1.0}],&#34;stopsVar&#34;:[],&#34;transform&#34;:{&#34;m00&#34;:1.3471115643134642e-15,&#34;m01&#34;:-22.0,&#34;m02&#34;:27.0,&#34;m10&#34;:22.0,&#34;m11&#34;:1.3471115643134642e-15,&#34;m12&#34;:5.0},&#34;opacity&#34;:1.0,&#34;blendMode&#34;:&#34;NORMAL&#34;,&#34;visible&#34;:true}"/>
<path d="M20.7576 9.01351L22.9035 7.42967C21.0177 5.91091 18.6118 5 15.9892 5C13.161 5.00548 10.5694 6.07474 8.61972 7.84167C6.39605 9.85145 5.01094 12.7824 5 15.9997C5.00548 18.8309 6.08427 21.4157 7.84968 23.3673C9.86545 25.6021 12.7596 27 15.9892 27C18.8231 26.9945 21.4292 25.931 23.3803 24.1576C25.5911 22.1616 27 19.2325 27 15.9997C27 15.3272 26.935 14.6763 26.8266 14.0254L24.464 15.7828C24.464 18.113 23.6369 20.3311 21.9692 21.9854C20.452 23.5476 18.3301 24.461 15.9892 24.461C13.7844 24.461 11.5912 23.5563 10.0199 21.9748C8.481 20.456 7.53597 18.3428 7.53597 15.9996C7.53597 13.7938 8.45285 11.6046 10.0285 10.0335C11.5458 8.49309 13.6699 7.53845 15.9891 7.53845C17.6455 7.53845 19.3531 8.03839 20.7576 9.01351Z" fill="url(#paint1_radial_214_1482)"/>
<g clip-path="url(#paint2_angular_214_1482_clip_path)" data-figma-skip-parse="true"><g transform="matrix(0 0.011 -0.011 0 16 16)"><foreignObject x="-1126.4" y="-1126.4" width="2252.81" height="2252.81"><div xmlns="http://www.w3.org/1999/xhtml" style="background:conic-gradient(from 90deg,rgba(163, 205, 57, 1) 0deg,rgba(242, 233, 19, 1) 46.5543deg,rgba(163, 205, 57, 1) 90.6364deg,rgba(13, 166, 229, 1) 145.263deg,rgba(2, 145, 235, 1) 180.628deg,rgba(12, 138, 203, 1) 220.816deg,rgba(33, 160, 56, 1) 237.456deg,rgba(33, 160, 56, 1) 268.849deg,rgba(148, 200, 57, 1) 360deg);height:100%;width:100%;opacity:1"></div></foreignObject></g></g><path d="M26.0247 11.4651C25.6562 10.684 25.2227 9.94637 24.7025 9.27377L15.9892 15.9611L12 12.986V15.989L15.9891 18.992L26.0247 11.4651Z" data-figma-gradient-fill="{&#34;type&#34;:&#34;GRADIENT_ANGULAR&#34;,&#34;stops&#34;:[{&#34;color&#34;:{&#34;r&#34;:0.63921570777893066,&#34;g&#34;:0.80392158031463623,&#34;b&#34;:0.22352941334247589,&#34;a&#34;:1.0},&#34;position&#34;:0.0},{&#34;color&#34;:{&#34;r&#34;:0.94901961088180542,&#34;g&#34;:0.91372549533843994,&#34;b&#34;:0.074509806931018829,&#34;a&#34;:1.0},&#34;position&#34;:0.12931738793849945},{&#34;color&#34;:{&#34;r&#34;:0.63921570777893066,&#34;g&#34;:0.80392158031463623,&#34;b&#34;:0.22352941334247589,&#34;a&#34;:1.0},&#34;position&#34;:0.25176790356636047},{&#34;color&#34;:{&#34;r&#34;:0.050980392843484879,&#34;g&#34;:0.65098041296005249,&#34;b&#34;:0.89803922176361084,&#34;a&#34;:1.0},&#34;position&#34;:0.40350696444511414},{&#34;color&#34;:{&#34;r&#34;:0.0078431377187371254,&#34;g&#34;:0.56862747669219971,&#34;b&#34;:0.92156863212585449,&#34;a&#34;:1.0},&#34;position&#34;:0.50174540281295776},{&#34;color&#34;:{&#34;r&#34;:0.047058824449777603,&#34;g&#34;:0.54117649793624878,&#34;b&#34;:0.79607844352722168,&#34;a&#34;:1.0},&#34;position&#34;:0.61337870359420776},{&#34;color&#34;:{&#34;r&#34;:0.12941177189350128,&#34;g&#34;:0.62745100259780884,&#34;b&#34;:0.21960784494876862,&#34;a&#34;:1.0},&#34;position&#34;:0.65960109233856201},{&#34;color&#34;:{&#34;r&#34;:0.12941177189350128,&#34;g&#34;:0.62745100259780884,&#34;b&#34;:0.21960784494876862,&#34;a&#34;:1.0},&#34;position&#34;:0.74680256843566895},{&#34;color&#34;:{&#34;r&#34;:0.58039218187332153,&#34;g&#34;:0.78431373834609985,&#34;b&#34;:0.22352941334247589,&#34;a&#34;:1.0},&#34;position&#34;:1.0}],&#34;stopsVar&#34;:[],&#34;transform&#34;:{&#34;m00&#34;:1.3471115643134642e-15,&#34;m01&#34;:-22.0,&#34;m02&#34;:27.0,&#34;m10&#34;:22.0,&#34;m11&#34;:1.3471115643134642e-15,&#34;m12&#34;:5.0},&#34;opacity&#34;:1.0,&#34;blendMode&#34;:&#34;NORMAL&#34;,&#34;visible&#34;:true}"/>
<path d="M26.0247 11.4651C25.6562 10.684 25.2227 9.94637 24.7025 9.27377L15.9892 15.9611L12 12.986V15.989L15.9891 18.992L26.0247 11.4651Z" fill="url(#paint3_radial_214_1482)"/>
<defs>
<clipPath id="paint0_angular_214_1482_clip_path"><path d="M20.7576 9.01351L22.9035 7.42967C21.0177 5.91091 18.6118 5 15.9892 5C13.161 5.00548 10.5694 6.07474 8.61972 7.84167C6.39605 9.85145 5.01094 12.7824 5 15.9997C5.00548 18.8309 6.08427 21.4157 7.84968 23.3673C9.86545 25.6021 12.7596 27 15.9892 27C18.8231 26.9945 21.4292 25.931 23.3803 24.1576C25.5911 22.1616 27 19.2325 27 15.9997C27 15.3272 26.935 14.6763 26.8266 14.0254L24.464 15.7828C24.464 18.113 23.6369 20.3311 21.9692 21.9854C20.452 23.5476 18.3301 24.461 15.9892 24.461C13.7844 24.461 11.5912 23.5563 10.0199 21.9748C8.481 20.456 7.53597 18.3428 7.53597 15.9996C7.53597 13.7938 8.45285 11.6046 10.0285 10.0335C11.5458 8.49309 13.6699 7.53845 15.9891 7.53845C17.6455 7.53845 19.3531 8.03839 20.7576 9.01351Z"/></clipPath><clipPath id="paint2_angular_214_1482_clip_path"><path d="M26.0247 11.4651C25.6562 10.684 25.2227 9.94637 24.7025 9.27377L15.9892 15.9611L12 12.986V15.989L15.9891 18.992L26.0247 11.4651Z"/></clipPath><radialGradient id="paint1_radial_214_1482" cx="0" cy="0" r="1" gradientUnits="userSpaceOnUse" gradientTransform="translate(16 16.9901) rotate(90) scale(6.50652)">
<stop stop-color="#21A038"/>
<stop offset="1" stop-color="#21A038" stop-opacity="0"/>
</radialGradient>
<radialGradient id="paint3_radial_214_1482" cx="0" cy="0" r="1" gradientUnits="userSpaceOnUse" gradientTransform="translate(16 16.9901) rotate(90) scale(6.50652)">
<stop stop-color="#21A038"/>
<stop offset="1" stop-color="#21A038" stop-opacity="0"/>
</radialGradient>
</defs>
</svg>
