<svg width="32" height="32" viewBox="0 0 32 32" fill="none" xmlns="http://www.w3.org/2000/svg">
<path d="M22.2695 4.46334C21.5668 5.18384 20.923 5.96473 20.3508 6.79739L20.1699 6.73699C19.1264 6.38753 18.0451 6.17182 16.9553 6.09847C16.6271 6.07259 15.4027 6.07259 15.003 6.09847C13.7954 6.18045 12.8697 6.36596 11.8178 6.74131C11.7758 6.75856 11.7379 6.77151 11.7 6.78445C11.1068 5.9561 10.4462 5.17952 9.71826 4.46766C13.2105 2.63407 17.2961 2.41404 20.9525 3.85934C21.3438 4.01034 21.7267 4.18723 22.1011 4.37706L22.2695 4.46334Z" fill="#F00500"/>
<path d="M28.7829 20.8276C28.2528 22.3764 27.4576 23.8131 26.4267 25.0642C25.8671 25.7373 25.2486 26.3542 24.5838 26.9151C23.027 28.2008 21.2093 29.1197 19.2696 29.6029C17.1238 30.1336 14.8853 30.1336 12.7395 29.6029C10.7956 29.1197 8.9821 28.2008 7.4253 26.9151C6.7605 26.3542 6.14199 25.7373 5.58238 25.0642C2.61604 21.4704 1.71562 16.5348 3.22614 12.0867C3.51225 11.2627 3.8699 10.4689 4.29907 9.71385C4.49682 9.36871 4.74087 8.98042 4.85868 8.82079C5.2626 10.6026 5.7591 12.1687 5.94423 12.7339C5.93161 12.7641 5.91478 12.7986 5.89795 12.8288C4.91758 14.8652 4.38743 16.8282 4.2612 18.9163C4.2612 18.9422 4.25699 18.9724 4.25699 18.9983C4.22333 19.6239 4.24016 19.9216 4.34114 20.3142C4.65671 21.5437 5.62866 22.8984 7.1518 24.2273C9.6469 26.4017 13.0298 27.9721 15.5922 28.1533C18.264 28.3388 22.2065 26.7382 24.832 24.3998C25.2444 24.0245 25.6315 23.6276 25.9933 23.2048C26.2542 22.8941 26.6413 22.3592 26.6118 22.3592C26.6034 22.3592 26.6118 22.3505 26.6287 22.3419C26.6413 22.3333 26.6539 22.3203 26.6455 22.3117C26.6413 22.3074 26.6497 22.2944 26.6623 22.2901C26.6749 22.2858 26.6834 22.2772 26.6792 22.2686C26.6749 22.2599 26.6792 22.2513 26.696 22.247C26.7086 22.2427 26.7128 22.2297 26.7086 22.2211C26.7044 22.2125 26.7086 22.2038 26.717 22.2038C26.7254 22.2038 26.7339 22.1909 26.7339 22.1823C26.7339 22.1736 26.7423 22.1607 26.7507 22.1607C26.7591 22.1607 26.7675 22.1521 26.7675 22.1434C26.7801 22.1089 26.8012 22.0744 26.8222 22.0442C26.8853 21.945 27.1378 21.4833 27.1714 21.4057C27.4113 20.8491 27.5627 20.353 27.6343 19.8568C27.6679 19.6196 27.689 19.1838 27.6721 19.0803C27.6679 19.063 27.6679 19.0328 27.6637 18.9853C27.6553 18.8991 27.6511 18.7696 27.6427 18.6402C27.6343 18.4461 27.6174 18.1743 27.6048 18.0405C27.4239 16.0818 26.9358 14.4812 26.0101 12.7857C25.9723 12.7209 25.9386 12.6562 25.9176 12.6045C25.9092 12.5915 25.905 12.5786 25.9008 12.5699C26.0312 12.1687 26.5655 10.4904 26.9905 8.57056L26.9989 8.57919L27.062 8.66547C27.1714 8.81647 27.4618 9.26516 27.5922 9.48088C28.1855 10.4732 28.6483 11.5388 28.9765 12.6519C29.7381 15.3311 29.6749 18.1872 28.7829 20.8276Z" fill="#F00500"/>
<path d="M23.3212 15.6721C23.3086 15.7411 23.1108 15.9482 22.913 16.0992C22.3324 16.5349 21.2931 16.9405 20.237 17.1346C19.6354 17.2468 19.0337 17.2641 18.8527 17.1735C18.7349 17.113 18.7181 17.0656 18.7602 16.9103C18.8485 16.5867 19.1347 16.2329 19.5807 15.9007C19.8079 15.7325 20.7293 15.1587 21.1585 14.9171C21.8654 14.5201 22.4376 14.2829 22.8247 14.2268C22.9467 14.2095 23.094 14.2052 23.1403 14.2268C23.216 14.257 23.3001 14.4856 23.3338 14.7617C23.3506 14.9084 23.3422 15.5556 23.3212 15.6721Z" fill="black"/>
<path d="M13.4081 17.1C13.3829 17.1518 13.2567 17.2078 13.1136 17.2294C12.9705 17.251 12.533 17.238 12.2847 17.2078C11.3927 17.087 10.446 16.8066 9.75596 16.4615C9.36887 16.2673 9.09116 16.0732 8.88499 15.8618L8.76718 15.7367L8.75456 15.5727C8.73352 15.288 8.73773 14.8393 8.77139 14.6796C8.79243 14.5459 8.83871 14.4165 8.90182 14.3C8.93548 14.2568 8.93548 14.2568 9.08696 14.2568C9.27209 14.2568 9.42777 14.287 9.68022 14.369C10.1978 14.533 10.9677 14.9299 11.906 15.508C12.6802 15.9826 12.9705 16.2155 13.1935 16.5348C13.345 16.7333 13.446 17.0137 13.4081 17.1Z" fill="black"/>
<path d="M19.3662 23.1056C19.3662 23.1185 19.3157 23.3256 19.2526 23.5715C19.1895 23.8175 19.139 24.0159 19.139 24.0246C19.0927 24.0289 19.0506 24.0332 19.0044 24.0289H18.8697L18.6846 24.4776C18.5836 24.7235 18.491 24.9521 18.4784 24.9866L18.4532 25.047L18.3648 24.9004L18.2764 24.7537V23.5586L18.2428 23.5672C18.1713 23.5845 17.6621 23.6535 17.4391 23.6751C16.5177 23.77 15.592 23.7484 14.6748 23.6147C14.5275 23.5931 14.4013 23.5759 14.3971 23.5802C14.3929 23.5845 14.3971 23.8606 14.4055 24.2014L14.4181 24.8141L14.3466 24.9262C14.3087 24.9866 14.2708 25.0384 14.2708 25.0427C14.2582 25.0557 14.2161 24.9866 14.1194 24.7882C14.0142 24.5811 13.9384 24.3611 13.8837 24.1324L13.8543 24.0073L13.7238 24.0159L13.5934 24.0289L13.5598 23.8692C13.5429 23.7829 13.5219 23.6492 13.5135 23.5759L13.5008 23.4378L13.3914 23.3386C13.3283 23.2825 13.2652 23.2264 13.2526 23.2178C13.2316 23.2005 13.2231 23.1703 13.2231 23.1444V23.0927L13.7491 23.097L14.275 23.1013L14.2919 23.1574L14.3087 23.2135L14.4896 23.2221C14.5906 23.2264 14.9104 23.235 15.1965 23.2437L15.7224 23.2566L15.8571 23.0409L15.9959 22.8252H16.1727L16.1684 22.3765L16.1642 21.9278L15.9328 21.8242C15.1881 21.4877 14.7505 21.1038 14.5864 20.6378C14.5527 20.5429 14.5527 20.5084 14.5443 20.0769C14.5401 19.6498 14.5401 19.611 14.5696 19.5161C14.6285 19.3004 14.7926 19.1321 15.003 19.076C15.0745 19.0544 15.2638 19.0544 16.2568 19.0544L17.4265 19.0588L17.5569 19.1235C17.7126 19.2011 17.7842 19.2572 17.8725 19.378C17.9735 19.5161 18.003 19.6239 18.003 19.8871C18.003 20.2625 17.9777 20.586 17.9398 20.7155C17.8851 20.8923 17.801 21.0606 17.6958 21.2116C17.4854 21.4877 17.1025 21.7638 16.7533 21.889L16.6523 21.9278L16.6565 22.3808L16.6607 22.8338L16.7533 22.8424L16.8459 22.8511L16.9721 23.0452L17.0941 23.2393H17.6579C17.9693 23.2393 18.2428 23.2437 18.268 23.248C18.3101 23.2566 18.3185 23.2523 18.3606 23.1789L18.4111 23.1013H18.895C19.2568 23.084 19.3662 23.0927 19.3662 23.1056Z" fill="black"/>
<path d="M17.1445 24.3438C17.0646 24.3912 17.0099 24.4128 16.9973 24.4042C16.9846 24.3999 16.9257 24.3481 16.8626 24.3006L16.749 24.2057L16.6312 24.3351C16.3745 24.6199 16.3661 24.6328 16.2904 24.6371C16.1726 24.6501 16.1473 24.6285 16.0043 24.4085C15.9285 24.2963 15.8696 24.2014 15.8696 24.2014C15.8696 24.2014 15.8149 24.1928 15.7518 24.1885L15.634 24.1755L15.5793 24.292L15.5246 24.4085L15.4278 24.3783C15.3521 24.3524 15.2764 24.3222 15.2048 24.2877L15.0786 24.223V23.9771L16.1978 23.9814L17.317 23.9857L17.3212 24.1022C17.3255 24.2402 17.3297 24.2359 17.1445 24.3438Z" fill="black"/>
<path d="M27.6637 19.0802C27.6595 19.063 27.6595 19.0328 27.6553 18.9853C26.6455 18.8731 23.7633 18.8041 21.0873 21.0691C21.0873 21.0691 20.2247 17.0137 16.1854 17.0137C12.1462 17.0137 10.6483 21.0691 10.6483 21.0691C8.3846 18.5711 5.35514 18.7523 4.26117 18.9163C4.26117 18.9422 4.25697 18.9724 4.25697 18.9983C4.2233 19.6238 4.24014 19.9215 4.34112 20.3141C4.65668 21.5437 5.62864 22.8984 7.15178 24.2272C9.64687 26.4017 13.0298 27.9721 15.5922 28.1533C18.264 28.3388 22.2065 26.7382 24.832 24.3998C25.2443 24.0245 25.6314 23.6275 25.9933 23.2047C26.2542 22.8941 26.6413 22.3591 26.6118 22.3591C26.6034 22.3591 26.6118 22.3505 26.6286 22.3419C26.6413 22.3332 26.6539 22.3203 26.6455 22.3117C26.6413 22.3074 26.6497 22.2944 26.6623 22.2901C26.6749 22.2858 26.6833 22.2772 26.6791 22.2685C26.6749 22.2599 26.6791 22.2513 26.696 22.247C26.7086 22.2426 26.7128 22.2297 26.7086 22.2211C26.7044 22.2124 26.7086 22.2038 26.717 22.2038C26.7254 22.2038 26.7338 22.1909 26.7338 22.1822C26.7338 22.1736 26.7422 22.1607 26.7507 22.1607C26.7591 22.1607 26.7675 22.152 26.7675 22.1434C26.7801 22.1089 26.8011 22.0744 26.8222 22.0442C26.8853 21.945 27.1377 21.4833 27.1714 21.4057C27.4112 20.8491 27.5627 20.353 27.6342 19.8568C27.6595 19.6195 27.6805 19.1838 27.6637 19.0802ZM17.1448 24.3437C17.0648 24.3912 17.0101 24.4127 16.9975 24.4041C16.9849 24.3998 16.926 24.348 16.8629 24.3006L16.7493 24.2057L16.6314 24.3351C16.3748 24.6198 16.3664 24.6328 16.2906 24.6371C16.1728 24.65 16.1476 24.6285 16.0045 24.4084C15.9288 24.2963 15.8699 24.2013 15.8699 24.2013C15.8699 24.2013 15.8152 24.1927 15.7521 24.1884L15.6342 24.1755L15.5795 24.2919L15.5248 24.4084L15.4281 24.3782C15.3523 24.3523 15.2766 24.3221 15.2051 24.2876L15.0788 24.2229V23.977L16.1981 23.9813L17.3173 23.9856L17.3215 24.1021C17.3257 24.2402 17.3299 24.2359 17.1448 24.3437ZM19.2486 23.5671C19.1854 23.8131 19.1349 24.0115 19.1349 24.0201C19.0887 24.0245 19.0466 24.0288 19.0003 24.0245H18.8657L18.6847 24.4775C18.5838 24.7234 18.4912 24.952 18.4786 24.9866L18.4533 25.047L18.365 24.9003L18.2766 24.7536V23.5585L18.2429 23.5671C18.1714 23.5844 17.6623 23.6534 17.4393 23.675C16.5178 23.7699 15.5922 23.7483 14.6749 23.6146C14.5277 23.593 14.4014 23.5758 14.3972 23.5801C14.393 23.5844 14.3972 23.8605 14.4056 24.2013L14.4183 24.814L14.3467 24.9262C14.3089 24.9866 14.271 25.0383 14.271 25.0426C14.2584 25.0556 14.2163 24.9866 14.1195 24.7881C14.0143 24.581 13.9386 24.361 13.8839 24.1323L13.8544 24.0072L13.724 24.0158L13.5936 24.0288L13.5599 23.8691C13.5431 23.7829 13.522 23.6491 13.5136 23.5758L13.501 23.4377L13.3916 23.3385C13.3285 23.2824 13.2654 23.2263 13.2528 23.2177C13.2317 23.2004 13.2233 23.1702 13.2233 23.1443V23.0926L13.7493 23.0969L14.2752 23.1012L14.292 23.1573L14.3089 23.2134L14.4898 23.222C14.5908 23.2263 14.9105 23.2349 15.1967 23.2436L15.7226 23.2565L15.8572 23.0408L15.9961 22.8251H16.1728L16.1686 22.3764L16.1644 21.9277L15.933 21.8242C15.1882 21.4876 14.7507 21.1037 14.5866 20.6377C14.5529 20.5428 14.5529 20.5083 14.5445 20.0768C14.5403 19.6497 14.5403 19.6109 14.5697 19.516C14.6286 19.3003 14.7927 19.132 15.0031 19.0759C15.0746 19.0543 15.264 19.0543 16.257 19.0543L17.4267 19.0587L17.5571 19.1234C17.7128 19.201 17.7843 19.2571 17.8727 19.3779C17.9737 19.516 18.0031 19.6238 18.0031 19.887C18.0031 20.2624 17.9779 20.5859 17.94 20.7154C17.8853 20.8923 17.8011 21.0605 17.696 21.2115C17.4856 21.4876 17.1027 21.7637 16.7535 21.8889L16.6525 21.9277L16.6567 22.3807L16.6609 22.8337L16.7535 22.8423L16.846 22.851L16.9723 23.0451L17.0943 23.2392H17.6581C17.9694 23.2392 18.2429 23.2436 18.2682 23.2479C18.3103 23.2565 18.3187 23.2522 18.3608 23.1789L18.4112 23.1012H18.8951C19.2696 23.1012 19.379 23.1055 19.379 23.1184C19.3664 23.1141 19.3117 23.3255 19.2486 23.5671Z" fill="white"/>
<path d="M27.6297 18.6403C27.6213 18.4461 27.6045 18.1743 27.5919 18.0406C27.4109 16.0819 26.9229 14.4813 25.9972 12.7857C25.9593 12.721 25.9257 12.6563 25.9046 12.6045C25.8962 12.5916 25.892 12.5786 25.8878 12.57C26.0182 12.1688 26.5526 10.4905 26.9775 8.57063C27.554 5.96477 27.92 2.91886 26.8008 2.00422C26.8008 2.00422 24.8653 1.85753 22.2735 4.46339C21.5708 5.18388 20.9271 5.96477 20.3548 6.79744L20.1739 6.73704C19.1304 6.38758 18.0491 6.17186 16.9593 6.09852C16.6311 6.07263 15.4067 6.07263 15.007 6.09852C13.7994 6.18049 12.8738 6.36601 11.8219 6.74135C11.7798 6.75861 11.7419 6.77155 11.7041 6.7845C11.1108 5.95615 10.4502 5.17957 9.72229 4.4677C7.02523 1.8489 5.01822 1.99991 5.01822 1.99991C3.83168 2.94474 4.23561 6.12872 4.84992 8.82086C5.25384 10.6027 5.75034 12.1688 5.93547 12.734C5.92285 12.7642 5.90602 12.7987 5.88919 12.8289C4.90882 14.8652 4.37867 16.8283 4.25244 18.9164C5.35062 18.7524 8.37586 18.5669 10.6437 21.0692C10.6437 21.0692 12.1416 17.0138 16.1809 17.0138C20.2202 17.0138 21.0827 21.0692 21.0827 21.0692C23.7588 18.8042 26.6409 18.8776 27.6508 18.9854C27.6466 18.8991 27.6381 18.7697 27.6297 18.6403ZM6.7307 11.1075C6.7307 11.1075 5.15707 7.07356 5.561 4.76971C5.62832 4.38142 5.75455 4.04058 5.9523 3.78172C5.9523 3.78172 7.73631 3.96293 10.6143 7.24182C10.6143 7.24182 10.0673 7.51362 9.33519 8.09174C9.33519 8.09174 9.33098 8.09605 9.32677 8.09605C8.53154 8.72163 7.51331 9.71393 6.7307 11.1075ZM13.4081 17.1001C13.3829 17.1518 13.2566 17.2079 13.1136 17.2295C12.9705 17.2511 12.5329 17.2381 12.2847 17.2079C11.3927 17.0871 10.446 16.8067 9.75595 16.4615C9.36885 16.2674 9.09115 16.0732 8.88498 15.8618L8.76717 15.7367L8.75455 15.5728C8.73351 15.288 8.73772 14.8394 8.77138 14.6797C8.79241 14.546 8.8387 14.4165 8.90181 14.3001C8.93547 14.2569 8.93547 14.2569 9.08694 14.2569C9.27208 14.2569 9.42776 14.2871 9.68021 14.3691C10.1977 14.533 10.9677 14.93 11.906 15.5081C12.6802 15.9826 12.9705 16.2156 13.1935 16.5349C13.345 16.7333 13.446 17.0138 13.4081 17.1001ZM23.3212 15.672C23.3085 15.741 23.1108 15.9481 22.913 16.0991C22.3324 16.5349 21.2931 16.9404 20.237 17.1346C19.6353 17.2467 19.0336 17.264 18.8527 17.1734C18.7349 17.113 18.7181 17.0655 18.7602 16.9102C18.8485 16.5867 19.1346 16.2329 19.5806 15.9007C19.8078 15.7324 20.7293 15.1586 21.1585 14.917C21.8653 14.5201 22.4376 14.2828 22.8247 14.2267C22.9467 14.2095 23.094 14.2051 23.1402 14.2267C23.216 14.2569 23.3001 14.4856 23.3338 14.7617C23.3506 14.9084 23.3422 15.5555 23.3212 15.672ZM22.6227 8.09174L22.6143 8.08742C21.9074 7.5093 21.3773 7.2375 21.3773 7.2375C24.1585 3.95861 25.8794 3.77741 25.8794 3.77741C26.0687 4.04058 26.1907 4.3771 26.2581 4.76539C26.6494 7.06924 25.1304 11.1075 25.1304 11.1075C24.4951 9.9469 23.6409 8.92009 22.6227 8.09174Z" fill="#FFA409"/>
<path d="M26.2624 4.76532C25.9342 4.72218 24.3816 4.71355 22.6229 8.09167L22.6145 8.08736C21.9076 7.50924 21.3774 7.23744 21.3774 7.23744C24.1586 3.95854 25.8795 3.77734 25.8795 3.77734C26.0731 4.04052 26.1951 4.37704 26.2624 4.76532Z" fill="#FF9300"/>
<path d="M25.135 11.1075C24.4954 9.9426 23.6455 8.92011 22.623 8.09175C24.3818 4.71363 25.9302 4.72226 26.2626 4.76541C26.6539 7.07357 25.135 11.1075 25.135 11.1075Z" fill="#FF8300"/>
<path d="M26.3253 4.77847C26.3043 4.77411 26.2832 4.76974 26.2622 4.76538L26.3253 4.77847Z" fill="#FF8300"/>
<path d="M10.6146 7.23744C10.6146 7.23744 10.0676 7.50924 9.33553 8.08736C9.33553 8.08736 9.33132 8.09167 9.32711 8.09167C7.50523 4.70924 5.90215 4.72218 5.55713 4.76532C5.62445 4.37704 5.75068 4.0362 5.94844 3.77734C5.95264 3.77734 7.73665 3.95854 10.6146 7.23744Z" fill="#FF9300"/>
<path d="M9.33092 8.09175C8.53148 8.72165 7.51325 9.70963 6.73064 11.1075C6.73064 11.1075 5.15701 7.07357 5.56093 4.76541C5.90175 4.72226 7.50904 4.71363 9.33092 8.09175Z" fill="#FF8300"/>
<path d="M5.56097 4.76538C5.53993 4.76974 5.51469 4.77411 5.49365 4.77847L5.56097 4.76538Z" fill="#FF8300"/>
<path d="M20.8768 13.3465C20.8768 13.3465 19.5303 13.4328 19.6986 12.3542C19.8669 11.2757 20.9188 11.1462 21.2134 11.1894C21.5079 11.2325 22.686 11.6639 22.4756 12.5699C22.2653 13.476 21.9707 13.3034 21.8024 13.3465C21.6341 13.3897 20.8768 13.3465 20.8768 13.3465Z" fill="white"/>
<path d="M10.9466 13.3465C10.9466 13.3465 9.60016 13.4328 9.76847 12.3542C9.93677 11.2757 10.9887 11.1462 11.2832 11.1894C11.5777 11.2325 12.7558 11.6639 12.5455 12.5699C12.3351 13.476 12.0406 13.3034 11.8723 13.3465C11.7039 13.3897 10.9466 13.3465 10.9466 13.3465Z" fill="white"/>
</svg>
