<svg width="32" height="24" viewBox="0 0 32 24" fill="none" xmlns="http://www.w3.org/2000/svg">
<rect width="32" height="24" rx="4" fill="#32383B"/>
<path d="M22.0133 6.51147C22.007 6.47265 21.9878 6.43701 21.9588 6.41015C21.9298 6.38329 21.8925 6.36672 21.8529 6.36307C21.7889 6.35294 20.3823 6.2567 20.3823 6.2567L19.3098 5.19663C19.2135 5.09027 18.9993 5.12167 18.9184 5.14395C18.9081 5.14395 18.7042 5.20726 18.3716 5.31413C18.0478 4.38929 17.4749 3.54042 16.4665 3.54042H16.3804C16.0909 3.17069 15.7373 3 15.4376 3C13.0887 3.01013 11.9686 5.90622 11.615 7.38617L9.97328 7.88404C9.46958 8.04257 9.45062 8.05422 9.38401 8.5288L8 19.0804L18.3752 21L23.9984 19.8017C23.9984 19.7915 22.0241 6.61276 22.0138 6.51248L22.0133 6.51147ZM17.7962 5.49242C17.5349 5.57751 17.2325 5.6626 16.9169 5.75832V5.56738C16.9271 5.09027 16.8539 4.61518 16.7027 4.16137C17.2284 4.2414 17.582 4.82487 17.7962 5.49242ZM16.0694 4.28394C16.241 4.78384 16.3256 5.31059 16.3041 5.83885V5.93407L14.4901 6.49121C14.8452 5.18093 15.4996 4.53313 16.0684 4.28951L16.0694 4.28394ZM15.3725 3.63919C15.4801 3.64172 15.5841 3.67464 15.6728 3.7344C14.916 4.08287 14.1161 4.96213 13.7728 6.72267L12.338 7.15724C12.7428 5.82113 13.6872 3.63615 15.3715 3.63615L15.3725 3.63919Z" fill="#95BF47"/>
<path d="M21.8531 6.36354C21.7891 6.35341 20.3825 6.25717 20.3825 6.25717L19.31 5.1971C19.2706 5.15658 19.2168 5.1343 19.1599 5.13379L18.377 20.9989L24.0001 19.8006L22.014 6.52156C22.0007 6.44052 21.9361 6.37569 21.8536 6.36303L21.8531 6.36354Z" fill="#5E8E3E"/>
<path d="M16.466 9.43825L15.7681 11.4743C15.3464 11.2717 14.8848 11.1639 14.4164 11.1552C13.3214 11.1552 13.2686 11.8339 13.2686 12.0041C13.2686 12.931 15.7256 13.2875 15.7256 15.4725C15.7256 17.1905 14.6204 18.2937 13.1395 18.2937C11.3584 18.2937 10.4463 17.2012 10.4463 17.2012L10.9198 15.6412C10.9198 15.6412 11.8523 16.4364 12.6476 16.4364C12.7426 16.4401 12.8375 16.4247 12.9263 16.391C13.0151 16.3574 13.0961 16.3063 13.1644 16.2408C13.2326 16.1753 13.2867 16.0967 13.3233 16.01C13.3599 15.9232 13.3782 15.8299 13.3773 15.7359C13.3773 14.5153 11.3599 14.4626 11.3599 12.4691C11.3599 10.7926 12.5825 9.15918 15.04 9.15918C16.0059 9.17336 16.4676 9.43775 16.4676 9.43775L16.466 9.43825Z" fill="white"/>
</svg>
