<svg width="32" height="32" viewBox="0 0 32 32" fill="none" xmlns="http://www.w3.org/2000/svg">
<path d="M7 2C4.23858 2 2 4.23858 2 7V25C2 27.7614 4.23858 30 7 30H25C27.7614 30 30 27.7614 30 25V7C30 4.23858 27.7614 2 25 2H7Z" fill="#3A76F0"/>
<path d="M13.6895 6.65646L13.9055 7.53146C13.0541 7.74187 12.2393 8.07925 11.4883 8.53224L11.0262 7.75841C11.8528 7.25784 12.7509 6.88625 13.6895 6.65646ZM18.3106 6.65646L18.0946 7.53146C18.946 7.74187 19.7608 8.07925 20.5118 8.53224L20.9793 7.75841C20.1506 7.25828 19.2508 6.88674 18.3106 6.65646ZM7.75864 11.0233C7.25854 11.851 6.88699 12.75 6.65669 13.6893L7.53169 13.9053C7.74211 13.0539 8.07948 12.239 8.53247 11.4881L7.75864 11.0233ZM7.27739 15.9998C7.27733 15.5623 7.31023 15.1254 7.37583 14.6928L6.48442 14.5561C6.3395 15.5122 6.3395 16.4847 6.48442 17.4408L7.37583 17.3068C7.31033 16.8742 7.27743 16.4373 7.27739 15.9998ZM20.9739 24.2385L20.5118 23.4674C19.762 23.9208 18.948 24.2582 18.0973 24.4682L18.3133 25.3432C19.2508 25.1112 20.1478 24.7387 20.9739 24.2385ZM24.7227 15.9998C24.7227 16.4373 24.6898 16.8742 24.6243 17.3068L25.5157 17.4408C25.6606 16.4847 25.6606 15.5122 25.5157 14.5561L24.6243 14.6928C24.6899 15.1254 24.7228 15.5623 24.7227 15.9998ZM25.3434 18.3076L24.4684 18.0916C24.2585 18.944 23.9211 19.7598 23.4676 20.5115L24.2415 20.9764C24.742 20.1479 25.1136 19.248 25.3434 18.3076ZM17.3071 24.624C16.4407 24.7553 15.5594 24.7553 14.693 24.624L14.559 25.5154C15.5142 25.6604 16.4859 25.6604 17.4411 25.5154L17.3071 24.624ZM23.0219 21.1733C22.5022 21.878 21.879 22.5003 21.1735 23.019L21.7094 23.7463C22.4865 23.1742 23.1741 22.4895 23.7493 21.7147L23.0219 21.1733ZM21.1735 8.97794C21.8791 9.49761 22.5023 10.1208 23.0219 10.8264L23.7493 10.285C23.1761 9.50945 22.4904 8.82378 21.7149 8.2506L21.1735 8.97794ZM8.97817 10.8264C9.49784 10.1208 10.121 9.49761 10.8266 8.97794L10.2852 8.2506C9.50969 8.82378 8.82401 9.50945 8.25083 10.285L8.97817 10.8264ZM24.2415 11.0233L23.4676 11.4881C23.921 12.2379 24.2584 13.0519 24.4684 13.9025L25.3434 13.6865C25.1131 12.7481 24.7415 11.8501 24.2415 11.0233ZM14.693 7.3756C15.5594 7.24433 16.4407 7.24433 17.3071 7.3756L17.4411 6.48419C16.4859 6.33925 15.5142 6.33925 14.559 6.48419L14.693 7.3756ZM9.44028 23.9869L7.57817 24.419L8.01294 22.5568L7.1352 22.3518L6.70044 24.2139C6.67324 24.3293 6.66906 24.449 6.68815 24.5661C6.70725 24.6831 6.74923 24.7953 6.8117 24.8961C6.87418 24.9969 6.95592 25.0844 7.05225 25.1537C7.14858 25.2229 7.2576 25.2724 7.37309 25.2994C7.50816 25.3295 7.64819 25.3295 7.78325 25.2994L9.64536 24.8701L9.44028 23.9869ZM7.32114 21.5479L8.20161 21.7502L8.50239 20.4596C8.06315 19.7228 7.736 18.9247 7.53169 18.0916L6.65669 18.3076C6.8535 19.1051 7.15122 19.8742 7.54263 20.5963L7.32114 21.5479ZM11.5321 23.5002L10.2415 23.801L10.4465 24.6815L11.3954 24.46C12.1169 24.8526 12.8862 25.1503 13.684 25.3459L13.9 24.4709C13.0695 24.2639 12.2743 23.935 11.5403 23.4947L11.5321 23.5002ZM16 8.1795C11.6797 8.18224 8.18247 11.685 8.18247 16.0025C8.18485 17.4731 8.60082 18.9134 9.38286 20.1588L8.63091 23.369L11.8383 22.617C15.4942 24.9166 20.3231 23.8201 22.6227 20.167C24.9223 16.5139 23.8286 11.685 20.1754 9.38263C18.9248 8.59617 17.4774 8.1791 16 8.1795Z" fill="white"/>
</svg>
