<svg width="32" height="32" viewBox="0 0 32 32" fill="none" xmlns="http://www.w3.org/2000/svg">
<path d="M26.9841 13.1016C26.9841 6.97038 22.0656 2.00001 15.9984 2.00001C10.5908 1.9923 5.98247 5.96382 5.13628 11.3611C4.29008 16.7584 7.45789 21.9749 12.603 23.6568V29.2193C12.603 29.6505 12.9489 30 13.3755 30H18.5903C19.017 30 19.3629 29.6505 19.3629 29.2193V23.6607C23.9007 22.1841 26.979 17.9192 26.9841 13.1016ZM15.9984 16.8529C13.9471 16.8529 12.2843 15.1725 12.2843 13.0997C12.2843 11.0268 13.9471 9.34644 15.9984 9.34644C18.0496 9.34644 19.7124 11.0268 19.7124 13.0997C19.7124 15.1725 18.0496 16.8529 15.9984 16.8529Z" fill="#2684FF"/>
<path d="M15.9983 2.00001V9.35036C18.0495 9.35036 19.7124 11.0307 19.7124 13.1036C19.7124 15.1765 18.0495 16.8568 15.9983 16.8568C16.8988 16.8568 17.7624 17.2183 18.3992 17.8618C19.036 18.5053 19.3937 19.378 19.3937 20.288V23.6646C24.5407 21.9824 27.7099 16.7642 26.8637 11.365C26.0175 5.96579 21.4078 1.99262 15.9983 2.00001Z" fill="url(#paint0_linear_214_1259)"/>
<defs>
<linearGradient id="paint0_linear_214_1259" x1="21.4912" y1="21.6543" x2="21.4912" y2="9.86171" gradientUnits="userSpaceOnUse">
<stop offset="0.18" stop-color="#0052CC"/>
<stop offset="1" stop-color="#2684FF"/>
</linearGradient>
</defs>
</svg>
