<svg width="32" height="32" viewBox="0 0 32 32" fill="none" xmlns="http://www.w3.org/2000/svg">
<path d="M26.0481 7.28847L22.6766 8.9997L6.39618 17.2608C6.34112 16.8425 6.31342 16.4211 6.31325 15.9992C6.31548 14.3159 6.75909 12.6625 7.60014 11.2025C8.4412 9.74262 9.65052 8.52692 11.1083 7.67588C12.5661 6.82483 14.2218 6.36795 15.9113 6.35051C17.6009 6.33307 19.2657 6.75566 20.7409 7.57643L22.6707 6.5969L22.9585 6.45056C21.1907 5.17231 19.1026 4.40589 16.9249 4.23598C14.7472 4.06608 12.5648 4.49931 10.6188 5.4878C8.67283 6.47629 7.03908 7.98155 5.89812 9.8372C4.75717 11.6929 4.15344 13.8267 4.15366 16.0028C4.15366 16.3033 4.16512 16.6027 4.18802 16.9009C4.22009 17.3231 4.12609 17.7454 3.91783 18.1146C3.70956 18.4838 3.39635 18.7833 3.0176 18.9756L2 19.4925V21.9035L4.99594 20.3823L5.96615 19.889L6.92215 19.404L24.0851 10.692L26.0137 9.71369L30 7.68972V5.27984L26.0481 7.28847Z" fill="black"/>
<path d="M30 10.1011L7.89711 21.3126L5.96852 22.2933L2 24.3078V26.7165L5.94128 24.7162L9.31274 23.0049L25.6097 14.732C25.6648 15.1531 25.6925 15.5772 25.6927 16.0019C25.6916 17.6871 25.2481 19.3427 24.4063 20.8044C23.5644 22.2661 22.3534 23.483 20.8935 24.3343C19.4336 25.1857 17.7756 25.6418 16.0841 25.6574C14.3925 25.6731 12.7263 25.2477 11.2508 24.4235L11.1323 24.486L9.04028 25.5482C10.8077 26.8264 12.8954 27.5931 15.0727 27.7634C17.2501 27.9337 19.4323 27.5011 21.3783 26.5133C23.3243 25.5254 24.9583 24.0209 26.0997 22.1659C27.2412 20.3109 27.8456 18.1777 27.8463 16.0019C27.8463 15.6986 27.8345 15.3953 27.812 15.0955C27.78 14.6734 27.8739 14.2512 28.0819 13.8821C28.2899 13.513 28.6028 13.2133 28.9812 13.0208L30 12.5039V10.1011Z" fill="black"/>
</svg>
