<svg width="32" height="24" viewBox="0 0 32 24" fill="none" xmlns="http://www.w3.org/2000/svg">
<rect width="32" height="24" rx="4" fill="#6366F3"/>
<path d="M17.0762 7.91762L15.2634 8.32135V6.79615L17.0762 6.3999V7.91762Z" fill="white"/>
<path fill-rule="evenodd" clip-rule="evenodd" d="M20.8461 8.7626C20.1384 8.7626 19.6834 9.10652 19.4306 9.34577L19.3367 8.88223H17.7478V17.5998L19.5534 17.2035L19.5606 15.0877C19.8206 15.2821 20.2034 15.5587 20.8389 15.5587C22.1317 15.5587 23.3089 14.4821 23.3089 12.1121C23.3017 9.94388 22.11 8.7626 20.8461 8.7626ZM20.4127 13.9138C19.9866 13.9138 19.7338 13.7568 19.5604 13.5624L19.5532 10.7887C19.741 10.5718 20.001 10.4223 20.4127 10.4223C21.0699 10.4223 21.5249 11.1849 21.5249 12.1643C21.5249 13.1662 21.0771 13.9138 20.4127 13.9138Z" fill="white"/>
<path fill-rule="evenodd" clip-rule="evenodd" d="M28.9999 12.1868C28.9999 10.2728 28.1044 8.7626 26.3927 8.7626C24.6738 8.7626 23.6338 10.2728 23.6338 12.1719C23.6338 14.4223 24.8616 15.5587 26.6238 15.5587C27.4832 15.5587 28.1332 15.3568 28.6244 15.0727V13.5774C28.1332 13.8316 27.5699 13.9886 26.8549 13.9886C26.1543 13.9886 25.5332 13.7344 25.4538 12.8522H28.9855C28.9855 12.811 28.9881 12.7174 28.9911 12.6095C28.9951 12.463 28.9999 12.2902 28.9999 12.1868ZM25.4321 11.4763C25.4321 10.6314 25.9305 10.2801 26.3855 10.2801C26.826 10.2801 27.2955 10.6314 27.2955 11.4763H25.4321Z" fill="white"/>
<path d="M15.2632 8.8896H17.076V15.4315H15.2632V8.8896Z" fill="white"/>
<path d="M13.205 8.88988L13.3206 9.44314C13.7467 8.63568 14.5917 8.80016 14.8228 8.88988V10.6095C14.5989 10.5272 13.8767 10.4226 13.4506 10.9982V15.4318H11.645V8.88988H13.205Z" fill="white"/>
<path d="M9.7094 7.2677L7.94716 7.65648L7.93994 13.6451C7.93994 14.7516 8.74161 15.5666 9.81051 15.5666C10.4027 15.5666 10.8361 15.4544 11.0744 15.3198V13.8021C10.8433 13.8993 9.70217 14.2432 9.70217 13.1367V10.4826H11.0744V8.89009H9.70217L9.7094 7.2677Z" fill="white"/>
<path d="M5.44112 10.385C5.05834 10.385 4.82723 10.4971 4.82723 10.7887C4.82723 11.1071 5.22498 11.2471 5.71843 11.4209C6.52287 11.7041 7.58166 12.0769 7.58613 13.4578C7.58613 14.7961 6.55335 15.5662 5.05112 15.5662C4.43001 15.5662 3.75111 15.4391 3.07944 15.14V13.3606C3.68611 13.7045 4.45167 13.9587 5.05112 13.9587C5.45557 13.9587 5.74446 13.8466 5.74446 13.5027C5.74446 13.15 5.31329 12.9888 4.79276 12.7942C4.00002 12.4979 3 12.124 3 10.8784C3 9.55511 3.975 8.7626 5.44112 8.7626C6.04057 8.7626 6.6328 8.8598 7.23224 9.10652V10.8635C6.68335 10.557 5.99001 10.385 5.44112 10.385Z" fill="white"/>
</svg>
