<svg width="32" height="24" viewBox="0 0 32 24" fill="none" xmlns="http://www.w3.org/2000/svg">
<rect width="32" height="24" rx="4" fill="#4560A2"/>
<path d="M9.32331 9.62212C8.64984 9.63654 8.06511 10.1324 8.06912 10.9242C8.07145 11.384 8.42648 11.7474 8.77386 12.1308C9.31007 12.7225 9.46744 12.6181 9.44275 13.2179C9.43369 13.4374 9.06956 13.7803 8.6783 13.7793C8.09863 13.7783 7.69346 13.2217 7.85412 12.5489H7.6869L7.24495 14.1497H7.41217C7.46104 13.9853 7.79138 14.0001 7.92579 13.9944C8.17896 13.9837 8.32345 14.1875 8.84552 14.1855C9.55983 14.1828 10.2618 13.7156 10.255 12.8475C10.2515 12.3971 9.97511 12.0911 9.60998 11.7366C9.04829 11.1914 8.82934 10.9308 8.92914 10.4942C9.0117 10.1329 9.26976 10.0317 9.52637 10.0283C10.0071 10.0221 10.2139 10.529 10.2789 11.0556H10.4342L10.8283 9.71768H10.6611C10.6244 9.87573 10.4312 9.88368 10.2789 9.87298C10.2103 9.86809 10.1716 9.88187 10.0042 9.8252C9.8257 9.76468 9.54431 9.61747 9.32331 9.62212ZM11.0075 9.80131L10.9597 10.0641C11.2236 10.0653 11.3188 10.0594 11.3181 10.5539V14.1497C11.3181 14.1497 11.3877 14.3075 11.4853 14.1497C11.583 13.9917 13.1695 11.3662 13.1695 11.3662V11.4499L13.1575 14.1497C13.1575 14.1497 13.2585 14.3075 13.3606 14.1497C13.4626 13.9917 15.654 10.3747 15.654 10.3747C15.7539 10.1952 15.8298 10.0703 16.084 10.0641L16.1437 9.80131H14.7939L14.7462 10.0641C15.0416 10.0647 15.2384 10.0181 15.2478 10.1955C15.2518 10.2699 15.2383 10.3296 15.1881 10.4225L14.0773 12.2383L14.0534 12.2025V10.5539C14.0544 10.4798 14.0548 10.4067 14.0534 10.3508C14.046 10.0709 14.1229 10.0647 14.34 10.0641L14.3878 9.80131H12.8828L12.835 10.0641C13.0617 10.0703 13.1607 10.136 13.1575 10.3389V10.7092L12.19 12.2741L12.1542 12.298V10.542C12.1542 10.4802 12.1548 10.3832 12.1542 10.315C12.1533 10.2193 12.1324 10.0647 12.405 10.0641L12.4767 9.80131H11.0075ZM16.3467 9.80131L16.299 10.0641C16.4223 10.0577 16.5482 10.1043 16.5617 10.2433C16.5676 10.3038 16.5318 10.3926 16.502 10.5061L15.6778 13.5762C15.6292 13.7802 15.3839 13.8894 15.0567 13.8868L15.0089 14.1497H16.7648L16.8245 13.8868C16.5144 13.8806 16.5339 13.7947 16.5379 13.6838C16.5403 13.6144 16.5738 13.5507 16.5976 13.4687L17.4337 10.3867C17.5197 10.0984 17.727 10.0705 18.0429 10.0641L18.1026 9.80131H16.3467ZM18.3415 9.80131L18.2818 10.0641C18.5434 10.0839 18.9147 10.081 18.8193 10.3867C18.7984 10.4535 18.8213 10.4228 18.7954 10.53L17.9951 13.5165C17.9328 13.7938 17.7389 13.8805 17.5054 13.8868L17.4337 14.1497H19.2971L19.3687 13.8868C18.9612 13.8858 18.7964 13.8312 18.879 13.5165C18.8966 13.4495 18.93 13.3307 18.9507 13.2298L19.3329 11.9157H19.4165C19.7808 11.9144 19.8836 11.9597 19.8943 12.1547C19.901 12.2799 19.8976 12.3815 19.9062 12.4533H20.1093L20.4199 11.1751L20.2526 11.1512C20.0804 11.5915 19.713 11.5977 19.5837 11.5932H19.4165L19.6793 10.542C19.7936 10.1536 19.8306 10.1751 20.1212 10.1716C20.6275 10.1656 20.9279 10.2486 20.8857 10.9601H21.0529L21.3635 9.80131H18.3415ZM21.6024 9.80131L21.2799 10.9601H21.471C21.5643 10.6364 21.5668 10.582 21.7577 10.4106C21.9536 10.2392 22.1642 10.1716 22.4982 10.1716L21.6263 13.3612C21.5659 13.8822 21.2661 13.8804 20.8857 13.8868L20.826 14.1497H22.7968L22.8446 13.9107C22.5924 13.9341 22.4372 13.7683 22.4863 13.5762C22.5051 13.5023 22.5399 13.3926 22.5699 13.2656L23.3821 10.1716C24.0008 10.1713 24.1248 10.4197 24.0869 10.9601H24.266L24.5766 9.80131H21.6024ZM14.137 13.6599C14.0335 13.6595 13.9246 13.7887 13.8981 13.9466C13.8715 14.1044 13.9379 14.2329 14.0414 14.2333C14.1448 14.2337 14.2537 14.1044 14.2803 13.9466C14.3069 13.7889 14.2404 13.6603 14.137 13.6599ZM17.1948 13.6599C17.0913 13.6595 16.9824 13.7887 16.9559 13.9466C16.9293 14.1044 16.9958 14.2329 17.0993 14.2333C17.2027 14.2337 17.3116 14.1044 17.3381 13.9466C17.3648 13.7889 17.2983 13.6603 17.1948 13.6599ZM19.8226 13.6599C19.7192 13.6595 19.6103 13.7887 19.5837 13.9466C19.5571 14.1044 19.6117 14.2329 19.7151 14.2333C19.8186 14.2337 19.9275 14.1044 19.954 13.9466C19.9807 13.7889 19.9261 13.6603 19.8226 13.6599ZM10.4103 13.6718C10.3069 13.6713 10.2099 13.8007 10.1833 13.9585C10.1567 14.1163 10.2113 14.2448 10.3147 14.2452C10.4182 14.2457 10.5271 14.1163 10.5536 13.9585C10.5802 13.8007 10.5137 13.6723 10.4103 13.6718ZM23.3343 13.6718C23.2309 13.6715 23.122 13.8007 23.0955 13.9585C23.0688 14.1164 23.1353 14.2449 23.2388 14.2452C23.3422 14.2457 23.4511 14.1163 23.4777 13.9585C23.5043 13.8008 23.4378 13.6723 23.3343 13.6718Z" fill="white"/>
<path fill-rule="evenodd" clip-rule="evenodd" d="M7.18355 14.7875C6.90569 13.9079 6.75583 12.9715 6.75583 12.0001C6.75583 11.0341 6.904 10.1028 7.17883 9.22749H24.8211C25.096 10.1028 25.2442 11.0341 25.2442 12.0001C25.2442 12.9715 25.0943 13.9079 24.8164 14.7875H7.18355ZM7.45934 15.5435H10.6917C10.8975 16.4924 11.2485 17.3324 11.6697 18.0647H9.0232C8.3749 17.3195 7.844 16.4695 7.45934 15.5435ZM9.76031 18.8206H12.1532C12.5497 19.3818 12.9778 19.8643 13.3902 20.2689C13.7191 20.5916 14.0392 20.8661 14.3278 21.0932C12.5858 20.7749 11.0143 19.9684 9.76031 18.8206ZM15.6071 21.076C15.523 21.0228 15.4233 20.9575 15.3112 20.8802C14.9431 20.6261 14.443 20.2429 13.9196 19.7293C13.6461 19.461 13.3674 19.1582 13.0982 18.8206H15.6071V21.076ZM15.6071 18.0647H12.5545C12.0914 17.3459 11.697 16.506 11.4669 15.5435H15.6071V18.0647ZM16.363 15.5435V18.0647H19.4705C19.9347 17.3466 20.3309 16.507 20.5643 15.5435H16.363ZM21.34 15.5435H24.5406C24.156 16.4695 23.6251 17.3195 22.9767 18.0647H20.3561C20.7785 17.3329 21.1312 16.4932 21.34 15.5435ZM19.8711 18.8206H22.2396C20.9907 19.9637 19.4269 20.7684 17.6934 21.0893C17.9771 20.8669 18.2909 20.5991 18.6133 20.2852C19.0322 19.8774 19.4678 19.3896 19.8711 18.8206ZM16.363 21.1014V18.8206H18.9251C18.65 19.1644 18.3652 19.4719 18.0861 19.7435C17.5624 20.2533 17.0631 20.6329 16.6958 20.8843C16.5667 20.9726 16.4542 21.045 16.363 21.1014ZM24.5468 8.47156H21.2561C21.0523 7.52395 20.7051 6.68389 20.2882 5.95033H22.9898C23.6357 6.69592 24.1642 7.5459 24.5468 8.47156ZM22.256 5.19441H19.8109C19.4139 4.62499 18.9847 4.13543 18.5715 3.72505C18.248 3.40387 17.9331 3.12984 17.6488 2.90255C19.4077 3.21924 20.9937 4.03352 22.256 5.19441ZM16.363 2.90563C16.4465 2.95931 16.5455 3.02516 16.6569 3.1032C17.0224 3.35925 17.519 3.74511 18.0389 4.26145C18.3158 4.53648 18.5983 4.84741 18.8708 5.19441H16.363V2.90563ZM16.363 5.95033H19.4064C19.8642 6.67067 20.2537 7.51073 20.4813 8.47156H16.363V5.95033ZM15.6071 8.47156V5.95033H12.4966C12.0286 6.66991 11.6304 7.50977 11.3976 8.47156H15.6071ZM10.622 8.47156H7.45314C7.83572 7.5459 8.3643 6.69592 9.01018 5.95033H11.6095C11.1843 6.68318 10.8301 7.52306 10.622 8.47156ZM12.0972 5.19441H9.74396C10.9941 4.04466 12.5618 3.23491 14.3005 2.91181C14.0164 3.13349 13.7031 3.39933 13.3814 3.70985C12.9535 4.1229 12.5083 4.61739 12.0972 5.19441ZM15.6071 2.91586V5.19441H13.0451C13.3271 4.84393 13.6196 4.53048 13.9063 4.25377C14.4374 3.74109 14.9443 3.35868 15.3172 3.10512C15.4265 3.03088 15.524 2.9678 15.6071 2.91586ZM6 12.0001C6 17.5228 10.4772 22 15.9999 22C21.5226 22 26 17.5228 26 12.0001C26 6.47718 21.5226 2 15.9999 2C10.4772 2 6 6.47719 6 12.0001Z" fill="white"/>
</svg>
