<svg width="32" height="32" viewBox="0 0 32 32" fill="none" xmlns="http://www.w3.org/2000/svg">
<path d="M15.9985 29.997C23.7296 29.997 29.997 23.7296 29.997 15.9985C29.997 8.26734 23.7296 2 15.9985 2C8.26734 2 2 8.26734 2 15.9985C2 23.7296 8.26734 29.997 15.9985 29.997Z" fill="url(#paint0_linear_214_831)"/>
<path d="M11.3877 12.5181C11.2758 12.3792 11.1061 12.302 10.9247 12.302H7.18587C7.155 12.302 7.12799 12.2904 7.10484 12.2711C7.08555 12.2519 7.07397 12.2287 7.07397 12.2017V9.68212C7.07397 9.65511 7.08555 9.63196 7.10484 9.61267C7.12799 9.58952 7.155 9.57794 7.18587 9.5818H11.1369C12.1324 9.5818 12.9929 9.9908 13.7182 10.8049L14.679 11.9779L12.8076 14.2583L11.3877 12.5181ZM18.2944 10.7934C19.0159 9.98694 19.8802 9.5818 20.8873 9.5818H24.8267C24.8538 9.57794 24.8808 9.58952 24.9001 9.60495C24.9193 9.62425 24.9271 9.65125 24.9232 9.68212V12.2017C24.9232 12.2287 24.9155 12.2519 24.9001 12.2711C24.8808 12.2943 24.8538 12.3059 24.8267 12.302H21.0879C20.9104 12.2982 20.7406 12.3792 20.6249 12.5181L17.8699 15.8711L20.6365 19.2472C20.7484 19.3746 20.9143 19.4517 21.084 19.4479H24.8229C24.8499 19.444 24.8808 19.4595 24.8962 19.4787C24.9116 19.5019 24.9232 19.5328 24.9193 19.5598V22.0793C24.9193 22.1064 24.9116 22.1295 24.8962 22.1488C24.8769 22.172 24.8499 22.1835 24.8229 22.1797H20.8873C19.8802 22.1797 19.0236 21.7707 18.3059 20.9565L16.014 18.1592L13.7221 20.9565C13.0006 21.7707 12.1363 22.1797 11.1292 22.1797H7.18587C7.15886 22.1835 7.12799 22.1681 7.11256 22.1488C7.09327 22.1257 7.08555 22.0948 7.08941 22.0678V19.5482C7.08941 19.5212 7.09713 19.498 7.11256 19.4787C7.13185 19.4556 7.15886 19.444 7.18587 19.4479H10.9247C11.1022 19.4479 11.272 19.3669 11.3877 19.2318L14.0925 15.929L18.2944 10.7934Z" fill="#00D1FF"/>
<defs>
<linearGradient id="paint0_linear_214_831" x1="16.0004" y1="1.99992" x2="16.0004" y2="9.40816" gradientUnits="userSpaceOnUse">
<stop stop-color="#090220"/>
<stop offset="1" stop-color="#170659"/>
</linearGradient>
</defs>
</svg>
