<svg width="32" height="32" viewBox="0 0 32 32" fill="none" xmlns="http://www.w3.org/2000/svg">
<path d="M16.0204 15.807C17.1613 15.807 17.6727 15.7769 17.7717 15.7696L17.7684 15.7688C21.2686 15.6159 23.8796 15.0145 23.8796 14.2959C23.8796 13.5774 21.2678 12.9759 17.7684 12.8223V15.1713C17.6702 15.1803 17.125 15.225 16.036 15.225C15.1286 15.225 14.472 15.1868 14.2426 15.1705V12.8207C10.7358 12.9751 8.11827 13.5758 8.11827 14.2959C8.11827 15.0161 10.7358 15.6176 14.2426 15.7696C14.4687 15.7801 15.1129 15.807 16.0204 15.807Z" fill="#50AF95"/>
<path fill-rule="evenodd" clip-rule="evenodd" d="M2.02099 14.6845L7.12654 4.11787C7.14325 4.08229 7.17006 4.05222 7.20372 4.03131C7.23739 4.0104 7.27648 3.99953 7.31628 4.00002H24.6854C24.725 3.99991 24.7638 4.01105 24.7971 4.03209C24.8305 4.05314 24.857 4.0832 24.8735 4.11869L29.979 14.6853C29.9984 14.7246 30.0046 14.769 29.9966 14.812C29.9886 14.855 29.9668 14.8943 29.9345 14.9243L16.1456 27.9423C16.1064 27.9793 16.0543 28 16 28C15.9457 28 15.8936 27.9793 15.8544 27.9423L2.06554 14.9235C2.0332 14.8935 2.01144 14.8542 2.00342 14.8112C1.99541 14.7682 2.00156 14.7238 2.02099 14.6845ZM17.7717 10.4765V12.5793C21.7335 12.7598 24.7103 13.5328 24.7103 14.4601C24.7103 15.3875 21.7306 16.1614 17.7709 16.341V23.0817H14.2418V16.3434C10.273 16.163 7.28838 15.3892 7.28838 14.4609C7.28838 13.5327 10.273 12.7581 14.2418 12.5785V10.4765H9.35898V7.26995H22.6554V10.4765H17.7717Z" fill="#50AF95"/>
</svg>
