<svg width="32" height="32" viewBox="0 0 32 32" fill="none" xmlns="http://www.w3.org/2000/svg">
<path d="M19.0063 30C17.0047 30 15.5437 29.5187 14.6234 28.5562C13.7708 27.7415 13.2761 26.6229 13.2473 25.4451C13.2369 25.0873 13.32 24.7329 13.4883 24.4169C13.6454 24.1438 13.8722 23.9172 14.1457 23.7602C14.4635 23.602 14.8139 23.5196 15.1691 23.5196C15.5243 23.5196 15.8746 23.602 16.1925 23.7602C16.4655 23.9166 16.6912 24.1434 16.8461 24.4169C17.0193 24.7314 17.1055 25.0863 17.0958 25.4451C17.1137 25.8736 16.9905 26.2962 16.7452 26.6483C16.5407 26.9356 16.2484 27.1491 15.9121 27.2568C16.241 27.6747 16.7063 27.9642 17.227 28.075C17.8095 28.2439 18.4129 28.3307 19.0195 28.333C19.8227 28.34 20.6093 28.1052 21.2767 27.6593C21.9692 27.171 22.4855 26.473 22.7493 25.6687C23.0837 24.7115 23.2469 23.703 23.2314 22.6894C23.2584 21.6327 23.0798 20.5807 22.7055 19.5918C22.4239 18.8009 21.8895 18.1245 21.1846 17.6668C20.5295 17.253 19.7689 17.0358 18.9936 17.0413C18.318 17.0984 17.6666 17.3191 17.0958 17.6844L15.6885 18.3887V17.6844L22.0129 9.21532H13.2473V18.0038C13.2225 18.638 13.3906 19.2648 13.7294 19.8019C13.8933 20.0359 14.115 20.2237 14.373 20.3471C14.631 20.4705 14.9166 20.5253 15.202 20.5062C15.7294 20.4955 16.2394 20.3161 16.657 19.9944C17.1303 19.6481 17.5422 19.2251 17.8755 18.7431C17.9055 18.6585 17.9608 18.5852 18.034 18.5332C18.0927 18.4825 18.1677 18.4546 18.2453 18.4544C18.3975 18.4683 18.5416 18.5295 18.6573 18.6293C18.8038 18.7927 18.8835 19.005 18.8808 19.2243C18.8638 19.3717 18.8375 19.5178 18.8019 19.6618C18.4905 20.4141 17.9685 21.061 17.2985 21.5249C16.6761 21.9453 15.9411 22.1682 15.1897 22.1644C13.2918 22.1644 11.9771 21.7911 11.2454 21.0444C10.8693 20.6317 10.5794 20.1483 10.3928 19.6224C10.2062 19.0965 10.1265 18.5388 10.1584 17.9818V9.21532H5.69995V7.58242H10.1792V3.85928L9.15367 2.8349V2H12.1295L13.2473 2.57758V7.58242L24.8266 7.54727L25.9794 8.70225L18.8792 15.8242C19.3081 15.652 19.7599 15.543 20.2202 15.5005C21.1314 15.5403 22.0204 15.7936 22.8154 16.2399C23.7359 16.6767 24.5117 17.3678 25.0508 18.2312C25.5338 18.9621 25.8757 19.7768 26.0588 20.6331C26.2094 21.3086 26.2902 21.9977 26.2999 22.6896C26.3046 24.0101 26.0047 25.3139 25.4233 26.5001C24.8721 27.6487 23.9442 28.5749 22.7935 29.1252C21.6156 29.7046 20.3194 30.004 19.0063 30Z" fill="#2C7DF7"/>
</svg>
