<svg width="32" height="32" viewBox="0 0 32 32" fill="none" xmlns="http://www.w3.org/2000/svg">
<path d="M22.6755 14.9775C22.5553 14.9197 22.4333 14.864 22.3096 14.8107C22.0943 10.8285 19.9264 8.54865 16.2862 8.52531C16.2697 8.52521 16.2533 8.52521 16.2368 8.52521C14.0595 8.52521 12.2487 9.45805 11.1342 11.1555L13.1361 12.5339C13.9688 11.266 15.2755 10.9957 16.2378 10.9957C16.2489 10.9957 16.2601 10.9957 16.2711 10.9958C17.4696 11.0035 18.3741 11.3533 18.9595 12.0354C19.3855 12.532 19.6704 13.2182 19.8115 14.0843C18.7488 13.903 17.5995 13.8473 16.3709 13.918C12.91 14.1181 10.6851 16.1441 10.8345 18.9592C10.9103 20.3872 11.6191 21.6157 12.8302 22.4183C13.8541 23.0967 15.1728 23.4285 16.5434 23.3534C18.3534 23.2537 19.7734 22.5606 20.764 21.2932C21.5163 20.3307 21.9922 19.0834 22.2022 17.5117C23.0648 18.0342 23.7041 18.7218 24.0572 19.5484C24.6575 20.9535 24.6926 23.2625 22.8155 25.1449C21.171 26.794 19.1941 27.5074 16.2065 27.5294C12.8925 27.5048 10.3862 26.438 8.7566 24.3587C7.23065 22.4117 6.44203 19.5995 6.41261 16C6.44203 12.4005 7.23065 9.58823 8.7566 7.64123C10.3862 5.56196 12.8925 4.49521 16.2065 4.47049C19.5446 4.4954 22.0946 5.56729 23.7865 7.65658C24.6161 8.68115 25.2416 9.96962 25.654 11.4719L28 10.8437C27.5002 8.99449 26.7137 7.40104 25.6435 6.07954C23.4744 3.40097 20.3021 2.02846 16.2147 2H16.1983C12.1192 2.02836 8.98239 3.4061 6.87509 6.0949C4.99989 8.4876 4.0326 11.8169 4.0001 15.9902L4 16L4.0001 16.0098C4.0326 20.1831 4.99989 23.5125 6.87509 25.9051C8.98239 28.5939 12.1192 29.9717 16.1983 30H16.2147C19.8412 29.9748 22.3975 29.0217 24.5034 26.9099C27.2586 24.1471 27.1756 20.684 26.2675 18.5581C25.616 17.0335 24.3739 15.7953 22.6755 14.9775ZM16.4139 20.8864C14.897 20.9722 13.3212 20.2888 13.2435 18.8251C13.1859 17.7398 14.0129 16.5288 16.507 16.3845C16.7926 16.368 17.0728 16.3599 17.3482 16.3599C18.2541 16.3599 19.1016 16.4482 19.872 16.6173C19.5847 20.2197 17.899 20.8046 16.4139 20.8864Z" fill="black"/>
</svg>
