<svg width="32" height="32" viewBox="0 0 32 32" fill="none" xmlns="http://www.w3.org/2000/svg">
<path fill-rule="evenodd" clip-rule="evenodd" d="M16 2C23.732 2 30 8.26801 30 16C30 23.732 23.732 30 16 30C8.26801 30 2 23.732 2 16C2 8.26801 8.26801 2 16 2ZM18.7554 14.0017L16.0007 16.757L18.7558 19.5127L16.0005 22.2686L13.2445 19.5127L16.0004 16.7571L13.2445 14.0014L16.0005 11.2467L18.7556 14.0012L21.5113 11.2463L24.2666 14.0016L21.5113 16.7574L18.7554 14.0017ZM13.2447 14.0016L10.4889 16.7574L7.73344 14.0016L10.4889 11.2463L13.2447 14.0016Z" fill="black"/>
</svg>
