<svg width="32" height="32" viewBox="0 0 32 32" fill="none" xmlns="http://www.w3.org/2000/svg">
<path d="M5.52763 2C3.60679 2 2.03687 3.57304 2.03687 5.49769V26.5023C2.03687 28.427 3.60679 30 5.52763 30H26.5092C28.43 30 29.9999 28.427 29.9999 26.5023V5.51619C29.9999 3.59154 28.43 2.0185 26.5092 2.0185H5.52763V2Z" fill="#E44332"/>
<path d="M7.9657 15.269L19.1953 8.71779C19.4354 8.56974 19.4538 8.1441 19.1768 7.99605C18.8997 7.848 18.4011 7.5519 18.1979 7.44086C17.9208 7.29281 17.6069 7.29281 17.3298 7.45936C17.2005 7.53339 8.22428 12.7707 7.91029 12.9372C7.55937 13.1408 7.09763 13.1408 6.7467 12.9372L2 10.1428V12.5116C3.14512 13.1963 6.02639 14.8804 6.72823 15.2875C7.15304 15.5096 7.55937 15.5096 7.9657 15.269ZM7.9657 19.7475L19.1953 13.1963C19.4354 13.0483 19.4538 12.6226 19.1768 12.4746C18.8997 12.3265 18.4011 12.0304 18.1979 11.9194C17.9208 11.7713 17.6069 11.7713 17.3298 11.9379C17.2005 12.0119 8.22428 17.2492 7.91029 17.4157C7.55937 17.6193 7.09763 17.6193 6.7467 17.4157L2 14.6213V16.9901C3.14512 17.6748 6.02639 19.3589 6.72823 19.766C7.15304 19.9881 7.55937 19.9881 7.9657 19.7475ZM7.9657 24.5222L19.1953 17.9709C19.4354 17.8229 19.4538 17.3972 19.1768 17.2492C18.8997 17.1011 18.4011 16.805 18.1979 16.694C17.9208 16.5459 17.6069 16.5459 17.3298 16.7125C17.2005 16.7865 8.22428 22.0238 7.91029 22.1904C7.55937 22.3939 7.09763 22.3939 6.7467 22.1904L2 19.3959V21.7462C3.14512 22.4309 6.02639 24.115 6.72823 24.5222C7.15304 24.7442 7.55937 24.7442 7.9657 24.5222Z" fill="white"/>
</svg>
