<svg width="32" height="32" viewBox="0 0 32 32" fill="none" xmlns="http://www.w3.org/2000/svg">
<path d="M16 30C23.732 30 30 23.732 30 16C30 8.26801 23.732 2 16 2C8.26801 2 2 8.26801 2 16C2 23.732 8.26801 30 16 30Z" fill="#0088CC"/>
<path fill-rule="evenodd" clip-rule="evenodd" d="M12.1001 11.25H19.9501C20.2501 11.25 20.5001 11.3 20.8001 11.45C21.1501 11.6 21.3501 11.85 21.4501 12.05C21.4501 12.05 21.4501 12.1 21.5001 12.1C21.6501 12.35 21.7501 12.65 21.7501 13C21.7501 13.3 21.7001 13.6 21.5001 13.9L16.5501 22.4C16.4501 22.6 16.2501 22.7 16.0001 22.7C15.8001 22.7 15.6001 22.6 15.4501 22.4L10.6001 13.9C10.5001 13.7 10.3001 13.45 10.3001 13.05C10.2501 12.7 10.3501 12.4 10.5001 12.1C10.6501 11.8 10.9001 11.55 11.2501 11.45C11.5501 11.25 11.9001 11.25 12.1001 11.25ZM15.4001 12.45H12.1001C11.9001 12.45 11.8001 12.45 11.7501 12.5C11.6501 12.55 11.6001 12.6 11.5501 12.7C11.5001 12.75 11.5001 12.85 11.5001 12.95C11.5001 13 11.5501 13.05 11.6501 13.25L15.4001 19.75V12.45ZM16.6001 12.45V19.8L20.4001 13.25C20.4501 13.15 20.4501 13.05 20.4501 12.95C20.4501 12.85 20.4501 12.75 20.4001 12.7C20.3501 12.65 20.3501 12.6 20.3001 12.6L20.2501 12.55C20.1501 12.5 20.0501 12.5 19.9001 12.5H16.6001V12.45Z" fill="white"/>
</svg>
