<svg width="32" height="32" viewBox="0 0 32 32" fill="none" xmlns="http://www.w3.org/2000/svg">
<path d="M28.6464 10.4354C27.364 9.2235 25.5902 7.37287 24.1454 6.06037L24.0599 5.99912C23.9177 5.88221 23.7573 5.79053 23.5855 5.72787C20.1019 5.06287 3.88907 1.961 3.57277 2.00037C3.48414 2.01308 3.39942 2.04597 3.32485 2.09662L3.24364 2.16225C3.14364 2.2662 3.06769 2.39178 3.02137 2.52975L3 2.58662V2.89725V2.94537C4.82517 8.14725 12.0318 25.1879 13.4509 29.1866C13.5364 29.4579 13.6988 29.9741 14.0023 30.0004H14.0707C14.2331 30.0004 14.9256 29.0641 14.9256 29.0641C14.9256 29.0641 27.3042 13.6991 28.5566 12.0629C28.7187 11.8613 28.8618 11.6445 28.984 11.4154C29.0152 11.2361 29.0005 11.0516 28.9414 10.8798C28.8822 10.7081 28.7805 10.555 28.6464 10.4354ZM18.1014 12.2247L23.3846 7.74037L26.4835 10.6629L18.1014 12.2247ZM16.0497 11.9316L6.95381 4.30162L21.6706 7.07975L16.0497 11.9316ZM16.8704 13.931L26.18 12.3954L15.5368 25.5204L16.8704 13.931ZM5.71851 5.06287L15.2889 13.3754L13.904 25.5291L5.71851 5.06287Z" fill="#FF060A"/>
</svg>
