<svg width="32" height="32" viewBox="0 0 32 32" fill="none" xmlns="http://www.w3.org/2000/svg">
<path d="M2 16C2 23.7175 8.25626 30 15.9737 30C23.6912 30 29.9475 23.7175 29.9475 16C29.9475 8.28251 23.6912 2 15.9737 2C8.25626 2 2 8.28251 2 16Z" fill="#314358"/>
<path d="M19.6971 20.9492C19.3724 21.1041 18.7514 21.2389 18.2883 21.2505C16.8901 21.2879 16.6188 20.2684 16.6075 19.5293V14.0929H20.1146V11.4486H16.6196V7C16.6196 7 14.1031 7 14.0621 7C14.02 7 13.9465 7.03686 13.9361 7.13038C13.7865 8.49188 13.1495 10.8815 10.5 11.837V14.0928H12.2675V19.7985C12.2675 21.7523 13.7086 24.5279 17.513 24.4624C18.7966 24.4404 20.2222 23.9031 20.537 23.4393L19.6971 20.9492Z" fill="white"/>
</svg>
