<svg width="32" height="32" viewBox="0 0 32 32" fill="none" xmlns="http://www.w3.org/2000/svg">
<path d="M10.8057 27.5C21.3722 27.5 27.1507 18.6521 27.1507 10.9796C27.1507 10.7283 27.1457 10.4782 27.1344 10.2291C28.2588 9.40677 29.2292 8.38864 30 7.2224C28.9707 7.68493 27.863 7.99623 26.701 8.13659C27.8871 7.41778 28.7976 6.2806 29.2272 4.9251C28.0995 5.60124 26.8658 6.07788 25.5794 6.33448C24.5311 5.20587 23.0386 4.5 21.3861 4.5C18.2136 4.5 15.6411 7.10027 15.6411 10.3055C15.6411 10.7612 15.6915 11.2043 15.7901 11.6294C11.0156 11.3866 6.78191 9.07614 3.9485 5.56295C3.43818 6.44904 3.16976 7.45611 3.17065 8.4813C3.17065 10.4958 4.1848 12.2741 5.72707 13.3145C4.8148 13.2863 3.92255 13.0372 3.12535 12.5882C3.1245 12.6126 3.1245 12.6364 3.1245 12.6624C3.1245 15.4743 5.10464 17.8221 7.73323 18.3541C7.23954 18.49 6.73012 18.5587 6.21844 18.5584C5.84892 18.5584 5.48879 18.5217 5.13879 18.4538C5.87015 20.7608 7.99086 22.4396 10.5052 22.4865C8.53902 24.0441 6.06222 24.9719 3.37029 24.9719C2.91236 24.9723 2.4548 24.9454 2 24.8915C4.54242 26.5385 7.56102 27.5 10.8057 27.5Z" fill="#1D9BF0"/>
</svg>
