<svg width="32" height="32" viewBox="0 0 32 32" fill="none" xmlns="http://www.w3.org/2000/svg">
<path d="M27.887 2H4.11922C2.95021 2 2 2.95 2 4.11875V27.875C2 29.05 2.95021 30 4.11922 30H27.8807C29.0498 30 30 29.05 30 27.8813V4.11875C30.0062 2.95 29.056 2 27.887 2ZM16.8533 24.4438C12.1898 24.9125 8.02634 21.5125 7.55748 16.85H13.4588V18.125C13.4588 18.3563 13.6463 18.55 13.8839 18.55H18.1286C18.3599 18.55 18.5537 18.3625 18.5537 18.125V13.8813C18.5537 13.65 18.3661 13.4563 18.1286 13.4563H13.8839C13.6526 13.4563 13.4588 13.6438 13.4588 13.8813V15.1562H7.55748C7.99508 10.8188 11.6459 7.51875 16.0031 7.51875C20.3603 7.51875 24.0111 10.8188 24.4487 15.1562C24.9176 19.8125 21.5168 23.975 16.8533 24.4438Z" fill="black"/>
</svg>
