<svg width="32" height="32" viewBox="0 0 32 32" fill="none" xmlns="http://www.w3.org/2000/svg">
<path d="M13.41 8.36823C13.1106 8.32491 13.0963 8.31047 13.2389 8.29603C13.5098 8.25271 14.137 8.31047 14.579 8.41155C15.6054 8.65704 16.532 9.29242 17.5157 10.4043L17.7723 10.7076L18.143 10.6498C19.7254 10.3899 21.3506 10.5921 22.7049 11.2274C23.0756 11.4007 23.6601 11.7473 23.7314 11.8339C23.7599 11.8628 23.8026 12.0505 23.8311 12.2383C23.9309 12.917 23.8882 13.4224 23.6743 13.8123C23.5603 14.0289 23.5603 14.0866 23.6316 14.2744C23.6886 14.4188 23.8597 14.5199 24.0165 14.5199C24.3586 14.5199 24.715 13.9711 24.8861 13.2058L24.9574 12.9025L25.0857 13.0469C25.8127 13.87 26.383 15.0108 26.4685 15.8195L26.497 16.0361L26.3687 15.8484C26.1549 15.5162 25.9553 15.2996 25.6844 15.1119C25.1997 14.7798 24.6865 14.6787 23.3322 14.6065C22.1062 14.5343 21.4076 14.4332 20.7233 14.2022C19.5543 13.8123 18.9556 13.3069 17.5727 11.444C16.9597 10.6209 16.5748 10.1733 16.1899 9.79783C15.3488 8.97473 14.5077 8.54152 13.41 8.36823Z" fill="#FF007A"/>
<path d="M24.0307 10.2022C24.0592 9.65343 24.1305 9.29242 24.2873 8.96029C24.3444 8.83032 24.4014 8.7148 24.4156 8.7148C24.4299 8.7148 24.4014 8.81588 24.3586 8.93141C24.2446 9.2491 24.2303 9.69675 24.3016 10.2022C24.4014 10.852 24.4442 10.9386 25.1284 11.6462C25.4421 11.9783 25.8127 12.3971 25.9553 12.5704L26.1976 12.8881L25.9553 12.657C25.6559 12.3682 24.9716 11.8195 24.8148 11.7473C24.715 11.6895 24.7008 11.6895 24.6295 11.7617C24.5725 11.8195 24.5582 11.9061 24.5582 12.3249C24.5439 12.9747 24.4584 13.3791 24.2446 13.7978C24.1305 14.0144 24.1163 13.9711 24.2161 13.7256C24.2873 13.5379 24.3016 13.4513 24.3016 12.8303C24.3016 11.574 24.159 11.2708 23.2894 10.7653C23.0756 10.6354 22.7049 10.4477 22.4911 10.3466C22.263 10.2455 22.0919 10.1588 22.1062 10.1588C22.1347 10.13 22.9758 10.3755 23.3037 10.5199C23.8026 10.722 23.8882 10.7365 23.9452 10.722C23.988 10.6787 24.0165 10.5632 24.0307 10.2022Z" fill="#FF007A"/>
<path d="M13.9945 12.3538C13.3957 11.5162 13.0108 10.2166 13.0963 9.2491L13.1249 8.94585L13.2674 8.97473C13.524 9.01805 13.966 9.19134 14.1798 9.3213C14.75 9.66787 15.0067 10.1444 15.249 11.3285C15.3203 11.6751 15.4201 12.0794 15.4628 12.2094C15.5341 12.426 15.805 12.9314 16.0331 13.2491C16.1899 13.4801 16.0901 13.5957 15.7337 13.5668C15.192 13.509 14.4649 13.0036 13.9945 12.3538Z" fill="#FF007A"/>
<path d="M23.3037 18.6354C20.481 17.4801 19.483 16.4838 19.483 14.7942C19.483 14.5487 19.4973 14.3466 19.4973 14.3466C19.5116 14.3466 19.6114 14.4332 19.7397 14.5343C20.3099 14.9964 20.9514 15.1986 22.7334 15.4585C23.7741 15.6173 24.3729 15.7329 24.9146 15.9206C26.6396 16.4982 27.7088 17.6823 27.9654 19.2852C28.0367 19.7473 27.9939 20.6282 27.8799 21.0903C27.7801 21.4513 27.4949 22.1155 27.4237 22.13C27.4094 22.13 27.3809 22.0578 27.3809 21.9422C27.3524 21.3357 27.053 20.7581 26.554 20.3105C25.9553 19.7906 25.1855 19.4007 23.3037 18.6354Z" fill="#FF007A"/>
<path d="M21.3078 19.1119C21.2793 18.8953 21.208 18.6209 21.1653 18.5054L21.094 18.2888L21.2223 18.4477C21.4076 18.6643 21.5502 18.9242 21.6785 19.2852C21.7783 19.5596 21.7783 19.6462 21.7783 20.0939C21.7783 20.5271 21.764 20.6282 21.6785 20.8736C21.5359 21.2635 21.3648 21.5379 21.0797 21.8412C20.5665 22.3755 19.8965 22.6643 18.9413 22.7942C18.7702 22.8087 18.2855 22.852 17.8579 22.8809C16.7887 22.9386 16.0759 23.0542 15.4343 23.2852C15.3488 23.3141 15.2633 23.343 15.249 23.3285C15.2205 23.2996 15.6624 23.0397 16.0188 22.8664C16.5178 22.6209 17.031 22.491 18.1572 22.2888C18.7132 22.2022 19.2835 22.0866 19.426 22.0289C20.8374 21.5812 21.5359 20.4693 21.3078 19.1119Z" fill="#FF007A"/>
<path d="M22.6051 21.4368C22.2345 20.6137 22.1489 19.8339 22.3485 19.0975C22.377 19.0253 22.4055 18.9531 22.4341 18.9531C22.4626 18.9531 22.5481 18.9964 22.6336 19.0542C22.8047 19.1697 23.1611 19.3718 24.0735 19.8773C25.2282 20.5126 25.884 21.0036 26.3402 21.5668C26.7394 22.0578 26.9817 22.6209 27.0958 23.3141C27.1671 23.704 27.1243 24.6426 27.0245 25.0325C26.7109 26.2599 25.9981 27.2419 24.9574 27.8051C24.8006 27.8917 24.6723 27.9495 24.658 27.9495C24.6437 27.9495 24.7008 27.8051 24.7863 27.6318C25.1284 26.8953 25.1712 26.1877 24.9146 25.3935C24.7578 24.9025 24.4299 24.3105 23.7741 23.3141C22.99 22.1588 22.8047 21.8556 22.6051 21.4368Z" fill="#FF007A"/>
<path d="M11.9844 25.8556C13.0393 24.9603 14.3366 24.3249 15.5341 24.1227C16.0473 24.0361 16.9027 24.065 17.3732 24.1949C18.1287 24.3971 18.813 24.8303 19.1694 25.3646C19.5116 25.8845 19.6684 26.3321 19.8252 27.3285C19.8822 27.7184 19.9535 28.1227 19.9678 28.2094C20.0818 28.7292 20.3099 29.1336 20.595 29.3502C21.037 29.6823 21.8068 29.6968 22.5624 29.4079C22.6907 29.3646 22.8047 29.3213 22.8047 29.3357C22.8332 29.3646 22.4483 29.6245 22.1917 29.7545C21.8353 29.9422 21.5502 30 21.1653 30C20.481 30 19.8965 29.639 19.426 28.917C19.3262 28.7726 19.1266 28.3538 18.9556 27.9639C18.4566 26.7942 18.2 26.4477 17.6155 26.0578C17.1023 25.7256 16.4465 25.6534 15.9476 25.8989C15.2918 26.2166 15.1207 27.0686 15.5769 27.5884C15.7622 27.8051 16.1044 27.9783 16.3895 28.0217C16.917 28.0939 17.3732 27.6751 17.3732 27.1408C17.3732 26.7942 17.2449 26.5921 16.9027 26.4332C16.4465 26.231 15.9476 26.4621 15.9618 26.9097C15.9618 27.0975 16.0473 27.213 16.2327 27.2996C16.3467 27.3574 16.3467 27.3574 16.2612 27.343C15.8478 27.2563 15.748 26.7365 16.0759 26.4043C16.475 26 17.3161 26.1733 17.6013 26.7365C17.7153 26.9675 17.7296 27.4296 17.6298 27.7184C17.3874 28.3538 16.7031 28.6859 16.0046 28.4982C15.5341 28.3682 15.3345 28.2383 14.7643 27.6462C13.7664 26.6065 13.3815 26.4043 11.9559 26.1877L11.685 26.1444L11.9844 25.8556Z" fill="#FF007A"/>
<path fill-rule="evenodd" clip-rule="evenodd" d="M4.48558 2.62094C7.80724 6.70758 12.9252 13.0614 13.1818 13.4079C13.3956 13.6968 13.3101 13.9711 12.9537 14.1733C12.7541 14.2888 12.3407 14.4043 12.1411 14.4043C11.913 14.4043 11.6421 14.2888 11.4568 14.1011C11.3285 13.9711 10.7725 13.148 9.51797 11.1697C8.56281 9.65343 7.75022 8.39711 7.73596 8.38267C7.67894 8.35379 7.67894 8.35379 9.41818 11.5018C10.5159 13.4801 10.8723 14.1877 10.8723 14.2744C10.8723 14.4621 10.8153 14.5632 10.5872 14.8231C10.2023 15.2563 10.0312 15.7473 9.90288 16.7726C9.76032 17.9134 9.37541 18.722 8.27769 20.0939C7.63617 20.9025 7.53638 21.0469 7.37956 21.3791C7.17998 21.7834 7.12295 22.0144 7.09444 22.5343C7.06593 23.083 7.12295 23.4296 7.27977 23.9495C7.42233 24.4116 7.57915 24.7148 7.96406 25.3069C8.29195 25.8267 8.49153 26.2166 8.49153 26.361C8.49153 26.4765 8.52004 26.4765 9.03326 26.361C10.2593 26.0722 11.2715 25.5812 11.8274 24.9747C12.1696 24.5993 12.2551 24.3971 12.2551 23.8773C12.2551 23.5451 12.2409 23.4729 12.1553 23.2708C12.0128 22.9531 11.7419 22.6931 11.1574 22.2888C10.3876 21.7545 10.0597 21.3213 9.97416 20.7437C9.90288 20.2527 9.98842 19.9206 10.4161 19.0108C10.858 18.0722 10.9721 17.6823 11.0434 16.7292C11.0861 16.1227 11.1574 15.8773 11.3285 15.6895C11.5138 15.4874 11.6706 15.4152 12.1126 15.3574C12.8396 15.2563 13.3101 15.0686 13.6807 14.7076C14.0086 14.4043 14.1512 14.1011 14.1654 13.6534L14.1797 13.3213L13.9944 13.1191C13.3243 12.3394 4.04365 2 4.00088 2C3.98662 2 4.21472 2.27437 4.48558 2.62094ZM8.86219 23.1552C9.01901 22.8809 8.93347 22.5343 8.67686 22.361C8.43451 22.2022 8.06385 22.2744 8.06385 22.491C8.06385 22.5487 8.09236 22.6065 8.1779 22.6354C8.3062 22.7076 8.32046 22.7798 8.22067 22.9386C8.12088 23.0975 8.12088 23.2419 8.24918 23.343C8.44876 23.5018 8.71963 23.4152 8.86219 23.1552Z" fill="#FF007A"/>
<path fill-rule="evenodd" clip-rule="evenodd" d="M14.636 15.5596C14.2938 15.6606 13.966 16.0361 13.8662 16.4116C13.8091 16.6426 13.8377 17.0614 13.9374 17.1913C14.0943 17.3935 14.2368 17.4513 14.636 17.4513C15.4201 17.4513 16.0901 17.1047 16.1614 16.6859C16.2327 16.3393 15.9333 15.8628 15.5199 15.6462C15.306 15.5307 14.8641 15.4874 14.636 15.5596ZM15.5484 16.2816C15.6624 16.1083 15.6197 15.9206 15.4058 15.7906C15.0209 15.5451 14.4364 15.7473 14.4364 16.1227C14.4364 16.3105 14.7358 16.5126 15.0209 16.5126C15.2062 16.5126 15.4628 16.3971 15.5484 16.2816Z" fill="#FF007A"/>
</svg>
