<svg width="32" height="32" viewBox="0 0 32 32" fill="none" xmlns="http://www.w3.org/2000/svg">
<path d="M16 2C8.32979 2 2.11816 8.26588 2.11816 16C2.11816 23.7341 8.32979 30 16 30C23.665 30 29.8819 23.7341 29.8819 16C29.8819 8.26588 23.6659 2 15.9957 2H16ZM16 2.61513C19.5412 2.61513 22.8767 4.00988 25.3835 6.53425C27.8852 9.04988 29.2799 12.4545 29.2712 16C29.2712 19.5726 27.8904 22.9361 25.3835 25.4658C22.909 27.977 19.5272 29.3893 16 29.3849C12.4729 29.3893 9.09104 27.977 6.61654 25.4658C4.11491 22.9501 2.71579 19.5455 2.72454 16C2.72454 12.4274 4.10966 9.06388 6.61216 6.53425C9.08666 4.01863 12.4729 2.6055 16 2.61513ZM15.3027 7.54138C13.0425 8.14775 10.9504 9.30975 8.16179 12.5087C5.37316 15.7078 5.90166 18.3511 5.90166 18.3511C5.90166 18.3511 6.67166 16.5329 8.52229 14.6184C9.40166 13.7119 10.0535 13.4065 10.505 13.4065C10.9058 13.3837 11.2435 13.7075 11.2435 14.1083V20.6025C11.2435 21.2448 10.8288 21.3865 10.4464 21.3769C10.1227 21.3725 9.82166 21.2588 9.82166 21.2588C11.7222 24.0203 16.2704 24.4079 16.2704 24.4079L18.2663 22.2746L18.3118 22.3158L20.1397 23.8741C23.4848 21.887 25.0983 18.205 25.0983 18.205C23.6038 19.7817 22.6553 20.151 22.09 20.151C21.5887 20.1466 21.3927 19.8544 21.3927 19.8544C21.3655 19.7179 21.32 17.7395 21.3017 15.762C21.2833 13.7154 21.3017 11.6652 21.4023 11.66C21.9807 10.575 23.8225 8.3875 23.8225 8.3875C20.382 9.0665 18.5087 11.3223 18.5087 11.3223C17.953 10.8848 16.8225 10.9574 16.8225 10.9574C17.351 11.2488 17.8795 12.0966 17.8795 12.7984V19.7074C17.8795 19.7074 16.7263 20.7233 15.8382 20.7233C15.3097 20.7233 14.9859 20.4363 14.8083 20.1991C14.74 20.1081 14.6805 20.0075 14.635 19.8981V11.3669C14.5117 11.4579 14.3612 11.5077 14.2115 11.513C14.0199 11.513 13.8239 11.4176 13.6918 11.1394C13.5912 10.9294 13.5273 10.6152 13.5273 10.155C13.5273 8.58262 15.3044 7.53875 15.3044 7.53875L15.3027 7.54138Z" fill="black"/>
</svg>
