<svg width="32" height="32" viewBox="0 0 32 32" fill="none" xmlns="http://www.w3.org/2000/svg">
<path d="M16 30C23.7584 30 30 23.7584 30 16C30 8.24162 23.7584 2 16 2C8.24162 2 2 8.24162 2 16C2 23.7584 8.24162 30 16 30Z" fill="#2775CA"/>
<path d="M19.8501 18.2167C19.8501 16.1751 18.6251 15.4751 16.1751 15.1835C14.4251 14.9501 14.0751 14.4835 14.0751 13.6667C14.0751 12.8499 14.6584 12.3251 15.8251 12.3251C16.8751 12.3251 17.4584 12.6751 17.7501 13.5501C17.8084 13.7251 17.9834 13.8417 18.1584 13.8417H19.0917C19.3251 13.8417 19.5001 13.6667 19.5001 13.4335V13.3751C19.2667 12.0917 18.2167 11.1001 16.8751 10.9835V9.58346C16.8751 9.35008 16.7001 9.17508 16.4084 9.1167H15.5334C15.3001 9.1167 15.1251 9.2917 15.0667 9.58346V10.9251C13.3167 11.1585 12.2084 12.3251 12.2084 13.7835C12.2084 15.7085 13.3751 16.4667 15.8251 16.7585C17.4584 17.0501 17.9834 17.4001 17.9834 18.3335C17.9834 19.2668 17.1667 19.9085 16.0584 19.9085C14.5417 19.9085 14.0167 19.2667 13.8417 18.3917C13.7834 18.1585 13.6084 18.0417 13.4334 18.0417H12.4417C12.2084 18.0417 12.0334 18.2167 12.0334 18.4501V18.5085C12.2667 19.9667 13.2001 21.0167 15.1251 21.3085V22.7085C15.1251 22.9417 15.3001 23.1167 15.5917 23.1751H16.4667C16.7001 23.1751 16.8751 23.0001 16.9334 22.7085V21.3085C18.6834 21.0167 19.8501 19.7917 19.8501 18.2167Z" fill="white"/>
<path d="M13.0249 24.3417C8.47492 22.7085 6.14154 17.6335 7.8333 13.1417C8.7083 10.6917 10.6333 8.82512 13.0249 7.95012C13.2583 7.8335 13.3749 7.6585 13.3749 7.36674V6.55012C13.3749 6.31674 13.2583 6.14174 13.0249 6.0835C12.9665 6.0835 12.8499 6.0835 12.7915 6.14174C7.24992 7.89174 4.21654 13.7835 5.96654 19.3251C7.01654 22.5917 9.52492 25.1001 12.7915 26.1501C13.0249 26.2667 13.2583 26.1501 13.3165 25.9167C13.3749 25.8585 13.3749 25.8001 13.3749 25.6835V24.8667C13.3749 24.6917 13.1999 24.4585 13.0249 24.3417ZM19.2083 6.14174C18.9749 6.02512 18.7415 6.14174 18.6833 6.37512C18.6249 6.4335 18.6249 6.49174 18.6249 6.6085V7.42512C18.6249 7.6585 18.7999 7.89174 18.9749 8.0085C23.5249 9.64174 25.8583 14.7167 24.1665 19.2085C23.2915 21.6585 21.3665 23.5251 18.9749 24.4001C18.7415 24.5167 18.6249 24.6917 18.6249 24.9835V25.8001C18.6249 26.0335 18.7415 26.2085 18.9749 26.2667C19.0333 26.2667 19.1499 26.2667 19.2083 26.2085C24.7499 24.4585 27.7833 18.5667 26.0333 13.0251C24.9833 9.70012 22.4165 7.19174 19.2083 6.14174Z" fill="white"/>
</svg>
