<svg width="32" height="32" viewBox="0 0 32 32" fill="none" xmlns="http://www.w3.org/2000/svg">
<path d="M14.0368 27.8298L2.06142 3.83592C1.86682 3.45308 2.15942 3 2.59061 3H6.74014C6.96273 3 7.17133 3.12394 7.26933 3.31536L16.015 20.7224C16.7948 22.284 19.0501 22.284 19.8299 20.7224L28.5476 3.32914C28.6456 3.13771 28.8541 3.01377 29.0767 3.01377H29.5919C29.8985 3.01377 30.0931 3.32914 29.9545 3.58941L17.8531 27.8298C17.0734 29.3901 14.8166 29.3901 14.0368 27.8298Z" fill="url(#paint0_linear_214_842)"/>
<path opacity="0.1" d="M14.0368 27.8297L7.2693 3.32904C7.1713 3.12384 6.9487 3.01367 6.76811 3.01367H2.60458C2.14539 3.01367 1.88079 3.46537 2.06139 3.84959L14.0368 27.8297Z" fill="white"/>
<path opacity="0.1" d="M16.015 20.7348L2.0614 3.83592C1.89481 3.43931 2.1454 3.04131 2.53459 3H6.75412C6.99072 3.01377 7.17131 3.16388 7.25531 3.31536L16.015 20.7348Z" fill="white"/>
<defs>
<linearGradient id="paint0_linear_214_842" x1="1.99996" y1="16" x2="30" y2="16" gradientUnits="userSpaceOnUse">
<stop stop-color="#9D4ABE"/>
<stop offset="0.03" stop-color="#9055C4"/>
<stop offset="0.15" stop-color="#6B74D6"/>
<stop offset="0.26" stop-color="#4C8FE5"/>
<stop offset="0.39" stop-color="#34A3F0"/>
<stop offset="0.52" stop-color="#22B2F9"/>
<stop offset="0.66" stop-color="#18BAFD"/>
<stop offset="0.83" stop-color="#15BDFF"/>
<stop offset="1" stop-color="#28BAD5"/>
</linearGradient>
</defs>
</svg>
