<svg width="32" height="32" viewBox="0 0 32 32" fill="none" xmlns="http://www.w3.org/2000/svg">
<path d="M16 25.1978C15.2355 25.1978 14.5187 25.1711 13.8472 25.1173L10.6366 28.922C10.3928 29.211 9.92211 29.0381 9.92211 28.6596V24.3178C6.1419 22.8912 4.85718 19.7004 4.85718 14.5323C4.85718 7.2206 7.42861 3.8667 16 3.8667C24.5715 3.8667 27.1429 7.2206 27.1429 14.5323C27.1429 21.8439 24.5715 25.1978 16 25.1978Z" fill="#9179EE"/>
<path fill-rule="evenodd" clip-rule="evenodd" d="M29 14.4866C29 5.92653 26 2 16 2C6 2 3 5.92653 3 14.4866C3 20.5785 4.51941 24.3236 9 25.9769V28.8589C9 29.9198 10.3243 30.4044 11.0103 29.5945L13.3223 26.865C14.1533 26.9373 15.0447 26.9731 16 26.9731C26 26.9731 29 23.0466 29 14.4866ZM13.8747 24.8961C14.5376 24.949 15.2453 24.9753 16 24.9753C24.4615 24.9753 27 21.677 27 14.4866C27 7.29613 24.4615 3.99785 16 3.99785C7.53846 3.99785 5 7.29613 5 14.4866C5 19.569 6.26825 22.7069 10 24.1099V28.3796C10 28.7519 10.4647 28.9219 10.7054 28.6377L13.8747 24.8961Z" fill="white"/>
<path d="M10.3323 8.61182C10.4606 8.60974 10.5205 8.6421 10.5393 8.65869C10.8867 8.96491 11.425 9.50597 11.7874 9.96729C11.975 10.2062 12.2018 10.51 12.3909 10.7739C12.4853 10.9057 12.5688 11.0248 12.6321 11.1196C12.6638 11.1672 12.6898 11.2068 12.7083 11.2368C12.7213 11.258 12.7274 11.2698 12.7297 11.2739C12.7226 11.2585 12.7329 11.2767 12.7415 11.3325C12.749 11.3821 12.7525 11.4435 12.7473 11.5073C12.7367 11.6385 12.694 11.739 12.6223 11.8052C12.353 12.0531 11.9862 12.2841 11.843 12.3638L11.803 12.3862L11.7668 12.4155C11.5018 12.6359 11.1084 13.2369 11.4534 13.978C11.7348 14.5826 12.3629 15.8215 13.469 16.7554C14.5492 17.6674 15.704 18.1585 16.4651 18.3198L16.5159 18.3306H16.5588C16.5602 18.3307 16.5647 18.3314 16.5725 18.3325C16.5896 18.3349 16.6109 18.3383 16.6448 18.3442C16.8646 18.3829 17.4571 18.5042 17.9504 18.0103C18.2442 17.7161 18.5118 17.4087 18.634 17.2632C18.7009 17.1971 18.9625 17.0356 19.2961 17.1489C19.9361 17.3665 20.6995 17.8579 21.0706 18.1089C21.3572 18.3028 22.007 18.7702 22.3 18.9829C22.3194 18.997 22.3722 19.0506 22.4006 19.1245C22.4224 19.1813 22.4355 19.2613 22.3801 19.3804C22.2724 19.612 21.9406 20.0604 21.4895 20.4536C21.0289 20.8551 20.5561 21.1001 20.1848 21.1001C20.1964 21.1001 20.1404 21.0959 19.9817 21.0601C19.8408 21.0282 19.6499 20.9783 19.4163 20.9077C18.949 20.7664 18.3208 20.5464 17.5959 20.2329C16.1449 19.6054 14.3184 18.6117 12.6086 17.1489C11.5344 16.2299 10.5195 14.9579 9.72876 13.7661C8.93096 12.5636 8.3991 11.5 8.25513 11.0122L8.24438 10.9751L8.22778 10.9409L8.20044 10.8706C8.1719 10.7865 8.1436 10.6628 8.14282 10.5269C8.14186 10.3522 8.18524 10.1882 8.29712 10.0532C8.68559 9.58531 9.09508 9.12775 9.99927 8.68799C10.0794 8.64903 10.2073 8.61385 10.3323 8.61182ZM18.4153 12.0728C18.6895 12.4523 18.8484 12.9068 18.8528 13.3901C18.8508 13.3905 18.8488 13.3921 18.8459 13.3921C18.8406 13.3921 18.8367 13.391 18.8342 13.3901C18.83 12.8987 18.6759 12.4484 18.4153 12.0728ZM20.2131 11.1538C20.6404 11.8078 20.8868 12.5746 20.8909 13.3901C20.8886 13.3907 20.8857 13.3921 20.8821 13.3921C20.8777 13.3921 20.8747 13.3908 20.8723 13.3901C20.8684 12.5678 20.628 11.8038 20.2131 11.1538ZM21.9475 10.144C22.5663 11.0918 22.9239 12.2042 22.928 13.3901C22.9257 13.3907 22.9229 13.3921 22.9192 13.3921C22.9148 13.3921 22.9118 13.3908 22.9094 13.3901C22.9054 12.1973 22.5538 11.0878 21.9475 10.144Z" fill="white" stroke="white" stroke-linecap="round"/>
</svg>
