<svg width="32" height="32" viewBox="0 0 32 32" fill="none" xmlns="http://www.w3.org/2000/svg">
<path d="M29.9865 9.55237C29.8619 12.2532 27.9581 15.9516 24.2761 20.6454C20.4692 25.5487 17.2483 28 14.6135 28C12.982 28 11.6001 26.5074 10.4723 23.521C9.71853 20.7836 8.96561 18.0465 8.21212 15.3091C7.37407 12.3244 6.47555 10.8301 5.51486 10.8301C5.30542 10.8301 4.57238 11.2668 3.31741 12.1369L2 10.4551C3.38181 9.25191 4.74514 8.04895 6.08635 6.84432C7.92932 5.26613 9.31281 4.43618 10.2349 4.35228C12.4141 4.14486 13.7553 5.62087 14.2588 8.78058C14.8028 12.1895 15.1791 14.3099 15.3908 15.1399C16.0189 17.9681 16.7099 19.3804 17.4651 19.3804C18.0511 19.3804 18.9314 18.4633 20.1052 16.6289C21.2778 14.794 21.9059 13.398 21.9907 12.439C22.1576 10.8556 21.5293 10.0619 20.1052 10.0619C19.4349 10.0619 18.7438 10.2148 18.0329 10.5169C19.4088 6.05038 22.038 3.88123 25.9189 4.00501C28.7959 4.08864 30.1522 5.93767 29.9865 9.55237Z" fill="#32B8E8"/>
</svg>
