<svg width="32" height="32" viewBox="0 0 32 32" fill="none" xmlns="http://www.w3.org/2000/svg">
<path d="M6.04542 24.0335C5.71088 24.3209 5.24396 24.3945 4.83792 24.2241L2.7175 23.3299C2.2851 23.1486 2.00254 22.7248 2 22.2539V9.74659C2.00254 9.27564 2.2851 8.85191 2.7175 8.6706L4.83792 7.79104C5.24396 7.62058 5.71088 7.69427 6.04542 7.98161L6.52083 8.37741C6.32426 8.23536 6.06508 8.21601 5.84978 8.32731C5.63449 8.43861 5.49939 8.66179 5.5 8.90515V23.0953C5.49939 23.3387 5.63449 23.5619 5.84978 23.6732C6.06508 23.7845 6.32426 23.7651 6.52083 23.6231L6.04542 24.0335Z" fill="#52218A"/>
<path d="M2.7175 23.3298C2.2851 23.1485 2.00254 22.7248 2 22.2538V22.1571C2.00294 22.434 2.17335 22.6813 2.43027 22.7814C2.68719 22.8814 2.97884 22.8142 3.16667 22.6115L21.25 2.51365C21.7748 1.98878 22.5713 1.8526 23.2392 2.17356L29.0083 4.96468C29.6148 5.25778 30.0003 5.87443 30 6.55082V6.61825C29.9996 6.18908 29.7534 5.79849 29.3675 5.61487C28.9816 5.43125 28.525 5.48744 28.1946 5.75922L6.52083 23.623L6.04542 24.0335C5.71088 24.3208 5.24396 24.3945 4.83792 24.224L2.7175 23.3298Z" fill="#6C33AF"/>
<path d="M2.7175 8.67062C2.2851 8.85193 2.00254 9.27566 2 9.74661V9.84336C2.00294 9.5664 2.17335 9.31916 2.43027 9.21908C2.68719 9.11901 2.97884 9.18627 3.16667 9.38892L21.25 29.4868C21.7748 30.0117 22.5713 30.1478 23.2392 29.8269L29.0083 27.0358C29.6148 26.7427 30.0003 26.126 30 25.4496V25.3822C29.9996 25.8114 29.7534 26.202 29.3675 26.3856C28.9816 26.5692 28.525 26.513 28.1946 26.2412L6.52083 8.37743L6.04542 7.96697C5.70792 7.68458 5.24128 7.6166 4.83792 7.79106L2.7175 8.67062Z" fill="#854CC7"/>
<path d="M23.2392 29.8268C22.5713 30.1478 21.7748 30.0116 21.25 29.4867C21.5439 29.78 21.9843 29.8671 22.3669 29.7075C22.7494 29.548 22.9991 29.173 23 28.7567V3.24955C23.0014 2.83218 22.7526 2.45504 22.3696 2.29396C21.9865 2.13289 21.5447 2.21959 21.25 2.51365C21.7748 1.98878 22.5713 1.8526 23.2392 2.17356L29.0083 4.96175C29.6148 5.25485 30.0003 5.8715 30 6.54789V25.4525C30.0003 26.1289 29.6148 26.7455 29.0083 27.0386L23.2392 29.8268Z" fill="#B179F1"/>
<path d="M22.0929 29.9559C22.4785 30.0444 22.8826 29.9989 23.2392 29.8269L29.0083 27.0387C29.6148 26.7456 30.0003 26.129 30 25.4526V6.54799C30.0003 5.87161 29.6148 5.25496 29.0083 4.96186L23.2392 2.17366C22.831 1.97642 22.3626 1.94594 21.9325 2.08864C21.6753 2.17526 21.4416 2.3208 21.25 2.51376L11.9517 12.8515L6.52083 8.37747L6.04542 7.96701C5.75521 7.71758 5.36194 7.6267 4.9925 7.72366C4.9392 7.7355 4.88736 7.7532 4.83792 7.77644L2.7175 8.67065C2.31286 8.8386 2.03581 9.22011 2 9.65869C2 9.68801 2 9.71733 2 9.74664V22.2539C2 22.2833 2 22.3126 2 22.3419C2.03581 22.7805 2.31286 23.162 2.7175 23.3299L4.83792 24.2095C4.88736 24.2327 4.9392 24.2504 4.9925 24.2623C5.36194 24.3592 5.75521 24.2683 6.04542 24.0189L6.52083 23.6231L11.9517 19.1491L21.25 29.4868C21.4818 29.7194 21.7738 29.8819 22.0929 29.9559ZM23 10.0428L15.7696 16.0003L23 21.9578V10.0428ZM5.5 11.9749L9.11958 16.0003L5.5 20.0257V11.9749Z" fill="url(#paint0_linear_214_1278)" fill-opacity="0.25"/>
<defs>
<linearGradient id="paint0_linear_214_1278" x1="16" y1="2.00068" x2="16" y2="29.9999" gradientUnits="userSpaceOnUse">
<stop stop-color="white"/>
<stop offset="1" stop-color="white" stop-opacity="0"/>
</linearGradient>
</defs>
</svg>
