<svg width="32" height="32" viewBox="0 0 32 32" fill="none" xmlns="http://www.w3.org/2000/svg">
<path d="M16.0001 29.957C22.122 29.957 25.5238 29.957 27.7527 27.7355C29.9755 25.5139 29.9755 22.117 29.9755 16.0001C29.9755 9.88316 29.9755 6.48624 27.7527 4.2647C25.5238 2.04932 22.122 2.04932 16.0001 2.04932C9.87817 2.04932 6.47641 2.04932 4.24747 4.27085C2.02466 6.49239 2.02466 9.88932 2.02466 16.0062C2.02466 22.1232 2.02466 25.5201 4.24747 27.7416C6.47641 29.957 9.87817 29.957 16.0001 29.957Z" fill="#EF3939"/>
<path d="M25.0878 10.8431C23.7492 8.49844 21.508 6.67075 18.6896 5.91383C13.0957 4.41844 7.34836 7.72921 5.85011 13.3108C5.09485 16.1169 5.56152 18.9661 6.92468 21.2923C6.9431 21.3231 6.96152 21.36 6.98608 21.3908L11.9106 29.9138C12.7273 29.9384 13.6115 29.9446 14.5633 29.9446H15.951C18.6712 29.9446 20.8571 29.9446 22.644 29.7477C24.8729 29.5015 26.4694 28.9538 27.7036 27.7231C29.5027 25.9261 29.8466 23.3538 29.9142 19.1877C27.0405 14.2154 25.094 10.8492 25.0878 10.8431Z" fill="url(#paint0_linear_214_1399)"/>
<path d="M23.3561 8.6215C19.2728 4.53535 12.6473 4.53535 8.55786 8.6215C4.47453 12.7077 4.47453 19.3292 8.55786 23.4092C12.6412 27.4953 19.2666 27.4953 23.3561 23.4092C27.4456 19.323 27.4456 12.7015 23.3561 8.6215ZM22.7298 13.4277C21.0044 16.4246 19.2789 19.4215 17.5535 22.4246C17.2342 22.9846 16.7675 23.3169 16.1289 23.3661C15.4166 23.4153 14.8517 23.1138 14.4894 22.4984C13.3965 20.6215 12.3158 18.7323 11.2351 16.8492C10.578 15.7046 9.91488 14.56 9.25786 13.4092C8.5947 12.2523 9.34383 10.843 10.6701 10.7753C11.3701 10.7384 11.9105 11.0646 12.2666 11.6738C12.7517 12.5046 13.2307 13.3477 13.7158 14.1846C14.0658 14.7877 14.4035 15.3969 14.7596 15.9877C15.2754 16.8553 16.0368 17.3415 17.05 17.403C18.4807 17.4892 19.8131 16.4492 19.9851 14.9292C19.9973 14.8184 20.0035 14.7015 20.0096 14.6461C20.0035 14.1538 19.9114 13.7353 19.7149 13.3477C19.1807 12.2769 19.7517 11.0769 20.9122 10.8184C21.8579 10.6092 22.8403 11.3046 22.9631 12.2646C23.0245 12.6769 22.9386 13.0646 22.7298 13.4277Z" fill="white"/>
<defs>
<linearGradient id="paint0_linear_214_1399" x1="532.739" y1="144.797" x2="1861.75" y2="2458.27" gradientUnits="userSpaceOnUse">
<stop stop-opacity="0.2"/>
<stop offset="0.7908" stop-opacity="0.05"/>
</linearGradient>
</defs>
</svg>
