<svg width="32" height="32" viewBox="0 0 32 32" fill="none" xmlns="http://www.w3.org/2000/svg">
<path d="M23.0018 3.11679C23.0018 2.23783 22.0177 2.23782 21.5803 2.34769C22.1927 1.86426 22.9107 1.98147 23.1659 2.12796L29.0792 5.02747C29.6427 5.30375 30.0001 5.87861 30.0001 6.50858V25.5832C30.0001 26.2216 29.6332 26.8025 29.0583 27.0744L23.4939 29.7054C23.1112 29.8702 22.2801 30.2767 21.5803 29.7054C22.4551 29.8702 22.9289 29.2476 23.0018 28.8264V3.11679Z" fill="url(#paint0_linear_214_1274)"/>
<path d="M21.6513 2.3319C22.1155 2.24017 23.0018 2.28271 23.0018 3.11685V9.68255L5.07359 23.2453C4.76022 23.4824 4.31921 23.4431 4.05229 23.1543L2.20453 21.1549C1.91506 20.8416 1.93532 20.3513 2.24962 20.0633L21.5803 2.34775L21.6513 2.3319Z" fill="url(#paint1_linear_214_1274)"/>
<path d="M23.0018 22.3708L5.07359 8.80801C4.76022 8.57094 4.31921 8.61028 4.05229 8.8991L2.20453 10.8985C1.91506 11.2117 1.93532 11.702 2.24962 11.9901L21.5803 29.7056C22.4551 29.8704 22.9289 29.2478 23.0018 28.8266V22.3708Z" fill="url(#paint2_linear_214_1274)"/>
<defs>
<linearGradient id="paint0_linear_214_1274" x1="25.7902" y1="2" x2="25.7902" y2="30" gradientUnits="userSpaceOnUse">
<stop stop-color="#32B5F1"/>
<stop offset="1" stop-color="#2B9FED"/>
</linearGradient>
<linearGradient id="paint1_linear_214_1274" x1="23.0018" y1="5.53398" x2="3.02171" y2="22.3052" gradientUnits="userSpaceOnUse">
<stop stop-color="#0F6FB3"/>
<stop offset="0.270551" stop-color="#1279B7"/>
<stop offset="0.421376" stop-color="#1176B5"/>
<stop offset="0.618197" stop-color="#0E69AC"/>
<stop offset="0.855344" stop-color="#0F70AF"/>
<stop offset="1" stop-color="#0F6DAD"/>
</linearGradient>
<linearGradient id="paint2_linear_214_1274" x1="3.15522" y1="9.98389" x2="23.0792" y2="26.4809" gradientUnits="userSpaceOnUse">
<stop stop-color="#1791D2"/>
<stop offset="1" stop-color="#1173C5"/>
</linearGradient>
</defs>
</svg>
