<svg width="32" height="32" viewBox="0 0 32 32" fill="none" xmlns="http://www.w3.org/2000/svg">
<path d="M16 30C23.732 30 30 23.732 30 16C30 8.26801 23.732 2 16 2C8.26801 2 2 8.26801 2 16C2 23.732 8.26801 30 16 30Z" fill="#4353FF"/>
<path d="M20.1125 14.3375L18.8438 18.3362C18.8438 18.03 17.9688 11.3975 17.9688 11.3975C15.9563 11.3975 14.8888 12.8237 14.3288 14.3375L12.78 18.345C12.78 18.0562 12.5613 14.3725 12.5613 14.3725C12.4866 13.575 12.122 12.8326 11.5366 12.286C10.9512 11.7393 10.1857 11.4263 9.38501 11.4062L11.03 21.4512C13.13 21.4512 14.2675 20.025 14.8538 18.5112L16.1663 15.0987C16.1663 15.2387 17.0413 21.4512 17.0413 21.4512C17.9 21.4501 18.736 21.1756 19.4283 20.6674C20.1205 20.1593 20.6329 19.4439 20.8913 18.625L23.8663 11.3975C21.7663 11.3975 20.6638 12.8237 20.1038 14.3375H20.1125Z" fill="white"/>
</svg>
