<svg width="32" height="32" viewBox="0 0 32 32" fill="none" xmlns="http://www.w3.org/2000/svg">
<path d="M14.8522 7.79648C11.2605 6.21603 2 13.9065 2 20.3912C2 24.1875 6.55059 28.0001 14.0714 28.0001C23.285 28.0001 27.72 21.3851 26.1896 18.1427C25.2138 16.0753 22.7384 15.8942 22.5823 15.3403C22.4812 14.9818 23.7223 12.8311 22.3793 11.6743C20.0887 9.70126 16.1952 12.5378 15.758 12.0327C15.485 11.7174 16.7886 8.64855 14.8522 7.79648Z" fill="#E31C34"/>
<path d="M21.7184 19.6414C22.0127 22.8151 18.4832 25.7683 13.835 26.2375C9.18681 26.7068 5.18011 24.5143 4.8858 21.3406C4.59149 18.1668 8.12101 15.2136 12.7692 14.7444C17.4174 14.2752 21.4241 16.4676 21.7184 19.6414Z" fill="white"/>
<path fill-rule="evenodd" clip-rule="evenodd" d="M16.9936 19.8044C17.5626 21.9256 16.0845 24.2114 13.6922 24.91C11.2999 25.6085 8.8993 24.4552 8.33033 22.334C7.76136 20.2128 9.23947 17.9269 11.6318 17.2284C14.0241 16.5299 16.4247 17.6832 16.9936 19.8044ZM12.7384 21.1711C13.0547 21.8809 12.6645 22.77 11.8669 23.1568C11.0694 23.5437 10.1664 23.2819 9.85007 22.572C9.53377 21.8622 9.92393 20.9731 10.7215 20.5862C11.5191 20.1994 12.4221 20.4612 12.7384 21.1711ZM13.7844 20.8019C14.0952 20.6511 14.2472 20.3047 14.124 20.0281C14.0007 19.7515 13.6489 19.6495 13.3381 19.8002C13.0273 19.951 12.8753 20.2974 12.9986 20.574C13.1218 20.8506 13.4737 20.9526 13.7844 20.8019Z" fill="black"/>
<path d="M21.1083 6.28676C21.5343 6.17676 21.9807 6.11812 22.4417 6.11812C25.4948 6.11812 27.9698 8.70046 27.9698 11.8859C27.9698 12.5895 27.8496 13.2614 27.6302 13.8819C27.4361 14.4307 27.7052 15.0397 28.2312 15.2421C28.7572 15.4445 29.3408 15.1637 29.5348 14.615C29.836 13.7632 29.9999 12.8433 29.9999 11.8859C29.9999 7.53065 26.616 4 22.4417 4C21.815 4 21.2049 4.07979 20.6206 4.23067C20.0764 4.37119 19.7444 4.94537 19.8791 5.51315C20.0138 6.08092 20.5641 6.42728 21.1083 6.28676Z" fill="#FD9940"/>
<path d="M22.0052 9.98381C22.1443 9.94928 22.2902 9.93075 22.4417 9.93075C23.4766 9.93075 24.3156 10.8061 24.3156 11.8859C24.3156 12.1216 24.2761 12.3454 24.2044 12.5518C24.0135 13.1017 24.2861 13.709 24.8132 13.9082C25.3403 14.1074 25.9223 13.823 26.1132 13.273C26.264 12.8387 26.3457 12.3711 26.3457 11.8859C26.3457 9.63631 24.5978 7.81262 22.4417 7.81262C22.1307 7.81262 21.827 7.85076 21.5351 7.92325C20.9897 8.0587 20.6529 8.62977 20.7827 9.19877C20.9125 9.76778 21.4599 10.1193 22.0052 9.98381Z" fill="#FD9940"/>
</svg>
