<svg width="32" height="24" viewBox="0 0 32 24" fill="none" xmlns="http://www.w3.org/2000/svg">
<rect width="32" height="24" rx="4" fill="#B1E57F"/>
<path d="M29.9999 11.5977C29.9999 9.95522 28.8667 8.80005 27.278 8.80005C25.2556 8.80005 23.9001 10.2837 23.9001 12.4024C23.9001 14.0558 25.0441 15.2 26.6599 15.2C28.1293 15.2 29.2245 14.4829 29.6746 13.3386H28.0425C27.8256 13.6945 27.3648 13.919 26.8009 13.919C25.9333 13.919 25.3911 13.3386 25.3423 12.5174H29.9077C29.9674 12.2054 29.9999 11.9371 29.9999 11.5977ZM25.467 11.406C25.6134 10.6505 26.34 10.0483 27.2184 10.0483C27.9775 10.0483 28.5522 10.6067 28.5522 11.406H25.467Z" fill="#163300"/>
<path d="M19.5139 15.0528L19.8067 13.476C20.7013 13.6567 20.8369 13.1475 21.0701 11.9212L21.1839 11.3135C21.5092 9.59989 22.1653 8.74583 24.0413 8.97577L23.7486 10.5525C22.8539 10.3718 22.6967 11.0562 22.4961 12.1183L22.3822 12.726C22.0569 14.4615 21.3791 15.2827 19.5139 15.0528Z" fill="#163300"/>
<path d="M17.3235 15.0583L18.4296 8.94847H19.8881L18.7874 15.0583H17.3235Z" fill="#163300"/>
<path d="M8.96753 8.94847H10.3827L10.8436 13.3666L12.6979 8.94847H14.1022L14.5956 13.4104L16.3849 8.94847H17.7947L15.23 15.0583H13.6251L13.1046 10.8537L11.3316 15.0583H9.78084L8.96753 8.94847Z" fill="#163300"/>
<path d="M3.68084 10.5685L2 12.189H4.85743L5.15565 11.4828H3.70795L4.61344 10.5685L4.0875 9.65422H6.5437L4.27727 15.0578H5.12854L7.69318 8.94797H2.7374L3.68084 10.5685Z" fill="#163300"/>
</svg>
