<svg width="32" height="32" viewBox="0 0 32 32" fill="none" xmlns="http://www.w3.org/2000/svg">
<rect x="9" y="4" width="21" height="24" rx="2" fill="url(#paint0_linear_214_484)"/>
<path d="M9 22H30V26C30 27.1046 29.1046 28 28 28H11C9.89543 28 9 27.1046 9 26V22Z" fill="url(#paint1_linear_214_484)"/>
<rect x="9" y="16" width="21" height="6" fill="url(#paint2_linear_214_484)"/>
<rect x="9" y="10" width="21" height="6" fill="url(#paint3_linear_214_484)"/>
<path d="M9 13C9 11.3431 10.3431 10 12 10H16.5C18.1569 10 19.5 11.3431 19.5 13V22.4286C19.5 24.0854 18.1569 25.4286 16.5 25.4286H9V13Z" fill="black" fill-opacity="0.3"/>
<rect x="2" y="8.28564" width="15.75" height="15.4286" rx="2" fill="url(#paint4_linear_214_484)"/>
<path d="M15.125 11.7265H13.4208L12.0825 17.3192L10.6185 11.7144H9.17729L7.7018 17.3192L6.375 11.7265H4.625L6.90114 20.2858H8.41095L9.875 14.8754L11.3391 20.2858H12.8489L15.125 11.7265Z" fill="white"/>
<defs>
<linearGradient id="paint0_linear_214_484" x1="9" y1="8" x2="30" y2="8" gradientUnits="userSpaceOnUse">
<stop stop-color="#2B78B1"/>
<stop offset="1" stop-color="#338ACD"/>
</linearGradient>
<linearGradient id="paint1_linear_214_484" x1="9" y1="25.75" x2="30" y2="25.75" gradientUnits="userSpaceOnUse">
<stop stop-color="#1B366F"/>
<stop offset="1" stop-color="#2657B0"/>
</linearGradient>
<linearGradient id="paint2_linear_214_484" x1="18.1875" y1="19.4286" x2="30" y2="19.4286" gradientUnits="userSpaceOnUse">
<stop stop-color="#20478B"/>
<stop offset="1" stop-color="#2D6FD1"/>
</linearGradient>
<linearGradient id="paint3_linear_214_484" x1="18.1875" y1="13.4286" x2="30" y2="13.4286" gradientUnits="userSpaceOnUse">
<stop stop-color="#215295"/>
<stop offset="1" stop-color="#2E84D3"/>
</linearGradient>
<linearGradient id="paint4_linear_214_484" x1="2" y1="16.8571" x2="18.625" y2="16.8571" gradientUnits="userSpaceOnUse">
<stop stop-color="#223E74"/>
<stop offset="1" stop-color="#215091"/>
</linearGradient>
</defs>
</svg>
