<svg width="32" height="32" viewBox="0 0 32 32" fill="none" xmlns="http://www.w3.org/2000/svg">
<path fill-rule="evenodd" clip-rule="evenodd" d="M30 16C30 14.18 29.636 12.332 28.936 10.652C28.236 8.972 27.2 7.404 25.912 6.088C24.596 4.8 23.056 3.764 21.348 3.064C19.64 2.364 17.82 2 16 2C14.18 2 12.332 2.364 10.652 3.064C8.972 3.764 7.404 4.8 6.088 6.088C4.8 7.404 3.764 8.944 3.064 10.652C2.364 12.36 2 14.18 2 16C2 17.82 2.364 19.668 3.064 21.348C3.764 23.028 4.8 24.596 6.088 25.912C7.376 27.2 8.944 28.236 10.624 28.936C12.304 29.636 14.18 30 16 30C17.82 30 19.668 29.636 21.348 28.936C23.028 28.236 24.596 27.2 25.912 25.912C27.2 24.624 28.236 23.056 28.936 21.376C29.636 19.696 30 17.82 30 16Z" fill="url(#paint0_linear_214_846)"/>
<path fill-rule="evenodd" clip-rule="evenodd" d="M15.272 9.67212H16.728V22.3281H15.272V9.67212Z" fill="white"/>
<path fill-rule="evenodd" clip-rule="evenodd" d="M14.46 15.6361V14.1241C13.312 13.5641 12.5 12.3601 12.5 10.9881C12.5 9.05606 14.068 7.48806 16 7.48806C18.184 7.48806 19.752 9.05606 19.752 10.9881C19.752 11.4641 19.64 11.9401 19.416 12.5001L18.8 10.4841L17.568 10.8761L18.66 15.0481L22.916 13.4801L22.384 12.2481L20.788 12.7801C21.068 12.1641 21.124 11.6881 21.124 10.9601C21.124 8.24406 18.94 6.06006 15.972 6.06006C13.256 6.06006 11.072 8.24406 11.072 10.9601C11.1 13.1441 12.5 14.9921 14.46 15.6361Z" fill="white"/>
<path fill-rule="evenodd" clip-rule="evenodd" d="M17.54 16.364V17.876C18.688 18.436 19.5 19.64 19.5 21.012C19.5 22.944 17.932 24.512 16 24.512C13.816 24.512 12.248 22.944 12.248 21.012C12.248 20.536 12.36 20.06 12.584 19.5L13.2 21.516L14.432 21.124L13.34 16.952L9.08398 18.52L9.61598 19.752L11.212 19.22C10.932 19.836 10.876 20.312 10.876 21.04C10.876 23.756 13.06 25.94 16.028 25.94C18.744 25.94 20.928 23.756 20.928 21.04C20.9 18.856 19.5 17.008 17.54 16.364Z" fill="white"/>
<defs>
<linearGradient id="paint0_linear_214_846" x1="2" y1="2" x2="30" y2="30" gradientUnits="userSpaceOnUse">
<stop stop-color="#0077FC"/>
<stop offset="1" stop-color="#095EB5"/>
</linearGradient>
</defs>
</svg>
