<svg width="32" height="32" viewBox="0 0 32 32" fill="none" xmlns="http://www.w3.org/2000/svg">
<path d="M16.1463 27.7333C9.76675 27.7333 4.55908 22.5205 4.55908 16.1463C4.55908 9.76675 9.77201 4.55908 16.1463 4.55908C22.5258 4.55908 27.7333 9.77201 27.7333 16.1463C27.7333 22.5258 22.5258 27.7333 16.1463 27.7333Z" fill="url(#paint0_linear_214_851)"/>
<path d="M16 30C8.3 30 2 23.7 2 16C2 8.3 8.3 2 16 2C23.7 2 30 8.3 30 16C30 23.7 23.7 30 16 30ZM16 5.11293C10.0129 5.11293 5.11293 10.0129 5.11293 16C5.11293 21.9871 10.0129 26.8871 16 26.8871C21.9871 26.8871 26.8871 21.9871 26.8871 16C26.8871 10.0129 21.9871 5.11293 16 5.11293Z" fill="black"/>
<path d="M15.6759 19.7922H21.7426V22.8256H18.163V25.3922H15.0501V22.9051H11.3168C11.3168 21.8922 11.163 20.8847 11.3963 19.9514C11.4759 19.4847 12.0168 19.018 12.4092 18.5514C13.5759 17.1514 14.7426 15.7514 15.9888 14.3514C16.4554 13.8051 16.9221 13.3384 17.4683 12.7181H11.635V9.68466H15.0554V7.11841H18.0888V9.60481H21.8221C21.8221 10.6176 21.9759 11.6253 21.7426 12.5586C21.663 13.0253 21.1221 13.4919 20.7296 13.9586C19.563 15.3586 18.3963 16.7586 17.1501 18.1586C16.6833 18.7051 16.2168 19.246 15.6759 19.7922Z" fill="black"/>
<defs>
<linearGradient id="paint0_linear_214_851" x1="8.19032" y1="24.0918" x2="24.186" y2="8.09612" gradientUnits="userSpaceOnUse">
<stop stop-color="#CF8724"/>
<stop offset="1" stop-color="#FDCE58"/>
</linearGradient>
</defs>
</svg>
