<svg width="148" height="148" viewBox="0 0 148 148" fill="none" xmlns="http://www.w3.org/2000/svg">
<rect width="148" height="148" rx="74" fill="#F5F5F5"/>
<rect x="23.7191" y="35.6442" width="42.0615" height="28.7117" rx="4.57732" fill="#EBEBEB" stroke="#A4A4A4" stroke-miterlimit="10"/>
<rect x="80.8922" y="40.9495" width="39.6941" height="27.0957" rx="3.81444" fill="#F5F5F5" stroke="#A4A4A4" stroke-miterlimit="10"/>
<rect x="55.9091" y="89.8511" width="68.3971" height="26.796" rx="4.57732" fill="#D1D1D1" stroke="#A4A4A4" stroke-miterlimit="10"/>
<rect x="31.8261" y="45.9495" width="83.9425" height="57.3001" rx="4.57732" fill="white" stroke="#A4A4A4" stroke-miterlimit="10"/>
<ellipse cx="37.873" cy="51.6649" rx="1.66452" ry="1.66452" fill="#EBEBEB"/>
<ellipse cx="43.5095" cy="51.6649" rx="1.66452" ry="1.66452" fill="#EBEBEB"/>
<ellipse cx="49.146" cy="51.6649" rx="1.66452" ry="1.66452" fill="#EBEBEB"/>
<path d="M46.6071 63.0528L55.9097 59.9227L46.6071 56.9059L37.7895 59.9227L46.6071 63.0528Z" fill="#A4A4A4" stroke="#A4A4A4" stroke-linecap="round" stroke-linejoin="round"/>
<path d="M40.1013 62.2599L46.799 64.5266L52.8484 62.5101L53.1506 66.7519C53.1763 67.1131 52.8902 67.4204 52.5281 67.4204H40.7254C40.3807 67.4204 40.1013 67.1409 40.1013 66.7963V62.2599Z" fill="#A4A4A4" stroke="#A4A4A4" stroke-linecap="round" stroke-linejoin="round"/>
<path d="M37.7899 59.9793V64.5607" stroke="#A4A4A4"/>
<ellipse cx="37.7898" cy="64.7038" rx="0.897352" ry="0.897353" fill="#A4A4A4"/>
<path d="M98.5223 24.8147C98.5223 24.8147 92.4729 24.8352 92.4729 30.864C92.4729 24.8352 86.4236 24.8147 86.4236 24.8147C86.4236 24.8147 92.4729 24.794 92.4729 18.7653C92.4729 24.794 98.5223 24.8147 98.5223 24.8147Z" fill="white" stroke="#A4A4A4" stroke-linecap="round" stroke-linejoin="round"/>
<path d="M36.0216 118C36.0216 118 29.9722 118.021 29.9722 124.049C29.9722 118.021 23.9229 118 23.9229 118C23.9229 118 29.9722 117.979 29.9722 111.951C29.9722 117.979 36.0216 118 36.0216 118Z" fill="white" stroke="#A4A4A4" stroke-linecap="round" stroke-linejoin="round"/>
<rect x="62.258" y="57.7708" width="32.4119" height="3.37223" rx="0.762887" fill="#EBEBEB"/>
<rect x="62.2582" y="63.398" width="19.0356" height="3.37223" rx="0.762887" fill="#EBEBEB"/>
<rect x="48.7232" y="93.6821" width="17.9785" height="3.37223" rx="0.762887" fill="#EBEBEB"/>
<path fill-rule="evenodd" clip-rule="evenodd" d="M57.7126 75.1764C54.3832 75.1764 51.6842 77.8753 51.6842 81.2047C51.6842 84.534 54.3832 87.233 57.7126 87.233C61.0419 87.233 63.7409 84.534 63.7409 81.2047C63.7409 77.8753 61.0419 75.1764 57.7126 75.1764ZM48.7233 81.2047C48.7233 76.2401 52.7479 72.2155 57.7126 72.2155C62.6772 72.2155 66.7018 76.2401 66.7018 81.2047C66.7018 86.1693 62.6772 90.1939 57.7126 90.1939C52.7479 90.1939 48.7233 86.1693 48.7233 81.2047Z" fill="#EBEBEB"/>
<path fill-rule="evenodd" clip-rule="evenodd" d="M62.927 78.1771C61.8804 76.3794 59.9362 75.1764 57.7127 75.1764V72.2155C61.0329 72.2155 63.9307 74.0162 65.4858 76.6873L62.927 78.1771Z" fill="#D1D1D1"/>
<rect x="80.8926" y="93.6821" width="17.9785" height="3.37223" rx="0.762887" fill="#EBEBEB"/>
<path fill-rule="evenodd" clip-rule="evenodd" d="M89.8818 75.1763C86.5525 75.1763 83.8535 77.8752 83.8535 81.2046C83.8535 84.5339 86.5525 87.2329 89.8818 87.2329C93.2111 87.2329 95.9101 84.5339 95.9101 81.2046C95.9101 77.8752 93.2111 75.1763 89.8818 75.1763ZM80.8926 81.2046C80.8926 76.24 84.9172 72.2153 89.8818 72.2153C94.8464 72.2153 98.871 76.24 98.871 81.2046C98.871 86.1692 94.8464 90.1938 89.8818 90.1938C84.9172 90.1938 80.8926 86.1692 80.8926 81.2046Z" fill="#EBEBEB"/>
<path fill-rule="evenodd" clip-rule="evenodd" d="M95.0963 78.1771C94.0496 76.3794 92.1054 75.1764 89.882 75.1764V72.2155C93.2021 72.2155 96.1 74.0162 97.6551 76.6873L95.0963 78.1771Z" fill="#D1D1D1"/>
<path d="M91.636 77.4976L94.5339 73.2292L94.9254 71.1146L88.1116 70.5271L87.2893 73.8948L91.636 77.4976Z" fill="#A4A4A4"/>
</svg>
