<svg width="148" height="148" viewBox="0 0 148 148" fill="none" xmlns="http://www.w3.org/2000/svg">
<rect width="148" height="148" rx="74" fill="#F5F5F5"/>
<path d="M97.018 27.6115L82.1616 53.5991C79.7573 52.2208 76.9693 51.4324 73.9985 51.4324C71.0278 51.4324 68.2397 52.2208 65.8355 53.5991L50.9817 27.6089C57.7638 23.7245 65.6214 21.5029 73.9985 21.5029C82.3757 21.5029 90.2359 23.7245 97.018 27.6115Z" fill="#F5F5F5" stroke="#A4A4A4" stroke-miterlimit="10"/>
<path d="M65.8356 53.5992C60.8861 56.4342 57.5525 61.7674 57.5525 67.8813H27.6204C27.6204 50.644 37.0234 35.6023 50.9819 27.6089L65.8356 53.5992Z" fill="#D1D1D1" stroke="#A4A4A4" stroke-miterlimit="10"/>
<path d="M120.377 67.8813H90.445C90.445 61.7675 87.1114 56.4342 82.1619 53.5992L97.0182 27.6116C110.974 35.605 120.377 50.6441 120.377 67.8813Z" fill="white" stroke="#A4A4A4" stroke-miterlimit="10"/>
<path d="M77.3245 66.805C76.6345 68.1068 74.9848 68.5495 73.7358 67.7681C72.4868 66.9867 72.1633 65.3095 73.0322 64.1196L87.4895 44.3217C87.7301 43.9922 88.1844 43.9046 88.5302 44.121C88.8761 44.3374 88.996 44.7842 88.8049 45.1447L77.3245 66.805Z" fill="#D1D1D1" stroke="#A4A4A4" stroke-miterlimit="10"/>
<path d="M74 74.2365C77.5098 74.2365 80.3551 71.3912 80.3551 67.8814C80.3551 64.3715 77.5098 61.5262 74 61.5262C70.4901 61.5262 67.6448 64.3715 67.6448 67.8814C67.6448 71.3912 70.4901 74.2365 74 74.2365Z" fill="#D1D1D1" stroke="#A4A4A4" stroke-miterlimit="10"/>
<rect x="35.0166" y="79.0172" width="77.321" height="47.4788" rx="4.7424" fill="white" stroke="#A4A4A4" stroke-miterlimit="10"/>
<path d="M73.678 44.6466C78.3639 44.6466 82.1626 40.8479 82.1626 36.162C82.1626 31.4761 78.3639 27.6774 73.678 27.6774C68.992 27.6774 65.1934 31.4761 65.1934 36.162C65.1934 40.8479 68.992 44.6466 73.678 44.6466Z" fill="white" stroke="#A4A4A4" stroke-linecap="round" stroke-linejoin="round"/>
<path d="M70.3787 35.5862C71.0578 35.5862 71.6083 35.0357 71.6083 34.3566C71.6083 33.6776 71.0578 33.1271 70.3787 33.1271C69.6997 33.1271 69.1492 33.6776 69.1492 34.3566C69.1492 35.0357 69.6997 35.5862 70.3787 35.5862Z" fill="#A4A4A4"/>
<path d="M76.9769 35.586C77.6559 35.586 78.2064 35.0356 78.2064 34.3565C78.2064 33.6774 77.6559 33.127 76.9769 33.127C76.2978 33.127 75.7473 33.6774 75.7473 34.3565C75.7473 35.0356 76.2978 35.586 76.9769 35.586Z" fill="#A4A4A4"/>
<path d="M70.8374 39.5153H76.519" stroke="#A4A4A4" stroke-linecap="round" stroke-linejoin="round"/>
<path d="M101.27 60.7083C105.957 60.7083 109.756 56.9092 109.756 52.2227C109.756 47.5362 105.957 43.7371 101.27 43.7371C96.584 43.7371 92.7849 47.5362 92.7849 52.2227C92.7849 56.9092 96.584 60.7083 101.27 60.7083Z" fill="white" stroke="#A4A4A4" stroke-linecap="round" stroke-linejoin="round"/>
<path d="M98.3245 55.0493C98.3245 55.0493 99.1174 56.3848 101.271 56.3848C103.424 56.3848 104.217 55.0493 104.217 55.0493" fill="white"/>
<path d="M98.3245 55.0493C98.3245 55.0493 99.1174 56.3848 101.271 56.3848C103.424 56.3848 104.217 55.0493 104.217 55.0493" stroke="#A4A4A4" stroke-linecap="round" stroke-linejoin="round"/>
<path d="M97.9726 51.6461C98.6517 51.6461 99.2023 51.0955 99.2023 50.4164C99.2023 49.7373 98.6517 49.1867 97.9726 49.1867C97.2935 49.1867 96.7429 49.7373 96.7429 50.4164C96.7429 51.0955 97.2935 51.6461 97.9726 51.6461Z" fill="#A4A4A4"/>
<path d="M104.571 51.6464C105.25 51.6464 105.8 51.0959 105.8 50.4168C105.8 49.7376 105.25 49.1871 104.571 49.1871C103.892 49.1871 103.341 49.7376 103.341 50.4168C103.341 51.0959 103.892 51.6464 104.571 51.6464Z" fill="#A4A4A4"/>
<path d="M46.7284 60.7083C51.4149 60.7083 55.2139 56.9092 55.2139 52.2227C55.2139 47.5363 51.4149 43.7372 46.7284 43.7372C42.042 43.7372 38.2429 47.5363 38.2429 52.2227C38.2429 56.9092 42.042 60.7083 46.7284 60.7083Z" fill="white" stroke="#A4A4A4" stroke-linecap="round" stroke-linejoin="round"/>
<path d="M43.7827 56.3849C43.7827 56.3849 44.5757 55.0494 46.7291 55.0494C48.8826 55.0494 49.6755 56.3849 49.6755 56.3849" fill="white"/>
<path d="M43.7827 56.3849C43.7827 56.3849 44.5757 55.0494 46.7291 55.0494C48.8826 55.0494 49.6755 56.3849 49.6755 56.3849" stroke="#A4A4A4" stroke-linecap="round" stroke-linejoin="round"/>
<path d="M43.4296 51.6462C44.1088 51.6462 44.6593 51.0956 44.6593 50.4165C44.6593 49.7374 44.1088 49.1868 43.4296 49.1868C42.7505 49.1868 42.2 49.7374 42.2 50.4165C42.2 51.0956 42.7505 51.6462 43.4296 51.6462Z" fill="#A4A4A4"/>
<path d="M50.028 51.6462C50.7071 51.6462 51.2577 51.0956 51.2577 50.4165C51.2577 49.7374 50.7071 49.1868 50.028 49.1868C49.3489 49.1868 48.7983 49.7374 48.7983 50.4165C48.7983 51.0956 49.3489 51.6462 50.028 51.6462Z" fill="#A4A4A4"/>
<path d="M51.8429 109.869C52.0457 109.245 52.9287 109.245 53.1316 109.869L53.8376 112.042C53.9283 112.321 54.1884 112.51 54.4819 112.51H56.7667C57.423 112.51 57.6958 113.35 57.1649 113.736L55.3165 115.079C55.079 115.251 54.9797 115.557 55.0704 115.836L55.7764 118.009C55.9792 118.633 55.2648 119.152 54.7338 118.766L52.8854 117.423C52.648 117.251 52.3265 117.251 52.089 117.423L50.2406 118.766C49.7096 119.152 48.9953 118.633 49.1981 118.009L49.9041 115.836C49.9948 115.557 49.8954 115.251 49.658 115.079L47.8096 113.736C47.2786 113.35 47.5515 112.51 48.2078 112.51H50.4925C50.786 112.51 51.0462 112.321 51.1369 112.042L51.8429 109.869Z" fill="#D1D1D1" stroke="#A4A4A4" stroke-miterlimit="10"/>
<path d="M73.3571 109.869C73.5599 109.245 74.4429 109.245 74.6457 109.869L75.3517 112.042C75.4424 112.321 75.7026 112.51 75.9961 112.51H78.2808C78.9371 112.51 79.21 113.35 78.679 113.735L76.8306 115.078C76.5932 115.251 76.4938 115.557 76.5845 115.836L77.2905 118.009C77.4934 118.633 76.779 119.152 76.248 118.766L74.3996 117.423C74.1622 117.251 73.8406 117.251 73.6032 117.423L71.7548 118.766C71.2238 119.152 70.5094 118.633 70.7122 118.009L71.4182 115.836C71.5089 115.557 71.4096 115.251 71.1721 115.078L69.3237 113.735C68.7928 113.35 69.0656 112.51 69.7219 112.51H72.0067C72.3002 112.51 72.5603 112.321 72.651 112.042L73.3571 109.869Z" fill="#D1D1D1" stroke="#A4A4A4" stroke-miterlimit="10"/>
<path d="M94.8707 109.869C95.0735 109.245 95.9566 109.245 96.1594 109.869L96.8654 112.042C96.9561 112.321 97.2162 112.51 97.5097 112.51H99.7945C100.451 112.51 100.724 113.35 100.193 113.735L98.3443 115.078C98.1069 115.251 98.0075 115.557 98.0982 115.836L98.8042 118.009C99.007 118.633 98.2926 119.152 97.7617 118.766L95.9133 117.423C95.6758 117.251 95.3543 117.251 95.1168 117.423L93.2684 118.766C92.7375 119.152 92.0231 118.633 92.2259 118.009L92.9319 115.836C93.0226 115.557 92.9233 115.251 92.6858 115.078L90.8374 113.735C90.3064 113.35 90.5793 112.51 91.2356 112.51H93.5204C93.8139 112.51 94.074 112.321 94.1647 112.042L94.8707 109.869Z" stroke="#A4A4A4" stroke-miterlimit="10"/>
<path d="M60.0752 85.7362L66.9812 92.5417" stroke="#A4A4A4" stroke-linecap="round" stroke-linejoin="round"/>
<path d="M66.9313 85.6859L60.1258 92.5919" stroke="#A4A4A4" stroke-linecap="round" stroke-linejoin="round"/>
<path d="M81.0183 85.5822L87.9243 92.3876" stroke="#A4A4A4" stroke-linecap="round" stroke-linejoin="round"/>
<path d="M87.874 85.5321L81.0685 92.4382" stroke="#A4A4A4" stroke-linecap="round" stroke-linejoin="round"/>
<path d="M64.4546 99.608L82.2303 99.4777" stroke="#A4A4A4" stroke-linecap="round" stroke-linejoin="round"/>
<path d="M74.99 99.531L79.5765 99.4974L79.5966 102.231C79.6053 103.423 78.6446 104.398 77.4525 104.406L77.1858 104.408C75.9937 104.417 75.0188 103.456 75.01 102.264L74.99 99.531Z" fill="white" stroke="#A4A4A4" stroke-linecap="round" stroke-linejoin="round"/>
<path d="M135.926 78.7726C135.926 78.7726 130.795 84.7914 136.776 89.9247C130.795 84.7913 125.624 90.775 125.624 90.775C125.624 90.775 130.754 84.7562 124.773 79.6228C130.754 84.7562 135.926 78.7726 135.926 78.7726Z" fill="white" stroke="#A4A4A4" stroke-linecap="round" stroke-linejoin="round"/>
<path d="M23.9256 20.7726C23.9256 20.7726 18.7952 26.7914 24.7759 31.9247C18.7951 26.7913 13.6239 32.775 13.6239 32.775C13.6239 32.775 18.7543 26.7562 12.7734 21.6228C18.7543 26.7562 23.9256 20.7726 23.9256 20.7726Z" fill="white" stroke="#A4A4A4" stroke-linecap="round" stroke-linejoin="round"/>
</svg>
