<svg width="148" height="151" viewBox="0 0 148 151" fill="none" xmlns="http://www.w3.org/2000/svg">
<rect y="1.72745" width="148" height="148" rx="74" fill="#F5F5F5"/>
<path d="M107.617 45.7331H50.8043C47.839 45.7331 45.4351 48.137 45.4351 51.1024V118.647C45.4351 121.612 47.839 124.016 50.8043 124.016H107.617C110.582 124.016 112.986 121.612 112.986 118.647V51.1024C112.986 48.137 110.582 45.7331 107.617 45.7331Z" fill="#D1D1D1" stroke="#A4A4A4" stroke-linecap="round" stroke-linejoin="round"/>
<path d="M104.792 44.3186V104.303C104.792 110.807 99.521 116.078 93.0103 116.078H44.0221C40.2756 116.078 37.2405 113.043 37.2405 109.296V44.3186C37.2405 41.2227 39.7472 38.709 42.8501 38.709H99.1755C102.278 38.709 104.792 41.2227 104.792 44.3186Z" fill="white" stroke="#A4A4A4" stroke-linecap="round" stroke-linejoin="round"/>
<path d="M93.0106 116.078H44.0224C40.2759 116.078 37.2407 113.043 37.2407 109.297C37.2407 106.038 39.5373 103.314 42.5996 102.664L42.9858 102.596L43.0264 102.59L90.0634 92.8948C84.9823 94.2023 81.2291 98.8159 81.2291 104.304C81.2291 110.808 86.5066 116.078 93.0106 116.078Z" fill="#EBEBEB" stroke="#A4A4A4" stroke-linecap="round" stroke-linejoin="round"/>
<path d="M90.3006 92.8472L90.077 92.8878L90.0635 92.8946" stroke="#A4A4A4" stroke-linecap="round" stroke-linejoin="round"/>
<path d="M85.3961 35.9947V42.031C85.3961 43.0202 84.5966 43.8197 83.6075 43.8197H59.7939C58.798 43.8197 57.9985 43.0201 57.9985 42.031V35.9947C57.9985 35.0054 58.798 34.1993 59.7939 34.1993H64.9428C64.9428 30.4664 67.9644 27.438 71.6973 27.438C75.4303 27.438 78.4587 30.4664 78.4587 34.1993H83.6076C84.5967 34.1993 85.3961 35.0054 85.3961 35.9947Z" fill="#D1D1D1" stroke="#A4A4A4" stroke-linecap="round" stroke-linejoin="round"/>
<path d="M34.0024 68.7689C40.349 68.7689 45.4939 63.624 45.4939 57.2774C45.4939 50.9309 40.349 45.786 34.0024 45.786C27.6559 45.786 22.511 50.9309 22.511 57.2774C22.511 63.624 27.6559 68.7689 34.0024 68.7689Z" fill="#EBEBEB" stroke="#A4A4A4" stroke-linecap="round" stroke-linejoin="round"/>
<path d="M32.374 60.4106C32.7206 60.753 33.1586 60.9688 33.6856 61.0568V57.5619C33.2198 57.4471 32.8173 57.3215 32.4792 57.1852C32.14 57.0489 31.8588 56.8868 31.6355 56.6979C31.4112 56.509 31.2459 56.2782 31.1407 56.0055C31.0344 55.7329 30.9818 55.4034 30.9818 55.0159C30.9818 54.6198 31.0527 54.257 31.1932 53.9275C31.3338 53.598 31.5249 53.3125 31.7664 53.0699C32.009 52.8283 32.2945 52.6373 32.624 52.4967C32.9535 52.3561 33.3077 52.2724 33.6856 52.2456V51.3751H34.4112V52.2595C35.1239 52.3475 35.6906 52.6116 36.1125 53.0506C36.5343 53.4907 36.8338 54.0971 37.0098 54.871H35.8881C35.7121 54.0005 35.2205 53.4906 34.4112 53.3404V56.5852L35.2023 56.7966C35.3783 56.8407 35.5854 56.9179 35.8226 57.0274C36.0598 57.1369 36.2885 57.2893 36.5085 57.4825C36.7286 57.6758 36.9154 57.9173 37.0688 58.2081C37.2223 58.498 37.2996 58.8457 37.2996 59.2493C37.2996 59.6808 37.2276 60.0629 37.0817 60.3967C36.9368 60.7316 36.7371 61.0193 36.4817 61.2608C36.2273 61.5034 35.9235 61.6945 35.5715 61.835C35.2205 61.9756 34.833 62.0637 34.4112 62.0991V63.1799H33.6856V62.0991C32.8065 62.0111 32.1077 61.7051 31.5882 61.1824C31.0698 60.6586 30.7757 59.9352 30.7048 59.0121H31.8265C31.8436 59.6014 32.0262 60.0671 32.374 60.4106ZM32.6111 53.7557C32.316 54.0155 32.1689 54.3955 32.1689 54.8968C32.1689 55.1254 32.2066 55.3218 32.2817 55.4839C32.3557 55.647 32.4609 55.7833 32.5983 55.8928C32.7336 56.0034 32.8946 56.0978 33.0792 56.1762C33.2638 56.2556 33.4657 56.3265 33.6857 56.3876V53.3017C33.2639 53.3457 32.9052 53.497 32.6111 53.7557ZM35.0906 60.9248C35.2967 60.855 35.477 60.7509 35.6316 60.6146C35.7851 60.4782 35.9042 60.3076 35.9879 60.1004C36.0706 59.8943 36.1125 59.6496 36.1125 59.3684C36.1125 59.1129 36.0684 58.9004 35.9804 58.7286C35.8924 58.5569 35.7743 58.4099 35.6251 58.2864C35.4749 58.1641 35.2945 58.061 35.0842 57.9773C34.8727 57.8936 34.6484 57.8163 34.4112 57.7465V61.0568C34.657 61.0397 34.8834 60.9956 35.0906 60.9248Z" fill="#A4A4A4"/>
<path d="M103.282 47.4028C107.553 47.4028 111.016 43.9404 111.016 39.6692C111.016 35.398 107.553 31.9355 103.282 31.9355C99.0108 31.9355 95.5483 35.398 95.5483 39.6692C95.5483 43.9404 99.0108 47.4028 103.282 47.4028Z" fill="#EBEBEB" stroke="#A4A4A4" stroke-linecap="round" stroke-linejoin="round"/>
<path d="M110.796 103.207C118.853 103.207 125.384 96.6755 125.384 88.6186C125.384 80.5617 118.853 74.0304 110.796 74.0304C102.739 74.0304 96.208 80.5617 96.208 88.6186C96.208 96.6755 102.739 103.207 110.796 103.207Z" fill="#D1D1D1" stroke="#A4A4A4" stroke-linecap="round" stroke-linejoin="round"/>
<path d="M107.747 88.387C107.534 88.0236 107.355 87.6459 107.212 87.2501C107.068 86.8555 106.996 86.4023 106.996 85.8905C106.996 85.3787 107.094 84.9229 107.292 84.5218C107.49 84.122 107.755 83.7834 108.091 83.5059C108.427 83.2285 108.814 83.015 109.252 82.8665C109.689 82.7167 110.153 82.6412 110.644 82.6412C111.829 82.6412 112.759 82.9863 113.437 83.674C114.114 84.3616 114.443 85.3943 114.42 86.7708H113.061C113.039 85.8319 112.837 85.1091 112.453 84.6025C112.068 84.0958 111.493 83.8419 110.725 83.8419C110.404 83.8419 110.106 83.8953 109.829 84.0021C109.551 84.1088 109.308 84.256 109.101 84.4422C108.892 84.6285 108.729 84.8499 108.612 85.1064C108.495 85.3617 108.436 85.6404 108.436 85.9386C108.436 86.1939 108.462 86.4321 108.516 86.651C108.569 86.8698 108.636 87.0742 108.716 87.2669C108.796 87.4584 108.884 87.6459 108.98 87.827C109.076 88.008 109.172 88.1942 109.269 88.387H111.812V89.1071H109.62C109.705 89.2777 109.78 89.464 109.844 89.6671C109.908 89.8703 109.941 90.0826 109.941 90.3066C109.941 90.6699 109.887 90.9929 109.78 91.2755C109.674 91.5581 109.534 91.8199 109.364 92.0595C109.193 92.2991 108.996 92.5205 108.772 92.7237C108.548 92.9269 108.318 93.1235 108.083 93.3162L108.116 93.3475C108.393 93.2303 108.663 93.1235 108.924 93.0271C109.185 92.932 109.476 92.8839 109.796 92.8839C110.106 92.8839 110.383 92.9099 110.628 92.962C110.873 93.0128 111.102 93.0649 111.316 93.1169C111.529 93.1781 111.746 93.2406 111.964 93.3032C112.183 93.3643 112.415 93.3956 112.661 93.3956C112.916 93.3956 113.17 93.3344 113.42 93.212C113.672 93.0896 113.893 92.9529 114.085 92.8031L114.774 93.8658C114.453 94.1471 114.087 94.3398 113.677 94.4414C113.266 94.5443 112.853 94.5963 112.437 94.5963C112.17 94.5963 111.909 94.5637 111.653 94.5C111.397 94.4362 111.13 94.3659 110.852 94.2916C110.585 94.207 110.316 94.1288 110.045 94.0598C109.773 93.9907 109.481 93.9556 109.172 93.9556C108.862 93.9556 108.58 94.0064 108.325 94.1079C108.068 94.2095 107.817 94.3398 107.572 94.4999L106.82 93.4594C107.044 93.3109 107.262 93.1338 107.475 92.932C107.689 92.7288 107.878 92.5048 108.045 92.26C108.209 92.0138 108.34 91.7533 108.437 91.4747C108.532 91.1986 108.58 90.9043 108.58 90.5956C108.58 90.3495 108.537 90.0942 108.452 89.8273C108.366 89.5603 108.276 89.3207 108.18 89.1071H106.82V88.387H107.747Z" fill="white"/>
<path d="M53.3318 61.3237L62.3946 70.376" stroke="#A4A4A4" stroke-linecap="round" stroke-linejoin="round"/>
<path d="M62.3899 61.3183L53.3376 70.3811" stroke="#A4A4A4" stroke-linecap="round" stroke-linejoin="round"/>
<path d="M81.0007 61.3077L90.0635 70.3599" stroke="#A4A4A4" stroke-linecap="round" stroke-linejoin="round"/>
<path d="M90.0591 61.3023L81.0068 70.3652" stroke="#A4A4A4" stroke-linecap="round" stroke-linejoin="round"/>
<path d="M58.9932 79.6892L82.4778 79.6755" stroke="#A4A4A4" stroke-linecap="round" stroke-linejoin="round"/>
<path d="M111.922 0.500009C111.922 0.500009 106.55 6.80236 112.812 12.1775C106.549 6.80225 101.135 13.0678 101.135 13.0678C101.135 13.0678 106.507 6.76548 100.244 1.39027C106.507 6.76548 111.922 0.500009 111.922 0.500009Z" fill="white" stroke="#A4A4A4" stroke-linecap="round" stroke-linejoin="round"/>
<path d="M52.7849 141.155C52.7849 141.155 44.5298 141.812 45.1573 150.041C44.5298 141.812 36.2705 142.414 36.2705 142.414C36.2705 142.414 44.5256 141.756 43.8981 133.527C44.5256 141.756 52.7849 141.155 52.7849 141.155Z" fill="white" stroke="#A4A4A4" stroke-linecap="round" stroke-linejoin="round"/>
</svg>
