<svg width="150" height="148" viewBox="0 0 150 148" fill="none" xmlns="http://www.w3.org/2000/svg">
<rect x="1.5" width="148" height="148" rx="74" fill="#F5F5F5"/>
<path d="M31.5499 50.9237C32.5021 54.4772 29.6021 58.3418 25.0725 59.5555C23.9401 59.8589 22.8131 59.968 21.7447 59.9052" stroke="#A4A4A4" stroke-width="3" stroke-linecap="round" stroke-linejoin="round"/>
<path d="M39.4611 80.4466C40.4132 84.0001 37.5132 87.8647 32.9836 89.0784C31.8512 89.3818 30.7242 89.4909 29.6558 89.4281" stroke="#A4A4A4" stroke-width="3" stroke-linecap="round" stroke-linejoin="round"/>
<path d="M47.3715 109.969C48.3236 113.523 45.4236 117.388 40.894 118.601C39.7616 118.905 38.6346 119.014 37.5662 118.951" stroke="#A4A4A4" stroke-width="3" stroke-linecap="round" stroke-linejoin="round"/>
<path d="M98.4297 22.0471L36.3391 38.6842C33.145 39.5401 31.2495 42.8232 32.1053 46.0173L53.7308 126.725C54.5866 129.919 57.8698 131.814 61.0638 130.958L123.154 114.321C126.349 113.465 128.244 110.182 127.388 106.988L105.763 26.2808C104.907 23.0868 101.624 21.1912 98.4297 22.0471Z" fill="#EBEBEB" stroke="#A4A4A4" stroke-linecap="round" stroke-linejoin="round"/>
<path d="M86.3159 16.6215L24.2253 33.2586C21.0312 34.1145 19.1357 37.3976 19.9916 40.5917L41.617 121.299C42.4729 124.493 45.756 126.389 48.9501 125.533L111.041 108.896C114.235 108.04 116.13 104.757 115.274 101.563L93.649 20.8552C92.7931 17.6612 89.51 15.7657 86.3159 16.6215Z" fill="white" stroke="#A4A4A4" stroke-linecap="round" stroke-linejoin="round"/>
<path d="M21.7451 59.9046C18.5398 59.7166 15.8616 57.9833 15.1475 55.3182C14.1953 51.7646 17.0953 47.9 21.625 46.6863C26.1546 45.4726 30.5983 47.3695 31.5505 50.923" stroke="#A4A4A4" stroke-width="3" stroke-linecap="round" stroke-linejoin="round"/>
<path d="M29.6555 89.4276C26.4502 89.2396 23.772 87.5062 23.0579 84.8411C22.1057 81.2876 25.0057 77.423 29.5354 76.2093C34.065 74.9956 38.5087 76.8924 39.4609 80.4459" stroke="#A4A4A4" stroke-width="3" stroke-linecap="round" stroke-linejoin="round"/>
<path d="M37.5659 118.95C34.3606 118.762 31.6824 117.029 30.9683 114.364C30.0161 110.81 32.9161 106.946 37.4458 105.732C41.9754 104.518 46.4191 106.415 47.3713 109.969" stroke="#A4A4A4" stroke-width="3" stroke-linecap="round" stroke-linejoin="round"/>
<path d="M50.9981 57.6771C56.3374 56.2464 59.5059 50.7583 58.0753 45.419C56.6446 40.0798 51.1565 36.9112 45.8173 38.3419C40.478 39.7725 37.3094 45.2606 38.7401 50.5999C40.1707 55.9392 45.6588 59.1077 50.9981 57.6771Z" fill="white" stroke="#A4A4A4" stroke-linecap="round" stroke-linejoin="round"/>
<path d="M46.3213 53.6502C46.3213 53.6502 46.817 51.8865 49.2704 51.2291C51.7238 50.5717 53.035 51.8512 53.035 51.8512" fill="white"/>
<path d="M46.3213 53.6502C46.3213 53.6502 46.817 51.8865 49.2704 51.2291C51.7238 50.5717 53.035 51.8512 53.035 51.8512" stroke="#A4A4A4" stroke-linecap="round" stroke-linejoin="round"/>
<path d="M44.4722 48.3588C45.2459 48.1515 45.7051 47.3562 45.4978 46.5824C45.2905 45.8087 44.4952 45.3495 43.7214 45.5569C42.9477 45.7642 42.4885 46.5595 42.6958 47.3332C42.9031 48.107 43.6985 48.5661 44.4722 48.3588Z" fill="#A4A4A4" stroke="#A4A4A4" stroke-linecap="round" stroke-linejoin="round"/>
<path d="M51.9904 46.3442C52.7641 46.1369 53.2233 45.3416 53.016 44.5679C52.8086 43.7941 52.0133 43.3349 51.2396 43.5423C50.4659 43.7496 50.0067 44.5449 50.214 45.3186C50.4213 46.0924 51.2166 46.5516 51.9904 46.3442Z" fill="#A4A4A4" stroke="#A4A4A4" stroke-linecap="round" stroke-linejoin="round"/>
<path d="M65.1081 110.336C70.4474 108.905 73.6159 103.417 72.1853 98.0779C70.7546 92.7387 65.2665 89.5701 59.9272 91.0008C54.588 92.4314 51.4194 97.9195 52.8501 103.259C54.2807 108.598 59.7688 111.767 65.1081 110.336Z" fill="white" stroke="#A4A4A4" stroke-linecap="round" stroke-linejoin="round"/>
<path d="M60.0236 104.787C60.0236 104.787 61.3347 106.067 63.7881 105.41C66.2415 104.752 66.7372 102.989 66.7372 102.989" fill="white"/>
<path d="M60.0236 104.787C60.0236 104.787 61.3347 106.067 63.7881 105.41C66.2415 104.752 66.7372 102.989 66.7372 102.989" stroke="#A4A4A4" stroke-linecap="round" stroke-linejoin="round"/>
<path d="M58.5822 101.018C59.3559 100.81 59.8151 100.015 59.6078 99.2413C59.4004 98.4676 58.6051 98.0084 57.8314 98.2157C57.0577 98.4231 56.5985 99.2184 56.8058 99.9921C57.0131 100.766 57.8084 101.225 58.5822 101.018Z" fill="#A4A4A4" stroke="#A4A4A4" stroke-linecap="round" stroke-linejoin="round"/>
<path d="M66.0998 99.0031C66.8735 98.7958 67.3327 98.0005 67.1253 97.2267C66.918 96.453 66.1227 95.9938 65.349 96.2011C64.5752 96.4085 64.1161 97.2038 64.3234 97.9775C64.5307 98.7513 65.326 99.2104 66.0998 99.0031Z" fill="#A4A4A4" stroke="#A4A4A4" stroke-linecap="round" stroke-linejoin="round"/>
<path d="M57.8494 83.2458C63.1887 81.8151 66.3573 76.327 64.9266 70.9877C63.496 65.6485 58.0078 62.4799 52.6686 63.9106C47.3293 65.3412 44.1607 70.8293 45.5914 76.1686C47.0221 81.5078 52.5102 84.6764 57.8494 83.2458Z" fill="white" stroke="#A4A4A4" stroke-linecap="round" stroke-linejoin="round"/>
<path d="M51.3236 73.9275C52.0974 73.7202 52.5565 72.9249 52.3492 72.1511C52.1419 71.3774 51.3466 70.9182 50.5729 71.1255C49.7991 71.3328 49.3399 72.1282 49.5473 72.9019C49.7546 73.6756 50.5499 74.1348 51.3236 73.9275Z" fill="#A4A4A4" stroke="#A4A4A4" stroke-linecap="round" stroke-linejoin="round"/>
<path d="M58.8419 71.9129C59.6157 71.7056 60.0749 70.9103 59.8675 70.1365C59.6602 69.3628 58.8649 68.9036 58.0912 69.1109C57.3174 69.3183 56.8583 70.1136 57.0656 70.8873C57.2729 71.661 58.0682 72.1202 58.8419 71.9129Z" fill="#A4A4A4" stroke="#A4A4A4" stroke-linecap="round" stroke-linejoin="round"/>
<path d="M53.0454 78.2646L59.5192 76.53" stroke="#A4A4A4" stroke-linecap="round" stroke-linejoin="round"/>
<path d="M85.1607 34.4529L63.4032 40.2828C62.8496 40.4311 62.521 41.0002 62.6694 41.5538L63.5206 44.7306C63.6689 45.2843 64.238 45.6128 64.7916 45.4645L86.5491 39.6345C87.1027 39.4862 87.4313 38.9172 87.2829 38.3635L86.4317 35.1867C86.2834 34.6331 85.7143 34.3045 85.1607 34.4529Z" fill="#EBEBEB"/>
<path d="M92.2441 60.8902L70.4865 66.7201C69.9329 66.8685 69.6044 67.4375 69.7527 67.9911L70.604 71.168C70.7523 71.7216 71.3213 72.0501 71.875 71.9018L93.6325 66.0719C94.1861 65.9235 94.5147 65.3545 94.3663 64.8008L93.5151 61.624C93.3668 61.0704 92.7977 60.7419 92.2441 60.8902Z" fill="#EBEBEB"/>
<path d="M99.3288 87.3289L77.5713 93.1588C77.0176 93.3072 76.6891 93.8762 76.8374 94.4298L77.6887 97.6067C77.837 98.1603 78.4061 98.4888 78.9597 98.3405L100.717 92.5106C101.271 92.3622 101.599 91.7932 101.451 91.2396L100.6 88.0627C100.451 87.5091 99.8824 87.1806 99.3288 87.3289Z" fill="#EBEBEB"/>
<path d="M98.0734 132.096L139.909 121.106C140.025 121.075 140.133 121.04 140.241 121.004C140.249 121.009 140.256 121.007 140.261 120.999C140.395 120.978 140.525 120.944 140.655 120.91C145.039 119.758 147.655 115.278 146.503 110.895C145.805 108.237 143.88 106.232 141.493 105.314C139.954 104.722 138.214 104.594 136.488 105.047L94.2051 110.18C99.5583 109.682 104.63 113.101 106.039 118.464C107.604 124.423 104.039 130.529 98.0734 132.096Z" fill="#D1D1D1" stroke="#A4A4A4" stroke-linecap="round" stroke-linejoin="round"/>
<path d="M73.773 83.4313L84.4428 124.137C86.0081 130.096 92.1141 133.661 98.0729 132.096C104.039 130.528 107.604 124.423 106.039 118.464C104.63 113.101 99.5578 109.681 94.2046 110.179L136.488 105.046C138.214 104.593 139.954 104.722 141.493 105.313L131.766 68.1966C130.987 65.2309 127.951 63.4584 124.992 64.2357L77.7253 76.6526C74.7595 77.4318 72.9939 80.4655 73.773 83.4313Z" fill="#F5F5F5" stroke="#A4A4A4" stroke-linecap="round" stroke-linejoin="round"/>
<path d="M121.483 76.6552L115.017 87.6669" stroke="#A4A4A4" stroke-linecap="round" stroke-linejoin="round"/>
<path d="M112.745 78.9288L123.757 85.3946" stroke="#A4A4A4" stroke-linecap="round" stroke-linejoin="round"/>
<path d="M94.7877 83.5994L88.322 94.611" stroke="#A4A4A4" stroke-linecap="round" stroke-linejoin="round"/>
<path d="M86.0496 85.8717L97.0614 92.3375" stroke="#A4A4A4" stroke-linecap="round" stroke-linejoin="round"/>
<path d="M120.641 95.7961L97.9835 101.69" stroke="#A4A4A4" stroke-linecap="round" stroke-linejoin="round"/>
<path d="M12.1775 89.0001C12.1775 89.0001 6.80542 95.3024 13.0679 100.678C6.80531 95.3023 1.39048 101.568 1.39048 101.568C1.39048 101.568 6.7626 95.2656 0.5 89.8904C6.7626 95.2656 12.1775 89.0001 12.1775 89.0001Z" fill="white" stroke="#A4A4A4" stroke-linecap="round" stroke-linejoin="round"/>
<path d="M145.178 33.0001C145.178 33.0001 139.805 39.3024 146.068 44.6775C139.805 39.3023 134.39 45.5679 134.39 45.5679C134.39 45.5679 139.763 39.2656 133.5 33.8904C139.763 39.2656 145.178 33.0001 145.178 33.0001Z" fill="white" stroke="#A4A4A4" stroke-linecap="round" stroke-linejoin="round"/>
</svg>
