<svg width="148" height="148" viewBox="0 0 148 148" fill="none" xmlns="http://www.w3.org/2000/svg">
<rect width="148" height="148" rx="74" fill="#F5F5F5"/>
<path d="M115.151 73.7284V122.026C115.151 125.563 112.292 128.422 108.755 128.422H39.2522C37.8362 128.422 36.5219 127.961 35.465 127.189C33.8796 126.023 32.8499 124.147 32.8499 122.026V73.7284C32.8499 72.6443 33.1208 71.6213 33.5951 70.727L33.8593 70.2799C34.9976 68.4982 36.9893 67.326 39.2522 67.326H108.755C110.483 67.326 112.048 68.0105 113.2 69.1214L113.206 69.1282C113.315 69.2297 113.417 69.3383 113.518 69.4534C114.534 70.5847 115.151 72.082 115.151 73.7284Z" fill="white" stroke="#A4A4A4" stroke-linecap="round" stroke-linejoin="round"/>
<path fill-rule="evenodd" clip-rule="evenodd" d="M92.3898 101.461C90.9806 103.649 89.104 105.803 86.7735 107.958C83.0609 111.223 79.0976 114.191 74.9175 116.819L74.0096 117.389L73.1018 116.833C68.8878 114.238 64.9042 111.264 61.178 107.917C57.0725 104.015 54.2338 99.889 53.0076 95.614C57.4316 92.3079 63.373 90.9596 68.7049 92.4839C72.2821 93.5071 75.4323 95.6208 78.6097 97.5515C81.794 99.4892 85.1814 101.312 88.8873 101.664C90.0458 101.772 91.2382 101.705 92.3898 101.461Z" fill="#A4A4A4" stroke="#A4A4A4" stroke-linecap="round" stroke-linejoin="round"/>
<path fill-rule="evenodd" clip-rule="evenodd" d="M95.6826 90.8514C95.6826 94.5979 94.5851 98.0733 92.39 101.461C91.2383 101.705 90.0459 101.773 88.8875 101.664C85.1816 101.312 81.7941 99.4893 78.6099 97.5516C75.4325 95.6208 72.2823 93.5072 68.7051 92.484C63.3732 90.9596 57.4317 92.308 53.0077 95.614C52.5538 94.0422 52.3235 92.4502 52.3235 90.8445C52.337 85.1062 56.1988 80.1063 61.6999 78.7379C66.2865 77.5928 71.0289 79.2257 74.003 82.7553C76.3065 80.0047 79.7143 78.3652 83.3658 78.3652H83.3862C86.6449 78.3652 89.7681 79.6795 92.0716 82.0168C94.3885 84.3611 95.6826 87.5385 95.6826 90.8514Z" fill="#F5F5F5" stroke="#A4A4A4" stroke-linecap="round" stroke-linejoin="round"/>
<path d="M113.518 69.4535C113.417 69.3384 113.315 69.2298 113.206 69.1283L113.2 69.1215C112.048 68.0105 110.483 67.3261 108.755 67.3261H39.2522C36.9894 67.3261 34.9976 68.4983 33.8594 70.28L39.8687 60.2125L39.8822 60.1855C40.7834 58.4579 42.5922 57.2791 44.6721 57.2791H103.329C104.785 57.2791 106.113 57.8549 107.082 58.7967H107.089C107.346 59.0474 107.583 59.3251 107.78 59.6232L107.8 59.6639L108.146 60.2533L113.518 69.4535Z" fill="#D1D1D1" stroke="#A4A4A4" stroke-linecap="round" stroke-linejoin="round"/>
<path fill-rule="evenodd" clip-rule="evenodd" d="M88.7128 64.3283H59.2883L60.7579 60.1475H87.2432L88.7128 64.3283Z" fill="#F5F5F5" stroke="#A4A4A4" stroke-linecap="round" stroke-linejoin="round"/>
<path fill-rule="evenodd" clip-rule="evenodd" d="M88.7148 64.3266H59.2849L60.755 60.1464H87.2447L88.7148 64.3266Z" fill="#F5F5F5" stroke="#A4A4A4" stroke-linecap="round" stroke-linejoin="round"/>
<path d="M83.9524 60.1463C83.7423 60.5934 83.5188 61.0407 83.2682 61.4878C82.7058 62.5108 82.0826 63.4592 81.4186 64.3266H76.6084C77.7399 63.1476 78.8102 61.7385 79.7317 60.1463C79.8198 59.9973 79.9078 59.8483 79.9891 59.6993C81.5677 56.8401 82.4416 53.8999 82.5974 51.3526C82.7125 49.6113 82.4823 48.0533 81.92 46.827C81.4729 45.8515 80.8157 45.0858 79.9552 44.6116L83.2411 46.4069C86.5337 48.2293 86.7775 54.198 83.9524 60.1463Z" fill="#D1D1D1" stroke="#A4A4A4" stroke-linecap="round" stroke-linejoin="round"/>
<path d="M82.5973 51.3525C82.4415 53.8998 81.5676 56.8401 79.989 59.6992C79.9077 59.8482 79.8197 59.9972 79.7316 60.1463C78.8101 61.7384 77.7398 63.1475 76.6083 64.3265H64.8337C64.5152 63.1204 64.4406 61.691 64.6168 60.1463C64.8878 57.7886 65.7346 55.1599 67.1574 52.5924C70.6871 46.2239 76.4186 42.6469 79.9551 44.6116C80.8155 45.0858 81.4727 45.8514 81.9198 46.8269C82.4822 48.0533 82.7125 49.6113 82.5973 51.3525Z" fill="white" stroke="#A4A4A4" stroke-linecap="round" stroke-linejoin="round"/>
<path d="M65.4343 37.7261L63.1307 40.6792C60.6251 43.8563 53.9603 42.7782 48.2416 38.2683C42.5283 33.7626 39.9263 27.5325 42.432 24.3554L44.7355 21.4024C44.1267 22.1744 43.8179 23.1349 43.7852 24.2048C43.7396 25.5536 44.1325 27.0794 44.9095 28.6433C46.0337 30.9268 47.9752 33.3006 50.5394 35.3228C53.1034 37.3449 55.8645 38.6796 58.3522 39.2448C60.0543 39.6358 61.6295 39.6623 62.9307 39.3035C63.9634 39.0224 64.8255 38.4982 65.4343 37.7261Z" fill="#D1D1D1" stroke="#A4A4A4" stroke-linecap="round" stroke-linejoin="round"/>
<path d="M65.4346 37.7261C64.8258 38.4982 63.9637 39.0224 62.931 39.3035C61.6299 39.6623 60.0546 39.6358 58.3525 39.2448C55.8648 38.6796 53.1037 37.3449 50.5397 35.3228C47.9756 33.3006 46.0341 30.9268 44.9098 28.6434C44.1328 27.0794 43.74 25.5536 43.7855 24.2048C43.8181 23.135 44.1269 22.1744 44.7359 21.4024C47.2415 18.2252 53.9064 19.3034 59.6197 23.8091C65.3383 28.319 67.9402 34.5489 65.4346 37.7261Z" fill="white" stroke="#A4A4A4" stroke-linecap="round" stroke-linejoin="round"/>
<path d="M106.883 5.13344L109.897 7.35712C113.14 9.77674 112.241 16.4681 107.886 22.3055C103.534 28.1374 97.3763 30.9053 94.1332 28.4857L91.1195 26.262C91.9076 26.8499 92.876 27.1329 93.9464 27.1369C95.296 27.1464 96.8107 26.7128 98.3533 25.8942C100.606 24.7092 102.927 22.7048 104.879 20.0874C106.832 17.4702 108.092 14.6743 108.591 12.1723C108.936 10.4604 108.92 8.88499 108.527 7.59395C108.218 6.56916 107.671 5.7214 106.883 5.13344Z" fill="#D1D1D1" stroke="#A4A4A4" stroke-linecap="round" stroke-linejoin="round"/>
<path d="M106.883 5.13327C107.671 5.72124 108.218 6.56899 108.527 7.59378C108.92 8.88475 108.936 10.4603 108.591 12.1722C108.093 14.6741 106.832 17.47 104.88 20.0872C102.927 22.7046 100.606 24.7089 98.3533 25.894C96.8107 26.7126 95.296 27.1462 93.9465 27.1367C92.8761 27.1328 91.9077 26.8498 91.1196 26.2618C87.8764 23.8421 88.7757 17.1508 93.1268 11.3189C97.4819 5.48153 103.64 2.71365 106.883 5.13327Z" fill="white" stroke="#A4A4A4" stroke-linecap="round" stroke-linejoin="round"/>
<path d="M25.5716 42.9338C25.5716 42.9338 19.5642 41.1442 17.7603 47.125C19.5641 41.1442 13.5691 39.3138 13.5691 39.3138C13.5691 39.3138 19.5765 41.1033 21.3803 35.1225C19.5765 41.1033 25.5716 42.9338 25.5716 42.9338Z" fill="white" stroke="#A4A4A4" stroke-linecap="round" stroke-linejoin="round"/>
<path d="M135.607 79.2644C135.607 79.2644 130.476 85.2833 136.457 90.4165C130.476 85.2831 125.305 91.2668 125.305 91.2668C125.305 91.2668 130.435 85.248 124.455 80.1146C130.435 85.248 135.607 79.2644 135.607 79.2644Z" fill="white" stroke="#A4A4A4" stroke-linecap="round" stroke-linejoin="round"/>
</svg>
