<svg width="148" height="148" viewBox="0 0 148 148" fill="none" xmlns="http://www.w3.org/2000/svg">
<rect width="148" height="148" rx="74" fill="#F5F5F5"/>
<rect x="25.3745" y="37.3269" width="88.1086" height="69.0081" rx="6.86598" fill="#EBEBEB" stroke="#A4A4A4" stroke-miterlimit="10"/>
<rect x="34.2969" y="29" width="88.1086" height="69.0081" rx="6.86598" fill="white" stroke="#A4A4A4" stroke-miterlimit="10"/>
<circle cx="54.3495" cy="48.1585" r="10.8314" fill="white" stroke="#A4A4A4" stroke-miterlimit="10"/>
<path fill-rule="evenodd" clip-rule="evenodd" d="M47.3922 56.4601C47.6964 53.1613 50.2942 50.5268 53.5764 50.1659C51.8277 49.8087 50.5121 48.2618 50.5121 46.4076C50.5121 44.289 52.2296 42.5715 54.3481 42.5715C56.4667 42.5715 58.1842 44.289 58.1842 46.4076C58.1842 48.2617 56.8687 49.8086 55.1202 50.1659C58.4033 50.5266 61.0017 53.1623 61.305 56.4623C59.4234 58.04 56.9976 58.99 54.3499 58.99C51.701 58.99 49.2742 58.0391 47.3922 56.4601Z" fill="#A4A4A4"/>
<path d="M53.5764 50.1659L53.631 50.6629C53.8758 50.636 54.0645 50.4349 54.0758 50.1889C54.0872 49.9429 53.9177 49.7253 53.6764 49.676L53.5764 50.1659ZM47.3922 56.4601L46.8943 56.4142C46.8793 56.5775 46.9452 56.7378 47.0708 56.8432L47.3922 56.4601ZM55.1202 50.1659L55.0201 49.676C54.7788 49.7253 54.6094 49.9429 54.6207 50.1889C54.6321 50.4349 54.8208 50.636 55.0656 50.6629L55.1202 50.1659ZM61.305 56.4623L61.6263 56.8454C61.7519 56.7401 61.8179 56.5798 61.8029 56.4165L61.305 56.4623ZM53.5217 49.6689C50.0038 50.0557 47.2204 52.8783 46.8943 56.4142L47.8901 56.506C48.1725 53.4442 50.5846 50.9979 53.631 50.6629L53.5217 49.6689ZM50.0121 46.4076C50.0121 48.504 51.4995 50.252 53.4763 50.6558L53.6764 49.676C52.1559 49.3654 51.0121 48.0195 51.0121 46.4076H50.0121ZM54.3481 42.0715C51.9534 42.0715 50.0121 44.0128 50.0121 46.4076H51.0121C51.0121 44.5651 52.5057 43.0715 54.3481 43.0715V42.0715ZM58.6842 46.4076C58.6842 44.0128 56.7429 42.0715 54.3481 42.0715V43.0715C56.1906 43.0715 57.6842 44.5651 57.6842 46.4076H58.6842ZM55.2203 50.6557C57.1969 50.2518 58.6842 48.5039 58.6842 46.4076H57.6842C57.6842 48.0194 56.5405 49.3653 55.0201 49.676L55.2203 50.6557ZM61.8029 56.4165C61.4778 52.8794 58.6937 50.0555 55.1748 49.6689L55.0656 50.6629C58.1129 50.9977 60.5256 53.4451 60.8071 56.5081L61.8029 56.4165ZM60.9838 56.0792C59.1888 57.5842 56.8758 58.49 54.3499 58.49V59.49C57.1194 59.49 59.658 58.4958 61.6263 56.8454L60.9838 56.0792ZM54.3499 58.49C51.8229 58.49 49.5089 57.5834 47.7136 56.0771L47.0708 56.8432C49.0395 58.4949 51.5792 59.49 54.3499 59.49V58.49Z" fill="#A4A4A4"/>
<rect x="44.7319" y="83.9996" width="68.4527" height="6.48219" rx="3.2411" fill="#A4A4A4"/>
<path d="M61.2098 85.9478V89.7109H51.3989V85.9478C51.3989 84.595 51.9455 83.3675 52.8325 82.4804C53.7195 81.5933 54.9559 81.0379 56.3088 81.0379C59.0146 81.0379 61.2098 83.242 61.2098 85.9478Z" fill="#D1D1D1" stroke="#A4A4A4" stroke-miterlimit="10"/>
<path d="M116.186 123.282V125.746C116.186 127.377 115.523 128.846 114.466 129.913C113.4 130.979 111.921 131.633 110.3 131.633H67.0962C70.3575 131.633 72.9916 128.999 72.9916 125.746V123.282H116.186Z" fill="#D1D1D1" stroke="#A4A4A4" stroke-miterlimit="10"/>
<path d="M104.404 85.9477V123.283H72.9915V125.747C72.9915 128.999 70.3573 131.633 67.096 131.633C65.4743 131.633 63.996 130.979 62.9298 129.913C61.8725 128.847 61.2095 127.377 61.2095 125.747V85.9477C61.2095 83.2419 59.0144 81.0378 56.3086 81.0378H99.5031C100.856 81.0378 102.084 81.5933 102.971 82.4803C103.858 83.3674 104.404 84.5948 104.404 85.9477Z" fill="white" stroke="#A4A4A4" stroke-miterlimit="10"/>
<rect x="73.8901" y="45.3721" width="39.2943" height="5.57223" rx="2.78611" fill="#EBEBEB" stroke="#A4A4A4" stroke-miterlimit="10"/>
<rect x="85.3584" y="45.3721" width="16.3573" height="5.57223" rx="2.78611" fill="white" stroke="#A4A4A4" stroke-miterlimit="10"/>
<path d="M50.673 63.7583C50.9014 63.0554 51.8957 63.0554 52.1241 63.7583L52.8853 66.1009C52.9874 66.4153 53.2803 66.6281 53.6108 66.6281H56.074C56.813 66.6281 57.1203 67.5738 56.5224 68.0081L54.5297 69.456C54.2623 69.6502 54.1504 69.9946 54.2525 70.3089L55.0137 72.6515C55.2421 73.3544 54.4376 73.9389 53.8397 73.5045L51.847 72.0567C51.5796 71.8624 51.2175 71.8624 50.9501 72.0566L48.9574 73.5045C48.3595 73.9389 47.555 73.3544 47.7834 72.6515L48.5446 70.3089C48.6467 69.9946 48.5348 69.6502 48.2674 69.456L46.2747 68.0081C45.6768 67.5738 45.9841 66.6281 46.7231 66.6281H49.1863C49.5168 66.6281 49.8097 66.4153 49.9118 66.1009L50.673 63.7583Z" fill="#D1D1D1" stroke="#A4A4A4" stroke-miterlimit="10"/>
<path d="M67.8688 63.7583C68.0972 63.0554 69.0915 63.0554 69.3199 63.7583L70.0811 66.1009C70.1832 66.4153 70.4761 66.6281 70.8066 66.6281H73.2698C74.0088 66.6281 74.3161 67.5738 73.7182 68.0081L71.7255 69.456C71.4581 69.6502 71.3462 69.9946 71.4483 70.3089L72.2095 72.6515C72.4379 73.3544 71.6334 73.9389 71.0355 73.5045L69.0428 72.0567C68.7754 71.8624 68.4133 71.8624 68.1459 72.0566L66.1532 73.5045C65.5553 73.9389 64.7508 73.3544 64.9792 72.6515L65.7404 70.3089C65.8425 69.9946 65.7306 69.6502 65.4632 69.456L63.4705 68.0081C62.8726 67.5738 63.1799 66.6281 63.9189 66.6281H66.3821C66.7126 66.6281 67.0055 66.4153 67.1076 66.1009L67.8688 63.7583Z" fill="#D1D1D1" stroke="#A4A4A4" stroke-miterlimit="10"/>
<path d="M85.6173 63.7583C85.8457 63.0554 86.8401 63.0554 87.0684 63.7583L87.8296 66.1009C87.9317 66.4153 88.2247 66.6281 88.5552 66.6281H91.0184C91.7574 66.6281 92.0647 67.5738 91.4668 68.0081L89.474 69.456C89.2066 69.6502 89.0947 69.9946 89.1969 70.3089L89.958 72.6515C90.1864 73.3544 89.382 73.9389 88.7841 73.5045L86.7913 72.0567C86.5239 71.8624 86.1619 71.8624 85.8945 72.0566L83.9017 73.5045C83.3038 73.9389 82.4994 73.3544 82.7277 72.6515L83.4889 70.3089C83.591 69.9946 83.4792 69.6502 83.2118 69.456L81.219 68.0081C80.6211 67.5738 80.9284 66.6281 81.6674 66.6281H84.1306C84.4611 66.6281 84.754 66.4153 84.8562 66.1009L85.6173 63.7583Z" fill="white" stroke="#A4A4A4" stroke-miterlimit="10"/>
<path d="M143.987 104.718C143.987 104.718 137.987 104.739 137.987 110.718C137.987 104.739 131.987 104.718 131.987 104.718C131.987 104.718 137.987 104.698 137.987 98.7184C137.987 104.698 143.987 104.718 143.987 104.718Z" fill="white" stroke="#A4A4A4" stroke-linecap="round" stroke-linejoin="round"/>
<path d="M19.625 56.7805C19.625 56.7805 13.625 56.8009 13.625 62.7805C13.625 56.8009 7.625 56.7805 7.625 56.7805C7.625 56.7805 13.625 56.76 13.625 50.7805C13.625 56.76 19.625 56.7805 19.625 56.7805Z" fill="white" stroke="#A4A4A4" stroke-linecap="round" stroke-linejoin="round"/>
<path d="M65.1807 100.433H69.6952C69.9824 100.433 70.2452 100.271 70.3753 100.015L75.6561 89.6241C75.9399 89.0657 76.7385 89.0683 77.0186 89.6285L79.5191 94.6296C79.6484 94.8881 79.9125 95.0513 80.2015 95.0513H85.0089C85.2027 95.0513 85.3892 95.1251 85.5306 95.2576L87.9059 97.4845C88.2274 97.7858 88.7365 97.753 89.0166 97.4129L93.8511 91.5424C93.996 91.3665 94.2121 91.2645 94.44 91.2645H99.8599" stroke="#A4A4A4" stroke-miterlimit="10" stroke-linecap="round"/>
<rect x="65.1807" y="104.223" width="34.6792" height="2.89174" rx="0.762887" fill="#EBEBEB"/>
<rect x="65.1807" y="110.906" width="14.9986" height="2.89174" rx="0.762887" fill="#EBEBEB"/>
</svg>
