<svg width="148" height="148" viewBox="0 0 148 148" fill="none" xmlns="http://www.w3.org/2000/svg">
<rect width="148" height="148" rx="74" fill="#F5F5F5"/>
<path d="M89.4895 20.9757C89.4895 20.9757 83.4839 19.1865 81.6803 25.1661C83.4837 19.1865 77.4899 17.3565 77.4899 17.3565C77.4899 17.3565 83.4961 19.1457 85.2995 13.1661C83.4961 19.1457 89.4895 20.9757 89.4895 20.9757Z" fill="white" stroke="#A4A4A4" stroke-linecap="round" stroke-linejoin="round"/>
<path d="M25.2888 93.0586C25.2888 93.0586 19.2832 91.2695 17.4796 97.2491C19.283 91.2695 13.2892 89.4395 13.2892 89.4395C13.2892 89.4395 19.2954 91.2286 21.0988 85.249C19.2954 91.2286 25.2888 93.0586 25.2888 93.0586Z" fill="white" stroke="#A4A4A4" stroke-linecap="round" stroke-linejoin="round"/>
<path d="M129.497 54.9637C129.497 54.9637 131.517 47.2629 120.83 45.3159L113.403 52.2312C113.403 52.2312 123.366 48.9035 124.452 58.9066L129.497 54.9637Z" fill="#EBEBEB" stroke="#A4A4A4" stroke-linecap="round" stroke-linejoin="round"/>
<path d="M25.2887 43.4165C25.2887 43.4165 25.1409 33.797 35.8281 31.8501L40.6311 34.1106C40.6311 34.1106 31.4202 37.3564 30.3333 47.3595L25.2887 43.4165Z" fill="white" stroke="#A4A4A4" stroke-linecap="round" stroke-linejoin="round"/>
<path d="M119.94 106.062C119.94 106.062 128.573 106.582 129.083 98.1681L125.654 94.1157C125.654 94.1157 126.709 97.2066 117.331 100.851L119.94 106.062Z" fill="white" stroke="#A4A4A4" stroke-linecap="round" stroke-linejoin="round"/>
<path d="M110.345 68.3082V71.9947C110.345 73.4608 109.153 74.6394 107.701 74.6394H105.7V109.255C105.7 112.64 102.959 115.381 99.574 115.381H44.4166C43.9097 115.381 43.4162 115.326 42.9506 115.202C42.9369 115.079 42.9369 114.942 42.9369 114.819V68.3082H110.345Z" fill="white" stroke="#A4A4A4" stroke-linecap="round" stroke-linejoin="round"/>
<path d="M110.345 80.2028V114.819C110.345 118.203 107.605 120.944 104.206 120.944H49.0624C47.075 120.944 45.3075 119.999 44.1975 118.532L44.1152 118.423L40.0864 113.585C40.8677 114.366 41.8542 114.928 42.9506 115.202C43.4163 115.326 43.9099 115.38 44.4167 115.38H99.5741C102.959 115.38 105.7 112.64 105.7 109.255V74.6393L110.194 80.2027L110.345 80.2028Z" fill="#D1D1D1" stroke="#A4A4A4" stroke-linecap="round" stroke-linejoin="round"/>
<path d="M110.345 64.3887V71.9946C110.345 73.4607 109.153 74.6393 107.701 74.6393H105.7V80.2027H40.9359C39.4699 80.2027 38.2912 79.0244 38.2912 77.5581V67.0338C38.2912 65.5673 39.4699 64.3887 40.9359 64.3887H110.345Z" fill="#EBEBEB" stroke="#A4A4A4" stroke-linecap="round" stroke-linejoin="round"/>
<path d="M114.99 67.0337V77.558C114.99 79.0244 113.798 80.2027 112.346 80.2027H110.194L105.7 74.6393H107.7C109.153 74.6393 110.345 73.4606 110.345 71.9946V61.4699C110.345 60.8258 110.112 60.2367 109.728 59.7843L114.196 65.1427L114.456 65.4579C114.799 65.8962 114.99 66.4309 114.99 67.0337Z" fill="#D1D1D1" stroke="#A4A4A4" stroke-linecap="round" stroke-linejoin="round"/>
<path d="M74.5726 58.8255C74.5726 58.8255 39.1003 51.6575 54.6721 39.9879C68.7501 29.4379 74.5726 58.8255 74.5726 58.8255Z" stroke="#A4A4A4" stroke-linecap="round" stroke-linejoin="round"/>
<path d="M75.8586 58.8255C75.8586 58.8255 111.331 51.6575 95.7591 39.9879C81.681 29.4379 75.8586 58.8255 75.8586 58.8255Z" stroke="#A4A4A4" stroke-linecap="round" stroke-linejoin="round"/>
<path d="M105.7 62.758V109.255C105.7 112.64 102.959 115.38 99.5742 115.38H44.4168C43.9099 115.38 43.4164 115.326 42.9507 115.202C41.8544 114.928 40.8678 114.366 40.0865 113.585C40.0454 113.544 39.9905 113.489 39.9496 113.434C38.9218 112.338 38.2912 110.872 38.2912 109.255V62.758H105.7Z" fill="white" stroke="#A4A4A4" stroke-linecap="round" stroke-linejoin="round"/>
<path d="M110.345 61.4701V71.9948C110.345 73.4608 109.153 74.6395 107.7 74.6395H36.2901C34.8237 74.6395 33.6454 73.4608 33.6454 71.9948V61.4701C33.6454 60.004 34.8238 58.8254 36.2901 58.8254H107.7C108.495 58.8254 109.221 59.1817 109.701 59.7434C109.715 59.7571 109.728 59.7708 109.728 59.7845C110.112 60.2369 110.345 60.826 110.345 61.4701Z" fill="#EBEBEB" stroke="#A4A4A4" stroke-linecap="round" stroke-linejoin="round"/>
<path d="M79.9028 58.8254H64.0847V74.6436H79.9028V58.8254Z" fill="white" stroke="#A4A4A4" stroke-linecap="round" stroke-linejoin="round"/>
<path d="M54.3442 83.5213L63.3456 92.5788" stroke="#A4A4A4" stroke-linecap="round" stroke-linejoin="round"/>
<path d="M63.3744 83.5498L54.3168 92.5514" stroke="#A4A4A4" stroke-linecap="round" stroke-linejoin="round"/>
<path d="M81.9276 83.6072L90.9291 92.6646" stroke="#A4A4A4" stroke-linecap="round" stroke-linejoin="round"/>
<path d="M90.9569 83.6346L81.8995 92.6361" stroke="#A4A4A4" stroke-linecap="round" stroke-linejoin="round"/>
<path d="M59.9213 101.851L83.3331 101.924" stroke="#A4A4A4" stroke-linecap="round" stroke-linejoin="round"/>
<path d="M73.7974 101.894L79.8382 101.913L79.8271 105.513C79.8223 107.083 78.5436 108.354 76.9734 108.349L76.6223 108.348C75.0521 108.343 73.7815 107.064 73.7863 105.494L73.7974 101.894Z" fill="white" stroke="#A4A4A4" stroke-linecap="round" stroke-linejoin="round"/>
</svg>
