<svg width="148" height="148" viewBox="0 0 148 148" fill="none" xmlns="http://www.w3.org/2000/svg">
<rect width="148" height="148" rx="74" fill="#F5F5F5"/>
<path d="M110.653 49.3043V91.1692H34.6604V49.3043C34.6604 45.8146 37.4877 42.9872 40.9775 42.9872H104.336C107.826 42.9872 110.653 45.8146 110.653 49.3043Z" fill="white" stroke="#A4A4A4" stroke-linecap="round" stroke-linejoin="round"/>
<path d="M118.544 49.3043V96.4451C118.544 99.9348 115.716 102.762 112.227 102.762H104.336C107.826 102.762 110.653 99.9348 110.653 96.4451V49.3043C110.653 45.8146 107.826 42.9872 104.336 42.9872H112.227C115.716 42.9872 118.544 45.8146 118.544 49.3043Z" fill="#D1D1D1" stroke="#A4A4A4" stroke-linecap="round" stroke-linejoin="round"/>
<path d="M110.65 91.1639V96.4427C110.65 99.9368 107.83 102.758 104.336 102.758H40.9766C37.4823 102.758 34.6619 99.9368 34.6619 96.4427V91.1639H110.65Z" fill="#EBEBEB" stroke="#A4A4A4" stroke-linecap="round" stroke-linejoin="round"/>
<path d="M53.7683 117.259H57.6869H61.9175" fill="white"/>
<path d="M53.7683 117.259H57.6869H61.9175" stroke="#A4A4A4" stroke-linecap="round" stroke-linejoin="round"/>
<path d="M83.1829 117.259H61.9175C65.7735 117.259 68.4815 113.452 67.2213 109.808L64.8001 102.758H86.0655L88.4867 109.808C89.7469 113.452 87.0389 117.259 83.1829 117.259Z" fill="white" stroke="#A4A4A4" stroke-linecap="round" stroke-linejoin="round"/>
<path d="M61.9176 117.259H57.687" stroke="#A4A4A4" stroke-linecap="round" stroke-linejoin="round"/>
<path d="M69.1754 63.5369L68.8948 63.9109L68.7078 64.098L68.3338 64.3037L68.2776 64.472C68.2776 64.472 68.1279 64.6217 68.1467 64.7152C68.1655 64.8088 68.1655 64.9771 68.1655 64.9771C68.1655 64.9771 67.9036 65.2202 67.7914 65.295C67.6791 65.3698 67.5294 65.5382 67.5294 65.5382C67.5294 65.5382 67.436 65.6504 67.3799 65.6878C67.3238 65.7252 67.2303 65.8374 67.1554 65.9497C67.0805 66.0619 67.0057 66.1367 66.9684 66.1928C66.931 66.2489 66.8187 66.3798 66.7626 66.5856C66.7065 66.7914 66.5568 67.0345 66.5568 67.0345L66.5194 67.128C66.5381 67.446 66.5381 67.5021 66.5755 67.6143C66.6129 67.7265 66.6504 67.6891 66.6129 67.9323C66.5755 68.1754 66.5755 68.2689 66.5381 68.3812C66.5007 68.4933 66.3885 68.699 66.3512 68.7927C66.3137 68.8862 66.426 69.0545 66.426 69.0545C66.426 69.0545 66.4821 69.2977 66.4447 69.3538C66.4073 69.4099 66.4634 69.5221 66.4634 69.5221C66.4634 69.5221 66.6878 69.653 66.7627 69.7279C66.8375 69.8027 66.9684 69.9149 66.9871 69.971C67.0059 70.0272 67.1555 70.289 67.1742 70.3451C67.1929 70.4012 67.3425 70.6069 67.3799 70.6631C67.4173 70.7192 67.6044 70.925 67.6044 70.925C67.6044 70.925 67.8475 71.1119 67.9037 71.1868C67.9598 71.2616 68.1281 71.299 68.1842 71.3551C68.2403 71.4112 68.3712 71.3924 68.446 71.4486C68.5209 71.5047 68.6705 71.4112 68.7453 71.4486C68.8201 71.486 69.0259 71.4112 69.082 71.3738C69.1381 71.3364 69.269 71.2055 69.3626 71.2616C69.4561 71.3176 69.5122 71.2616 69.587 71.2803C69.6618 71.299 69.774 71.2055 69.8488 71.2055C69.9237 71.2055 70.1107 71.1307 70.1668 71.1307C70.2229 71.1307 70.41 71.0184 70.4848 71.0184C70.5596 71.0184 70.6531 70.9438 70.7466 70.981C70.8401 71.0183 70.8027 70.9063 70.9711 70.9623C71.1394 71.0184 71.1955 70.9623 71.2516 71.0184C71.3078 71.0745 71.3826 71.0185 71.4387 71.0933C71.4948 71.168 71.5883 71.2241 71.607 71.299C71.6257 71.3738 71.7379 71.4487 71.7379 71.4487L71.8502 71.4673C71.8502 71.4673 71.9999 71.3551 72.0372 71.43C72.0746 71.5048 72.243 71.4862 72.243 71.4862L72.4113 71.6731L72.4674 71.7479C72.4674 71.7479 72.5797 72.0473 72.5609 72.1594C72.5422 72.2716 72.5422 72.5148 72.4861 72.5709C72.43 72.627 72.3926 72.8702 72.3926 72.8702C72.3926 72.8702 72.3178 72.945 72.4861 73.0946C72.6545 73.2444 72.7667 73.3752 72.8228 73.4499C72.879 73.5248 73.0287 73.7306 73.0472 73.8615C73.066 73.9924 73.1034 74.0672 73.1783 74.2355C73.2531 74.4039 73.3465 74.4226 73.3652 74.6097C73.384 74.7967 73.4213 74.7968 73.4026 74.9276C73.3839 75.0585 73.3278 75.0772 73.3839 75.1707C73.44 75.2643 73.5148 75.4327 73.4962 75.4887C73.4775 75.5448 73.44 75.788 73.44 75.788L73.4026 75.9003L73.2344 76.2183L73.1221 76.3866C73.0847 76.5174 73.0099 76.6484 73.0286 76.8355C73.0472 77.0225 72.9351 77.0224 73.0847 77.2094C73.2344 77.3966 73.3091 77.6023 73.4026 77.7707C73.4962 77.9389 73.5523 78.1073 73.5709 78.2195C73.5897 78.3318 73.6645 78.3692 73.7019 78.5188C73.7392 78.6685 73.758 78.7432 73.758 78.8368C73.758 78.9302 73.7392 79.1735 73.7767 79.2296C73.8141 79.2857 73.8328 79.4541 73.8515 79.5289C73.8702 79.6037 73.7954 79.6224 73.9076 79.7534C74.0199 79.8843 74.0947 79.9591 74.1695 80.0526C74.2443 80.1462 74.2256 80.1087 74.2817 80.2397C74.3378 80.3706 74.4126 80.4455 74.4314 80.5576C74.4501 80.6698 74.4687 80.9504 74.5249 81.0813C74.581 81.2123 74.6558 81.3433 74.6558 81.3433C74.6558 81.3433 74.8616 81.4741 74.9364 81.4554C75.0111 81.4367 75.1609 81.2685 75.2731 81.3245C75.3854 81.3806 75.4789 81.3245 75.5724 81.3245C75.6658 81.3245 75.7594 81.2123 75.853 81.2123C75.9465 81.2123 76.0774 81.0626 76.1523 81.1001C76.2271 81.1374 76.3205 81.0626 76.4141 80.9691C76.5076 80.8756 76.5637 80.8009 76.732 80.6512C76.9004 80.5015 76.8817 80.5015 76.9939 80.408C77.1061 80.3144 77.2184 80.1087 77.3493 80.0713C77.4802 80.0339 77.5176 79.903 77.555 79.8095C77.5924 79.7159 77.6111 79.6598 77.6672 79.585C77.7234 79.5102 77.6859 79.6039 77.7795 79.3606C77.873 79.1174 77.9854 79.0239 78.0789 78.9678C78.1723 78.9117 78.2284 78.7995 78.2845 78.7807C78.3406 78.762 78.4342 78.8368 78.3968 78.6685C78.3595 78.5002 78.3968 78.257 78.3595 78.2009C78.322 78.1447 78.2658 78.3318 78.2846 78.0511C78.3034 77.7706 78.5091 77.49 78.5091 77.49C78.5091 77.49 78.7896 77.1346 78.8832 77.0785C78.9767 77.0224 78.9954 76.9663 79.1264 76.8915C79.2572 76.8168 79.5378 76.6297 79.5378 76.5361C79.5378 76.4426 79.6501 76.1994 79.6501 76.1433C79.6501 76.0872 79.6501 76.0311 79.6127 75.7131C79.5753 75.3952 79.6501 75.4699 79.5379 75.1707C79.4257 74.8714 79.4069 74.4973 79.3321 74.4038C79.2573 74.3103 79.2947 74.067 79.2947 73.9923C79.2947 73.9175 79.4257 73.7305 79.4818 73.6557C79.5379 73.5808 79.781 73.2815 79.781 73.2815C79.781 73.2815 80.1551 72.8514 80.286 72.6457C80.417 72.4399 80.5479 72.2529 80.6414 72.1781C80.7349 72.1033 80.9594 71.9348 81.0903 71.7478C81.2212 71.5608 81.4831 71.2055 81.5019 71.1492C81.5205 71.0932 81.6701 70.9062 81.6701 70.9062C81.6701 70.9062 81.8758 70.6629 81.9133 70.5321C81.9506 70.4011 82.1376 69.6716 82.1002 69.709C82.0629 69.7465 81.8384 69.7838 81.7636 69.8025C81.6888 69.8213 81.8759 69.896 81.3334 69.8587C80.791 69.8212 80.5105 69.9148 80.5105 69.9148C80.3421 69.8773 80.2112 70.0644 80.155 69.8025C80.0989 69.5408 80.0615 69.3911 79.9493 69.204C79.8371 69.017 79.7622 68.9422 79.594 68.699C79.4257 68.4559 79.4443 68.568 79.2946 68.3811C79.145 68.194 79.1075 68.2501 79.0141 68.007C78.9206 67.7638 78.8458 67.8574 78.7335 67.5207C78.6212 67.1839 78.5465 67.1465 78.4904 66.9595C78.4342 66.7725 78.3595 66.7163 78.322 66.548C78.2846 66.3797 77.8545 65.5193 77.7983 65.4632C77.7421 65.4071 77.6487 65.1078 77.6673 65.1639C77.6861 65.22 77.948 65.4071 77.948 65.4071C77.948 65.4071 78.0976 65.3509 78.1537 65.3509C78.2098 65.3509 78.4343 65.5567 78.4343 65.6315C78.4343 65.7063 78.8272 66.0617 78.9206 66.3236C79.0141 66.5854 79.1265 66.7725 79.1451 66.8473C79.1636 66.9221 79.3508 67.2214 79.4257 67.3336C79.5004 67.4459 79.7436 67.6703 79.781 67.7825C79.8184 67.8948 80.1738 68.2688 80.1738 68.512C80.1738 68.7551 80.3421 69.0731 80.3608 69.1479C80.3796 69.2227 80.7162 69.3163 80.7162 69.3163L81.1651 69.204C81.1651 69.204 81.8384 68.7738 81.9133 68.7738C81.988 68.7738 82.5867 68.4932 82.5867 68.4932C82.5867 68.4932 82.8298 68.2688 82.9981 68.138C83.1664 68.007 83.3535 67.7639 83.391 67.6516C83.4283 67.5393 83.5031 67.5207 83.6527 67.3523C83.8024 67.1839 84.0081 67.0156 83.8773 66.9034C83.7463 66.7912 83.6714 66.8286 83.4844 66.6415C83.2974 66.4545 83.3161 66.4919 83.1851 66.2487C83.0542 66.0056 83.2038 65.725 82.9232 66.0056C82.6427 66.2862 82.7549 66.361 82.4743 66.4172C82.1938 66.4732 82.0815 66.6603 81.9506 66.4732C81.8197 66.2862 81.6888 66.3984 81.6139 66.1178C81.5391 65.8373 81.483 65.8185 81.4643 65.7064C81.4457 65.5941 81.4643 65.5941 81.3147 65.3135C81.1651 65.033 81.2773 64.6028 81.3708 64.8459C81.4643 65.0891 81.6139 65.1265 81.8571 65.2948C82.1002 65.4631 82.2125 65.5941 82.4369 65.6128C82.6614 65.6315 82.8484 65.6128 82.8858 65.6502C82.9232 65.6876 82.9606 65.6315 83.0542 65.6689C83.1477 65.7063 83.185 65.6128 83.2225 65.7623C83.2599 65.912 83.4656 65.9307 83.5591 66.0242C83.6527 66.1177 83.6527 66.0804 83.8959 66.1177C84.1391 66.1552 84.4758 66.1552 84.4758 66.1552L84.8311 66.1364L85.2426 66.1737C85.2426 66.1737 85.542 66.3421 85.6167 66.3421C85.6915 66.3421 85.7102 66.5479 85.8972 66.6601C86.0843 66.7723 86.1217 66.791 86.2339 66.9219C86.3464 67.0529 86.3275 67.109 86.477 67.2399C86.6268 67.3709 86.87 67.2212 86.9074 67.1653C86.9446 67.1091 87.1316 67.0156 87.0944 67.1653C87.057 67.3149 87.2814 67.2587 87.2253 67.6142C87.1692 67.9695 87.1317 67.876 87.2253 68.1192C87.3188 68.3623 87.7303 69.1105 87.749 69.3349C87.7678 69.5594 87.8799 69.4846 87.8986 69.6904C87.9174 69.8961 88.0295 69.9709 88.0295 70.1206C88.0295 70.2702 88.1605 70.3075 88.1792 70.4199C88.198 70.5321 88.4037 70.4385 88.4598 70.4199C88.5159 70.4011 88.7777 70.1579 88.7777 70.1579C88.7777 70.1579 88.8902 70.1206 88.8713 69.9335C88.8525 69.7466 88.8713 69.7839 88.8713 69.5034C88.8713 69.2228 88.7591 69.2228 88.8152 68.9423C88.8713 68.6618 89.0209 68.4934 89.0583 68.3625C89.0957 68.2316 89.2454 68.0071 89.3201 67.9884C89.3949 67.9697 89.8065 67.764 89.9 67.633C89.9935 67.5021 90.1432 67.3524 90.2928 67.2028C90.4424 67.0532 90.7043 66.8662 90.7604 66.9223C90.8165 66.9784 90.7978 66.9597 90.8914 66.9597C90.9849 66.9597 91.1533 67.0345 91.2841 67.0532C91.4151 67.0719 91.677 67.3899 91.7331 67.5582C91.7892 67.7266 91.7518 67.6891 91.9576 67.9323C92.1633 68.1754 92.3504 68.0258 92.3504 68.3251C92.3504 68.6244 92.3504 68.6056 92.4439 68.7179C92.5374 68.8301 92.6496 68.5121 92.7618 68.5496C92.874 68.5871 92.8927 68.5122 92.9862 68.8114C93.0797 69.1108 93.1358 69.1108 93.1546 69.41C93.1732 69.7092 93.1358 69.4287 93.1358 69.6718C93.1358 69.915 93.1171 69.9337 93.1546 70.1581C93.1919 70.3827 93.3227 70.4575 93.3042 70.4949C93.3042 70.4949 93.4164 70.1769 93.3789 69.9524C93.3417 69.728 93.3789 69.4101 93.4725 69.3166C93.566 69.2229 93.6596 69.1295 93.7343 69.3727C93.8092 69.6158 93.8466 69.4288 94.0149 69.7093C94.1833 69.9899 94.3329 69.9337 94.3516 70.0647C94.3703 70.1956 94.4641 70.2144 94.5947 70.3265C94.7257 70.4388 94.8379 70.3079 94.9876 70.1956C95.1373 70.0834 95.5486 69.6719 95.5675 69.5035C95.5861 69.3352 95.7545 69.3725 95.4552 68.9425C95.1558 68.5123 95.1558 68.3626 94.8379 68.1008C94.5202 67.8389 94.333 67.8202 94.5763 67.4835C94.8194 67.1468 94.9317 66.9224 95.0812 67.016C95.2309 67.1095 95.4926 67.0907 95.4926 67.4649C95.4926 67.839 95.4178 68.2504 95.6797 67.8015C95.9415 67.3526 96.0725 67.0908 95.9976 67.1657C95.9229 67.2405 96.166 67.016 96.166 67.016C96.166 67.016 96.1847 66.8477 96.5028 66.7729C96.8206 66.698 96.9141 66.6606 97.0264 66.6045C97.1386 66.5484 97.4567 66.1743 97.5128 66.006C97.5688 65.8376 97.7185 65.5384 97.6811 65.4075C97.6437 65.2765 97.4566 64.6406 97.4192 64.6593C97.3819 64.678 97.4006 64.678 97.1575 64.4162C96.9143 64.1543 96.746 63.9673 96.7086 63.855C96.6712 63.7428 96.5776 63.7241 96.6898 63.5745C96.8021 63.4249 96.8582 63.4436 96.8769 63.3126C96.8956 63.1817 97.0451 63.0695 96.7646 63.163C96.4841 63.2565 96.6898 63.2005 96.4467 63.1818C96.2035 63.163 95.5676 63.3127 95.8856 62.92C96.2035 62.5271 96.2969 62.2841 96.353 62.2841C96.4093 62.2841 96.6898 61.9661 96.7084 62.2653C96.7272 62.5645 96.8393 62.4897 96.8581 62.6767C96.8769 62.8638 97.2509 62.4711 97.2509 62.4711C97.2509 62.4711 97.3818 62.5084 97.4753 62.6019C97.5688 62.6954 97.5688 62.9947 97.5688 62.9947C97.5688 62.9947 97.4941 62.9012 97.6998 63.0508C97.9056 63.2006 98.1299 63.1256 98.1299 63.4437C98.1299 63.7617 98.1299 63.7804 98.2609 63.8552C98.3919 63.9299 98.5227 63.8926 98.6351 63.7991C98.7473 63.7056 98.9342 63.3689 98.9342 63.3689C98.9342 63.3689 98.9529 63.2379 98.6537 63.0508C98.3545 62.8639 98.1674 62.733 98.0553 62.6394C97.943 62.5459 97.9804 62.2654 98.0925 62.153C98.205 62.0408 98.2609 61.9847 98.2235 61.8351C98.186 61.6854 98.2797 61.5732 98.5602 61.5919C98.8408 61.6106 98.8969 61.5732 98.8969 61.5732C98.8969 61.5732 98.9531 61.6106 98.9531 61.4984C98.9531 61.3862 99.3084 60.8624 99.2147 60.8624C99.1212 60.8624 99.2337 60.7315 99.1773 60.5258C99.1212 60.32 99.3644 60.0021 99.1587 59.8524C98.9529 59.7028 98.8968 59.6279 98.7659 59.4035C98.635 59.179 98.6536 59.1417 98.1673 59.0855C97.681 59.0294 97.4566 59.1978 97.3443 59.0482C97.2321 58.8985 97.176 59.2726 97.1012 58.8237C97.0265 58.3748 97.2135 58.0754 97.2135 58.0754C97.2135 58.0754 97.5127 57.8885 97.5875 57.7575C97.6623 57.6265 97.9615 57.5705 98.2049 57.664C98.448 57.7575 98.8033 57.7388 99.1027 57.795C99.4019 57.8511 99.3832 58.0381 99.5329 57.795C99.6825 57.5518 99.5329 57.4396 99.6451 57.3087C99.7574 57.1777 99.8882 56.972 99.9817 57.1028C100.075 57.2339 100.263 57.3647 100.412 57.1963C100.562 57.0281 100.618 57.0094 100.618 57.0094L100.692 57.0842C100.692 57.0842 100.861 56.9906 100.861 57.1588C100.861 57.3272 101.029 57.5143 100.936 57.6452C100.842 57.7762 100.711 57.7574 100.711 58.0754C100.711 58.3935 100.711 58.3373 100.917 58.5992C101.123 58.861 101.254 58.6365 101.291 58.9172C101.328 59.1977 101.366 59.1417 101.572 59.3287C101.777 59.5157 101.74 59.5157 101.89 59.6279C102.039 59.7402 102.114 59.8524 102.114 59.6654C102.114 59.4783 102.133 59.3848 102.114 59.2165C102.095 59.0482 102.264 58.9172 102.151 58.6366C102.039 58.3561 102.133 58.3748 101.908 58.169C101.684 57.9633 101.534 58.2065 101.459 57.9072C101.385 57.6079 101.815 57.477 101.927 57.4396C102.039 57.4022 102.207 57.1777 102.245 57.3274C102.282 57.477 101.964 58.0194 102.507 57.4396C103.049 56.8598 102.806 57.1029 102.806 57.1029C102.806 57.1029 103.087 57.0655 103.143 57.1029C103.199 57.1404 103.349 56.9346 103.292 56.9533C103.236 56.9721 102.694 56.654 102.694 56.654L102.301 56.4296C102.301 56.4296 102.432 56.3361 102.526 56.3548C102.619 56.3735 102.638 56.1678 102.731 56.149C102.825 56.1303 103.461 56.28 103.592 56.3548C103.723 56.4296 104.19 56.4483 104.134 56.4109C104.078 56.3735 103.779 56.1491 103.76 56.0742C103.741 55.9994 103.087 55.8498 102.881 55.8685C102.675 55.8871 102.488 55.9432 102.32 55.8871C102.151 55.831 101.908 55.6813 101.777 55.6813C101.646 55.6813 100.001 55.3634 99.9258 55.3821C99.851 55.4008 99.7386 55.7561 99.6825 55.7C99.6264 55.644 99.5329 55.6439 99.271 55.5691C99.0093 55.4943 98.6538 55.4381 98.1861 55.4008C97.7186 55.3634 97.4008 55.4382 97.2698 55.2885C97.1388 55.139 96.8584 55.1951 96.5404 55.1763C96.2224 55.1577 95.8483 55.1763 95.6799 55.1763C95.5116 55.1763 95.1189 55.1577 95.0254 55.1389C94.9318 55.1201 94.8196 54.9892 94.7074 54.9706C94.5951 54.9518 94.6138 54.9145 94.3894 54.8771C94.165 54.8396 94.1837 54.5966 94.1089 54.8022C94.0341 55.0081 94.0714 54.9519 93.9592 55.0267C93.8469 55.1016 93.7347 55.2511 93.6599 55.2511C93.5852 55.2511 93.2859 55.2698 93.2297 55.2324C93.1735 55.195 93.08 55.1577 92.893 55.1577C92.7059 55.1577 92.7059 55.1763 92.4628 55.1389C92.2196 55.1015 92.0326 55.1201 91.8081 55.008C91.5837 54.8957 91.5837 54.8209 91.3966 54.8396C91.2097 54.8584 91.2097 54.8022 90.9477 54.8022C90.6859 54.8022 90.368 54.9519 90.1996 54.9706C90.0313 54.9893 89.6572 54.9518 89.5263 54.8957C89.3952 54.8396 89.3579 54.7087 88.8715 54.7648C88.3853 54.8209 88.1047 54.8209 88.1982 54.6713C88.2918 54.5217 88.4039 54.372 88.46 54.3533C88.5162 54.3346 88.647 54.2411 88.5535 54.2038C88.46 54.1663 88.3665 54.1103 88.1421 54.0915C87.9176 54.0728 87.9362 54.1663 87.5996 54.1289C87.263 54.0915 87.7867 53.998 87.0947 54.0167C86.4027 54.0355 86.2343 54.0915 86.1595 54.0915C86.0846 54.0915 85.9911 53.9419 85.8041 54.1663C85.617 54.3907 85.3551 54.5216 84.9811 54.5403C84.607 54.5591 84.5883 54.5029 84.233 54.6338C83.8776 54.7647 83.6531 54.5964 83.7279 54.8957C83.8027 55.1949 83.8963 55.3072 83.8963 55.3633C83.8963 55.4194 83.7279 55.7935 83.5223 55.569C83.3164 55.3446 82.9423 54.4655 83.1107 55.064C83.279 55.6625 83.653 55.8683 83.2977 55.9618C82.9424 56.0553 82.9797 55.9244 82.9236 55.887C82.8675 55.8496 82.9236 55.5877 82.9049 55.4381C82.8861 55.2885 82.8488 55.1949 82.774 55.1201C82.6992 55.0453 82.7178 54.9331 82.5682 54.8957C82.4186 54.8583 82.5495 54.7834 82.3064 54.7834C82.0632 54.7834 81.8575 54.6338 81.9136 54.9705C81.9697 55.3071 82.0258 55.0827 82.1753 55.4007C82.3248 55.7186 82.6055 55.4942 82.3998 55.7186C82.194 55.9431 81.6516 55.8683 81.5207 55.7748C81.3897 55.6812 81.4272 55.8122 81.1839 55.6438C80.9408 55.4755 81.0157 55.3445 80.7352 55.4755C80.4547 55.6064 80.3611 55.8496 80.2488 55.756C80.1366 55.6624 79.8748 55.8869 79.7812 55.7748C79.6877 55.6625 79.3136 55.6625 79.2388 55.7748C79.164 55.887 78.9395 55.8683 78.6216 56.0179C78.3036 56.1675 78.3971 56.0366 78.0043 56.3546C77.6115 56.6725 77.387 56.9344 77.2562 56.7286C77.1252 56.5229 76.4144 56.1675 76.695 56.1114C76.9756 56.0553 77.1065 55.9431 77.2562 56.074C77.4058 56.2048 77.6491 56.1675 77.6863 56.074C77.7237 55.9804 77.8921 55.8869 77.6676 55.7747C77.4432 55.6624 77.4245 55.7372 77.0691 55.6064C76.7137 55.4754 77.0691 55.5129 76.5828 55.438C76.0965 55.3632 75.8906 55.3258 75.7598 55.2884C75.6289 55.251 75.4418 55.2884 75.2548 55.2697C75.0677 55.251 74.9369 55.2136 74.7685 55.2323C74.6002 55.251 74.5067 55.2136 74.2822 55.382C74.0576 55.5503 73.8893 55.6251 73.7397 55.756C73.5901 55.8869 73.1974 56.1488 73.0851 56.2424C72.9728 56.3359 72.58 56.6351 72.5426 56.7474C72.5052 56.8596 72.58 56.9531 72.4304 57.0279C72.2807 57.1027 72.1311 57.1027 72.0189 57.1214C71.9066 57.1401 72.0189 56.9531 71.9066 57.1401C71.7944 57.3272 71.8318 58.0005 71.9253 57.907C72.0188 57.8134 71.9627 57.5142 72.3742 57.7948C72.7857 58.0753 73.0476 58.0379 73.0289 58.2998C73.0102 58.5616 73.3094 58.5429 73.3468 58.5991C73.3842 58.6551 73.5713 58.5242 73.5713 58.5242C73.5713 58.5242 73.9828 58.2624 73.9828 58.1315C73.9828 58.0005 74.2446 57.7013 74.2446 57.7013C74.2446 57.7013 74.0575 57.6078 74.0575 57.4207C74.0575 57.2337 74.1137 57.1775 74.1511 56.9905C74.1885 56.8035 73.9453 56.9905 74.5065 56.635C75.0675 56.2797 75.105 56.5229 75.105 56.5229C75.105 56.5229 75.1797 56.5977 75.0862 56.7099C74.9927 56.8222 74.8243 57.1215 74.7869 57.1588C74.7495 57.1963 74.9553 57.4955 75.0487 57.4955C75.1423 57.4955 75.3293 57.4207 75.4416 57.4394C75.5539 57.4581 75.7408 57.3833 75.7969 57.4207C75.8531 57.4581 75.984 57.5703 75.8904 57.6639C75.7969 57.7574 75.5911 57.8696 75.4416 57.8322C75.2919 57.7949 75.0674 57.5329 75.1984 57.907C75.3293 58.2811 75.1797 58.3746 75.0674 58.3559C74.9553 58.3372 74.7121 58.1502 74.7495 58.4308C74.7869 58.7113 74.5064 58.8983 74.4502 58.8983C74.3941 58.8983 74.2819 58.8796 74.2819 58.8796C74.2819 58.8796 74.1135 58.8609 74.0201 58.8609C73.9265 58.8609 73.7395 58.9544 73.6834 59.0292C73.6272 59.104 73.5524 59.048 73.4589 59.048C73.3654 59.048 73.4589 58.9357 73.2719 58.8983C73.0849 58.8609 72.9726 58.8235 72.8604 58.8983C72.7482 58.9731 72.5799 59.0105 72.505 58.9544C72.4302 58.8983 72.5425 58.7673 72.3928 58.8422C72.2432 58.917 72.1309 59.1228 72.0748 59.1415C72.0187 59.1602 72.2432 59.1415 72.0187 59.1602C71.7943 59.1789 71.7008 59.2351 71.5885 59.2724C71.4763 59.3099 71.6259 59.5343 71.4202 59.6091C71.2144 59.6839 71.3642 59.5156 71.1583 59.6839C70.9526 59.8523 70.9151 60.0019 70.8404 60.0206C70.7655 60.0393 70.7843 60.0767 70.6159 60.0954C70.4476 60.1141 70.4663 60.1328 70.3727 60.1515C70.2792 60.1702 70.3915 60.2076 70.1857 60.1702C69.9799 60.1328 69.8303 60.2076 69.8677 60.2824C69.9051 60.3572 70.5972 60.563 70.0735 60.5443C69.5498 60.5256 69.7181 60.6191 69.8303 60.6939C69.9426 60.7687 69.9986 60.8435 70.0548 60.8622C70.1109 60.8809 70.2044 61.1054 70.2044 61.1054C70.2044 61.1054 70.354 61.0867 70.2605 61.2176C70.167 61.3486 70.2979 61.386 70.2044 61.5543C70.1109 61.7227 70.1109 61.6104 70.0361 61.6478C69.9613 61.6852 69.849 61.8162 69.6432 61.7039C69.4374 61.5917 69.2879 61.5356 69.0447 61.5169C68.8016 61.4982 68.9698 61.4609 68.8016 61.5917C68.6332 61.7227 68.5958 61.8723 68.6146 62.0406C68.6333 62.2089 68.652 62.4334 68.5958 62.5456C68.5397 62.6578 68.5397 62.7701 68.577 62.9384C68.6145 63.1067 68.7268 63.1817 68.7268 63.1817C68.7268 63.1817 68.9886 63.219 69.0447 63.2378C69.1008 63.2565 69.2131 63.2004 69.3627 63.2938C69.5123 63.3874 69.662 63.4248 69.7555 63.3126C69.849 63.2004 70.2231 63.0694 70.3354 62.9572C70.4476 62.845 70.5224 62.8076 70.4663 62.6954C70.4102 62.5831 70.5785 62.3026 70.672 62.2465C70.7655 62.1904 70.9713 62.1342 70.9713 62.1342L71.1957 61.7976C71.1957 61.7976 71.3828 61.5917 71.4763 61.6105C71.5698 61.6292 72.0935 61.8163 72.0561 61.5732C72.0187 61.33 72.0935 61.2552 72.1496 61.3487C72.2057 61.4422 72.3554 61.4048 72.3554 61.4048C72.3554 61.4048 72.4302 61.3674 72.4863 61.4235C72.5424 61.4795 72.6172 61.7228 72.7294 61.7789C72.8417 61.835 72.9352 61.8911 73.01 61.9285C73.0848 61.9659 73.1597 61.9285 73.3093 62.0594C73.4589 62.1904 73.6086 62.2652 73.6272 62.3213C73.6461 62.3774 73.777 62.5083 73.777 62.5083C73.777 62.5083 73.9078 62.5457 73.8704 62.6206C73.833 62.6954 73.6461 62.9199 73.5525 62.9572C73.4589 62.9946 73.2159 62.9198 73.3093 62.9946C73.4028 63.0694 73.5338 63.163 73.5899 63.1068C73.6461 63.0507 74.0013 62.6766 74.0013 62.6766C74.0013 62.6766 73.9826 62.6953 74.0013 62.583C74.0201 62.4709 74.0013 62.34 74.0949 62.3961C74.1884 62.4522 74.2446 62.527 74.2819 62.4522C74.3193 62.3774 74.3567 62.4148 74.2632 62.3587C74.1696 62.3026 73.9452 61.9846 73.833 61.9659C73.7207 61.9471 73.4401 61.7601 73.4401 61.7601C73.4401 61.7601 73.3841 61.704 73.2531 61.5544C73.1222 61.4048 73.0848 61.4422 73.0473 61.3112C73.01 61.1803 72.8976 61.0119 73.1035 61.0493C73.3093 61.0867 73.4401 61.2176 73.6272 61.3299C73.8142 61.4422 73.7769 61.4795 73.9452 61.5917C74.1135 61.704 74.1323 61.8163 74.2631 61.7976C74.394 61.7789 74.5437 61.8724 74.5437 62.0407C74.5437 62.2091 74.5811 62.3961 74.6185 62.4335C74.6559 62.471 74.768 62.5458 74.8055 62.6206C74.8429 62.6954 74.9178 62.8824 74.9738 62.9572C75.03 63.032 75.0861 63.0882 75.1422 63.1817C75.1982 63.2752 75.2169 63.163 75.273 63.2004C75.3292 63.2378 75.404 63.2191 75.404 63.1443C75.404 63.0695 75.4226 62.9385 75.4226 62.9385C75.4226 62.9385 75.6846 62.8637 75.6098 62.8263C75.535 62.7889 75.3104 62.5644 75.3292 62.4896C75.3479 62.4148 75.3292 62.2652 75.4226 62.2839C75.5162 62.3026 75.6098 62.4709 75.8155 62.3213C76.0213 62.1716 76.2644 62.0968 76.1895 62.3213C76.1148 62.5457 76.2084 62.583 76.1895 62.8263C76.1709 63.0695 76.2645 62.9946 76.3954 63.1256C76.5263 63.2565 76.6198 63.2753 76.7133 63.3126C76.8069 63.3501 76.9565 63.3314 77.1062 63.3501C77.2558 63.3688 77.3493 63.2939 77.4803 63.3314C77.6111 63.3688 77.9104 63.3126 77.9666 63.3501C78.0228 63.3875 78.2472 63.2753 78.2658 63.4062C78.2845 63.5371 78.3594 63.3875 78.3033 63.6867C78.2472 63.986 78.1723 64.1917 78.1723 64.1917C77.9666 64.5845 77.8918 64.6781 77.7982 64.6968C77.7048 64.7155 77.6486 64.7716 77.4804 64.7529C77.312 64.7341 77.1063 64.7529 76.8631 64.6968C76.62 64.6406 76.171 64.7529 75.984 64.6406C75.7969 64.5284 75.5351 64.6219 75.4228 64.491C75.3106 64.3601 75.1236 64.3788 75.0487 64.304C74.9739 64.2292 74.9365 64.0235 74.9365 64.3228C74.9365 64.622 74.7682 64.6407 74.7308 64.7904C74.6933 64.9399 74.7868 64.8652 74.5811 64.8465C74.3753 64.8277 74.3192 64.9399 74.02 64.7156C73.7207 64.4911 73.5711 64.4911 73.4215 64.3976C73.2718 64.304 73.1222 64.5658 72.9726 64.2667C72.8229 63.9673 72.6172 64.2105 72.5985 63.9673C72.5798 63.7241 72.5985 63.743 72.6172 63.5933C72.636 63.4436 72.8416 63.3128 72.7481 63.2567C72.6546 63.2006 72.7294 63.107 72.5985 63.1632C72.4675 63.2193 72.2805 63.238 72.1309 63.2941C71.9812 63.3502 72.4675 63.2941 71.7381 63.3502C71.0086 63.4063 70.8028 63.4811 70.8028 63.4811C70.8028 63.4811 70.7467 63.4437 70.6531 63.5185C70.5596 63.5933 70.4287 63.7056 70.2978 63.6495C70.1669 63.5933 70.092 63.612 69.9798 63.6308C69.8676 63.6495 69.7929 63.5373 69.6619 63.6308C69.5309 63.7242 69.3814 63.7617 69.3252 63.7242C69.267 63.686 69.1731 63.5364 69.1731 63.5364L69.1754 63.5369Z" fill="#EBEBEB"/>
<path d="M81.6885 75.8438C81.6324 76.0496 81.4266 76.3488 81.4266 76.3488L81.0524 76.5359C81.0524 76.5359 80.9218 76.6481 80.8468 76.6668C80.772 76.6854 80.5849 76.7791 80.5849 76.7791C80.5849 76.7791 80.4166 76.7416 80.4727 76.9099C80.5287 77.0782 80.5475 77.2841 80.5287 77.3401C80.5101 77.3963 80.5101 77.5085 80.5101 77.6582C80.5101 77.8078 80.454 77.9948 80.3605 78.0321C80.267 78.0696 80.1734 78.107 80.1921 78.238C80.2109 78.3689 80.2109 78.7617 80.2109 78.7617L80.4541 79.1358C80.4541 79.1358 80.5289 79.0797 80.6785 79.0797C80.8281 79.0797 80.9778 78.9489 80.9778 78.9489C80.9778 78.9489 81.1462 78.9861 81.1274 78.7805C81.1087 78.5747 81.2023 78.3316 81.1835 78.2754C81.1648 78.2193 81.3519 77.9761 81.3519 77.9201C81.3519 77.8639 81.5389 77.6022 81.5389 77.5086C81.5389 77.4151 81.6698 77.2654 81.6885 77.1533C81.7072 77.041 81.7259 76.7792 81.7633 76.7044C81.8008 76.6296 81.8195 76.5548 81.8195 76.48V76.2555L81.6865 75.8433L81.6885 75.8438Z" fill="#EBEBEB"/>
<path d="M96.3332 78.3696C96.2771 78.4443 96.2397 79.2487 96.2023 79.3422C96.1649 79.4356 96.09 79.922 96.1276 80.0341C96.1649 80.1465 96.221 80.5579 96.1836 80.6889C96.1462 80.8198 96.2023 81.2313 96.1087 81.2126C96.0153 81.1938 95.978 81.2313 95.978 81.2874C95.978 81.3435 96.1087 81.4556 96.1087 81.4556C96.1087 81.4556 96.3333 81.4557 96.4268 81.4369C96.5203 81.4182 96.7073 81.3247 96.857 81.3247C97.0067 81.3247 97.1002 81.2124 97.231 81.2124C97.362 81.2124 97.6426 81.119 97.7174 81.1563C97.7922 81.1937 97.9044 80.9319 98.0354 80.988C98.1663 81.0441 98.4469 80.8571 98.5778 80.8571C98.7086 80.8571 98.7649 80.6513 98.9145 80.6888C99.0641 80.7262 99.3447 80.614 99.4757 80.67C99.6064 80.7262 99.8123 80.483 99.9058 80.67C99.9994 80.8571 100.28 80.9319 100.28 81.0254C100.28 81.1189 100.261 81.3247 100.261 81.3247L100.486 81.3059C100.486 81.3059 100.841 81.0815 100.897 81.0815C100.953 81.0815 101.084 80.8945 101.084 80.988C101.084 81.0815 100.972 81.2874 100.934 81.3808C100.897 81.4743 100.972 81.5866 100.972 81.5866C100.972 81.5866 101.159 81.6801 101.084 81.8484C101.009 82.0167 101.103 81.9794 101.084 82.1102C101.065 82.2412 101.084 82.185 101.159 82.2598C101.234 82.3347 101.365 82.4658 101.477 82.4469C101.589 82.4282 101.626 82.316 101.72 82.3721C101.813 82.4282 102 82.3908 102.057 82.4657C102.113 82.5404 101.701 82.7275 102.412 82.4096C103.123 82.0915 103.197 82.0167 103.291 81.9045C103.385 81.7923 103.497 81.6801 103.572 81.6052C103.646 81.5304 103.59 81.5491 103.815 81.3808C104.039 81.2125 104.039 81.2873 104.245 80.9693C104.451 80.6514 104.6 80.5391 104.638 80.483C104.675 80.4268 104.75 80.4082 104.769 80.1836C104.787 79.9592 104.937 79.7535 104.937 79.6787C104.937 79.6039 104.993 79.4917 104.974 79.3607C104.956 79.2298 105.049 79.0428 104.937 78.8558C104.825 78.6687 104.993 78.594 104.825 78.519C104.656 78.4442 104.544 78.4817 104.507 78.3507C104.469 78.2198 104.32 78.2385 104.264 77.8831C104.208 77.5278 103.983 77.4902 103.983 77.4902C103.983 77.4902 103.759 77.3968 103.815 77.3594C103.871 77.322 103.89 77.06 103.871 76.9852C103.852 76.9105 103.852 76.7421 103.796 76.63C103.74 76.5176 103.703 76.3681 103.646 76.2371C103.59 76.1062 103.497 76.0687 103.459 75.9192C103.422 75.7696 103.366 75.7133 103.347 75.676C103.328 75.6386 103.291 75.4516 103.254 75.6572C103.216 75.863 103.141 76.2557 103.141 76.2557C103.141 76.2557 102.992 76.5738 102.936 76.6673C102.88 76.7607 102.823 77.0039 102.73 76.9852C102.636 76.9665 102.58 77.0788 102.505 77.06C102.431 77.0412 102.318 77.0787 102.262 77.0226C102.206 76.9665 102.057 76.8169 101.982 76.7981C101.907 76.7795 101.851 76.6299 101.795 76.6299C101.738 76.6299 101.645 76.4989 101.664 76.4241C101.682 76.3493 101.701 76.181 101.72 76.1061C101.738 76.0313 101.851 75.8629 101.851 75.8629C101.851 75.8629 101.851 75.7507 101.757 75.7507C101.664 75.7507 101.645 75.7507 101.439 75.732C101.234 75.7132 101.178 75.6946 101.103 75.6946C101.028 75.6946 101.177 75.6572 100.972 75.7133C100.766 75.7695 100.672 75.9191 100.541 76.05C100.411 76.1809 100.523 76.1435 100.411 76.1809C100.298 76.2184 100.317 76.0874 100.242 76.2932C100.167 76.4989 100.28 76.555 100.223 76.5924C100.167 76.6299 99.7747 76.4616 99.7747 76.4616C99.7747 76.4616 99.8682 76.4428 99.7934 76.3493C99.7186 76.2557 99.6438 76.1249 99.5317 76.181C99.4193 76.2371 99.3257 76.2746 99.2511 76.3681C99.1762 76.4616 99.1762 76.5363 99.1201 76.6111C99.064 76.6859 98.9145 76.6859 98.8957 76.7608C98.877 76.8357 98.877 77.0226 98.821 77.0413C98.7649 77.0601 98.7462 76.9668 98.6901 76.9479C98.634 76.9292 98.6526 76.7796 98.6153 76.8731C98.5779 76.9666 98.5405 76.9479 98.4844 77.0975C98.4282 77.2472 98.4095 77.3781 98.3534 77.3968C98.2973 77.4156 98.3534 77.4342 98.185 77.5278C98.0168 77.6213 97.9793 77.6213 97.7362 77.7335C97.4932 77.8458 97.5493 77.8458 97.3809 77.8644C97.2126 77.8832 97.1751 77.9393 97.0629 77.958C96.9506 77.9767 96.8759 77.9953 96.7636 78.1076C96.6514 78.2198 96.5579 78.2572 96.4831 78.2759C96.4083 78.2947 96.3368 78.3681 96.3368 78.3681L96.3332 78.3696Z" fill="#EBEBEB"/>
<path d="M97.4372 70.9811C97.3624 71.0935 97.1193 71.43 97.0258 71.4488C96.9322 71.4674 96.8387 71.5611 96.7639 71.5423C96.6891 71.5235 96.5207 71.5423 96.4646 71.7855C96.4085 72.0286 96.315 72.1596 96.2588 72.1408C96.2027 72.1221 96.3522 72.4961 96.0344 72.3466C95.7165 72.197 95.8287 72.4776 95.7912 72.5524C95.7538 72.6272 95.8473 72.833 95.866 72.9078C95.8848 72.9826 95.9408 73.1135 96.0157 73.2257C96.0905 73.3379 96.1466 73.4688 96.2775 73.4315C96.4085 73.394 96.8198 73.4315 96.8198 73.4315C96.8198 73.4315 96.9696 73.4876 97.0631 73.4876C97.1566 73.4876 97.1753 73.4502 97.2314 73.4502C97.2874 73.4502 97.3996 73.2631 97.381 73.2445C97.3623 73.2257 97.3063 73.1696 97.4184 73.0574C97.5307 72.9451 97.6616 72.9078 97.6803 72.7768C97.699 72.6459 97.6429 72.6459 97.699 72.571C97.7551 72.4962 97.886 72.5151 97.8487 72.4401C97.8112 72.3653 97.886 72.384 97.8112 72.2343C97.7365 72.0847 97.6429 72.0285 97.7176 71.8415C97.7925 71.6545 97.8674 71.617 97.8487 71.5048C97.8299 71.3925 97.9422 71.3552 97.8112 71.2242C97.6804 71.0934 97.6242 71.0559 97.5307 71.0184L97.4385 70.9802L97.4372 70.9811Z" fill="#EBEBEB"/>
<path d="M101.103 72.8517C101.178 72.833 101.44 72.6459 101.459 72.9826C101.477 73.3193 101.496 73.2257 101.608 73.4128C101.72 73.5998 101.795 73.6561 101.926 73.5625C102.057 73.4689 102.207 73.4689 102.244 73.3006C102.269 73.1884 102.319 73.1323 102.394 73.1323C102.506 73.1323 102.543 73.1136 102.6 73.1885C102.656 73.2631 102.693 73.1884 102.936 73.3193C103.179 73.4503 103.385 73.4128 103.535 73.5438C103.684 73.6747 103.759 73.6561 103.965 73.7308C104.171 73.8056 104.077 73.6935 104.264 73.8992C104.451 74.1049 104.377 74.161 104.47 74.2545C104.563 74.348 104.638 74.1797 104.601 74.4041C104.563 74.6286 104.302 74.4041 104.694 74.722C105.087 75.0401 105.143 75.0963 105.274 75.1897C105.405 75.2832 105.499 75.3955 105.387 75.3955C105.274 75.3955 104.919 75.3955 104.882 75.3393C104.844 75.2832 104.676 75.2458 104.564 75.1149C104.451 74.9841 104.208 74.8904 104.152 74.7782C104.096 74.6659 104.021 74.6286 103.928 74.6286C103.834 74.6286 103.741 74.7408 103.61 74.8717C103.479 75.0026 103.535 74.797 103.367 74.853C103.198 74.9092 103.011 74.8343 102.918 74.7595C102.824 74.6847 102.843 74.5725 102.693 74.6286C102.544 74.6847 102.45 74.6473 102.506 74.5351C102.563 74.4228 102.525 74.2732 102.525 74.2732C102.525 74.2732 102.581 74.0861 102.45 74.0488C102.32 74.0115 102.32 73.8805 102.189 73.843C102.058 73.8056 101.852 73.7121 101.852 73.7121C101.852 73.7121 101.833 73.7121 101.777 73.6934C101.74 73.6809 101.671 73.6622 101.571 73.6373C101.422 73.5998 101.309 73.6372 101.235 73.5437C101.16 73.4502 101.197 73.3193 101.197 73.3193C101.197 73.3193 101.496 73.3567 101.197 73.1322L100.898 72.9078C100.898 72.9078 100.935 72.8891 100.917 72.8517C100.897 72.8135 101.104 72.8509 101.104 72.8509L101.103 72.8517Z" fill="#EBEBEB"/>
<path d="M92.6867 71.2985C92.6867 71.2985 92.7802 71.3922 92.9299 71.3734C93.0795 71.3546 93.1915 71.6726 93.2853 71.7848C93.3787 71.8971 93.4349 71.9532 93.6406 72.0841C93.8463 72.215 93.8276 71.9719 94.1082 72.3647C94.3888 72.7574 94.2578 72.5143 94.3888 72.7574C94.5197 73.0008 94.5945 73.1316 94.6693 73.1879C94.744 73.244 94.8003 73.3935 94.819 73.4497C94.8377 73.5058 94.9686 73.6741 94.9686 73.7302C94.9686 73.7863 95.006 73.936 94.8938 74.0669C94.7816 74.1978 94.688 74.2165 94.688 74.2165C94.688 74.2165 94.4636 74.1043 94.3888 73.9921C94.3139 73.8799 94.2205 73.7863 94.0894 73.5619C93.9586 73.3374 93.8089 73.0943 93.7341 72.9821C93.6593 72.8698 93.5471 72.7575 93.491 72.6454C93.4349 72.533 93.2852 72.1965 93.2104 72.159C93.1356 72.1215 93.1169 72.0094 92.9859 71.8785C92.8551 71.7475 92.8737 71.6353 92.8176 71.5605C92.7615 71.4857 92.6306 71.3172 92.6306 71.3172L92.6855 71.2989L92.6867 71.2985Z" fill="#EBEBEB"/>
<path d="M56.3077 85.8882C56.1767 85.8134 55.8962 85.6824 55.8027 85.6076C55.7092 85.5328 55.4286 85.1212 55.4286 85.1212L55.2228 84.7284C55.2228 84.7284 54.9797 84.4291 55.0358 84.3169C55.0919 84.2047 55.2042 84.1299 55.2042 84.0738C55.2042 84.0177 55.3164 83.868 55.2228 83.8119C55.1293 83.7558 55.1293 83.7372 55.0732 83.5688C55.0171 83.4005 55.0171 83.2507 54.9423 83.2134C54.8674 83.1761 54.8113 82.9328 54.7365 82.9141C54.6617 82.8954 54.5869 82.7645 54.5869 82.7645L54.4746 81.2494C54.4746 81.2494 54.4371 80.5574 54.3998 80.4077C54.3623 80.2581 54.4559 79.9402 54.3623 79.6596C54.2689 79.379 54.3811 79.0424 54.3249 78.9301C54.2688 78.8179 54.3623 78.5 54.3062 78.2007C54.2502 77.9015 54.5307 77.5274 54.3062 77.4152C54.0818 77.3029 54.2502 77.1346 54.0631 77.1346C53.876 77.1346 53.7452 77.041 53.5768 76.9102C53.4084 76.7792 53.0904 76.536 52.9969 76.4425C52.9034 76.349 52.6041 76.1058 52.5106 76.031C52.4171 75.9562 52.3236 75.6382 52.2488 75.5446C52.174 75.4512 52.1366 75.1707 52.0243 75.0023C51.9121 74.834 51.7625 74.5535 51.725 74.4973C51.6876 74.4412 51.2761 73.9549 51.2761 73.9549L51.3135 73.6557C51.3135 73.6557 51.5941 73.4873 51.5567 73.4312C51.5193 73.3751 51.5754 73.3189 51.4444 73.2068C51.3135 73.0944 51.3321 72.8887 51.4444 72.7953C51.5567 72.7016 51.725 72.4024 51.725 72.4024L52.0055 71.9349C52.0055 71.9349 52.23 71.6916 52.23 71.5233C52.23 71.355 52.548 71.2428 52.3609 71.0932C52.1739 70.9434 52.2674 70.8125 52.2113 70.7003C52.1551 70.5881 52.1926 70.5133 52.3609 70.401C52.5293 70.2888 52.8285 69.8773 52.8285 69.8773C52.8285 69.8773 53.053 69.8212 53.1091 69.8212C53.1652 69.8212 53.2587 69.2225 53.4271 69.6154C53.5954 70.0082 53.6515 69.8024 53.5954 70.083C53.5393 70.3635 53.6702 70.3075 53.745 70.2327C53.8198 70.1577 53.7076 70.2888 53.8572 69.952C54.0068 69.6154 53.9508 69.5032 54.0443 69.5967C54.1378 69.6903 54.1752 69.709 54.3435 69.7651C54.5118 69.8212 54.568 69.8024 54.624 69.9147C54.6801 70.0269 54.6615 69.8773 54.9794 69.9334C55.2973 69.9896 55.7462 69.8212 55.6901 70.0082C55.6341 70.1952 55.5218 69.9895 55.7836 70.1952C56.0455 70.401 56.083 70.4384 56.2325 70.4758C56.3821 70.5132 56.5131 70.4945 56.7376 70.719C56.9621 70.9434 57.0182 70.9621 57.0743 71.0743C57.1303 71.1866 57.2238 71.1117 57.3174 71.2239C57.4109 71.3362 57.5419 71.3362 57.6727 71.3362C57.8036 71.3362 57.6727 71.2239 57.8785 71.3736C58.0843 71.5232 58.2339 71.5419 58.3274 71.8412C58.4209 72.1407 58.6079 72.1218 58.4583 72.4211C58.3087 72.7204 58.0095 72.8513 58.1403 72.8326C58.2712 72.8138 58.5145 72.7016 58.5892 72.7203C58.664 72.739 58.7014 72.6642 58.8137 72.7203C58.926 72.7764 58.9447 72.6455 58.926 72.7764C58.9072 72.9074 58.9072 72.7764 58.9072 72.9074C58.9072 73.0383 58.8698 72.7764 59.0942 72.8326C59.3187 72.8887 59.1877 72.7203 59.4496 72.9635C59.7115 73.2067 59.7115 73.1319 59.8049 73.2628C59.8985 73.3936 59.992 73.1881 60.0481 73.2441C60.1043 73.3001 60.2726 73.2627 60.441 73.3002C60.6093 73.3375 60.4971 73.188 60.759 73.3563C61.0207 73.5246 61.2827 73.4685 61.3388 73.6181C61.3949 73.7677 61.5446 73.7116 61.6193 73.8052C61.694 73.8988 61.7315 73.7677 61.8064 73.8988C61.8812 74.0296 62.1057 73.9922 62.0682 74.1231C62.0307 74.2541 62.1242 74.1792 62.0868 74.3662C62.0495 74.5534 61.9185 74.8527 61.8064 74.9274C61.6941 75.0022 61.6942 75.0957 61.6193 75.1892C61.5445 75.2829 61.5632 75.0957 61.4696 75.3576C61.3762 75.6195 61.3949 75.6569 61.3201 75.9C61.2453 76.1431 61.3014 75.9 61.2453 76.1431C61.1892 76.3863 61.2266 76.5359 61.1705 76.8166C61.1144 77.097 61.1331 77.0971 61.0957 77.3029C61.0583 77.5086 61.1892 77.2094 61.0208 77.6395C60.8525 78.0698 60.8338 78.0509 60.7777 78.2381C60.7216 78.4252 60.7964 78.2755 60.5907 78.3877C60.3849 78.5 60.4972 78.4625 60.254 78.5374C60.0109 78.6122 59.7116 78.6871 59.6181 78.7057C59.5246 78.7244 59.1505 78.8366 59.2627 79.061C59.375 79.2855 59.375 79.3229 59.2627 79.6035C59.1505 79.884 58.9822 79.9776 58.9822 80.1085C58.9822 80.2394 58.9073 80.3702 58.8887 80.4638C58.8699 80.5574 59.057 80.3702 58.8326 80.6509C58.6081 80.9314 58.5895 80.8566 58.5146 81.025C58.4398 81.1933 58.5146 81.0623 58.4398 81.1933C58.365 81.3241 58.1779 81.3802 58.1779 81.3802C58.1779 81.3802 58.1966 81.4738 58.1218 81.4364C58.0469 81.3991 58.0657 81.4551 57.7851 81.3802C57.5045 81.3055 57.4671 81.1186 57.4297 81.2494C57.3923 81.3802 57.4484 81.4552 57.6168 81.5861C57.7851 81.717 58.0657 81.7544 57.9908 81.8854C57.941 81.9727 57.8973 82.0413 57.8599 82.0911C57.8038 82.166 57.9347 82.1098 57.8038 82.166C57.6729 82.2221 57.598 82.4653 57.5419 82.4653C57.4858 82.4653 57.4484 82.5588 57.3736 82.5214C57.2988 82.4839 57.1118 82.353 57.0743 82.4278C57.0369 82.5026 56.9621 82.3343 56.9808 82.5961C56.9995 82.858 57.0369 83.0076 56.9434 83.0638C56.8499 83.1199 56.6253 83.0638 56.6253 83.0638L56.588 82.9702L56.4571 83.0076C56.4571 83.0076 56.401 83.2321 56.4945 83.2695C56.588 83.3069 56.5693 83.3442 56.6627 83.4565C56.7563 83.5687 56.7002 83.7745 56.7002 83.7745C56.7002 83.7745 56.7002 83.8306 56.6067 83.9241C56.5132 84.0176 56.4758 84.0925 56.4571 84.1486C56.4383 84.2047 56.3261 84.4479 56.4945 84.4291C56.6627 84.4104 56.7938 84.3169 56.7938 84.6162C56.7938 84.9155 56.8686 84.8407 56.7751 85.0464C56.6815 85.2521 56.6067 85.2708 56.588 85.4578C56.5694 85.6449 56.6068 85.6636 56.6442 85.7758C56.6816 85.8881 56.7751 85.8319 56.6816 85.8881C56.5885 85.9413 56.3085 85.8856 56.3085 85.8856L56.3077 85.8882Z" fill="#EBEBEB"/>
<path d="M51.4817 70.6629L51.3508 70.4759C51.3508 70.4759 51.2947 70.3636 51.2011 70.3449C51.1076 70.3263 50.9018 70.0831 50.9018 70.0831C50.9018 70.0831 50.8083 70.0083 50.8083 69.8774C50.8083 69.7465 50.7335 69.5408 50.7895 69.3163C50.8457 69.0919 50.8644 68.8113 50.8457 68.7365C50.8269 68.6617 50.9392 68.643 50.8083 68.5681C50.6774 68.4933 50.4155 68.4746 50.2472 68.4746C50.0788 68.4746 49.873 68.5308 49.8356 68.5494C49.7982 68.5681 50.0414 67.9883 50.0788 67.8948C50.1162 67.8013 50.2845 67.3898 50.2845 67.3337C50.2845 67.2776 50.3406 67.2589 50.2285 67.1841C50.1163 67.1093 49.9292 67.0719 49.8169 67.128C49.7048 67.1841 49.7235 67.0532 49.63 67.2776C49.5365 67.5021 49.4429 67.7452 49.3306 67.7826C49.2185 67.8201 48.994 67.9323 48.994 67.9323C48.994 67.9323 48.7135 67.9136 48.6199 67.8949C48.5264 67.8762 48.1336 67.6704 48.0588 67.5395C47.984 67.4086 47.9466 67.128 47.9466 66.9971C47.9466 66.8662 48.1523 66.4735 48.1336 66.3799C48.1149 66.2864 48.3394 65.9123 48.3207 65.8561C48.3019 65.8 48.358 65.613 48.4141 65.5382C48.4702 65.4634 48.7509 65.3698 48.8257 65.295C48.9004 65.2202 49.0314 65.1267 49.1623 65.0893C49.2932 65.0518 49.4055 65.0145 49.499 65.0145C49.5925 65.0145 49.8356 64.8087 49.873 65.0145C49.9105 65.2202 50.0789 65.1454 50.1724 65.1641C50.2658 65.1828 50.2846 65.2763 50.4342 65.0332C50.5839 64.79 50.7335 64.7152 50.7335 64.7713C50.7335 64.8274 50.9766 64.7526 51.014 64.8087C51.0514 64.8648 51.1263 64.7713 51.2571 64.8835C51.3881 64.9958 51.5751 65.0145 51.5564 65.0705C51.5377 65.1266 51.6312 65.1266 51.6312 65.1828C51.6312 65.2389 51.706 65.0518 51.706 65.3885C51.706 65.7251 51.7995 65.9309 51.7995 65.9309C51.7995 65.9309 51.9304 66.2115 51.9865 66.1554C52.0426 66.0993 52.1548 65.9497 52.1548 65.9497C52.1548 65.9497 52.3419 65.8374 52.211 65.4446C52.08 65.0519 52.1736 64.9396 52.1362 64.8087C52.0987 64.6777 52.0987 64.6028 52.3232 64.4346C52.5476 64.2663 53.09 63.8922 53.221 63.8174C53.3519 63.7426 53.6511 63.5368 53.6511 63.5368C53.6511 63.5368 53.7633 63.4807 53.7821 63.3311C53.8008 63.1815 54.1561 62.9196 54.1749 62.8448C54.1936 62.77 54.4368 62.583 54.4368 62.583C54.4368 62.583 54.6986 62.4333 54.6799 62.3398C54.6612 62.2463 55.0166 62.0781 55.0727 62.0781C55.1288 62.0781 55.4281 62.1715 55.4281 62.0031C55.4281 61.8348 55.4281 61.7974 55.6151 61.6478C55.8021 61.4982 56.0453 61.2737 56.1388 61.2737C56.2323 61.2737 56.5503 61.1055 56.6812 61.068C56.8122 61.0305 57.2237 60.8435 56.8496 61.068C56.4755 61.2924 56.7186 61.1615 56.6438 61.3485C56.5691 61.5355 56.5129 61.7787 56.8683 61.4981C57.2237 61.2176 57.2049 61.1614 57.3359 61.1428C57.4669 61.1241 57.3733 61.1989 57.6538 61.1053C57.9345 61.0118 57.9531 60.9744 57.9531 60.9744C57.9531 60.9744 58.0841 60.8622 58.0092 60.8061C57.9345 60.75 58.0841 60.6752 57.8035 60.7874C57.5229 60.8996 57.5416 60.9183 57.3546 60.8622C57.1676 60.8061 56.887 60.8247 57.0927 60.6377C57.2985 60.4507 57.5603 60.3945 57.392 60.3197C57.2237 60.2449 56.7935 60.3385 56.7374 60.3571C56.6812 60.3758 56.5503 60.3384 56.4381 60.3571C56.3259 60.3758 56.3633 60.2076 56.4381 60.1701C56.5129 60.1327 56.7561 60.0204 57.0553 59.9456C57.3546 59.8708 58.0841 59.8521 58.2524 59.8521C58.4207 59.8521 58.6451 59.8896 58.7761 59.796C58.907 59.7025 59.1689 59.5529 59.2063 59.478C59.2438 59.4032 59.3934 59.291 59.3934 59.291C59.3934 59.291 59.5616 59.1227 59.4681 59.0479C59.3747 58.9731 59.2811 58.8047 59.2063 58.8421C59.1315 58.8795 59.1877 59.104 59.038 58.8608C58.8884 58.6177 58.9071 58.5803 58.8323 58.5242C58.7575 58.4681 58.6826 58.5054 58.7388 58.2436C58.7949 57.9818 58.7762 57.8695 58.7762 57.8695C58.7762 57.8695 58.8323 57.6451 58.7762 57.6264C58.72 57.6077 58.6827 57.5516 58.5892 57.6077C58.4956 57.6638 57.9719 57.9257 57.8597 57.9818C57.7475 58.0379 57.5978 57.7573 57.6539 57.6264C57.7101 57.4954 57.6726 57.5703 57.5978 57.3833C57.523 57.1962 57.2238 57.1588 57.1115 57.1588C56.9992 57.1588 56.7375 56.9904 56.6626 57.1027C56.5878 57.2149 56.1951 57.5702 56.1201 57.6077C56.0453 57.6451 55.9332 57.2897 55.8771 57.8695C55.8209 58.4494 56.0828 58.6177 55.7836 58.6551C55.4843 58.6925 55.2224 58.8608 55.2224 58.8608C55.2224 58.8608 54.9793 58.8796 54.9793 59.0292C54.9793 59.1789 54.8858 59.5342 54.7735 59.5716C54.6613 59.609 54.3807 59.5529 54.2872 59.4407C54.1937 59.3284 54.3059 58.917 54.3059 58.917L54.4743 58.7486C54.4743 58.7486 53.2772 58.5616 53.2958 58.4868C53.3146 58.412 52.9405 58.2811 52.9031 58.1688C52.8657 58.0566 52.8469 57.8134 52.8844 57.7199C52.9218 57.6264 53.4268 57.1775 53.6886 57.084C53.9505 56.9905 54.3994 56.7848 54.5304 56.7473C54.6613 56.7099 54.8857 56.7286 54.9606 56.6351C55.0354 56.5416 55.0541 56.3733 55.0541 56.3733C55.0541 56.3733 55.0167 56.1114 55.0914 56.1488C55.1662 56.1862 55.2972 56.2423 55.3159 56.2984C55.3347 56.3545 55.3347 56.4855 55.4656 56.3357C55.5965 56.1862 55.7649 56.13 55.9145 56.0553C56.0641 55.9804 56.2885 55.9992 56.4195 55.9244C56.5504 55.8496 56.7749 55.7747 56.7936 55.5877C56.8123 55.4007 56.7375 55.4568 56.6439 55.438C56.5504 55.4194 56.6813 55.4568 56.3634 55.6064C56.0454 55.756 56.1389 55.6438 55.9145 55.756C55.69 55.8682 55.6712 55.8869 55.6526 55.7934C55.6338 55.6999 55.69 55.5503 55.69 55.5503C55.69 55.5503 55.7088 55.5315 55.5778 55.4942C55.4469 55.4568 55.4469 55.5129 55.4282 55.3446C55.4095 55.1762 55.5217 54.9331 55.3347 55.0079C55.1476 55.0827 54.9793 54.9518 54.8484 55.3258C54.7174 55.6999 54.2685 56.0927 54.1562 55.9992C54.0441 55.9057 54.0254 55.8869 53.9318 55.8869C53.8382 55.8869 53.7073 55.7747 53.539 55.756C53.3706 55.7373 52.8656 55.7373 52.7347 55.756C52.6038 55.7748 52.4542 55.6812 52.3419 55.7935C52.2297 55.9057 52.0614 56.0553 52.0614 56.1115C52.0614 56.1676 51.893 55.9057 51.8369 55.9244C51.7808 55.9431 51.6311 55.8497 51.4629 55.8497C51.2945 55.8497 51.1823 55.7561 51.1263 55.7561C51.0702 55.7561 51.1823 55.6064 51.1263 55.5877C51.0702 55.5691 49.8543 55.5316 49.8543 55.5316C49.8543 55.5316 49.4615 55.382 49.3119 55.4007C49.1623 55.4194 48.7509 55.4381 48.4328 55.4942C48.1148 55.5503 47.6472 55.7374 47.4976 55.7561C47.3479 55.7749 47.0113 55.7749 46.9552 55.6813C46.899 55.5878 46.9739 55.6065 46.899 55.5878C46.8242 55.5692 46.8804 55.5317 46.712 55.4008C46.5437 55.2699 46.7869 55.1577 46.4502 55.1577C46.1135 55.1577 45.9078 55.1389 45.6085 55.1577C45.3092 55.1764 44.692 55.326 44.6172 55.3073C44.5424 55.2886 43.9439 55.4008 43.8503 55.3447C43.7568 55.2886 43.2892 55.5504 43.1957 55.5317C43.1022 55.513 42.7468 55.5505 42.6533 55.6066C42.5598 55.6627 42.1109 55.7749 42.2605 55.8684C42.4101 55.9619 42.3914 56.0554 42.4101 56.1116C42.4289 56.1677 42.2605 56.2986 42.2605 56.2986C42.2605 56.2986 42.2231 56.2986 42.0174 56.2238C41.8116 56.1489 41.5872 56.1116 41.4936 56.1677C41.4001 56.2238 41.2318 56.3361 41.2692 56.4109C41.3066 56.4857 41.5684 56.654 41.6059 56.5979C41.6433 56.5418 41.7368 56.4296 41.849 56.4483C41.9613 56.467 42.1296 56.3735 41.98 56.5605C41.8303 56.7475 41.6994 56.8411 41.6059 56.8599C41.5124 56.8785 41.2879 56.8972 41.0822 56.9159C40.8764 56.9347 40.8951 56.8412 40.7081 57.0282C40.5211 57.2152 40.4462 57.103 40.4088 57.3088C40.3714 57.5144 40.334 57.5144 40.4088 57.5706C40.4836 57.6267 40.2592 57.6454 40.4275 57.7015C40.5958 57.7577 40.8016 57.8138 40.7829 57.8698C40.7641 57.9259 40.9699 57.7951 40.8577 57.9446C40.7454 58.0943 40.6707 58.2251 40.8951 58.0755C41.1195 57.9259 41.2504 58.0381 41.4375 57.9446C41.6245 57.8511 41.8116 57.8324 41.9238 57.7576C42.036 57.6827 42.0921 57.5706 42.2605 57.5144C42.4288 57.4583 42.3166 57.5331 42.3353 57.6266C42.354 57.7201 42.3353 57.7388 42.4475 57.664C42.5597 57.5892 42.5597 57.6453 42.7094 57.5518C42.859 57.4583 43.0273 57.3647 43.1396 57.4208C43.2518 57.477 43.2892 57.477 43.364 57.477C43.4388 57.477 43.2705 57.4582 43.4388 57.477C43.6072 57.4956 43.364 57.4208 43.9251 57.5518C44.4863 57.6827 44.6359 57.5892 44.6733 57.7949C44.7107 58.0007 44.7855 57.7762 44.879 57.9071C44.9725 58.038 45.0287 57.9259 45.0848 58.1503C45.1409 58.3748 45.0848 58.992 45.0474 59.0668C45.01 59.1416 44.9913 59.1416 45.01 59.3099C45.0287 59.4782 45.2531 60.2826 45.1783 60.3386C45.1035 60.3946 44.9352 60.4134 44.9352 60.4134L44.8417 60.75C44.8417 60.75 44.6921 61.0306 44.5611 61.1802C44.4302 61.3298 44.2619 61.517 44.1683 61.6478C44.0748 61.7787 44 62.0033 43.8691 62.1342C43.7382 62.265 43.6259 62.2089 43.6633 62.4895C43.7007 62.77 43.6633 63.0693 43.7007 63.2751C43.7382 63.4809 43.8317 63.7614 43.9065 63.8737C43.9813 63.9859 44.0374 63.9859 44.1683 64.0794C44.2993 64.1728 44.4677 64.2852 44.4489 64.3787C44.4302 64.4722 44.4676 65.0521 44.4676 65.0521C44.4676 65.0521 44.5798 65.2391 44.5985 65.4448C44.6172 65.6506 44.7481 65.8563 44.7481 65.8563L44.8604 66.0995C44.8604 66.0995 44.9165 66.1183 44.9913 66.2678C45.0412 66.3676 45.0724 66.4424 45.0848 66.4922C45.1036 66.5671 45.1036 66.5484 45.1036 66.5671C45.1036 66.5858 45.0848 66.2491 45.0474 66.1556C45.01 66.0621 45.01 65.9499 44.9726 65.8376C44.9353 65.7254 44.9913 65.5944 44.8792 65.4261C44.767 65.2578 44.767 65.2391 44.7109 65.0707C44.6548 64.9024 44.5799 64.7154 44.6548 64.6779C44.7296 64.6406 44.7857 64.3974 44.9353 64.6779C45.0849 64.9585 45.1037 64.8837 45.1224 65.1082C45.141 65.3326 45.1972 65.4075 45.2533 65.5009C45.3094 65.5944 45.4403 65.9125 45.5151 66.0433C45.5899 66.1743 45.5151 65.9685 45.6834 66.2304C45.8518 66.4922 45.8705 66.5483 45.964 66.7541C46.0575 66.9598 46.1137 66.9598 46.1698 67.1094C46.2259 67.2591 46.1885 67.2217 46.151 67.39C46.1136 67.5582 46.1884 67.7454 46.1884 67.7454C46.1884 67.7454 46.4502 67.8389 46.4689 67.895C46.4876 67.9511 46.7495 68.0445 46.787 68.1194C46.8244 68.1943 47.0675 68.2877 47.0675 68.2877C47.0675 68.2877 47.2733 68.4186 47.348 68.456C47.4228 68.4934 47.6474 68.5309 47.6474 68.5309C47.6474 68.5309 47.797 68.5684 47.8531 68.587C47.9091 68.6057 48.0775 68.6057 48.0775 68.6057C48.0775 68.6057 48.2272 68.4935 48.2833 68.5309C48.3393 68.5682 48.4703 68.456 48.5264 68.5495C48.5825 68.6431 48.6948 68.6431 48.7509 68.718C48.807 68.7928 48.863 68.7928 48.9566 68.8863C49.0502 68.9797 49.1437 68.961 49.2372 69.0358C49.3306 69.1106 49.4054 69.1106 49.5177 69.1106C49.5925 69.1106 49.6548 69.1169 49.7048 69.1294C49.7795 69.1481 49.8169 69.0732 49.8917 69.1669C49.9665 69.2604 50.0226 69.3165 50.0787 69.4099C50.1348 69.5034 50.2658 69.5034 50.2845 69.6531C50.3032 69.8027 50.3406 69.7841 50.3406 69.9149C50.3406 70.0459 50.4154 70.102 50.4715 70.1395C50.5276 70.1768 50.7333 70.3638 50.7333 70.3638L51.0139 70.4199L51.2383 70.5883L51.4752 70.6631L51.4817 70.6629Z" fill="#EBEBEB"/>
<path d="M57.4765 53.2867L58.5988 53.1465C58.5988 53.1465 58.9915 53.1465 59.1879 53.0063C59.3843 52.866 59.1879 52.866 59.7771 52.7538C60.3662 52.6416 60.198 52.5855 60.5066 52.6416C60.8151 52.6977 60.8993 52.6977 61.236 52.7538C61.5727 52.8099 61.6568 52.7259 61.9654 52.8099C62.274 52.8941 62.4143 52.866 62.6669 52.866H63.4524C63.8452 52.866 64.2099 52.6416 64.3502 52.7818C64.4905 52.9221 64.5747 52.866 65.0517 52.9221C65.5286 52.9781 65.7251 52.8659 65.9214 52.9221C66.1179 52.9781 66.4546 52.8941 66.8472 52.9221C67.2399 52.95 67.4364 52.8941 67.5767 52.8941C67.717 52.8941 67.8572 52.6976 68.0536 52.866C68.25 53.0343 68.5025 52.8099 68.5305 53.0343C68.5586 53.2588 68.9233 53.0904 68.5586 53.2588C68.1939 53.4271 68.25 53.399 67.9974 53.6235C67.745 53.8479 68.1658 54.0442 67.6327 54.2407C67.0997 54.437 67.0155 54.1285 66.8752 54.4652C66.735 54.8018 66.8752 54.8859 66.8472 55.0543C66.8191 55.2226 66.763 55.2506 66.5947 55.3909C66.4264 55.5312 66.4264 55.3909 66.0336 55.4752C65.6408 55.5594 65.3602 55.6435 65.1919 55.6435C65.0236 55.6435 64.6589 55.7838 64.5466 55.8399C64.4343 55.896 64.743 55.9801 64.1538 56.1485C63.5646 56.3169 63.4242 56.2889 63.256 56.5132C63.0876 56.7377 63.1437 56.7658 63.0315 56.9061C62.9192 57.0463 62.5826 57.6075 62.4142 57.4672C62.246 57.327 62.1617 57.355 62.0214 57.2147C61.8812 57.0744 61.797 56.878 61.7128 56.7658C61.6287 56.6535 61.6006 56.373 61.5726 56.2046C61.5446 56.0363 61.292 55.6435 61.5726 55.6996C61.8532 55.7557 62.0215 55.7277 62.1056 55.6716C62.1899 55.6155 62.274 55.4191 62.274 55.4191C62.274 55.4191 62.246 55.1104 62.1617 54.942C62.0775 54.7737 62.1338 54.6334 61.9935 54.4652C61.8532 54.2968 61.8532 54.3249 61.6567 54.1565C61.4604 53.9881 61.5165 53.9039 61.2078 53.876C60.8992 53.848 60.815 53.7637 60.7028 53.7917C60.5906 53.8197 60.2259 53.5953 60.6186 53.5673C61.0114 53.5392 61.3761 53.5953 61.3761 53.5953C61.3761 53.5953 61.8811 53.3708 61.7128 53.3428C61.5445 53.3147 61.9652 53.0622 61.5725 53.1464C61.1797 53.2306 60.7309 53.3428 60.6186 53.3708C60.5064 53.3988 60.2258 53.4269 59.9453 53.5111C59.6648 53.5953 59.328 53.5672 59.1597 53.7636C58.9914 53.96 59.1597 53.9881 58.9914 53.96C58.8231 53.932 59.1316 53.7636 58.7389 53.96C58.3461 54.1564 58.4584 54.1283 58.2621 54.0722C58.0656 54.0161 57.9254 53.932 57.9254 53.932C57.9254 53.932 58.178 53.9039 57.8132 53.8759C57.57 53.8572 57.4017 53.7917 57.3082 53.6794C57.1679 53.5111 57.2521 53.5111 57.3361 53.455C57.4193 53.3988 57.4758 53.2865 57.4758 53.2865L57.4765 53.2867Z" fill="#EBEBEB"/>
<path d="M56.8592 54.5492C56.719 54.6894 56.3822 54.8859 56.4665 54.9701C56.5507 55.0543 56.6067 55.3629 56.7751 55.2787C56.9434 55.1945 56.747 54.914 57.3923 55.1384C58.0377 55.3629 57.9815 55.1105 58.1218 55.4471C58.262 55.7837 58.3742 56.0362 58.2901 56.1205C58.206 56.2047 58.1779 56.2888 57.8973 56.373C57.6167 56.4572 57.5045 56.5695 57.7009 56.7097C57.8973 56.8499 58.2621 56.9902 58.4304 57.0745C58.5987 57.1586 59.1037 57.1868 58.8512 56.9062C58.5986 56.6257 58.9073 56.5414 58.9073 56.5414C58.9073 56.5414 59.3843 56.9062 59.216 56.4853C59.0476 56.0645 58.9354 56.0645 59.0476 56.0645C59.1599 56.0645 59.3843 56.2047 59.3843 56.2047L59.4965 55.9803L59.3843 55.6156L59.0196 55.2509C59.0196 55.2509 59.3281 54.9704 58.9073 54.9143C58.4865 54.8582 58.5145 54.8582 58.2901 54.7178C58.0656 54.5775 58.0376 54.5215 57.6167 54.6056C57.1959 54.6898 57.0556 54.7458 57.0556 54.7458L56.8604 54.5492L56.8592 54.5492Z" fill="#EBEBEB"/>
<path d="M50.6025 54.8859C50.7709 54.7176 51.2198 54.3248 51.3882 54.437C51.5564 54.5492 51.8089 54.3528 52.0053 54.5212C52.2017 54.6896 52.4261 54.8859 52.5945 54.942C52.7628 54.9981 52.9592 54.8018 53.1275 54.8859C53.2958 54.9701 53.885 54.4651 53.7728 54.8579C53.6605 55.2507 53.913 55.3629 53.6044 55.391C53.2958 55.419 52.9592 55.6436 52.8188 55.5593C52.6786 55.4751 52.5662 55.391 52.3418 55.5032C52.1173 55.6154 52.2296 55.6154 51.9771 55.5593C51.7247 55.5032 51.6686 55.6154 51.6125 55.5312C51.5563 55.4471 51.388 55.4751 51.416 55.2226C51.444 54.9701 51.5282 54.9981 51.3598 54.9981C51.1915 54.9981 51.0513 55.0262 50.939 54.942C50.8277 54.8578 50.6034 54.8858 50.6034 54.8858L50.6025 54.8859Z" fill="#EBEBEB"/>
<path d="M113.231 61.6123C121.711 61.6123 128.586 54.7375 128.586 46.257C128.586 37.7765 121.711 30.9017 113.231 30.9017C104.75 30.9017 97.8752 37.7765 97.8752 46.257C97.8752 54.7375 104.75 61.6123 113.231 61.6123Z" fill="#EBEBEB" stroke="#A4A4A4" stroke-linecap="round" stroke-linejoin="round"/>
<path d="M111.054 50.4436C111.518 50.9011 112.103 51.1894 112.807 51.307V46.6371C112.185 46.4836 111.647 46.3158 111.195 46.1336C110.742 45.9514 110.366 45.7349 110.068 45.4825C109.768 45.2301 109.547 44.9217 109.406 44.5574C109.264 44.1931 109.194 43.7527 109.194 43.235C109.194 42.7057 109.289 42.2209 109.477 41.7806C109.665 41.3403 109.92 40.9588 110.243 40.6347C110.567 40.312 110.948 40.0566 111.389 39.8688C111.829 39.6809 112.302 39.569 112.807 39.5331V38.37H113.777V39.5518C114.729 39.6695 115.486 40.0223 116.05 40.6089C116.614 41.197 117.014 42.0073 117.249 43.0414H115.75C115.515 41.8783 114.858 41.197 113.777 40.9962V45.332L114.834 45.6146C115.069 45.6734 115.346 45.7767 115.663 45.923C115.98 46.0693 116.285 46.273 116.579 46.5311C116.873 46.7892 117.123 47.112 117.328 47.5007C117.533 47.8879 117.636 48.3526 117.636 48.8919C117.636 49.4685 117.54 49.979 117.345 50.4251C117.152 50.8726 116.885 51.257 116.543 51.5797C116.204 51.9038 115.798 52.1591 115.327 52.347C114.858 52.5349 114.34 52.6525 113.777 52.6998V54.1442H112.807V52.6998C111.632 52.5822 110.699 52.1734 110.005 51.4749C109.312 50.775 108.919 49.8083 108.824 48.5748H110.323C110.346 49.3623 110.59 49.9847 111.054 50.4436ZM111.371 41.5511C110.977 41.8982 110.781 42.406 110.781 43.0757C110.781 43.3812 110.831 43.6437 110.931 43.8602C111.03 44.0783 111.171 44.2604 111.354 44.4067C111.535 44.5545 111.75 44.6807 111.997 44.7854C112.243 44.8915 112.513 44.9862 112.807 45.0679V40.9444C112.243 41.0032 111.764 41.2054 111.371 41.5511ZM114.685 51.1306C114.96 51.0374 115.201 50.8982 115.407 50.7161C115.613 50.534 115.772 50.3059 115.884 50.0291C115.994 49.7537 116.05 49.4267 116.05 49.0509C116.05 48.7096 115.991 48.4256 115.874 48.1961C115.756 47.9666 115.598 47.7701 115.399 47.6052C115.198 47.4417 114.957 47.304 114.676 47.1921C114.393 47.0803 114.094 46.977 113.777 46.8837V51.307C114.105 51.2841 114.408 51.2253 114.685 51.1306Z" fill="#A4A4A4"/>
<path d="M34.3888 109.071C42.4456 109.071 48.977 102.54 48.977 94.4831C48.977 86.4262 42.4456 79.8948 34.3888 79.8948C26.3319 79.8948 19.8005 86.4262 19.8005 94.4831C19.8005 102.54 26.3319 109.071 34.3888 109.071Z" fill="#D1D1D1" stroke="#A4A4A4" stroke-linecap="round" stroke-linejoin="round"/>
<path d="M31.3399 94.2515C31.1263 93.8881 30.9479 93.5104 30.8047 93.1146C30.6601 92.72 30.5885 92.2668 30.5885 91.755C30.5885 91.2432 30.6862 90.7874 30.8842 90.3863C31.0821 89.9865 31.3478 89.6479 31.6838 89.3705C32.0198 89.093 32.4066 88.8795 32.8441 88.731C33.2817 88.5812 33.7453 88.5057 34.2363 88.5057C35.4214 88.5057 36.3512 88.8508 37.0297 89.5385C37.7069 90.2261 38.0351 91.2588 38.0129 92.6353H36.6534C36.6312 91.6964 36.4294 90.9736 36.0452 90.467C35.661 89.9603 35.0854 89.7064 34.3171 89.7064C33.9967 89.7064 33.6984 89.7598 33.4211 89.8666C33.1437 89.9733 32.9002 90.1205 32.6931 90.3067C32.4847 90.493 32.322 90.7144 32.2048 90.9709C32.0876 91.2262 32.029 91.5049 32.029 91.8031C32.029 92.0584 32.055 92.2967 32.1085 92.5155C32.1619 92.7343 32.2282 92.9387 32.309 93.1315C32.3885 93.3229 32.477 93.5104 32.5721 93.6915C32.6684 93.8725 32.7648 94.0587 32.8611 94.2515H35.4046V94.9716H33.2128C33.2974 95.1422 33.3729 95.3285 33.4367 95.5317C33.5006 95.7348 33.5331 95.9471 33.5331 96.1711C33.5331 96.5344 33.4797 96.8574 33.3729 97.14C33.2661 97.4227 33.1268 97.6844 32.9562 97.924C32.7856 98.1636 32.5889 98.385 32.365 98.5882C32.141 98.7914 31.9104 98.988 31.676 99.1807L31.7086 99.212C31.986 99.0948 32.2555 98.988 32.516 98.8916C32.7778 98.7965 33.0682 98.7484 33.3886 98.7484C33.6985 98.7484 33.9759 98.7744 34.2207 98.8265C34.4656 98.8773 34.6948 98.9294 34.9084 98.9814C35.122 99.0426 35.3381 99.1051 35.5569 99.1677C35.7757 99.2288 36.0075 99.2601 36.2537 99.2601C36.5089 99.2601 36.7629 99.199 37.0129 99.0765C37.2643 98.9541 37.4857 98.8174 37.6771 98.6676L38.3661 99.7303C38.0457 100.012 37.6798 100.204 37.2695 100.306C36.858 100.409 36.4452 100.461 36.0297 100.461C35.7627 100.461 35.501 100.428 35.2458 100.365C34.9892 100.301 34.7223 100.23 34.4448 100.156C34.1778 100.071 33.9083 99.9933 33.6374 99.9243C33.3652 99.8552 33.0735 99.8201 32.7649 99.8201C32.4549 99.8201 32.1723 99.8709 31.9171 99.9724C31.6605 100.074 31.4092 100.204 31.1643 100.364L30.4129 99.3239C30.6369 99.1754 30.8544 98.9983 31.068 98.7965C31.2816 98.5933 31.4704 98.3693 31.6371 98.1245C31.8011 97.8783 31.9327 97.6178 32.0291 97.3392C32.1241 97.0631 32.1723 96.7688 32.1723 96.4601C32.1723 96.214 32.1293 95.9587 32.0446 95.6918C31.9587 95.4248 31.8688 95.1852 31.7724 94.9716H30.4128V94.2515H31.3399Z" fill="white"/>
<path d="M68.7451 81.1855C63.1416 79.3348 59.0977 74.0556 59.0977 67.8318C59.0977 60.0666 65.3926 53.7717 73.1577 53.7717C73.5207 53.7717 73.8804 53.7855 74.2364 53.8125" stroke="#A4A4A4" stroke-linecap="round" stroke-linejoin="round"/>
<path d="M78.5195 54.8301C83.6249 56.9379 87.2179 61.9652 87.2179 67.8317C87.2179 75.5969 80.9229 81.8918 73.1578 81.8918C72.8774 81.8918 72.5989 81.8836 72.3225 81.8674" stroke="#A4A4A4" stroke-linecap="round" stroke-linejoin="round"/>
<path d="M71.9462 51.3071L74.4589 53.8199L71.8562 56.4226" stroke="#A4A4A4" stroke-linecap="round" stroke-linejoin="round"/>
<path d="M74.62 79.3341L72.1072 81.8469L74.7099 84.4496" stroke="#A4A4A4" stroke-linecap="round" stroke-linejoin="round"/>
<path d="M11.6731 18.0847C11.6731 18.0847 16.3703 24.9049 23.1831 20.247C16.3702 24.905 21.0208 31.757 21.0208 31.757C21.0208 31.757 16.3236 24.9367 9.51066 29.5947C16.3236 24.9367 11.6731 18.0847 11.6731 18.0847Z" fill="white" stroke="#A4A4A4" stroke-linecap="round" stroke-linejoin="round"/>
<path d="M132.229 111.61C132.229 111.61 130.728 119.755 138.839 121.278C130.728 119.755 129.171 127.888 129.171 127.888C129.171 127.888 130.672 119.744 122.561 118.22C130.672 119.744 132.229 111.61 132.229 111.61Z" fill="white" stroke="#A4A4A4" stroke-linecap="round" stroke-linejoin="round"/>
</svg>
