<svg width="148" height="151" viewBox="0 0 148 151" fill="none" xmlns="http://www.w3.org/2000/svg">
<rect y="1.72745" width="148" height="148" rx="74" fill="#F5F5F5"/>
<path d="M88.792 31.2603L31.3276 51.9506C28.4541 52.9851 26.9635 56.1532 27.9981 59.0267L40.554 93.8991C41.5886 96.7725 44.7567 98.2632 47.6301 97.2286L105.095 76.5383C107.968 75.5037 109.459 72.3356 108.424 69.4622L95.8682 34.5898C94.8336 31.7163 91.6655 30.2257 88.792 31.2603Z" fill="#D1D1D1" stroke="#A4A4A4" stroke-linecap="round" stroke-linejoin="round"/>
<path d="M97.1124 38.0456L29.2423 62.4825L32.5973 71.8005L100.467 47.3636L97.1124 38.0456Z" fill="white" stroke="#A4A4A4" stroke-linecap="round" stroke-linejoin="round"/>
<path d="M114.651 55.7477H53.5752C50.5212 55.7477 48.0454 58.2234 48.0454 61.2774V98.3414C48.0454 101.395 50.5212 103.871 53.5752 103.871H114.651C117.705 103.871 120.181 101.395 120.181 98.3414V61.2774C120.181 58.2234 117.705 55.7477 114.651 55.7477Z" fill="white" stroke="#A4A4A4" stroke-linecap="round" stroke-linejoin="round"/>
<path d="M110.366 73.8526H99.0316C97.7629 73.8526 96.7345 74.881 96.7345 76.1497V83.0869C96.7345 84.3555 97.7629 85.3839 99.0316 85.3839H110.366C111.635 85.3839 112.663 84.3555 112.663 83.0869V76.1497C112.663 74.881 111.635 73.8526 110.366 73.8526Z" fill="#EBEBEB" stroke="#A4A4A4" stroke-linecap="round" stroke-linejoin="round"/>
<path d="M96.7345 77.642H101.183V76.317" stroke="#A4A4A4" stroke-linecap="round" stroke-linejoin="round"/>
<path d="M96.7345 81.5947H101.183V82.9196" stroke="#A4A4A4" stroke-linecap="round" stroke-linejoin="round"/>
<path d="M112.663 77.4482H108.288" stroke="#A4A4A4" stroke-linecap="round" stroke-linejoin="round"/>
<path d="M112.663 80.1837H104.995" stroke="#A4A4A4" stroke-linecap="round" stroke-linejoin="round"/>
<path d="M112.663 82.9196H108.288" stroke="#A4A4A4" stroke-linecap="round" stroke-linejoin="round"/>
<path d="M70.5685 91.6303H53.0168V95.2694H70.5685V91.6303Z" fill="#EBEBEB"/>
<path d="M66.7648 82.9199H53.0168V86.559H66.7648V82.9199Z" fill="#D1D1D1"/>
<path d="M89.4356 91.6302H74.3728V95.2694H89.4356V91.6302Z" fill="#EBEBEB"/>
<path d="M94.2708 87.3894H64.2529C62.4399 87.3894 60.9702 88.8591 60.9702 90.6721V117.089C60.9702 118.902 62.4399 120.371 64.2529 120.371H94.2708C96.0838 120.371 97.5535 118.902 97.5535 117.089V90.6721C97.5535 88.8591 96.0838 87.3894 94.2708 87.3894Z" fill="#EBEBEB" stroke="#A4A4A4" stroke-linecap="round" stroke-linejoin="round"/>
<path d="M66.7845 95.8489L72.9414 101.999L66.7845 95.8489Z" fill="#EBEBEB"/>
<path d="M66.7845 95.8489L72.9414 101.999" stroke="#A4A4A4" stroke-linecap="round" stroke-linejoin="round"/>
<path d="M72.9382 95.8452L66.7886 102.002L72.9382 95.8452Z" fill="#EBEBEB"/>
<path d="M72.9382 95.8452L66.7886 102.002" stroke="#A4A4A4" stroke-linecap="round" stroke-linejoin="round"/>
<path d="M85.5815 95.8381L91.7384 101.988L85.5815 95.8381Z" fill="#EBEBEB"/>
<path d="M85.5815 95.8381L91.7384 101.988" stroke="#A4A4A4" stroke-linecap="round" stroke-linejoin="round"/>
<path d="M91.7351 95.8344L85.5854 101.991L91.7351 95.8344Z" fill="#EBEBEB"/>
<path d="M91.7351 95.8344L85.5854 101.991" stroke="#A4A4A4" stroke-linecap="round" stroke-linejoin="round"/>
<path d="M70.6305 108.325L86.5848 108.316L70.6305 108.325Z" fill="#EBEBEB"/>
<path d="M70.6305 108.325L86.5848 108.316" stroke="#A4A4A4" stroke-linecap="round" stroke-linejoin="round"/>
<path d="M81.4245 108.326H86.0951V110.932C86.0951 112.221 85.0487 113.267 83.7598 113.267C82.4709 113.267 81.4244 112.221 81.4244 110.932L81.4245 108.326Z" fill="#EBEBEB" stroke="#A4A4A4" stroke-linecap="round" stroke-linejoin="round"/>
<path d="M36.1994 0.500009C36.1994 0.500009 41.5715 6.80236 35.309 12.1775C41.5716 6.80225 46.9865 13.0678 46.9865 13.0678C46.9865 13.0678 41.6144 6.76548 47.877 1.39027C41.6144 6.76548 36.1994 0.500009 36.1994 0.500009Z" fill="white" stroke="#A4A4A4" stroke-linecap="round" stroke-linejoin="round"/>
<path d="M95.3362 141.155C95.3362 141.155 103.591 141.812 102.964 150.041C103.591 141.812 111.851 142.414 111.851 142.414C111.851 142.414 103.595 141.756 104.223 133.527C103.595 141.756 95.3362 141.155 95.3362 141.155Z" fill="white" stroke="#A4A4A4" stroke-linecap="round" stroke-linejoin="round"/>
</svg>
