<svg width="148" height="148" viewBox="0 0 148 148" fill="none" xmlns="http://www.w3.org/2000/svg">
<rect width="148" height="148" rx="74" fill="#F5F5F5"/>
<path d="M74.3154 84.5665H59.5786C59.2044 84.5665 58.9011 84.8698 58.9011 85.244V86.496C58.9011 86.8702 59.2044 87.1735 59.5786 87.1735H74.3154C74.6896 87.1735 74.9929 86.8702 74.9929 86.496V85.244C74.9929 84.8698 74.6896 84.5665 74.3154 84.5665Z" fill="#EBEBEB"/>
<ellipse cx="51.216" cy="85.8701" rx="3.19424" ry="3.19424" fill="#EBEBEB"/>
<path d="M104.395 29.1281L43.3262 30.0842C40.2726 30.132 37.8359 32.6462 37.8837 35.6999L38.4639 72.7593C38.5117 75.8129 41.026 78.2497 44.0796 78.2018L105.148 77.2457C108.202 77.1979 110.638 74.6837 110.59 71.63L110.01 34.5706C109.962 31.517 107.448 29.0803 104.395 29.1281Z" fill="#EBEBEB" stroke="#A4A4A4" stroke-linecap="round" stroke-linejoin="round"/>
<path d="M111.548 52.5417L52.5533 36.7341C49.6033 35.9436 46.5711 37.6943 45.7807 40.6442L36.1878 76.4453C35.3974 79.3952 37.148 82.4274 40.098 83.2178L99.0927 99.0254C102.043 99.8159 105.075 98.0652 105.865 95.1153L115.458 59.3143C116.249 56.3643 114.498 53.3321 111.548 52.5417Z" fill="white" stroke="#A4A4A4" stroke-linecap="round" stroke-linejoin="round"/>
<path d="M102.723 68.9206L91.7747 65.987C90.5493 65.6586 89.2897 66.3859 88.9614 67.6113L87.1659 74.3121C86.8376 75.5375 87.5648 76.7971 88.7902 77.1254L99.7384 80.059C100.964 80.3873 102.223 79.6601 102.552 78.4347L104.347 71.7339C104.676 70.5085 103.948 69.2489 102.723 68.9206Z" fill="#EBEBEB" stroke="#A4A4A4" stroke-linecap="round" stroke-linejoin="round"/>
<path d="M88.5755 69.0527L92.872 70.204L93.2149 68.9242" stroke="#A4A4A4" stroke-linecap="round" stroke-linejoin="round"/>
<path d="M87.552 72.871L91.8485 74.0222L91.5056 75.302" stroke="#A4A4A4" stroke-linecap="round" stroke-linejoin="round"/>
<path d="M104.012 72.988L99.7852 71.8555" stroke="#A4A4A4" stroke-linecap="round" stroke-linejoin="round"/>
<path d="M103.304 75.6303L95.897 73.6457" stroke="#A4A4A4" stroke-linecap="round" stroke-linejoin="round"/>
<path d="M102.596 78.2728L98.3694 77.1403" stroke="#A4A4A4" stroke-linecap="round" stroke-linejoin="round"/>
<path d="M58.2609 66.3942L44.9814 62.8359L44.0396 66.3511L57.319 69.9093L58.2609 66.3942Z" fill="#D1D1D1"/>
<path d="M97.3635 91.6005L95.6158 98.1233L85.1298 95.3136L86.8775 88.7907C87.6666 85.8461 90.6556 84.0916 93.5484 84.8667C94.9971 85.2549 96.1467 86.203 96.8398 87.4197C97.5272 88.6395 97.7581 90.1281 97.3635 91.6005Z" fill="#A4A4A4" stroke="#A4A4A4" stroke-linecap="round" stroke-linejoin="round"/>
<path d="M66.9902 129.499L35.1375 120.964C32.6617 120.301 31.1951 117.719 31.8706 115.199L33.1836 110.298" stroke="#A4A4A4" stroke-linecap="round" stroke-linejoin="round"/>
<path d="M66.9904 129.499L32.2986 120.203C29.6435 119.492 28.0802 116.733 28.8033 114.034C29.3676 111.928 31.1585 110.483 33.1838 110.298C33.4121 110.271 33.6433 110.27 33.8765 110.278L34.1635 110.302L34.1916 110.304L69.372 112.251C65.5221 112.231 61.9733 114.836 60.9144 118.788C59.66 123.47 62.3842 128.265 66.9904 129.499Z" fill="#EBEBEB" stroke="#A4A4A4" stroke-linecap="round" stroke-linejoin="round"/>
<path d="M93.5484 84.8667C90.6556 84.0916 87.6666 85.8461 86.8776 88.7908L77.4923 123.817C76.3186 128.198 71.8789 130.809 67.5688 129.654L66.9903 129.499C62.3841 128.265 59.6599 123.47 60.9142 118.789C61.9732 114.837 65.522 112.231 69.3718 112.251L34.1915 110.304L34.1634 110.302L33.8763 110.279C33.6432 110.27 33.412 110.271 33.1837 110.298L42.1573 76.808C42.5518 75.3357 43.4961 74.1619 44.7058 73.4505C45.9099 72.742 47.384 72.497 48.8282 72.884L93.5484 84.8667Z" fill="white" stroke="#A4A4A4" stroke-linecap="round" stroke-linejoin="round"/>
<path d="M49.4998 89.064L53.9748 96.8709" stroke="#A4A4A4" stroke-linecap="round" stroke-linejoin="round"/>
<path d="M55.6413 90.7302L47.8343 95.2053" stroke="#A4A4A4" stroke-linecap="round" stroke-linejoin="round"/>
<path d="M68.2595 94.1533L72.7347 101.96" stroke="#A4A4A4" stroke-linecap="round" stroke-linejoin="round"/>
<path d="M74.4005 95.8193L66.5936 100.294" stroke="#A4A4A4" stroke-linecap="round" stroke-linejoin="round"/>
<path d="M49.9531 102.558L65.8757 106.877" stroke="#A4A4A4" stroke-linecap="round" stroke-linejoin="round"/>
<path d="M25.5716 43.3804C25.5716 43.3804 19.5642 41.5907 17.7603 47.5716C19.5641 41.5908 13.5691 39.7604 13.5691 39.7604C13.5691 39.7604 19.5765 41.5499 21.3803 35.5691C19.5765 41.5499 25.5716 43.3804 25.5716 43.3804Z" fill="white" stroke="#A4A4A4" stroke-linecap="round" stroke-linejoin="round"/>
<path d="M135.607 79.7113C135.607 79.7113 130.476 85.7302 136.457 90.8634C130.476 85.73 125.305 91.7137 125.305 91.7137C125.305 91.7137 130.435 85.6949 124.455 80.5615C130.435 85.6949 135.607 79.7113 135.607 79.7113Z" fill="white" stroke="#A4A4A4" stroke-linecap="round" stroke-linejoin="round"/>
</svg>
