<svg width="148" height="149" viewBox="0 0 148 149" fill="none" xmlns="http://www.w3.org/2000/svg">
<rect y="0.727661" width="148" height="148" rx="74" fill="#F5F5F5"/>
<path d="M102.846 42.3753H44.9163C41.8118 42.3753 39.295 44.892 39.295 47.9966V87.7428C39.295 90.8474 41.8118 93.3641 44.9163 93.3641H102.846C105.951 93.3641 108.467 90.8474 108.467 87.7428V47.9966C108.467 44.892 105.951 42.3753 102.846 42.3753Z" fill="white" stroke="#A4A4A4" stroke-linecap="round" stroke-linejoin="round"/>
<path d="M122.395 111.945H25.3664C22.8888 111.945 21.4748 109.586 22.9617 107.934L38.84 90.2873C39.4078 89.6563 40.2987 89.2849 41.2448 89.2849H106.517C107.463 89.2849 108.354 89.6563 108.922 90.2873L124.8 107.934C126.287 109.586 124.873 111.945 122.395 111.945Z" fill="#F5F5F5" stroke="#A4A4A4" stroke-linecap="round" stroke-linejoin="round"/>
<path d="M102.341 47.6751H45.421V83.8524H102.341V47.6751Z" fill="#EBEBEB" stroke="#A4A4A4" stroke-linecap="round" stroke-linejoin="round"/>
<path d="M102.341 35.9422V42.3223H91.6256V35.9422C91.6256 34.4643 92.2213 33.1184 93.1961 32.1513C94.1632 31.1842 95.5017 30.5805 96.9794 30.5805C99.9425 30.5805 102.341 32.979 102.341 35.9422Z" fill="#EBEBEB" stroke="#A4A4A4" stroke-linecap="round" stroke-linejoin="round"/>
<path d="M96.9796 30.5554C95.5019 30.5554 94.1635 31.1591 93.1964 32.1262C92.2216 33.0932 91.6259 34.4392 91.6259 35.917L91.6259 75.381H55.3868L55.3868 35.917C55.3868 32.9538 57.7853 30.5554 60.7406 30.5554H96.9796Z" fill="white" stroke="#A4A4A4" stroke-linecap="round" stroke-linejoin="round"/>
<path d="M113.169 72.2276C122.375 72.2276 129.839 64.7643 129.839 55.5578C129.839 46.3513 122.375 38.888 113.169 38.888C103.962 38.888 96.4991 46.3513 96.4991 55.5578C96.4991 64.7643 103.962 72.2276 113.169 72.2276Z" fill="#F5F5F5" stroke="#A4A4A4" stroke-linecap="round" stroke-linejoin="round"/>
<path d="M122.147 51.0455C121.928 50.2361 121.296 49.6023 120.487 49.3859C119.4 48.9661 108.87 48.7605 105.815 49.3979C105.006 49.6168 104.372 50.2481 104.155 51.0575C103.665 53.2102 103.627 57.8644 104.167 60.0653C104.386 60.8746 105.018 61.5084 105.827 61.7249C107.98 62.2204 118.214 62.2901 120.499 61.7249C121.308 61.506 121.942 60.8746 122.159 60.0653C122.682 57.7201 122.719 53.3546 122.147 51.0455Z" fill="#A4A4A4"/>
<path d="M116.254 55.5554L111.348 52.7412V58.3695L116.254 55.5554Z" fill="white"/>
<path d="M28.7192 103.938C36.0237 103.938 41.9452 98.0164 41.9452 90.7119C41.9452 83.4073 36.0237 77.4858 28.7192 77.4858C21.4147 77.4858 15.4932 83.4073 15.4932 90.7119C15.4932 98.0164 21.4147 103.938 28.7192 103.938Z" fill="white" stroke="#A4A4A4" stroke-linecap="round" stroke-linejoin="round"/>
<path d="M28.7189 83.5948C24.8993 83.5948 21.7996 86.7831 21.7996 90.7118C21.7996 94.6405 24.8993 97.8289 28.7189 97.8289C32.5385 97.8289 35.6382 94.6405 35.6382 90.7118C35.6382 86.7831 32.5385 83.5948 28.7189 83.5948ZM31.5285 94.0666C31.4113 94.0666 31.3388 94.0293 31.23 93.9633C29.489 92.8842 27.4634 92.8383 25.4629 93.2602C25.3541 93.2889 25.2118 93.3348 25.1309 93.3348C24.8603 93.3348 24.6901 93.1138 24.6901 92.8814C24.6901 92.5858 24.8603 92.4452 25.0695 92.3993C27.3546 91.8798 29.6898 91.9257 31.6819 93.1511C31.8521 93.2631 31.9526 93.3635 31.9526 93.6246C31.9526 93.8858 31.7545 94.0666 31.5285 94.0666ZM32.279 92.184C32.1339 92.184 32.0363 92.118 31.9358 92.0635C30.1921 91.0017 27.5917 90.5741 25.2788 91.2198C25.1448 91.2571 25.0723 91.2944 24.9467 91.2944C24.6482 91.2944 24.4055 91.0447 24.4055 90.7377C24.4055 90.4306 24.5506 90.2268 24.8379 90.1436C25.6136 89.9198 26.4059 89.7533 27.5666 89.7533C29.3774 89.7533 31.1267 90.2154 32.505 91.0591C32.731 91.1968 32.8203 91.3747 32.8203 91.6244C32.8175 91.9344 32.5831 92.184 32.279 92.184ZM33.1439 89.9973C32.9988 89.9973 32.9096 89.9599 32.784 89.8853C30.7975 88.6657 27.2458 88.373 24.9467 89.033C24.8463 89.0617 24.7208 89.1076 24.5868 89.1076C24.2185 89.1076 23.9367 88.812 23.9367 88.4304C23.9367 88.0487 24.1711 87.8191 24.4222 87.7445C25.4043 87.4489 26.5036 87.3083 27.7005 87.3083C29.7373 87.3083 31.8717 87.7445 33.4313 88.68C33.6489 88.8092 33.7912 88.9871 33.7912 89.3286C33.7912 89.7189 33.4843 89.9973 33.1439 89.9973Z" fill="#A4A4A4"/>
<path d="M62.587 46.4822L67.7762 51.5959" stroke="#A4A4A4" stroke-linecap="round" stroke-linejoin="round"/>
<path d="M67.7392 46.4442L62.6255 51.6334" stroke="#A4A4A4" stroke-linecap="round" stroke-linejoin="round"/>
<path d="M78.3241 46.3665L83.5133 51.4802" stroke="#A4A4A4" stroke-linecap="round" stroke-linejoin="round"/>
<path d="M83.4755 46.3288L78.3619 51.5181" stroke="#A4A4A4" stroke-linecap="round" stroke-linejoin="round"/>
<path d="M65.8781 56.9056L79.2348 56.8077" stroke="#A4A4A4" stroke-linecap="round" stroke-linejoin="round"/>
<path d="M73.7946 56.8477L77.2409 56.8224L77.2559 58.8762C77.2625 59.772 76.5406 60.5045 75.6449 60.5111L75.4445 60.5126C74.5487 60.5191 73.8162 59.7973 73.8096 58.9015L73.7946 56.8477Z" fill="white" stroke="#A4A4A4" stroke-linecap="round" stroke-linejoin="round"/>
<path d="M97.2919 108.358L100.003 112.03C101.969 114.694 98.142 120.856 91.4506 125.795C84.7655 130.73 77.7494 132.572 75.783 129.908L73.0721 126.235C73.55 126.883 74.3331 127.266 75.3364 127.401C76.5993 127.575 78.2148 127.353 80.0281 126.774C82.6713 125.939 85.7441 124.344 88.7444 122.129C91.7448 119.915 94.1743 117.448 95.7576 115.164C96.845 113.602 97.5325 112.123 97.7386 110.865C97.9056 109.867 97.7698 109.005 97.2919 108.358Z" fill="#D1D1D1" stroke="#A4A4A4" stroke-linecap="round" stroke-linejoin="round"/>
<path d="M97.2918 108.358C97.7696 109.005 97.9054 109.866 97.7384 110.865C97.5323 112.123 96.8448 113.601 95.7574 115.164C94.1741 117.448 91.7444 119.914 88.7442 122.129C85.7441 124.344 82.6711 125.939 80.0279 126.774C78.2146 127.353 76.5991 127.574 75.3362 127.401C74.333 127.266 73.5498 126.883 73.072 126.235C71.1055 123.571 74.9328 117.409 81.618 112.475C88.3095 107.535 95.3253 105.694 97.2918 108.358Z" fill="white" stroke="#A4A4A4" stroke-linecap="round" stroke-linejoin="round"/>
<path d="M97.8512 8.31139C97.8512 8.31139 91.8439 6.52175 90.04 12.5026C91.8438 6.52183 85.8488 4.6914 85.8488 4.6914C85.8488 4.6914 91.8562 6.48091 93.66 0.500122C91.8562 6.48091 97.8512 8.31139 97.8512 8.31139Z" fill="white" stroke="#A4A4A4" stroke-linecap="round" stroke-linejoin="round"/>
<path d="M47.0009 131.5C47.0009 131.5 41.8705 137.519 47.8512 142.652C41.8704 137.519 36.6992 143.503 36.6992 143.503C36.6992 143.503 41.8296 137.484 35.8488 132.35C41.8296 137.484 47.0009 131.5 47.0009 131.5Z" fill="white" stroke="#A4A4A4" stroke-linecap="round" stroke-linejoin="round"/>
</svg>
