<svg width="148" height="149" viewBox="0 0 148 149" fill="none" xmlns="http://www.w3.org/2000/svg">
<rect y="0.727661" width="148" height="148" rx="74" fill="#F5F5F5"/>
<path d="M33.2497 65.0519C33.3642 64.4986 33.4243 63.9253 33.4243 63.338C33.4243 58.6906 29.6569 54.9232 25.0094 54.9232C20.362 54.9232 16.5946 58.6906 16.5946 63.338C16.5946 67.9854 20.362 71.7529 25.0094 71.7529" stroke="#A4A4A4" stroke-miterlimit="10" stroke-linecap="round"/>
<path d="M25.0095 71.7529H49.2307" stroke="#A4A4A4" stroke-miterlimit="10" stroke-linecap="round"/>
<path d="M85.4439 46.2704C85.5346 45.8321 85.5823 45.3781 85.5823 44.9129C85.5823 41.2321 82.5983 38.2481 78.9174 38.2481C75.2366 38.2481 72.2526 41.2321 72.2526 44.9129C72.2526 48.5938 75.2366 51.5778 78.9174 51.5778" stroke="#A4A4A4" stroke-miterlimit="10" stroke-linecap="round"/>
<path d="M78.9171 51.5776H92.8704" stroke="#A4A4A4" stroke-miterlimit="10" stroke-linecap="round"/>
<path d="M41.152 109.54C41.2665 110.093 41.3267 110.666 41.3267 111.253C41.3267 115.901 37.5592 119.668 32.9118 119.668C28.2644 119.668 24.4969 115.901 24.4969 111.253C24.4969 106.606 28.2644 102.839 32.9118 102.839" stroke="#A4A4A4" stroke-miterlimit="10" stroke-linecap="round"/>
<path d="M32.9118 102.839H66.0872" stroke="#A4A4A4" stroke-miterlimit="10" stroke-linecap="round"/>
<path d="M42.6085 99.7549C43.6539 100.786 79.5726 133.207 89.7854 108.218L97.8619 83.4266C87.6491 108.416 51.7304 75.9948 50.6851 74.9636L42.6085 99.7549Z" fill="#D1D1D1" stroke="#A4A4A4" stroke-linecap="round" stroke-linejoin="round"/>
<path d="M70.4971 109.665C74.325 109.984 77.6865 107.139 78.0052 103.311C78.3239 99.4833 75.4791 96.1218 71.6512 95.8031C67.8233 95.4844 64.4618 98.3291 64.1431 102.157C63.8244 105.985 66.6692 109.346 70.4971 109.665Z" fill="#A4A4A4" stroke="#A4A4A4" stroke-linecap="round" stroke-linejoin="round"/>
<path d="M90.3746 84.2161C91.7196 83.6269 135.136 62.2655 115.704 43.5259L95.6655 26.844C115.097 45.5836 71.6808 66.945 70.3359 67.5342L90.3746 84.2161Z" fill="#EBEBEB" stroke="#A4A4A4" stroke-linecap="round" stroke-linejoin="round"/>
<path d="M107.005 64.987C110.379 63.152 111.627 58.9288 109.792 55.5543C107.957 52.1799 103.734 50.9319 100.36 52.7669C96.9851 54.6019 95.7371 58.825 97.5721 62.1995C99.4071 65.574 103.63 66.822 107.005 64.987Z" fill="#A4A4A4" stroke="#A4A4A4" stroke-linecap="round" stroke-linejoin="round"/>
<path d="M57.2542 94.8573C59.0422 95.4637 118.789 112.814 116.581 78.1742L112.013 44.9616C114.221 79.6016 54.4739 62.251 52.6859 61.6447L57.2542 94.8573Z" fill="white" stroke="#A4A4A4" stroke-linecap="round" stroke-linejoin="round"/>
<path d="M93.076 91.1896C97.9688 90.5166 101.39 86.0046 100.717 81.1117C100.044 76.2189 95.5317 72.798 90.6388 73.471C85.746 74.144 82.3251 78.656 82.9981 83.5489C83.6711 88.4417 88.1831 91.8626 93.076 91.1896Z" fill="#A4A4A4" stroke="#A4A4A4" stroke-linecap="round" stroke-linejoin="round"/>
<path d="M99.8997 104.206C103.359 102.639 116.58 102.346 121.145 110.572C114.139 114.513 107.416 119.323 99.8997 104.206Z" fill="#EBEBEB" stroke="#A4A4A4" stroke-linecap="round" stroke-linejoin="round"/>
<path d="M100.238 104.324C102.537 104.79 108.09 106.512 111.914 109.676" stroke="#A4A4A4" stroke-linecap="round" stroke-linejoin="round"/>
<path d="M58.3429 38.7393C61.3772 28.8496 53.6231 21.338 43.6025 20.0207C42.4272 28.5755 40.2729 37.191 58.3429 38.7393Z" fill="white" stroke="#A4A4A4" stroke-linecap="round" stroke-linejoin="round"/>
<path d="M58.0926 38.4476C56.7205 36.3346 52.8088 31.4652 48.1393 28.8917" stroke="#A4A4A4" stroke-linecap="round" stroke-linejoin="round"/>
<ellipse cx="46.1554" cy="56.886" rx="1.99012" ry="1.99012" fill="#A4A4A4"/>
<ellipse cx="127.846" cy="80.6401" rx="1.99012" ry="1.99012" fill="#A4A4A4"/>
<ellipse cx="19.9131" cy="88.478" rx="3.40549" ry="3.40549" stroke="#A4A4A4"/>
<path d="M98.1714 8.31139C98.1714 8.31139 92.1641 6.52175 90.3602 12.5026C92.164 6.52183 86.1689 4.6914 86.1689 4.6914C86.1689 4.6914 92.1764 6.48091 93.9802 0.500122C92.1764 6.48091 98.1714 8.31139 98.1714 8.31139Z" fill="white" stroke="#A4A4A4" stroke-linecap="round" stroke-linejoin="round"/>
<path d="M75.3211 129.5C75.3211 129.5 70.1907 135.519 76.1714 140.652C70.1906 135.519 65.0194 141.503 65.0194 141.503C65.0194 141.503 70.1498 135.484 64.1689 130.35C70.1498 135.484 75.3211 129.5 75.3211 129.5Z" fill="white" stroke="#A4A4A4" stroke-linecap="round" stroke-linejoin="round"/>
</svg>
