<svg width="148" height="148" viewBox="0 0 148 148" fill="none" xmlns="http://www.w3.org/2000/svg">
<rect width="148" height="148" rx="74" fill="#F5F5F5"/>
<path d="M87.1272 115.501L102.418 102.402C105.808 99.4993 106.202 94.3972 103.299 91.0079C101.122 88.4673 97.7153 87.6099 94.7186 88.5669L94.3341 88.7001L75.699 94.995C80.144 93.5819 85.2008 94.8483 88.431 98.6193C92.7314 103.639 92.1473 111.201 87.1272 115.501Z" fill="#D1D1D1" stroke="#A4A4A4" stroke-linecap="round" stroke-linejoin="round"/>
<path d="M75.699 94.995L94.3341 88.7001L94.7186 88.5669C97.7153 87.6098 101.122 88.4673 103.299 91.0079L62.242 43.0788L31.7207 69.2237L70.2455 114.197C74.5458 119.217 82.107 119.801 87.1272 115.501C92.1473 111.201 92.7314 103.64 88.431 98.6193C85.2008 94.8484 80.144 93.5819 75.699 94.995Z" fill="white" stroke="#A4A4A4" stroke-linecap="round" stroke-linejoin="round"/>
<path d="M75.6989 94.9948L75.4821 95.0662" stroke="#A4A4A4" stroke-linecap="round" stroke-linejoin="round"/>
<path d="M70.138 92.9549C75.5341 92.9549 79.9084 88.5806 79.9084 83.1846C79.9084 77.7885 75.5341 73.4142 70.138 73.4142C64.742 73.4142 60.3677 77.7885 60.3677 83.1846C60.3677 88.5806 64.742 92.9549 70.138 92.9549Z" fill="#A4A4A4" stroke="#A4A4A4" stroke-linecap="round" stroke-linejoin="round"/>
<path d="M36.0008 74.2202C38.763 71.8541 39.0834 67.7059 36.7172 64.9437L31.7207 69.2237L36.0008 74.2202Z" fill="#A4A4A4" stroke="#A4A4A4" stroke-linecap="round" stroke-linejoin="round"/>
<path d="M66.522 48.0753L62.242 43.0788L57.2454 47.359C59.6115 50.1212 63.7597 50.4416 66.522 48.0753Z" fill="#A4A4A4" stroke="#A4A4A4" stroke-linecap="round" stroke-linejoin="round"/>
<path d="M97.8902 98.0414L108.884 81.173C111.32 77.4343 110.264 72.427 106.526 69.9905C103.723 68.1639 100.212 68.2986 97.6054 70.0594L97.2739 70.2953L81.1592 81.5741C85.0279 78.9686 90.2367 78.7627 94.3967 81.4737C99.9347 85.0829 101.499 92.5036 97.8902 98.0414Z" fill="#EBEBEB" stroke="#A4A4A4" stroke-linecap="round" stroke-linejoin="round"/>
<path d="M81.1587 81.5739L97.2734 70.2951L97.6049 70.0592C100.212 68.2985 103.722 68.1638 106.525 69.9903L53.6525 35.5327L31.7098 69.202L81.3221 101.535C86.8601 105.144 94.2806 103.579 97.8898 98.0412C101.499 92.5034 99.9342 85.0827 94.3962 81.4735C90.2363 78.7625 85.0275 78.9684 81.1587 81.5739Z" fill="white" stroke="#A4A4A4" stroke-linecap="round" stroke-linejoin="round"/>
<path d="M81.1586 81.574L80.9706 81.7034" stroke="#A4A4A4" stroke-linecap="round" stroke-linejoin="round"/>
<path d="M72.5027 82.7432C78.5452 82.7432 83.4436 77.8448 83.4436 71.8023C83.4436 65.7598 78.5452 60.8613 72.5027 60.8613C66.4602 60.8613 61.5618 65.7598 61.5618 71.8023C61.5618 77.8448 66.4602 82.7432 72.5027 82.7432Z" fill="#D1D1D1" stroke="#A4A4A4" stroke-linecap="round" stroke-linejoin="round"/>
<path d="M37.2219 72.7944C39.2076 69.7474 38.3492 65.6763 35.3021 63.6904L31.71 69.2023L37.2219 72.7944Z" fill="#A4A4A4" stroke="#A4A4A4" stroke-linecap="round" stroke-linejoin="round"/>
<path d="M59.1645 39.1248L53.6526 35.5327L50.0604 41.0446C53.1076 43.0305 57.1786 42.172 59.1645 39.1248Z" fill="#A4A4A4" stroke="#A4A4A4" stroke-linecap="round" stroke-linejoin="round"/>
<path d="M66.5488 68.8291L69.4868 71.7637L66.5488 68.8291Z" fill="#D1D1D1"/>
<path d="M66.5488 68.8291L69.4868 71.7637" stroke="#A4A4A4" stroke-linecap="round" stroke-linejoin="round"/>
<path d="M69.4854 68.8274L66.5508 71.7654L69.4854 68.8274Z" fill="#D1D1D1"/>
<path d="M69.4854 68.8274L66.5508 71.7654" stroke="#A4A4A4" stroke-linecap="round" stroke-linejoin="round"/>
<path d="M75.5183 68.8239L78.4563 71.7584L75.5183 68.8239Z" fill="#D1D1D1"/>
<path d="M75.5183 68.8239L78.4563 71.7584" stroke="#A4A4A4" stroke-linecap="round" stroke-linejoin="round"/>
<path d="M78.4548 68.8222L75.5203 71.7602L78.4548 68.8222Z" fill="#D1D1D1"/>
<path d="M78.4548 68.8222L75.5203 71.7602" stroke="#A4A4A4" stroke-linecap="round" stroke-linejoin="round"/>
<path d="M68.3843 74.7828L75.9975 74.7784L68.3843 74.7828Z" fill="#D1D1D1"/>
<path d="M68.3843 74.7828L75.9975 74.7784" stroke="#A4A4A4" stroke-linecap="round" stroke-linejoin="round"/>
<path d="M36.0045 112.893C40.4635 112.893 44.0783 109.278 44.0783 104.819C44.0783 100.36 40.4635 96.7454 36.0045 96.7454C31.5455 96.7454 27.9308 100.36 27.9308 104.819C27.9308 109.278 31.5455 112.893 36.0045 112.893Z" fill="#EBEBEB" stroke="#A4A4A4" stroke-linecap="round" stroke-linejoin="round"/>
<path d="M35.0005 58.6963C41.397 58.6963 46.5824 53.511 46.5824 47.1145C46.5824 40.718 41.397 35.5327 35.0005 35.5327C28.6041 35.5327 23.4187 40.718 23.4187 47.1145C23.4187 53.511 28.6041 58.6963 35.0005 58.6963Z" fill="#EBEBEB" stroke="#A4A4A4" stroke-linecap="round" stroke-linejoin="round"/>
<path d="M120.001 110.079C124.844 110.079 128.769 106.153 128.769 101.311C128.769 96.4682 124.844 92.5425 120.001 92.5425C115.158 92.5425 111.233 96.4682 111.233 101.311C111.233 106.153 115.158 110.079 120.001 110.079Z" fill="#EBEBEB" stroke="#A4A4A4" stroke-linecap="round" stroke-linejoin="round"/>
<path d="M119.838 106.137C119.567 106.103 119.314 105.974 119.118 105.772C118.903 105.549 118.788 105.286 118.772 104.979C118.741 104.388 119.136 103.867 119.725 103.723C119.804 103.704 119.845 103.7 119.986 103.7C120.211 103.699 120.362 103.731 120.532 103.817C120.95 104.027 121.202 104.414 121.22 104.872C121.237 105.328 121.013 105.738 120.615 105.978C120.394 106.112 120.107 106.171 119.838 106.137ZM118.567 103.388C118.513 103.361 118.036 102.884 118.01 102.831C117.993 102.796 117.991 102.775 117.993 102.668C117.996 102.568 118 102.539 118.018 102.506C118.042 102.46 118.231 102.275 118.366 102.165C118.662 101.924 119.052 101.735 119.424 101.65C119.63 101.604 119.752 101.591 120.001 101.591C120.25 101.591 120.372 101.604 120.577 101.65C120.95 101.735 121.339 101.924 121.636 102.165C121.789 102.289 121.967 102.467 121.986 102.514C122.007 102.566 122.016 102.766 122 102.817C121.985 102.865 121.494 103.36 121.433 103.389C121.378 103.414 121.283 103.415 121.227 103.39C121.204 103.379 121.161 103.343 121.124 103.3C121.037 103.202 120.901 103.091 120.777 103.016C120.226 102.685 119.528 102.74 119.031 103.154C118.982 103.195 118.913 103.261 118.878 103.3C118.84 103.343 118.798 103.379 118.774 103.39C118.719 103.415 118.619 103.414 118.567 103.388ZM117.133 101.961C117.082 101.935 116.575 101.423 116.562 101.384C116.556 101.367 116.553 101.301 116.555 101.235C116.557 101.139 116.562 101.11 116.579 101.078C116.618 101.001 116.981 100.665 117.218 100.485C117.596 100.197 118.107 99.9309 118.565 99.783C119.594 99.4502 120.716 99.4857 121.711 99.8825C122.08 100.03 122.484 100.257 122.784 100.485C123.021 100.665 123.384 101.001 123.423 101.078C123.44 101.11 123.444 101.139 123.447 101.235C123.449 101.301 123.445 101.367 123.44 101.385C123.426 101.427 122.909 101.945 122.861 101.965C122.816 101.984 122.721 101.983 122.673 101.964C122.647 101.954 122.601 101.913 122.534 101.841C122.181 101.463 121.67 101.138 121.141 100.959C120.757 100.829 120.419 100.773 120.001 100.773C119.583 100.773 119.244 100.829 118.86 100.959C118.332 101.138 117.82 101.463 117.468 101.841C117.4 101.913 117.355 101.954 117.329 101.964C117.277 101.985 117.177 101.983 117.133 101.961ZM115.69 100.512C115.632 100.486 115.149 99.9963 115.134 99.949C115.127 99.928 115.124 99.8669 115.126 99.7962C115.128 99.7004 115.133 99.6712 115.15 99.6391C115.18 99.5808 115.492 99.2808 115.724 99.0864C116.68 98.2869 117.824 97.7746 119.045 97.6001C119.419 97.5467 119.521 97.5403 120.001 97.5403C120.48 97.5403 120.583 97.5467 120.957 97.6001C122.178 97.7746 123.322 98.2869 124.278 99.0864C124.51 99.2808 124.822 99.5808 124.852 99.6391C124.869 99.6712 124.873 99.7004 124.876 99.7962C124.878 99.8668 124.874 99.9279 124.868 99.949C124.852 99.9994 124.369 100.486 124.309 100.512C124.252 100.537 124.159 100.537 124.102 100.511C124.075 100.499 124.002 100.435 123.9 100.336C123.467 99.9128 123.041 99.6061 122.514 99.3392C121.862 99.009 121.216 98.8269 120.444 98.7556C120.156 98.729 119.639 98.7413 119.306 98.7826C118.671 98.8615 118.064 99.0474 117.488 99.3392C116.961 99.6061 116.535 99.9128 116.102 100.336C116 100.435 115.927 100.499 115.9 100.511C115.844 100.536 115.744 100.536 115.69 100.512Z" fill="#A4A4A4"/>
<path d="M35.0003 40.8822C31.6556 40.8822 28.9412 43.6741 28.9412 47.1145C28.9412 50.5548 31.6556 53.3468 35.0003 53.3468C38.3451 53.3468 41.0595 50.5548 41.0595 47.1145C41.0595 43.6741 38.3451 40.8822 35.0003 40.8822ZM37.4606 50.0522C37.358 50.0522 37.2945 50.0195 37.1992 49.9617C35.6747 49.0168 33.9009 48.9766 32.1491 49.346C32.0538 49.3712 31.9292 49.4114 31.8584 49.4114C31.6214 49.4114 31.4723 49.2179 31.4723 49.0143C31.4723 48.7555 31.6214 48.6323 31.8046 48.5921C33.8056 48.1373 35.8506 48.1775 37.595 49.2505C37.7441 49.3485 37.832 49.4365 37.832 49.6652C37.832 49.8939 37.6585 50.0522 37.4606 50.0522ZM38.1179 48.4036C37.9908 48.4036 37.9053 48.3458 37.8174 48.2981C36.2903 47.3683 34.0133 46.9938 31.9878 47.5593C31.8706 47.5919 31.8071 47.6246 31.6971 47.6246C31.4357 47.6246 31.2231 47.406 31.2231 47.1371C31.2231 46.8682 31.3502 46.6898 31.6018 46.6169C32.281 46.4209 32.9749 46.2751 33.9913 46.2751C35.5769 46.2751 37.1088 46.6797 38.3158 47.4185C38.5137 47.5392 38.5919 47.695 38.5919 47.9136C38.5894 48.185 38.3842 48.4036 38.1179 48.4036ZM38.8753 46.4887C38.7482 46.4887 38.67 46.456 38.5601 46.3907C36.8205 45.3227 33.7103 45.0663 31.6971 45.6443C31.6092 45.6695 31.4992 45.7097 31.3819 45.7097C31.0594 45.7097 30.8127 45.4508 30.8127 45.1166C30.8127 44.7824 31.0179 44.5813 31.2378 44.516C32.0978 44.2572 33.0604 44.134 34.1086 44.134C35.8921 44.134 37.7612 44.516 39.1269 45.3352C39.3175 45.4483 39.4421 45.6041 39.4421 45.9032C39.4421 46.245 39.1733 46.4887 38.8753 46.4887Z" fill="#A4A4A4"/>
<path d="M108.42 55.5745C116.482 55.5745 123.017 49.0389 123.017 40.9769C123.017 32.9149 116.482 26.3794 108.42 26.3794C100.358 26.3794 93.822 32.9149 93.822 40.9769C93.822 49.0389 100.358 55.5745 108.42 55.5745Z" fill="#EBEBEB" stroke="#A4A4A4" stroke-linecap="round" stroke-linejoin="round"/>
<path d="M116.28 37.0258C116.088 36.3171 115.535 35.7621 114.827 35.5725C113.875 35.205 104.653 35.0249 101.978 35.583C101.27 35.7747 100.715 36.3276 100.525 37.0364C100.095 38.9215 100.063 42.9971 100.536 44.9243C100.727 45.6331 101.28 46.1881 101.989 46.3776C103.874 46.8115 112.836 46.8726 114.837 46.3776C115.546 46.186 116.101 45.6331 116.29 44.9243C116.749 42.8707 116.781 39.0478 116.28 37.0258Z" fill="#A4A4A4"/>
<path d="M111.12 40.9751L106.823 38.5108V43.4394L111.12 40.9751Z" fill="white"/>
<path d="M23.5298 28.5837C23.5298 28.5837 17.5225 26.7941 15.7186 32.775C17.5224 26.7942 11.5273 24.9637 11.5273 24.9637C11.5273 24.9637 17.5348 26.7532 19.3386 20.7725C17.5348 26.7532 23.5298 28.5837 23.5298 28.5837Z" fill="white" stroke="#A4A4A4" stroke-linecap="round" stroke-linejoin="round"/>
<path d="M111.68 131.773C111.68 131.773 106.549 137.791 112.53 142.925C106.549 137.791 101.378 143.775 101.378 143.775C101.378 143.775 106.508 137.756 100.527 132.623C106.508 137.756 111.68 131.773 111.68 131.773Z" fill="white" stroke="#A4A4A4" stroke-linecap="round" stroke-linejoin="round"/>
</svg>
