<svg width="149" height="148" viewBox="0 0 149 148" fill="none" xmlns="http://www.w3.org/2000/svg">
<rect x="0.5" width="148" height="148" rx="74" fill="#F5F5F5"/>
<path d="M136.5 122.81C136.5 122.81 130.494 121.02 128.69 127C130.494 121.02 124.5 119.19 124.5 119.19C124.5 119.19 130.506 120.98 132.31 115C130.506 120.98 136.5 122.81 136.5 122.81Z" fill="white" stroke="#A4A4A4" stroke-linecap="round" stroke-linejoin="round"/>
<path d="M11.6499 41.0001C11.6499 41.0001 6.5205 47.0177 12.5 52.1499C6.52039 47.0176 1.35024 53 1.35024 53C1.35024 53 6.47961 46.9824 0.5 41.8501C6.47961 46.9824 11.6499 41.0001 11.6499 41.0001Z" fill="white" stroke="#A4A4A4" stroke-linecap="round" stroke-linejoin="round"/>
<path d="M41.2838 36.2745L25.0295 98.7656C24.1527 102.137 26.1747 105.58 29.5458 106.457L107.797 126.811C111.168 127.688 114.612 125.666 115.488 122.295L131.743 59.8034C132.62 56.4322 130.598 52.9885 127.226 52.1117L48.9755 31.7581C45.6044 30.8813 42.1607 32.9033 41.2838 36.2745Z" fill="#EBEBEB" stroke="#A4A4A4" stroke-linecap="round" stroke-linejoin="round"/>
<path d="M59.4192 24.5336C59.4317 25.266 59.3444 26.0362 59.1412 26.8172C58.6488 28.7228 57.5701 30.2364 56.3532 31.1238C55.7457 31.5694 55.1113 31.8593 54.5003 31.9984C53.8868 32.1368 53.3003 32.1336 52.7118 31.9819C51.3602 31.6304 49.9795 32.441 49.628 33.7926C49.2764 35.1443 50.0871 36.5249 51.4387 36.8765C52.8415 37.2428 54.2808 37.2376 55.6257 36.9291C57.6485 36.465 59.4591 35.3488 60.9067 33.8199C62.3548 32.2878 63.4528 30.3279 64.0356 28.0903C64.3537 26.8676 64.496 25.6413 64.4758 24.4477C64.4521 23.0513 63.3008 21.9386 61.9045 21.9623C60.5082 21.9861 59.3955 23.1372 59.4192 24.5336Z" fill="#A4A4A4"/>
<path d="M86.5203 31.9882C86.5003 32.5975 86.4116 33.2287 86.2455 33.8671C85.7531 35.7727 84.6744 37.2863 83.4576 38.1737C82.8501 38.6193 82.2157 38.9092 81.6047 39.0483C80.9912 39.1867 80.4047 39.1835 79.8162 39.0319C78.4647 38.6803 77.084 39.491 76.7324 40.8426C76.3808 42.1942 77.1915 43.5749 78.5431 43.9264C79.9459 44.2927 81.3852 44.2876 82.7301 43.979C84.7529 43.515 86.5636 42.3988 88.0112 40.8698C89.4592 39.3377 90.5573 37.3778 91.1401 35.1403C91.4001 34.1407 91.5426 33.1388 91.5751 32.1545C91.621 30.7587 90.5266 29.5899 89.1308 29.544C87.735 29.4981 86.5662 30.5923 86.5203 31.9882Z" fill="#A4A4A4"/>
<path d="M113.605 38.1565C113.673 39.0276 113.597 39.9646 113.349 40.9171C112.857 42.8227 111.778 44.3363 110.561 45.2237C109.954 45.6693 109.32 45.9592 108.709 46.0983C108.095 46.2367 107.509 46.2335 106.92 46.0819C105.569 45.7303 104.188 46.541 103.836 47.8926C103.485 49.2442 104.295 50.6249 105.647 50.9764C107.05 51.3427 108.489 51.3376 109.834 51.029C111.857 50.565 113.667 49.4488 115.115 47.9198C116.563 46.3877 117.661 44.4278 118.244 42.1903C118.632 40.6986 118.759 39.2022 118.647 37.7656C118.539 36.3732 117.323 35.3319 115.931 35.4399C114.538 35.5478 113.497 36.7641 113.605 38.1565Z" fill="#A4A4A4"/>
<path d="M125.123 50.4964L108.869 112.988C107.992 116.36 104.549 118.381 101.177 117.504L22.9217 97.1491C19.5541 96.2731 17.5329 92.8307 18.41 89.4585L34.6643 26.9674C35.5415 23.5952 38.9839 21.574 42.3514 22.4499L120.607 42.8047C123.979 43.6818 126 47.1243 125.123 50.4964Z" fill="white" stroke="#A4A4A4" stroke-linecap="round" stroke-linejoin="round"/>
<path d="M125.124 50.4965L122.401 60.9632L31.9423 37.4342L34.6647 26.9675C35.5418 23.5954 38.9842 21.5741 42.3518 22.45L120.607 42.8048C123.979 43.6819 126.001 47.1244 125.124 50.4965Z" fill="#D1D1D1" stroke="#A4A4A4" stroke-linecap="round" stroke-linejoin="round"/>
<path d="M52.712 31.9818C52.1242 31.8276 51.6104 31.5446 51.1422 31.1248C50.4439 30.4987 49.863 29.5383 49.562 28.3491C49.2598 27.1628 49.2417 25.7673 49.614 24.339C50.1064 22.4333 51.1851 20.9198 52.402 20.0323C53.0094 19.5868 53.6439 19.2968 54.2549 19.1577C54.8684 19.0194 55.4549 19.0225 56.0433 19.1742C56.5115 19.2966 56.9301 19.5011 57.3195 19.7902C57.9008 20.2225 58.4161 20.8582 58.7934 21.6725C59.1704 22.4845 59.4018 23.4679 59.4193 24.5334C59.443 25.9298 60.5943 27.0425 61.9906 27.0188C63.3869 26.9951 64.4998 25.8439 64.476 24.4475C64.4349 22.1337 63.7912 19.935 62.5819 18.1148C61.9768 17.2063 61.2266 16.3941 60.3401 15.734C59.4549 15.0739 58.4314 14.569 57.3164 14.2797C55.9136 13.9134 54.4743 13.9185 53.1294 14.2271C51.1066 14.6911 49.2959 15.8073 47.8483 17.3363C46.4003 18.8684 45.3022 20.8283 44.7194 23.0658C43.9464 26.0501 44.205 29.0482 45.3514 31.5627C45.9263 32.8187 46.7303 33.9568 47.7569 34.8822C48.781 35.8069 50.0354 36.5127 51.4388 36.8764C52.7904 37.2279 54.1711 36.4173 54.5227 35.0657C54.8742 33.7141 54.0636 32.3334 52.712 31.9818Z" fill="#A4A4A4"/>
<path d="M79.8158 39.0317C79.228 38.8774 78.7143 38.5945 78.246 38.1746C77.5477 37.5486 76.9669 36.5882 76.6658 35.3989C76.3637 34.2126 76.3455 32.8171 76.7178 31.3888C77.2103 29.4832 78.289 27.9697 79.5058 27.0822C80.1133 26.6366 80.7477 26.3467 81.3587 26.2076C81.9722 26.0692 82.5587 26.0724 83.1472 26.2241C83.6372 26.3523 84.0735 26.5704 84.478 26.8816C85.0817 27.3466 85.6122 28.0366 85.9832 28.9167C86.3541 29.7943 86.5579 30.8528 86.52 31.9882C86.4741 33.384 87.5684 34.5527 88.9643 34.5986C90.3601 34.6445 91.5288 33.5501 91.5746 32.1543C91.6529 29.7096 91.0622 27.3677 89.8529 25.424C89.2476 24.4538 88.4832 23.5845 87.5682 22.8781C86.6546 22.1719 85.5879 21.6325 84.4203 21.3296C83.0175 20.9633 81.5782 20.9685 80.2333 21.277C78.2105 21.7411 76.3998 22.8572 74.9522 24.3862C73.5041 25.9183 72.4061 27.8782 71.8233 30.1158C71.0503 33.1 71.3089 36.0981 72.4553 38.6126C73.0302 39.8686 73.8341 41.0067 74.8608 41.9321C75.8849 42.8569 77.1392 43.5627 78.5427 43.9263C79.8943 44.2779 81.275 43.4672 81.6265 42.1156C81.9781 40.764 81.1674 39.3833 79.8158 39.0317Z" fill="#A4A4A4"/>
<path d="M106.92 46.0818C106.332 45.9275 105.819 45.6445 105.35 45.2247C104.652 44.5987 104.071 43.6382 103.77 42.449C103.468 41.2627 103.45 39.8672 103.822 38.4389C104.315 36.5333 105.393 35.0197 106.61 34.1323C107.218 33.6867 107.852 33.3968 108.463 33.2577C109.077 33.1193 109.663 33.1225 110.252 33.2742C110.693 33.3896 111.091 33.5783 111.461 33.8419C112.015 34.2361 112.511 34.8095 112.891 35.5468C113.271 36.2822 113.53 37.1763 113.605 38.1564C113.713 39.5488 114.929 40.5901 116.322 40.4821C117.714 40.3741 118.755 39.1579 118.647 37.7655C118.479 35.6118 117.781 33.5836 116.579 31.9097C115.977 31.0742 115.247 30.3293 114.396 29.7233C113.547 29.1172 112.576 28.6526 111.525 28.3796C110.122 28.0134 108.683 28.0185 107.338 28.3271C105.315 28.7911 103.504 29.9073 102.057 31.4363C100.609 32.9684 99.5105 34.9283 98.9277 37.1658C98.1547 40.1501 98.4133 43.1482 99.5597 45.6626C100.135 46.9187 100.939 48.0567 101.965 48.9821C102.989 49.9069 104.244 50.6127 105.647 50.9763C106.999 51.3279 108.379 50.5172 108.731 49.1656C109.083 47.814 108.272 46.4333 106.92 46.0818Z" fill="#A4A4A4"/>
<path d="M73.6185 134.316L31.7831 123.325C31.6667 123.295 31.5589 123.259 31.4511 123.224C31.4424 123.229 31.4356 123.227 31.4305 123.218C31.2968 123.198 31.1666 123.163 31.0365 123.129C26.653 121.978 24.0371 117.498 25.1887 113.114C25.8868 110.457 27.8121 108.451 30.1986 107.533C31.7379 106.942 33.4777 106.813 35.2038 107.266L77.4868 112.399C72.1336 111.901 67.0617 115.321 65.6529 120.684C64.0875 126.643 67.6527 132.748 73.6185 134.316Z" fill="#D1D1D1" stroke="#A4A4A4" stroke-linecap="round" stroke-linejoin="round"/>
<path d="M97.9185 85.6512L87.2488 126.357C85.6834 132.316 79.5775 135.881 73.6186 134.316C67.6529 132.748 64.0876 126.642 65.653 120.684C67.0618 115.321 72.1337 111.901 77.4869 112.399L35.2039 107.266C33.4778 106.813 31.738 106.942 30.1987 107.533L39.9257 70.4166C40.7048 67.4508 43.7404 65.6783 46.6993 66.4556L93.9663 78.8726C96.932 79.6517 98.6977 82.6854 97.9185 85.6512Z" fill="#F5F5F5" stroke="#A4A4A4" stroke-linecap="round" stroke-linejoin="round"/>
<path d="M50.2076 78.8758L56.6733 89.8875" stroke="#A4A4A4" stroke-linecap="round" stroke-linejoin="round"/>
<path d="M58.9467 81.1487L47.9349 87.6145" stroke="#A4A4A4" stroke-linecap="round" stroke-linejoin="round"/>
<path d="M76.9031 85.8193L83.3688 96.831" stroke="#A4A4A4" stroke-linecap="round" stroke-linejoin="round"/>
<path d="M85.6416 88.0924L74.6299 94.5582" stroke="#A4A4A4" stroke-linecap="round" stroke-linejoin="round"/>
<path d="M51.0501 98.0164L73.7081 103.91" stroke="#A4A4A4" stroke-linecap="round" stroke-linejoin="round"/>
<path d="M64.4792 101.509L70.3254 103.03L69.4192 106.514C69.024 108.034 67.4694 108.946 65.9499 108.551L65.61 108.463C64.0905 108.067 63.1777 106.513 63.573 104.993L64.4792 101.509Z" fill="white" stroke="#A4A4A4" stroke-linecap="round" stroke-linejoin="round"/>
</svg>
