<svg width="148" height="148" viewBox="0 0 148 148" fill="none" xmlns="http://www.w3.org/2000/svg">
<rect width="148" height="148" rx="74" fill="#F5F5F5"/>
<path d="M28.3087 80.6795L25.1222 87.5955" stroke="#A4A4A4" stroke-linecap="round" stroke-linejoin="round"/>
<path d="M23.2576 82.5444L30.1736 85.7309" stroke="#A4A4A4" stroke-linecap="round" stroke-linejoin="round"/>
<path d="M126 43.8097C126 43.8097 119.994 42.0204 118.19 48.0001C119.994 42.0205 114 40.1905 114 40.1905C114 40.1905 120.006 41.9796 121.81 36.0001C120.006 41.9796 126 43.8097 126 43.8097Z" fill="white" stroke="#A4A4A4" stroke-linecap="round" stroke-linejoin="round"/>
<path d="M53.6582 83.7198C70.5735 86.6016 86.628 75.1913 89.517 58.2341C92.4059 41.277 81.0352 25.1944 64.1199 22.3126C47.2045 19.4308 31.15 30.8411 28.2611 47.7982C25.3722 64.7553 36.7428 80.8379 53.6582 83.7198Z" fill="white" stroke="#A4A4A4" stroke-linecap="round" stroke-linejoin="round"/>
<path d="M52.3193 93.0512C50.9438 92.7615 49.4381 93.5168 48.4825 94.5478C47.5269 95.5789 47.162 97.1232 47.5552 98.4727C48.5 101.715 53.1493 103.188 53.2595 106.563C53.3311 108.761 51.3577 110.437 49.4781 111.579C47.5984 112.72 45.4524 113.888 44.7629 115.976C44.2378 117.567 44.721 119.332 45.5319 120.798C46.3427 122.263 47.4645 123.533 48.3526 124.953" stroke="#A4A4A4" stroke-linecap="round" stroke-linejoin="round"/>
<path d="M53.6581 83.7175L46.3104 91.9846L57.2587 93.8498L53.6581 83.7175Z" fill="white" stroke="#A4A4A4" stroke-linecap="round" stroke-linejoin="round"/>
<path d="M45.0112 44.5939L51.1045 53.1791" stroke="#A4A4A4" stroke-linecap="round" stroke-linejoin="round"/>
<path d="M52.3509 45.8415L43.7657 51.9347" stroke="#A4A4A4" stroke-linecap="round" stroke-linejoin="round"/>
<path d="M67.4316 48.4004L73.5249 56.9855" stroke="#A4A4A4" stroke-linecap="round" stroke-linejoin="round"/>
<path d="M74.7706 49.6479L66.1854 55.7412" stroke="#A4A4A4" stroke-linecap="round" stroke-linejoin="round"/>
<path d="M47.0634 60.2558L66.0926 63.4864" stroke="#A4A4A4" stroke-linecap="round" stroke-linejoin="round"/>
<path d="M118.781 94.0025C111.749 94.0025 106.048 88.3041 106.048 81.2749C106.048 74.2456 111.749 68.5472 118.781 68.5472C125.812 68.5472 131.513 74.2456 131.513 81.2749C131.513 88.3041 125.812 94.0025 118.781 94.0025Z" stroke="#A4A4A4" stroke-linecap="round" stroke-linejoin="round"/>
<path d="M118.781 68.5473V94.0025" stroke="#A4A4A4" stroke-linecap="round" stroke-linejoin="round"/>
<path d="M131.513 81.2749H106.048" stroke="#A4A4A4" stroke-linecap="round" stroke-linejoin="round"/>
<path d="M109.778 72.2751L127.784 90.2747" stroke="#A4A4A4" stroke-linecap="round" stroke-linejoin="round"/>
<path d="M127.784 72.2751L109.778 90.2747" stroke="#A4A4A4" stroke-linecap="round" stroke-linejoin="round"/>
<path d="M66.5699 81.3835L77.5857 92.3951L77.9534 92.1343C79.4472 91.0439 81.2142 90.4868 82.981 90.4868C84.736 90.4868 86.4909 91.0321 87.9731 92.1106C90.807 94.1613 94.6133 94.2681 97.5661 92.3833L98.977 91.4824C101.835 89.6572 105.499 89.7044 108.321 91.5892L108.404 91.6485L118.779 81.2767L106.044 81.3004L66.5699 81.3835Z" fill="white" stroke="#A4A4A4" stroke-linecap="round" stroke-linejoin="round"/>
<path d="M100.071 92.3524L77.3528 70.4221H67.0712" stroke="#A4A4A4" stroke-linecap="round" stroke-linejoin="round"/>
<path d="M92.676 107.427V131.929" stroke="#A4A4A4" stroke-linecap="round" stroke-linejoin="round"/>
<path d="M82.1478 131.93H103.205" stroke="#A4A4A4" stroke-linecap="round" stroke-linejoin="round"/>
<path d="M77.5858 92.3951L92.6211 107.425L108.404 91.6485L108.321 91.5892C105.499 89.7044 101.835 89.6572 98.977 91.4824L97.566 92.3833C94.6132 94.2681 90.8069 94.1613 87.9731 92.1107C86.4909 91.0321 84.7359 90.4869 82.981 90.4869C81.2142 90.4869 79.4472 91.044 77.9533 92.1344L77.5858 92.3951Z" fill="#D1D1D1" stroke="#A4A4A4" stroke-linecap="round" stroke-linejoin="round"/>
</svg>
