<svg width="148" height="151" viewBox="0 0 148 151" fill="none" xmlns="http://www.w3.org/2000/svg">
<rect y="1.72745" width="148" height="148" rx="74" fill="#F5F5F5"/>
<path d="M123.452 52.6709L57.5746 35.0192C53.5765 33.9479 49.4669 36.3206 48.3956 40.3188L35.8768 87.0394C34.8055 91.0375 37.1782 95.1472 41.1764 96.2185L107.053 113.87C111.051 114.941 115.161 112.569 116.232 108.571L128.751 61.85C129.822 57.8518 127.45 53.7422 123.452 52.6709Z" fill="#D1D1D1" stroke="#A4A4A4" stroke-linecap="round" stroke-linejoin="round"/>
<path d="M116.749 41.3535L50.872 23.7018C46.8738 22.6305 42.7642 25.0032 41.6929 29.0013L29.1742 75.722C28.1029 79.7201 30.4756 83.8297 34.4737 84.901L100.351 102.553C104.349 103.624 108.458 101.251 109.53 97.2532L122.049 50.5326C123.12 46.5344 120.747 42.4248 116.749 41.3535Z" fill="white" stroke="#A4A4A4" stroke-linecap="round" stroke-linejoin="round"/>
<path d="M40.5287 33.3467L120.884 54.878" stroke="#A4A4A4" stroke-linecap="round" stroke-linejoin="round"/>
<path d="M48.678 31.8143C49.7067 32.0899 50.7641 31.4794 51.0397 30.4507C51.3154 29.4219 50.7049 28.3645 49.6762 28.0889C48.6474 27.8132 47.59 28.4237 47.3144 29.4525C47.0387 30.4812 47.6492 31.5386 48.678 31.8143Z" fill="#A4A4A4"/>
<path d="M55.348 33.6015C56.3767 33.8772 57.4341 33.2667 57.7098 32.2379C57.9854 31.2092 57.3749 30.1518 56.3462 29.8762C55.3175 29.6005 54.2601 30.211 53.9844 31.2397C53.7088 32.2685 54.3193 33.3259 55.348 33.6015Z" fill="#A4A4A4"/>
<path d="M62.0185 35.3889C63.0473 35.6646 64.1047 35.0541 64.3803 34.0254C64.656 32.9966 64.0455 31.9392 63.0167 31.6636C61.988 31.3879 60.9306 31.9984 60.6549 33.0271C60.3793 34.0559 60.9898 35.1133 62.0185 35.3889Z" fill="#A4A4A4"/>
<path d="M123.805 100.117L92.1777 91.6422C90.189 91.1093 88.1448 92.2895 87.6119 94.2782L83.2491 110.56C82.7163 112.549 83.8965 114.593 85.8852 115.126L117.512 123.601C119.501 124.133 121.545 122.953 122.078 120.965L126.441 104.682C126.974 102.694 125.794 100.65 123.805 100.117Z" fill="white" stroke="#A4A4A4" stroke-linecap="round" stroke-linejoin="round"/>
<path d="M92.7841 102.304C94.2245 102.69 95.705 101.835 96.0909 100.395C96.4768 98.9546 95.6221 97.4741 94.1817 97.0881C92.7414 96.7022 91.2609 97.5569 90.8749 98.9973C90.489 100.438 91.3437 101.918 92.7841 102.304Z" fill="#EBEBEB"/>
<path d="M113.619 103.415L100.43 99.8811L99.723 102.519L112.912 106.053L113.619 103.415Z" fill="#EBEBEB"/>
<path d="M120.564 104.958L118.373 104.371C117.716 104.195 117.04 104.585 116.864 105.242L116.636 106.093C116.459 106.75 116.85 107.426 117.507 107.602L119.698 108.189C120.355 108.365 121.031 107.975 121.207 107.318L121.435 106.467C121.611 105.81 121.221 105.134 120.564 104.958Z" fill="#EBEBEB"/>
<path d="M90.3444 111.411C91.7848 111.797 93.2653 110.942 93.6512 109.502C94.0371 108.061 93.1824 106.581 91.742 106.195C90.3017 105.809 88.8212 106.664 88.4352 108.104C88.0493 109.544 88.9041 111.025 90.3444 111.411Z" fill="#EBEBEB"/>
<path d="M111.18 112.522L97.9904 108.988L97.2835 111.626L110.473 115.16L111.18 112.522Z" fill="#EBEBEB"/>
<path d="M118.124 114.065L115.933 113.478C115.276 113.301 114.6 113.692 114.424 114.349L114.196 115.2C114.02 115.857 114.41 116.533 115.067 116.709L117.258 117.296C117.915 117.472 118.591 117.082 118.767 116.425L118.995 115.574C119.171 114.916 118.781 114.241 118.124 114.065Z" fill="#EBEBEB"/>
<path d="M52.3525 46.2865L49.3822 45.4906L45.0765 61.5596L48.0468 62.3555L52.3525 46.2865Z" fill="#EBEBEB"/>
<path d="M104.71 60.3157L101.74 59.5198L97.4342 75.5888L100.405 76.3847L104.71 60.3157Z" fill="#EBEBEB"/>
<path d="M73.2956 51.8982L70.3253 51.1023L66.0196 67.1713L68.99 67.9672L73.2956 51.8982Z" fill="#EBEBEB"/>
<path d="M94.2389 57.5099L91.2686 56.7141L84.4734 82.0739L87.4437 82.8698L94.2389 57.5099Z" fill="#EBEBEB"/>
<path d="M62.8238 49.0923L59.8535 48.2964L55.5478 64.3654L58.5182 65.1613L62.8238 49.0923Z" fill="#EBEBEB"/>
<path d="M83.7672 54.704L80.7969 53.9081L76.4912 69.9771L79.4615 70.773L83.7672 54.704Z" fill="#EBEBEB"/>
<path d="M50.5038 53.1887L47.5334 52.3928L41.6811 74.2339L44.6515 75.0298L50.5038 53.1887Z" fill="#EBEBEB"/>
<path d="M102.861 67.2179L99.891 66.422L94.0387 88.2631L97.009 89.059L102.861 67.2179Z" fill="#D1D1D1"/>
<path d="M70.4241 62.6172L67.4537 61.8213L62.6241 79.8456L65.5945 80.6415L70.4241 62.6172Z" fill="#EBEBEB"/>
<path d="M89.2064 76.2913L86.2361 75.4955L83.5669 85.4571L86.5372 86.253L89.2064 76.2913Z" fill="#EBEBEB"/>
<path d="M58.9386 63.5954L55.9683 62.7995L52.1526 77.0398L55.1229 77.8357L58.9386 63.5954Z" fill="#D1D1D1"/>
<path d="M79.8817 69.2071L76.9114 68.4112L73.0957 82.6515L76.066 83.4474L79.8817 69.2071Z" fill="#D1D1D1"/>
<path d="M49.0195 52.7906L57.4544 63.1973L68.9443 62.2027L78.3975 68.809L87.7226 75.8935L101.377 66.8198" stroke="#A4A4A4" stroke-linecap="round" stroke-linejoin="round"/>
<path d="M103.389 65.0179L99.5388 65.0179C99.1075 65.0179 98.838 65.4848 99.0536 65.8583L100.979 69.1925C101.194 69.566 101.733 69.566 101.949 69.1925L103.874 65.8583C104.09 65.4848 103.82 65.0179 103.389 65.0179Z" fill="#A4A4A4"/>
<path d="M58.6572 81.6522L26.2409 72.9662C24.4155 72.4771 22.5392 73.5604 22.05 75.3858L15.4227 100.119C14.9336 101.945 16.0168 103.821 17.8423 104.31L50.2586 112.996C52.084 113.485 53.9604 112.402 54.4495 110.577L61.0768 85.8431C61.566 84.0176 60.4827 82.1413 58.6572 81.6522Z" fill="#EBEBEB" stroke="#A4A4A4" stroke-linecap="round" stroke-linejoin="round"/>
<path d="M26.7206 82.7676L31.5308 91.0879" stroke="#A4A4A4" stroke-linecap="round" stroke-linejoin="round"/>
<path d="M33.2865 84.5224L24.9662 89.3327" stroke="#A4A4A4" stroke-linecap="round" stroke-linejoin="round"/>
<path d="M46.776 88.1292L51.5863 96.4494" stroke="#A4A4A4" stroke-linecap="round" stroke-linejoin="round"/>
<path d="M53.3419 89.8845L45.0216 94.6947" stroke="#A4A4A4" stroke-linecap="round" stroke-linejoin="round"/>
<path d="M27.2572 97.1769L44.2799 101.728" stroke="#A4A4A4" stroke-linecap="round" stroke-linejoin="round"/>
<path d="M111.638 0.500009C111.638 0.500009 106.266 6.80236 112.529 12.1775C106.266 6.80225 100.851 13.0678 100.851 13.0678C100.851 13.0678 106.224 6.76548 99.9609 1.39027C106.224 6.76548 111.638 0.500009 111.638 0.500009Z" fill="white" stroke="#A4A4A4" stroke-linecap="round" stroke-linejoin="round"/>
<path d="M52.5017 141.155C52.5017 141.155 44.2466 141.812 44.8741 150.041C44.2466 141.812 35.9873 142.414 35.9873 142.414C35.9873 142.414 44.2424 141.756 43.6149 133.527C44.2424 141.756 52.5017 141.155 52.5017 141.155Z" fill="white" stroke="#A4A4A4" stroke-linecap="round" stroke-linejoin="round"/>
</svg>
