<svg width="148" height="151" viewBox="0 0 148 151" fill="none" xmlns="http://www.w3.org/2000/svg">
<rect y="2.72766" width="148" height="148" rx="74" fill="#F5F5F5"/>
<path d="M126.025 82.543V112.066C126.025 115.531 123.219 118.331 119.76 118.331H67.7457C64.2866 118.331 61.4808 115.531 61.4808 112.066V71.5912C61.4808 71.4463 61.4869 71.3072 61.493 71.1681C61.6804 74.0163 64.0509 76.2778 66.9536 76.2778H119.76C123.219 76.2778 126.025 79.0779 126.025 82.543Z" fill="#D1D1D1" stroke="#A4A4A4" stroke-linecap="round" stroke-linejoin="round"/>
<path d="M118.038 82.543V112.066C118.038 115.531 115.232 118.331 111.773 118.331H59.7581C56.2991 118.331 53.4933 115.531 53.4933 112.066V71.5912C53.4933 71.4463 53.4993 71.3072 53.5054 71.1681C53.6929 74.0163 56.0634 76.2778 58.966 76.2778H111.773C115.232 76.2778 118.038 79.0779 118.038 82.543Z" fill="white" stroke="#A4A4A4" stroke-linecap="round" stroke-linejoin="round"/>
<path d="M118.83 93.0107H106.55C105.116 93.0107 103.953 94.1732 103.953 95.6071V100.921C103.953 102.355 105.116 103.517 106.55 103.517H118.83C120.264 103.517 121.427 102.355 121.427 100.921V95.6071C121.427 94.1732 120.264 93.0107 118.83 93.0107Z" fill="#EBEBEB" stroke="#A4A4A4" stroke-linecap="round" stroke-linejoin="round"/>
<path d="M109.252 100.505C110.489 100.505 111.493 99.5015 111.493 98.264C111.493 97.0266 110.489 96.0234 109.252 96.0234C108.015 96.0234 107.011 97.0266 107.011 98.264C107.011 99.5015 108.015 100.505 109.252 100.505Z" fill="#A4A4A4" stroke="#A4A4A4" stroke-linecap="round" stroke-linejoin="round"/>
<path d="M91.5146 30.4524H49.7952C46.8462 30.4524 44.4556 32.843 44.4556 35.792V112.866C44.4556 115.815 46.8462 118.206 49.7952 118.206H91.5146C94.4636 118.206 96.8542 115.815 96.8542 112.866V35.792C96.8542 32.843 94.4636 30.4524 91.5146 30.4524Z" fill="#D1D1D1" stroke="#A4A4A4" stroke-linecap="round" stroke-linejoin="round"/>
<path d="M85.089 30.4524H43.3696C40.4207 30.4524 38.03 32.843 38.03 35.792V112.866C38.03 115.815 40.4207 118.206 43.3696 118.206H85.089C88.038 118.206 90.4286 115.815 90.4286 112.866V35.792C90.4286 32.843 88.038 30.4524 85.089 30.4524Z" fill="white" stroke="#A4A4A4" stroke-linecap="round" stroke-linejoin="round"/>
<path d="M52.2495 30.4524H76.7249V32.5223C76.7249 34.2954 75.2853 35.735 73.5122 35.735H55.462C53.6889 35.735 52.2494 34.2954 52.2494 32.5223L52.2495 30.4524Z" fill="#A4A4A4" stroke="#A4A4A4" stroke-linecap="round" stroke-linejoin="round"/>
<path d="M40.9639 123.003C51.1549 123.003 59.4163 114.741 59.4163 104.55C59.4163 94.3593 51.1549 86.0979 40.9639 86.0979C30.7729 86.0979 22.5115 94.3593 22.5115 104.55C22.5115 114.741 30.7729 123.003 40.9639 123.003Z" fill="#F5F5F5" stroke="#A4A4A4" stroke-linecap="round" stroke-linejoin="round"/>
<path d="M102.59 66.895C109.608 66.895 115.298 61.2055 115.298 54.1871C115.298 47.1687 109.608 41.4791 102.59 41.4791C95.5713 41.4791 89.8817 47.1687 89.8817 54.1871C89.8817 61.2055 95.5713 66.895 102.59 66.895Z" fill="white" stroke="#A4A4A4" stroke-linecap="round" stroke-linejoin="round"/>
<path d="M99.8496 49.6668C99.8496 48.1535 101.076 46.9268 102.59 46.9268C104.103 46.9268 105.33 48.1535 105.33 49.6668" stroke="#A4A4A4" stroke-linecap="round" stroke-linejoin="round"/>
<path d="M105.972 59.3209H99.2067C98.0958 59.3209 97.2675 58.2877 97.3541 57.0507L97.8262 51.443C97.8957 50.4504 98.7251 49.6667 99.6805 49.6667H105.499C106.454 49.6667 107.284 50.4504 107.353 51.443L107.825 57.0507C107.912 58.2877 107.083 59.3209 105.972 59.3209Z" stroke="#A4A4A4" stroke-linecap="round" stroke-linejoin="round"/>
<path d="M50.8446 105.271H47.6806V113.992H34.2394V105.271H31.0822L34.5306 101.64V95.9492H37.6606V98.3473L40.96 94.8719L50.8446 105.271Z" stroke="#A4A4A4" stroke-linecap="round" stroke-linejoin="round"/>
<path d="M42.2349 108.201H39.6921C39.2932 108.201 38.9697 108.525 38.9697 108.924V113.507C38.9697 113.906 39.2932 114.23 39.6921 114.23H42.2349C42.6339 114.23 42.9573 113.906 42.9573 113.507V108.924C42.9573 108.525 42.6339 108.201 42.2349 108.201Z" fill="#A4A4A4"/>
<path d="M37.6606 98.3472L34.5306 101.64" stroke="#A4A4A4" stroke-linecap="round" stroke-linejoin="round"/>
<path d="M33.7915 59.1665C40.0214 59.1665 45.0718 54.1161 45.0718 47.8862C45.0718 41.6563 40.0214 36.6059 33.7915 36.6059C27.5616 36.6059 22.5112 41.6563 22.5112 47.8862C22.5112 54.1161 27.5616 59.1665 33.7915 59.1665Z" fill="#F5F5F5" stroke="#A4A4A4" stroke-linecap="round" stroke-linejoin="round"/>
<path d="M35.951 52.7894H31.6321C30.5992 52.7894 29.7031 52.0763 29.4713 51.0698L28.4043 46.4387H39.1789L38.1119 51.0698C37.88 52.0763 36.9838 52.7894 35.951 52.7894Z" stroke="#A4A4A4" stroke-linecap="round" stroke-linejoin="round"/>
<path d="M40.8639 46.4387H26.7191" stroke="#A4A4A4" stroke-linecap="round" stroke-linejoin="round"/>
<path d="M29.5615 46.4386L32.8186 42.9828" stroke="#A4A4A4" stroke-linecap="round" stroke-linejoin="round"/>
<path d="M38.0212 46.4386L34.7642 42.9828" stroke="#A4A4A4" stroke-linecap="round" stroke-linejoin="round"/>
<path d="M46.5682 78.9429L54.2732 71.2378L58.6632 75.6279L63.0533 71.2378H68.6078L72.9979 75.6279L78.9109 69.7149H82.405" stroke="#A4A4A4" stroke-linecap="round" stroke-linejoin="round"/>
<path d="M83.1343 8.31139C83.1343 8.31139 77.127 6.52175 75.3231 12.5026C77.1269 6.52183 71.1318 4.6914 71.1318 4.6914C71.1318 4.6914 77.1393 6.48091 78.9431 0.500122C77.1393 6.48091 83.1343 8.31139 83.1343 8.31139Z" fill="white" stroke="#A4A4A4" stroke-linecap="round" stroke-linejoin="round"/>
<path d="M81.284 133.5C81.284 133.5 76.1536 139.519 82.1343 144.652C76.1535 139.519 70.9823 145.503 70.9823 145.503C70.9823 145.503 76.1127 139.484 70.1318 134.35C76.1127 139.484 81.284 133.5 81.284 133.5Z" fill="white" stroke="#A4A4A4" stroke-linecap="round" stroke-linejoin="round"/>
</svg>
