<svg width="148" height="150" viewBox="0 0 148 150" fill="none" xmlns="http://www.w3.org/2000/svg">
<rect y="0.727661" width="148" height="148" rx="74" fill="#F5F5F5"/>
<path d="M105.645 106.977V41.9989C105.645 38.2535 102.609 35.2173 98.8637 35.2173H49.8755C43.3688 35.2173 38.094 40.4921 38.094 46.9988V106.977" fill="white"/>
<path d="M105.645 106.977V41.9989C105.645 38.2535 102.609 35.2173 98.8637 35.2173H49.8755C43.3688 35.2173 38.094 40.4921 38.094 46.9988V106.977" stroke="#A4A4A4" stroke-linecap="round" stroke-linejoin="round"/>
<path d="M38.094 106.977L43.2867 111.668C46.4122 114.491 51.083 114.755 54.5066 112.302L54.8938 112.024C58.1679 109.678 62.6056 109.806 65.7388 112.338L66.106 112.634C69.4502 115.336 74.2429 115.281 77.5234 112.501L77.6008 112.436C80.8738 109.662 85.6537 109.6 88.9981 112.286C92.5479 115.138 97.6722 114.872 100.908 111.668L105.645 106.977" fill="white"/>
<path d="M38.094 106.977L43.2867 111.668C46.4122 114.491 51.083 114.755 54.5066 112.302L54.8938 112.024C58.1679 109.678 62.6057 109.806 65.7388 112.338L66.106 112.634C69.4502 115.336 74.2429 115.281 77.5234 112.501L77.6008 112.436C80.8738 109.662 85.6537 109.6 88.9981 112.286C92.5479 115.138 97.6722 114.872 100.908 111.668L105.645 106.977" stroke="#A4A4A4" stroke-linecap="round" stroke-linejoin="round"/>
<path d="M50.7539 35.2173H103.159C107.167 35.2173 110.413 38.4641 110.413 42.4717C110.413 45.9577 107.957 48.8712 104.681 49.567L104.268 49.6396L104.224 49.6468L53.9066 60.0177C59.3421 58.619 63.3571 53.6837 63.3571 47.8132C63.3571 40.8556 57.7115 35.2173 50.7539 35.2173Z" fill="#EBEBEB" stroke="#A4A4A4" stroke-linecap="round" stroke-linejoin="round"/>
<path d="M61.3667 78.8391H54.0771V93.0711H61.3667V78.8391Z" fill="#EBEBEB" stroke="#A4A4A4" stroke-linecap="round" stroke-linejoin="round"/>
<path d="M89.6611 75.7092H82.3716V93.0713H89.6611V75.7092Z" fill="#EBEBEB" stroke="#A4A4A4" stroke-linecap="round" stroke-linejoin="round"/>
<path d="M75.5139 84.2191H68.2244V93.0712H75.5139V84.2191Z" fill="#D1D1D1" stroke="#A4A4A4" stroke-linecap="round" stroke-linejoin="round"/>
<path d="M59.6415 69.7222L71.8694 78.8395L85.7462 66.6562" fill="white"/>
<path d="M59.6415 69.7222L71.8694 78.8395L85.7462 66.6562" stroke="#A4A4A4" stroke-linecap="round" stroke-linejoin="round"/>
<path d="M89.5497 63.0315L81.7286 65.1272L87.4541 70.8526L89.5497 63.0315Z" fill="#A4A4A4" stroke="#A4A4A4" stroke-linecap="round" stroke-linejoin="round"/>
<rect x="101.872" y="52.9382" width="33.6451" height="20.187" rx="10.0935" fill="#EBEBEB" stroke="#A4A4A4" stroke-linecap="round" stroke-linejoin="round"/>
<path fill-rule="evenodd" clip-rule="evenodd" d="M106.962 63.0318C106.962 62.6576 107.266 62.3543 107.64 62.3543H116.241C116.615 62.3543 116.919 62.6576 116.919 63.0318C116.919 63.406 116.615 63.7093 116.241 63.7093H107.64C107.266 63.7093 106.962 63.406 106.962 63.0318Z" fill="#A4A4A4"/>
<ellipse cx="125.47" cy="63.0318" rx="4.95681" ry="4.95681" fill="white"/>
<rect x="21.2705" y="100.707" width="33.6451" height="20.187" rx="10.0935" fill="#D1D1D1" stroke="#A4A4A4" stroke-linecap="round" stroke-linejoin="round"/>
<path fill-rule="evenodd" clip-rule="evenodd" d="M26.3605 110.8C26.3605 110.426 26.6638 110.123 27.038 110.123H35.6395C36.0137 110.123 36.317 110.426 36.317 110.8C36.317 111.174 36.0137 111.478 35.6395 111.478H27.038C26.6638 111.478 26.3605 111.174 26.3605 110.8Z" fill="#A4A4A4"/>
<path fill-rule="evenodd" clip-rule="evenodd" d="M31.3384 105.822C31.7125 105.822 32.0159 106.125 32.0159 106.499L32.0159 115.101C32.0159 115.475 31.7125 115.778 31.3384 115.778C30.9642 115.778 30.6609 115.475 30.6609 115.101L30.6609 106.499C30.6609 106.125 30.9642 105.822 31.3384 105.822Z" fill="#A4A4A4"/>
<ellipse cx="44.8683" cy="110.8" rx="4.95681" ry="4.95681" fill="white"/>
<path d="M66.813 8.31139C66.813 8.31139 60.8057 6.52175 59.0018 12.5026C60.8056 6.52183 54.8105 4.6914 54.8105 4.6914C54.8105 4.6914 60.818 6.48091 62.6218 0.500122C60.818 6.48091 66.813 8.31139 66.813 8.31139Z" fill="white" stroke="#A4A4A4" stroke-linecap="round" stroke-linejoin="round"/>
<path d="M86.9627 137.5C86.9627 137.5 81.8323 143.519 87.813 148.652C81.8322 143.519 76.661 149.503 76.661 149.503C76.661 149.503 81.7914 143.484 75.8105 138.35C81.7914 143.484 86.9627 137.5 86.9627 137.5Z" fill="white" stroke="#A4A4A4" stroke-linecap="round" stroke-linejoin="round"/>
</svg>
