<svg width="148" height="148" viewBox="0 0 148 148" fill="none" xmlns="http://www.w3.org/2000/svg">
<rect width="148" height="148" rx="74" fill="#F5F5F5"/>
<path d="M22.9667 46.7901C22.9667 46.7901 16.9172 46.8107 16.9172 52.8395C16.9172 46.8107 10.8678 46.7901 10.8678 46.7901C10.8678 46.7901 16.9172 46.7695 16.9172 40.7407C16.9172 46.7695 22.9667 46.7901 22.9667 46.7901Z" fill="white" stroke="#A4A4A4" stroke-linecap="round" stroke-linejoin="round"/>
<path d="M141.237 95.4166C141.237 95.4166 135.187 95.4372 135.187 101.466C135.187 95.4372 129.138 95.4166 129.138 95.4166C129.138 95.4166 135.187 95.396 135.187 89.3671C135.187 95.396 141.237 95.4166 141.237 95.4166Z" fill="white" stroke="#A4A4A4" stroke-linecap="round" stroke-linejoin="round"/>
<rect x="57.6333" y="28.6484" width="65.9744" height="83.7857" rx="3.02661" transform="rotate(15.9553 57.6333 28.6484)" fill="#EBEBEB" stroke="#A4A4A4" stroke-miterlimit="10"/>
<path d="M115.52 42.6817L96.4991 109.21C94.8319 115.041 88.7576 118.414 82.9264 116.747L37.2955 103.701C33.2906 102.556 30.9755 98.3874 32.1205 94.3825L52.0867 24.5462C52.5502 22.9252 54.2385 21.9876 55.8595 22.4511L113.424 38.9089C115.045 39.3724 115.983 41.0607 115.52 42.6817Z" fill="white" stroke="#A4A4A4" stroke-miterlimit="10"/>
<path d="M82.9262 116.747L32.9593 102.438C29.5119 101.453 27.5141 97.8663 28.4997 94.4188C29.3743 91.36 32.3192 89.4408 35.3801 89.7526L35.5886 89.7725L86.7757 95.2346C81.6757 94.8398 76.8432 98.0602 75.3815 103.173C73.7144 109.004 77.0877 115.078 82.9262 116.747Z" fill="#D1D1D1" stroke="#A4A4A4" stroke-miterlimit="10"/>
<path d="M63.6994 37.4038L66.8011 42.9458L61.0622 46.1577C60.4769 46.4853 60.2681 47.2252 60.5956 47.8104C60.9231 48.3956 61.6631 48.6045 62.2483 48.277L69.0468 44.472C69.6321 44.1445 69.8409 43.4045 69.5134 42.8193L65.8186 36.2177C65.4911 35.6325 64.7512 35.4236 64.166 35.7511C63.5807 36.0786 63.3718 36.8186 63.6994 37.4038Z" fill="#A4A4A4"/>
<path d="M96.2002 44.7944L89.5985 48.4891C89.3195 48.6453 89.1098 48.9111 89.023 49.2188C88.9361 49.5266 88.9758 49.8627 89.132 50.1418L92.937 56.9403C93.2645 57.5256 94.0044 57.7344 94.5896 57.4069C95.1748 57.0794 95.3837 56.3394 95.0562 55.7542L91.8443 50.0153L97.3863 46.9136C97.9715 46.5861 98.1804 45.8462 97.8528 45.261C97.5253 44.6758 96.7854 44.4668 96.2002 44.7944Z" fill="#A4A4A4"/>
<path d="M66.7325 59.2314L83.4027 63.9377C84.0481 64.1199 84.719 63.7444 84.9012 63.099C85.0834 62.4536 84.708 61.7827 84.0626 61.6005L67.3923 56.8941C66.7469 56.7119 66.076 57.0874 65.8938 57.7328C65.7116 58.3782 66.0871 59.0492 66.7325 59.2314Z" fill="#A4A4A4"/>
<rect x="74.3537" y="77.1122" width="3.65196" height="10.0615" rx="1.51331" transform="rotate(15.9553 74.3537 77.1122)" fill="#EBEBEB"/>
<rect x="86.1314" y="77.9952" width="3.65196" height="12.4496" rx="1.51331" transform="rotate(15.9553 86.1314 77.9952)" fill="#EBEBEB"/>
<rect x="81.3795" y="73.578" width="3.65196" height="15.3903" rx="1.51331" transform="rotate(15.9553 81.3795 73.578)" fill="#EBEBEB"/>
<rect x="90.9669" y="84.42" width="3.65196" height="7.60192" rx="1.51331" transform="rotate(15.9553 90.9669 84.42)" fill="#EBEBEB"/>
<circle cx="57.1559" cy="75.2535" r="10.3301" transform="rotate(15.9553 57.1559 75.2535)" fill="white" stroke="#A4A4A4" stroke-miterlimit="10"/>
<path fill-rule="evenodd" clip-rule="evenodd" d="M48.6007 81.0429C49.7442 78.0971 52.8172 76.3619 55.9217 76.8914C54.4122 76.1053 53.6116 74.3421 54.0977 72.642C54.6531 70.6993 56.6782 69.5747 58.6208 70.1302C60.5635 70.6856 61.6881 72.7107 61.1327 74.6533C60.6467 76.3534 59.0351 77.427 57.3381 77.2964C60.2533 78.4879 61.9447 81.585 61.3585 84.6899C59.219 85.644 56.7449 85.8794 54.3164 85.1851C51.8881 84.4909 49.9125 82.9834 48.6007 81.0429Z" fill="#A4A4A4"/>
<path d="M55.9217 76.8914L55.8377 77.3843C56.0804 77.4257 56.3171 77.2842 56.3956 77.0509C56.4741 76.8175 56.371 76.5617 56.1527 76.448L55.9217 76.8914ZM48.6007 81.0429L48.1346 80.862C48.0753 81.0149 48.0946 81.1871 48.1865 81.3229L48.6007 81.0429ZM57.3381 77.2964L57.3765 76.7978C57.131 76.779 56.9083 76.9416 56.8516 77.1812C56.7949 77.4208 56.921 77.666 57.149 77.7592L57.3381 77.2964ZM61.3585 84.6899L61.5621 85.1465C61.7119 85.0797 61.8194 84.9438 61.8498 84.7826L61.3585 84.6899ZM56.0058 76.3985C52.6674 75.8292 49.3642 77.6943 48.1346 80.862L49.0668 81.2239C50.1241 78.4999 52.9669 76.8947 55.8377 77.3843L56.0058 76.3985ZM53.6169 72.5046C53.0643 74.4376 53.9748 76.4413 55.6908 77.3349L56.1527 76.448C54.8496 75.7694 54.1589 74.2466 54.5784 72.7795L53.6169 72.5046ZM58.7583 69.6494C56.5501 69.0181 54.2482 70.2964 53.6169 72.5046L54.5784 72.7795C55.0579 71.1023 56.8062 70.1314 58.4834 70.6109L58.7583 69.6494ZM61.6134 74.7908C62.2448 72.5826 60.9665 70.2807 58.7583 69.6494L58.4834 70.6109C60.1606 71.0904 61.1315 72.8387 60.652 74.5159L61.6134 74.7908ZM57.2998 77.7949C59.2288 77.9434 61.0608 76.7238 61.6134 74.7908L60.652 74.5159C60.2325 75.9831 58.8413 76.9106 57.3765 76.7978L57.2998 77.7949ZM61.8498 84.7826C62.4802 81.4438 60.662 78.1148 57.5273 76.8335L57.149 77.7592C59.8446 78.861 61.4092 81.7261 60.8672 84.5971L61.8498 84.7826ZM61.1548 84.2332C59.1187 85.1412 56.7652 85.3652 54.4538 84.7044L54.1789 85.6659C56.7246 86.3937 59.3193 86.1467 61.5621 85.1465L61.1548 84.2332ZM54.4538 84.7044C52.1427 84.0436 50.2634 82.6097 49.0149 80.7629L48.1865 81.3229C49.5616 83.3572 51.6335 84.9381 54.1789 85.6659L54.4538 84.7044Z" fill="#A4A4A4"/>
<path d="M108.865 52.1872L105.64 46.7395L100.022 49.6591L103.876 36.1788L112.719 38.707L108.865 52.1872Z" fill="#D1D1D1" stroke="#A4A4A4" stroke-linecap="round" stroke-linejoin="round"/>
</svg>
