<svg width="149" height="148" viewBox="0 0 149 148" fill="none" xmlns="http://www.w3.org/2000/svg">
<rect x="0.5" width="148" height="148" rx="74" fill="#F5F5F5"/>
<path d="M45.6752 28.0004C45.6193 28.481 45.6091 28.7514 45.6091 28.7514C45.7972 33.0343 55.3571 36.104 66.9664 35.6135C78.5664 35.1255 87.8289 31.2561 87.6371 26.979C87.6371 26.979 87.6347 26.9697 87.6394 26.9487C87.6461 26.0442 87.5017 7.51808 67.6173 6.74147C48.9449 6.01004 46.072 24.0554 45.6752 28.0004Z" fill="white" stroke="#A4A4A4" stroke-linecap="round" stroke-linejoin="round"/>
<path d="M66.992 35.665C78.5725 35.1826 87.8276 31.7264 87.6639 27.9455C87.5002 24.1646 77.9797 21.4906 66.3993 21.973C54.8188 22.4554 45.5637 25.9115 45.7274 29.6925C45.8911 33.4734 55.4116 36.1474 66.992 35.665Z" fill="#A4A4A4" stroke="#A4A4A4" stroke-linecap="round" stroke-linejoin="round"/>
<path d="M99.4876 34.8766C97.3693 33.4108 95.1161 32.0889 92.7394 30.9163C66.1769 17.8112 34.0019 28.6115 20.8722 55.0401C7.74251 81.4688 18.6312 113.515 45.1938 126.62C47.5705 127.793 49.9916 128.777 52.4455 129.567C77.3646 137.669 105.106 126.56 117.061 102.496C129.016 78.4324 121.061 49.7126 99.4876 34.8766ZM48.3573 120.252C43.6322 117.921 39.477 114.897 35.9603 111.367C22.3301 97.6881 18.2208 76.4034 27.2667 58.1949C36.3127 39.9864 55.7921 30.3328 74.969 32.8467C79.9179 33.4936 84.8507 34.9529 89.5759 37.2841C112.602 48.6442 122.045 76.4234 110.661 99.3387C99.2766 122.254 71.3831 131.613 48.3573 120.252Z" fill="white" stroke="#A4A4A4" stroke-linecap="round" stroke-linejoin="round"/>
<path d="M41.7326 114.212C44.5346 117.025 47.7361 119.516 51.3167 121.584C50.3211 121.177 49.3366 120.733 48.3576 120.25C43.6325 117.919 39.4773 114.894 35.9606 111.365C22.3304 97.6858 18.2211 76.4011 27.267 58.1926C36.313 39.9842 55.7924 30.3305 74.9693 32.8444C79.9182 33.4913 84.851 34.9506 89.5762 37.2819C90.5551 37.7649 91.506 38.2761 92.4345 38.8182C88.6133 37.2345 84.6846 36.2075 80.7414 35.6921C61.5644 33.1782 42.0877 42.8263 33.0391 61.0403C23.9904 79.2543 28.1024 100.534 41.7326 114.212Z" fill="#D1D1D1" stroke="#A4A4A4" stroke-linecap="round" stroke-linejoin="round"/>
<path d="M110.661 99.3367C99.7634 121.272 73.7226 130.788 51.3166 121.584C47.7359 119.516 44.5345 117.025 41.7325 114.213C28.1023 100.534 23.993 79.249 33.0389 61.0405C42.0849 42.8321 61.5643 33.1784 80.7412 35.6923C84.6845 36.2077 88.6131 37.2348 92.4343 38.8184C113.364 50.995 121.561 77.3954 110.661 99.3367Z" fill="white" stroke="#A4A4A4" stroke-linecap="round" stroke-linejoin="round"/>
<path d="M131.061 109.404C117.931 135.832 85.7564 146.633 59.1938 133.527L45.1938 126.62C47.5705 127.793 49.9916 128.777 52.4456 129.567C77.3647 137.669 105.106 126.56 117.061 102.496C129.016 78.4323 121.061 49.7125 99.4876 34.8766C97.3693 33.4108 95.1161 32.0888 92.7394 30.9163L106.739 37.8234C133.302 50.9284 144.191 82.9749 131.061 109.404Z" fill="#EBEBEB" stroke="#A4A4A4" stroke-linecap="round" stroke-linejoin="round"/>
<path d="M134.539 73.4994C134.379 73.6657 134.187 73.8096 133.987 73.9284C133.987 73.9284 134.193 73.7844 134.539 73.4994Z" fill="white" stroke="#A4A4A4" stroke-linecap="round" stroke-linejoin="round"/>
<path d="M137.185 74.3828C136.811 74.6911 136.589 74.8468 136.589 74.8468C132.88 77.0202 125.093 70.6992 119.189 60.7275C113.287 50.765 111.505 40.9165 115.21 38.7492C115.21 38.7492 115.219 38.7461 115.235 38.7308C115.993 38.233 131.67 28.2721 143.145 44.4717C153.922 59.6828 140.291 71.9044 137.185 74.3828Z" fill="white" stroke="#A4A4A4" stroke-linecap="round" stroke-linejoin="round"/>
<path fill-rule="evenodd" clip-rule="evenodd" d="M56.0413 54.818C57.1163 54.4543 58.2836 55.0279 58.6485 56.0992L64.0297 71.8956C64.3946 72.9669 63.819 74.1302 62.744 74.4939C61.669 74.8575 60.5017 74.2839 60.1368 73.2126L54.7556 57.4162C54.3907 56.3449 54.9663 55.1817 56.0413 54.818Z" fill="#A4A4A4"/>
<path fill-rule="evenodd" clip-rule="evenodd" d="M69.2649 61.3158C69.6298 62.3871 69.0542 63.5504 67.9792 63.914L52.1279 69.2766C51.0529 69.6403 49.8856 69.0667 49.5207 67.9954C49.1557 66.9241 49.7314 65.7608 50.8064 65.3972L66.6576 60.0346C67.7326 59.6709 68.8999 60.2446 69.2649 61.3158Z" fill="#A4A4A4"/>
<path fill-rule="evenodd" clip-rule="evenodd" d="M88.4719 70.7543C89.5469 70.3907 90.7142 70.9643 91.0791 72.0356L96.4603 87.8319C96.8253 88.9032 96.2496 90.0664 95.1746 90.4301C94.0997 90.7938 92.9324 90.2202 92.5674 89.1489L87.1862 73.3526C86.8213 72.2813 87.3969 71.118 88.4719 70.7543Z" fill="#A4A4A4"/>
<path fill-rule="evenodd" clip-rule="evenodd" d="M101.696 77.2522C102.061 78.3235 101.485 79.4868 100.41 79.8504L84.5587 85.2131C83.4837 85.5768 82.3164 85.0031 81.9514 83.9319C81.5865 82.8606 82.1621 81.6973 83.2371 81.3336L99.0884 75.971C100.163 75.6073 101.331 76.181 101.696 77.2522Z" fill="#A4A4A4"/>
<path d="M77.6721 98.7383L76.1991 101.703L69.5376 98.4167L71.0106 95.4518C71.468 94.531 72.256 93.8865 73.1518 93.5849C74.0577 93.2887 75.0764 93.3249 75.9904 93.7758C77.8384 94.6876 78.5821 96.9067 77.6721 98.7383Z" fill="#A4A4A4" stroke="#A4A4A4" stroke-linecap="round" stroke-linejoin="round"/>
<path d="M75.9903 93.7761C75.0764 93.3252 74.0577 93.2889 73.1517 93.5852C72.2559 93.8868 71.4679 94.5313 71.0105 95.4521L52.7355 132.238C50.7346 136.265 45.8157 137.921 41.7741 135.927C37.7224 133.928 36.0714 129.031 38.0722 125.003C39.8268 121.472 43.798 119.764 47.4807 120.724L22.7121 111.969L38.8103 79.5655C39.7203 77.7338 41.952 76.9828 43.79 77.8896L75.9903 93.7761Z" fill="white" stroke="#A4A4A4" stroke-linecap="round" stroke-linejoin="round"/>
<path d="M41.7743 135.927L16.9359 123.596C13.7169 122.008 12.3889 118.115 13.9827 114.907C15.5813 111.689 19.4933 110.381 22.7123 111.969L47.4809 120.724C43.7982 119.764 39.827 121.471 38.0724 125.003C36.0715 129.031 37.7226 133.928 41.7743 135.927Z" fill="#EBEBEB" stroke="#A4A4A4" stroke-linecap="round" stroke-linejoin="round"/>
<path d="M36.9632 98.8998L38.3938 99.6056C38.839 99.8253 39.3766 99.7258 39.7142 99.3613L47.2758 91.1959C47.6134 90.8314 48.1509 90.7319 48.5962 90.9515L51.0867 92.1803C51.5297 92.3989 51.7763 92.8817 51.6933 93.3683L50.5141 100.287C50.4312 100.773 50.6777 101.256 51.1208 101.475L54.0587 102.924C54.4029 103.094 54.6356 103.428 54.6752 103.809L55.0315 107.233C55.0711 107.614 55.3038 107.948 55.648 108.118L57.5876 109.075" stroke="#A4A4A4" stroke-miterlimit="10" stroke-linecap="round" stroke-linejoin="round"/>
<path d="M138.222 136.694C138.222 136.694 131.028 136.719 131.028 143.889C131.028 136.719 123.833 136.694 123.833 136.694C123.833 136.694 131.028 136.67 131.028 129.5C131.028 136.67 138.222 136.694 138.222 136.694Z" stroke="#A4A4A4" stroke-linecap="round" stroke-linejoin="round"/>
<path d="M14.8889 29.8056C14.8889 29.8056 7.69444 29.83 7.69444 37C7.69444 29.83 0.5 29.8056 0.5 29.8056C0.5 29.8056 7.69444 29.781 7.69444 22.6111C7.69444 29.781 14.8889 29.8056 14.8889 29.8056Z" stroke="#A4A4A4" stroke-linecap="round" stroke-linejoin="round"/>
</svg>
